<?xml version="1.0" encoding="utf-8"?>
<!-- Generator: Adobe Illustrator 16.0.0, SVG Export Plug-In . SVG Version: 6.00 Build 0)  -->
<!DOCTYPE svg PUBLIC "-//W3C//DTD SVG 1.1//EN" "http://www.w3.org/Graphics/SVG/1.1/DTD/svg11.dtd">
<svg version="1.1" id="Layer_1" xmlns="http://www.w3.org/2000/svg" xmlns:xlink="http://www.w3.org/1999/xlink" x="0px" y="0px"
	 width="256px" height="256px" viewBox="49.656 0 256 256" enable-background="new 49.656 0 256 256" xml:space="preserve">
<g>
	<g>
		<path fill="#3E80F5" d="M89.507,62.48H49.656v10.225h31.938v19.694H49.656v10.225h31.938v19.653H49.656v10.227h39.851
			c1.282,0,2.315-1.01,2.315-2.315V64.794C91.822,63.531,90.789,62.48,89.507,62.48z"/>
		<path fill="#3E80F5" d="M141.455,72.705c1.285,0,2.315-1.053,2.315-2.313v-5.598c0-1.263-1.03-2.313-2.315-2.313h-37.514
			c-1.285,0-2.315,1.051-2.315,2.313v65.395c0,1.306,1.03,2.315,2.315,2.315h37.514c1.285,0,2.315-1.01,2.315-2.315V91.894h-31.94
			V72.705H141.455z M133.566,102.119v20.158H111.83v-20.158H133.566z"/>
	</g>
	<path fill="#3E80F5" d="M239.443,62.48h-26.912L182.044,128l0,0l0,0l-3.578,7.658V64.794c0-1.263-1.051-2.313-2.312-2.313H153.87
		c-1.306,0-2.315,1.051-2.315,2.313v126.369c0,1.306,1.01,2.356,2.315,2.356h22.283c0.356,0,0.673-0.125,0.987-0.25l1.325,0.25
		l17.086-36.736l16.979,36.149h26.912L208.934,128L239.443,62.48z"/>
	<path fill="#3E80F5" d="M301.869,102.374c-9.614,0-18.6,2.693-26.3,7.279v-4.46c0-1.262-1.03-2.313-2.315-2.313h-20.682
		c-1.262,0-2.315,1.051-2.315,2.313v59.755v25.629v2.943h25.312v-2.943v-25.629V151.02c1.451-13.216,12.688-23.524,26.3-23.524
		h3.787v-25.122H301.869z"/>
</g>
</svg>
