<?xml version="1.0" encoding="utf-8"?>
<!-- Generator: Adobe Illustrator 16.0.0, SVG Export Plug-In . SVG Version: 6.00 Build 0)  -->
<!DOCTYPE svg PUBLIC "-//W3C//DTD SVG 1.1//EN" "http://www.w3.org/Graphics/SVG/1.1/DTD/svg11.dtd">
<svg version="1.1" id="Layer_1" xmlns="http://www.w3.org/2000/svg" xmlns:xlink="http://www.w3.org/1999/xlink" x="0px" y="0px"
	 width="256px" height="256px" viewBox="49.656 0 256 256" enable-background="new 49.656 0 256 256" xml:space="preserve">
<g>
	<path fill="#3E80F5" d="M113.642,128c0,17.666-14.312,32.007-31.979,32.007c-17.666,0-32.007-14.341-32.007-32.007
		c0-17.667,14.341-32.007,32.007-32.007C99.329,95.993,113.642,110.333,113.642,128z"/>
	<path fill="#3E80F5" d="M209.636,128c0,17.666-14.313,32.007-31.98,32.007c-17.666,0-32.007-14.341-32.007-32.007
		c0-17.667,14.341-32.007,32.007-32.007C195.322,95.993,209.636,110.333,209.636,128z"/>
	<path fill="#3E80F5" d="M305.657,128c0,17.666-14.341,32.007-32.007,32.007c-17.667,0-32.008-14.341-32.008-32.007
		c0-17.667,14.341-32.007,32.008-32.007C291.316,95.993,305.657,110.333,305.657,128z"/>
</g>
</svg>
