<?xml version="1.0" encoding="utf-8"?>
<!-- Generator: Adobe Illustrator 16.0.0, SVG Export Plug-In . SVG Version: 6.00 Build 0)  -->
<!DOCTYPE svg PUBLIC "-//W3C//DTD SVG 1.1//EN" "http://www.w3.org/Graphics/SVG/1.1/DTD/svg11.dtd">
<svg version="1.1" id="Layer_1" xmlns="http://www.w3.org/2000/svg" xmlns:xlink="http://www.w3.org/1999/xlink" x="0px" y="0px"
	 width="256px" height="256px" viewBox="0 0 256 256" enable-background="new 0 0 256 256" xml:space="preserve">
<path fill="#3E80F5" d="M127.504,32L96,221.504L95.504,224h33.008l31.504-189.504L160.512,32H127.504z M80,61.008l-8.496,5.503
	l-64,40L0,111.008v34.015l7.504,4.496l64,40L80,195.023v-38l-46.496-29.007L80,99.008V61.008z M176,61.008v38l46.496,29.008
	L176,157.023v38l8.496-5.504l64-40l7.504-4.496v-34.015l-7.504-4.497l-64-40L176,61.008L176,61.008z"/>
</svg>
