<?xml version="1.0" encoding="utf-8"?>
<!-- Generator: Adobe Illustrator 16.0.0, SVG Export Plug-In . SVG Version: 6.00 Build 0)  -->
<!DOCTYPE svg PUBLIC "-//W3C//DTD SVG 1.1//EN" "http://www.w3.org/Graphics/SVG/1.1/DTD/svg11.dtd">
<svg version="1.1" id="Layer_1" xmlns="http://www.w3.org/2000/svg" xmlns:xlink="http://www.w3.org/1999/xlink" x="0px" y="0px"
	 width="256px" height="256px" viewBox="0 0 256 256" enable-background="new 0 0 256 256" xml:space="preserve">
<g transform="translate(0,-952.36218)">
	<path fill="#3E80F5" d="M54.838,952.474c-2.993,0.329-5.239,2.89-5.174,5.901v34.859h-2.905c-3.218,0-5.81,2.591-5.81,5.81v2.905
		H6.089c-0.182-0.009-0.363-0.009-0.545,0c-3.208,0.15-5.688,2.873-5.538,6.082s2.874,5.688,6.083,5.538h34.859v17.43H6.089
		c-0.182-0.009-0.363-0.009-0.545,0c-3.208,0.15-5.688,2.873-5.538,6.082s2.874,5.688,6.083,5.538h34.859v17.43H6.089
		c-0.182-0.009-0.363-0.009-0.545,0c-3.208,0.15-5.688,2.873-5.538,6.082s2.874,5.688,6.083,5.538h34.859v17.43H6.089
		c-0.182-0.009-0.363-0.009-0.545,0c-3.208,0.15-5.688,2.874-5.538,6.082c0.15,3.209,2.874,5.688,6.083,5.538h34.859v17.43H6.089
		c-0.182-0.009-0.363-0.009-0.545,0c-3.208,0.15-5.688,2.874-5.538,6.082c0.15,3.209,2.874,5.688,6.083,5.538h34.859v17.43H6.089
		c-0.182-0.009-0.363-0.009-0.545,0c-3.208,0.15-5.688,2.874-5.538,6.082c0.15,3.209,2.874,5.688,6.083,5.538h34.859v2.904
		c0,3.219,2.592,5.811,5.81,5.811h2.905v34.859c-0.045,3.209,2.519,5.847,5.728,5.893c3.208,0.045,5.847-2.52,5.892-5.728
		c0.001-0.056,0.001-0.11,0-0.165v-34.859h17.43v34.859c-0.045,3.209,2.519,5.847,5.728,5.893c3.208,0.045,5.847-2.52,5.892-5.728
		c0.001-0.056,0.001-0.11,0-0.165v-34.859h17.43v34.859c-0.045,3.209,2.519,5.847,5.728,5.893c3.208,0.045,5.847-2.52,5.892-5.728
		c0.001-0.056,0.001-0.11,0-0.165v-34.859h17.429v34.859c-0.045,3.209,2.52,5.847,5.728,5.893c3.209,0.045,5.848-2.52,5.893-5.728
		c0.001-0.056,0.001-0.11,0-0.165v-34.859h17.43v34.859c-0.045,3.209,2.52,5.847,5.728,5.893c3.209,0.045,5.848-2.52,5.893-5.728
		c0.001-0.056,0.001-0.11,0-0.165v-34.859h17.43v34.859c-0.045,3.209,2.52,5.847,5.728,5.893c3.209,0.045,5.848-2.52,5.893-5.728
		c0.001-0.056,0.001-0.11,0-0.165v-34.859h2.905c3.219,0,5.81-2.592,5.81-5.811v-2.904h34.86c3.208,0.045,5.847-2.52,5.892-5.728
		c0.046-3.209-2.519-5.848-5.728-5.893c-0.056-0.001-0.109-0.001-0.164,0h-34.86v-17.43h34.86c3.208,0.045,5.847-2.52,5.892-5.729
		c0.046-3.208-2.519-5.847-5.728-5.892c-0.056-0.001-0.109-0.001-0.164,0h-34.86v-17.43h34.86c3.208,0.045,5.847-2.52,5.892-5.729
		c0.046-3.208-2.519-5.847-5.728-5.892c-0.056-0.001-0.109-0.001-0.164,0h-34.86v-17.43h34.86c3.208,0.045,5.847-2.519,5.892-5.728
		c0.046-3.209-2.519-5.847-5.728-5.892c-0.056-0.001-0.109-0.001-0.164,0h-34.86v-17.43h34.86c3.208,0.045,5.847-2.519,5.892-5.728
		c0.046-3.209-2.519-5.847-5.728-5.892c-0.056-0.001-0.109-0.001-0.164,0h-34.86v-17.43h34.86c3.208,0.045,5.847-2.519,5.892-5.728
		c0.046-3.209-2.519-5.847-5.728-5.892c-0.056-0.001-0.109-0.001-0.164,0h-34.86v-2.905c0-3.219-2.591-5.81-5.81-5.81h-2.905
		v-34.859c0.069-3.208-2.476-5.865-5.684-5.935c-0.255-0.005-0.509,0.006-0.762,0.034c-2.993,0.329-5.239,2.89-5.175,5.901v34.859
		h-17.43v-34.859c0.069-3.208-2.476-5.865-5.684-5.935c-0.255-0.005-0.51,0.006-0.762,0.034c-2.993,0.329-5.239,2.89-5.175,5.901
		v34.859h-17.43v-34.859c0.069-3.208-2.476-5.865-5.684-5.935c-0.255-0.005-0.509,0.006-0.762,0.034
		c-2.993,0.329-5.239,2.89-5.175,5.901v34.859h-17.429v-34.859c0.069-3.208-2.476-5.865-5.684-5.935
		c-0.255-0.005-0.509,0.006-0.762,0.034c-2.993,0.329-5.239,2.89-5.174,5.901v34.859h-17.43v-34.859
		c0.069-3.208-2.476-5.865-5.684-5.935c-0.255-0.005-0.509,0.006-0.762,0.034c-2.993,0.329-5.239,2.89-5.174,5.901v34.859h-17.43
		v-34.859c0.05-3.208-2.51-5.851-5.719-5.901c-0.06-0.001-0.121-0.001-0.182,0C55.202,952.465,55.02,952.465,54.838,952.474z"/>
</g>
</svg>
