<?xml version="1.0" encoding="utf-8"?>
<!-- Generator: Adobe Illustrator 16.0.0, SVG Export Plug-In . SVG Version: 6.00 Build 0)  -->
<!DOCTYPE svg PUBLIC "-//W3C//DTD SVG 1.1//EN" "http://www.w3.org/Graphics/SVG/1.1/DTD/svg11.dtd">
<svg version="1.1" id="Layer_1" xmlns="http://www.w3.org/2000/svg" xmlns:xlink="http://www.w3.org/1999/xlink" x="0px" y="0px"
	 width="256px" height="256px" viewBox="0 0 256 256" enable-background="new 0 0 256 256" xml:space="preserve">
<path fill="#3E80F5" d="M76.539,0.004C51.784-0.301,28.252,14.667,18.94,39.115c-11.918,31.294,3.905,66.479,35.199,78.399
	c31.294,11.919,66.392-3.906,78.309-35.2c11.921-31.294-3.815-66.391-35.11-78.31C90.493,1.397,83.47,0.09,76.539,0.004z
	 M76.272,18.315c2.408,0.002,4.358,1.955,4.356,4.363c0,0.027,0,0.054-0.001,0.082l-0.089,33.6h34.222
	c2.406-0.101,4.438,1.767,4.538,4.173c0.101,2.405-1.767,4.438-4.173,4.538c-0.122,0.005-0.244,0.005-0.365,0H76.895
	c-1.243,0.189-2.506-0.167-3.467-0.978c-0.03,0-0.059,0-0.089,0c-0.093-0.085-0.182-0.174-0.267-0.267
	c-0.095-0.114-0.184-0.232-0.267-0.355c-0.786-0.939-1.14-2.165-0.978-3.377l0.089-37.333c-0.047-2.407,1.867-4.396,4.274-4.443
	C76.217,18.315,76.245,18.315,76.272,18.315z M138.671,35.826c0.613,1.543,1.195,3.124,1.688,4.711
	c7.954,23.592,0.63,50.966-16.888,68.266c-18.295,19.038-48.491,24.71-72.888,14.844c-1.345-0.5-2.613-1.008-3.911-1.6
	c0.246,1.241,0.489,2.466,0.8,3.645c1.409,5.343,5.851,16.035,8.089,19.732c5.718,9.44,17.479,32.283,19.022,36.889
	c1.512,4.51,1.792,7.954,1.688,13.244c-0.333,17.037-12.777,36.017-19.555,53.599c-1.28,2.807,0.48,6.554,4.089,6.845h101.775
	c2.62-0.045,4.656-2.498,4.533-5.245c-0.11-1.118-0.172-7.29-0.267-13.866c5.812,0.008,11.622,0.022,21.155-0.178
	c9.534-0.2,15.465-4.729,21.244-14.666c5.611-9.646,4.057-24.488,8.089-44.711c0.788-3.955,8.123-1.015,11.733-1.511
	c3.697-0.508,8.885-2.148,11.199-7.2c1.997-4.356-0.346-8.982-2.222-12.532c-2.203-4.17-5.353-8.829-8.533-13.601
	c-3.181-4.77-6.401-9.611-8.711-13.955c-1.615-3.038-3.302-7.81-3.467-10.933c-0.093-1.76-1.645-17.966-3.733-25.6
	C204.676,59.375,180.057,38.44,138.671,35.826z"/>
</svg>
