<?xml version="1.0" encoding="utf-8"?>
<!-- Generator: Adobe Illustrator 16.0.0, SVG Export Plug-In . SVG Version: 6.00 Build 0)  -->
<!DOCTYPE svg PUBLIC "-//W3C//DTD SVG 1.1//EN" "http://www.w3.org/Graphics/SVG/1.1/DTD/svg11.dtd">
<svg version="1.1" id="Layer_1" xmlns="http://www.w3.org/2000/svg" xmlns:xlink="http://www.w3.org/1999/xlink" x="0px" y="0px"
	 width="256px" height="256px" viewBox="49.656 0 256 256" enable-background="new 49.656 0 256 256" xml:space="preserve">
<g>
	<ellipse fill="#3E80F5" cx="121.656" cy="64" rx="72" ry="32"/>
	<path fill="#3E80F5" d="M121.656,128c-33.512,0-61.424-10.216-69.456-24c-1.504,2.592-2.544,5.216-2.544,8
		c0,17.688,32.232,32,72,32c39.768,0,72-14.312,72-32c0-2.784-1.049-5.408-2.544-8C183.072,117.784,155.168,128,121.656,128z"/>
	<path fill="#3E80F5" d="M121.656,176c-33.512,0-61.424-10.216-69.456-24c-1.504,2.592-2.544,5.216-2.544,8
		c0,17.688,32.232,32,72,32c39.768,0,72-14.312,72-32c0-2.784-1.049-5.408-2.544-8C183.072,165.784,155.168,176,121.656,176z"/>
	<path fill="#3E80F5" d="M233.656,160c-8.439,0-24-0.656-24-1.84v15.903c0,1.185,15.528,1.937,24,1.937c39.768,0,72-14.312,72-32
		c0-2.784-1.049-5.408-2.544-8C295.08,149.784,267.168,160,233.656,160z"/>
	<path fill="#3E80F5" d="M121.656,224c-33.512,0-61.424-10.216-69.456-24c-1.504,2.592-2.544,5.216-2.544,8
		c0,17.688,32.232,32,72,32c39.768,0,72-14.312,72-32c0-2.784-1.049-5.408-2.544-8C183.072,213.784,155.168,224,121.656,224z"/>
	<path fill="#3E80F5" d="M233.656,208c-8.439,0-24-0.656-24-1.84v15.903c0,1.185,15.528,1.937,24,1.937c39.768,0,72-14.312,72-32
		c0-2.784-1.049-5.408-2.544-8C295.08,197.784,267.168,208,233.656,208z"/>
	<path fill="#3E80F5" d="M233.656,112c-8.439,0-24-0.656-24-1.84v15.903c0,1.185,15.528,1.937,24,1.937c39.768,0,72-14.312,72-32
		c0-2.784-1.049-5.408-2.544-8C295.08,101.784,267.168,112,233.656,112z"/>
	<path fill="#3E80F5" d="M233.656,80c39.768,0,72-14.312,72-32c0-17.656-32.232-32-72-32c-22.144,0-41.688,4.528-54.896,11.528
		c18.881,8.816,30.896,21.88,30.896,36.472c0,4.72-1.297,9.248-3.607,13.56C214.545,79.128,223.873,80,233.656,80z"/>
</g>
</svg>
