<?xml version="1.0" encoding="utf-8"?>
<!-- Generator: Adobe Illustrator 16.0.0, SVG Export Plug-In . SVG Version: 6.00 Build 0)  -->
<!DOCTYPE svg PUBLIC "-//W3C//DTD SVG 1.1//EN" "http://www.w3.org/Graphics/SVG/1.1/DTD/svg11.dtd">
<svg version="1.1" id="Layer_1" xmlns="http://www.w3.org/2000/svg" xmlns:xlink="http://www.w3.org/1999/xlink" x="0px" y="0px"
	 width="500px" height="500px" viewBox="0 0 500 500" enable-background="new 0 0 500 500" xml:space="preserve">
<g>
	<path fill="#FFFFFF" d="M324,316.408c-1.656,5.786-2.752,10.47-3.613,14.225c-2.215,9.52-3.579,15.363-11.027,15.771l-0.075,0.02
		l-0.569,0.018l-0.872-0.037c-7.447-0.408-8.791-6.245-11.007-15.771c-0.882-3.755-1.967-8.438-3.632-14.225
		c-5.713-19.939-17.164-36.337-27.598-48.584c-10.477,1.42-14.604,3.425-21.924,11.413c-14.553,15.854-18.052,18.074-25.093,18.074
		c-5.884,0-40.049,1.816-50.062,2.442c2.801-5.121,6.842-7.784,12.371-8.458c11.965-0.726,27.365-0.896,37.691-1.679
		c3.41-0.258,5.861-1.138,19.45-15.613c7.619-8.106,11.377-11.213,21.405-13.089c-2.909-3.157-5.64-5.947-7.962-8.33
		c-5.79-4.792-9.921-9.08-13.738-14.312c-0.114-0.158-0.372-0.525-1.092-1.627c-10.104-14.192-15.448-31.077-15.448-48.842
		c0-22.274,8.392-42.632,22.167-58.076H150.55c-10.955,0-19.824,8.872-19.824,19.832v200.883c0,10.949,8.869,19.83,19.824,19.83
		h200.884c10.952,0,19.839-8.883,19.839-19.83V247.969v-0.445c-1.717,1.689-3.484,3.296-5.327,4.846
		C354.237,264.32,332.591,286.443,324,316.408 M185.177,310.352h-15.269c-2.563,0-3.298,3.237-4.242,11.069l-0.068,1.242h18.728
		l-0.346,4.814h-18.736l-0.792,11.5c-0.112,1.451,1.729,2.742,6.674,2.93h11.857l-0.354,4.823h-17.331c-0.346-0.011-0.732,0-1.143,0
		c-9.476,0-11.229-1.945-11.079-4.189l1.066-15.063l0.333-4.814l0.04-0.637c0.088-0.564,0.165-1.23,0.236-2.025
		c0.464-5.697,0.68-14.475,8.042-14.475h22.734L185.177,310.352z M225.687,310.352h-11.712l-2.523,36.38h-11.121l2.545-36.38
		h-11.692l0.334-4.825h34.5L225.687,310.352z M273.497,315.914c-0.298-0.101-7.06-4.469-14.401-3.505
		c-12.019,1.578-15.178,11.613-15.066,16.286c0.112,4.139,1.917,13.729,15.121,16.14c7.342,1.35,13.46-3.603,13.793-3.721
		l-0.091,6.243c-0.039,0.029-3.966,3.554-18.112,3.554c-7.112,0-23.946-6.126-23.268-21.964
		c0.795-18.372,16.004-23.068,27.713-22.754c8.409,0.231,14.422,2.324,14.422,2.324L273.497,315.914z"/>
	<path fill="#FFFFFF" d="M308.103,222.134c7.877-2.14,18.532-5.764,18.532-21.191c0-0.297,0-10.749-0.014-11.046
		c-0.557-22.6-21.778-20.347-36.032-20.285l0.035,52.665C293.707,222.967,299.514,223.646,308.103,222.134"/>
	<path fill="#FFFFFF" d="M351.434,129.727h-98.444c-15.302,14.652-24.832,35.267-24.832,58.077c0,16.337,4.904,31.861,14.197,44.875
		l0.091,0.125c0,0,0.625,0.984,0.849,1.271c3.524,4.865,7.34,8.815,12.741,13.29l0.275,0.25c3.134,3.188,6.988,7.139,11.116,11.742
		l-0.089-103.773l45.043-0.01c24.377,0,37.116,4.221,37.631,28.596c0.022,0.458,0.022,16.963,0.022,17.439
		c0,19.246-9.18,32.934-39.278,35.625v0.068c-9.031,0.813-16.444,0.687-20.11,0.539l0.016,54.084
		c3.69,6.927,6.894,14.447,9.218,22.568c1.718,5.965,2.825,10.74,3.707,14.562c2.359,10.103,2.787,10.39,4.944,10.438h0.074h0.069
		c2.177-0.049,2.601-0.336,4.945-10.438c0.881-3.821,1.991-8.597,3.705-14.562c9.106-31.763,31.678-54.75,43.79-67.098l0.262-0.247
		c3.592-2.989,6.911-6.322,9.896-9.896V149.56C371.272,138.602,362.385,129.727,351.434,129.727"/>
</g>
</svg>
