<?xml version="1.0" encoding="utf-8"?>
<!-- Generator: Adobe Illustrator 16.0.0, SVG Export Plug-In . SVG Version: 6.00 Build 0)  -->
<!DOCTYPE svg PUBLIC "-//W3C//DTD SVG 1.1//EN" "http://www.w3.org/Graphics/SVG/1.1/DTD/svg11.dtd">
<svg version="1.1" id="Layer_1" xmlns="http://www.w3.org/2000/svg" xmlns:xlink="http://www.w3.org/1999/xlink" x="0px" y="0px"
	 width="500px" height="500px" viewBox="0 0 500 500" enable-background="new 0 0 500 500" xml:space="preserve">
<path fill="#FFFFFF" d="M347.318,139.445h-194.64c-7.309,0-13.236,5.928-13.236,13.239v194.634c0,7.316,5.927,13.236,13.236,13.236
	h194.64c7.313,0,13.239-5.92,13.239-13.236V152.684C360.558,145.373,354.633,139.445,347.318,139.445z M286.865,281.585
	c0,2.91-2.357,5.269-5.265,5.269h-26.325c-2.902,0-5.263-2.358-5.263-5.269v-26.323c0-2.907,2.36-5.27,5.263-5.27h26.325
	c2.907,0,5.265,2.363,5.265,5.27V281.585L286.865,281.585z M323.714,207.878c0,2.904-2.354,5.262-5.26,5.262h-14.062v0.02
	c0,0-32.977,0-65.312,0c-15.004,0-25.92,12.208-25.92,26.958c0,32.429,0,69.561,0,69.561v8.764c0,2.908-2.353,5.267-5.267,5.267
	h-26.326c-2.91,0-5.256-2.358-5.256-5.267v-8.764c0,0-0.013-32.681-0.013-75.976c0-34.513,24.582-57.397,58.229-57.397
	c24.383,0,43.463,0,55.48,0c0.116-0.012,0.246-0.022,0.363-0.022h28.085c2.905,0,5.259,2.356,5.259,5.265L323.714,207.878
	L323.714,207.878z"/>
</svg>
