<?xml version="1.0" encoding="utf-8"?>
<!-- Generator: Adobe Illustrator 16.0.0, SVG Export Plug-In . SVG Version: 6.00 Build 0)  -->
<!DOCTYPE svg PUBLIC "-//W3C//DTD SVG 1.1//EN" "http://www.w3.org/Graphics/SVG/1.1/DTD/svg11.dtd">
<svg version="1.1" id="Layer_1" xmlns="http://www.w3.org/2000/svg" xmlns:xlink="http://www.w3.org/1999/xlink" x="0px" y="0px"
	 width="500px" height="500px" viewBox="0 0 500 500" enable-background="new 0 0 500 500" xml:space="preserve">
<g>
	<path fill="#FFFFFF" d="M152.413,232.335c-13.405-1.728-26.707-2.245-41.357-2.196c-14.647-0.049-27.952,0.469-41.354,2.196
		c-8.147,0.876-14.513,4.426-14.515,12.559v36.098c0.001,8.133,6.368,11.686,14.515,12.558c13.403,1.731,26.707,2.247,41.354,2.198
		c14.65,0.049,27.952-0.467,41.357-2.198c8.145-0.872,14.513-4.424,14.518-12.558v-36.098
		C166.926,236.761,160.557,233.211,152.413,232.335 M155.826,283.524c-6.198,0.511-24.366,2.025-44.77,2.031
		c-20.407-0.006-38.57-1.521-44.768-2.031v-41.173c6.197-0.501,24.36-1.953,44.768-1.953c20.404,0,38.573,1.452,44.77,1.953V283.524
		z"/>
	<rect x="89.648" y="204.249" fill="#FFFFFF" width="9.99" height="21.264"/>
	<rect x="122.479" y="204.249" fill="#FFFFFF" width="9.984" height="21.264"/>
	<path fill="#FFFFFF" d="M434.562,219.412c-7.203-0.93-15.549-1.208-23.42-1.185c-7.865-0.023-16.215,0.255-23.418,1.185
		c-4.375,0.47-7.795,2.374-7.795,6.741v20.597c0,4.37,3.42,6.27,7.795,6.746c7.203,0.932,15.553,1.206,23.418,1.181
		c7.871,0.025,16.217-0.249,23.42-1.181c4.375-0.476,7.793-2.375,7.797-6.746v-20.597
		C442.355,221.786,438.938,219.88,434.562,219.412 M433.988,246.999c-3.016,0.245-12.932,0.986-22.846,0.986
		c-9.912,0-19.828-0.741-22.842-0.986v-21.092c3.014-0.249,12.93-0.953,22.842-0.957c9.914,0.005,19.83,0.708,22.846,0.957V246.999z
		"/>
	<rect x="354.512" y="241.247" fill="#FFFFFF" width="8.377" height="48.867"/>
	<rect x="337.889" y="250.742" fill="#FFFFFF" width="8.371" height="22.506"/>
	<path fill="#FFFFFF" d="M325.893,250.742h-35.424h-0.01l0.002,42.307l39.219-7.549v-7.072l-30.844,5.938v-26.979h22.371v15.861
		h8.473v-18.746c0-0.961-0.369-1.926-1.113-2.666C327.832,251.105,326.863,250.742,325.893,250.742"/>
	<path fill="#FFFFFF" d="M388.455,266.403h10.088l-19.473,26.216h9.574l19.477-26.216h13.58l-19.475,26.216h9.668l19.473-26.216
		h5.008v26.216h8.439v-26.75c0-1.569-0.605-3.146-1.801-4.346c-1.201-1.196-2.783-1.809-4.355-1.809h-55.455h-0.098v0.134
		L372.9,273.171h10.369L388.455,266.403z"/>
	<rect x="399.115" y="230.185" fill="#FFFFFF" width="6.408" height="12.582"/>
	<rect x="416.734" y="230.185" fill="#FFFFFF" width="6.408" height="12.582"/>
	<path fill="#FFFFFF" d="M322.074,219.604c-0.268-0.131-0.555-0.201-0.842-0.201h-22.977c-0.281,0-0.568,0.07-0.838,0.201
		c-0.273,0.148-0.496,0.35-0.654,0.585l-13.088,25.664h9.051l10.271-19.849h13.498l10.271,19.849h9.055l-13.092-25.664
		C322.568,219.954,322.35,219.752,322.074,219.604"/>
	<rect x="226.128" y="271.481" fill="#FFFFFF" width="8.374" height="13.497"/>
	<path fill="#FFFFFF" d="M256.752,285.54h-18.419v6.649h23.103c0.967,0,1.939-0.363,2.678-1.099
		c0.736-0.736,1.109-1.704,1.109-2.664v-39.721h-8.471V285.54L256.752,285.54z"/>
	<polygon fill="#FFFFFF" points="198.672,256.96 190.845,256.96 195.128,224.63 202.954,224.63 	"/>
	<polygon fill="#FFFFFF" points="215.45,218.291 207.074,218.291 207.074,293.064 207.859,293.064 215.297,293.064 215.45,293.064 	
		"/>
	<rect x="222.56" y="259.192" fill="#FFFFFF" width="50.114" height="7.066"/>
	<polygon fill="#FFFFFF" points="250.858,243.648 250.858,231.764 268.383,231.764 268.383,224.697 250.858,224.697 
		250.858,218.482 242.48,218.482 242.48,224.697 226.307,224.697 226.307,231.764 242.48,231.764 242.48,243.648 222.56,243.648 
		222.56,250.715 272.674,250.715 272.674,243.648 	"/>
	<polygon fill="#FFFFFF" points="208.571,269.604 190.963,278.689 190.963,270.585 208.571,261.503 	"/>
	<rect x="199.156" y="234.275" fill="#FFFFFF" width="23.404" height="7.068"/>
</g>
</svg>
