<?xml version="1.0" encoding="utf-8"?>
<!-- Generator: Adobe Illustrator 16.0.0, SVG Export Plug-In . SVG Version: 6.00 Build 0)  -->
<!DOCTYPE svg PUBLIC "-//W3C//DTD SVG 1.1//EN" "http://www.w3.org/Graphics/SVG/1.1/DTD/svg11.dtd">
<svg version="1.1" id="Layer_1" xmlns="http://www.w3.org/2000/svg" xmlns:xlink="http://www.w3.org/1999/xlink" x="0px" y="0px"
	 width="500px" height="500px" viewBox="0 0 500 500" enable-background="new 0 0 500 500" xml:space="preserve">
<g>
	<path fill="#FFFFFF" d="M153.212,257.146l-21.08,24.929c-2.247,2.384,0.534,4.984,2.675,2.708l20.972-25.144l22.58,25.251
		c1.819,2.277,4.814,0.108,2.996-2.275l-22.792-25.469l21.937-24.93c1.604-2.167-1.499-4.443-2.89-2.385l-21.83,24.93
		l-20.331-24.712c-2.032-2.059-4.815,0.65-2.674,2.709L153.212,257.146z"/>
	<path fill="#FFFFFF" d="M193.229,284.133c0,2.603,3.746,2.603,3.746,0v-52.782c0-2.493-3.746-2.493-3.746,0.107V284.133z
		 M197.081,216.394c0-2.385-3.959-2.385-3.959,0v6.068c0,2.385,3.959,2.385,3.959,0V216.394z"/>
	<path fill="#FFFFFF" d="M262.351,283.809c0,1.192,0.749,1.951,1.925,1.951c1.179,0,1.819-0.759,1.819-1.951V252.81
		c0-18.315-16.264-26.879-30.496-23.194c-7.704,2.059-15.085,7.804-17.547,16.909v-14.958c0-1.192-0.642-1.951-1.82-1.951
		c-1.176,0-1.926,0.868-1.926,1.843v52.35c0,1.192,0.75,1.951,1.926,1.951c1.179,0,1.82-0.759,1.82-1.951v-25.904
		c0.321-11.38,7.704-21.893,18.726-24.712c12.625-3.359,25.573,5.528,25.573,19.617V283.809L262.351,283.809z"/>
	<path fill="#FFFFFF" d="M282.658,242.741c0.014,0.078,0.03,0.15,0.046,0.227h-0.037c-0.033,0.993-0.839,1.789-1.832,1.789
		c-0.996,0-1.801-0.796-1.836-1.789h-0.016c-2.376-12.083-11.153-21.831-22.604-25.457c-0.004-0.003-0.008-0.003-0.011-0.005
		c-0.004,0-0.006-0.003-0.009-0.003c-0.012-0.003-0.024-0.008-0.035-0.011c0-0.001,0.002-0.004,0.002-0.004
		c-0.923-0.349-1.41-1.382-1.087-2.331c0.332-0.963,1.368-1.473,2.319-1.142c0.005,0.003,0.01,0.005,0.013,0.008
		c0.001-0.004,0.003-0.008,0.006-0.011c12.694,4.065,22.409,14.909,25.008,28.34C282.623,242.478,282.646,242.606,282.658,242.741
		 M256.855,223.144c0.289,0,0.566,0.072,0.814,0.188c0.003-0.011,0.005-0.021,0.008-0.034c7.942,3.481,13.984,10.548,16.156,19.183
		H273.8c0.207,1.004-0.375,2.015-1.362,2.306c-1.04,0.306-2.127-0.3-2.428-1.352c-0.046-0.157-0.064-0.313-0.07-0.467H269.9
		c-1.956-7.145-7.01-12.98-13.608-15.936c0.004-0.012,0.007-0.024,0.01-0.037c-0.799-0.244-1.387-0.988-1.387-1.88
		C254.915,224.026,255.784,223.144,256.855,223.144"/>
	<path fill="#FFFFFF" d="M115.658,216.842v37.762c0,8.583-3.008,15.154-7.611,19.719c-0.044,0.032-0.086,0.066-0.131,0.099
		c-4.989,4.883-11.811,7.431-18.716,7.65c-0.041,0.008-0.081,0.014-0.121,0.021c-13.988,0.383-28.268-8.773-28.268-27.489v-23.281
		c0.002-0.001,0.005-0.001,0.007-0.001V216.64c0-2.394-3.438-2.394-3.438-0.108v15.897c0.001-0.002,0.002-0.002,0.004-0.003v22.179
		c0,15.545,8.693,25.262,19.56,29.146c0.013,0,0.027-0.002,0.04-0.002c16.113,5.748,36.965-1.341,41.369-21.257
		c0.007-0.011,0.014-0.023,0.02-0.035c0.528-2.428,0.822-5.043,0.822-7.853v-37.869
		C119.193,214.454,115.658,214.454,115.658,216.842"/>
	<path fill="#FFFFFF" d="M302.713,223.064c-1.163,0.196-1.747,0.682-1.747,1.454c0,0.973,0.584,1.454,1.747,1.454h22.979
		c-6.209,8.145-14.739,14.935-25.598,20.361c-1.162,0.582-1.552,1.359-1.162,2.328c0.581,0.778,1.451,0.872,2.616,0.291
		c0.385-0.19,0.968-0.481,1.746-0.874c4.262-2.518,7.464-4.553,9.598-6.105v41.882c0,0.97,0.481,1.55,1.455,1.746
		c0.968-0.196,1.55-0.776,1.746-1.746v-14.544h45.083v8.727c0.191,2.907-0.58,4.363-2.326,4.363
		c-1.554,0.386-5.528-0.292-11.927-2.036c-1.163-0.393-1.941,0-2.326,1.163c-0.196,0.97,0.291,1.646,1.455,2.036
		c4.262,1.163,7.853,1.841,10.762,2.035c5.426,0.581,7.948-1.649,7.562-6.689v-37.811c0.188-3.682-1.65-5.426-5.527-5.236h-38.392
		c3.876-3.49,6.88-6.786,9.018-9.891h38.393c0.969,0,1.551-0.481,1.748-1.452c-0.197-0.773-0.779-1.259-1.748-1.454H330.93
		c0.968-1.938,1.936-3.878,2.908-5.819c0.386-0.771,0.095-1.454-0.875-2.035c-0.971-0.19-1.648,0.099-2.033,0.871
		c-0.195,0.196-0.487,0.683-0.875,1.455c-0.58,1.746-1.451,3.59-2.614,5.528h-24.728V223.064z M316.094,250.989v-10.474
		c-0.195-1.163,0.48-1.744,2.035-1.744h41.013c1.355,0,2.035,0.582,2.035,1.744v10.474H316.094z M361.177,266.403h-45.083v-12.508
		h45.083V266.403z"/>
	<path fill="#FFFFFF" d="M373.685,250.987c-0.39,1.164-0.29,2.036,0.293,2.617c0.968,0.39,1.744,0.099,2.325-0.874
		c0.771-1.549,1.744-3.389,2.91-5.524c0.965-1.938,1.641-3.2,2.035-3.781v40.429c0,0.771,0.479,1.163,1.453,1.163
		c0.772,0,1.26-0.392,1.454-1.163v-47.411c1.746-7.367,2.909-13.768,3.49-19.197c0-0.968-0.487-1.548-1.454-1.746
		c-0.973,0.198-1.453,0.778-1.453,1.746C383.379,228.88,379.694,240.13,373.685,250.987 M407.427,215.501
		c-0.582,0.778-0.489,1.455,0.289,2.037c2.329,2.326,4.943,5.335,7.854,9.017c0.582,0.971,1.261,1.163,2.037,0.582
		c0.772-0.582,0.873-1.353,0.289-2.327c-3.104-3.681-5.139-6.006-6.106-6.98c-0.778-0.771-1.455-1.549-2.035-2.327
		C408.778,214.92,408.008,214.92,407.427,215.501 M389.975,228.301c-0.975,0.195-1.455,0.682-1.455,1.454
		c0,0.972,0.48,1.455,1.455,1.455h51.19c0.773,0,1.261-0.483,1.455-1.455c-0.196-0.773-0.682-1.259-1.455-1.454H389.975z
		 M391.719,266.985v11.635c0,3.488,1.646,5.234,4.943,5.234h38.104c3.295,0,4.946-1.94,4.946-5.816v-11.344
		c0-3.681-1.747-5.526-5.239-5.526h-37.227C393.558,261.362,391.719,263.302,391.719,266.985 M392.883,240.517
		c0,0.973,0.582,1.456,1.744,1.456h42.176c0.773,0,1.259-0.483,1.455-1.456c-0.198-0.773-0.684-1.26-1.455-1.455h-41.885
		C393.755,239.258,393.071,239.745,392.883,240.517 M393.172,251.569c0.192,0.972,0.771,1.454,1.746,1.454h42.177
		c0.771,0,1.163-0.482,1.163-1.454c0-0.774-0.393-1.259-1.163-1.454h-42.177C393.943,250.31,393.364,250.795,393.172,251.569
		 M396.662,280.945c-1.553,0-2.231-0.581-2.036-1.745v-13.38c0-0.968,0.584-1.549,1.747-1.745h38.978
		c0.771,0.196,1.257,0.872,1.452,2.036V279.2c-0.195,0.97-0.779,1.549-1.746,1.745H396.662L396.662,280.945z"/>
</g>
</svg>
