<?xml version="1.0" encoding="utf-8"?>
<!-- Generator: Adobe Illustrator 16.0.0, SVG Export Plug-In . SVG Version: 6.00 Build 0)  -->
<!DOCTYPE svg PUBLIC "-//W3C//DTD SVG 1.1//EN" "http://www.w3.org/Graphics/SVG/1.1/DTD/svg11.dtd">
<svg version="1.1" id="Layer_1" xmlns="http://www.w3.org/2000/svg" xmlns:xlink="http://www.w3.org/1999/xlink" x="0px" y="0px"
	 width="500px" height="500px" viewBox="0 0 500 500" enable-background="new 0 0 500 500" xml:space="preserve">
<g>
	<g>
		<g>
			<g>
				<path id="SVGID_1_" fill="#FFFFFF" d="M50.044,245.558c0-7.989,6.471-14.463,14.467-14.463c7.979,0,14.457,6.474,14.457,14.463
					c0,3.007-0.92,5.798-2.484,8.114l2.097,5.671l-5.509-2.142c-2.4,1.766-5.352,2.822-8.561,2.822
					C56.515,260.023,50.044,253.544,50.044,245.558 M78.39,235.655c-2.694-3.733-6.664-6.197-11.179-6.94
					c-0.706-0.119-1.186-0.785-1.071-1.494c0.121-0.715,0.788-1.192,1.494-1.072c5.197,0.855,9.766,3.691,12.866,7.979
					c0.425,0.584,0.292,1.398-0.299,1.819c-0.226,0.162-0.495,0.244-0.755,0.244C79.038,236.19,78.646,236.005,78.39,235.655
					 M48.635,229.917c-4.364,4.395-6.546,9.674-6.546,15.82c0,6.224,2.182,11.518,6.546,15.879c4.363,4.36,9.65,6.545,15.876,6.545
					c4.421,0,8.387-1.135,11.905-3.392c0.17,0.2,0.34,0.405,0.532,0.596c1.844,1.867,4.078,2.796,6.711,2.796h3.271v-22.08h-0.007
					c0.001-0.101,0.007-0.208,0.007-0.316v-0.027c0-6.146-2.199-11.426-6.606-15.82c-4.393-4.403-9.673-6.604-15.813-6.604
					C58.285,223.313,52.998,225.514,48.635,229.917"/>
			</g>
			<g>
				<defs>
					<path id="SVGID_2_" d="M50.044,245.558c0-7.989,6.471-14.463,14.467-14.463c7.979,0,14.457,6.474,14.457,14.463
						c0,3.007-0.92,5.798-2.484,8.114l2.097,5.671l-5.509-2.142c-2.4,1.766-5.352,2.822-8.561,2.822
						C56.515,260.023,50.044,253.544,50.044,245.558 M78.39,235.655c-2.694-3.733-6.664-6.197-11.179-6.94
						c-0.706-0.119-1.186-0.785-1.071-1.494c0.121-0.715,0.788-1.192,1.494-1.072c5.197,0.855,9.766,3.691,12.866,7.979
						c0.425,0.584,0.292,1.398-0.299,1.819c-0.226,0.162-0.495,0.244-0.755,0.244C79.038,236.19,78.646,236.005,78.39,235.655
						 M48.635,229.917c-4.364,4.395-6.546,9.674-6.546,15.82c0,6.224,2.182,11.518,6.546,15.879c4.363,4.36,9.65,6.545,15.876,6.545
						c4.421,0,8.387-1.135,11.905-3.392c0.17,0.2,0.34,0.405,0.532,0.596c1.844,1.867,4.078,2.796,6.711,2.796h3.271v-22.08h-0.007
						c0.001-0.101,0.007-0.208,0.007-0.316v-0.027c0-6.146-2.199-11.426-6.606-15.82c-4.393-4.403-9.673-6.604-15.813-6.604
						C58.285,223.313,52.998,225.514,48.635,229.917"/>
				</defs>
				<clipPath id="SVGID_4_">
					<use xlink:href="#SVGID_2_"  overflow="visible"/>
				</clipPath>
				<rect x="42.089" y="223.313" clip-path="url(#SVGID_4_)" fill="#FFFFFF" width="44.842" height="44.848"/>
			</g>
		</g>
		<g>
			<g>
				<path id="SVGID_3_" fill="#FFFFFF" d="M197.679,223.317h-2.137v38.077l-0.031,0.619c0,0.234,0.009,0.454,0.031,0.676v0.016
					c0.145,1.389,0.729,2.603,1.759,3.644c1.192,1.207,2.644,1.812,4.345,1.812h2.122v-5.456h0.013v-17.337
					c0-6.25,3.02-9.999,4.619-11.367c4.396-3.772,6.23-2.378,8.424-4.158c0.483-0.398,1.937-1.468,1.937-4.923v-1.561
					c0,0-3.439-0.042-6.003,0.047c-3.583,0.225-6.049,1.595-8.78,5.149h-0.15v-0.63v-0.013c-0.144-1.398-0.565-2.491-1.726-3.538
					c-1.083-0.991-2.299-1.061-3.698-1.061C198.168,223.313,197.928,223.317,197.679,223.317"/>
			</g>
			<g>
				<defs>
					<path id="SVGID_6_" d="M197.679,223.317h-2.137v38.077l-0.031,0.619c0,0.234,0.009,0.454,0.031,0.676v0.016
						c0.145,1.389,0.729,2.603,1.759,3.644c1.192,1.207,2.644,1.812,4.345,1.812h2.122v-5.456h0.013v-17.337
						c0-6.25,3.02-9.999,4.619-11.367c4.396-3.772,6.23-2.378,8.424-4.158c0.483-0.398,1.937-1.468,1.937-4.923v-1.561
						c0,0-3.439-0.042-6.003,0.047c-3.583,0.225-6.049,1.595-8.78,5.149h-0.15v-0.63v-0.013c-0.144-1.398-0.565-2.491-1.726-3.538
						c-1.083-0.991-2.299-1.061-3.698-1.061C198.168,223.313,197.928,223.317,197.679,223.317"/>
				</defs>
				<clipPath id="SVGID_8_">
					<use xlink:href="#SVGID_6_"  overflow="visible"/>
				</clipPath>
				<rect x="195.511" y="223.313" clip-path="url(#SVGID_8_)" fill="#FFFFFF" width="23.249" height="44.848"/>
			</g>
		</g>
		<g>
			<g>
				<path id="SVGID_5_" fill="#FFFFFF" d="M225.836,245.558c0-7.989,6.472-14.463,14.461-14.463c7.993,0,14.465,6.474,14.465,14.463
					c0,3.007-0.923,5.798-2.49,8.114l2.095,5.671l-5.506-2.142c-2.402,1.766-5.354,2.822-8.563,2.822
					C232.308,260.023,225.836,253.544,225.836,245.558 M224.426,229.917c-4.369,4.395-6.55,9.674-6.55,15.82
					c0,6.224,2.181,11.518,6.55,15.879c4.364,4.36,9.655,6.545,15.871,6.545c4.419,0,8.393-1.135,11.905-3.392
					c0.175,0.2,0.341,0.405,0.538,0.596c1.842,1.867,4.078,2.796,6.712,2.796h3.269v-22.08h-0.009c0-0.101,0.006-0.208,0.009-0.316
					v-0.027c0-6.146-2.196-11.426-6.604-15.82c-4.399-4.403-9.674-6.604-15.82-6.604
					C234.081,223.313,228.79,225.514,224.426,229.917"/>
			</g>
			<g>
				<defs>
					<path id="SVGID_10_" d="M225.836,245.558c0-7.989,6.472-14.463,14.461-14.463c7.993,0,14.465,6.474,14.465,14.463
						c0,3.007-0.923,5.798-2.49,8.114l2.095,5.671l-5.506-2.142c-2.402,1.766-5.354,2.822-8.563,2.822
						C232.308,260.023,225.836,253.544,225.836,245.558 M224.426,229.917c-4.369,4.395-6.55,9.674-6.55,15.82
						c0,6.224,2.181,11.518,6.55,15.879c4.364,4.36,9.655,6.545,15.871,6.545c4.419,0,8.393-1.135,11.905-3.392
						c0.175,0.2,0.341,0.405,0.538,0.596c1.842,1.867,4.078,2.796,6.712,2.796h3.269v-22.08h-0.009c0-0.101,0.006-0.208,0.009-0.316
						v-0.027c0-6.146-2.196-11.426-6.604-15.82c-4.399-4.403-9.674-6.604-15.82-6.604
						C234.081,223.313,228.79,225.514,224.426,229.917"/>
				</defs>
				<clipPath id="SVGID_12_">
					<use xlink:href="#SVGID_10_"  overflow="visible"/>
				</clipPath>
				<rect x="217.876" y="223.313" clip-path="url(#SVGID_12_)" fill="#FFFFFF" width="44.844" height="44.848"/>
			</g>
		</g>
		<g>
			<g>
				<path id="SVGID_7_" fill="#FFFFFF" d="M66.835,216.87c-0.675,0-1.297,0.523-1.337,1.229c-0.041,0.721,0.515,1.335,1.229,1.372
					c8.283,0.443,15.814,4.951,20.146,12.057c0.248,0.404,0.674,0.624,1.117,0.624c0.23,0,0.467-0.062,0.675-0.19
					c0.618-0.372,0.808-1.175,0.435-1.79c-4.777-7.841-13.092-12.81-22.229-13.301H66.835z"/>
			</g>
			<g>
				<defs>
					<path id="SVGID_14_" d="M66.835,216.87c-0.675,0-1.297,0.523-1.337,1.229c-0.041,0.721,0.515,1.335,1.229,1.372
						c8.283,0.443,15.814,4.951,20.146,12.057c0.248,0.404,0.674,0.624,1.117,0.624c0.23,0,0.467-0.062,0.675-0.19
						c0.618-0.372,0.808-1.175,0.435-1.79c-4.777-7.841-13.092-12.81-22.229-13.301H66.835z"/>
				</defs>
				<clipPath id="SVGID_16_">
					<use xlink:href="#SVGID_14_"  overflow="visible"/>
				</clipPath>
				<rect x="65.457" y="216.87" clip-path="url(#SVGID_16_)" fill="#FFFFFF" width="24.016" height="15.281"/>
			</g>
		</g>
		<g>
			<g>
				<path id="SVGID_9_" fill="#FFFFFF" d="M66.209,210.143c-0.711,0.007-1.284,0.576-1.298,1.283
					c-0.007,0.721,0.565,1.31,1.293,1.321c10.983,0.153,21.231,6.174,26.723,15.717c0.244,0.422,0.689,0.654,1.142,0.651
					c0.222-0.004,0.44-0.058,0.641-0.174c0.623-0.357,0.836-1.155,0.48-1.778c-5.959-10.333-17.051-16.854-28.95-17.021H66.209z"/>
			</g>
			<g>
				<defs>
					<path id="SVGID_17_" d="M66.209,210.143c-0.711,0.007-1.284,0.576-1.298,1.283c-0.007,0.721,0.565,1.31,1.293,1.321
						c10.983,0.153,21.231,6.174,26.723,15.717c0.244,0.422,0.689,0.654,1.142,0.651c0.222-0.004,0.44-0.058,0.641-0.174
						c0.623-0.357,0.836-1.155,0.48-1.778c-5.959-10.333-17.051-16.854-28.95-17.021H66.209z"/>
				</defs>
				<clipPath id="SVGID_18_">
					<use xlink:href="#SVGID_17_"  overflow="visible"/>
				</clipPath>
				<rect x="64.904" y="210.143" clip-path="url(#SVGID_18_)" fill="#FFFFFF" width="30.641" height="18.975"/>
			</g>
		</g>
		<g>
			<g>
				<path id="SVGID_11_" fill="#FFFFFF" d="M154.988,253.672c-1.56-2.316-2.486-5.107-2.486-8.114
					c0-7.989,6.476-14.463,14.467-14.463c7.989,0,14.469,6.474,14.469,14.463c0,7.986-6.479,14.466-14.469,14.466
					c-3.203,0-6.162-1.057-8.56-2.822l-5.511,2.142L154.988,253.672z M151.147,229.917c-4.403,4.395-6.598,9.674-6.598,15.82v0.027
					v0.007v0.005v0.003v0.004v0.009v0.004v0.003v0.004v0.008v0.003c0.003,0.094,0.003,0.184,0.003,0.268l0,0
					c0.072,6.077,2.253,11.253,6.536,15.535c1.24,1.239,2.553,2.301,3.939,3.188l0.034-0.035c3.301,2.115,6.995,3.244,11.081,3.38
					l0.202,0.004h0.041l0.027,0.006l0.226,0.003h0.039h0.076h0.21h0.004c6.224,0,11.51-2.185,15.875-6.545
					c4.36-4.361,6.545-9.655,6.545-15.879c0-6.146-2.185-11.426-6.545-15.82c-4.365-4.403-9.651-6.604-15.879-6.604
					C160.821,223.313,155.543,225.514,151.147,229.917"/>
			</g>
			<g>
				<defs>
					<path id="SVGID_19_" d="M154.988,253.672c-1.56-2.316-2.486-5.107-2.486-8.114c0-7.989,6.476-14.463,14.467-14.463
						c7.989,0,14.469,6.474,14.469,14.463c0,7.986-6.479,14.466-14.469,14.466c-3.203,0-6.162-1.057-8.56-2.822l-5.511,2.142
						L154.988,253.672z M151.147,229.917c-4.403,4.395-6.598,9.674-6.598,15.82v0.027v0.007v0.005v0.003v0.004v0.009v0.004v0.003
						v0.004v0.008v0.003c0.003,0.094,0.003,0.184,0.003,0.268l0,0c0.072,6.077,2.253,11.253,6.536,15.535
						c1.24,1.239,2.553,2.301,3.939,3.188l0.034-0.035c3.301,2.115,6.995,3.244,11.081,3.38l0.202,0.004h0.041l0.027,0.006
						l0.226,0.003h0.039h0.076h0.21h0.004c6.224,0,11.51-2.185,15.875-6.545c4.36-4.361,6.545-9.655,6.545-15.879
						c0-6.146-2.185-11.426-6.545-15.82c-4.365-4.403-9.651-6.604-15.879-6.604C160.821,223.313,155.543,225.514,151.147,229.917"/>
				</defs>
				<clipPath id="SVGID_20_">
					<use xlink:href="#SVGID_19_"  overflow="visible"/>
				</clipPath>
				<rect x="144.55" y="223.313" clip-path="url(#SVGID_20_)" fill="#FFFFFF" width="44.839" height="44.848"/>
			</g>
		</g>
		<g>
			<g>
				<path id="SVGID_13_" fill="#FFFFFF" d="M102.95,253.672c-1.561-2.316-2.481-5.107-2.481-8.114
					c0-7.989,6.47-14.463,14.464-14.463c7.986,0,14.461,6.474,14.461,14.463c0,7.986-6.476,14.466-14.461,14.466
					c-3.21,0-6.166-1.057-8.566-2.822l-5.511,2.142L102.95,253.672z M115.301,223.317h-0.004h-0.008h-0.004
					c-0.123,0-0.236-0.004-0.355-0.004c-6.143,0-11.426,2.2-15.825,6.604c-4.398,4.395-6.596,9.674-6.596,15.82v0.027v0.007v0.005
					v0.003v0.004v0.009v0.004v0.003v0.004v0.008v0.003c0,0.094,0,0.184,0,0.268l0,0c0.078,6.077,2.263,11.253,6.546,15.535
					c1.234,1.239,2.549,2.301,3.934,3.188l0.031-0.035c3.301,2.115,6.999,3.244,11.085,3.38l0.201,0.004h0.047l0.021,0.006
					l0.23,0.003h0.039h0.072h0.214h0.003c5.897,0,10.952-1.964,15.182-5.883c0,1.921-0.004,5.969-0.012,6.192
					c-0.341,10.345-6.72,14.039-14.911,14.112c-6.417,0-9.758-3.177-11.365-5.169c-0.457-0.749-0.846-1.369-1.071-1.701
					c-0.912-1.387-2.295-2.481-4.045-2.905c-1.759-0.417-3.479-0.336-5.017,0.625l-1.185,0.867c0,0,2.076,3.69,3.723,5.858
					c0.038,0.047,0.081,0.09,0.127,0.136c3.998,5.859,10.553,9.563,18.761,9.563c14.205,0,22.655-8.2,22.954-21.692
					c0-0.209,0-5.072,0.009-6.596v-0.077v-0.074v-0.065v-0.058v-0.051v-0.038v-0.039v-0.023v-0.015v-37.664l-2.198,0.027
					c-1.796,0-3.322,0.635-4.576,1.908c-0.957,0.961-1.546,2.07-1.774,3.319l-0.217-0.19h-0.008
					c-2.997-2.855-8.083-5.216-13.811-5.216C115.437,223.313,115.367,223.317,115.301,223.317"/>
			</g>
			<g>
				<defs>
					<path id="SVGID_21_" d="M102.95,253.672c-1.561-2.316-2.481-5.107-2.481-8.114c0-7.989,6.47-14.463,14.464-14.463
						c7.986,0,14.461,6.474,14.461,14.463c0,7.986-6.476,14.466-14.461,14.466c-3.21,0-6.166-1.057-8.566-2.822l-5.511,2.142
						L102.95,253.672z M115.301,223.317h-0.004h-0.008h-0.004c-0.123,0-0.236-0.004-0.355-0.004c-6.143,0-11.426,2.2-15.825,6.604
						c-4.398,4.395-6.596,9.674-6.596,15.82v0.027v0.007v0.005v0.003v0.004v0.009v0.004v0.003v0.004v0.008v0.003
						c0,0.094,0,0.184,0,0.268l0,0c0.078,6.077,2.263,11.253,6.546,15.535c1.234,1.239,2.549,2.301,3.934,3.188l0.031-0.035
						c3.301,2.115,6.999,3.244,11.085,3.38l0.201,0.004h0.047l0.021,0.006l0.23,0.003h0.039h0.072h0.214h0.003
						c5.897,0,10.952-1.964,15.182-5.883c0,1.921-0.004,5.969-0.012,6.192c-0.341,10.345-6.72,14.039-14.911,14.112
						c-6.417,0-9.758-3.177-11.365-5.169c-0.457-0.749-0.846-1.369-1.071-1.701c-0.912-1.387-2.295-2.481-4.045-2.905
						c-1.759-0.417-3.479-0.336-5.017,0.625l-1.185,0.867c0,0,2.076,3.69,3.723,5.858c0.038,0.047,0.081,0.09,0.127,0.136
						c3.998,5.859,10.553,9.563,18.761,9.563c14.205,0,22.655-8.2,22.954-21.692c0-0.209,0-5.072,0.009-6.596v-0.077v-0.074v-0.065
						v-0.058v-0.051v-0.038v-0.039v-0.023v-0.015v-37.664l-2.198,0.027c-1.796,0-3.322,0.635-4.576,1.908
						c-0.957,0.961-1.546,2.07-1.774,3.319l-0.217-0.19h-0.008c-2.997-2.855-8.083-5.216-13.811-5.216
						C115.437,223.313,115.367,223.317,115.301,223.317"/>
				</defs>
				<clipPath id="SVGID_22_">
					<use xlink:href="#SVGID_21_"  overflow="visible"/>
				</clipPath>
				<rect x="92.509" y="223.313" clip-path="url(#SVGID_22_)" fill="#FFFFFF" width="45.573" height="66.543"/>
			</g>
		</g>
	</g>
	<g>
		<g>
			<path id="SVGID_15_" fill="#FFFFFF" d="M312.647,254.024c-1.568-2.324-2.497-5.126-2.497-8.142c0-8.019,6.5-14.52,14.52-14.52
				c8.021,0,14.523,6.501,14.523,14.52s-6.504,14.517-14.523,14.517c-3.213,0-6.185-1.062-8.59-2.832l-5.532,2.149L312.647,254.024z
				 M308.791,230.184c-4.42,4.411-6.625,9.709-6.625,15.879v0.024v0.01v0.005v0.003v0.004v0.008v0.004v0.004v0.006v0.005v0.005
				c0.003,0.092,0.003,0.181,0.003,0.268l0,0c0.074,6.098,2.264,11.295,6.563,15.592c1.244,1.244,2.562,2.31,3.952,3.197
				l0.035-0.034c3.313,2.124,7.021,3.259,11.123,3.395l0.201,0.003h0.042l0.029,0.004l0.225,0.005h0.037h0.078h0.21h0.005
				c6.248,0,11.553-2.192,15.935-6.569c4.378-4.377,6.568-9.688,6.568-15.937c0-6.17-2.19-11.468-6.568-15.879
				c-4.382-4.42-9.687-6.629-15.938-6.629C318.501,223.555,313.203,225.764,308.791,230.184"/>
		</g>
		<g>
			<defs>
				<path id="SVGID_23_" d="M312.647,254.024c-1.568-2.324-2.497-5.126-2.497-8.142c0-8.019,6.5-14.52,14.52-14.52
					c8.021,0,14.523,6.501,14.523,14.52s-6.504,14.517-14.523,14.517c-3.213,0-6.185-1.062-8.59-2.832l-5.532,2.149L312.647,254.024
					z M308.791,230.184c-4.42,4.411-6.625,9.709-6.625,15.879v0.024v0.01v0.005v0.003v0.004v0.008v0.004v0.004v0.006v0.005v0.005
					c0.003,0.092,0.003,0.181,0.003,0.268l0,0c0.074,6.098,2.264,11.295,6.563,15.592c1.244,1.244,2.562,2.31,3.952,3.197
					l0.035-0.034c3.313,2.124,7.021,3.259,11.123,3.395l0.201,0.003h0.042l0.029,0.004l0.225,0.005h0.037h0.078h0.21h0.005
					c6.248,0,11.553-2.192,15.935-6.569c4.378-4.377,6.568-9.688,6.568-15.937c0-6.17-2.19-11.468-6.568-15.879
					c-4.382-4.42-9.687-6.629-15.938-6.629C318.501,223.555,313.203,225.764,308.791,230.184"/>
			</defs>
			<clipPath id="SVGID_24_">
				<use xlink:href="#SVGID_23_"  overflow="visible"/>
			</clipPath>
			<rect x="302.166" y="223.555" clip-path="url(#SVGID_24_)" fill="#FFFFFF" width="45.007" height="45.014"/>
		</g>
	</g>
	<g>
		<path fill="#FFFFFF" d="M294.256,224.619c-1.089-0.995-2.309-1.064-3.712-1.064c-0.236,0-0.479,0.003-0.728,0.003h-2.146v38.219
			l-0.03,0.623c0,0.232,0.007,0.453,0.03,0.675v0.017c0.144,1.395,0.732,2.611,1.764,3.657c1.199,1.213,2.657,1.819,4.363,1.819
			h2.129v-5.477h0.014v-17.397c0-0.024,0.004-0.044,0.004-0.065v-17.712C295.773,226.638,295.344,225.605,294.256,224.619z"/>
	</g>
	<g>
		<path fill="#FFFFFF" d="M272.354,266.276c-0.737-0.893-1.185-1.895-1.33-3.019h-0.013"/>
		<path fill="#FFFFFF" d="M271.016,263.223c0,0.012-0.005,0.023-0.005,0.035h0.013C271.021,263.246,271.017,263.234,271.016,263.223
			z"/>
		<path fill="#FFFFFF" d="M279.222,263.258c0-2.266-1.84-4.105-4.105-4.105c-2.256,0-4.081,1.823-4.101,4.07
			c0.001,0.012,0.005,0.023,0.008,0.035c0.146,1.124,0.593,2.126,1.33,3.019c0.13,0.156,0.252,0.321,0.401,0.472
			c1.196,1.213,2.652,1.819,4.361,1.819h2.13v-5.31H279.222z"/>
	</g>
	<g>
		<path fill="#FFFFFF" d="M365.504,256.65c-0.703,5.282-2.606,9.801-5.323,13.067c-0.488,0.545-1.142,0.87-1.847,0.87
			c-0.489,0-0.926-0.162-1.358-0.432c-0.487-0.438-0.759-0.982-0.759-1.581c0-0.546,0.216-1.088,0.544-1.526
			c3.041-3.702,4.453-7.566,4.997-14.318c0.161-2.067,0.271-4.298,0.271-6.858c0-3.157,1.519-4.354,4.615-4.354h29.229
			c3.152,0,4.671,1.197,4.671,4.354v6.37c0,3.158-1.519,4.409-4.671,4.409L365.504,256.65L365.504,256.65z M400.654,233.839
			c0.923,0,1.469,0.815,1.469,1.799c0,1.032-0.546,1.852-1.469,1.852h-38.518c-0.923,0-1.465-0.819-1.465-1.852
			c0-0.983,0.542-1.799,1.465-1.799h16.516v-4.791h-19.829c-0.922,0-1.468-0.763-1.468-1.796c0-1.036,0.546-1.852,1.468-1.852
			h19.829v-4.139c0-0.977,0.76-1.521,2.011-1.521c1.303,0,2.117,0.545,2.117,1.521v4.139h19.81c0.92,0,1.465,0.765,1.465,1.852
			c0,1.033-0.545,1.796-1.465,1.796h-19.81v4.791H400.654z M378.815,245h-10.757c-1.196,0-1.901,0.328-1.901,1.58
			c0,2.886-0.11,4.955-0.215,6.478h12.873V245L378.815,245z M394.517,253.058c1.196,0,1.899-0.328,1.899-1.577v-4.9
			c0-1.252-0.703-1.58-1.899-1.58h-11.681v8.058H394.517z"/>
		<path fill="#FFFFFF" d="M447.52,226.538c-0.105,6.438-0.478,10.199-1.801,16.523c2.225,2.821,4.311,5.728,5.935,8.132
			c0.355,0.532,0.575,1.161,0.575,1.668c0,0.564-0.233,0.978-0.684,1.372c-0.409,0.354-0.874,0.493-1.294,0.493
			c-0.534,0-0.984-0.203-1.301-0.654c-1.114-1.861-2.65-4.122-4.346-6.438c-0.371,1.299-0.741,2.597-1.164,3.783
			c-1.644,4.688-3.055,7.557-4.614,9.658c-0.474,0.641-0.906,1.356-1.684,1.575c-0.481,0.136-1.176-0.012-1.693-0.477
			c-0.511-0.449-0.771-1.012-0.691-1.713c0.052-0.447,0.412-1.083,0.783-1.592c2.162-2.977,2.918-4.517,4.562-8.92
			c0.688-1.805,1.218-3.783,1.75-5.984c-2.333-2.992-4.717-5.761-6.732-7.623c-0.369-0.341-0.582-0.79-0.582-1.244
			c0-0.508,0.213-0.959,0.532-1.413c0.37-0.45,0.845-0.673,1.272-0.678c0.648-0.002,0.985,0.418,1.251,0.699
			c1.589,1.524,3.196,3.313,5.104,5.629c0.742-5.139,0.951-7.604,1.007-12.798h-11.221c-0.103,6.438-0.528,10.028-1.745,16.354
			c2.011,2.598,4.024,5.307,5.612,7.683c0.375,0.451,0.599,1.071,0.585,1.435c-0.021,0.566-0.243,1.04-0.723,1.437
			c-0.426,0.397-0.948,0.58-1.371,0.58c-0.53,0-0.925-0.234-1.352-0.799c-1.059-1.692-2.383-3.672-3.865-5.705
			c-0.372,1.303-0.744,2.601-1.167,3.784c-1.75,4.801-3.148,7.443-4.625,9.245c-0.58,0.701-1.155,1.008-1.688,1.008
			c-0.478,0-1.017-0.218-1.438-0.612c-0.424-0.454-0.617-0.969-0.617-1.536c0-0.509,0.327-1.145,0.822-1.796
			c1.604-2.1,2.424-3.722,4.051-7.492c0.81-1.887,1.373-4.01,1.852-6.27c-2.28-2.879-4.61-5.591-6.569-7.454
			c-0.422-0.34-0.635-0.846-0.635-1.3c0-0.452,0.157-0.901,0.529-1.354c0.371-0.451,0.849-0.678,1.271-0.678
			c0.424,0,0.743,0.169,1.059,0.45c1.536,1.525,3.337,3.504,5.193,5.704c0.688-5.138,0.951-7.488,1.007-12.683h-10.697
			c-1.219,0-1.748,0.396-1.748,1.692v40.129c0,1.187-0.849,1.753-2.016,1.753c-1.164,0-2.01-0.624-2.01-1.753v-40.806
			c0-3.386,1.746-4.97,5.139-4.97h35.486c3.284,0,5.085,1.585,5.085,4.97v36.909c0,4.064-1.801,5.531-6.464,5.531
			c-2.222,0-4.818-0.166-6.781-0.562c-0.95-0.169-1.536-0.848-1.536-1.919c0-0.168,0-0.397,0.054-0.623
			c0.211-1.017,0.847-1.637,1.641-1.637c0.162,0,0.319,0,0.478,0.058c1.643,0.394,3.815,0.621,5.67,0.621
			c2.436,0,2.914-0.452,2.914-2.655v-35.101c0-1.241-0.53-1.638-1.75-1.638H447.52z"/>
	</g>
</g>
</svg>
