<?xml version="1.0" encoding="utf-8"?>
<!-- Generator: Adobe Illustrator 16.0.0, SVG Export Plug-In . SVG Version: 6.00 Build 0)  -->
<!DOCTYPE svg PUBLIC "-//W3C//DTD SVG 1.1//EN" "http://www.w3.org/Graphics/SVG/1.1/DTD/svg11.dtd">
<svg version="1.1" id="Layer_1" xmlns="http://www.w3.org/2000/svg" xmlns:xlink="http://www.w3.org/1999/xlink" x="0px" y="0px"
	 width="500px" height="500px" viewBox="0 0 500 500" enable-background="new 0 0 500 500" xml:space="preserve">
<g>
	<path fill="#FFFFFF" d="M156.31,316.188c-54.038,0-97.848-29.682-97.848-66.296c0-27.811,25.276-51.624,61.116-61.464
		c3.973-1.094,6.726-2.105,12.284-0.017c5.559,2.093,4.651,6.187,9.674,6.187c5.024,0,9.876-10.784,14.774-10.784
		c4.906,0,9.839,10.773,14.663,10.773c4.827,0,5.838-4.444,9.81-6.17c3.975-1.726,8.25-1.089,12.194-0.011
		c35.881,9.833,61.188,33.656,61.188,61.486C254.164,286.506,210.354,316.188,156.31,316.188 M223.735,275.548
		c0-12.467-10.103-22.571-22.568-22.571c-2.583,0-5.055,0.438-7.362,1.232c0-0.018,0.004-0.03,0.004-0.044
		c0.01-0.063-0.198,0.026-0.529,0.228c-3.318,1.24-6.268,3.234-8.636,5.776c-0.245,0.14-0.388,0.196-0.388,0.14
		c6.752-8.745,9.715-8.793,9.715-9.419c0-17.614-14.27-31.895-31.882-31.895c-13.488,0-25.013,8.384-29.669,20.217
		c-2.276-1.641-5.061-2.623-8.083-2.623c-7.639,0-13.829,6.199-13.829,13.836c0,0.081,4.184,0.708,6.938,1.986
		c3.124,1.444,4.856,3.558,4.86,3.644v0.025c-3.354-1.965-7.265-3.104-11.438-3.104c-12.468,0-22.574,10.104-22.574,22.571
		c0,0.122,0.007,0.24,0.007,0.364h-0.007c0,0.173,0.015,0.341,0.018,0.514c0.007,0.142,0.014,0.292,0.024,0.437
		c0.862,21.473,30.82,38.729,67.678,38.729c36.859,0,66.816-17.256,67.683-38.729c0.008-0.145,0.012-0.295,0.017-0.437
		c0.003-0.173,0.022-0.341,0.022-0.514h-0.013C223.723,275.788,223.735,275.67,223.735,275.548"/>
	<path fill="#FFFFFF" d="M276.303,280.944v-78.801h25.105v68.078c0,1.629,0.517,5.725-1.536,8.051
		c-1.171,1.321-3.161,2.648-6.818,2.673H276.303z M292.525,211.148h-7.354v60.758h4.748c0.755,0,1.366-0.227,1.845-0.663
		c0.466-0.426,0.724-1.634,0.761-3.596V211.148L292.525,211.148z M358.814,211.206l-35.567,0.042v12.385h35.567v8.929H348.53v48.484
		h-8.925v-48.484h-16.358l-0.01,34.733c0,4.191-0.029,5.338-0.472,6.897c-0.803,2.89-1.677,3.955-2.473,4.755
		c-0.943,0.938-2.746,2.054-5.372,2.099h-7.64v-9.363h2.428c2.09-0.034,3.391-0.336,3.885-0.804c0.487-0.46,0.742-1.684,0.742-3.636
		l0.014-65.102h44.465"/>
	<rect x="367.052" y="202.142" fill="#FFFFFF" width="74.482" height="9.006"/>
	<path fill="#FFFFFF" d="M370.166,270.76l12.861-28.251h-15.976v-8.998h74.487v8.998h-47.695l-11.91,26.961
		c0,0-0.758,1.689-0.031,2.171c0.567,0.565,1.849,0.581,1.849,0.581h43.112c1.426,0,2.429-0.381,3.042-0.865
		c0.563-0.457,0.861-0.837,0.602-1.887l-7.026-16.587h10.918l6.642,17.877c0,0,1.365,3.928-2.651,7.697
		c-0.599,0.505-2.682,2.187-5.158,2.555c-2.485,0.365-4.58,0.215-6.081,0.215h-44.527c0,0-4.092,0.085-6.709-0.498
		c-1.851-0.408-3.491-1.321-4.332-2.271C368.608,274.932,370.166,270.76,370.166,270.76"/>
	<polygon fill="#FFFFFF" points="298.489,293.385 289.613,293.385 289.613,307.735 285.72,307.735 285.72,293.385 276.808,293.385 
		276.808,289.535 298.489,289.535 	"/>
	<rect x="302.203" y="289.534" fill="#FFFFFF" width="3.933" height="18.223"/>
	<path fill="#FFFFFF" d="M361.307,307.735h-14.32c-3.28,0-5.991-0.962-8.132-2.704c-2.149-1.754-3.221-4.002-3.221-6.66
		c0-2.645,1.064-4.778,3.184-6.401c2.123-1.622,4.847-2.435,8.169-2.435h12.735v3.673h-12.735c-2.152,0-4.33,0.529-5.479,1.413
		c-1.414,1.084-1.942,2.268-1.942,4.015c0,1.73,0.541,2.741,1.938,3.815c1.396,1.072,3.332,1.621,5.484,1.621h10.394v-3.22h-10.69
		v-3.494h14.617V307.735L361.307,307.735z"/>
	<polygon fill="#FFFFFF" points="389.389,289.559 378.199,301.648 378.199,307.757 374.303,307.757 374.303,301.593 
		362.823,289.559 367.873,289.559 376.352,298.443 384.306,289.559 	"/>
	<path fill="#FFFFFF" d="M332.123,305.69c0,1.379-0.472,2.062-1.406,2.062c-0.69,0-1.116-0.433-2.315-1.282l-13.699-10.386v11.676
		h-3.691v-16.38c0-0.498,0.136-0.934,0.407-1.298c0.268-0.364,0.656-0.548,1.157-0.548c0.687,0,1.186,0.43,2.127,1.099
		l13.698,10.354v-11.453h3.723V305.69L332.123,305.69z"/>
	<path fill="#FFFFFF" d="M441.539,305.713c0,1.378-0.47,2.063-1.403,2.063c-0.689,0-1.117-0.435-2.317-1.282l-13.702-10.39v11.676
		h-3.686v-16.372c0-0.502,0.134-0.935,0.406-1.301c0.271-0.365,0.655-0.549,1.156-0.549c0.688,0,1.189,0.426,2.123,1.097
		l13.702,10.356v-11.453h3.721V305.713L441.539,305.713z"/>
	<path fill="#FFFFFF" d="M416.205,297.583c0,3.646-1.092,6.306-3.278,7.983c-1.914,1.463-4.762,2.187-8.529,2.187h-1.358
		c-3.771,0-6.615-0.724-8.535-2.187c-2.185-1.678-3.274-4.338-3.274-7.983v-8.022h3.934v8.022c0,2.717,0.939,4.519,2.813,5.399
		c1.21,0.555,3.353,0.83,6.421,0.83c2.556,0,4.43-0.389,5.621-1.164c1.498-0.97,2.248-2.658,2.248-5.065v-8.022h3.937v8.022H416.205
		z"/>
</g>
</svg>
