<?xml version="1.0" encoding="utf-8"?>
<!-- Generator: Adobe Illustrator 16.0.0, SVG Export Plug-In . SVG Version: 6.00 Build 0)  -->
<!DOCTYPE svg PUBLIC "-//W3C//DTD SVG 1.1//EN" "http://www.w3.org/Graphics/SVG/1.1/DTD/svg11.dtd">
<svg version="1.1" id="Layer_1" xmlns="http://www.w3.org/2000/svg" xmlns:xlink="http://www.w3.org/1999/xlink" x="0px" y="0px"
	 width="500px" height="500px" viewBox="0 0 500 500" enable-background="new 0 0 500 500" xml:space="preserve">
<g>
	<g>
		<path fill="#FFFFFF" d="M108.548,312.018c1.775-1.907,4.082-2.861,6.922-2.861c4.369,0,7.368,1.934,8.992,5.804
			c0.923,2.192,1.387,5.076,1.387,8.656c0,3.472-0.443,6.37-1.329,8.693c-1.688,4.427-4.792,6.639-9.309,6.639
			c-2.152,0-4.086-0.638-5.802-1.914c-1.717-1.272-2.701-3.132-2.952-5.573h5.626c0.131,0.844,0.488,1.53,1.069,2.059
			c0.582,0.529,1.353,0.795,2.318,0.795c1.863,0,3.169-1.033,3.922-3.093c0.408-1.136,0.665-2.794,0.771-4.971
			c-0.513,0.646-1.062,1.142-1.642,1.484c-1.058,0.634-2.358,0.951-3.904,0.951c-2.283,0-4.311-0.791-6.081-2.367
			c-1.77-1.577-2.654-3.852-2.654-6.824C105.883,316.418,106.771,313.927,108.548,312.018z M118.046,323.417
			c1.281-0.817,1.92-2.236,1.92-4.259c0-1.623-0.379-2.911-1.138-3.862c-0.76-0.949-1.799-1.425-3.119-1.425
			c-0.965,0-1.791,0.271-2.477,0.812c-1.083,0.846-1.625,2.276-1.625,4.298c0,1.702,0.349,2.98,1.041,3.832
			c0.693,0.853,1.759,1.278,3.199,1.278C116.625,324.091,117.358,323.868,118.046,323.417z"/>
		<path fill="#FFFFFF" d="M132.689,312.018c1.776-1.907,4.083-2.861,6.924-2.861c4.37,0,7.368,1.934,8.992,5.804
			c0.924,2.192,1.387,5.076,1.387,8.656c0,3.472-0.444,6.37-1.328,8.693c-1.688,4.427-4.792,6.639-9.31,6.639
			c-2.152,0-4.087-0.638-5.804-1.914c-1.717-1.272-2.7-3.132-2.952-5.573h5.627c0.13,0.844,0.487,1.53,1.069,2.059
			c0.58,0.529,1.353,0.795,2.317,0.795c1.859,0,3.169-1.033,3.922-3.093c0.408-1.136,0.666-2.794,0.772-4.971
			c-0.517,0.646-1.063,1.142-1.646,1.484c-1.054,0.634-2.354,0.951-3.9,0.951c-2.285,0-4.311-0.791-6.082-2.367
			c-1.769-1.577-2.653-3.852-2.653-6.824C130.027,316.418,130.913,313.927,132.689,312.018z M142.188,323.417
			c1.278-0.817,1.919-2.236,1.919-4.259c0-1.623-0.379-2.911-1.139-3.862c-0.759-0.949-1.797-1.425-3.119-1.425
			c-0.965,0-1.789,0.271-2.477,0.812c-1.082,0.846-1.623,2.276-1.623,4.298c0,1.702,0.347,2.98,1.039,3.832
			c0.694,0.853,1.761,1.278,3.201,1.278C140.767,324.091,141.501,323.868,142.188,323.417z"/>
		<path fill="#FFFFFF" d="M165.775,316.524h5.724l3.288,15.549l3.367-15.549h5.883l-6.259,21.589h-5.802l-3.388-15.726
			l-3.428,15.726h-5.862l-6.062-21.589h6.062l3.367,15.489L165.775,316.524z"/>
		<path fill="#FFFFFF" d="M194.396,316.524v13.015c0,1.228,0.145,2.152,0.433,2.771c0.513,1.099,1.516,1.645,3.016,1.645
			c1.918,0,3.232-0.776,3.941-2.336c0.369-0.845,0.552-1.961,0.552-3.349v-11.745h5.725v21.589h-5.487v-3.048
			c-0.053,0.064-0.185,0.264-0.396,0.593c-0.211,0.33-0.459,0.62-0.751,0.872c-0.881,0.793-1.733,1.334-2.556,1.624
			c-0.824,0.288-1.789,0.436-2.894,0.436c-3.188,0-5.333-1.149-6.438-3.447c-0.62-1.27-0.929-3.135-0.929-5.604v-13.014H194.396
			L194.396,316.524z"/>
		<path fill="#FFFFFF" d="M213.022,338.113l7.369-10.933l-7.052-10.615h6.914l3.606,6.252l3.524-6.252h6.714l-7.09,10.516
			l7.366,11.032h-7.031l-3.715-6.491l-3.752,6.491H213.022z"/>
		<path fill="#FFFFFF" d="M245.117,313.948h-5.724v-5.206h5.724V313.948z M239.393,316.524h5.724v21.589h-5.724V316.524z"/>
		<path fill="#FFFFFF" d="M260.758,324.982c1.052-0.131,1.802-0.296,2.255-0.495c0.812-0.342,1.218-0.878,1.218-1.604
			c0-0.884-0.312-1.497-0.934-1.833c-0.623-0.335-1.535-0.504-2.742-0.504c-1.351,0-2.309,0.33-2.87,0.989
			c-0.4,0.488-0.668,1.15-0.801,1.981h-5.449c0.121-1.889,0.649-3.439,1.591-4.653c1.499-1.903,4.071-2.852,7.722-2.852
			c2.373,0,4.481,0.466,6.323,1.405c1.843,0.937,2.765,2.706,2.765,5.307v9.903c0,0.688,0.013,1.521,0.041,2.498
			c0.04,0.737,0.151,1.24,0.337,1.505c0.184,0.264,0.462,0.482,0.831,0.653v0.83h-6.14c-0.173-0.435-0.29-0.842-0.358-1.229
			c-0.064-0.382-0.117-0.817-0.157-1.307c-0.784,0.847-1.688,1.565-2.711,2.159c-1.221,0.7-2.604,1.052-4.142,1.052
			c-1.967,0-3.591-0.56-4.873-1.674c-1.282-1.117-1.922-2.696-1.922-4.742c0-2.657,1.03-4.577,3.093-5.768
			c1.13-0.646,2.792-1.107,4.988-1.384L260.758,324.982z M264.21,327.616c-0.362,0.225-0.727,0.408-1.096,0.545
			c-0.367,0.14-0.873,0.267-1.515,0.389l-1.286,0.235c-1.202,0.212-2.068,0.471-2.594,0.772c-0.891,0.516-1.335,1.315-1.335,2.397
			c0,0.965,0.273,1.661,0.815,2.09c0.542,0.43,1.204,0.645,1.98,0.645c1.233,0,2.369-0.358,3.41-1.069
			c1.04-0.716,1.579-2.016,1.619-3.903V327.616L264.21,327.616z"/>
		<path fill="#FFFFFF" d="M293.758,317.762c1.414,1.17,2.123,3.108,2.123,5.814v14.537h-5.785v-13.132
			c0-1.135-0.152-2.007-0.453-2.612c-0.55-1.11-1.6-1.664-3.147-1.664c-1.898,0-3.204,0.812-3.911,2.436
			c-0.367,0.858-0.551,1.954-0.551,3.288v11.686h-5.646v-21.55h5.468v3.148c0.723-1.107,1.406-1.907,2.051-2.396
			c1.158-0.87,2.624-1.306,4.4-1.306C290.526,316.011,292.344,316.594,293.758,317.762z"/>
		<path fill="#FFFFFF" d="M302.65,332.191h6.002v5.922h-6.002V332.191z"/>
		<path fill="#FFFFFF" d="M328.558,324.269c-0.107-0.805-0.378-1.529-0.815-2.176c-0.634-0.875-1.621-1.31-2.957-1.31
			c-1.907,0-3.211,0.945-3.913,2.833c-0.369,1.001-0.555,2.33-0.555,3.991c0,1.58,0.186,2.852,0.555,3.813
			c0.676,1.793,1.946,2.692,3.813,2.692c1.324,0,2.264-0.356,2.82-1.069c0.555-0.712,0.893-1.636,1.011-2.771h5.764
			c-0.133,1.714-0.752,3.341-1.861,4.871c-1.772,2.47-4.396,3.705-7.872,3.705c-3.475,0-6.035-1.03-7.675-3.092
			c-1.64-2.059-2.458-4.728-2.458-8.013c0-3.7,0.904-6.584,2.717-8.645c1.812-2.059,4.309-3.088,7.495-3.088
			c2.708,0,4.927,0.607,6.65,1.819c1.726,1.217,2.745,3.362,3.063,6.438L328.558,324.269L328.558,324.269z"/>
		<path fill="#FFFFFF" d="M357.791,335.474c-1.824,2.249-4.59,3.374-8.3,3.374c-3.711,0-6.478-1.125-8.301-3.374
			c-1.821-2.249-2.731-4.958-2.731-8.125c0-3.114,0.91-5.81,2.731-8.093c1.823-2.284,4.59-3.425,8.301-3.425
			c3.71,0,6.476,1.141,8.3,3.425c1.821,2.283,2.73,4.979,2.73,8.093C360.521,330.516,359.612,333.225,357.791,335.474z
			 M353.274,332.353c0.886-1.173,1.326-2.839,1.326-5.004c0-2.161-0.44-3.825-1.326-4.992s-2.152-1.751-3.804-1.751
			c-1.65,0-2.923,0.584-3.812,1.751c-0.893,1.167-1.338,2.831-1.338,4.992c0,2.165,0.445,3.831,1.338,5.004
			c0.889,1.173,2.161,1.761,3.812,1.761C351.122,334.113,352.389,333.525,353.274,332.353z"/>
		<path fill="#FFFFFF" d="M393.125,316.605c0.924,0.37,1.762,1.017,2.515,1.94c0.607,0.753,1.017,1.677,1.229,2.771
			c0.133,0.729,0.197,1.788,0.197,3.188l-0.04,13.608h-5.781v-13.745c0-0.817-0.133-1.493-0.398-2.021
			c-0.503-1.002-1.425-1.506-2.773-1.506c-1.558,0-2.634,0.647-3.229,1.94c-0.303,0.688-0.455,1.516-0.455,2.476v12.856h-5.684
			v-12.856c0-1.277-0.133-2.21-0.396-2.79c-0.475-1.044-1.405-1.567-2.791-1.567c-1.611,0-2.696,0.523-3.25,1.567
			c-0.306,0.596-0.456,1.479-0.456,2.654v12.992h-5.726v-21.55h5.487v3.148c0.7-1.119,1.359-1.918,1.982-2.395
			c1.094-0.847,2.513-1.27,4.258-1.27c1.649,0,2.984,0.364,4.001,1.092c0.819,0.672,1.438,1.538,1.862,2.596
			c0.738-1.27,1.655-2.2,2.752-2.794c1.162-0.594,2.455-0.894,3.881-0.894C391.264,316.048,392.199,316.234,393.125,316.605z"/>
	</g>
	<path fill="#FFFFFF" d="M292.981,260.838c9.899-10.597,15.968-24.82,15.968-40.467c0-32.76-26.558-59.319-59.319-59.319
		c-15.744,0-30.045,6.146-40.664,16.154c6.758,7.737,11.736,17.067,14.289,27.347c5.384-8.959,15.165-14.969,26.375-14.969
		c17.001,0,30.786,13.785,30.786,30.787c0,17.003-13.784,30.788-30.786,30.788c-16.773,0-30.385-13.419-30.751-30.103l-0.028-0.053
		l-0.044-0.632c0-0.976-0.028-1.941-0.074-2.904c-0.018-0.333-0.047-0.663-0.068-0.996c-0.041-0.621-0.083-1.248-0.143-1.863
		c-0.038-0.405-0.091-0.804-0.138-1.206c-0.063-0.537-0.127-1.075-0.205-1.609c-0.062-0.437-0.136-0.871-0.208-1.304
		c-0.081-0.485-0.165-0.97-0.26-1.452c-0.089-0.463-0.186-0.921-0.285-1.378c-0.096-0.44-0.197-0.876-0.303-1.312
		c-0.117-0.485-0.24-0.972-0.37-1.453c-0.105-0.388-0.216-0.768-0.327-1.154c-0.15-0.516-0.304-1.034-0.469-1.547
		c-0.102-0.316-0.21-0.624-0.318-0.936c-0.192-0.571-0.387-1.139-0.598-1.701c-0.065-0.175-0.137-0.347-0.204-0.52
		c-1.502-3.891-3.397-7.579-5.644-11.026c-0.012-0.017-0.022-0.034-0.034-0.053c-0.451-0.687-0.914-1.364-1.394-2.033
		c-0.026-0.036-0.053-0.074-0.081-0.114c-0.476-0.662-0.968-1.315-1.471-1.958c-0.023-0.031-0.048-0.062-0.071-0.091
		c-10.862-13.821-27.715-22.71-46.657-22.71c-32.76,0-59.317,26.559-59.317,59.319c0,27.963,19.353,51.391,45.393,57.66
		l-10.667,11.28l-0.71,0.744c-0.776,0.971-1.245,2.203-1.245,3.54c0,1.107,0.32,2.13,0.866,3.004
		c1.003,1.611,2.786,2.686,4.821,2.686c0.11,0,0.218-0.01,0.324-0.017c0.067,0,0.132,0.009,0.199,0.009l16.181,0.003
		c0.008,0,0.017,0,0.027,0h3.583c0.213,0.01,0.421,0.031,0.636,0.031c0.196,0,0.384-0.024,0.576-0.031h3.147
		c0.043,0,0.085-0.003,0.129-0.006c1.778,0.016,3.557-0.669,4.885-2.053l20.64-21.72c0.229-0.239,0.431-0.498,0.619-0.762
		l6.095-6.38h-0.001l4.487-4.693c-6.82-7.789-11.778-17.17-14.308-27.453c-5.385,8.942-15.162,14.945-26.361,14.945
		c-17.003,0-30.785-13.785-30.785-30.789c0-17.001,13.782-30.786,30.785-30.786c16.705,0,30.269,13.312,30.742,29.901l0.031-0.006
		l0.052,0.891c0,0.897,0.022,1.792,0.06,2.68c0.013,0.285,0.04,0.562,0.058,0.844c0.035,0.604,0.069,1.208,0.123,1.809
		c0.029,0.327,0.071,0.651,0.107,0.972c0.055,0.553,0.113,1.105,0.186,1.651c0.045,0.336,0.103,0.668,0.155,1.003
		c0.079,0.531,0.16,1.062,0.253,1.588c0.059,0.333,0.129,0.662,0.194,0.991c0.104,0.524,0.208,1.047,0.326,1.565
		c0.071,0.324,0.155,0.644,0.233,0.966c0.125,0.521,0.254,1.04,0.396,1.554c0.082,0.309,0.174,0.617,0.262,0.923
		c0.153,0.526,0.306,1.047,0.474,1.565c0.092,0.29,0.19,0.576,0.286,0.862c0.18,0.532,0.366,1.06,0.559,1.585
		c0.099,0.267,0.202,0.533,0.303,0.799c0.208,0.539,0.423,1.072,0.646,1.602c0.106,0.248,0.209,0.494,0.317,0.737
		c0.239,0.546,0.485,1.084,0.737,1.62c0.105,0.225,0.212,0.447,0.321,0.668c0.271,0.555,0.55,1.104,0.836,1.648
		c0.106,0.196,0.207,0.392,0.314,0.587c0.306,0.567,0.624,1.127,0.949,1.681c0.098,0.168,0.193,0.336,0.293,0.501
		c0.349,0.584,0.708,1.157,1.076,1.725c0.086,0.134,0.169,0.264,0.256,0.398c0.397,0.6,0.804,1.194,1.22,1.781
		c0.068,0.094,0.134,0.191,0.201,0.284c0.454,0.632,0.92,1.253,1.398,1.863c0.038,0.046,0.071,0.093,0.109,0.14
		c8.11,10.324,19.566,17.895,32.738,21.067l-10.667,11.28l-0.711,0.744c-0.775,0.971-1.242,2.203-1.242,3.54
		c0,1.107,0.321,2.13,0.865,3.004c1.002,1.611,2.785,2.686,4.822,2.686c0.107,0,0.216-0.01,0.324-0.017
		c0.067,0,0.133,0.009,0.199,0.009l16.179,0.003c0,0,0.019,0,0.027,0h3.591c0.212,0.01,0.421,0.031,0.636,0.031
		c0.193,0,0.381-0.024,0.577-0.031h3.139c0.042,0,0.087-0.003,0.129-0.006c1.776,0.016,3.556-0.669,4.884-2.053l20.641-21.72
		c0.228-0.237,0.429-0.492,0.612-0.753l13.3-13.91H292.981L292.981,260.838z"/>
	<path fill="#FFFFFF" d="M338.167,254.872l5.277-25.2h-26.796v69.636h10.859v-40.153h6.175v17.678l-4.084-1.896v5.593l14.346,6.79
		v-32.448H338.167L338.167,254.872z M327.508,256.543v-22.392h4.184L327.508,256.543z"/>
	<path fill="#FFFFFF" d="M365.958,268.235l22.513,30.976h11.357l-13.45-20.319l11.954-2.192v-4.384l-14.544,2.592l-4.381-6.672
		h18.925v-41.519v-0.056c-0.016-3.12-2.546-5.645-5.669-5.648l-0.003-0.003h-21.89v-26.896h25.672l2.534-4.68h-48.679l10.802-20.122
		h30.26l2.576-4.682h-77.406v4.682h30.624l-10.915,20.122h-19.709v4.68h17.176l-17.055,31.379h14.146l17.041-31.379h11.578v31.579
		h27.561v18.222h-27.393l0.044-14.242l-11.401,21.051v48.488h0.599v0.1h23.609l2.528-4.682h-15.379v-26.395H365.958L365.958,268.235
		z M359.584,248.197h27.393v15.752h-27.393V248.197z"/>
</g>
</svg>
