<?xml version="1.0" encoding="utf-8"?>
<!-- Generator: Adobe Illustrator 16.0.0, SVG Export Plug-In . SVG Version: 6.00 Build 0)  -->
<!DOCTYPE svg PUBLIC "-//W3C//DTD SVG 1.1//EN" "http://www.w3.org/Graphics/SVG/1.1/DTD/svg11.dtd">
<svg version="1.1" id="Layer_1" xmlns="http://www.w3.org/2000/svg" xmlns:xlink="http://www.w3.org/1999/xlink" x="0px" y="0px"
	 width="500px" height="500px" viewBox="0 0 500 500" enable-background="new 0 0 500 500" xml:space="preserve">
<g>
	<g>
		<g>
			<g>
				<path fill="#FFFFFF" d="M265.982,230.975h36.757v23.182l-20.321,22.132h-16.436v-10.197h10.611l4.055-4.424v-20.593h-14.666
					V230.975z M228.997,276.288v-45.313h36.986v10.099h-14.66v25.018h14.66v10.197H228.997L228.997,276.288z"/>
			</g>
			<g>
				<polygon fill="#FFFFFF" points="223.904,219.2 223.904,251.69 201.398,276.206 201.464,259.051 201.464,199.67 213.653,186.398 
					276.307,186.398 307.545,186.365 307.545,186.365 298.35,196.383 223.904,196.383 223.904,209.003 292.975,209.003 
					292.975,209.003 283.612,219.2 				"/>
			</g>
		</g>
		<g>
			<path fill="#FFFFFF" d="M155.13,276.086l0.208-9.783v-18.505l-25.965,28.288h-2.529v-24.339l6.05-6.573h22.444v-5.991h-28.494
				v-9.897h51.171v21.872L155.13,276.086L155.13,276.086z M126.844,184.291h46.821v39.742h-46.821v-9.996h24.498v-5.147h-24.498
				v-9.56h24.498v-5.044h-24.498V184.291z M126.844,276.086h-22.385l22.385-24.339V276.086L126.844,276.086z M126.844,239.182
				v-9.897h-8.633l5.049-5.251h3.584v-9.996h-24.496v-5.147h24.496v-9.56h-24.496v-5.044h24.496v-9.995h-33.04l-13.903,15.147
				v24.595H97.41l-26.905,29.224h21.852l-21.264,22.829h24.908l28.67-30.913H103.64l5.406-5.991H126.844L126.844,239.182z"/>
		</g>
		<g>
			<g>
				<polygon fill="#FFFFFF" points="322.434,226.247 322.434,219.091 351.812,183.447 380.246,183.447 353.692,215.529 
					403.418,215.529 392.608,197.749 419.401,197.749 427.937,211.927 414.795,226.247 				"/>
			</g>
			<g>
				<path fill="#FFFFFF" d="M375.106,230.975h52.439v23.182l-20.32,22.132h-32.119v-10.197h26.288l4.061-4.424v-20.593h-30.349
					V230.975z M322.434,276.288v-45.313h52.673v10.099h-30.348v25.018h30.348v10.197H322.434L322.434,276.288z"/>
			</g>
		</g>
	</g>
	<g>
		<path fill="#FFFFFF" d="M421.902,316.553v-16.615h7.593v16.615H421.902L421.902,316.553z M421.902,294.246v-5.006h7.593v5.006
			H421.902z M421.902,289.24v5.006h-12.046v17.3h11.286l-1.549,5.006h-19.125V289.24H421.902L421.902,289.24z M421.902,299.938
			h-7.597v4.969h6.918v11.646h0.679V299.938L421.902,299.938z M293.547,312.146V300.34h4.194v-6.133h-4.194v-5.01h8.527l4.135,3.11
			v13.002h-8.428l6.637,7.309h3.621l-1.433,3.892h-9.384L293.547,312.146L293.547,312.146z M312.212,289.156h28.348l-1.911,5.009
			h-7.357v22.346h-9.777v-22.346h-9.302V289.156L312.212,289.156z M359.485,294.246h-3.102v17.3h4.252l-1.634,5.006h-14.269v-5.006
			h3.138v-17.3h-3.138v-5.006h14.752V294.246L359.485,294.246z M373.754,289.281l14.828,18.127v-18.127h7.714v27.271h-9.66
			l-14.072-17.136v17.136h-7.76v-27.271H373.754z M293.547,289.197v5.01h-4.194v6.133h4.194v11.807l-4.194-4.977v9.34h-9.426
			v-27.312H293.547L293.547,289.197z M261.739,316.553v-5.088h5.468v-17.179h-5.468v-5.046h14.015v27.312L261.739,316.553
			L261.739,316.553z M261.739,289.24v5.046h-5.468v17.179h5.468v5.088h-10.639l-3.655-3.461V289.24H261.739L261.739,289.24z
			 M230.627,307.805v-4.97h4.178v-8.628h-4.178v-5.01h8.512l4.133,3.11v15.497H230.627L230.627,307.805z M230.627,289.197v5.01
			h-4.174v8.628h4.174v4.97h-2.101l-2.072-2.225v10.93h-9.345v-27.312H230.627L230.627,289.197z M200.296,307.805v-4.97h4.175
			v-8.628h-4.175v-5.01h8.509l4.133,3.11v15.497H200.296L200.296,307.805z M97.837,294.246H80.821v6.485h16.774v4.97H80.821v5.845
			h18.011l-1.512,5.006H71.516V289.24h26.321V294.246L97.837,294.246z M200.296,289.197v5.01h-4.178v8.628h4.178v4.97h-2.111
			l-2.066-2.225v10.93h-9.342v-27.312H200.296L200.296,289.197z M103.007,300.098h15.7v4.889h-15.7V300.098L103.007,300.098z
			 M132.072,300.019h13.833l3.183,2.816v13.676h-24.014l-2.188-5.004h17.971v-6.52h-17.095V289.04h25.325v5.085h-17.016
			L132.072,300.019L132.072,300.019z M182.6,289.281v27.271h-8.549v-27.271H182.6L182.6,289.281z M162.01,289.281v22.225h11.966
			l-2.583,5.047h-18.131v-27.271H162.01z"/>
	</g>
</g>
</svg>
