<?xml version="1.0" encoding="utf-8"?>
<!-- Generator: Adobe Illustrator 16.0.0, SVG Export Plug-In . SVG Version: 6.00 Build 0)  -->
<!DOCTYPE svg PUBLIC "-//W3C//DTD SVG 1.1//EN" "http://www.w3.org/Graphics/SVG/1.1/DTD/svg11.dtd">
<svg version="1.1" id="Layer_1" xmlns="http://www.w3.org/2000/svg" xmlns:xlink="http://www.w3.org/1999/xlink" x="0px" y="0px"
	 width="500px" height="500px" viewBox="0 0 500 500" enable-background="new 0 0 500 500" xml:space="preserve">
<g>
	<path fill="#FFFFFF" d="M84.274,251.828l-5.333,9.67l-5.691-6.089l5.334-10.745v-26.861h-3.911v-7.521h12.803v32.95l9.958,9.312
		h54.768v7.879H93.876L84.274,251.828z M80.006,186.285l12.447,13.252l-4.623,7.163l-12.448-13.252L80.006,186.285z
		 M148.289,245.381l5.335-6.089l-23.829-25.786v-7.879h22.761v-7.88h-22.761v-11.461h-8.891v11.461H98.856v7.88h22.049v7.879
		l-23.472,25.786l4.979,6.089l22.761-24.713L148.289,245.381z"/>
	<path fill="#FFFFFF" d="M165.716,255.768l20.271-53.007v-6.447h-19.56v-7.879h28.806v12.894l-23.472,59.097L165.716,255.768z
		 M173.54,202.044l20.982,53.367l-6.402,5.014l-20.982-53.008L173.54,202.044z M226.173,235.352l-19.204,25.073l-8.535-1.076
		l19.204-26.145v-28.653h8.535V235.352L226.173,235.352z M201.634,187.36h40.541v48.351h-8.534v-40.472h-23.473v39.754h-8.536
		L201.634,187.36L201.634,187.36z M224.75,260.425v-20.774h8.535v12.536h9.958v8.236H224.75V260.425z"/>
	<path fill="#FFFFFF" d="M293.033,239.651v-3.224h-34.853v-7.164h44.099v14.328l-40.896,16.833l-4.981-5.37L293.033,239.651z
		 M267.071,199.537l-9.603-7.878l7.113-4.298l9.602,7.522L267.071,199.537z M267.071,212.073l-9.603,7.879l7.113,4.298l9.602-7.521
		L267.071,212.073z M285.208,202.044h17.782v7.521h-17.782v13.968h-8.891v-13.968h-18.137v-7.521h18.137v-13.969h8.891V202.044z
		 M269.916,241.8l34.498,13.253l-5.69,5.37l-40.188-15.042l8.892-19.34l8.181,3.223L269.916,241.8z M294.454,199.537l9.604-7.878
		l-7.113-4.298l-9.604,7.522L294.454,199.537z M294.454,212.073l9.604,7.879l-7.113,4.298l-9.604-7.521L294.454,212.073z
		 M311.525,260.423l-4.978-6.806l18.137-35.815v-21.489h-13.158v-7.879h24.538v7.879h-2.488v21.131L311.525,260.423z
		 M309.748,185.926l7.111,4.299l-2.844,30.086l-6.758-3.941L309.748,185.926z M310.46,227.472l5.688-6.446l19.561,32.591
		l-5.333,6.806L310.46,227.472z"/>
	<path fill="#FFFFFF" d="M346.377,230.339l22.405-7.521l1.778,7.879l-22.761,7.521L346.377,230.339z M347.8,260.425v-7.881h6.402
		v-46.201h-7.47v-7.879h7.47v-11.462h8.535v11.462h6.403v7.879h-6.403v54.082H347.8z M424.975,187.36v23.279h-15.648v8.597h17.424
		v7.879h-17.424v10.029h15.648v23.281h-40.899v-23.281h16.359v-10.029H384.43v5.729L373.05,257.2l-4.623-7.164l7.111-17.191V187.36
		H424.975z M416.084,195.239H384.43v7.879h31.654V195.239z M400.435,210.639H384.43v8.597h16.005V210.639z M392.611,252.544h23.473
		v-7.521h-23.473V252.544z"/>
	<path fill="#FFFFFF" d="M77.834,313.541V281.76h8.714c11.121,0,16.681,5.163,16.681,15.49c0,4.908-1.544,8.85-4.631,11.826
		c-3.089,2.978-7.223,4.465-12.403,4.465H77.834z M81.532,285.128v25.045h4.709c4.137,0,7.358-1.116,9.661-3.346
		c2.305-2.232,3.455-5.394,3.455-9.486c0-8.143-4.298-12.213-12.896-12.213H81.532L81.532,285.128z"/>
	<path fill="#FFFFFF" d="M141.977,313.541h-4.093l-3.344-8.909h-13.382l-3.146,8.909h-4.115L126,281.76h3.829L141.977,313.541z
		 M133.329,301.286l-4.952-13.543c-0.162-0.442-0.322-1.153-0.484-2.127h-0.088c-0.146,0.901-0.315,1.611-0.506,2.127l-4.908,13.543
		H133.329L133.329,301.286z"/>
	<polygon fill="#FFFFFF" points="173.395,285.128 164.284,285.128 164.284,313.541 160.587,313.541 160.587,285.128 
		151.499,285.128 151.499,281.76 173.395,281.76 	"/>
	<path fill="#FFFFFF" d="M210.887,313.541h-4.093l-3.345-8.909h-13.381l-3.146,8.909h-4.117l12.104-31.781h3.83L210.887,313.541z
		 M202.239,301.286l-4.952-13.543c-0.162-0.444-0.323-1.153-0.484-2.127h-0.089c-0.146,0.901-0.314,1.609-0.506,2.127l-4.907,13.543
		H202.239z"/>
	<path fill="#FFFFFF" d="M267.693,311.369c-3.167,1.804-6.688,2.705-10.562,2.705c-4.506,0-8.147-1.464-10.928-4.389
		c-2.781-2.927-4.17-6.797-4.17-11.613c0-4.92,1.544-8.959,4.632-12.113c3.088-3.153,7.001-4.732,11.74-4.732
		c3.435,0,6.316,0.562,8.649,1.686v4.122c-2.552-1.626-5.575-2.439-9.066-2.439c-3.536,0-6.435,1.228-8.693,3.682
		c-2.259,2.45-3.388,5.63-3.388,9.529c0,4.019,1.048,7.178,3.146,9.476c2.098,2.297,4.944,3.445,8.539,3.445
		c2.466,0,4.599-0.494,6.403-1.485v-8.908h-6.909v-3.37h10.606V311.369z"/>
	<path fill="#FFFFFF" d="M305.758,313.541h-4.4l-5.282-8.909c-0.484-0.827-0.953-1.532-1.409-2.116
		c-0.453-0.584-0.92-1.06-1.397-1.429c-0.477-0.371-0.987-0.64-1.541-0.81c-0.55-0.171-1.167-0.256-1.857-0.256h-3.038v13.52h-3.697
		V281.76h9.42c1.379,0,2.651,0.174,3.817,0.521c1.167,0.347,2.179,0.874,3.037,1.585c0.856,0.708,1.529,1.591,2.014,2.647
		s0.727,2.295,0.727,3.712c0,1.109-0.166,2.125-0.495,3.049c-0.33,0.922-0.799,1.747-1.41,2.47
		c-0.607,0.725-1.341,1.343-2.199,1.853c-0.858,0.508-1.823,0.903-2.894,1.184v0.091c0.528,0.234,0.986,0.505,1.375,0.808
		c0.388,0.303,0.76,0.661,1.111,1.074c0.353,0.415,0.7,0.884,1.045,1.408c0.346,0.522,0.73,1.134,1.156,1.827L305.758,313.541z
		 M286.831,285.128v11.525h5.018c0.925,0,1.781-0.14,2.565-0.422c0.783-0.28,1.464-0.683,2.036-1.208
		c0.571-0.523,1.019-1.167,1.341-1.928c0.323-0.762,0.485-1.613,0.485-2.561c0-1.698-0.547-3.023-1.641-3.979
		c-1.093-0.951-2.672-1.429-4.742-1.429H286.831z"/>
	<path fill="#FFFFFF" d="M342.634,313.541h-4.092l-3.346-8.909h-13.38l-3.147,8.909h-4.115l12.104-31.781h3.828L342.634,313.541z
		 M333.985,301.286l-4.951-13.543c-0.162-0.444-0.323-1.153-0.483-2.127h-0.088c-0.147,0.901-0.317,1.609-0.507,2.127l-4.908,13.543
		H333.985z"/>
	<path fill="#FFFFFF" d="M380.832,313.541h-4.535l-16.24-25.331c-0.412-0.638-0.748-1.301-1.013-1.995h-0.132
		c0.117,0.681,0.177,2.134,0.177,4.366v22.96h-3.698V281.76h4.798l15.802,24.933c0.659,1.034,1.085,1.744,1.276,2.13h0.087
		c-0.147-0.918-0.221-2.476-0.221-4.679V281.76h3.699V313.541L380.832,313.541z"/>
	<path fill="#FFFFFF" d="M397.217,313.541V281.76h8.716c11.121,0,16.682,5.163,16.682,15.49c0,4.908-1.545,8.85-4.632,11.826
		c-3.09,2.978-7.221,4.465-12.402,4.465H397.217z M400.915,285.128v25.045h4.71c4.139,0,7.358-1.116,9.661-3.346
		c2.303-2.232,3.455-5.394,3.455-9.486c0-8.143-4.299-12.213-12.896-12.213H400.915L400.915,285.128z"/>
</g>
</svg>
