<?xml version="1.0" encoding="utf-8"?>
<!-- Generator: Adobe Illustrator 16.0.0, SVG Export Plug-In . SVG Version: 6.00 Build 0)  -->
<!DOCTYPE svg PUBLIC "-//W3C//DTD SVG 1.1//EN" "http://www.w3.org/Graphics/SVG/1.1/DTD/svg11.dtd">
<svg version="1.1" id="Layer_1" xmlns="http://www.w3.org/2000/svg" xmlns:xlink="http://www.w3.org/1999/xlink" x="0px" y="0px"
	 width="500px" height="500px" viewBox="0 0 500 500" enable-background="new 0 0 500 500" xml:space="preserve">
<g>
	<path fill="#FFFFFF" d="M83.634,249.682c-0.947,0-1.63-0.69-1.63-1.637v-5.599c0-0.856,0.683-1.645,1.63-1.645h30.408v-30.915
		H85.958c-0.856,0-1.547-0.774-1.547-1.632v-5.348c0-0.854,0.69-1.546,1.547-1.546h68.135c0.855,0,1.552,0.69,1.552,1.546v5.348
		c0,0.857-0.697,1.632-1.552,1.632H126.1v30.915h30.658c0.947,0,1.644,0.788,1.644,1.645v5.599c0,0.946-0.698,1.637-1.644,1.637
		H126.1v11.711c0,0.861-0.775,1.554-1.637,1.554h-8.869c-0.868,0-1.553-0.692-1.553-1.554v-11.711H83.634z M109.649,233.835
		c0.341,0.599,0.427,0.953,0.427,1.118c0,0.519-0.343,0.776-1.027,0.776h-8.795c-1.802,0-2.23-0.258-2.841-1.467l-8.954-17.402
		c-0.172-0.428-0.343-0.855-0.343-1.117c0-0.513,0.343-0.771,1.033-0.771h8.697c1.725,0,2.245,0.259,2.843,1.461L109.649,233.835z
		 M151.075,214.972c0.776,0,1.118,0.259,1.033,0.771c0,0.263-0.081,0.519-0.429,1.117l-8.873,17.402
		c-0.6,1.209-1.033,1.38-2.837,1.467h-8.783c-0.695,0-1.039-0.258-1.039-0.776c0-0.263,0-0.344,0.428-1.118l8.961-17.401
		c0.52-1.125,1.118-1.462,2.848-1.462H151.075L151.075,214.972z"/>
	<path fill="#FFFFFF" d="M168.9,230.738c-0.947,0-1.633-0.691-1.633-1.547v-5.52c0-0.862,0.686-1.553,1.633-1.553h11.979v-5.164
		c0-0.861,0.684-1.553,1.545-1.553h7.75c0.954,0,1.639,0.691,1.639,1.553v5.164h28.426v-5.073c0-0.952,0.685-1.644,1.626-1.644
		h7.762c0.863,0,1.553,0.691,1.553,1.644v5.073h11.539c0.861,0,1.552,0.69,1.552,1.553v5.52c0,0.855-0.691,1.547-1.552,1.547
		h-11.539v3.177c0,7.151-2.066,9.651-11.203,13.789l-3.79,1.716l0.697,0.26c4.645,2.069,8.264,2.932,12.229,2.834h12.139
		c0.861,0,1.553,0.802,1.553,1.645v5.427c0,0.867-0.691,1.547-1.553,1.547h-12.139c-6.289-0.079-9.473-0.855-16.716-4.125
		l-6.375-2.849l-6.368,2.849c-7.584,3.354-9.992,3.96-16.71,4.125h-12.144c-0.862,0-1.547-0.68-1.547-1.547v-5.427
		c0-0.843,0.685-1.644,1.547-1.644h12.144c3.875,0,8.27-1.021,12.231-2.835l0.69-0.259l-3.795-1.717
		c-9.297-4.309-11.027-6.459-11.191-13.788v-3.178H168.9L168.9,230.738z M199.997,199.555c0-0.947,0.691-1.638,1.552-1.638h8.876
		c0.861,0,1.54,0.69,1.54,1.638v3.099h24.807c3.962,0,7.243,3.27,7.243,7.322v4.395c0,0.86-0.69,1.547-1.552,1.547h-5.861
		c-0.861,0-1.547-0.687-1.547-1.547v-3.882h-58.143v3.882c0,0.86-0.69,1.547-1.546,1.547h-5.776c-0.855,0-1.637-0.687-1.637-1.547
		v-4.395c0-4.053,3.36-7.322,7.413-7.322h24.63V199.555L199.997,199.555z M191.814,233.75c0,4.223,0.257,4.56,5.085,6.89
		l9.124,4.138l9.132-4.138c4.914-2.415,5.085-2.667,5.085-6.89v-3.012h-28.426V233.75L191.814,233.75z"/>
	<path fill="#FFFFFF" d="M264.342,232.018c0.855,0.099,0.947,0.439,0.686,1.735l-3.527,25.835c-0.256,1.118-0.869,1.547-2.072,1.547
		h-6.373c-0.601,0-0.941-0.165-0.941-0.685c0-0.092,0-0.092,0.17-0.862l3.961-26.098c0.17-1.119,0.514-1.374,1.547-1.473H264.342z
		 M276.395,219.536h12.494c0.861,0,1.637,0.69,1.637,1.632v4.738c0,0.86-0.697,1.644-1.637,1.644h-12.494v32.809
		c0,0.868-0.684,1.644-1.547,1.644h-5.684c-0.953,0-1.639-0.697-1.639-1.644V227.55h-12.576c-0.857,0-1.547-0.783-1.547-1.644
		v-4.738c0-0.941,0.689-1.632,1.547-1.632h12.576v-9.13h-11.801c-0.855,0-1.633-0.697-1.633-1.553v-4.994
		c0-0.947,0.777-1.632,1.633-1.632h25.236v-1.118c0-0.868,0.695-1.638,1.637-1.638h5.947c0.855,0,1.631,0.77,1.631,1.638
		l-0.084,1.975c0,4.052-3.275,7.323-7.229,7.323h-6.467v9.129H276.395z M290.697,259.588c0.172,0.771,0.172,0.771,0.172,0.862
		c0,0.52-0.264,0.685-0.949,0.685h-5.854c-1.203,0-1.816-0.429-2.072-1.547l-3.527-25.835c-0.348-1.296-0.17-1.637,0.686-1.735
		h6.037c1.021,0.099,1.463,0.354,1.627,1.473L290.697,259.588z M329.973,240.214c0.854,0,1.633,0.77,1.633,1.625v5.862
		c0,0.947-0.686,1.637-1.633,1.637h-4.824v11.021c0,0.868-0.773,1.645-1.637,1.645h-6.809c-0.861,0-1.547-0.697-1.547-1.645v-11.021
		h-20.07c-0.863,0-1.553-0.689-1.553-1.637v-5.862c0-0.855,0.689-1.625,1.553-1.625h20.07v-39.037c0-0.936,0.686-1.62,1.547-1.62
		h6.809c0.863,0,1.637,0.685,1.637,1.62v39.037H329.973z M309.648,211.965c0.43,0.769,0.43,0.946,0.516,1.283
		c0,0.433-0.35,0.61-0.947,0.61h-7.842c-1.205,0-1.633-0.354-2.238-1.559l-4.992-10.249c-0.436-0.771-0.52-1.119-0.52-1.461
		c0-0.435,0.342-0.691,0.947-0.691h7.322c1.461,0,1.809,0.257,2.414,1.277L309.648,211.965z M309.814,232.116
		c0.428,0.855,0.428,0.941,0.428,1.196c0.092,0.44-0.258,0.697-0.855,0.697h-7.842c-1.203-0.091-1.639-0.439-2.236-1.553
		l-4.994-10.25c-0.426-0.775-0.518-1.124-0.518-1.467c0-0.514,0.262-0.769,0.947-0.769h7.234c1.547,0.079,1.891,0.255,2.502,1.461
		L309.814,232.116z"/>
	<path fill="#FFFFFF" d="M349.781,242.193c-1.98,0.953-3.443,1.284-5.771,1.284h-3.184c-0.775,0-1.467-0.687-1.467-1.547v-4.907
		c0-0.856,0.691-1.553,1.467-1.553h1.98c2.756,0,3.1-0.086,6.111-2.586l0.863-0.771v-15.255h-8.008c-0.861,0-1.553-0.68-1.553-1.626
		v-4.999c0-0.863,0.691-1.547,1.553-1.547h8.008v-7.579c0-0.782,0.861-1.552,1.639-1.552h6.717c0.775,0,1.637,0.77,1.637,1.552
		v7.579h7.322c0.861,0,1.637,0.684,1.637,1.547v4.999c0,0.946-0.775,1.626-1.637,1.626h-7.322v7.505
		c0.861-0.439,2.33-0.69,3.447-0.775h3.959c0.857,0,1.461,0.775,1.461,1.632v4.822c0,0.776-0.684,1.459-1.461,1.459h-1.979
		c-2.242,0.086-2.506,0.259-5.428,2.844v19.558c0,3.962-3.27,7.229-7.316,7.229h-9.736c-0.775,0.093-1.553-0.776-1.553-1.545v-5.164
		c0-0.783,0.775-1.461,1.553-1.461h7.059v-10.77H349.781z M404.475,251.317c1.725,1.296,2.758,1.646,5.08,1.646h6.809
		c0.855,0,1.633,0.764,1.633,1.717v4.908c0,0.861-0.686,1.545-1.633,1.545h-10.078c-4.395,0.093-6.025-0.427-8.703-2.751
		l-3.271-2.933l-3.359,2.933c-2.672,2.324-4.309,2.844-8.699,2.751h-10.418c-0.863,0-1.547-0.684-1.547-1.545v-4.908
		c0-0.861,0.684-1.717,1.547-1.717h7.143c2.33,0,3.363-0.35,5.086-1.646l2.842-2.413l-9.729-8.612
		c-2.764-2.75-3.619-4.65-3.619-8.099v-8.604h15.158v-8.355h-15.158c-0.863,0-1.553-0.783-1.553-1.639v-4.907
		c0-0.941,0.689-1.639,1.553-1.639h15.158v-5.94c0-0.868,0.689-1.552,1.543-1.552h7.152c0.867,0,1.553,0.684,1.639,1.552v5.94
		h16.539c0.775,0,1.553,0.697,1.553,1.639v4.907c0,0.855-0.691,1.639-1.553,1.639h-16.539v8.355h15.934v8.604
		c0.086,3.448-0.775,5.349-3.617,8.099l-9.73,8.612L404.475,251.317z M404.562,233.918c0.861-0.771,1.031-1.033,0.945-1.902v-0.336
		h-22.479v0.336c0,0.869,0.086,1.132,0.947,1.902l10.334,8.782L404.562,233.918z"/>
	<g>
		<path fill="#FFFFFF" d="M136.551,282.692h-2.884c-0.251,0-0.456,0.205-0.456,0.459v13.136
			c-1.501-1.703-11.459-12.987-11.71-13.255c-0.272-0.286-0.626-0.34-0.864-0.34h-2.852c-0.25,0-0.451,0.205-0.451,0.459V301.3
			c0,0.252,0.201,0.458,0.451,0.458h2.885c0.25,0,0.458-0.206,0.458-0.458v-13.247c1.082,1.233,11.545,13.095,11.808,13.363
			c0.268,0.291,0.624,0.339,0.859,0.339v0.003h2.755c0.251,0,0.456-0.206,0.456-0.458v-18.148
			C137.007,282.897,136.803,282.692,136.551,282.692L136.551,282.692z M153.222,282.435h-6.645c-3.601,0-6.518,2.595-6.518,5.792
			v7.987c0,3.202,2.917,5.796,6.518,5.796h6.645c3.596,0,6.517-2.594,6.517-5.796v-5.12h-10.076v2.688
			c0,0.253,0.204,0.455,0.455,0.455h5.514v3.704c0,0.25-0.204,0.457-0.455,0.457h-10.559c-0.251,0-0.456-0.207-0.456-0.457v-11.439
			c0-0.247,0.204-0.454,0.456-0.454h10.559c0.251,0,0.455,0.207,0.455,0.454v2.192c0,0.254,0.205,0.457,0.451,0.457h3.204
			c0.251,0,0.451-0.202,0.451-0.457v-0.468C159.739,285.029,156.818,282.435,153.222,282.435L153.222,282.435z M208.241,282.692
			h-2.884c-0.254,0-0.456,0.205-0.456,0.459v13.136c-1.5-1.703-11.454-12.987-11.713-13.255c-0.269-0.286-0.623-0.34-0.861-0.34
			h-2.849c-0.25,0-0.455,0.205-0.455,0.459V301.3c0,0.252,0.204,0.458,0.455,0.458h2.882c0.25,0,0.454-0.206,0.454-0.458v-13.247
			c1.086,1.233,11.554,13.095,11.811,13.363c0.269,0.291,0.624,0.339,0.859,0.339l0.005,0.003h2.75c0.255,0,0.46-0.206,0.46-0.458
			v-18.148C208.701,282.897,208.497,282.692,208.241,282.692L208.241,282.692z M178.107,283.195
			c-0.179-0.321-0.466-0.527-0.825-0.527h-2.841c-0.362,0-0.653,0.206-0.832,0.527l-8.958,17.649
			c-0.298,0.569-0.043,0.907,0.483,0.907h2.838c0.417,0,0.569-0.105,0.777-0.502l7.109-14.196l7.106,14.196
			c0.207,0.396,0.365,0.502,0.778,0.502h2.836c0.531,0,0.789-0.338,0.492-0.907L178.107,283.195L178.107,283.195z M102.483,292.136
			c0,0.25-0.206,0.449-0.456,0.449h-9.747v-6.533h9.747c0.25,0,0.456,0.203,0.456,0.453V292.136L102.483,292.136z M100.312,282.692
			H88.575c-0.25,0-0.454,0.205-0.454,0.459V301.3c0,0.252,0.204,0.458,0.454,0.458h3.251c0.251,0,0.456-0.206,0.456-0.458v-5.353
			h8.03c3.596,0,6.518-2.125,6.518-5.327v-2.126C106.83,285.294,103.908,282.692,100.312,282.692L100.312,282.692z M113.287,282.692
			h-3.21c-0.255,0-0.459,0.205-0.459,0.459V301.3c0,0.252,0.204,0.458,0.459,0.458h3.21c0.25,0,0.454-0.206,0.454-0.458v-18.148
			C113.741,282.897,113.537,282.692,113.287,282.692L113.287,282.692z"/>
		<path fill="#FFFFFF" d="M178.307,296.056h-4.89c-0.251,0-0.456,0.205-0.456,0.453v4.786c0,0.254,0.205,0.457,0.456,0.457h4.89
			c0.251,0,0.456-0.202,0.456-0.457v-4.786C178.762,296.261,178.558,296.056,178.307,296.056L178.307,296.056z"/>
	</g>
	<g>
		<path fill="#FFFFFF" d="M224.327,285.797h-4.629c-0.871,0-1.551-0.708-1.551-1.555c0-0.843,0.681-1.551,1.551-1.551h12.667
			c0.844,0,1.524,0.708,1.524,1.551c0,0.847-0.68,1.555-1.524,1.555h-4.659v14.437c0,0.927-0.762,1.661-1.687,1.661
			c-0.928,0-1.691-0.734-1.691-1.661V285.797L224.327,285.797z"/>
		<path fill="#FFFFFF" d="M237.291,300.068v-15.689c0-0.953,0.734-1.688,1.687-1.688h11.087c0.818,0,1.498,0.681,1.498,1.498
			c0,0.843-0.68,1.497-1.498,1.497h-9.423v4.957h8.198c0.816,0,1.497,0.682,1.497,1.524c0,0.819-0.681,1.472-1.497,1.472h-8.198
			v5.121h9.559c0.817,0,1.498,0.683,1.498,1.498c0,0.845-0.681,1.497-1.498,1.497h-11.223
			C238.025,301.757,237.291,301.022,237.291,300.068z"/>
		<path fill="#FFFFFF" d="M254.691,292.278v-0.054c0-5.422,4.059-9.861,9.832-9.861c2.941,0,4.875,0.873,6.539,2.151
			c0.352,0.273,0.652,0.737,0.652,1.336c0,0.927-0.734,1.636-1.662,1.636c-0.463,0-0.789-0.165-1.008-0.329
			c-1.307-1.062-2.723-1.716-4.549-1.716c-3.623,0-6.291,2.998-6.291,6.728v0.056c0,3.732,2.643,6.754,6.291,6.754
			c2.018,0,3.377-0.654,4.768-1.823c0.244-0.218,0.6-0.383,1.008-0.383c0.844,0,1.58,0.709,1.58,1.552
			c0,0.519-0.244,0.926-0.545,1.199c-1.799,1.581-3.842,2.56-6.92,2.56C258.83,302.083,254.691,297.754,254.691,292.278z"/>
		<path fill="#FFFFFF" d="M275.635,284.217c0-0.927,0.734-1.661,1.688-1.661c0.928,0,1.662,0.734,1.662,1.661v6.401h9.098v-6.401
			c0-0.927,0.736-1.661,1.66-1.661c0.953,0,1.689,0.734,1.689,1.661v16.017c0,0.927-0.736,1.661-1.689,1.661
			c-0.924,0-1.66-0.734-1.66-1.661v-6.511h-9.098v6.511c0,0.927-0.734,1.661-1.662,1.661c-0.953,0-1.688-0.734-1.688-1.661V284.217z
			"/>
		<path fill="#FFFFFF" d="M296.332,284.271c0-0.926,0.734-1.689,1.686-1.689h0.355c0.816,0,1.279,0.408,1.742,0.98l9.535,12.339
			V284.19c0-0.9,0.734-1.635,1.633-1.635c0.926,0,1.66,0.734,1.66,1.635v16.015c0,0.926-0.705,1.662-1.633,1.662h-0.135
			c-0.791,0-1.283-0.408-1.744-1.008l-9.805-12.692v12.093c0,0.9-0.738,1.635-1.637,1.635c-0.924,0-1.658-0.734-1.658-1.635V284.271
			L296.332,284.271z"/>
		<path fill="#FFFFFF" d="M317,292.278v-0.054c0-5.365,4.141-9.861,9.996-9.861s9.941,4.439,9.941,9.806v0.056
			c0,5.365-4.141,9.858-9.996,9.858C321.084,302.083,317,297.645,317,292.278z M333.426,292.278v-0.054
			c0-3.705-2.699-6.783-6.484-6.783c-3.787,0-6.43,3.024-6.43,6.728v0.056c0,3.705,2.697,6.754,6.484,6.754
			C330.781,298.979,333.426,295.983,333.426,292.278z"/>
		<path fill="#FFFFFF" d="M340.992,284.217c0-0.927,0.734-1.661,1.688-1.661c0.928,0,1.664,0.734,1.664,1.661v14.489h8.633
			c0.844,0,1.525,0.682,1.525,1.527c0,0.844-0.682,1.523-1.525,1.523H342.68c-0.953,0-1.688-0.734-1.688-1.688V284.217z"/>
		<path fill="#FFFFFF" d="M355.914,292.278v-0.054c0-5.365,4.141-9.861,9.996-9.861s9.941,4.439,9.941,9.806v0.056
			c0,5.365-4.141,9.858-9.996,9.858S355.914,297.645,355.914,292.278z M372.34,292.278v-0.054c0-3.705-2.697-6.783-6.484-6.783
			c-3.785,0-6.428,3.024-6.428,6.728v0.056c0,3.705,2.697,6.754,6.482,6.754C369.697,298.979,372.34,295.983,372.34,292.278z"/>
		<path fill="#FFFFFF" d="M379.062,292.278v-0.054c0-5.339,4.086-9.861,9.834-9.861c2.857,0,4.768,0.682,6.508,1.935
			c0.328,0.247,0.682,0.709,0.682,1.362c0,0.9-0.736,1.661-1.662,1.661c-0.434,0-0.76-0.19-1.033-0.381
			c-1.227-0.898-2.561-1.5-4.633-1.5c-3.512,0-6.182,3.079-6.182,6.729v0.055c0,3.922,2.588,6.81,6.482,6.81
			c1.799,0,3.434-0.573,4.605-1.444v-3.568h-3.76c-0.818,0-1.5-0.624-1.5-1.441c0-0.819,0.682-1.471,1.5-1.471h5.311
			c0.951,0,1.688,0.733,1.688,1.688v5.094c0,0.953-0.379,1.634-1.17,2.125c-1.635,1.09-3.922,2.068-6.783,2.068
			C382.984,302.083,379.062,297.836,379.062,292.278z"/>
		<path fill="#FFFFFF" d="M406.078,294.349l-6.562-9.015c-0.221-0.328-0.383-0.71-0.383-1.172c0-0.898,0.736-1.606,1.689-1.606
			c0.732,0,1.225,0.408,1.633,1.007l5.311,7.653l5.393-7.68c0.408-0.599,0.9-1.007,1.609-1.007c0.979,0,1.633,0.734,1.633,1.633
			c0,0.462-0.219,0.87-0.461,1.198l-6.51,8.906v5.967c0,0.927-0.734,1.661-1.691,1.661c-0.926,0-1.66-0.734-1.66-1.661V294.349
			L406.078,294.349z"/>
	</g>
</g>
</svg>
