<?xml version="1.0" encoding="utf-8"?>
<!-- Generator: Adobe Illustrator 16.0.0, SVG Export Plug-In . SVG Version: 6.00 Build 0)  -->
<!DOCTYPE svg PUBLIC "-//W3C//DTD SVG 1.1//EN" "http://www.w3.org/Graphics/SVG/1.1/DTD/svg11.dtd">
<svg version="1.1" id="Layer_1" xmlns="http://www.w3.org/2000/svg" xmlns:xlink="http://www.w3.org/1999/xlink" x="0px" y="0px"
	 width="500px" height="500px" viewBox="0 0 500 500" enable-background="new 0 0 500 500" xml:space="preserve">
<g>
	<path fill="#FFFFFF" d="M161.286,333.338l3.403,0.788c-0.697,1.568-1.483,3.141-2.355,4.711h44.781v2.621h-46.354
		c-2.792,4.712-6.458,9.165-10.999,13.355c-0.522-0.697-1.397-1.572-2.617-2.621C153.255,346.958,157.969,340.671,161.286,333.338
		 M168.88,357.694h3.142v4.19h19.903v2.879h-19.903v5.238h15.452v13.095h-9.952v5.763c-0.175,2.269,1.135,3.316,3.929,3.141h4.19
		c2.618,0.176,4.103-0.786,4.451-2.881c0.524-1.396,0.787-3.056,0.787-4.976c0.523,0.175,1.31,0.437,2.356,0.787
		c0.349,0.174,0.61,0.262,0.786,0.262c0,1.92-0.262,3.491-0.786,4.713c-0.697,3.491-2.967,5.15-6.81,4.975h-6.023
		c-4.188,0.176-6.196-1.745-6.022-5.761v-6.022h-8.119c0.175,7.157-5.326,11.61-16.498,13.355c-0.175-1.048-0.698-2.095-1.571-3.143
		c10.3-1.745,15.277-5.151,14.929-10.213h-9.953v-13.096h15.714v-5.236h-19.903v-2.88h19.903L168.88,357.694L168.88,357.694z
		 M206.329,388.859c0.524-1.921,0.961-4.715,1.311-8.382c0.174,0,0.522,0.087,1.048,0.262c1.047,0.348,1.746,0.524,2.095,0.524
		c0,0.698-0.086,1.571-0.262,2.619c-0.351,2.969-0.7,4.976-1.049,6.022c-0.697,3.841-2.356,5.673-4.977,5.499
		c-2.617,0.174-4.625-2.095-6.021-6.808c-1.572-3.666-2.271-13.532-2.096-29.595v-2.618h-42.163v-2.882h45.307v6.287
		c-0.175,14.664,0.523,24.093,2.095,28.281c0.697,2.62,1.659,3.929,2.879,3.929C205.544,392.001,206.154,390.954,206.329,388.859
		 M156.571,380.479h27.76v-7.595h-27.76V380.479z M159.977,346.17h41.377v2.618h-41.377V346.17z"/>
	<path fill="#FFFFFF" d="M217.786,341.72h13.619v43.473H220.93v4.451h-3.144V341.72z M220.93,382.05h7.332v-37.188h-7.332V382.05z
		 M239.786,333.862h3.402c-0.174,2.444-0.261,6.373-0.261,11.786h10.998c0,2.967-0.086,7.593-0.262,13.88
		c-0.173,13.617-0.349,22.695-0.522,27.235c0,5.062-2.356,7.77-7.071,8.117h-4.715l-0.785-3.666
		c0.698,0.175,2.183,0.262,4.451,0.262c3.317,0.175,4.889-1.396,4.715-4.712c0.523-9.255,0.784-21.913,0.784-37.974h-7.594
		c0,1.396-0.088,3.402-0.262,6.022c0,2.793-0.087,4.802-0.262,6.023c0.175,16.41-2.969,28.109-9.428,35.093
		c-1.049-1.049-2.008-1.832-2.882-2.358c6.286-6.11,9.34-16.935,9.167-32.473v-5.5c0.173-2.968,0.262-5.237,0.262-6.809h-5.236
		v-3.142h5.236C239.697,341.98,239.786,338.053,239.786,333.862 M259.688,341.72h15.189v51.329h-3.143v-4.451h-8.905v4.713h-3.143
		L259.688,341.72L259.688,341.72z M262.83,385.454h8.905v-40.592h-8.905V385.454z"/>
	<path fill="#FFFFFF" d="M284.108,340.933h15.715v47.141h-3.406v-5.238h-8.904v5.76h-3.404V340.933L284.108,340.933z
		 M287.513,379.691h8.904v-35.617h-8.904V379.691z M303.229,345.386h11.259v-11.523h3.667v62.33h-3.667v-15.977h-11.522v-3.143
		h11.522v-13.094h-10.475v-3.143h10.475v-12.309h-11.259V345.386z M343.296,377.073v3.143h-12.309v15.977h-3.668v-62.33h3.668
		v11.523h12.045v3.143h-12.045v12.309h11.524v3.142h-11.524v13.095H343.296L343.296,377.073z"/>
	<path fill="#FFFFFF" d="M381.962,123.173l-31.547-18.215c-3.258-1.88-7.271-1.88-10.529,0l-31.546,18.215
		c-3.258,1.88-5.266,5.356-5.266,9.118v36.428c0,3.76,2.008,7.237,5.266,9.117l26.292,15.182v8.832c0,6.4-0.685,12.64-1.963,18.658
		c-14.343,10.247-50.296,29.455-83.742-4.884c-35.622-36.572-74.189-20.539-92.969-8.721c-0.092-1.673-0.15-3.356-0.15-5.053
		v-49.315c0-2.919,2.366-5.286,5.287-5.286h99.904c5.81,0,10.519-4.71,10.519-10.519c0-5.81-4.709-10.519-10.519-10.519H145.282
		c-5.807,0-10.512,4.707-10.512,10.513v10.523v54.602c0,61.002,49.448,110.451,110.448,110.451
		c61.001,0,110.451-49.449,110.451-110.451v-8.832l26.291-15.182c3.26-1.88,5.269-5.357,5.269-9.117v-36.428
		C387.229,128.529,385.221,125.053,381.962,123.173 M245.219,291.262c-43.645,0-79.966-31.28-87.818-72.642
		c14.084-10.174,50.375-30.022,84.113,4.614c16.523,16.965,33.677,22.611,49.196,22.611c14.445-0.001,27.47-4.896,37.256-10.109
		C314.61,268.312,282.603,291.262,245.219,291.262 M366.188,159.607c0,1.885-1.004,3.622-2.636,4.564l-15.767,9.103
		c-1.631,0.943-3.641,0.943-5.271,0l-15.767-9.103c-1.632-0.942-2.635-2.68-2.635-4.564V141.4c0-1.884,1.003-3.622,2.635-4.564
		l15.767-9.103c1.631-0.942,3.641-0.942,5.271,0l15.767,9.103c1.632,0.942,2.636,2.681,2.636,4.564V159.607z"/>
</g>
</svg>
