<?xml version="1.0" encoding="utf-8"?>
<!-- Generator: Adobe Illustrator 16.0.0, SVG Export Plug-In . SVG Version: 6.00 Build 0)  -->
<!DOCTYPE svg PUBLIC "-//W3C//DTD SVG 1.1//EN" "http://www.w3.org/Graphics/SVG/1.1/DTD/svg11.dtd">
<svg version="1.1" id="Layer_1" xmlns="http://www.w3.org/2000/svg" xmlns:xlink="http://www.w3.org/1999/xlink" x="0px" y="0px"
	 width="500px" height="500px" viewBox="0 0 500 500" enable-background="new 0 0 500 500" xml:space="preserve">
<g>
	<polygon fill="#FFFFFF" points="75.758,209.916 75.758,250.223 116.064,209.916 	"/>
	<polygon fill="#FFFFFF" points="75.758,290.529 116.064,290.529 75.758,250.223 	"/>
	<path fill="#FFFFFF" d="M136.94,250.223c11.131,0,20.153-9.022,20.153-20.153s-9.022-20.153-20.153-20.153h-13.298l-40.307,40.307
		l40.307,40.306h13.298c11.131,0,20.153-9.022,20.153-20.153S148.071,250.223,136.94,250.223z M125.453,222.008h8.062
		c4.451,0,8.062,3.61,8.062,8.062c0,2.225-0.903,4.24-2.362,5.699s-3.475,2.362-5.699,2.362h-8.062V222.008L125.453,222.008z
		 M139.214,276.076c-1.459,1.459-3.475,2.361-5.699,2.361h-8.062v-16.123h8.062c4.451,0,8.062,3.61,8.062,8.062
		C141.576,272.602,140.673,274.617,139.214,276.076z"/>
	<g>
		<path fill="#FFFFFF" d="M202.513,226.933h-3.449v-8.967h9.398c0.227,0,0.435-0.012,0.634-0.031v-6.063
			c-0.199-0.016-0.407-0.027-0.634-0.027h-32.937c-0.149,0-0.293,0.004-0.431,0.011v6.092c0.139,0.011,0.282,0.018,0.431,0.018
			h9.312v8.967h-3.793c-2.299,0-3.867,0.532-4.699,1.596c-0.834,1.064-1.25,2.802-1.25,5.216v17.909v30.288
			c0,2.414,0.416,4.139,1.25,5.173c0.832,1.035,2.4,1.552,4.699,1.552h21.469c2.356,0,3.951-0.517,4.785-1.552
			c0.832-1.034,1.25-2.759,1.25-5.173v-48.197c0-2.414-0.417-4.152-1.25-5.216C206.464,227.465,204.869,226.933,202.513,226.933z
			 M190.528,217.966h3.018v8.967h-3.018V217.966z M181.13,234.262c0-0.805,0.201-1.208,0.604-1.208h3.104v3.363
			c0,4.311-0.288,7.975-0.862,10.993c-0.574,3.018-1.523,5.878-2.845,8.578V234.262z M202.427,281.166
			c0,0.804-0.26,1.207-0.776,1.207h-19.917c-0.402,0-0.604-0.346-0.604-1.035v-8.363h21.297V281.166z M202.427,266.508H181.13
			v-4.656c1.321,0.634,2.342,0.734,3.061,0.303c0.718-0.432,1.394-1.365,2.026-2.803c0.804-1.896,1.479-3.764,2.025-5.604
			c0.546-1.839,0.992-3.678,1.338-5.519c0.345-1.839,0.588-3.75,0.732-5.733c0.143-1.983,0.216-4.066,0.216-6.251v-3.19h3.018
			v20.951c0,1.438,0.086,2.63,0.259,3.578c0.172,0.949,0.573,1.711,1.207,2.285c0.631,0.574,1.522,0.991,2.672,1.25
			s2.73,0.418,4.743,0.475V266.508L202.427,266.508z M202.427,254.955c-1.496-0.115-2.43-0.331-2.802-0.646
			c-0.375-0.316-0.562-0.935-0.562-1.854v-19.4h2.587c0.517,0,0.776,0.403,0.776,1.208V254.955z"/>
		<path fill="#FFFFFF" d="M243.122,253.92H221.74c-2.76,0-4.743,0.532-5.949,1.596c-1.207,1.063-1.812,3.031-1.812,5.905v18.278
			c0,2.873,0.604,4.828,1.812,5.863c1.206,1.035,3.189,1.551,5.949,1.551h21.382c2.815,0,4.842-0.516,6.078-1.551
			c1.235-1.035,1.854-2.99,1.854-5.863v-18.278c0-2.874-0.618-4.842-1.854-5.905C247.964,254.452,245.938,253.92,243.122,253.92z
			 M244.157,279.527c0,0.804-0.548,1.207-1.639,1.207h-20.176c-1.034,0-1.552-0.403-1.552-1.207v-17.589
			c0-0.401,0.143-0.719,0.431-0.948c0.287-0.229,0.661-0.345,1.121-0.345h20.176c1.091,0,1.639,0.431,1.639,1.293V279.527z"/>
		<g>
			<path fill="#FFFFFF" d="M220.718,210.88c-0.461-0.052-0.872-0.052-1.232,0H220.718z"/>
			<path fill="#FFFFFF" d="M251.657,240.728h-15.52v-14.485h12.675c0.119,0,0.232-0.005,0.346-0.011v-6.617
				c-0.113-0.005-0.227-0.01-0.346-0.01h-12.675v-8.708c0-0.54-0.067-1.013-0.193-1.426h-6.436c-0.12,0.416-0.183,0.888-0.183,1.426
				v8.708h-6.639c0.114-0.46,0.216-0.948,0.302-1.466c0.086-0.517,0.186-1.063,0.302-1.638c0.177-1.002,0.258-1.85,0.245-2.55
				h-6.416c-0.075,0.334-0.146,0.691-0.209,1.084c-0.518,3.104-1.266,6.093-2.242,8.967c-0.978,2.875-2.213,5.749-3.707,8.622
				c-0.342,0.683-0.604,1.3-0.796,1.86h7.355c0.608-1.267,1.152-2.476,1.631-3.628c0.632-1.522,1.207-3.061,1.725-4.613h8.449
				v14.484h-18.602v6.812h43.679c0.155,0,0.306-0.005,0.449-0.016v-6.779C254.709,240.734,251.813,240.728,251.657,240.728z"/>
		</g>
		<path fill="#FFFFFF" d="M337.178,246.936h-24.4v-7.501h13.02c2.644,0,4.454-0.617,5.433-1.854
			c0.977-1.235,1.466-3.117,1.466-5.647v-13.536c0-2.644-0.518-4.54-1.553-5.691c-1.034-1.149-2.816-1.725-5.346-1.725h-32.505
			c-2.586,0-4.411,0.604-5.475,1.811c-1.064,1.208-1.595,3.047-1.595,5.518v13.623c0,2.587,0.53,4.483,1.595,5.691
			c1.063,1.207,2.889,1.811,5.475,1.811h12.847v7.501h-24.359v6.639h21.514l2.846,0.007v33.532h6.639v-25.693v-7.817l1.983-0.028
			h22.417c0.031,0,0.061-0.003,0.091-0.003v-6.634C337.238,246.938,337.21,246.936,337.178,246.936z M294.327,232.796
			c-0.92,0-1.38-0.574-1.38-1.725v-11.812c0-1.149,0.46-1.725,1.38-1.725h30.263c0.919,0,1.38,0.576,1.38,1.725v11.812
			c0,1.15-0.461,1.725-1.38,1.725H294.327z"/>
		<path fill="#FFFFFF" d="M267.427,247.496c0.46-0.775,0.919-1.595,1.379-2.457v42.075h6.812v-56.042
			c1.264-2.988,2.371-5.949,3.319-8.88c0.948-2.932,1.71-5.777,2.285-8.536c0.198-1.07,0.264-1.993,0.201-2.775h-6.547
			c-0.201,0.515-0.385,1.094-0.552,1.741c-1.323,6.151-3.119,11.898-5.389,17.244c-2.271,5.346-5.131,10.691-8.579,16.037
			c-0.571,0.897-0.993,1.715-1.274,2.458h7.842C267.092,248.074,267.259,247.779,267.427,247.496z"/>
		<path fill="#FFFFFF" d="M288.357,287.114h-8.545c2.84-3.737,7.247-13.171,10.175-23.18c2.263-7.736,3.628-14.335,3.642-14.401
			l7.018,1.444C300.414,252.107,295.4,277.301,288.357,287.114z"/>
		<path fill="#FFFFFF" d="M330.858,287.114h8.544c-2.838-3.737-7.246-13.171-10.174-23.18c-2.263-7.736-3.629-14.335-3.642-14.401
			l-7.018,1.444C318.802,252.107,323.815,277.301,330.858,287.114z"/>
		<path fill="#FFFFFF" d="M417.751,287.061h-62.77c-1.188,0-2.3-0.59-2.966-1.574c-0.667-0.983-0.801-2.234-0.36-3.338
			l16.852-42.128l6.651,2.661l-14.885,37.215h52.187l-8.988-22.471l7.637-0.199l9.969,24.922c0.441,1.104,0.307,2.354-0.359,3.338
			C420.051,286.471,418.939,287.061,417.751,287.061z"/>
		<g>
			<path fill="#FFFFFF" d="M355.501,221.491c0.125,0.006,0.253,0.01,0.387,0.01h61.303c0.033,0,0.063-0.002,0.097-0.002v-6.634
				c-0.033-0.001-0.063-0.003-0.097-0.003h-61.303c-0.134,0-0.262,0.005-0.387,0.011V221.491z"/>
			<path fill="#FFFFFF" d="M424.242,240.146c-0.187-0.013-0.38-0.021-0.585-0.021h-74.581c-0.206,0-0.399,0.009-0.586,0.021v6.425
				c0.187,0.012,0.38,0.02,0.586,0.02h27.073h8.105h39.402c0.206,0,0.398-0.008,0.585-0.02V240.146L424.242,240.146z"/>
		</g>
	</g>
</g>
</svg>
