<?xml version="1.0" encoding="utf-8"?>
<!-- Generator: Adobe Illustrator 16.0.0, SVG Export Plug-In . SVG Version: 6.00 Build 0)  -->
<!DOCTYPE svg PUBLIC "-//W3C//DTD SVG 1.1//EN" "http://www.w3.org/Graphics/SVG/1.1/DTD/svg11.dtd">
<svg version="1.1" id="Layer_1" xmlns="http://www.w3.org/2000/svg" xmlns:xlink="http://www.w3.org/1999/xlink" x="0px" y="0px"
	 width="500px" height="500px" viewBox="0 0 500 500" enable-background="new 0 0 500 500" xml:space="preserve">
<g>
	<rect x="189.435" y="307.131" fill="#FFFFFF" width="39.003" height="4.503"/>
	<rect x="189.435" y="296.092" fill="#FFFFFF" width="39.003" height="4.503"/>
	<rect x="189.435" y="274.291" fill="#FFFFFF" width="39.003" height="4.206"/>
	<path fill="#FFFFFF" d="M190.294,219.118c1.096-0.286,2.066-0.862,2.844-1.646c0.097-0.103,0.193-0.212,0.284-0.321
		c0.027-0.036,0.067-0.066,0.089-0.109c0.081-0.104,0.173-0.225,0.258-0.346c0.045-0.066,0.105-0.146,0.146-0.213
		c0.043-0.06,0.072-0.12,0.112-0.188c0.561-0.929,0.883-2.003,0.883-3.168c0-1.178-0.331-2.27-0.904-3.211l-0.019-0.018
		c-1.074-1.785-3.044-2.969-5.289-2.969c-0.24,0-1.496-0.029-1.915-0.029h-5.768v12.684h5.859
		C188.154,219.585,189.286,219.428,190.294,219.118z"/>
	<rect x="189.435" y="285.052" fill="#FFFFFF" width="39.003" height="4.491"/>
	<rect x="310.245" y="262.274" fill="#FFFFFF" width="6.785" height="4.127"/>
	<rect x="293.641" y="262.274" fill="#FFFFFF" width="6.779" height="3.848"/>
	<rect x="293.641" y="272.562" fill="#FFFFFF" width="6.779" height="4.188"/>
	<rect x="310.245" y="272.562" fill="#FFFFFF" width="6.785" height="4.188"/>
	<path fill="#FFFFFF" d="M189.122,198.896c0.297-0.092,0.562-0.206,0.828-0.334c0.01-0.007,0.01-0.007,0.019-0.007
		c0.376-0.2,0.713-0.424,1.038-0.691l0.009-0.019c0.009,0,0.016-0.012,0.016-0.012c1.195-1.014,1.96-2.513,1.96-4.193
		c0-3.071-2.476-5.542-5.535-5.542c-0.114,0-1.547-0.072-2.257-0.072h-4.185v11.434h4.694
		C187.02,199.46,188.137,199.26,189.122,198.896z"/>
	<path fill="#FFFFFF" d="M232.883,188.445c-3.865,0-6.9,1.432-9.121,4.303c-2.209,2.864-3.332,6.572-3.332,11.131
		c0,4.509,1.09,8.181,3.266,11.027c2.166,2.87,5.146,4.297,8.928,4.297c3.859,0,6.869-1.365,9.009-4.103
		c2.148-2.744,3.234-6.422,3.234-11.04c0-4.812-1.053-8.624-3.144-11.416C239.629,189.841,236.694,188.445,232.883,188.445z"/>
	<path fill="#FFFFFF" d="M265.334,260.903c0,0-0.026,0.013-0.026,0.03v8.023c0,0.018,0.015,0.024,0.015,0.024h4.588
		c0.007,0,0.016-0.007,0.016-0.024v-8.023c0-0.018-0.009-0.03-0.016-0.03H265.334z"/>
	<path fill="#FFFFFF" d="M265.334,277.21l-0.026,0.024v7.866l0.026,0.03h4.576c0.006,0,0.015-0.013,0.015-0.013v-7.884
		c0,0-0.009-0.024-0.015-0.024H265.334z"/>
	<path fill="#FFFFFF" d="M337.307,145.252H162.68c-9.616,0-17.424,7.811-17.424,17.43v174.624c0,9.62,7.809,17.442,17.424,17.442
		h174.627c9.616,0,17.438-7.822,17.438-17.442V162.682C354.744,153.062,346.923,145.252,337.307,145.252z M265.669,183.469
		c3.271-2.367,7.604-3.557,12.996-3.557c4.242,0,7.825,0.504,10.8,1.541c0.353,0.115,0.583,0.45,0.583,0.825v6.986
		c0,0.71-0.765,1.159-1.372,0.807c-2.788-1.554-5.972-2.312-9.528-2.312c-2.425,0-4.369,0.425-5.823,1.328
		c-0.325,0.2-0.631,0.45-0.904,0.717c-0.046,0.036-0.073,0.085-0.112,0.128c-0.14,0.133-0.255,0.284-0.379,0.436
		c-0.027,0.043-0.049,0.074-0.07,0.104c-0.134,0.2-0.251,0.426-0.346,0.649c-0.012,0.013-0.012,0.03-0.012,0.03
		c-0.116,0.237-0.18,0.456-0.231,0.705c0,0.023-0.007,0.048-0.007,0.065c-0.048,0.226-0.075,0.449-0.084,0.692
		c0,0.013,0.009,0.03,0.009,0.055c0,0-0.009,0.03-0.009,0.055c0,0.862,0.282,1.663,0.731,2.336c0.203,0.305,0.446,0.602,0.722,0.898
		c0.995,1.008,3.459,2.361,7.377,4.072c4.598,1.979,7.757,4.055,9.486,6.239c1.727,2.19,2.579,4.801,2.579,7.823
		c0,4.442-1.565,7.823-4.719,10.166c-3.135,2.312-7.608,3.478-13.4,3.478c-5.004,0-9.158-0.759-12.457-2.282
		c-0.346-0.164-0.567-0.51-0.567-0.892v-7.441c0-0.74,0.822-1.165,1.423-0.74c3.371,2.354,7.122,3.544,11.273,3.544
		c2.686,0,4.713-0.461,6.066-1.396c1.353-0.923,2.023-2.106,2.023-3.568c0-1.251-0.54-2.44-1.608-3.557
		c-1.083-1.111-3.911-2.623-8.518-4.534c-7.223-3.071-10.843-7.525-10.843-13.376C260.749,189.198,262.391,185.854,265.669,183.469z
		 M311.696,253.979h10.453l0,0h0.03c1.611,0,2.923,1.305,2.923,2.907v25.436c0,0.788-0.65,1.438-1.451,1.438h-36.724
		c-0.795,0-1.435-0.649-1.435-1.438v-25.46c0-1.584,1.295-2.883,2.889-2.883h10.594c0.795,0,1.444-0.656,1.444-1.438v-3.29
		c0-0.788,0.649-1.444,1.444-1.444h6.943c0.807,0,1.438,0.656,1.438,1.444v3.29C310.245,253.323,310.897,253.979,311.696,253.979z
		 M171.158,181.593c0-0.491,0.409-0.91,0.92-0.91h15.509c5.04,0,8.912,0.953,11.644,2.858c2.725,1.918,4.096,4.564,4.096,7.951
		c0,2.506-0.855,4.703-2.534,6.597c-1.695,1.887-3.822,3.198-6.393,3.921v0.109c3.216,0.406,5.824,1.596,7.798,3.593
		c1.982,1.984,2.98,4.484,2.98,7.494c0,4.194-1.505,7.532-4.476,10.015c-2.989,2.47-7.074,3.714-12.256,3.714h-16.368
		c-0.511,0-0.92-0.406-0.92-0.916V181.593z M246.484,318.491c0,0.796-0.644,1.445-1.438,1.445h-72.443
		c-0.795,0-1.444-0.649-1.444-1.438v-5.431c0-0.796,0.649-1.434,1.444-1.434h6.558v-44.073c0-0.898,0.729-1.62,1.62-1.62h22.979
		v-5.024h-29.546c-0.807,0-1.449-0.65-1.449-1.463v-5.39c0-0.801,0.643-1.45,1.449-1.45h28.858h0.687v-3.696
		c0-0.783,0.616-1.414,1.408-1.414h7.471c0.776,0,1.408,0.631,1.408,1.414v3.696h29.55c0.796,0,1.45,0.643,1.45,1.438v5.419
		c0,0.795-0.655,1.445-1.45,1.445h-29.55v5.025h22.968c0.896,0,1.617,0.722,1.617,1.62v44.072h6.389
		c0.807,0,1.465,0.661,1.465,1.476L246.484,318.491L246.484,318.491z M232.443,227.736c-6.634,0-12.022-2.166-16.159-6.519
		c-4.145-4.352-6.211-9.94-6.211-16.799c0-7.246,2.114-13.14,6.351-17.686c4.23-4.558,9.816-6.821,16.757-6.821
		c6.621,0,11.938,2.197,15.958,6.597c4.039,4.395,6.048,10.045,6.048,16.951c0,7.217-2.094,13.062-6.275,17.546
		C244.715,225.496,239.225,227.736,232.443,227.736z M285.44,300.606c-0.12,1.955-0.242,3.593-0.339,5.596
		c-0.037,0.661-0.525,1.226-1.175,1.342c-1.213,0.236-2.431,0.461-3.669,0.691l-0.015,0.03v10.366c0,0.807-0.652,1.45-1.472,1.45
		h-5.973c-0.819,0-1.478-0.644-1.478-1.45v-8.686c0,0-0.009-0.024-0.016-0.018c-4.9,0.929-10.068,1.918-15.53,2.98
		c-0.773,0.158-1.548-0.358-1.693-1.147l-1.068-5.862c-0.149-0.789,0.376-1.554,1.175-1.682c0.242-0.042,0.507-0.091,0.812-0.128
		l0.021-0.023v-43.133c0-0.018-0.012-0.03-0.03-0.03c-0.819,0-1.486-0.661-1.486-1.493v-5.316c0-0.819,0.667-1.48,1.486-1.48h26.892
		c0.811,0,1.481,0.661,1.481,1.475v5.341c0,0.813-0.671,1.476-1.475,1.476h-1.634c0,0-0.015,0.012-0.015,0.029v38.794
		c0,0.012,0.009,0.024,0.03,0.024c1.11-0.236,2.248-0.468,3.413-0.692C284.628,298.865,285.511,299.648,285.44,300.606z
		 M328.695,293.646c0,0.795-0.638,1.444-1.444,1.444h-24.474l-0.501,3.04h20.367c0.828,0,1.48,0.692,1.451,1.53l-0.304,6.761h-0.024
		c-0.073,1.65-0.164,3.393-0.273,5.292c-0.51,6.191-4.388,7.927-11.641,8.333h-13.812c-0.656,0-1.233-0.455-1.388-1.093
		c-0.616-2.505-1.141-4.533-1.551-6.051c-0.261-0.951,0.492-1.887,1.46-1.856c4.725,0.157,9.101,0.213,13.155,0.17
		c2.585,0,3.798-1.178,3.947-3.502c0.075-0.929,0.01,0.024,0.075-1.292h-17.562v-0.007h-4.622c-0.935,0-1.63-0.855-1.445-1.76
		l1.916-9.564h-8.151c-0.804,0-1.456-0.655-1.456-1.469v-5.396c0-0.795,0.631-1.432,1.444-1.432h43.382
		c0.795,0,1.45,0.637,1.45,1.45V293.646L328.695,293.646z M324.119,224.259c-3.15,2.312-7.617,3.478-13.4,3.478
		c-5.022,0-9.164-0.759-12.466-2.282c-0.334-0.164-0.564-0.51-0.564-0.892v-7.441c0-0.74,0.828-1.165,1.426-0.74
		c3.369,2.354,7.113,3.544,11.258,3.544c2.692,0,4.723-0.461,6.069-1.396c1.354-0.923,2.039-2.106,2.039-3.568
		c0-1.251-0.552-2.44-1.623-3.557c-1.077-1.111-3.924-2.623-8.512-4.534c-7.216-3.071-10.836-7.525-10.836-13.376
		c0-4.296,1.63-7.641,4.903-10.025c3.283-2.368,7.62-3.557,13.009-3.557c4.233,0,7.839,0.503,10.797,1.541
		c0.337,0.115,0.583,0.449,0.583,0.825v6.985c0,0.711-0.765,1.159-1.375,0.808c-2.782-1.554-5.963-2.312-9.514-2.312
		c-2.439,0-4.385,0.425-5.839,1.329c-0.327,0.2-0.621,0.449-0.898,0.716c-0.042,0.037-0.081,0.086-0.114,0.128
		c-0.14,0.134-0.262,0.285-0.376,0.437c-0.016,0.043-0.055,0.073-0.085,0.104c-0.128,0.2-0.247,0.425-0.334,0.649
		c-0.007,0.012-0.007,0.03-0.007,0.03c-0.1,0.236-0.182,0.455-0.224,0.704c-0.01,0.024-0.01,0.049-0.036,0.066
		c-0.022,0.225-0.064,0.449-0.064,0.692c0,0.012,0,0.03,0,0.055c0,0-0.01,0.029-0.01,0.054c0,0.862,0.286,1.664,0.753,2.337
		c0.191,0.304,0.425,0.601,0.71,0.898c0.989,1.008,3.454,2.36,7.378,4.072c4.591,1.979,7.762,4.054,9.488,6.239
		c1.711,2.19,2.573,4.801,2.573,7.823C328.828,218.535,327.263,221.916,324.119,224.259z"/>
	<path fill="#FFFFFF" d="M265.334,293.354l-0.026,0.029v8.934l0.033,0.02c1.475-0.226,3.003-0.479,4.569-0.759
		c0.007,0,0.016,0,0.016,0v-8.193c0,0-0.009-0.029-0.016-0.029L265.334,293.354L265.334,293.354z"/>
</g>
</svg>
