<?xml version="1.0" encoding="utf-8"?>
<!-- Generator: Adobe Illustrator 16.0.0, SVG Export Plug-In . SVG Version: 6.00 Build 0)  -->
<!DOCTYPE svg PUBLIC "-//W3C//DTD SVG 1.1//EN" "http://www.w3.org/Graphics/SVG/1.1/DTD/svg11.dtd">
<svg version="1.1" id="Layer_1" xmlns="http://www.w3.org/2000/svg" xmlns:xlink="http://www.w3.org/1999/xlink" x="0px" y="0px"
	 width="1600px" height="1000px" viewBox="0 0 1600 1000" enable-background="new 0 0 1600 1000" xml:space="preserve">
<g>
	<rect x="652.471" y="639.165" fill="#FFFFFF" width="95.006" height="10.969"/>
	<rect x="652.471" y="612.273" fill="#FFFFFF" width="95.006" height="10.971"/>
	<rect x="652.471" y="559.171" fill="#FFFFFF" width="95.006" height="10.245"/>
	<path fill="#FFFFFF" d="M654.563,424.773c2.668-0.695,5.034-2.099,6.927-4.006c0.236-0.251,0.472-0.518,0.693-0.784
		c0.067-0.088,0.164-0.162,0.215-0.266c0.2-0.251,0.422-0.547,0.628-0.843c0.112-0.161,0.259-0.355,0.355-0.517
		c0.104-0.147,0.178-0.295,0.273-0.458c1.367-2.262,2.151-4.878,2.151-7.716c0-2.869-0.806-5.529-2.202-7.821l-0.045-0.044
		c-2.617-4.347-7.414-7.23-12.883-7.23c-0.585,0-3.646-0.074-4.665-0.074h-14.051v30.897h14.273
		C649.352,425.912,652.109,425.527,654.563,424.773z"/>
	<rect x="652.471" y="585.383" fill="#FFFFFF" width="95.006" height="10.939"/>
	<rect x="946.753" y="529.899" fill="#FFFFFF" width="16.527" height="10.053"/>
	<rect x="906.305" y="529.899" fill="#FFFFFF" width="16.513" height="9.373"/>
	<rect x="906.305" y="554.958" fill="#FFFFFF" width="16.513" height="10.2"/>
	<rect x="946.753" y="554.958" fill="#FFFFFF" width="16.527" height="10.2"/>
	<path fill="#FFFFFF" d="M651.709,375.515c0.724-0.222,1.367-0.502,2.018-0.813c0.023-0.015,0.023-0.015,0.044-0.015
		c0.917-0.488,1.738-1.034,2.528-1.685l0.023-0.045c0.021,0,0.037-0.029,0.037-0.029c2.912-2.469,4.775-6.121,4.775-10.215
		c0-7.481-6.031-13.498-13.483-13.498c-0.28,0-3.769-0.178-5.499-0.178h-10.192v27.852h11.435
		C646.587,376.889,649.308,376.401,651.709,375.515z"/>
	<path fill="#FFFFFF" d="M758.307,350.057c-9.417,0-16.809,3.489-22.219,10.481c-5.382,6.978-8.116,16.011-8.116,27.114
		c0,10.984,2.654,19.928,7.953,26.862c5.278,6.992,12.537,10.467,21.747,10.467c9.402,0,16.734-3.326,21.946-9.994
		c5.233-6.683,7.879-15.641,7.879-26.893c0-11.722-2.565-21.006-7.658-27.807C774.738,353.458,767.59,350.057,758.307,350.057z"/>
	<path fill="#FFFFFF" d="M837.354,526.56c0,0-0.066,0.029-0.066,0.072v19.544c0,0.045,0.036,0.06,0.036,0.06h11.177
		c0.015,0,0.036-0.015,0.036-0.06v-19.544c0-0.043-0.021-0.072-0.036-0.072H837.354z"/>
	<path fill="#FFFFFF" d="M837.354,566.281l-0.066,0.06V585.5l0.066,0.074h11.146c0.015,0,0.036-0.029,0.036-0.029v-19.204
		c0,0-0.021-0.06-0.036-0.06H837.354z"/>
	<path fill="#FFFFFF" d="M1012.672,244.843H587.298c-23.424,0-42.443,19.025-42.443,42.458v425.368
		c0,23.433,19.02,42.488,42.443,42.488h425.374c23.425,0,42.474-19.056,42.474-42.488V287.301
		C1055.146,263.869,1036.097,244.843,1012.672,244.843z M838.168,337.936c7.967-5.767,18.523-8.664,31.658-8.664
		c10.333,0,19.063,1.227,26.307,3.755c0.858,0.28,1.42,1.095,1.42,2.01v17.016c0,1.73-1.862,2.824-3.341,1.966
		c-6.793-3.784-14.548-5.632-23.211-5.632c-5.905,0-10.644,1.035-14.184,3.237c-0.792,0.488-1.538,1.095-2.204,1.745
		c-0.11,0.089-0.178,0.208-0.273,0.311c-0.34,0.325-0.62,0.694-0.923,1.063c-0.067,0.104-0.118,0.179-0.17,0.252
		c-0.326,0.488-0.613,1.035-0.844,1.581c-0.029,0.03-0.029,0.075-0.029,0.075c-0.281,0.576-0.436,1.109-0.562,1.715
		c0,0.059-0.016,0.118-0.016,0.162c-0.118,0.547-0.185,1.094-0.206,1.686c0,0.029,0.021,0.073,0.021,0.133
		c0,0-0.021,0.073-0.021,0.132c0,2.1,0.687,4.052,1.781,5.692c0.496,0.74,1.087,1.464,1.759,2.188
		c2.425,2.455,8.427,5.751,17.97,9.92c11.198,4.82,18.894,9.875,23.107,15.197c4.205,5.337,6.282,11.695,6.282,19.057
		c0,10.821-3.813,19.056-11.494,24.763c-7.637,5.632-18.532,8.471-32.642,8.471c-12.189,0-22.309-1.848-30.344-5.559
		c-0.843-0.399-1.382-1.242-1.382-2.172V419.91c0-1.804,2.003-2.839,3.467-1.804c8.211,5.736,17.348,8.633,27.46,8.633
		c6.542,0,11.479-1.124,14.777-3.4c3.296-2.248,4.93-5.13,4.93-8.692c0-3.046-1.316-5.943-3.918-8.664
		c-2.639-2.706-9.528-6.387-20.749-11.043c-17.593-7.481-26.411-18.333-26.411-32.584
		C826.185,351.891,830.184,343.745,838.168,337.936z M950.286,509.69h25.465l0,0h0.073c3.925,0,7.119,3.179,7.119,7.081v61.959
		c0,1.92-1.583,3.503-3.534,3.503h-89.456c-1.936,0-3.495-1.583-3.495-3.503v-62.018c0-3.858,3.156-7.022,7.037-7.022H919.3
		c1.937,0,3.518-1.597,3.518-3.504v-8.013c0-1.921,1.582-3.518,3.519-3.518h16.913c1.966,0,3.504,1.597,3.504,3.518v8.013
		C946.753,508.094,948.342,509.69,950.286,509.69z M607.95,333.367c0-1.198,0.998-2.217,2.24-2.217h37.78
		c12.277,0,21.708,2.32,28.361,6.962c6.638,4.671,9.979,11.118,9.979,19.367c0,6.105-2.085,11.457-6.173,16.07
		c-4.131,4.597-9.312,7.791-15.573,9.55v0.267c7.834,0.99,14.186,3.887,18.996,8.751c4.827,4.834,7.259,10.925,7.259,18.257
		c0,10.216-3.667,18.346-10.903,24.393c-7.281,6.017-17.23,9.048-29.854,9.048H610.19c-1.242,0-2.24-0.991-2.24-2.233V333.367z
		 M791.437,666.839c0,1.938-1.568,3.52-3.503,3.52H611.468c-1.936,0-3.518-1.582-3.518-3.504v-13.23c0-1.938,1.583-3.49,3.518-3.49
		h15.974V542.776c0-2.188,1.775-3.947,3.947-3.947h55.972v-12.24h-71.968c-1.966,0-3.532-1.584-3.532-3.563v-13.128
		c0-1.951,1.566-3.533,3.532-3.533h70.295h1.672v-9.003c0-1.908,1.5-3.444,3.43-3.444h18.198c1.892,0,3.43,1.536,3.43,3.444v9.003
		h71.981c1.938,0,3.534,1.566,3.534,3.503v13.202c0,1.936-1.597,3.52-3.534,3.52h-71.981v12.24h55.948
		c2.181,0,3.94,1.759,3.94,3.947v107.357h15.561c1.966,0,3.57,1.611,3.57,3.594V666.839z M757.235,445.767
		c-16.158,0-29.286-5.277-39.361-15.878c-10.097-10.6-15.131-24.215-15.131-40.921c0-17.651,5.152-32.006,15.47-43.079
		c10.305-11.103,23.913-16.616,40.818-16.616c16.128,0,29.079,5.352,38.873,16.069c9.838,10.704,14.731,24.467,14.731,41.291
		c0,17.578-5.1,31.815-15.285,42.739C787.127,440.311,773.755,445.767,757.235,445.767z M886.331,623.272
		c-0.294,4.761-0.59,8.752-0.826,13.631c-0.09,1.61-1.279,2.986-2.861,3.268c-2.957,0.575-5.921,1.123-8.938,1.685l-0.036,0.073
		v25.251c0,1.966-1.59,3.533-3.585,3.533h-14.548c-1.995,0-3.599-1.567-3.599-3.533v-21.156c0,0-0.023-0.059-0.038-0.043
		c-11.938,2.261-24.525,4.672-37.83,7.259c-1.885,0.385-3.771-0.872-4.125-2.795l-2.603-14.28c-0.362-1.922,0.917-3.785,2.861-4.095
		c0.591-0.104,1.235-0.222,1.981-0.312l0.052-0.058V526.632c0-0.043-0.03-0.072-0.075-0.072c-1.995,0-3.621-1.612-3.621-3.638
		v-12.95c0-1.996,1.626-3.607,3.621-3.607h65.507c1.974,0,3.606,1.611,3.606,3.592v13.011c0,1.98-1.633,3.593-3.591,3.593h-3.979
		c0,0-0.036,0.029-0.036,0.072v94.497c0,0.029,0.022,0.06,0.074,0.06c2.705-0.576,5.477-1.14,8.315-1.686
		C884.351,619.029,886.502,620.937,886.331,623.272z M991.694,606.315c0,1.937-1.552,3.519-3.518,3.519h-59.615l-1.22,7.406h49.613
		c2.018,0,3.606,1.687,3.534,3.726l-0.74,16.47h-0.059c-0.178,4.021-0.399,8.264-0.666,12.891
		c-1.241,15.08-10.688,19.308-28.354,20.298h-33.646c-1.597,0-3.003-1.108-3.379-2.661c-1.501-6.104-2.779-11.043-3.777-14.739
		c-0.636-2.319,1.197-4.598,3.556-4.523c11.509,0.384,22.168,0.518,32.044,0.414c6.297,0,9.253-2.868,9.615-8.53
		c0.185-2.262,0.023,0.06,0.185-3.148h-42.782v-0.016h-11.258c-2.277,0-3.97-2.085-3.52-4.287l4.665-23.299h-19.854
		c-1.958,0-3.548-1.597-3.548-3.578v-13.142c0-1.937,1.538-3.488,3.519-3.488h105.673c1.937,0,3.533,1.552,3.533,3.532V606.315z
		 M980.548,437.296c-7.674,5.632-18.554,8.471-32.643,8.471c-12.232,0-22.323-1.848-30.365-5.559
		c-0.813-0.399-1.375-1.242-1.375-2.172V419.91c0-1.804,2.019-2.839,3.475-1.804c8.205,5.736,17.327,8.633,27.423,8.633
		c6.557,0,11.502-1.124,14.784-3.4c3.297-2.248,4.967-5.13,4.967-8.692c0-3.046-1.345-5.943-3.955-8.664
		c-2.623-2.706-9.558-6.387-20.733-11.043c-17.578-7.481-26.396-18.333-26.396-32.584c0-10.465,3.969-18.612,11.945-24.421
		c7.998-5.767,18.561-8.664,31.688-8.664c10.311,0,19.093,1.227,26.3,3.755c0.82,0.28,1.42,1.095,1.42,2.01v17.016
		c0,1.73-1.863,2.824-3.35,1.966c-6.778-3.784-14.524-5.632-23.174-5.632c-5.942,0-10.681,1.035-14.222,3.237
		c-0.798,0.488-1.515,1.095-2.188,1.745c-0.103,0.089-0.2,0.208-0.281,0.311c-0.34,0.325-0.635,0.694-0.916,1.063
		c-0.037,0.104-0.133,0.179-0.206,0.252c-0.312,0.488-0.6,1.035-0.813,1.581c-0.016,0.03-0.016,0.075-0.016,0.075
		c-0.244,0.576-0.443,1.109-0.547,1.715c-0.023,0.059-0.023,0.118-0.088,0.162c-0.053,0.547-0.156,1.094-0.156,1.686
		c0,0.029,0,0.073,0,0.133c0,0-0.022,0.073-0.022,0.132c0,2.1,0.695,4.052,1.834,5.692c0.465,0.74,1.034,1.464,1.729,2.188
		c2.409,2.455,8.412,5.751,17.97,9.92c11.183,4.82,18.907,9.875,23.114,15.197c4.168,5.337,6.268,11.695,6.268,19.057
		C992.02,423.354,988.205,431.589,980.548,437.296z"/>
	<path fill="#FFFFFF" d="M837.354,605.607l-0.066,0.072v21.761l0.081,0.046c3.592-0.548,7.317-1.168,11.132-1.848
		c0.015,0,0.036,0,0.036,0V605.68c0,0-0.021-0.072-0.036-0.072H837.354z"/>
</g>
</svg>
