<?xml version="1.0" encoding="utf-8"?>
<!-- Generator: Adobe Illustrator 16.0.0, SVG Export Plug-In . SVG Version: 6.00 Build 0)  -->
<!DOCTYPE svg PUBLIC "-//W3C//DTD SVG 1.1//EN" "http://www.w3.org/Graphics/SVG/1.1/DTD/svg11.dtd">
<svg version="1.1" id="Layer_1" xmlns="http://www.w3.org/2000/svg" xmlns:xlink="http://www.w3.org/1999/xlink" x="0px" y="0px"
	 width="500px" height="500px" viewBox="0 0 500 500" enable-background="new 0 0 500 500" xml:space="preserve">
<g>
	<path fill="#FFFFFF" d="M344.259,215.808H306.34c-0.486,0-0.887,0.4-0.887,0.891v3.58c0,0.49,0.4,0.891,0.887,0.891h37.919
		c0.489,0,0.888-0.4,0.888-0.891v-3.58C345.146,216.208,344.747,215.808,344.259,215.808"/>
	<path fill="#FFFFFF" d="M416.398,265.915h-15.61v-35.821h12.687c0.488,0,0.888-0.401,0.888-0.89v-3.73
		c0-0.49-0.399-0.891-0.888-0.891h-12.687v-10.684c0-0.49-0.399-0.891-0.887-0.891h-3.569c-0.489,0-0.888,0.4-0.888,0.891v10.684
		h-12.686c-0.489,0-0.888,0.4-0.888,0.891v3.73c0,0.488,0.398,0.89,0.888,0.89h12.686v35.821h-15.61
		c-0.486,0-0.887,0.401-0.887,0.891v3.73c0,0.49,0.4,0.891,0.887,0.891h36.564c0.487,0,0.887-0.401,0.887-0.891v-3.73
		C417.285,266.316,416.886,265.915,416.398,265.915"/>
	<path fill="#FFFFFF" d="M289.784,236.575h-3.568c-0.488,0-0.887,0.402-0.887,0.891v18.661c0,0.491,0.399,0.891,0.887,0.891h3.568
		c0.489,0,0.888-0.399,0.888-0.891v-18.661C290.673,236.978,290.273,236.575,289.784,236.575"/>
	<path fill="#FFFFFF" d="M304.677,236.575h-3.569c-0.488,0-0.887,0.402-0.887,0.891v6.173c0,0.489,0.399,0.891,0.887,0.891h3.569
		c0.489,0,0.887-0.401,0.887-0.891v-6.173C305.563,236.978,305.166,236.575,304.677,236.575"/>
	<path fill="#FFFFFF" d="M218.375,261.914h-3.569c-0.489,0-0.887,0.4-0.887,0.89v7.732c0,0.49,0.398,0.891,0.887,0.891h3.569
		c0.488,0,0.887-0.401,0.887-0.891v-7.732C219.261,262.314,218.863,261.914,218.375,261.914"/>
	<path fill="#FFFFFF" d="M238.1,261.914h-3.568c-0.489,0-0.887,0.4-0.887,0.89v7.732c0,0.49,0.398,0.891,0.887,0.891h3.568
		c0.489,0,0.887-0.401,0.887-0.891v-7.732C238.987,262.314,238.588,261.914,238.1,261.914"/>
	<path fill="#FFFFFF" d="M227.855,225.349h-2.805c-0.488,0-0.887,0.399-0.887,0.891v2.837h-10.279c-0.488,0-0.887,0.401-0.887,0.89
		v3.581c0,0.489,0.399,0.892,0.887,0.892h25.136c0.487,0,0.887-0.402,0.887-0.892v-3.581c0-0.488-0.399-0.89-0.887-0.89h-10.278
		v-2.837C228.742,225.749,228.344,225.349,227.855,225.349"/>
	<path fill="#FFFFFF" d="M218.295,235.886c-0.488,0-0.887,0.401-0.887,0.891v2.194c0,0.49,0.399,0.892,0.887,0.892h3.569
		c0.488,0,0.887-0.401,0.887-0.892v-2.194c0-0.489-0.399-0.891-0.887-0.891H218.295z"/>
	<path fill="#FFFFFF" d="M231.041,235.886c-0.487,0-0.887,0.401-0.887,0.891v2.194c0,0.49,0.4,0.892,0.887,0.892h3.57
		c0.487,0,0.887-0.401,0.887-0.892v-2.194c0-0.489-0.399-0.891-0.887-0.891H231.041z"/>
	<path fill="#FFFFFF" d="M297.595,224.6h-3.569h-8.191c-0.487,0-0.887,0.401-0.887,0.89v3.581c0,0.489,0.399,0.891,0.887,0.891
		h7.305v40.575c0,0.49,0.399,0.892,0.887,0.892h3.569c0.488,0,0.886-0.401,0.886-0.892V229.07v-3.581
		C298.481,225.001,298.083,224.6,297.595,224.6"/>
	<path fill="#FFFFFF" d="M240.137,241.576h-27.368c-0.489,0-0.887,0.4-0.887,0.892v3.581c0,0.489,0.398,0.89,0.887,0.89h27.368
		c0.489,0,0.887-0.4,0.887-0.89v-3.581C241.023,241.977,240.625,241.576,240.137,241.576"/>
	<path fill="#FFFFFF" d="M239.021,251.77h-9.897v-2.61c0-0.49-0.398-0.89-0.887-0.89h-3.568c-0.489,0-0.888,0.399-0.888,0.89v2.61
		h-9.896c-0.488,0-0.887,0.401-0.887,0.891v3.58c0,0.489,0.399,0.892,0.887,0.892h9.896v13.134c0,0.49,0.399,0.892,0.888,0.892
		h3.568c0.489,0,0.887-0.401,0.887-0.892v-13.134h9.897c0.488,0,0.887-0.402,0.887-0.892v-3.58
		C239.908,252.171,239.509,251.77,239.021,251.77"/>
	<path fill="#FFFFFF" d="M265.572,215.808h-13.018V213.9c0-0.489-0.399-0.892-0.887-0.892H248.1c-0.489,0-0.889,0.401-0.889,0.892
		v1.907h-15.84V213.9c0-0.489-0.401-0.892-0.887-0.892h-3.568c-0.489,0-0.889,0.401-0.889,0.892v1.907H212.08
		c-0.488,0-0.887,0.4-0.887,0.891v3.58c0,0.49,0.399,0.891,0.887,0.891h13.946v1.907c0,0.49,0.4,0.891,0.889,0.891h3.568
		c0.486,0,0.887-0.4,0.887-0.891v-1.907h15.84v1.907c0,0.49,0.399,0.891,0.889,0.891h3.568c0.487,0,0.887-0.4,0.887-0.891v-1.907
		h13.018c0.489,0,0.887-0.4,0.887-0.891v-3.58C266.459,216.208,266.062,215.808,265.572,215.808"/>
	<path fill="#FFFFFF" d="M265.572,240.682h-15.308v-6.243h15.263c0.488,0,0.887-0.401,0.887-0.892v-3.581
		c0-0.488-0.398-0.889-0.887-0.889h-16.149h-3.188h-0.382c-0.488,0-0.887,0.4-0.887,0.889v40.571c0,0.489,0.398,0.89,0.887,0.89
		h3.568c0.487,0,0.887-0.401,0.887-0.89v-24.494h8.838v24.494c0,0.489,0.4,0.89,0.889,0.89h3.568c0.488,0,0.888-0.401,0.888-0.89
		v-24.494h1.126c0.489,0,0.886-0.4,0.886-0.889v-3.581C266.459,241.083,266.062,240.682,265.572,240.682"/>
	<path fill="#FFFFFF" d="M366.263,236.575h-3.569c-0.488,0-0.888,0.402-0.888,0.891v18.661c0,0.491,0.399,0.891,0.888,0.891h3.569
		c0.488,0,0.887-0.399,0.887-0.891v-18.661C367.149,236.978,366.751,236.575,366.263,236.575"/>
	<path fill="#FFFFFF" d="M382.042,243.638v-6.171c0-0.49-0.399-0.892-0.887-0.892h-3.569c-0.488,0-0.888,0.401-0.888,0.892v6.171
		c0,0.489,0.399,0.891,0.888,0.891h3.569C381.643,244.528,382.042,244.127,382.042,243.638"/>
	<path fill="#FFFFFF" d="M374.16,213.009h-3.567c-0.489,0-0.887,0.401-0.887,0.892v6.378c0,0.49,0.397,0.891,0.887,0.891h3.567
		c0.489,0,0.889-0.4,0.889-0.891V213.9C375.049,213.41,374.649,213.009,374.16,213.009"/>
	<path fill="#FFFFFF" d="M297.595,213.009h-3.569c-0.488,0-0.887,0.401-0.887,0.892v6.378c0,0.49,0.399,0.891,0.887,0.891h3.569
		c0.488,0,0.886-0.4,0.886-0.891V213.9C298.481,213.41,298.083,213.009,297.595,213.009"/>
	<path fill="#FFFFFF" d="M374.071,224.6h-3.568h-7.429c-0.486,0-0.887,0.401-0.887,0.89v3.581c0,0.489,0.4,0.891,0.887,0.891h6.541
		v40.575c0,0.49,0.399,0.892,0.888,0.892h3.568c0.489,0,0.887-0.401,0.887-0.892V229.07v-3.581
		C374.959,225.001,374.561,224.6,374.071,224.6"/>
	<path fill="#FFFFFF" d="M341.593,240.547c0.419,0,0.762-0.346,0.762-0.767v-14.408c0-0.422-0.343-0.768-0.762-0.768h-32.586
		c-0.418,0-0.762,0.346-0.762,0.768v14.408c0,0.421,0.344,0.767,0.762,0.767H341.593z M313.589,230.916
		c0-0.42,0.343-0.765,0.764-0.765h21.896c0.42,0,0.764,0.345,0.764,0.765v3.503c0,0.421-0.344,0.766-0.764,0.766h-21.896
		c-0.421,0-0.764-0.345-0.764-0.766V230.916z"/>
	<path fill="#FFFFFF" d="M343.61,245.489h-36.622c-0.42,0-0.764,0.344-0.764,0.765v24.407c0,0.421,0.344,0.766,0.764,0.766h36.622
		c0.421,0,0.764-0.345,0.764-0.766v-24.407C344.374,245.833,344.031,245.489,343.61,245.489 M322.628,266.065h-10.297
		c-0.418,0-0.762-0.345-0.762-0.766v-4.161h11.059V266.065z M322.628,255.777h-11.059v-4.127c0-0.421,0.344-0.766,0.762-0.766
		h10.297V255.777z M339.031,265.3c0,0.421-0.344,0.766-0.765,0.766h-10.296v-4.927h11.061V265.3z M339.031,255.777h-11.061v-4.893
		h10.296c0.421,0,0.765,0.345,0.765,0.765V255.777z"/>
	<path fill="#FFFFFF" d="M276.731,240.921c-1.478,0-2.675,1.202-2.675,2.686c0,1.481,1.197,2.682,2.675,2.682
		c1.479,0,2.676-1.201,2.676-2.682C279.407,242.122,278.21,240.921,276.731,240.921"/>
	<path fill="#FFFFFF" d="M353.748,240.921c-1.479,0-2.676,1.202-2.676,2.686c0,1.481,1.197,2.682,2.676,2.682
		c1.478,0,2.675-1.201,2.675-2.682C356.423,242.122,355.226,240.921,353.748,240.921"/>
	<polygon fill="#FFFFFF" points="211.74,285.559 214.614,285.559 219.967,291.852 225.209,285.559 228.086,285.559 221.313,293.488 
		228.631,302.126 225.72,302.126 219.821,295.157 214.033,302.126 211.193,302.126 218.474,293.52 	"/>
	<path fill="#FFFFFF" d="M233.182,282.444h-2.294v-3.242h2.294V282.444z M233.182,302.125h-2.294v-16.567h2.294V302.125z"/>
	<path fill="#FFFFFF" d="M239.844,285.559v2.857h0.073c0.437-1.005,1.213-1.813,2.329-2.424c1.117-0.61,2.343-0.915,3.678-0.915
		c1.312,0,2.408,0.15,3.296,0.45c0.885,0.299,1.595,0.722,2.128,1.268c0.534,0.545,0.911,1.215,1.13,2.006
		c0.218,0.792,0.327,1.681,0.327,2.666v10.659h-2.294v-10.339c0-0.706-0.072-1.364-0.219-1.975c-0.146-0.609-0.4-1.141-0.764-1.589
		c-0.365-0.449-0.856-0.803-1.476-1.06s-1.389-0.386-2.312-0.386c-0.922,0-1.742,0.145-2.458,0.434
		c-0.715,0.289-1.322,0.687-1.82,1.188c-0.498,0.504-0.887,1.103-1.165,1.798c-0.28,0.695-0.431,1.45-0.456,2.264v9.664h-2.293
		v-16.567H239.844L239.844,285.559z"/>
	<path fill="#FFFFFF" d="M260.668,287.26v14.864h-2.293V287.26h-3.204v-1.702h3.204v-1.509c0-0.707,0.059-1.357,0.182-1.957
		c0.121-0.6,0.352-1.113,0.692-1.541c0.34-0.429,0.807-0.759,1.401-0.995c0.593-0.236,1.352-0.354,2.276-0.354
		c0.338,0,0.654,0.011,0.944,0.031c0.291,0.021,0.619,0.055,0.984,0.098v1.733c-0.316-0.043-0.607-0.081-0.875-0.113
		c-0.268-0.031-0.533-0.048-0.8-0.048c-0.631,0-1.116,0.085-1.456,0.256c-0.341,0.172-0.589,0.402-0.747,0.691
		s-0.249,0.627-0.273,1.012c-0.023,0.386-0.035,0.802-0.035,1.252v1.444h3.713v1.702L260.668,287.26L260.668,287.26z"/>
	<path fill="#FFFFFF" d="M279.671,302.125v-2.986h-0.072c-0.605,1.113-1.487,1.965-2.64,2.553c-1.151,0.589-2.434,0.884-3.842,0.884
		c-1.188,0-2.202-0.146-3.038-0.435c-0.838-0.287-1.518-0.7-2.039-1.235c-0.522-0.535-0.906-1.188-1.147-1.958
		c-0.243-0.771-0.364-1.649-0.364-2.634v-10.755h2.294v10.788c0.049,1.498,0.442,2.631,1.183,3.403
		c0.74,0.771,2.021,1.155,3.842,1.155c0.996,0,1.845-0.188,2.549-0.562c0.702-0.373,1.285-0.871,1.747-1.493
		c0.461-0.62,0.801-1.331,1.02-2.134c0.218-0.803,0.328-1.622,0.328-2.457v-8.7h2.293v16.566H279.671L279.671,302.125z"/>
	<path fill="#FFFFFF" d="M296.928,288.785c-0.267-0.461-0.626-0.84-1.074-1.14c-0.449-0.299-0.965-0.519-1.547-0.659
		c-0.582-0.138-1.201-0.208-1.857-0.208c-0.51,0-1.025,0.048-1.548,0.146c-0.521,0.095-1,0.256-1.437,0.48
		c-0.438,0.225-0.789,0.52-1.056,0.884c-0.268,0.363-0.401,0.812-0.401,1.349c0,0.448,0.127,0.83,0.382,1.139
		c0.255,0.311,0.577,0.574,0.965,0.787c0.389,0.214,0.813,0.391,1.274,0.529c0.461,0.141,0.886,0.252,1.274,0.337l3.058,0.61
		c0.657,0.085,1.304,0.24,1.948,0.465c0.644,0.226,1.214,0.52,1.711,0.884c0.497,0.363,0.904,0.813,1.22,1.348
		c0.315,0.535,0.474,1.168,0.474,1.895c0,0.898-0.23,1.664-0.691,2.296c-0.462,0.632-1.052,1.145-1.767,1.54
		c-0.717,0.396-1.522,0.681-2.42,0.852c-0.899,0.172-1.785,0.258-2.658,0.258c-2.209,0-3.999-0.461-5.369-1.382
		c-1.372-0.921-2.155-2.396-2.349-4.43h2.293c0.099,1.369,0.661,2.401,1.692,3.098c1.033,0.696,2.312,1.044,3.841,1.044
		c0.559,0,1.135-0.054,1.729-0.161c0.595-0.105,1.147-0.289,1.657-0.546c0.509-0.257,0.928-0.584,1.256-0.979
		c0.327-0.396,0.491-0.882,0.491-1.46c0-0.492-0.115-0.904-0.347-1.236c-0.231-0.331-0.54-0.609-0.928-0.835
		c-0.389-0.225-0.832-0.412-1.329-0.562c-0.498-0.15-1.001-0.278-1.51-0.385l-2.949-0.579c-0.752-0.171-1.445-0.368-2.076-0.593
		c-0.631-0.226-1.182-0.503-1.656-0.835c-0.474-0.332-0.843-0.738-1.11-1.22c-0.267-0.481-0.4-1.076-0.4-1.782
		c0-0.834,0.212-1.552,0.638-2.149c0.424-0.601,0.976-1.082,1.655-1.445c0.681-0.364,1.438-0.632,2.275-0.803
		c0.838-0.172,1.668-0.258,2.494-0.258c0.947,0,1.826,0.107,2.64,0.321c0.814,0.215,1.529,0.547,2.147,0.995
		c0.619,0.45,1.11,1.007,1.476,1.67c0.363,0.664,0.568,1.445,0.618,2.344h-2.293C297.34,289.786,297.195,289.245,296.928,288.785"/>
	<path fill="#FFFFFF" d="M305.883,279.202v9.214h0.072c0.438-1.005,1.214-1.813,2.33-2.424c1.117-0.611,2.343-0.915,3.678-0.915
		c1.311,0,2.407,0.15,3.295,0.45c0.885,0.299,1.595,0.722,2.129,1.268c0.533,0.546,0.911,1.215,1.128,2.006
		c0.219,0.793,0.328,1.682,0.328,2.666v10.658h-2.294v-10.338c0-0.706-0.071-1.364-0.218-1.975
		c-0.146-0.609-0.401-1.141-0.764-1.589c-0.364-0.449-0.857-0.803-1.476-1.06s-1.39-0.386-2.312-0.386s-1.741,0.145-2.456,0.434
		c-0.716,0.289-1.323,0.687-1.821,1.188c-0.498,0.504-0.886,1.104-1.164,1.798c-0.278,0.695-0.432,1.45-0.456,2.264v9.663h-2.292
		v-22.923H305.883z"/>
	<path fill="#FFFFFF" d="M324.869,296.65c0.23,0.782,0.6,1.482,1.109,2.103c0.509,0.621,1.153,1.136,1.93,1.542
		c0.776,0.407,1.712,0.61,2.804,0.61c1.674,0,2.986-0.386,3.932-1.156c0.947-0.771,1.602-1.798,1.966-3.082h2.294
		c-0.486,1.884-1.378,3.338-2.676,4.366c-1.299,1.026-3.137,1.54-5.516,1.54c-1.48,0-2.762-0.229-3.842-0.689
		c-1.079-0.46-1.959-1.092-2.64-1.894c-0.679-0.803-1.183-1.734-1.51-2.794c-0.328-1.059-0.492-2.178-0.492-3.354
		c0-1.091,0.164-2.162,0.492-3.211c0.327-1.049,0.831-1.984,1.51-2.809c0.681-0.824,1.561-1.487,2.64-1.991
		c1.08-0.503,2.361-0.753,3.842-0.753c1.504,0,2.791,0.266,3.858,0.801c1.068,0.535,1.937,1.236,2.604,2.103
		c0.666,0.867,1.146,1.862,1.438,2.986c0.292,1.125,0.413,2.264,0.365,3.419h-14.454C324.521,295.115,324.638,295.87,324.869,296.65
		 M336.228,290.471c-0.28-0.707-0.674-1.332-1.183-1.879c-0.512-0.546-1.129-0.983-1.858-1.316
		c-0.727-0.331-1.553-0.497-2.475-0.497c-0.946,0-1.784,0.166-2.513,0.497c-0.729,0.333-1.347,0.771-1.855,1.316
		c-0.51,0.547-0.918,1.179-1.221,1.896c-0.304,0.717-0.503,1.448-0.602,2.198h12.161
		C336.658,291.916,336.507,291.177,336.228,290.471"/>
	<rect x="343.417" y="298.723" fill="#FFFFFF" width="3.06" height="3.402"/>
	<path fill="#FFFFFF" d="M363.696,287.839c-0.851-0.707-2.039-1.06-3.567-1.06c-1.094,0-2.053,0.203-2.877,0.608
		c-0.826,0.407-1.512,0.943-2.057,1.606c-0.547,0.663-0.96,1.417-1.238,2.264c-0.279,0.846-0.419,1.706-0.419,2.582
		c0,0.88,0.14,1.741,0.419,2.586c0.278,0.847,0.691,1.601,1.238,2.263c0.545,0.664,1.23,1.2,2.057,1.606
		c0.824,0.406,1.783,0.61,2.877,0.61c0.702,0,1.369-0.118,2.001-0.354c0.63-0.236,1.189-0.562,1.674-0.98
		c0.486-0.417,0.887-0.914,1.203-1.491c0.314-0.578,0.51-1.21,0.582-1.896h2.294c-0.315,2.013-1.153,3.58-2.512,4.705
		c-1.359,1.123-3.107,1.684-5.242,1.684c-1.434,0-2.702-0.229-3.805-0.69c-1.106-0.46-2.034-1.085-2.786-1.877
		c-0.753-0.792-1.323-1.718-1.711-2.777c-0.389-1.06-0.583-2.188-0.583-3.389c0-1.196,0.194-2.325,0.583-3.386
		c0.388-1.059,0.958-1.985,1.711-2.776c0.752-0.792,1.68-1.423,2.786-1.895c1.103-0.47,2.371-0.707,3.805-0.707
		c2.013,0,3.717,0.472,5.115,1.413c1.395,0.941,2.226,2.365,2.492,4.271h-2.294C365.127,289.52,364.545,288.545,363.696,287.839"/>
	<path fill="#FFFFFF" d="M382.826,285.783c1.104,0.472,2.033,1.103,2.785,1.895c0.752,0.791,1.323,1.718,1.712,2.776
		c0.389,1.061,0.582,2.188,0.582,3.388c0,1.198-0.193,2.327-0.582,3.387s-0.96,1.984-1.712,2.777
		c-0.752,0.792-1.681,1.418-2.785,1.879c-1.104,0.46-2.372,0.688-3.805,0.688c-1.432,0-2.698-0.229-3.804-0.688
		c-1.104-0.461-2.032-1.087-2.784-1.879c-0.752-0.793-1.324-1.718-1.711-2.777c-0.39-1.06-0.583-2.188-0.583-3.387
		c0-1.199,0.193-2.327,0.583-3.388c0.387-1.059,0.959-1.985,1.711-2.776c0.752-0.792,1.68-1.423,2.784-1.895
		c1.105-0.471,2.372-0.707,3.804-0.707C380.454,285.077,381.722,285.312,382.826,285.783 M376.146,287.389
		c-0.825,0.406-1.512,0.942-2.058,1.605s-0.959,1.419-1.237,2.264c-0.279,0.845-0.418,1.706-0.418,2.584s0.139,1.738,0.418,2.584
		c0.278,0.847,0.691,1.601,1.237,2.264s1.232,1.199,2.058,1.605c0.824,0.406,1.783,0.609,2.875,0.609
		c1.094,0,2.052-0.203,2.877-0.609s1.512-0.942,2.057-1.605c0.546-0.663,0.96-1.418,1.237-2.264
		c0.279-0.846,0.419-1.706,0.419-2.584s-0.14-1.739-0.419-2.584c-0.277-0.846-0.691-1.601-1.237-2.264
		c-0.545-0.663-1.231-1.199-2.057-1.605s-1.783-0.61-2.877-0.61C377.93,286.778,376.971,286.982,376.146,287.389"/>
	<path fill="#FFFFFF" d="M393.438,285.559v2.794h0.109c0.607-1.027,1.402-1.83,2.385-2.407c0.983-0.58,2.239-0.868,3.769-0.868
		c1.237,0,2.359,0.268,3.367,0.804c1.008,0.533,1.681,1.347,2.021,2.439c0.559-1.092,1.384-1.905,2.476-2.439
		c1.092-0.536,2.257-0.804,3.495-0.804c4.151,0,6.226,1.938,6.226,5.811v11.238h-2.294v-11.143c0-1.368-0.327-2.412-0.982-3.128
		c-0.655-0.718-1.808-1.076-3.459-1.076c-0.995,0-1.819,0.166-2.477,0.497c-0.655,0.333-1.177,0.776-1.564,1.334
		c-0.389,0.556-0.66,1.191-0.819,1.909c-0.157,0.717-0.236,1.461-0.236,2.232v9.375h-2.293v-11.239c0-0.555-0.067-1.086-0.201-1.588
		c-0.134-0.504-0.352-0.942-0.654-1.316c-0.304-0.375-0.711-0.669-1.22-0.883c-0.51-0.214-1.129-0.322-1.857-0.322
		c-0.97,0-1.815,0.156-2.53,0.466c-0.716,0.31-1.299,0.739-1.747,1.285c-0.449,0.545-0.782,1.187-1.001,1.926
		c-0.22,0.737-0.327,1.546-0.327,2.424v9.247h-2.294v-16.567H393.438z"/>
	<path fill="#FFFFFF" d="M105.822,214.122c-0.116,0.113-0.234,0.226-0.348,0.342c-0.083,0.086-0.161,0.174-0.241,0.261
		c-0.108,0.114-0.218,0.23-0.322,0.349c-0.081,0.091-0.157,0.184-0.236,0.275c-0.102,0.119-0.203,0.239-0.3,0.36
		c-0.077,0.096-0.15,0.192-0.225,0.29c-0.096,0.123-0.191,0.246-0.283,0.371c-0.073,0.101-0.144,0.203-0.214,0.304
		c-0.09,0.127-0.179,0.255-0.265,0.385c-0.069,0.103-0.135,0.209-0.202,0.314c-0.084,0.132-0.167,0.265-0.249,0.398
		c-0.064,0.108-0.128,0.216-0.19,0.324c-0.079,0.137-0.157,0.274-0.232,0.415c-0.06,0.108-0.12,0.22-0.178,0.33
		c-0.074,0.144-0.146,0.287-0.218,0.433c-0.056,0.111-0.109,0.225-0.164,0.339c-0.069,0.146-0.137,0.298-0.204,0.447
		c-0.05,0.114-0.101,0.229-0.15,0.347c-0.064,0.153-0.127,0.309-0.189,0.465c-0.045,0.115-0.091,0.232-0.135,0.351
		c-0.062,0.161-0.119,0.323-0.176,0.485c-0.041,0.116-0.082,0.233-0.124,0.351c-0.055,0.168-0.108,0.339-0.162,0.51
		c-0.035,0.116-0.073,0.231-0.108,0.35c-0.052,0.179-0.102,0.358-0.15,0.538c-0.031,0.113-0.063,0.227-0.092,0.341
		c-0.049,0.19-0.094,0.385-0.14,0.579c-0.025,0.107-0.051,0.213-0.075,0.319c-0.048,0.212-0.09,0.426-0.132,0.641
		c-0.019,0.093-0.039,0.186-0.056,0.279c-0.047,0.25-0.09,0.503-0.131,0.758c-0.008,0.061-0.021,0.12-0.029,0.182
		c-0.101,0.643-0.181,1.295-0.243,1.962c-0.002,0.021-0.003,0.043-0.005,0.062c-0.028,0.31-0.053,0.619-0.074,0.934
		c-0.005,0.081-0.007,0.161-0.013,0.241c-0.015,0.258-0.029,0.515-0.039,0.773c-0.004,0.104-0.006,0.211-0.009,0.315
		c-0.008,0.238-0.014,0.476-0.016,0.715c-0.002,0.119-0.002,0.24-0.002,0.36c0,0.229,0,0.456,0.002,0.688
		c0.002,0.128,0.006,0.257,0.008,0.388c0.006,0.224,0.011,0.448,0.02,0.675c0.005,0.136,0.012,0.271,0.019,0.409
		c0.01,0.222,0.021,0.445,0.036,0.669c0.008,0.142,0.019,0.282,0.028,0.424c0.015,0.223,0.032,0.446,0.052,0.67
		c0.012,0.145,0.024,0.289,0.039,0.436c0.021,0.226,0.043,0.449,0.067,0.675c0.015,0.146,0.032,0.294,0.049,0.442
		c0.025,0.226,0.056,0.452,0.083,0.681c0.019,0.148,0.039,0.298,0.06,0.449c0.03,0.229,0.063,0.457,0.098,0.687
		c0.023,0.151,0.046,0.304,0.071,0.455c0.037,0.23,0.074,0.464,0.114,0.696c0.026,0.153,0.053,0.304,0.079,0.457
		c0.042,0.236,0.087,0.472,0.132,0.709c0.029,0.151,0.058,0.304,0.088,0.455c0.047,0.24,0.099,0.481,0.15,0.724
		c0.031,0.151,0.063,0.302,0.095,0.452c0.054,0.247,0.111,0.494,0.168,0.743c0.034,0.147,0.068,0.294,0.104,0.443
		c0.059,0.255,0.124,0.512,0.188,0.77c0.035,0.141,0.07,0.283,0.107,0.426c0.069,0.27,0.141,0.538,0.214,0.809
		c0.036,0.133,0.069,0.265,0.107,0.396c0.08,0.289,0.163,0.581,0.248,0.872c0.033,0.115,0.064,0.229,0.098,0.342
		c0.099,0.336,0.202,0.674,0.306,1.012c0.021,0.07,0.042,0.139,0.065,0.21c0.259,0.829,0.534,1.663,0.826,2.502
		c0.012,0.03,0.023,0.061,0.033,0.09c0.134,0.384,0.271,0.77,0.414,1.155c0.04,0.107,0.081,0.216,0.121,0.324
		c0.114,0.308,0.229,0.615,0.348,0.926c0.054,0.14,0.111,0.282,0.165,0.423c0.109,0.276,0.217,0.555,0.329,0.833
		c0.062,0.158,0.129,0.316,0.194,0.476c0.106,0.262,0.214,0.524,0.324,0.786c0.07,0.169,0.142,0.336,0.214,0.505
		c0.109,0.255,0.216,0.509,0.328,0.763c0.077,0.175,0.154,0.351,0.233,0.525c0.109,0.248,0.221,0.498,0.333,0.747
		c0.082,0.18,0.166,0.36,0.249,0.542c0.112,0.243,0.226,0.488,0.341,0.732c0.086,0.185,0.174,0.37,0.263,0.554
		c0.116,0.242,0.231,0.484,0.35,0.726c0.092,0.188,0.185,0.376,0.279,0.563c0.118,0.24,0.238,0.479,0.36,0.72
		c0.095,0.19,0.191,0.379,0.289,0.569c0.122,0.238,0.246,0.477,0.371,0.715c0.1,0.193,0.201,0.384,0.303,0.576
		c0.125,0.236,0.254,0.475,0.382,0.712c0.104,0.192,0.208,0.386,0.314,0.579c0.13,0.235,0.261,0.473,0.394,0.709
		c0.107,0.194,0.216,0.389,0.327,0.582c0.134,0.236,0.269,0.473,0.404,0.708c0.112,0.194,0.224,0.389,0.337,0.582
		c0.138,0.237,0.278,0.475,0.418,0.711c0.115,0.193,0.23,0.387,0.346,0.58c0.143,0.239,0.291,0.477,0.436,0.716
		c0.116,0.191,0.233,0.382,0.351,0.574c0.15,0.241,0.303,0.482,0.455,0.725c0.119,0.188,0.236,0.376,0.356,0.562
		c0.158,0.248,0.32,0.496,0.48,0.745c0.118,0.181,0.232,0.361,0.353,0.541c0.168,0.261,0.344,0.519,0.515,0.776
		c0.113,0.17,0.227,0.341,0.34,0.511c0.205,0.302,0.414,0.606,0.622,0.908c0.086,0.124,0.169,0.248,0.255,0.373
		c0.293,0.422,0.59,0.845,0.891,1.266c0.113,0.159,0.229,0.314,0.342,0.473c0.192,0.268,0.383,0.534,0.578,0.8
		c0.137,0.186,0.275,0.369,0.411,0.555c0.177,0.238,0.354,0.477,0.532,0.715c0.146,0.193,0.295,0.388,0.443,0.582
		c0.144,0.188,0.289,0.38,0.436,0.569c-1.935-6.727,0.167-14.079,5.619-18.723c5.478-4.667,13.017-5.479,19.223-2.327
		l-38.508-46.592c-0.015,0.014-0.03,0.025-0.044,0.039C105.984,213.961,105.904,214.042,105.822,214.122"/>
	<path fill="#FFFFFF" d="M151.341,240.66c5.443-4.637,12.923-5.467,19.106-2.382l-0.216-0.262c-0.04-0.044-0.08-0.089-0.119-0.133
		c-0.278-0.312-0.558-0.622-0.838-0.929c-0.093-0.104-0.187-0.206-0.28-0.306c-0.246-0.269-0.492-0.534-0.738-0.799
		c-0.142-0.151-0.285-0.303-0.426-0.453c-0.2-0.212-0.401-0.424-0.601-0.634c-0.208-0.217-0.416-0.431-0.625-0.646
		c-0.138-0.141-0.274-0.283-0.412-0.423c-0.306-0.311-0.612-0.619-0.918-0.924c-0.042-0.044-0.084-0.087-0.127-0.13
		c-13.037-12.954-27.431-21.227-39.463-23.267c-0.024-0.006-0.05-0.009-0.075-0.013c-0.302-0.053-0.602-0.098-0.9-0.141
		c-0.047-0.006-0.096-0.014-0.144-0.021c-0.274-0.037-0.547-0.071-0.819-0.104c-0.068-0.008-0.136-0.016-0.203-0.024
		c-0.249-0.026-0.497-0.049-0.743-0.07c-0.086-0.009-0.173-0.016-0.26-0.024c-0.224-0.017-0.443-0.031-0.666-0.043
		c-0.106-0.007-0.212-0.015-0.318-0.02c-0.192-0.01-0.381-0.014-0.572-0.02c-0.13-0.005-0.263-0.011-0.393-0.013
		c-0.128-0.002-0.255,0-0.382-0.001c-0.756-0.002-1.501,0.021-2.229,0.08c-0.033,0.001-0.067,0.004-0.1,0.007
		c-0.234,0.02-0.467,0.043-0.699,0.068c-0.063,0.007-0.125,0.012-0.187,0.02c-0.217,0.025-0.433,0.055-0.648,0.088
		c-0.073,0.01-0.148,0.02-0.221,0.031c-0.206,0.032-0.409,0.067-0.611,0.104c-0.083,0.015-0.165,0.028-0.247,0.045
		c-0.194,0.038-0.385,0.078-0.577,0.122c-0.088,0.02-0.177,0.039-0.266,0.06c-0.184,0.043-0.366,0.09-0.547,0.138
		c-0.094,0.025-0.188,0.05-0.28,0.074c-0.173,0.049-0.347,0.101-0.518,0.154c-0.098,0.029-0.196,0.06-0.293,0.092
		c-0.165,0.053-0.328,0.108-0.49,0.167c-0.103,0.036-0.206,0.073-0.307,0.11c-0.154,0.059-0.309,0.117-0.461,0.181
		c-0.107,0.042-0.213,0.087-0.319,0.131c-0.145,0.062-0.291,0.126-0.433,0.19c-0.111,0.051-0.223,0.104-0.332,0.156
		c-0.134,0.064-0.27,0.13-0.403,0.198c-0.116,0.06-0.231,0.12-0.346,0.184c-0.124,0.065-0.248,0.133-0.371,0.203
		c-0.121,0.069-0.241,0.14-0.36,0.213c-0.114,0.068-0.227,0.135-0.339,0.207c-0.127,0.08-0.252,0.165-0.378,0.249
		c-0.101,0.067-0.202,0.135-0.302,0.204c-0.135,0.096-0.268,0.193-0.4,0.293c-0.087,0.064-0.177,0.128-0.261,0.194
		c-0.017,0.012-0.032,0.025-0.049,0.037l38.509,46.594C143.767,252.725,145.863,245.327,151.341,240.66"/>
	<path fill="#FFFFFF" d="M171.71,237.45c-2.014-6.772,0.078-14.207,5.573-18.889c5.127-4.369,12.226-5.316,18.2-2.788
		c-22.423-21.359-56.252-24.3-81.866-7.62c2.021-0.526,4.195-0.79,6.5-0.79c4.293,0,9.043,0.917,14.119,2.752
		c0.018,0.007,0.035,0.014,0.053,0.02c0.344,0.124,0.69,0.253,1.036,0.387c0.034,0.013,0.066,0.025,0.101,0.037
		c0.011,0.006,0.022,0.01,0.033,0.014c0.31,0.12,0.622,0.244,0.933,0.37c0.073,0.03,0.148,0.059,0.222,0.089
		c0.062,0.025,0.123,0.05,0.185,0.075c0.241,0.101,0.483,0.204,0.726,0.309c0.076,0.032,0.15,0.062,0.226,0.096
		c0.32,0.138,0.641,0.28,0.961,0.424c0.056,0.025,0.111,0.049,0.166,0.074C150.15,217.126,161.647,226.037,171.71,237.45"/>
	<path fill="#FFFFFF" d="M93.59,302.573c-1.417-6.413,0.738-13.343,5.865-17.712c5.496-4.683,13.07-5.482,19.291-2.29
		c-0.266-0.343-0.526-0.687-0.786-1.028c-0.037-0.049-0.074-0.096-0.109-0.144c-0.32-0.422-0.636-0.847-0.948-1.271
		c-0.051-0.066-0.098-0.136-0.147-0.203c-0.258-0.351-0.514-0.7-0.766-1.054c-0.102-0.14-0.2-0.282-0.301-0.424
		c-0.199-0.279-0.396-0.56-0.593-0.84c-0.115-0.166-0.229-0.332-0.343-0.497c-0.178-0.257-0.355-0.513-0.529-0.77
		c-0.123-0.181-0.242-0.36-0.364-0.539c-0.164-0.245-0.329-0.49-0.492-0.736c-0.122-0.185-0.243-0.372-0.367-0.559
		c-0.156-0.239-0.312-0.478-0.467-0.719c-0.124-0.191-0.246-0.384-0.367-0.575c-0.149-0.236-0.298-0.469-0.445-0.704
		c-0.123-0.196-0.245-0.394-0.365-0.59c-0.144-0.232-0.287-0.465-0.428-0.698c-0.121-0.197-0.24-0.396-0.359-0.594
		c-0.139-0.231-0.276-0.464-0.412-0.695c-0.119-0.198-0.236-0.399-0.351-0.599c-0.136-0.231-0.269-0.464-0.402-0.694
		c-0.114-0.199-0.229-0.4-0.341-0.601c-0.132-0.232-0.26-0.466-0.39-0.698c-0.111-0.199-0.221-0.398-0.331-0.598
		c-0.128-0.234-0.255-0.471-0.381-0.706c-0.105-0.198-0.213-0.394-0.315-0.589c-0.129-0.243-0.255-0.488-0.38-0.731
		c-0.099-0.188-0.198-0.377-0.294-0.565c-0.135-0.264-0.267-0.527-0.398-0.79c-0.084-0.17-0.171-0.338-0.255-0.508
		c-0.21-0.426-0.417-0.851-0.62-1.275c-0.069-0.145-0.134-0.289-0.202-0.433c-0.136-0.288-0.272-0.575-0.404-0.863
		c-0.084-0.186-0.167-0.372-0.251-0.557c-0.112-0.246-0.224-0.492-0.332-0.738c-0.088-0.197-0.172-0.396-0.259-0.593
		c-0.101-0.234-0.202-0.468-0.302-0.701c-0.084-0.202-0.169-0.402-0.251-0.604c-0.096-0.23-0.192-0.461-0.286-0.689
		c-0.083-0.203-0.163-0.405-0.244-0.608c-0.09-0.229-0.18-0.455-0.27-0.682c-0.079-0.204-0.156-0.408-0.234-0.61
		c-0.086-0.227-0.17-0.453-0.255-0.68c-0.077-0.203-0.15-0.407-0.223-0.61c-0.082-0.224-0.164-0.45-0.242-0.675
		c-0.073-0.203-0.143-0.405-0.212-0.606c-0.078-0.229-0.155-0.454-0.23-0.681c-0.068-0.199-0.134-0.398-0.199-0.599
		c-0.075-0.229-0.147-0.456-0.219-0.684c-0.062-0.197-0.125-0.393-0.185-0.591c-0.071-0.23-0.14-0.461-0.208-0.691
		c-0.058-0.191-0.116-0.385-0.17-0.576c-0.069-0.237-0.135-0.473-0.2-0.708c-0.051-0.186-0.104-0.371-0.154-0.556
		c-0.068-0.247-0.131-0.492-0.194-0.74c-0.046-0.172-0.092-0.346-0.135-0.518c-0.068-0.274-0.134-0.546-0.198-0.82
		c-0.035-0.144-0.071-0.286-0.104-0.431c-0.097-0.415-0.189-0.831-0.278-1.245c-0.111-0.529-0.214-1.054-0.311-1.574
		c-0.028-0.152-0.055-0.302-0.082-0.452c-0.07-0.395-0.136-0.788-0.198-1.178c-0.023-0.138-0.045-0.274-0.065-0.413
		c-0.077-0.507-0.147-1.009-0.209-1.506c-0.009-0.081-0.017-0.16-0.027-0.239c-0.051-0.423-0.096-0.843-0.135-1.259
		c-0.014-0.146-0.026-0.294-0.039-0.44c-0.033-0.386-0.062-0.767-0.087-1.147c-0.006-0.108-0.014-0.219-0.021-0.327
		c-0.026-0.475-0.045-0.945-0.058-1.41c-0.001-0.109-0.003-0.219-0.006-0.327c-0.005-0.364-0.008-0.728-0.005-1.088
		c0.002-0.138,0.002-0.273,0.005-0.411c0.006-0.391,0.018-0.779,0.036-1.161c0.004-0.066,0.004-0.134,0.008-0.198
		c0.023-0.444,0.054-0.879,0.091-1.312c0.01-0.119,0.023-0.235,0.034-0.352c0.031-0.329,0.067-0.654,0.107-0.977
		c0.014-0.123,0.03-0.244,0.046-0.365c0.058-0.42,0.119-0.835,0.191-1.243c0.002-0.013,0.004-0.025,0.007-0.038
		c0.069-0.396,0.149-0.786,0.231-1.171c0.027-0.118,0.053-0.232,0.081-0.349c0.068-0.3,0.142-0.598,0.22-0.892
		c0.028-0.103,0.053-0.206,0.082-0.309c0.105-0.379,0.215-0.753,0.335-1.122c0.021-0.063,0.045-0.126,0.066-0.19
		c0.102-0.308,0.21-0.61,0.322-0.908c0.042-0.109,0.083-0.218,0.125-0.326c0.11-0.279,0.226-0.555,0.343-0.829
		c0.025-0.058,0.047-0.118,0.074-0.176C79.785,242.112,76.765,276.445,93.59,302.573"/>
	<path fill="#FFFFFF" d="M151.438,264.621c-0.649-0.784-1.813-0.888-2.586-0.229l-0.002,0.002c-0.774,0.659-0.876,1.841-0.228,2.625
		l18.458,22.333l2.815-2.399L151.438,264.621z"/>
	<path fill="#FFFFFF" d="M179.21,301.107L179.21,301.107c-1.708,1.454-4.275,1.228-5.707-0.505l-4.752-5.749
		c-1.423-1.723-1.2-4.315,0.499-5.761c1.707-1.455,4.275-1.228,5.707,0.505l4.751,5.748
		C181.132,297.068,180.907,299.662,179.21,301.107"/>
</g>
</svg>
