<?xml version="1.0" encoding="utf-8"?>
<!-- Generator: Adobe Illustrator 16.0.0, SVG Export Plug-In . SVG Version: 6.00 Build 0)  -->
<!DOCTYPE svg PUBLIC "-//W3C//DTD SVG 1.1//EN" "http://www.w3.org/Graphics/SVG/1.1/DTD/svg11.dtd">
<svg version="1.1" id="Layer_1" xmlns="http://www.w3.org/2000/svg" xmlns:xlink="http://www.w3.org/1999/xlink" x="0px" y="0px"
	 width="500px" height="500px" viewBox="0 0 500 500" enable-background="new 0 0 500 500" xml:space="preserve">
<g>
	<path fill="#FFFFFF" d="M308.791,265.641c-0.203,0.203-0.35,0.454-0.427,0.731c-7.163,25.499-30.607,44.255-58.364,44.255
		c-14.126,0-27.14-4.86-37.457-12.991c-0.685-0.541-1.659-0.498-2.274,0.119l-17.449,17.45c-0.707,0.706-0.67,1.874,0.094,2.519
		c15.419,13.013,35.33,20.871,57.087,20.871c48.93,0,88.596-39.665,88.596-88.594c0-3.271-0.181-6.502-0.528-9.681
		c-0.158-1.434-1.907-2.051-2.925-1.031L308.791,265.641z"/>
	<path fill="#FFFFFF" d="M191.208,234.36c0.204-0.202,0.35-0.455,0.426-0.732c7.163-25.498,30.607-44.252,58.365-44.252
		c14.127,0,27.138,4.857,37.456,12.99c0.686,0.54,1.659,0.497,2.275-0.121l17.449-17.448c0.707-0.708,0.669-1.877-0.094-2.521
		c-15.421-13.013-35.331-20.871-57.088-20.871c-48.93,0-88.595,39.666-88.595,88.597c0,3.271,0.181,6.501,0.529,9.681
		c0.157,1.433,1.905,2.05,2.924,1.03L191.208,234.36z"/>
	<path fill="#FFFFFF" d="M236.333,278.469l34.078,5.883c0.552,0.096,1.115-0.084,1.512-0.479l79.319-79.32
		c0.324-0.323,0.506-0.762,0.506-1.22v-39.96c0-1.535-1.856-2.305-2.942-1.219L235.407,275.551
		C234.418,276.539,234.955,278.231,236.333,278.469z"/>
	<path fill="#FFFFFF" d="M263.667,221.523l-34.077-5.882c-0.553-0.096-1.117,0.083-1.513,0.479l-79.32,79.321
		c-0.323,0.322-0.504,0.762-0.504,1.217v39.962c0,1.538,1.857,2.306,2.942,1.221l113.397-113.399
		C265.582,223.454,265.045,221.761,263.667,221.523z"/>
</g>
</svg>
