<?xml version="1.0" encoding="utf-8"?>
<!-- Generator: Adobe Illustrator 16.0.0, SVG Export Plug-In . SVG Version: 6.00 Build 0)  -->
<!DOCTYPE svg PUBLIC "-//W3C//DTD SVG 1.1//EN" "http://www.w3.org/Graphics/SVG/1.1/DTD/svg11.dtd">
<svg version="1.1" id="Layer_1" xmlns="http://www.w3.org/2000/svg" xmlns:xlink="http://www.w3.org/1999/xlink" x="0px" y="0px"
	 width="500px" height="500px" viewBox="0 0 500 500" enable-background="new 0 0 500 500" xml:space="preserve">
<g>
	<path fill="#FFFFFF" d="M354.994,248.485c-1.837-3.78-7.817-10.877-15.299-10.526c-5.243,0.25-11.589,6.968-11.889,9.348
		c-0.298,2.379-0.464,3.282-0.464,4.934c0,43.877-35.575,79.444-79.454,79.444c-43.879,0-79.444-35.569-79.444-79.444
		c0-43.88,35.565-79.446,79.444-79.446c1.158,0,1.024-0.194,3.453-0.854c2.431-0.664,6.793-2.019,9.699-10.218
		c2.909-8.206-5.839-15.4-9.252-16.267c-3.42-0.866-2.598-0.7-3.9-0.7c-59.362,0-107.487,48.122-107.487,107.487
		s48.125,107.493,107.487,107.493c59.367,0,107.488-48.128,107.488-107.493C355.377,250.984,355.023,249.687,354.994,248.485"/>
	<path fill="#FFFFFF" d="M300.507,199.215c0,0-0.312,39.002-0.312,54.52c0,29.769-24.136,53.902-53.899,53.902
		c-29.77,0-53.904-24.134-53.904-53.902c0-29.768,24.134-53.894,53.904-53.894C260.541,199.841,300.507,199.215,300.507,199.215"/>
	<path fill="#FFFFFF" d="M292.401,166.706c-0.262-0.066-5.911,0.83-7.162,4.365c-1.243,3.53,1.139,8.72,5.088,10.178
		c23.472,4.777,27.632,26.173,30.119,32.399c2.911,2.908,5.4,2.493,6.854,2.493c1.451,0,4.156-1.453,6.024-4.78
		C336.438,194.54,312.346,168.577,292.401,166.706"/>
	<path fill="#FFFFFF" d="M292.853,140.265c-0.264-0.041-5.743,2.037-6.577,5.57c-0.832,3.533,1.753,8.783,5.815,9.864
		c23.814,2.575,50.269,24.302,53.179,57.121c3.732,4.571,7.537,4.004,8.981,3.863c1.451-0.131,3.797-2.453,5.348-5.935
		C359.599,167.333,315.934,141.104,292.853,140.265"/>
</g>
</svg>
