<?xml version="1.0" encoding="utf-8"?>
<!-- Generator: Adobe Illustrator 16.0.0, SVG Export Plug-In . SVG Version: 6.00 Build 0)  -->
<!DOCTYPE svg PUBLIC "-//W3C//DTD SVG 1.1//EN" "http://www.w3.org/Graphics/SVG/1.1/DTD/svg11.dtd">
<svg version="1.1" id="Layer_1" xmlns="http://www.w3.org/2000/svg" xmlns:xlink="http://www.w3.org/1999/xlink" x="0px" y="0px"
	 width="500px" height="500px" viewBox="0 0 500 500" enable-background="new 0 0 500 500" xml:space="preserve">
<g>
	<path fill="#FFFFFF" d="M139.787,235.208l1.879-10.162H98.11c-13.751,0-26.96,11.148-29.504,24.899
		c-2.542,13.75,6.543,24.897,20.294,24.897h21.118l1.88-10.161H94.306c-8.139,0-13.516-6.598-12.011-14.736
		s9.323-14.737,17.461-14.737H139.787L139.787,235.208z"/>
	<path fill="#FFFFFF" d="M172.059,225.009l-36.103,31.161l2.943-15.913h-13.537l-4.985,26.966c-0.793,4.289,2.042,7.768,6.332,7.766
		c2.095,0,4.259-0.85,5.998-2.352l43.283-37.373h15.497l-7.347,39.727h13.593l7.347-39.727h16.449l1.889-10.217L172.059,225.009z"/>
	<path fill="#FFFFFF" d="M253.745,231.619h-11.213c-11.228,0-22.014,9.102-24.089,20.331c-2.076,11.228,5.342,20.331,16.57,20.331
		h11.212c11.229,0,22.013-9.104,24.089-20.331C272.391,240.72,264.973,231.619,253.745,231.619 M248.243,262.853h-11.76
		c-6.021,0-9.999-4.883-8.886-10.904c1.115-6.021,6.897-10.902,12.92-10.902h11.758c6.022,0,10,4.88,8.888,10.902
		C260.049,257.97,254.264,262.853,248.243,262.853"/>
	<path fill="#FFFFFF" d="M368.905,240.94l1.724-9.321h-22.852c-11.199,0-21.956,9.077-24.028,20.275
		c-2.069,11.201,5.33,20.278,16.529,20.278h22.853l1.724-9.32h-22.929c-6.05,0-10.049-4.906-8.931-10.958
		c1.121-6.049,6.933-10.955,12.983-10.955L368.905,240.94L368.905,240.94z"/>
	<polygon fill="#FFFFFF" points="407.125,231.619 404.316,246.807 381.211,246.807 384.021,231.619 374.856,231.619 367.336,272.28 
		376.501,272.28 379.469,256.233 402.573,256.233 399.604,272.28 408.77,272.28 416.289,231.619 	"/>
	<path fill="#FFFFFF" d="M313.334,231.619l-4.348,23.511c-0.789,4.266-4.886,7.723-9.151,7.723h-11.501
		c-4.265,0-7.083-3.457-6.295-7.723l4.348-23.511h-9.12l-4.42,23.895c-1.711,9.262,4.405,16.767,13.664,16.767h11.661
		c9.258,0,18.151-7.505,19.863-16.767l4.419-23.895H313.334z"/>
	<path fill="#FFFFFF" d="M418.818,232.864c0-1.8,0.633-3.33,1.898-4.59c1.267-1.261,2.805-1.891,4.614-1.891
		c1.795,0,3.325,0.63,4.59,1.891c1.266,1.26,1.899,2.79,1.899,4.59c0,1.799-0.634,3.331-1.899,4.59
		c-1.265,1.261-2.798,1.891-4.599,1.891c-1.814,0-3.354-0.629-4.614-1.891C419.448,236.194,418.818,234.663,418.818,232.864
		 M419.627,232.864c0,1.586,0.557,2.931,1.667,4.034c1.111,1.103,2.454,1.654,4.029,1.654c1.583,0,2.924-0.553,4.03-1.658
		c1.105-1.105,1.658-2.449,1.658-4.03c0-1.58-0.554-2.925-1.662-4.034c-1.11-1.108-2.45-1.663-4.026-1.663
		c-1.575,0-2.918,0.554-4.029,1.66C420.184,229.932,419.627,231.277,419.627,232.864 M428.496,236.901h-1.49l-0.865-1.979
		c-0.214-0.48-0.438-0.841-0.673-1.082c-0.234-0.24-0.482-0.36-0.745-0.36h-0.744v3.42h-1.228v-8.219h2.373
		c0.95,0,1.692,0.198,2.227,0.593c0.535,0.395,0.802,0.947,0.802,1.657c0,0.566-0.182,1.048-0.545,1.441
		c-0.364,0.397-0.873,0.66-1.53,0.794c0.229,0.063,0.46,0.223,0.69,0.477c0.228,0.254,0.449,0.605,0.663,1.052L428.496,236.901z
		 M423.979,229.724v2.732h1.21c0.544,0,0.953-0.116,1.229-0.345c0.274-0.229,0.412-0.575,0.412-1.034
		c0-0.485-0.147-0.833-0.443-1.041c-0.297-0.209-0.766-0.312-1.406-0.312L423.979,229.724L423.979,229.724z"/>
</g>
</svg>
