<?xml version="1.0" encoding="utf-8"?>
<!-- Generator: Adobe Illustrator 16.0.0, SVG Export Plug-In . SVG Version: 6.00 Build 0)  -->
<!DOCTYPE svg PUBLIC "-//W3C//DTD SVG 1.1//EN" "http://www.w3.org/Graphics/SVG/1.1/DTD/svg11.dtd">
<svg version="1.1" id="Layer_1" xmlns="http://www.w3.org/2000/svg" xmlns:xlink="http://www.w3.org/1999/xlink" x="0px" y="0px"
	 width="500px" height="500px" viewBox="0 0 500 500" enable-background="new 0 0 500 500" xml:space="preserve">
<path fill="#FFFFFF" d="M333.203,136.681H166.796c-17.041,0-30.856,13.814-30.856,30.856v164.926
	c0,17.04,13.815,30.856,30.856,30.856h166.407c17.042,0,30.857-13.816,30.857-30.856V167.537
	C364.061,150.496,350.245,136.681,333.203,136.681z M295.184,215.652h9.567v-4.023c0-2.543-0.091-5.637-0.276-9.282l7.175,3.507
	c0.43,0.208,0.646,0.447,0.646,0.722c0,0.277-0.246,0.688-0.735,1.237l-1.473,1.343v6.497h11.962v-4.643
	c0-2.749-0.092-5.912-0.277-9.488l7.545,4.436c0.676,0.345,1.012,0.705,1.012,1.083s-0.308,0.772-0.919,1.186l-1.656,1.135v6.292
	h8.741l4.417-6.189l5.703,7.221c0.43,0.411,0.644,0.809,0.644,1.185c0,0.381-0.458,0.569-1.379,0.569h-18.126l0.277,3.506
	c0,0.621-0.77,1.342-2.302,2.165c-1.535,0.827-2.607,1.239-3.22,1.239c-0.615,0-0.859-1.065-0.737-3.198
	c0.122-1.03,0.185-2.268,0.185-3.712h-11.869l0.369,4.332c0,0.894-0.737,1.735-2.209,2.526c-1.471,0.792-2.516,1.185-3.13,1.185
	s-0.827-0.909-0.642-2.732c0.185-1.82,0.275-3.593,0.275-5.311h-7.638c-2.454,0-4.541,0.377-6.257,1.134l-3.312-4.436
	C289.876,215.48,292.422,215.652,295.184,215.652z M297.481,232.361c0,2.683-0.537,4.898-1.608,6.653
	c-1.075,1.752-2.164,2.63-3.267,2.63c-1.105,0-2.059-0.413-2.852-1.238c-0.8-0.825-1.196-1.615-1.196-2.372
	c0-1.238,0.748-2.476,2.252-3.713c1.505-1.238,2.531-2.631,3.084-4.178c0.552-1.547,0.921-3.729,1.102-6.55h1.658l0.344,2.626
	c0.084,0.844,0.201,2.063,0.306,3.26c0.017,0.165,0.048,0.316,0.09,0.461C297.45,230.812,297.481,231.621,297.481,232.361z
	 M218.372,202.972c2.749-0.057,4.739,0.537,5.972,1.784c1.232,1.246,2.002,2.662,2.311,4.244c0.305,1.582-0.299,3.122-1.814,4.62
	c-0.587,0.58-1.196,0.748-1.826,0.5c-0.633-0.246-1.406-0.784-2.325-1.619c-3.723-3.471-7.895-5.438-12.509-5.904l-0.648-1.535
	C212.012,203.726,215.624,203.029,218.372,202.972z M204.505,218.373h32.632l4.126-4.848l7.324,7.221
	c0.755,0.824,1.135,1.46,1.135,1.908c0,0.447-0.929,0.722-2.785,0.825c-1.856,0.103-3.801,0.823-5.829,2.166
	c-2.027,1.34-5.105,4.213-9.23,8.611l-1.442-0.928l6.807-12.068h-32.735L204.505,218.373L204.505,218.373z M193.559,227.914
	c1.408-1.685,2.56-3.9,3.455-6.653c0.893-2.749,1.307-5.533,1.238-8.354h1.443c0.756,2.544,1.236,4.367,1.444,5.467h0.056
	c0.182,0.678,0.433,1.741,0.584,2.887h-0.021c0.206,1.239,0.309,2.308,0.309,3.198c0,2.545-0.739,4.951-2.218,7.22
	c-1.48,2.271-3.282,3.404-5.414,3.404c-0.825,0-1.532-0.258-2.116-0.773c-0.584-0.515-0.876-1.289-0.876-2.32
	C191.444,230.957,192.147,229.601,193.559,227.914z M195.952,256.24c-0.857,1.134-1.649,1.702-2.37,1.702
	c-0.723,0-1.237-0.173-1.548-0.518c-0.309-0.343-0.637-1.063-0.98-2.165c-0.963-3.368-3.196-6.841-6.703-10.418v28.365
	c0,6.809,0.052,11.74,0.155,14.804c0.103,3.058,0.154,4.691,0.154,4.897c0,1.237-1.015,2.475-3.044,3.714
	c-2.028,1.236-3.422,1.855-4.177,1.855c-0.758,0-1.135-0.895-1.135-2.682l0.619-10.108c0.206-4.472,0.31-9.42,0.31-14.854v-26.609
	c-5.402,15.267-14.551,19.694-23.551,27.219l-1.032-1.033c11.065-11.954,21.1-24.938,23.654-41.761h-5.467
	c-2.888,0-5.226,0.377-7.014,1.134l-3.611-4.539c2.545,0.414,5.399,0.619,8.563,0.619h8.457v-7.015c0-5.5-0.138-11.275-0.414-17.328
	l9.388,5.055c0.758,0.346,1.136,0.688,1.136,1.031c0,0.345-0.378,0.759-1.136,1.238l-1.856,1.03v15.988v2.786v13.924
	c3.851,1.031,6.962,2.493,9.334,4.384c2.372,1.893,3.561,3.628,3.561,5.21C197.245,253.747,196.812,255.104,195.952,256.24z
	 M224.451,242.624v42.136c0,3.301-0.295,5.688-0.876,7.168c-0.587,1.477-2.049,2.939-4.386,4.384
	c-2.338,1.441-3.885,2.166-4.641,2.166c-0.757,0-1.186-0.725-1.29-2.166c-0.102-1.444-1.03-2.718-2.785-3.815
	c-1.751-1.101-5.001-2.234-9.745-3.405l0.308-1.443c5.021,0.55,8.63,0.824,10.832,0.824c2.198,0,3.643-0.224,4.331-0.67
	c0.687-0.448,1.031-1.151,1.031-2.114v-43.063h-15.884c-2.888,0-5.228,0.346-7.014,1.031l-3.609-4.538
	c2.61,0.412,5.466,0.619,8.56,0.619h35.688l6.087-7.428l6.6,8.045c0.479,0.689,0.723,1.238,0.723,1.651
	c0,0.412-0.481,0.619-1.444,0.619H224.451z M276.422,296.622c-2.029,1.236-3.424,1.855-4.178,1.855
	c-0.759,0-1.134-0.895-1.134-2.682l0.617-10.108c0.206-4.472,0.311-9.42,0.311-14.854v-26.609
	c-5.402,15.267-14.553,19.694-23.553,27.219l-1.03-1.033c11.065-11.954,21.1-24.938,23.655-41.761h-5.468
	c-2.889,0-5.226,0.377-7.015,1.134l-3.609-4.539c2.543,0.414,5.398,0.619,8.562,0.619h8.458v-7.015c0-5.5-0.138-11.275-0.411-17.328
	l9.383,5.055c0.757,0.346,1.137,0.688,1.137,1.031c0,0.345-0.38,0.759-1.137,1.238l-1.854,1.03v15.988v2.786v13.924
	c3.85,1.031,6.961,2.493,9.333,4.384c2.374,1.893,3.559,3.628,3.559,5.21c0,1.581-0.429,2.938-1.29,4.074
	c-0.859,1.134-1.649,1.702-2.371,1.702s-1.236-0.173-1.546-0.518c-0.309-0.343-0.637-1.064-0.979-2.165
	c-0.964-3.368-3.198-6.842-6.706-10.419v28.366c0,6.809,0.052,11.739,0.156,14.802c0.103,3.059,0.154,4.693,0.154,4.899
	C279.465,294.146,278.449,295.383,276.422,296.622z M340.884,276.071c0,0-2.355-0.743-6.278-2.12
	c-5.492-1.929-9.609-4.311-12.594-6.434c1.209,3.29,1.821,6.766,1.821,10.434c0,4.676-0.538,8.132-1.609,10.367
	c-1.074,2.233-2.853,4.245-5.336,6.032c-2.485,1.787-4.248,2.684-5.289,2.684c-0.432,0-0.738-0.758-0.922-2.271
	c-0.184-1.514-0.815-2.769-1.886-3.764c-1.074-0.997-3.267-2.082-6.58-3.248l0.277-1.445c4.538,0.757,7.727,1.135,9.568,1.135
	c1.84,0,3.127-0.378,3.864-1.135c0.736-0.759,1.38-2.168,1.933-4.229c0.551-2.062,0.828-4.178,0.828-6.345
	c0-2.165-0.124-3.937-0.368-5.311c-9.264,9.42-20.336,16.504-33.216,21.248l-0.552-1.651c11.898-6.257,22.602-14.507,32.111-24.756
	c-0.367-0.961-0.951-2.164-1.748-3.607c-5.95,6.945-14.724,12.891-26.313,17.844l-0.921-1.446
	c9.2-5.499,17.326-12.308,24.382-20.421c-0.677-0.755-1.228-1.341-1.657-1.753c-7.054,4.264-13.495,7.254-19.321,8.973l-0.736-1.34
	c7.114-3.921,14.597-8.732,22.451-14.441h-10.858c-2.576,0-4.662,0.378-6.257,1.134l-3.312-4.436
	c2.266,0.347,4.815,0.518,7.636,0.518h34.503l4.879-6.294l5.612,7.428c0.427,0.619,0.645,1.05,0.645,1.289
	c0,0.243-0.431,0.36-1.291,0.36h-23.462c-2.575,1.858-5.337,3.68-8.279,5.468c3.128,2.544,5.549,5.329,7.269,8.354
	c6.562-3.644,11.623-7.633,15.181-11.964l4.326,5.981c0.366,0.549,0.549,0.979,0.549,1.289c0,0.309-0.428,0.498-1.286,0.568
	c-2.577,0.344-6.472,1.513-11.686,3.507l-1.748,0.618c-0.922,0.413-2.362,1.067-4.325,1.96c0.021,0.04,0.036,0.083,0.057,0.124
	c2.822,0.99,7.183,2.135,13.66,2.924c10.445,1.273,12.044,0.248,12.044,0.248L340.884,276.071z M345.327,231.64
	c-1.349,0.069-2.715,0.464-4.095,1.188c-1.064,0.556-2.636,1.638-4.704,3.238l1.684,1.969c0.477,0.619,0.723,1.067,0.723,1.341
	c0,0.275-0.483,0.413-1.445,0.413h-24.858c-2.886,0-5.226,0.344-7.013,1.031l-3.818-4.435c2.612,0.411,5.468,0.618,8.562,0.618
	h17.844l4.537-5.363l2.466,2.883l2.481-4.637h-37.658v-2.784H336.4l3.498-4.848l6.347,6.601c0.736,0.824,1.104,1.479,1.104,1.96
	S346.676,231.571,345.327,231.64z"/>
</svg>
