<?xml version="1.0" encoding="utf-8"?>
<!-- Generator: Adobe Illustrator 16.0.0, SVG Export Plug-In . SVG Version: 6.00 Build 0)  -->
<!DOCTYPE svg PUBLIC "-//W3C//DTD SVG 1.1//EN" "http://www.w3.org/Graphics/SVG/1.1/DTD/svg11.dtd">
<svg version="1.1" id="Layer_1" xmlns="http://www.w3.org/2000/svg" xmlns:xlink="http://www.w3.org/1999/xlink" x="0px" y="0px"
	 width="500px" height="500px" viewBox="0 0 500 500" enable-background="new 0 0 500 500" xml:space="preserve">
<g>
	<path fill="#FFFFFF" d="M269.904,275.106h63.795v-10.065h10.358v10.065h63.646v9.473h-52.1
		c17.268,12.185,36.46,20.424,57.577,24.716c-2.665,4.147-4.986,7.798-6.958,10.954c-24.077-6.956-44.8-17.981-62.166-33.081v34.711
		h-10.358V287.02c-17.959,14.999-38.682,26.174-62.166,33.528c-2.071-3.061-4.394-6.171-6.956-9.326
		c21.215-5.183,40.259-14.062,57.132-26.643h-51.805V275.106z M335.476,180.525l8.733-5.328c4.636,5.134,8.437,10.164,11.396,15.096
		l-6.81,4.294h56.691v9.177h-56.098v10.508h49.583v8.585h-49.583v10.509h49.583v8.585h-49.583v10.803h56.54v9.18H298.027
		l-10.422,0.152l0.061-47.221c-5.082,5.921-10.262,11.249-15.541,15.985c-1.579-2.862-3.947-6.117-7.104-9.77
		c14.308-11.938,26.396-26.642,36.264-44.107l10.213,4.588c-2.764,4.541-5.575,8.883-8.438,13.026h41.889
		C342.282,190.099,339.127,185.411,335.476,180.525z M298.027,214.273h40.999v-10.508h-40.999V214.273z M298.027,233.367h40.999
		v-10.509h-40.999V233.367z M298.027,252.755h40.999v-10.803h-40.999V252.755z"/>
	<g>
		<path fill="#FFFFFF" d="M145.642,255.788H88.818v-11.664h154.158v11.664h-80.232 M103.477,195.731H228.16v11.666H103.477V195.731z
			"/>
		<path fill="#FFFFFF" d="M164.106,324.803c-31.752,0.002-53.304-10.19-54.256-10.649l-6.067-2.921l40.806-62.057l9.847,6.477
			l-33.117,50.365c8.836,3.055,26.237,7.752,48.032,6.899c31.364-1.206,46.614-11.039,46.764-11.141l6.572,9.785
			c-0.71,0.48-17.821,11.785-52.881,13.134C167.873,324.769,165.97,324.803,164.106,324.803z"/>
		<polygon fill="#FFFFFF" points="201.426,282.701 227.679,321.879 237.369,315.384 211.116,276.209 		"/>
	</g>
</g>
</svg>
