<?xml version="1.0" encoding="utf-8"?>
<!-- Generator: Adobe Illustrator 16.0.0, SVG Export Plug-In . SVG Version: 6.00 Build 0)  -->
<!DOCTYPE svg PUBLIC "-//W3C//DTD SVG 1.1//EN" "http://www.w3.org/Graphics/SVG/1.1/DTD/svg11.dtd">
<svg version="1.1" id="Layer_1" xmlns="http://www.w3.org/2000/svg" xmlns:xlink="http://www.w3.org/1999/xlink" x="0px" y="0px"
	 width="500px" height="500px" viewBox="0 0 500 500" enable-background="new 0 0 500 500" xml:space="preserve">
<g>
	<path fill="#FFFFFF" d="M269.354,220.058c-0.451,4.278-2.471,8.394-5.986,11.377c-7.21,6.121-17.959,5.17-24.009-2.125
		c-1.884-2.271-3.076-4.893-3.624-7.608c-12.467,7.156-28.582,4.541-38.125-6.965c-10.755-12.968-9.083-32.302,3.734-43.184
		c12.817-10.881,31.926-9.19,42.682,3.776l29.211,35.221l-4.262,3.618l4.262-3.618l0.081-0.069c0.348,0.528,0.725,1.043,1.137,1.539
		c6.051,7.295,16.799,8.247,24.009,2.125c7.211-6.122,8.152-16.997,2.102-24.292c-6.05-7.294-16.8-8.247-24.01-2.125
		c-0.49,0.417-0.949,0.857-1.381,1.314l-0.07-0.083l-2.174,1.845c-0.001,0-0.001,0.001-0.002,0.002
		c-0.002,0-0.003,0.001-0.004,0.002l-0.141,0.121l-0.007-0.007c-1.949,1.525-4.732,1.278-6.39-0.566l-0.008,0.007l-16.485-19.876
		c-0.022-0.026-0.042-0.055-0.065-0.081c-7.171-8.648-17.315-13.283-27.652-13.662c0.834-8.672,4.894-17.034,12.013-23.078
		c14.42-12.242,35.917-10.339,48.018,4.25c9.09,10.961,10.282,25.96,4.2,37.936c6.48,0.419,12.788,3.409,17.292,8.839
		c8.738,10.537,7.381,26.246-3.033,35.087C291.482,227.575,278.328,227.424,269.354,220.058 M237.017,181.78l-0.088,0.075
		c-0.423-0.627-0.88-1.239-1.372-1.833c-8.066-9.726-22.397-10.994-32.009-2.833c-9.613,8.16-10.867,22.661-2.801,32.385
		c8.06,9.718,22.375,10.991,31.988,2.85l9.014-7.653l0.008,0.009c3.29-2.67,7.275-3.905,11.202-3.778L237.017,181.78z
		 M265.536,136.757c-1.389-0.526-2.792-0.9-4.198-1.135c-0.179,0.637-0.342,1.276-0.562,1.908c-0.064,0.188-0.152,0.361-0.222,0.547
		c0.47,0.148,0.938,0.304,1.403,0.48c11.449,4.34,18.384,15.946,18.021,28.263C283.298,154.316,277.139,141.156,265.536,136.757
		 M215.632,153.916c-3.089,0.551-6.034-1.536-6.579-4.663c-0.544-3.127,1.519-6.108,4.606-6.66c3.089-0.551,6.034,1.536,6.579,4.663
		C220.783,150.383,218.721,153.365,215.632,153.916 M213.052,158.941c0.361,2.083-1.014,4.07-3.072,4.438
		c-2.058,0.369-4.021-1.022-4.382-3.105c-0.362-2.083,1.014-4.069,3.072-4.438C210.728,155.468,212.689,156.858,213.052,158.941"/>
	<path fill="#FFFFFF" d="M310.761,361.252c1.308,1.314,2.006,3.278,2.006,5.62c0,4.558-2.633,7.512-6.699,7.512
		c-4.065,0-6.68-2.936-6.68-7.512c0-2.323,0.716-4.324,2.042-5.62c1.235-1.226,2.722-1.802,4.62-1.802
		C308.021,359.45,309.542,360.026,310.761,361.252 M306.086,361.576c-2.579,0-4.209,2.053-4.209,5.313
		c0,1.802,0.519,3.315,1.451,4.253c0.733,0.72,1.684,1.098,2.775,1.098c2.562,0,4.155-2.053,4.155-5.368
		c0-1.818-0.502-3.278-1.415-4.197C308.109,361.954,307.16,361.576,306.086,361.576 M215.615,366.872
		c0,4.559-2.633,7.513-6.699,7.513c-4.065,0-6.681-2.937-6.681-7.513c0-2.323,0.717-4.323,2.042-5.62
		c1.236-1.226,2.722-1.802,4.622-1.802c1.97,0,3.491,0.576,4.71,1.802C214.916,362.566,215.615,364.53,215.615,366.872
		 M211.692,362.675c-0.734-0.721-1.684-1.099-2.758-1.099c-2.58,0-4.209,2.053-4.209,5.313c0,1.802,0.519,3.315,1.45,4.253
		c0.734,0.72,1.684,1.098,2.776,1.098c2.561,0,4.155-2.053,4.155-5.368C213.107,365.054,212.605,363.594,211.692,362.675
		 M142.041,361.559c0.34-0.901,0.482-1.353,0.573-1.82h3.116c0.089,0.433,0.197,0.721,0.609,1.82l3.977,10.394
		c0.447,1.153,0.662,1.657,0.913,2.127h-2.938c-0.108-0.596-0.305-1.37-0.502-1.892l-0.716-1.965h-5.731l-0.717,1.965
		c-0.322,0.864-0.394,1.134-0.537,1.892h-2.938c0.27-0.487,0.627-1.298,0.949-2.127L142.041,361.559z M146.429,368.151l-1.916-5.332
		c-0.071-0.198-0.126-0.415-0.322-1.008c-0.287,0.846-0.287,0.846-0.34,1.008l-1.863,5.332H146.429z M163.092,359.738h2.723
		c-0.107,0.685-0.144,1.244-0.144,2.323v9.692c0,1.063,0.036,1.64,0.144,2.324h-2.723c0.107-0.685,0.143-1.262,0.143-2.324v-9.692
		C163.234,360.945,163.199,360.46,163.092,359.738 M181.65,361.504l2.597,4.432l2.634-4.414c0.447-0.774,0.716-1.315,0.842-1.783
		h3.116c-0.25,0.36-0.931,1.352-1.236,1.856l-4.138,6.611v3.548c0,0.901,0.036,1.64,0.145,2.324h-2.705
		c0.09-0.685,0.144-1.405,0.144-2.324v-3.566l-4.138-6.593c-0.269-0.433-0.681-1.027-1.254-1.856h3.135
		C180.934,360.226,181.167,360.712,181.65,361.504 M230.594,362.207v6.358c0,2.433,1.253,3.711,3.672,3.711
		c2.4,0,3.636-1.278,3.636-3.729v-6.342c0-1.152-0.036-1.802-0.144-2.468h2.669c-0.107,0.667-0.144,1.315-0.144,2.45v6.395
		c0,3.729-2.202,5.819-6.107,5.819c-1.988,0-3.636-0.612-4.621-1.693c-0.914-0.991-1.343-2.342-1.343-4.144v-6.358
		c0-1.117-0.036-1.819-0.144-2.469h2.669C230.63,360.351,230.594,361.035,230.594,362.207 M259.453,359.45
		c1.397,0,2.453,0.271,3.439,0.865c0.807,0.505,1.451,1.171,1.898,1.963c0.215,0.379,0.34,0.702,0.555,1.388l-2.488,0.577
		c-0.252-0.794-0.412-1.136-0.771-1.551c-0.608-0.738-1.504-1.116-2.614-1.116c-2.543,0-4.084,1.999-4.084,5.313
		c0,3.298,1.577,5.351,4.084,5.351c1.254,0,2.328-0.486,2.901-1.333c0.305-0.45,0.448-0.828,0.591-1.657l2.562,0.45
		c-0.342,1.297-0.664,2-1.2,2.703c-1.021,1.261-2.74,1.963-4.89,1.963c-1.953,0-3.512-0.594-4.604-1.729
		c-1.254-1.315-1.953-3.351-1.953-5.655c0-2.379,0.752-4.469,2.096-5.819C256.051,360.062,257.663,359.45,259.453,359.45
		 M277.942,359.738h2.705c-0.107,0.739-0.143,1.333-0.143,2.648v9.512h5.015c1.218,0,1.792-0.036,2.543-0.126v2.432
		c-0.645-0.091-1.271-0.125-2.543-0.125h-5.302c-1.003,0-1.63,0.018-2.275,0.054c0.108-0.667,0.144-1.333,0.144-2.378v-9.35
		C278.086,361.162,278.051,360.513,277.942,359.738 M327.745,362.207v6.358c0,2.433,1.254,3.711,3.672,3.711
		c2.4,0,3.637-1.278,3.637-3.729v-6.342c0-1.152-0.036-1.802-0.144-2.468h2.669c-0.108,0.667-0.144,1.315-0.144,2.45v6.395
		c0,3.729-2.203,5.819-6.108,5.819c-1.987,0-3.635-0.612-4.62-1.693c-0.913-0.991-1.344-2.342-1.344-4.144v-6.358
		c0-1.117-0.036-1.819-0.143-2.469h2.668C327.78,360.351,327.745,361.035,327.745,362.207 M350.498,359.685
		c0.716,0.036,1.146,0.054,2.273,0.054h3.242c2.239,0,3.689,0.469,4.837,1.586c1.307,1.242,1.987,3.116,1.987,5.458
		c0,2.451-0.717,4.396-2.113,5.729c-1.147,1.081-2.58,1.567-4.693,1.567h-3.26c-1.092,0-1.54,0.018-2.274,0.055
		c0.107-0.739,0.143-1.298,0.143-2.379v-9.728C350.641,361.018,350.605,360.478,350.498,359.685 M353.023,371.952h2.848
		c1.468,0,2.418-0.342,3.17-1.152c0.86-0.919,1.308-2.306,1.308-4c0-1.712-0.412-2.989-1.236-3.854
		c-0.733-0.774-1.665-1.08-3.223-1.08h-2.866V371.952L353.023,371.952z"/>
	<path fill="#FFFFFF" d="M327.958,333.611c-0.265,1.222,0.529,2.181,1.585,2.181h28.993c-0.002-0.004-0.005-0.007-0.007-0.011h6.934
		c4.312,0,7.807-3.125,7.807-7.423c0-2.885-1.578-5.396-3.917-6.742c-0.266-0.152-0.539-0.296-0.825-0.417
		c-0.287-0.122-0.586-0.225-0.89-0.312c-0.076-0.021-0.155-0.04-0.233-0.06c-0.232-0.06-0.469-0.108-0.71-0.146
		c-0.089-0.015-0.177-0.031-0.266-0.041c-0.317-0.039-0.638-0.065-0.966-0.065c-0.362,0-0.718,0.027-1.067,0.075
		c-0.108,0.015-0.214,0.043-0.321,0.062c-0.137,0.024-0.27,0.058-0.404,0.088c-0.956-1.147-2.247-2.002-3.723-2.423
		c-0.008-0.058-0.006-0.116-0.015-0.174c-0.01-0.059-0.016-0.119-0.026-0.178c-0.068-0.366-0.164-0.722-0.283-1.068
		c-0.021-0.062-0.045-0.125-0.068-0.188c-0.13-0.346-0.28-0.683-0.457-1.004c-0.02-0.033-0.042-0.066-0.062-0.1
		c-0.191-0.335-0.404-0.655-0.645-0.955c0-0.001-0.002-0.002-0.002-0.004c-1.03-1.281-2.473-2.22-4.128-2.614
		c-0.201-0.048-0.405-0.087-0.612-0.118c-0.086-0.014-0.172-0.029-0.259-0.04c-0.291-0.034-0.587-0.056-0.887-0.056
		c-0.347,0-0.684,0.036-1.017,0.082c-0.327,0.051-0.647,0.124-0.961,0.209c-0.002-0.002-0.004-0.004-0.005-0.006
		c-0.912,0.249-1.764,0.645-2.503,1.192c-0.747-0.494-1.341-1.199-1.697-2.029c0.437-0.798,0.979-1.527,1.593-2.19
		c0,0-0.001-0.001-0.001-0.002c0.013-0.015,0.027-0.026,0.041-0.041c0.233-0.249,0.475-0.487,0.729-0.715
		c0.031-0.027,0.062-0.054,0.094-0.08c0.245-0.214,0.499-0.419,0.763-0.611c0.056-0.04,0.113-0.078,0.17-0.117
		c0.243-0.171,0.49-0.334,0.747-0.484c0.094-0.056,0.19-0.105,0.287-0.157c0.227-0.124,0.455-0.245,0.689-0.354
		c0.141-0.064,0.284-0.12,0.427-0.179c0.202-0.083,0.403-0.166,0.611-0.237c0.185-0.064,0.375-0.115,0.565-0.169
		c0.135-0.039,0.266-0.088,0.402-0.121c0.004,0.003,0.007,0.006,0.01,0.009c0.842-0.205,1.716-0.325,2.621-0.325
		c2.725,0,5.215,0.985,7.146,2.608c0.002,0,0.004-0.001,0.004-0.002c0.018,0.015,0.031,0.029,0.047,0.043
		c0.181,0.153,0.353,0.315,0.522,0.48c0.066,0.063,0.137,0.125,0.2,0.191c0.168,0.169,0.325,0.348,0.48,0.529
		c0.061,0.069,0.123,0.134,0.183,0.204c0.15,0.184,0.29,0.375,0.429,0.567c0.055,0.076,0.113,0.148,0.167,0.226
		c0.131,0.192,0.251,0.394,0.37,0.595c0.05,0.083,0.104,0.164,0.153,0.25c0.111,0.201,0.211,0.407,0.31,0.616
		c0.045,0.093,0.095,0.183,0.138,0.277c0.093,0.208,0.172,0.424,0.251,0.639c0.038,0.1,0.081,0.195,0.115,0.296
		c0.076,0.227,0.139,0.46,0.201,0.691c0.025,0.095,0.057,0.187,0.081,0.282c0.078,0.329,0.143,0.664,0.191,1.005
		c1.527-0.521,3.166-0.803,4.869-0.803c0.281,0,0.559,0.009,0.834,0.023c0.001,0.007,0.001,0.013,0.001,0.02
		c7.93,0.435,14.229,6.962,14.229,14.977c0,8.254-6.678,14.946-14.939,15.013c0,0.002-0.001,0.003-0.001,0.004h-0.079
		c-0.015,0-0.029,0.003-0.045,0.003c-0.021,0-0.041-0.002-0.062-0.003h-54.572c-2.995,0-4.845-2.617-4.053-5.321l12.862-39.279
		h-17.707v-8.496h77.064v8.496h-45.527L327.958,333.611z M356.413,306.593c-0.544,0-1.074,0.056-1.59,0.159
		c0.015,0.246,0.036,0.49,0.036,0.739c0,0.074-0.01,0.147-0.011,0.222c0.18-0.011,0.361-0.019,0.544-0.019
		c4.487,0,8.289,3.133,9.652,7.479C364.684,310.371,360.961,306.593,356.413,306.593 M383.895,326.876
		c-0.476-6.113-5.361-10.921-11.329-10.921c-0.714,0-1.411,0.071-2.088,0.202c0.021,0.313,0.048,0.624,0.048,0.942
		c0,0.095-0.012,0.186-0.014,0.28c0.236-0.013,0.474-0.024,0.714-0.024C377.115,317.356,382.104,321.345,383.895,326.876
		 M314.669,265.245h64.518v8.515h-64.518V265.245z M275.928,295.193c-0.279,0-0.555-0.013-0.83-0.028
		c-0.077-0.005-0.156-0.006-0.232-0.012c-0.098-0.007-0.194-0.021-0.291-0.03l-0.141,0.079v37.535c0,1.755,1.408,3.175,3.149,3.175
		h10.936v8.209h-19.857c-2.982,0-5.47-2.423-5.47-5.515v-43.404h-3.492c-2.237,20.557-5.869,35.132-11.421,48.919h-10.385
		c6.628-18.634,9.846-30.619,11.917-48.919h-14.623v-7.85h15.797c0.662-6.602,1.077-14.34,1.325-21.944h9.806
		c-0.166,7.271-0.58,15.093-1.243,21.944h9.569c3.769-0.277,6.739-3.343,6.739-7.093c0-3.932-3.266-7.119-7.293-7.119
		c-0.197,0-0.39,0.022-0.584,0.036c-0.438-0.893-0.692-1.887-0.692-2.944c0-0.27,0.021-0.535,0.052-0.798
		c2.126-1.272,4.613-2.023,7.292-2.023c6.787,0,12.451,4.699,13.763,10.947c0.185,0.884,0.282,1.8,0.282,2.736
		C290.001,288.683,283.699,295.193,275.928,295.193 M276.523,268.914c-0.667,0-1.318,0.065-1.95,0.187
		c0.018,0.286,0.044,0.571,0.044,0.861c0,0.087-0.011,0.171-0.014,0.256c0.222-0.012,0.443-0.02,0.668-0.02
		c5.501,0,10.163,3.646,11.835,8.707C286.662,273.313,282.099,268.914,276.523,268.914 M230.342,287.468v56.82h-9.212v-36.683
		H210.69c5.8-14.121,10.191-28.243,13.091-42.364h11.406c-1.491,7.688-3.313,15.041-5.634,22.228L230.342,287.468L230.342,287.468z
		 M171.979,290.979h-6.862v-8.548H139.27v8.548h-6.862l-1.77-8.548h-17.63v-8.435h15.255l-1.586-8.283h12.593v8.283h25.847v-8.283
		h12.593l-1.586,8.283h15.255v8.435h-17.631L171.979,290.979z M143.494,321.812c-8.449-7.23-15.409-15.403-21.124-26.373h12.592
		c4.722,8.228,10.521,14.406,17.231,20.057c6.71-5.65,12.426-11.828,17.23-20.057h12.593c-5.799,10.97-12.758,19.143-21.125,26.373
		c8.781,5.486,19.165,9.392,30.431,11.886v10.471c-15.326-3.656-28.443-8.727-39.129-15.79
		c-10.771,7.063-23.888,12.134-39.131,15.79v-10.471C124.33,331.204,134.713,327.298,143.494,321.812 M178.232,297.393h-7.835
		l3.538,1.338c0,0-1.894,8.563-13.335,20.692C167.584,313.352,173.393,306.604,178.232,297.393"/>
</g>
</svg>
