<?xml version="1.0" encoding="utf-8"?>
<!-- Generator: Adobe Illustrator 16.0.0, SVG Export Plug-In . SVG Version: 6.00 Build 0)  -->
<!DOCTYPE svg PUBLIC "-//W3C//DTD SVG 1.1//EN" "http://www.w3.org/Graphics/SVG/1.1/DTD/svg11.dtd">
<svg version="1.1" id="Layer_1" xmlns="http://www.w3.org/2000/svg" xmlns:xlink="http://www.w3.org/1999/xlink" x="0px" y="0px"
	 width="500px" height="500px" viewBox="0 0 500 500" enable-background="new 0 0 500 500" xml:space="preserve">
<g>
	<path fill="#FFFFFF" d="M350.465,198.325c0.043-0.103,0.082-0.204,0.119-0.308c0.043-0.122,0.08-0.243,0.117-0.363
		c0.025-0.091,0.051-0.181,0.074-0.271c0.033-0.13,0.061-0.261,0.086-0.391c0.016-0.09,0.033-0.18,0.047-0.271
		c0.02-0.125,0.033-0.252,0.045-0.379c0.01-0.101,0.018-0.202,0.023-0.304c0.004-0.114,0.008-0.226,0.008-0.339
		c0-0.116-0.002-0.233-0.01-0.353c-0.004-0.097-0.012-0.193-0.021-0.291c-0.012-0.13-0.027-0.261-0.047-0.392
		c-0.012-0.087-0.029-0.171-0.043-0.255c-0.027-0.136-0.055-0.271-0.088-0.406c-0.023-0.084-0.045-0.168-0.07-0.251
		c-0.039-0.128-0.078-0.256-0.123-0.383c-0.035-0.096-0.072-0.189-0.111-0.285c-0.043-0.108-0.09-0.218-0.141-0.326
		c-0.053-0.114-0.113-0.226-0.172-0.336c-0.033-0.063-0.062-0.129-0.098-0.191c-0.016-0.026-0.031-0.045-0.045-0.071
		c-0.07-0.119-0.148-0.234-0.227-0.35c-0.053-0.075-0.102-0.153-0.156-0.226c-0.076-0.104-0.16-0.204-0.242-0.305
		c-0.064-0.078-0.129-0.159-0.197-0.235c-0.072-0.082-0.152-0.156-0.23-0.235c-0.086-0.086-0.172-0.175-0.262-0.254
		c-0.066-0.061-0.137-0.117-0.207-0.173c-0.109-0.093-0.217-0.183-0.332-0.267c-0.064-0.047-0.131-0.089-0.197-0.135
		c-0.125-0.086-0.252-0.169-0.381-0.247c-0.021-0.012-0.041-0.027-0.062-0.039l-94.049-54.3c-0.051-0.029-0.102-0.051-0.152-0.077
		c-0.129-0.07-0.262-0.14-0.396-0.203c-0.088-0.042-0.176-0.077-0.265-0.114c-0.116-0.049-0.231-0.095-0.351-0.136
		c-0.105-0.038-0.213-0.07-0.32-0.103c-0.105-0.03-0.211-0.062-0.316-0.088c-0.115-0.029-0.229-0.052-0.347-0.075
		c-0.103-0.02-0.209-0.039-0.314-0.054c-0.113-0.018-0.226-0.03-0.34-0.041c-0.113-0.012-0.226-0.021-0.34-0.026
		c-0.103-0.004-0.205-0.007-0.309-0.007c-0.126,0-0.252,0.003-0.379,0.009c-0.09,0.004-0.18,0.013-0.271,0.021
		c-0.136,0.012-0.271,0.028-0.407,0.048c-0.083,0.012-0.165,0.028-0.246,0.044c-0.138,0.024-0.276,0.054-0.412,0.089
		c-0.084,0.02-0.167,0.045-0.251,0.07c-0.127,0.037-0.254,0.077-0.381,0.122c-0.097,0.035-0.194,0.073-0.29,0.113
		c-0.107,0.045-0.215,0.087-0.322,0.138c-0.116,0.055-0.229,0.115-0.342,0.176c-0.062,0.034-0.126,0.06-0.188,0.097l-93.885,54.203
		c-0.007,0.004-0.014,0.007-0.02,0.011l-0.145,0.084c-0.039,0.021-0.073,0.048-0.11,0.071c-0.143,0.086-0.283,0.173-0.419,0.27
		c-0.068,0.048-0.131,0.099-0.198,0.148c-0.11,0.084-0.22,0.17-0.325,0.262c-0.077,0.066-0.15,0.134-0.223,0.201
		c-0.088,0.083-0.176,0.167-0.26,0.256c-0.074,0.078-0.146,0.156-0.215,0.236c-0.078,0.088-0.153,0.181-0.228,0.272
		c-0.063,0.081-0.124,0.162-0.184,0.246c-0.073,0.103-0.145,0.206-0.212,0.314c-0.049,0.075-0.095,0.152-0.141,0.229
		c-0.07,0.121-0.138,0.242-0.202,0.369c-0.034,0.067-0.066,0.134-0.098,0.202c-0.064,0.139-0.125,0.279-0.181,0.423
		c-0.023,0.06-0.046,0.122-0.068,0.185c-0.053,0.148-0.102,0.298-0.144,0.451c-0.019,0.064-0.035,0.131-0.051,0.197
		c-0.037,0.147-0.069,0.296-0.097,0.447c-0.015,0.081-0.026,0.163-0.038,0.245c-0.02,0.136-0.038,0.272-0.048,0.409
		c-0.009,0.104-0.012,0.211-0.016,0.316c-0.004,0.086-0.014,0.172-0.014,0.258v108.6c0,0.08,0.009,0.158,0.013,0.237
		c0.003,0.117,0.007,0.232,0.017,0.348c0.011,0.127,0.028,0.254,0.044,0.38c0.014,0.092,0.026,0.184,0.042,0.274
		c0.026,0.142,0.058,0.281,0.091,0.419c0.019,0.074,0.037,0.151,0.058,0.225c0.04,0.145,0.086,0.284,0.135,0.425
		c0.025,0.07,0.051,0.142,0.079,0.211c0.052,0.136,0.109,0.268,0.17,0.396c0.035,0.077,0.071,0.153,0.11,0.229
		c0.06,0.116,0.122,0.229,0.188,0.342c0.05,0.087,0.102,0.173,0.156,0.258c0.062,0.099,0.127,0.191,0.194,0.287
		c0.066,0.091,0.134,0.184,0.205,0.271c0.066,0.083,0.134,0.163,0.203,0.242c0.079,0.092,0.159,0.181,0.243,0.268
		c0.074,0.075,0.149,0.148,0.227,0.222c0.084,0.081,0.169,0.16,0.259,0.235c0.091,0.076,0.185,0.152,0.28,0.223
		c0.082,0.064,0.162,0.127,0.247,0.187c0.114,0.079,0.232,0.153,0.353,0.228c0.055,0.032,0.104,0.071,0.159,0.103l94.049,54.3
		c0.019,0.012,0.039,0.016,0.058,0.028c0.246,0.139,0.5,0.267,0.764,0.375c0.025,0.01,0.051,0.019,0.077,0.029
		c0.228,0.09,0.462,0.168,0.701,0.233c0.076,0.022,0.151,0.041,0.227,0.059c0.195,0.048,0.393,0.087,0.593,0.117
		c0.078,0.011,0.155,0.026,0.234,0.036c0.256,0.029,0.517,0.048,0.78,0.051c0.009,0,0.019,0.002,0.027,0.002
		c0.001,0,0.002,0,0.003,0c0.002,0,0.003,0,0.005,0c0.281,0,0.556-0.023,0.83-0.056c0.058-0.007,0.116-0.018,0.175-0.024
		c0.226-0.035,0.449-0.079,0.668-0.133c0.056-0.014,0.109-0.027,0.164-0.041c0.254-0.07,0.5-0.15,0.742-0.248
		c0.014-0.005,0.027-0.009,0.04-0.016c0.266-0.106,0.521-0.23,0.767-0.369c0.039-0.021,0.074-0.045,0.111-0.067
		c0.199-0.116,0.389-0.24,0.572-0.373c0.064-0.046,0.125-0.094,0.186-0.14c0.184-0.145,0.359-0.295,0.527-0.454
		c0.031-0.032,0.066-0.059,0.098-0.089c0.197-0.194,0.379-0.404,0.551-0.621c0.039-0.049,0.074-0.099,0.111-0.148
		c0.146-0.198,0.287-0.403,0.414-0.615c0.016-0.026,0.035-0.049,0.051-0.076c0.01-0.017,0.016-0.035,0.025-0.052
		c0.084-0.146,0.16-0.301,0.232-0.453c0.027-0.058,0.057-0.112,0.08-0.168c0.064-0.146,0.121-0.295,0.174-0.443
		c0.025-0.071,0.055-0.14,0.076-0.211c0.041-0.128,0.074-0.258,0.109-0.388c0.025-0.096,0.053-0.19,0.074-0.286
		c0.021-0.106,0.037-0.217,0.057-0.325c0.02-0.121,0.041-0.243,0.055-0.364c0.012-0.094,0.016-0.189,0.023-0.285
		c0.01-0.137,0.018-0.272,0.02-0.409c0-0.029,0.004-0.055,0.004-0.084v-65.306c0-0.21-0.014-0.414-0.031-0.619
		c0.215-2.594-1.035-5.201-3.439-6.588l-26.046-15.04l73.019-42.157c0.002-0.002,0.004-0.003,0.006-0.004l47.014-27.144
		c0.006-0.003,0.012-0.007,0.018-0.01l0.041-0.025c0.229-0.131,0.443-0.275,0.65-0.429c0.062-0.045,0.121-0.097,0.184-0.147
		c0.158-0.127,0.314-0.258,0.463-0.396c0.059-0.058,0.119-0.116,0.178-0.176c0.168-0.171,0.326-0.347,0.473-0.534
		c0.025-0.03,0.053-0.058,0.076-0.091c0.176-0.228,0.336-0.468,0.48-0.715c0.012-0.017,0.025-0.033,0.035-0.05
		c0.033-0.058,0.057-0.116,0.088-0.175c0.064-0.119,0.129-0.239,0.188-0.361C350.381,198.527,350.422,198.427,350.465,198.325z
		 M297.025,214.835l-43.555-25.147c-0.021-0.013-0.043-0.021-0.064-0.032c-0.135-0.076-0.273-0.145-0.414-0.212
		c-0.068-0.032-0.135-0.067-0.203-0.099c-0.137-0.059-0.277-0.111-0.418-0.162c-0.076-0.028-0.154-0.06-0.231-0.085
		c-0.122-0.039-0.251-0.071-0.376-0.104c-0.1-0.026-0.197-0.055-0.297-0.075c-0.105-0.023-0.213-0.039-0.32-0.057
		c-0.122-0.021-0.245-0.042-0.366-0.055c-0.095-0.011-0.193-0.015-0.289-0.021c-0.135-0.01-0.269-0.019-0.404-0.021
		c-0.028,0-0.056-0.004-0.084-0.004c-0.076,0-0.148,0.009-0.222,0.011c-0.124,0.004-0.246,0.009-0.368,0.02
		c-0.124,0.011-0.244,0.025-0.365,0.043c-0.098,0.013-0.194,0.026-0.292,0.042c-0.136,0.026-0.27,0.056-0.404,0.088
		c-0.081,0.02-0.161,0.041-0.239,0.062c-0.14,0.04-0.276,0.083-0.412,0.132c-0.076,0.025-0.151,0.052-0.226,0.083
		c-0.129,0.051-0.256,0.104-0.381,0.163c-0.082,0.039-0.164,0.077-0.244,0.119c-0.112,0.057-0.221,0.116-0.329,0.179
		c-0.091,0.052-0.182,0.108-0.271,0.165c-0.093,0.058-0.183,0.123-0.271,0.185c-0.098,0.068-0.193,0.141-0.288,0.214
		c-0.078,0.062-0.153,0.126-0.228,0.191c-0.096,0.083-0.189,0.166-0.281,0.254c-0.072,0.069-0.141,0.142-0.209,0.214
		c-0.084,0.088-0.167,0.178-0.247,0.271c-0.074,0.086-0.142,0.175-0.212,0.263c-0.066,0.086-0.134,0.173-0.198,0.264
		c-0.075,0.109-0.145,0.22-0.214,0.333c-0.036,0.058-0.077,0.112-0.112,0.172c-0.014,0.023-0.023,0.048-0.037,0.071
		c-0.068,0.123-0.129,0.248-0.191,0.375c-0.04,0.083-0.082,0.164-0.119,0.246c-0.05,0.116-0.095,0.235-0.138,0.356
		c-0.037,0.099-0.076,0.196-0.109,0.297c-0.032,0.099-0.056,0.2-0.084,0.298c-0.034,0.125-0.07,0.25-0.096,0.375
		c-0.017,0.081-0.028,0.162-0.042,0.243c-0.026,0.149-0.052,0.296-0.069,0.446c-0.007,0.071-0.01,0.144-0.015,0.214
		c-0.013,0.16-0.023,0.319-0.024,0.478c0,0.023-0.003,0.044-0.003,0.068v50.294l-32.987,19.047
		c-0.024,0.013-0.045,0.029-0.069,0.043c-0.121,0.072-0.237,0.151-0.353,0.229c-0.075,0.051-0.152,0.099-0.226,0.152
		c-0.105,0.076-0.205,0.162-0.306,0.244c-0.078,0.066-0.157,0.129-0.232,0.195c-0.083,0.074-0.159,0.154-0.238,0.232
		c-0.087,0.088-0.174,0.171-0.254,0.26c-0.062,0.068-0.118,0.141-0.176,0.21c-0.09,0.108-0.181,0.218-0.264,0.329
		c-0.048,0.067-0.092,0.139-0.138,0.205c-0.084,0.123-0.167,0.245-0.243,0.373c-0.013,0.022-0.028,0.043-0.042,0.065
		c-0.034,0.058-0.059,0.118-0.091,0.177c-0.062,0.118-0.126,0.235-0.183,0.356c-0.047,0.103-0.09,0.206-0.134,0.312
		c-0.04,0.101-0.08,0.199-0.116,0.299c-0.043,0.123-0.083,0.246-0.118,0.369c-0.026,0.09-0.051,0.175-0.073,0.265
		c-0.034,0.132-0.062,0.265-0.086,0.397c-0.018,0.088-0.033,0.176-0.047,0.264c-0.019,0.127-0.034,0.257-0.046,0.385
		c-0.009,0.1-0.017,0.198-0.022,0.297c-0.006,0.117-0.008,0.231-0.008,0.349c0,0.112,0.002,0.229,0.008,0.345
		c0.005,0.1,0.013,0.198,0.022,0.299c0.012,0.129,0.027,0.256,0.046,0.381c0.014,0.092,0.029,0.18,0.047,0.269
		c0.025,0.132,0.052,0.261,0.086,0.392c0.022,0.092,0.047,0.181,0.075,0.27c0.036,0.122,0.073,0.244,0.116,0.364
		c0.037,0.104,0.078,0.205,0.12,0.306c0.042,0.103,0.085,0.205,0.13,0.305c0.058,0.124,0.121,0.244,0.186,0.363
		c0.03,0.057,0.056,0.116,0.089,0.173c0.01,0.018,0.023,0.032,0.034,0.051c0.145,0.247,0.303,0.486,0.479,0.716
		c0.026,0.032,0.054,0.062,0.08,0.096c0.146,0.182,0.302,0.357,0.468,0.525c0.06,0.063,0.122,0.123,0.185,0.184
		c0.144,0.135,0.295,0.263,0.451,0.388c0.065,0.05,0.128,0.107,0.195,0.155c0.207,0.152,0.421,0.297,0.648,0.427l0.038,0.022
		c0.008,0.004,0.015,0.008,0.022,0.012l32.926,19.01v50.485l-80.178-46.292V199.703L250,149.408l80.174,46.288L297.025,214.835z
		 M256.939,207.712l26.213,15.134l-26.213,15.134V207.712z"/>
	<circle fill="#FFFFFF" cx="292.467" cy="266.608" r="10.753"/>
</g>
</svg>
