<?xml version="1.0" encoding="utf-8"?>
<!-- Generator: Adobe Illustrator 16.0.0, SVG Export Plug-In . SVG Version: 6.00 Build 0)  -->
<!DOCTYPE svg PUBLIC "-//W3C//DTD SVG 1.1//EN" "http://www.w3.org/Graphics/SVG/1.1/DTD/svg11.dtd">
<svg version="1.1" id="Layer_1" xmlns="http://www.w3.org/2000/svg" xmlns:xlink="http://www.w3.org/1999/xlink" x="0px" y="0px"
	 width="500px" height="500px" viewBox="0 0 500 500" enable-background="new 0 0 500 500" xml:space="preserve">
<g>
	<path fill="#FFFFFF" d="M125.064,209.647c1.336-2.196,1.048-4.783,1.71-7.149c3.69-13.163,10.878-23.42,24.342-27.754
		c13.224-4.258,24.688-0.271,33.441,10.011c6.378,7.5,13.725,13.892,20.673,20.738c1.44,1.42,2.037,2.779,2.032,4.781
		c-0.059,23.923-0.038,47.848-0.038,71.771c0,1.351-0.298,2.842,0.527,3.967c1.592,2.162,0.722,3.496-0.991,5.065
		c-5.573,5.103-10.996,10.361-16.517,15.521c-1.216,1.135-2.198,2.429-3.166,3.762c-14.066,19.411-39.866,19.243-53.706-0.345
		c-4.279-6.053-6.652-12.835-7.66-20.135c-0.085-0.615,0.218-1.413-0.651-1.748v-0.583c0.495-2.326,0.495-4.651,0-6.978v-0.578
		c0.575-5.799,1.819-11.397,4.561-16.619c2.458-4.68,5.472-8.878,9.564-12.283c2.347-1.953,2.25-2.067-0.01-4.097
		c-8.298-7.44-13.1-16.633-13.815-27.847c-0.028-0.473,0.09-0.974-0.3-1.365v-0.582c0.495-2.323,0.495-4.651,0-6.974
		L125.064,209.647L125.064,209.647z"/>
	<path fill="#FFFFFF" d="M282.773,219.015c9.581-8.99,19.184-17.955,28.711-27c1.245-1.18,2.054-2.805,3.156-4.151
		c14.36-17.528,38.509-16.792,51.955,1.614c13.762,18.831,10.055,47.233-7.878,60.546c-0.37,0.274-0.694,0.605-1.183,1.037
		c9.26,6.771,14.741,15.769,16.582,26.806c2.59,15.502-1.014,29.327-12.649,40.31c-13.456,12.704-33.835,11.4-45.856-3.06
		c-5.049-6.071-10.834-11.295-16.399-16.795c-0.828-0.814-1.702-1.582-2.546-2.388c-1.532-1.47-3.639-2.7-4.429-4.507
		c-0.812-1.865,1.599-3.448,2.201-5.343c0.237-0.753,0.428-1.472,0.428-2.253c0.03-15.494-0.031-30.992,0.168-46.484
		c0.043-3.376-1.425-4.875-4.319-5.858c-5.451-1.848-11.11-2.526-16.769-3.28c0,0,0.724-1.092,1.141-1.69
		c0.793-0.785,1.587-1.504,2.357-2.309c0.806-0.776,1.792-1.707,2.565-2.518C281.022,220.747,282.087,219.683,282.773,219.015"/>
	<path fill="#FFFFFF" d="M249.132,357.424c-9.43,12.431-22.173,17.771-37.444,17.232c-10.059-0.359-19.096-3.779-26.779-10.446
		c-15.469-13.424-15.502-35.824,0.289-48.932c5.55-4.604,10.428-9.784,15.386-14.932c3.141-3.263,6.245-6.564,9.473-9.957
		c9.95,14.276,22.972,24.004,39.085,29.66c1.348,0.474,2.474,0.504,3.841,0.021c14.908-5.259,27.318-13.95,36.904-26.58
		c0.162-0.216,0.406-0.366,0.74-0.663c2.88,3.045,5.671,6.13,8.603,9.072c4.085,4.104,7.813,8.526,12.455,12.129
		c18.249,14.163,17.707,38.854-1.024,52.429c-19.136,13.866-47.772,9.874-60.881-8.452
		C249.624,357.789,249.376,357.637,249.132,357.424"/>
	<path fill="#FFFFFF" d="M214.009,125.248c1.36,0.002,2.723,0.005,4.085,0.007c12.921,1.024,24.019,5.675,32.072,16.266
		c0.908,1.195,1.332,0.88,2.069-0.084c8.101-10.557,19.195-15.188,32.121-16.184c1.36,0,2.721-0.002,4.086-0.002
		c10.443,0.722,19.917,3.951,27.689,11.194c14.693,13.702,14.734,34.582-0.443,47.744c-6.762,5.869-12.744,12.401-18.998,18.722
		c-0.603,0.608-1.031,1.392-1.826,2.483c-4.343-13.778-14.402-20.15-26.654-23.79c-11.811-3.505-23.752-3.401-35.472,0.355
		c-11.591,3.713-21.177,9.978-25.217,22.869c-3.264-3.433-6.305-6.617-9.328-9.815c-3.121-3.302-6.31-6.475-9.912-9.321
		c-17.542-13.868-17.151-38.073,0.665-51.581C196.356,128.491,204.818,125.841,214.009,125.248"/>
	<path fill="#FFFFFF" d="M272.622,228.085c-13.12-1.211-26.246-1.277-39.384-0.325c-1.939,0.14-4.411,0.055-6.129-2.143
		c-0.821-0.896-1.653-1.767-2.519-2.619c-0.699-0.898-0.762-1.05-2.304-2.337c-4.346-3.624-2.552-14.17,1.418-18.163
		c3.937-3.965,8.541-6.595,13.821-8.159c11.275-3.334,22.366-2.896,33.15,1.899c5.164,2.3,9.512,5.63,11.724,11.076
		c0.492,1.215,1.242,1.254,2.237,1.244c2.008-0.019,4.016-0.004,6.566-0.004c-3.373,3.683-6.33,7.066-9.434,10.31
		c-0.635,0.663-1.769,1.643-2.538,2.656c-0.751,0.85-1.618,1.614-2.389,2.447c-0.744,0.816-1.868,1.843-2.616,2.657
		C273.61,227.196,272.622,228.085,272.622,228.085"/>
	<path fill="#FFFFFF" d="M228.498,228.206c-2.285,0.3-4.593,0.475-6.844,0.941c-1.544,0.319-1.828-0.227-1.787-1.573
		c0.067-2.115,0.06-4.229,0.005-6.345c-0.057-2.242,1.095-0.993,1.608-0.487c0.752,0.743,1.538,1.546,2.347,2.318
		c0.754,0.833,1.599,1.467,2.354,2.304C226.785,226.406,227.955,227.271,228.498,228.206"/>
	<path fill="#FFFFFF" d="M282.228,244.489c0.009-1.713-0.488-2.3-2.196-2.532c-7.877-1.067-15.788-1.559-23.732-1.651
		c-11.525-0.13-23.031,0.034-34.469,1.727c-1.389,0.204-1.98,0.575-1.971,2.11c0.061,11.213,0.033,22.428,0.033,34.261
		c1.038-0.9,1.589-1.426,2.19-1.887c0.506-0.386,0.823-1.192,1.931-0.967c-1.098,1.174-2.049,2.143-2.938,3.16
		c-1.683,1.913-1.732,5.459-0.085,7.395c7.575,8.906,16.469,16.03,27.392,20.483c1.951,0.798,3.598,0.744,5.518-0.059
		c8.986-3.747,16.8-9.139,23.435-16.244c1.519-1.626,3.525-3.084,4.311-5.021c0.642-1.585,0.383-3.766,0.424-5.63
		C282.302,267.922,282.151,256.205,282.228,244.489z M256.259,287.052c-1.721-0.188-3.48-0.039-5.67-0.039
		c-2.115-0.271-5.625,1.157-6.974-0.591c-1.067-1.381,0.402-4.75,0.794-7.228c0.438-2.769,0.922-5.528,1.406-8.286
		c0.284-1.641,0.302-3.071-0.772-4.633c-1.608-2.34-0.875-5.147,1.356-6.977c2.605-2.131,6.838-2.129,9.407,0.007
		c2.186,1.815,2.862,4.654,1.306,7.004c-0.945,1.432-1.069,2.675-0.766,4.288c0.854,4.557,1.413,9.167,2.294,13.721
		C259.062,286.521,258.546,287.303,256.259,287.052z"/>
</g>
</svg>
