<?xml version="1.0" encoding="utf-8"?>
<!-- Generator: Adobe Illustrator 16.0.0, SVG Export Plug-In . SVG Version: 6.00 Build 0)  -->
<!DOCTYPE svg PUBLIC "-//W3C//DTD SVG 1.1//EN" "http://www.w3.org/Graphics/SVG/1.1/DTD/svg11.dtd">
<svg version="1.1" id="Layer_1" xmlns="http://www.w3.org/2000/svg" xmlns:xlink="http://www.w3.org/1999/xlink" x="0px" y="0px"
	 width="500px" height="500px" viewBox="0 0 500 500" enable-background="new 0 0 500 500" xml:space="preserve">
<g>
	<g>
		<path fill="#FFFFFF" d="M120.389,223.096c-3.282-0.056-5.995,2.557-6.053,5.836c-0.057,3.283,2.553,5.993,5.835,6.049
			c3.283,0.06,5.989-2.55,6.053-5.828C126.283,225.868,123.671,223.157,120.389,223.096z"/>
		<path fill="#FFFFFF" d="M192.504,223.096c-3.287,0.062-5.894,2.771-5.836,6.058c0.063,3.278,2.771,5.888,6.052,5.829
			c3.279-0.057,5.893-2.767,5.836-6.05C198.498,225.653,195.787,223.04,192.504,223.096z"/>
		<path fill="#FFFFFF" d="M209.273,278.663c8.929-11.391,14.25-25.741,14.25-41.341c0-37.038-30.025-67.063-67.063-67.063
			c-37.037,0-67.063,30.025-67.063,67.063c0,15.576,5.311,29.912,14.216,41.296l-6.694,11.597
			c-3.271,5.666-1.332,12.908,4.335,16.178c1.862,1.079,3.9,1.588,5.907,1.588c4.093,0,8.074-2.124,10.267-5.922l1.473-2.554
			l0.377-0.647l0.028-0.059c0.204-0.389,0.791-0.244,0.669,0.306l-0.103,0.611l-1.877,10.641
			c-1.137,6.444,3.163,12.582,9.601,13.718c0.699,0.124,1.391,0.183,2.075,0.183c5.64,0,10.633-4.042,11.644-9.786l1.844-10.453
			c0.208-1,1.442-0.867,1.43,0.188v1.28v12.411c0,6.542,5.301,11.845,11.839,11.845c6.54,0,11.844-5.302,11.844-11.845v-12.411
			v-1.28c-0.015-1.056,1.223-1.188,1.428-0.191l0.187,1.066c0.007,0.061,0.015,0.103,0.015,0.103l1.642,9.287
			c1.009,5.744,6.006,9.786,11.644,9.786c0.682,0,1.378-0.059,2.073-0.183c6.44-1.136,10.737-7.273,9.601-13.718l-1.875-10.641
			l-0.01-0.062l-0.094-0.55c-0.117-0.55,0.46-0.694,0.666-0.308l0.239,0.415l0.17,0.293l1.471,2.554
			c2.196,3.798,6.177,5.922,10.268,5.922c2.008,0,4.045-0.509,5.909-1.588c5.665-3.27,7.605-10.512,4.336-16.178L209.273,278.663z
			 M114.336,245.931c-9.328,0-16.892-7.563-16.892-16.89c0-9.328,7.563-16.891,16.892-16.891s16.888,7.563,16.888,16.891
			C131.224,238.368,123.665,245.931,114.336,245.931z M198.557,245.931c-9.324,0-16.887-7.563-16.887-16.89
			c0-9.328,7.563-16.891,16.887-16.891c9.326,0,16.889,7.563,16.889,16.891C215.446,238.368,207.883,245.931,198.557,245.931z"/>
	</g>
	<g>
		<path fill="#FFFFFF" d="M326.348,214.53c-0.071-0.143-0.156-0.28-0.239-0.417c-7.138-12.162-20.342-20.325-35.455-20.325
			c-22.688,0-41.075,18.391-41.075,41.074c0,22.686,18.387,41.078,41.075,41.078c12.431,0,23.581-5.532,31.11-14.263
			c0.037-0.044,0.169-0.186,0.188-0.215c1.385-1.597,2.224-3.667,2.224-5.951c0-5.006-4.056-9.068-9.067-9.068
			c-2.756,0-5.216,1.223-6.873,3.148c-0.015,0.026-0.264,0.314-0.331,0.38c-4.202,4.795-10.374,7.828-17.25,7.828
			c-5.146,0-9.887-1.691-13.716-4.55l45.759-26.417l0,0c2.829-1.535,4.75-4.531,4.75-7.971
			C327.446,217.29,327.051,215.816,326.348,214.53L326.348,214.53z M267.867,237.542c-0.102-0.873-0.164-1.772-0.164-2.681
			c0-12.672,10.281-22.934,22.95-22.934c5.14,0,9.878,1.695,13.698,4.549L267.867,237.542z"/>
		<path fill="#FFFFFF" d="M401.533,246.419c-2.728,0-5.157,1.2-6.82,3.086c-0.04,0.048-0.227,0.269-0.284,0.33
			c-4.204,4.877-10.423,7.965-17.374,7.965c-12.666,0-22.934-10.268-22.934-22.938c0-12.672,10.268-22.938,22.934-22.938
			c6.929,0,13.135,3.074,17.338,7.93c0.036,0.038,0.156,0.167,0.185,0.206c1.659,1.984,4.16,3.24,6.956,3.24
			c5,0,9.069-4.061,9.069-9.067c0-2.29-0.856-4.38-2.257-5.976c-0.02-0.029-0.146-0.165-0.17-0.208
			c-7.533-8.734-18.682-14.261-31.121-14.261c-22.681,0-41.069,18.391-41.069,41.074c0,22.686,18.389,41.078,41.069,41.078
			c12.611,0,23.882-5.681,31.414-14.615c0.018-0.021,0.113-0.141,0.137-0.163c1.251-1.552,1.997-3.521,1.997-5.667
			C410.603,250.483,406.533,246.419,401.533,246.419z"/>
	</g>
	<g>
		<path fill="#FFFFFF" d="M259.566,309.84c1.183,0.062,3.829,0.062,7.938,0c2.054,0,3.515,0,4.387,0
			c-0.312,0.622-0.467,1.028-0.467,1.214c-5.664,0-9.679-0.032-12.043-0.093c-2.614,0.124-4.73-0.686-6.349-2.428
			c-0.746,0.499-1.649,1.4-2.707,2.708l-0.747-1.122c0.434-0.498,1.181-1.181,2.241-2.053c0.311-0.248,0.528-0.435,0.653-0.559
			v-8.404h-2.708v-1.213h3.921v9.617C255.055,309.123,257.015,309.902,259.566,309.84z M253.687,294.81
			c-0.623-1.059-1.525-2.365-2.708-3.922l1.027-0.653c0.996,1.246,1.962,2.52,2.895,3.828L253.687,294.81z M263.581,295.369h1.309
			v4.015h5.694v1.121h-5.694v3.642h6.814v1.12h-6.814v3.358h-1.309v-3.358h-7.934v-1.12h7.934v-3.642h-6.534v-1.401
			c0.62-0.933,1.555-2.645,2.8-5.134H256.3v-1.121h4.014c0.312-0.621,0.685-1.556,1.122-2.801c0.061-0.187,0.123-0.341,0.187-0.467
			l1.399,0.28c-0.188,0.374-0.436,0.935-0.746,1.683c-0.25,0.557-0.438,0.995-0.561,1.305h9.522v1.121h-9.989
			c-0.188,0.437-0.499,1.059-0.935,1.867c-0.248,0.623-0.84,1.806-1.772,3.548h5.04V295.369L263.581,295.369z"/>
		<path fill="#FFFFFF" d="M277.488,303.117l-0.186-1.306c0.994-0.187,2.053-0.435,3.173-0.748v-5.694h-2.986v-1.12h2.986v-4.574
			h1.215v4.574h2.427v1.12h-2.427v5.321c0.373-0.062,0.933-0.217,1.68-0.467c0.374-0.061,0.654-0.124,0.841-0.186
			c0,0.436,0.03,0.84,0.092,1.214c-0.248,0.062-0.622,0.155-1.119,0.28c-0.623,0.186-1.121,0.312-1.494,0.373v7.096
			c0.062,1.617-0.687,2.427-2.241,2.427c-0.746,0-1.399,0-1.96,0c0-0.126-0.032-0.343-0.093-0.654
			c-0.062-0.248-0.126-0.468-0.188-0.654c0.248,0,0.622,0.032,1.121,0.094c0.436,0,0.747,0,0.934,0c0.809,0,1.213-0.404,1.213-1.212
			v-6.723c-0.312,0.063-0.809,0.187-1.493,0.375C278.359,302.839,277.862,302.995,277.488,303.117z M283.744,311.708
			c-0.063-0.127-0.157-0.343-0.281-0.655c-0.186-0.249-0.311-0.466-0.373-0.652c3.549-0.687,6.129-1.4,7.749-2.146
			c-0.561-0.248-1.464-0.622-2.708-1.121c-0.996-0.436-1.774-0.778-2.333-1.027c0.746-0.871,1.431-1.774,2.054-2.709h-3.549v-1.025
			h4.296c0.561-0.871,1.058-1.712,1.493-2.521l1.214,0.467c-0.062,0.126-0.155,0.312-0.28,0.561
			c-0.187,0.312-0.499,0.81-0.934,1.494h9.336v1.025h-3.079c-0.812,1.932-1.837,3.455-3.083,4.576
			c0.623,0.249,1.525,0.622,2.709,1.12c1.493,0.56,2.614,0.994,3.361,1.308l-0.747,1.119c-2.554-1.246-4.669-2.147-6.349-2.707
			C290.372,310.057,287.539,311.021,283.744,311.708z M284.303,297.983h8.776c0.933-1.307,1.806-2.614,2.614-3.92l1.12,0.652
			c-0.746,1.059-1.555,2.147-2.428,3.268h5.136v1.027h-15.219V297.983z M290.839,290.048l1.121-0.467
			c0.187,0.373,0.466,0.903,0.84,1.588c0.187,0.436,0.342,0.747,0.466,0.932l-1.025,0.469h6.534v1.12h-13.724v-1.12h7.096
			c-0.127-0.249-0.312-0.622-0.561-1.12C291.273,290.827,291.025,290.36,290.839,290.048z M287.197,294.715l1.028-0.652
			c0.124,0.187,0.341,0.467,0.653,0.841c0.808,1.059,1.368,1.772,1.68,2.146l-1.121,0.748c-0.249-0.499-0.902-1.432-1.959-2.802
			C287.353,294.872,287.259,294.779,287.197,294.715z M287.571,305.732c1.494,0.561,2.955,1.153,4.389,1.774
			c1.243-0.935,2.271-2.304,3.08-4.108h-5.694C288.722,304.331,288.132,305.11,287.571,305.732z"/>
		<path fill="#FFFFFF" d="M305.866,291.543h7.468v8.962h-5.788v7.935c2.489-1.244,4.448-2.27,5.881-3.08
			c0.062,0.56,0.156,0.997,0.281,1.306c-2.18,1.06-4.171,2.087-5.976,3.081c-0.187,0.125-0.53,0.341-1.026,0.654
			c-0.062,0.125-0.125,0.187-0.188,0.187l-0.933-1.215c0.497-0.434,0.746-1.056,0.746-1.865v-8.123h5.79v-6.722h-6.255
			L305.866,291.543L305.866,291.543z M314.548,300.411c-0.125-0.188-0.437-0.528-0.935-1.027c1.992-2.802,3.517-6.035,4.576-9.709
			l1.212,0.28c-0.062,0.126-0.124,0.312-0.186,0.56c-0.499,1.494-0.903,2.583-1.213,3.268h9.148v1.215h-2.428
			c-0.623,4.98-1.898,8.651-3.827,11.017c1.367,1.618,3.485,3.02,6.349,4.2c-0.063,0.062-0.127,0.187-0.188,0.374
			c-0.312,0.497-0.497,0.808-0.559,0.933c-3.051-1.618-5.197-3.11-6.441-4.481c-1.433,1.433-3.86,2.987-7.283,4.669
			c-0.125-0.188-0.344-0.531-0.653-1.027c-0.126-0.062-0.187-0.125-0.187-0.187c3.361-1.37,5.788-2.862,7.282-4.48
			c-1.432-1.806-2.459-4.575-3.081-8.311C315.637,298.639,315.109,299.54,314.548,300.411z M317.535,294.996
			c-0.188,0.373-0.373,0.716-0.562,1.027c0.621,3.982,1.65,6.972,3.082,8.963c1.681-1.991,2.8-5.322,3.361-9.99H317.535z"/>
		<path fill="#FFFFFF" d="M337.229,295.648l1.026,0.841c-1.183,1.37-2.612,2.864-4.293,4.482c-0.127-0.187-0.343-0.405-0.653-0.654
			c-0.126-0.124-0.219-0.218-0.282-0.28C334.646,298.607,336.047,297.144,337.229,295.648z M335.551,302.839v-1.214h15.217v1.307
			c-1.433,1.993-3.269,3.703-5.509,5.135c2.488,0.997,5.694,1.711,9.615,2.146c-0.248,0.374-0.467,0.808-0.652,1.307
			c-4.668-0.746-8.123-1.68-10.363-2.8c-2.553,1.183-5.914,2.178-10.083,2.988c-0.062-0.127-0.155-0.313-0.28-0.562
			c-0.186-0.312-0.312-0.529-0.374-0.654c3.922-0.622,7.096-1.46,9.523-2.52c-1.619-1.057-3.236-2.77-4.855-5.135L335.551,302.839
			L335.551,302.839z M342.926,289.954l1.212-0.373c0.374,0.81,0.748,1.743,1.122,2.802l-1.027,0.372h10.455v1.121h-7.374v6.162
			H346.1v-6.162h-4.294v6.255h-1.215v-6.255h-7.375v-1.121h10.83C343.67,291.697,343.299,290.764,342.926,289.954z M349.273,302.839
			h-9.989c1.493,2.054,3.049,3.548,4.668,4.48C345.943,306.262,347.717,304.768,349.273,302.839z M349.367,296.582l0.933-0.839
			c2.055,1.929,3.548,3.393,4.481,4.388l-1.027,0.934C352.509,299.697,351.047,298.202,349.367,296.582z"/>
		<path fill="#FFFFFF" d="M365.607,290.795l1.307,0.374c-0.125,0.25-0.279,0.56-0.466,0.932c-0.187,0.562-0.561,1.372-1.121,2.429
			h6.068v-4.948h1.308v4.948h8.868v1.214h-8.868v5.882h8.215v1.214h-8.215v6.255h10.082v1.212h-22.22v-1.212h10.829v-6.255h-8.215
			v-1.214h8.215v-5.882h-6.722c-0.81,1.618-1.837,3.175-3.081,4.668c-0.312-0.373-0.653-0.684-1.026-0.934
			C362.681,296.988,364.361,294.095,365.607,290.795z"/>
		<path fill="#FFFFFF" d="M390.903,306.479l1.119,0.56c-0.933,1.37-1.806,2.582-2.612,3.641c-0.063,0-0.187-0.062-0.374-0.186
			c-0.373-0.25-0.622-0.406-0.747-0.468C389.161,309.154,390.031,307.973,390.903,306.479z M398.372,289.861l1.215-0.281
			c0.246,0.748,0.466,1.496,0.652,2.242h8.682v1.025h-4.573l0.838,0.468c-0.124,0.126-0.341,0.373-0.65,0.747
			c-0.438,0.623-0.78,1.058-1.028,1.307h6.91v1.027h-22.034v-1.027h6.815c-0.062-0.062-0.187-0.216-0.373-0.466
			c-0.561-0.685-0.998-1.182-1.308-1.495l0.654-0.561h-4.294v-1.025h9.148c-0.062-0.125-0.126-0.312-0.187-0.562
			C398.776,291.076,398.621,290.608,398.372,289.861z M391.371,298.171h15.87v6.815h-15.87V298.171z M392.584,299.197v1.867h13.442
			v-1.867H392.584z M392.584,302.092v1.96h13.442v-1.96H392.584z M393.985,306.293h1.213v2.055
			c-0.125,1.119,0.527,1.616,1.961,1.492h4.48c1.309,0.062,2.056-0.312,2.241-1.12c0-0.124,0.03-0.28,0.093-0.466
			c0.062-0.188,0.154-0.654,0.28-1.401c0.188,0.063,0.404,0.126,0.654,0.187c0.248,0.126,0.435,0.22,0.56,0.28
			c-0.062,0.188-0.125,0.436-0.187,0.747c0,0.188-0.095,0.529-0.28,1.027c-0.373,1.307-1.401,1.928-3.081,1.867h-5.134
			c-1.992,0.124-2.927-0.717-2.801-2.521V306.293L393.985,306.293z M396.411,294.903l-0.747,0.466h6.349
			c0.747-0.808,1.4-1.647,1.96-2.521h-9.336c0.249,0.312,0.622,0.779,1.121,1.401C396.069,294.562,396.287,294.779,396.411,294.903z
			 M397.812,306.105l0.933-0.746c0.187,0.187,0.529,0.498,1.026,0.934c0.748,0.686,1.275,1.214,1.588,1.587l-1.025,0.745
			c-0.064-0.061-0.221-0.216-0.468-0.466C398.87,307.102,398.186,306.419,397.812,306.105z M406.961,306.852l1.028-0.559
			c0.372,0.499,0.995,1.275,1.865,2.332c0.312,0.376,0.562,0.655,0.748,0.842l-1.027,0.747
			C408.579,308.906,407.708,307.786,406.961,306.852z"/>
	</g>
</g>
</svg>
