<?xml version="1.0" encoding="utf-8"?>
<!-- Generator: Adobe Illustrator 16.0.0, SVG Export Plug-In . SVG Version: 6.00 Build 0)  -->
<!DOCTYPE svg PUBLIC "-//W3C//DTD SVG 1.1//EN" "http://www.w3.org/Graphics/SVG/1.1/DTD/svg11.dtd">
<svg version="1.1" id="Layer_1" xmlns="http://www.w3.org/2000/svg" xmlns:xlink="http://www.w3.org/1999/xlink" x="0px" y="0px"
	 width="500px" height="500px" viewBox="0 0 500 500" enable-background="new 0 0 500 500" xml:space="preserve">
<g>
	<path fill="#FFFFFF" d="M355.877,183.31c-79.225,89.156-169.344,95.92-195.243,96.418c-3.3,0.063-6.532-0.524-9.627-0.984
		c-16.608-2.464-34.255-14.879-34.255-33.048c0-18.163,14.777-32.94,32.941-32.94h24.949c4.946,0,8.948-4.001,8.948-8.948
		c0-34.557,28.106-62.668,62.659-62.668c30.449,0,56.405,21.723,61.705,51.647c0.861,4.867,5.613,6.947,10.486,6.106
		c4.862-0.864,7.991-4.363,7.137-9.231c-6.823-38.485-40.182-66.417-79.328-66.417c-41.391,0-75.578,31.391-80.048,71.615h-16.507
		c-28.032,0-50.838,22.805-50.838,50.837c0,28.196,25.518,47.194,49.526,50.75c7.115,1.055,14.665,1.539,22.559,1.539
		c77.992,0,155.845-20.627,219.166-57.514L355.877,183.31z"/>
	<g>
		<g>
			<path id="SVGID_1_" fill="#FFFFFF" d="M160.636,279.728c-3.304,0.063-6.532-0.527-9.627-0.981
				c-15.672-2.327-32.249-13.517-34.079-30.034l-18.066-3.293c0,0.092-0.01,0.188-0.01,0.276c0,28.195,25.519,47.191,49.526,50.754
				c7.115,1.047,14.665,1.533,22.562,1.533c77.991,0,155.845-20.624,219.162-57.514l-34.228-57.162
				C276.653,272.47,186.53,279.231,160.636,279.728"/>
		</g>
		<g>
			<defs>
				<path id="SVGID_2_" d="M160.636,279.728c-3.304,0.063-6.532-0.527-9.627-0.981c-15.672-2.327-32.249-13.517-34.079-30.034
					l-18.066-3.293c0,0.092-0.01,0.188-0.01,0.276c0,28.195,25.519,47.191,49.526,50.754c7.115,1.047,14.665,1.533,22.562,1.533
					c77.991,0,155.845-20.624,219.162-57.514l-34.228-57.162C276.653,272.47,186.53,279.231,160.636,279.728"/>
			</defs>
			<clipPath id="SVGID_3_">
				<use xlink:href="#SVGID_2_"  overflow="visible"/>
			</clipPath>
			<polygon clip-path="url(#SVGID_3_)" fill="#FFFFFF" points="152.868,70.108 434.676,204.574 336.09,411.181 54.285,276.717 			
				"/>
		</g>
	</g>
	<path fill="#FFFFFF" d="M180.429,332.584h-42.474c-0.966,0-1.742-0.781-1.742-1.747s0.776-1.74,1.742-1.74h42.474
		c0.962,0,1.744,0.774,1.744,1.74C182.173,331.802,181.391,332.584,180.429,332.584"/>
	<path fill="#FFFFFF" d="M184.601,348.961h-50.823c-0.965,0-1.74-0.781-1.74-1.739c0-0.965,0.775-1.746,1.74-1.746h50.823
		c0.967,0,1.748,0.781,1.748,1.746C186.348,348.18,185.568,348.961,184.601,348.961"/>
	<path fill="#FFFFFF" d="M174.706,372.585h-31.045c-2.588,0-4.341-0.716-5.203-2.134c-1.111-1.825-0.146-3.81-0.031-4.032
		l7.28-19.801c0.328-0.915,1.333-1.378,2.234-1.039c0.904,0.334,1.368,1.341,1.038,2.239l-7.368,20.001
		c-0.173,0.391-0.229,0.74-0.173,0.813c0.071,0.127,0.648,0.473,2.225,0.473h31.045c2,0,2.618-0.512,2.794-0.743
		c0.284-0.356,0.149-0.889,0.149-0.901l-4.572-9.614c-0.41-0.874-0.035-1.912,0.833-2.319c0.875-0.406,1.912-0.041,2.321,0.827
		l4.672,9.899c0.159,0.46,0.702,2.426-0.598,4.179C179.242,371.861,177.352,372.585,174.706,372.585"/>
	<path fill="#FFFFFF" d="M221.119,358.227c-0.956,0-1.736-0.781-1.736-1.739v-21.634c0-0.962,0.78-1.753,1.736-1.753
		c0.963,0,1.752,0.791,1.752,1.753v21.634C222.872,357.445,222.083,358.227,221.119,358.227"/>
	<path fill="#FFFFFF" d="M228.092,376.758c-0.962,0-1.745-0.781-1.745-1.74v-50.49c0-0.962,0.783-1.749,1.745-1.749
		c0.959,0,1.74,0.787,1.74,1.749v50.49C229.832,375.977,229.051,376.758,228.092,376.758"/>
	<path fill="#FFFFFF" d="M233.043,342.427H221.12c-0.956,0-1.736-0.781-1.736-1.746c0-0.966,0.78-1.747,1.736-1.747h11.923
		c0.963,0,1.743,0.781,1.743,1.747C234.786,341.646,234.006,342.427,233.043,342.427"/>
	<path fill="#FFFFFF" d="M262.912,352.918c-0.959,0-1.735-0.781-1.735-1.739v-12.734c0-1.965-0.75-2.717-2.646-2.717h-19.432
		c-0.973,0-1.75-0.781-1.75-1.76c0-0.953,0.777-1.73,1.75-1.73h19.432c3.838,0,6.128,2.318,6.128,6.207v12.734
		C264.659,352.136,263.877,352.918,262.912,352.918"/>
	<path fill="#FFFFFF" d="M269.162,353.515h-35.641c-0.959,0-1.738-0.771-1.738-1.739c0-0.96,0.779-1.745,1.738-1.745h35.641
		c0.959,0,1.739,0.784,1.739,1.745C270.901,352.744,270.122,353.515,269.162,353.515"/>
	<path fill="#FFFFFF" d="M235.468,376.053c-0.48,0-0.962-0.203-1.31-0.597c-0.637-0.719-0.562-1.822,0.162-2.461
		c9.531-8.36,12.49-21.128,12.49-24.828v-23.643c0-0.959,0.783-1.746,1.747-1.746c0.962,0,1.741,0.787,1.741,1.746v23.643
		c0,4.84-3.441,18.472-13.679,27.447C236.284,375.906,235.882,376.053,235.468,376.053"/>
	<path fill="#FFFFFF" d="M267.26,375.735c-0.364,0-0.728-0.113-1.046-0.343c-9.558-7.183-13.803-19.274-13.975-19.786
		c-0.311-0.911,0.168-1.897,1.078-2.206c0.911-0.317,1.9,0.162,2.215,1.072c0.042,0.116,4.086,11.61,12.782,18.127
		c0.763,0.57,0.919,1.675,0.338,2.438C268.313,375.494,267.783,375.735,267.26,375.735"/>
	<path fill="#FFFFFF" d="M312.721,375.221h-3.15c-0.94-0.034-1.71-0.799-1.71-1.733c0-0.964,0.744-1.743,1.71-1.743h3.15
		c2.654,0,2.91-0.511,2.91-2.912v-44.517c0-0.973,0.781-1.751,1.747-1.751c0.967,0,1.742,0.778,1.742,1.751v44.517
		C319.119,371.995,318.36,375.221,312.721,375.221"/>
	<path fill="#FFFFFF" d="M325.766,337.67h-18.765c-0.961,0-1.74-0.775-1.74-1.733c0-0.966,0.779-1.753,1.74-1.753h18.765
		c0.963,0,1.744,0.787,1.744,1.753C327.51,336.896,326.729,337.67,325.766,337.67"/>
	<path fill="#FFFFFF" d="M307,360.297c-0.683,0-1.329-0.412-1.605-1.08c-0.371-0.892,0.051-1.911,0.936-2.286l18.764-7.754
		c0.896-0.381,1.913,0.052,2.283,0.94c0.372,0.889-0.052,1.905-0.941,2.277l-18.76,7.763
		C307.449,360.251,307.229,360.297,307,360.297"/>
	<path fill="#FFFFFF" d="M331.653,376.534c-0.963,0-1.745-0.776-1.745-1.738v-44.099c0-5.558,4.037-5.558,5.557-5.558h15.911
		c5.555,0,5.555,4.42,5.555,6.541v6.092c0,1.092-0.452,4.657-6.21,4.657h-4.693c-0.961,0-1.73-0.784-1.73-1.747
		c0-0.969,0.77-1.753,1.73-1.753h4.693c1.238,0,2.724-0.193,2.724-1.157v-6.092c0-2.939-0.396-3.051-2.068-3.051h-15.911
		c-1.633,0-2.068,0-2.068,2.066v44.099C333.396,375.758,332.608,376.534,331.653,376.534"/>
	<path fill="#FFFFFF" d="M337.537,374.713c-0.549,0-1.089-0.254-1.428-0.733c-0.56-0.791-0.367-1.88,0.42-2.429
		c9.656-6.813,14.466-15.938,16.086-19.547c0.191-0.445,0.484-1.265,0.183-1.722c-0.29-0.441-1.188-0.73-2.297-0.73h-18.85
		c-0.962,0-1.742-0.781-1.742-1.743c0-0.969,0.78-1.743,1.742-1.743h18.85c2.4,0,4.254,0.822,5.231,2.328
		c0.628,0.968,1.138,2.626,0.059,5.025c-1.736,3.877-6.893,13.667-17.253,20.97C338.23,374.62,337.881,374.713,337.537,374.713"/>
	<path fill="#FFFFFF" d="M355.18,374.713c-0.356,0-0.721-0.107-1.027-0.332c-13.915-10.21-16.804-25.615-16.923-26.271
		c-0.165-0.946,0.468-1.854,1.411-2.029c0.924-0.146,1.851,0.467,2.028,1.413c0.021,0.148,2.793,14.719,15.55,24.072
		c0.776,0.575,0.94,1.661,0.369,2.442C356.24,374.473,355.717,374.713,355.18,374.713"/>
	<path fill="#FFFFFF" d="M355.877,183.31c-30.29,34.087-62.172,56.124-91.447,70.374l-0.022,0.02c0,0-9.46,8.833-5.656,19.7
		c3.807,10.865,10.971,11.76,18.165,11.938c40.462-9.746,78.952-24.928,113.191-44.871L355.877,183.31z"/>
	<path fill="#FFFFFF" d="M395.029,198.976c9.305,15.924,7.827,34.118-3.301,40.631c-11.133,6.5-27.698-1.133-37.017-17.063
		c-9.318-15.924-7.846-34.112,3.288-40.621C369.146,175.416,385.709,183.046,395.029,198.976"/>
</g>
</svg>
