<?xml version="1.0" encoding="utf-8"?>
<!-- Generator: Adobe Illustrator 16.0.0, SVG Export Plug-In . SVG Version: 6.00 Build 0)  -->
<!DOCTYPE svg PUBLIC "-//W3C//DTD SVG 1.1//EN" "http://www.w3.org/Graphics/SVG/1.1/DTD/svg11.dtd">
<svg version="1.1" id="Layer_1" xmlns="http://www.w3.org/2000/svg" xmlns:xlink="http://www.w3.org/1999/xlink" x="0px" y="0px"
	 width="500px" height="500px" viewBox="0 0 500 500" enable-background="new 0 0 500 500" xml:space="preserve">
<g>
	<path fill="#FFFFFF" d="M275.166,314.326h7.562v6.815h-10.715v-16.483h14.567v-4.474h-14.894c-1.194,0-2.192,0.432-2.979,1.263
		c-0.776,0.836-1.181,1.808-1.181,2.893v17.125c0,0.481,0.058,0.939,0.146,1.359c0.457,1.854,1.809,2.798,4.013,2.798h15.51V309.85
		h-12.03V314.326L275.166,314.326z"/>
	<path fill="#FFFFFF" d="M323.621,305.754h-11.365c-1.316,0-2.359,0.399-3.069,1.189c-0.715,0.77-1.084,1.767-1.084,2.96v11.562
		c0,1.172,0.396,2.171,1.169,2.964c0.771,0.789,1.776,1.193,2.984,1.193h14.536v-4.48H312.58v-3.217h11.041
		c1.254,0,2.282-0.424,3.073-1.252c0.713-0.777,1.082-1.761,1.082-2.91v-3.858c0-1.17-0.394-2.161-1.171-2.958
		C325.834,306.162,324.827,305.754,323.621,305.754 M323.302,313.452H312.58v-3.227h10.722V313.452z"/>
	<polygon fill="#FFFFFF" points="348.682,304.658 356.249,304.658 356.249,325.622 360.718,325.622 360.718,304.658 
		368.354,304.658 368.354,300.182 348.682,300.182 	"/>
	<path fill="#FFFFFF" d="M404.458,321.142h-10.722v-15.388h-4.479v15.714c0,1.169,0.383,2.173,1.164,2.961
		c0.771,0.789,1.768,1.193,2.992,1.193h11.366c1.279,0,2.295-0.412,3.036-1.221c0.738-0.801,1.117-1.795,1.117-2.934v-15.714h-4.476
		V321.142L404.458,321.142z"/>
	<polygon fill="#FFFFFF" points="441.269,310.227 438.078,310.227 437.764,310.227 437.438,310.227 437.438,325.622 
		441.909,325.622 441.909,310.227 441.583,310.227 	"/>
	<polygon fill="#FFFFFF" points="437.438,304.652 437.764,304.652 438.078,304.652 441.269,304.652 441.583,304.652 
		441.909,304.652 441.909,300.185 437.438,300.185 	"/>
	<rect x="296.588" y="215.492" fill="#FFFFFF" width="9.767" height="61.979"/>
	<path fill="#FFFFFF" d="M346.856,235.03h-12.155l-0.163-0.206c-7.329-9.563-14.156-20.362-20.874-33.026
		c-0.78-1.364-1.713-2.067-2.76-2.067h-17.696c-1.186,0-2.516,0.665-2.956,1.485c-6.382,12.245-13.537,23.553-21.266,33.609
		l-0.159,0.206h-12.354l0.735-0.871c8.559-10.204,16.247-21.827,24.184-36.581c1.013-1.792,2.265-3.144,3.718-4.014
		c1.822-1.217,3.961-1.835,6.338-1.835h21.706c2.117,0,3.91,0.504,5.48,1.554c1.539,0.906,2.816,2.371,3.984,4.593
		c7.299,14.494,14.328,25.344,23.505,36.282L346.856,235.03z"/>
	<path fill="#FFFFFF" d="M369.191,277.371h-9.158l-3.268-8.099h9.976c0.582,0,1.231-0.548,1.231-1.328v-23.456
		c-3.001,1.213-7.912,2.965-10.962,3.824l-0.674,0.19v-9.454l0.434-0.082c3.229-0.61,7.88-2.013,11.202-3.179v-20.021h-10.854
		v-8.199h10.854v-16.527h9.569v16.527h9.291v8.199h-9.291v16.134c2.774-0.975,7.027-2.708,9.396-3.933l0.779-0.404v8.84
		l-0.311,0.144c-2.314,1.068-7.158,3.128-9.864,4.095v28.569c0,2.259-0.798,4.249-2.308,5.756
		C373.685,276.516,371.54,277.371,369.191,277.371"/>
	<path fill="#FFFFFF" d="M424.48,269.661v-14.68h14.375v-7.617H424.48v-12.625h14.375v-7.617H424.48v-11.941h16.134v-8.102h-11.559
		c-0.208,0.374-0.44,0.73-0.686,1.076c-0.167,0.233-0.353,0.451-0.538,0.668c-0.102,0.125-0.2,0.256-0.311,0.373
		c-0.177,0.194-0.371,0.374-0.562,0.556c-0.135,0.128-0.27,0.257-0.41,0.377c-0.188,0.159-0.385,0.311-0.583,0.458
		c-0.167,0.121-0.336,0.241-0.51,0.354c-0.193,0.128-0.392,0.249-0.594,0.361c-0.198,0.117-0.405,0.218-0.613,0.319
		c-0.195,0.093-0.39,0.187-0.592,0.268c-0.235,0.098-0.479,0.183-0.722,0.26c-0.187,0.062-0.373,0.128-0.565,0.179
		c-0.29,0.078-0.587,0.132-0.885,0.187c-0.159,0.027-0.317,0.07-0.482,0.089c-0.466,0.062-0.94,0.101-1.428,0.101
		c-0.484,0-0.958-0.04-1.426-0.101c-0.162-0.019-0.32-0.062-0.481-0.089c-0.298-0.055-0.596-0.109-0.885-0.187
		c-0.189-0.051-0.376-0.117-0.568-0.179c-0.239-0.078-0.482-0.163-0.72-0.26c-0.199-0.081-0.397-0.174-0.593-0.268
		c-0.205-0.101-0.411-0.206-0.609-0.319c-0.201-0.112-0.4-0.233-0.595-0.361c-0.174-0.113-0.344-0.233-0.51-0.354
		c-0.199-0.147-0.396-0.299-0.584-0.458c-0.142-0.12-0.278-0.249-0.414-0.377c-0.189-0.182-0.384-0.362-0.56-0.556
		c-0.11-0.121-0.209-0.249-0.314-0.373c-0.183-0.218-0.368-0.436-0.533-0.668c-0.247-0.346-0.48-0.703-0.685-1.076h-5.963
		c1.814-4.146,3.928-10.189,5.366-15.362l0.187-0.676h-10.104l-0.107,0.393c-3.042,11.067-8.007,21.376-15.173,31.515l-0.594,0.839
		h7.931v44.451c0,2.361,0.714,4.507,2.087,6.221c1.648,1.851,4.109,2.91,6.754,2.91h41.698v-7.709H424.48L424.48,269.661z
		 M401.306,254.981h13.704v14.68h-12.28c-0.757,0-1.424-0.801-1.424-1.717V254.981L401.306,254.981z M415.01,247.364h-13.703
		v-12.625h13.703V247.364z M401.306,215.181h13.702v11.941h-13.702V215.181z"/>
	<path fill="#FFFFFF" d="M419.463,191.924c-4.818,0-8.725,3.89-8.725,8.693c0,4.803,3.906,8.697,8.725,8.697
		c4.817,0,8.722-3.894,8.722-8.697C428.185,195.813,424.279,191.924,419.463,191.924 M420.639,192.923
		c3.263,0,5.911,2.638,5.911,5.892c0,3.251-2.648,5.887-5.911,5.887s-5.907-2.634-5.907-5.887
		C414.731,195.561,417.376,192.923,420.639,192.923 M416.927,196.983c0,1.416,1.154,2.558,2.569,2.558
		c1.414,0,2.563-1.142,2.563-2.558c0-1.415-1.149-2.561-2.563-2.561C418.081,194.423,416.927,195.569,416.927,196.983
		 M417.112,200.998c0,0.486,0.395,0.878,0.884,0.878c0.485,0,0.881-0.393,0.881-0.878c0-0.482-0.396-0.878-0.881-0.878
		C417.507,200.12,417.112,200.516,417.112,200.998"/>
	<path fill="#FFFFFF" d="M153.137,204.751c1.827,0,3.303,2.091,3.303,4.671c0,2.576-1.477,4.675-3.303,4.675
		c-1.819,0-3.299-2.099-3.299-4.675C149.837,206.842,151.318,204.751,153.137,204.751 M150.075,216.755
		c0-0.886,0.509-1.609,1.135-1.609s1.135,0.723,1.135,1.609c0,0.887-0.509,1.605-1.135,1.605
		C150.584,218.36,150.075,217.642,150.075,216.755"/>
	<path fill="#FFFFFF" d="M185.613,263.032c-0.897,0.12-1.819,0.245-2.776,0.393c-1.433,0.214-3.422,0.319-5.346,0.421
		c-1.807,0.097-3.674,0.193-5.036,0.383c-3.612,0.49-6.88,3.793-6.995,7.073c-0.089,2.507,1.747,4.337,5.038,5.024
		c5.949,1.231,12.457-1.415,17.463-3.862c4.01-1.963,8.148-4.741,11.349-7.635c3.274-2.958,4.409-5.011,4.078-5.729
		c-0.151-0.326-1.109-1.192-7.144,1.411C192.596,262.084,189.359,262.523,185.613,263.032"/>
	<path fill="#FFFFFF" d="M69.027,257.673c-21.916-12.5-7.986,8.487,10.175,20.021c0.773,0.49,1.57,0.983,2.381,1.474
		c-0.553-5.709-0.395-11.355-0.851-16.904C76.753,261.187,72.991,259.936,69.027,257.673"/>
	<path fill="#FFFFFF" d="M98.167,229.897c3.905,0,7.08-4.527,7.08-10.096c0-5.564-3.175-10.091-7.08-10.091
		c-3.906,0-7.085,4.527-7.085,10.091C91.082,225.37,94.261,229.897,98.167,229.897 M98.167,210.635c3.394,0,6.155,4.111,6.155,9.167
		c0,5.056-2.761,9.167-6.155,9.167c-3.397,0-6.159-4.111-6.159-9.167C92.008,214.746,94.77,210.635,98.167,210.635"/>
	<path fill="#FFFFFF" d="M96.765,221.069c1.735,0,3.14-1.994,3.14-4.446s-1.405-4.441-3.14-4.441c-1.734,0-3.139,1.989-3.139,4.441
		C93.626,219.075,95.031,221.069,96.765,221.069"/>
	<path fill="#FFFFFF" d="M96.007,223.598c0-0.839-0.483-1.523-1.079-1.523c-0.596,0-1.08,0.684-1.08,1.523
		c0,0.848,0.484,1.532,1.08,1.532C95.524,225.129,96.007,224.445,96.007,223.598"/>
	<path fill="#FFFFFF" d="M154.613,223.279c4.061,0,7.364-4.717,7.364-10.515c0-5.802-3.304-10.52-7.364-10.52
		c-4.065,0-7.372,4.717-7.372,10.52C147.242,218.562,150.548,223.279,154.613,223.279 M154.613,203.174
		c3.55,0,6.437,4.301,6.437,9.59c0,5.285-2.887,9.586-6.437,9.586c-3.556,0-6.443-4.302-6.443-9.586
		C148.17,207.476,151.058,203.174,154.613,203.174"/>
	<path fill="#FFFFFF" d="M153.137,214.094c1.827,0,3.303-2.091,3.303-4.671c0-2.581-1.477-4.671-3.303-4.671
		c-1.819,0-3.297,2.09-3.297,4.671C149.84,212.002,151.318,214.094,153.137,214.094"/>
	<path fill="#FFFFFF" d="M152.344,216.755c0-0.886-0.509-1.609-1.135-1.609s-1.137,0.723-1.137,1.609
		c0,0.887,0.511,1.605,1.137,1.605S152.344,217.642,152.344,216.755"/>
	<path fill="#FFFFFF" d="M220.144,285.214c-4.035-2.286-8.757-1.606-12.624,1.873c2.06-5.356-2.27-11.608-7.986-14.457
		c-1.531-0.765-3.159-1.157-4.76-1.239c-4.387-0.229-8.588,1.885-10.143,5.269c-0.268,0.584-0.462,1.206-0.559,1.858
		c-0.515,3.481,3.61,5.354,9.017,11.781c4.459,5.289,1.805,10.709-1.543,14.46c-4.422,4.95-10.297,8.024-13.657,0.536
		c-3.567-7.949-1.585-15.104,2.441-27.174c-2.159,0.594-4.408,0.983-6.668,0.983c-1.267,0-2.499-0.125-3.669-0.365
		c-4.513-0.94-7.13-3.754-6.996-7.522c0.159-4.539,4.253-8.771,9.122-9.429c1.466-0.205,3.385-0.307,5.243-0.403
		c1.861-0.098,3.79-0.198,5.105-0.401c0.711-0.104,1.396-0.201,2.072-0.29c3.439-21.245,1.925-43.289,0.307-49.374
		c-1.317-4.966-5.72-9.05-9.629-10.854c-3.517-1.624-6.944-2.253-10.564-2.332c0.948-5.157,2.811-9.991,6.196-11.21
		c2.035-0.738,4.617-0.171,7.881,2.406c0.478,0.376,0.89,0.815,1.28,1.258c1.256,1.426,2.284,2.923,4.525,2.806
		c7.83-0.412,4.903-11.444,1.283-15.147c-4.181-4.274-10.968-5.498-15.756-1.57c-2.45,2.009-6.258,7.395-6.258,10.76
		c-0.004-2.292-0.07-4.279-0.509-6.062c-0.315-1.294-0.828-2.48-1.651-3.599c-0.676-0.921-1.558-1.792-2.717-2.642
		c-3.479-2.545-7.985-3.257-12.015-1.776c-0.833,0.311-1.646,0.762-2.412,1.322c-1.341,0.975-2.53,2.284-3.401,3.77
		c-1.039,1.779-1.625,3.804-1.462,5.801c0.219,2.666,1.307,4.76,3.848,5.545c2.899,0.893,4.263-1.606,6.052-3.245
		c1.231-1.131,2.665-1.853,4.946-0.769c0.458,0.217,0.854,0.477,1.208,0.769c2.071,1.698,2.456,4.528,2.456,7.209
		c0,1.612,0,3.147-0.059,4.705c-2.632,0.272-5.426,0.672-8.464,1.069c-5.603,0.739-24.958,3.548-29.447,3.75
		c-10.34,0.47-22.323,1.278-31.232,6.956c-1.002,0.638-1.842,1.415-2.552,2.289c-3.169,3.937-4.122,5.099-4.159,10.065
		c-0.043,5.428,0.735,11.109,0.675,16.371c-0.046,3.641-2.923,3.94-2.923,7.962c0,5.64,1.542,4.826,2.576,10.709
		c0.296,1.699,0.495,3.405,0.636,5.122c0.457,5.549,0.3,11.199,0.851,16.903c0.159,1.644,0.377,3.292,0.687,4.943
		c0.166-3.467,1.009-6.548,2.472-8.973c1.431-2.354,3.333-3.823,5.314-4.134v-0.063l1.507-0.007v0.027
		c0.896,0.051,1.687,0.205,2.383,0.455c0.076-0.354,0.153-0.65,0.237-0.883c1.482-4.236,4.751-6.874,8.535-6.836
		c2.863,0.008,5.146,1.313,6.667,3.176c0.228-0.766,0.496-1.478,0.819-2.13c1.43-2.906,3.992-4.589,8.063-5.305
		c0.773-0.14,1.526-0.213,2.207-0.206c4.179,0,7.748,2.615,10.604,7.773c0.256-0.402,0.526-0.786,0.831-1.136
		c1.652-1.916,3.93-2.973,6.414-2.973c0.014,0,0.025,0,0.037,0c3.89,0,8.453,2.806,10.07,9.047c0.682-0.521,1.415-0.785,2.213-0.793
		c0.835,0,1.677,0.315,2.437,0.913c0.736,0.578,1.431,1.421,2.125,2.585c1.016,1.752,1.243,4.305,1.442,7.457
		c0.046,0.854,0.089,1.752,0.132,2.685c0.11,2.409,0.233,5.142,0.529,7.923c0.659,6.307,2.339,15.369,9.303,21.264
		c4.729,4.014,11.494,6.155,20.098,6.509c0.124,0.004,3.047-0.322,3.625-0.326c0.109,0.004,0.264,0.007,0.451,0.042
		c6.116-3.703,9.883-9.128,13.239-15.668c4.736-9.225,17.521-7.23,18.295-10.978C225.603,290.06,222.982,286.818,220.144,285.214
		 M185.837,186.271c1.512,5.914-4.351,5.052-4.519,1.601c-0.18-3.447-4.065-7.846-10.469-6.657
		C170.849,181.214,183.314,176.4,185.837,186.271 M148.437,179.408c-2.116,2.258-1.178,5.23-2.357,6.292
		c-2.74,2.463-7.333-0.595-3.542-6.952c3.573-5.997,11.998-4.928,14.536,0.346C153.934,176.206,150.102,177.632,148.437,179.408
		 M175.313,224.974c2.833,1.068,0.775,5.888,0.775,5.888c0.253-6.692-7.991-5.087-7.991-5.087S172.479,223.901,175.313,224.974
		 M163.294,187.16c0,5.774-1.325,8.696-1.325,8.696s1.329-12.311-2.537-18.081C159.432,177.776,163.294,180.503,163.294,187.16
		 M154.613,200.594c1.158,0,2.264,0.303,3.279,0.851c2.352,1.267,4.214,3.844,5.103,7.072c0.361,1.323,0.562,2.752,0.562,4.244
		c0,6.711-4.014,12.171-8.945,12.171c-4.936,0-8.947-5.46-8.947-12.171C145.667,206.054,149.678,200.594,154.613,200.594
		 M98.167,208.202c4.7,0,8.524,5.208,8.524,11.6c0,6.396-3.824,11.6-8.524,11.6c-4.704,0-8.528-5.203-8.528-11.6
		C89.639,213.409,93.463,208.202,98.167,208.202 M107.915,245.126c0,0,10.035-6.835,37.131,0.93
		C145.046,246.056,123.307,241.419,107.915,245.126 M141.224,241.566c-7.405-0.889-14.399-1.729-21.409-1.219
		c-15.957,1.15-27.968,5.557-32.373,9.163c-0.648,0.532-1.765,1.131-2.756,1.131c-0.332,0-0.65-0.066-0.932-0.226
		c-0.731-0.413-1.011-1.333-0.75-2.464c0.183-0.781,0.513-1.481,0.832-2.161c0.107-0.225,0.213-0.454,0.314-0.68
		c0.067-0.151,0.15-0.438,0.235-0.742c0.321-1.124,0.591-1.936,1.155-2.2l0.272-0.128l0.23,0.195
		c0.243,0.202,0.981,0.828-0.376,4.473c-0.11,0.299-0.167,0.567-0.185,0.75c0.088-0.051,0.171-0.098,0.253-0.148
		c0.067-0.042,0.137-0.081,0.205-0.12c0.235-0.136,0.473-0.279,0.71-0.419c0.289-0.175,0.579-0.347,0.873-0.514
		c1.865-1.087,3.878-2.075,5.98-2.946c3.174-1.301,6.521-2.343,10.239-3.194c4.708-1.068,9.662-1.756,15.148-2.098
		c5.627-0.351,11.45-0.311,17.798,0.116c1.715,0.117,3.359,0.229,4.929,0.338c19.411,1.34,27.446,1.893,28.656-3.595
		c0.182-0.808-1.047-1.923-2.312-2.451c-0.19-0.078-0.416-0.152-0.644-0.225c-0.812-0.265-1.731-0.568-2.003-1.337
		c-0.151-0.431-0.062-0.921,0.268-1.453c0.625-1.007,1.628-1.372,2.746-1.007c1.981,0.653,4.265,3.696,4.127,6.498
		c-0.09,1.854-1.166,7.923-11.244,8.11C154.356,243.136,147.679,242.34,141.224,241.566"/>
	<path fill="#FFFFFF" d="M164.643,315.274c0.015,0.007,0.031,0.015,0.043,0.027c1.061,0.733,2.176,1.406,3.346,2.013
		c-3.704-2.888-6.52-6.782-8.384-11.597c-1.071-2.763-1.759-5.618-2.226-8.435c-0.688-4.166-0.878-8.25-1.037-11.806
		c-0.097-2.11-0.182-3.93-0.356-5.464c-0.227-2.075-0.573-3-0.821-3.408c-0.629-1.057-1.127-1.562-1.432-1.799
		c-0.4-0.315-0.591-0.307-0.667-0.307c-0.17,0-0.47,0.14-0.823,0.532c-0.206,0.221-0.414,0.523-0.6,0.863
		c-0.01,0.015-0.021,0.029-0.029,0.046c-0.303,2.918-0.457,5.709-0.457,8.289c0,0.936,0.021,1.85,0.061,2.751
		C151.819,299.956,156.312,309.465,164.643,315.274"/>
	<path fill="#FFFFFF" d="M101.019,303.165c-4.284-8.963-5.181-17.991-5.181-23.979c0-1.523,0.062-2.996,0.177-4.324
		c-0.479-0.299-1.241-0.545-2.592-0.567l-0.175-0.005c-0.875,0.005-2.33,0.738-3.581,2.817c-1.354,2.234-2.099,5.344-2.099,8.755
		c0,1.279,0.104,2.612,0.305,3.961c0.334,2.203,1.89,9.975,7.927,17.447c5.01,6.202,11.772,10.628,20.148,13.219
		C109.477,316.194,104.471,310.405,101.019,303.165"/>
	<path fill="#FFFFFF" d="M129.796,317.497c-7.599-6.688-12.981-14.731-15.972-23.762c-1.84-5.547-2.783-11.469-2.783-17.674
		c0-0.777,0.018-1.608,0.054-2.607c0.004-0.112,0.004-0.198,0.004-0.288c0-0.36-0.037-0.702-0.089-1.032
		c-0.507-3.164-3.258-5.083-5.831-5.083c-2.461,0.015-4.442,1.573-5.621,4.398l-0.224,0.584c-0.064,0.188-0.202,0.796-0.329,1.787
		c-0.02,0.155-0.038,0.314-0.057,0.489c-0.112,0.999-0.245,2.653-0.245,4.872c0,4.664,0.639,13.819,4.906,22.76
		c4.611,9.638,12.169,16.554,22.455,20.564c0.321,0.125,0.633,0.237,0.949,0.354c1.051,0.393,2.086,0.761,3.089,1.093
		c5.998,1.969,11.147,2.863,14.98,3.248c-1.073-0.479-2.231-1.03-3.445-1.663C137.97,323.636,133.783,321.015,129.796,317.497"/>
	<path fill="#FFFFFF" d="M145.376,316.575c-6.215-8.168-10.578-20.513-13.329-37.716h-0.004l-0.113-0.738l-0.001-0.004l-0.114-0.746
		h0.011c-0.112-0.913-0.171-1.791-0.171-2.631c0-1.352,0.152-2.614,0.437-3.785c-0.34-0.722-0.686-1.402-1.036-2.031
		c-3.139-5.592-6.013-6.325-8.164-6.338c-0.513,0-1.068,0.054-1.647,0.155c-3.295,0.617-4.927,1.64-6.011,3.773
		c-0.649,1.286-1.084,3.101-1.337,5.606c0.045,0.351,0.074,0.695,0.074,1.042c0,0.141-0.004,0.275-0.014,0.412
		c-0.024,0.766-0.041,1.586-0.041,2.487c0,15.663,5.982,28.884,17.778,39.298c9.276,8.183,19.741,11.314,21.746,11.86
		c0.187,0.054,0.312,0.085,0.395,0.104c1.138,0.056,2.296,0.082,3.478,0.082h0.037h0.035c0.793,0,1.572-0.011,2.338-0.035
		C154.054,325.318,149.309,321.752,145.376,316.575"/>
	<path fill="#FFFFFF" d="M163.005,317.618c-9.612-6.658-14.688-18.203-14.68-33.388c0-2.602,0.156-5.366,0.447-8.228
		c-0.195-0.897-0.384-1.752-0.559-2.514c-1.27-5.335-4.78-7.24-7.403-7.243c-1.662,0.003-3.138,0.688-4.266,1.985
		c-0.603,0.696-1.069,1.546-1.402,2.521c-0.403,1.162-0.618,2.503-0.618,3.987c0,0.906,0.076,1.865,0.227,2.848l0.111,0.705
		l0.023,0.132h-0.003c1.196,7.483,2.698,14,4.521,19.624c2.248,6.936,4.988,12.504,8.26,16.799c2.533,3.317,5.371,5.882,8.596,7.768
		c3.823,2.233,8.199,3.505,13.3,3.881c0.036,0.005,0.075,0.009,0.11,0.009c1.115,0.073,2.249,0.109,3.342,0.116
		c2.588,0,4.919-0.218,6.971-0.548c2.532-0.408,4.64-0.983,6.272-1.543c-0.841-0.09-1.821-0.218-2.946-0.384
		C178.18,323.896,170.185,322.604,163.005,317.618"/>
</g>
</svg>
