<?xml version="1.0" encoding="utf-8"?>
<!-- Generator: Adobe Illustrator 16.0.0, SVG Export Plug-In . SVG Version: 6.00 Build 0)  -->
<!DOCTYPE svg PUBLIC "-//W3C//DTD SVG 1.1//EN" "http://www.w3.org/Graphics/SVG/1.1/DTD/svg11.dtd">
<svg version="1.1" id="Layer_1" xmlns="http://www.w3.org/2000/svg" xmlns:xlink="http://www.w3.org/1999/xlink" x="0px" y="0px"
	 width="500px" height="500px" viewBox="0 0 500 500" enable-background="new 0 0 500 500" xml:space="preserve">
<g>
	<g>
		<g>
			<g>
				<polygon fill="#FFFFFF" points="312.496,229.99 299.951,229.99 290.167,248.117 302.716,248.117 				"/>
				<path fill="#FFFFFF" d="M82.601,228.966h8.677c0,2.796,0,6.651,0,10.242h-8.677v7.979h8.677c0,7.639,0,13.669,0,14.133
					c0,7.691,4.395,10.875,11.291,10.875c3.555,0,11.117,0,11.117,0v-7.104c0,0-3.704,0-5.636,0c-3.89,0-4.892-1.739-4.892-5.925
					c0-0.104,0.007-6.085,0.017-11.979h10.511v-7.979h-10.496c0.01-3.534,0.011-7.413,0.017-10.242h10.479v-7.981H92.093h-9.493
					L82.601,228.966L82.601,228.966z"/>
				<path fill="#FFFFFF" d="M191.956,245.953v2.609v5.528v10.182v5.529v2.607c0,0,59.312,0,63.003,0
					c13.325,0,17.704-5.436,17.704-14.182c0-4.166,0-4.137,0-4.137v-8.137h-11.944H191.956L191.956,245.953z M259.463,259.861
					c0,4.11-2.071,5.471-5.916,5.471c-1.635,0-48.394,0-48.394,0v-12.303h54.31C259.463,253.029,259.463,257.385,259.463,259.861z"
					/>
				<path fill="#FFFFFF" d="M333.29,234.655h-12.261h-0.49l-20.613,37.754h13.8l16.034-29.39h11.033l-15.963,29.39h13.799
					l15.968-29.39h6.777c0,0,0,9.168,0,12.076c0,3.838-1.481,8.248-6.225,8.248c-0.288,0-1.011,0-1.011,0l-4.944,9.066
					c0,0,1.446,0,8.076,0c10.345,0,16.047-7.376,16.047-17.188c0-6.282,0-11.502,0-11.502v-9.064h-11.943H333.29z"/>
				<path fill="#FFFFFF" d="M151.639,211.564v-21.855h-11.944v21.855c0,0-5.177,0-10.913,0c-5.734,0-8.32,3.724-8.32,6.956
					c0,2.437,0,53.89,0,53.89h11.948v-17.278h20.725v-7.979h-20.725v-9.681h20.725v-7.978h-20.725c0,0,0-7.744,0-8.45
					c0-1.061,0.489-2.028,2.372-2.028c1.887,0,20.221,0,21.633,0c1.414,0,2.01,0.967,2.01,2.028c0,0.706,0,51.366,0,51.366h11.943
					c0,0,0-50.825,0-53.89c0-4.153-2.61-6.956-7.32-6.956C159.354,211.564,151.639,211.564,151.639,211.564z"/>
				<path fill="#FFFFFF" d="M357.249,189.709c-3.721,0-48.318,0-53.081,0c-2.523,0-4.242,1.791-4.242,3.991c0,1.569,0,33.52,0,33.52
					h5.556h6.391h49.502h7.015h4.094c0,0,0-1.567,0-4.015c0-8.528,0-17.888,0-19.107
					C372.484,194.715,367.79,189.709,357.249,189.709z M311.872,220.047v-7.289h42.465v-8.233h-42.465v-7.641c0,0,39.076,0,43.486,0
					c4.146,0,6.016,3.367,6.016,6.75c0,1.623,0,16.413,0,16.413H311.872L311.872,220.047z"/>
				<polygon fill="#FFFFFF" points="249.301,189.709 235.584,189.709 235.584,195.051 211.443,195.051 211.443,202.498 
					235.584,202.498 235.584,207.84 211.443,207.84 211.443,215.288 235.584,215.288 235.584,220.628 211.443,220.628 
					211.443,228.081 235.584,228.081 235.584,233.419 211.443,233.419 211.443,240.87 272.663,240.87 272.663,233.419 
					249.301,233.419 249.301,228.081 272.663,228.081 272.663,220.628 249.301,220.628 249.301,215.288 272.663,215.288 
					272.663,207.84 249.301,207.84 249.301,202.498 272.663,202.498 272.663,195.051 249.301,195.051 				"/>
				<polygon fill="#FFFFFF" points="137.218,208.313 131.124,189.709 119.571,189.709 125.666,208.313 				"/>
				<polygon fill="#FFFFFF" points="154.607,208.313 166.062,208.313 172.158,189.709 160.703,189.709 				"/>
				<polygon fill="#FFFFFF" points="207.885,189.709 194.084,189.709 184.306,207.84 191.588,207.84 191.588,240.87 198.199,240.87 
					203.531,240.87 204.79,240.87 204.79,195.451 				"/>
				<polygon fill="#FFFFFF" points="95.111,206.095 95.111,204.039 101.525,192.402 88.982,192.402 82.601,204.05 82.601,214.255 
					87.386,214.255 90.381,214.255 113.613,214.255 113.613,206.095 				"/>
			</g>
		</g>
	</g>
	<path fill="#FFFFFF" d="M434.204,218.389c2.863,0,5.195-2.333,5.195-5.196v-28.469c0-0.582-0.115-1.187-0.34-1.796
		c-0.017-0.043-0.031-0.094-0.048-0.144c-0.003-0.024-0.008-0.048-0.018-0.069c-0.019-0.045-0.036-0.07-0.051-0.097
		c-0.026-0.044-0.052-0.089-0.075-0.137c-0.878-1.819-2.665-2.949-4.664-2.949h-28.396c-2.862,0-5.196,2.331-5.196,5.196
		c0,2.866,2.334,5.196,5.196,5.196h15.849l-22.723,22.725c-0.984,0.982-1.524,2.288-1.524,3.676c0,1.387,0.542,2.692,1.524,3.673
		c0.982,0.983,2.289,1.523,3.675,1.523c1.388,0,2.692-0.54,3.673-1.523l22.725-22.722v15.918
		C429.006,216.057,431.338,218.389,434.204,218.389z"/>
	<g>
		<path fill="#FFFFFF" d="M139.969,312.49c0,0.065,0.065,0.397,0.199,0.995c0.133,0.533,0.233,0.934,0.3,1.199
			c-0.865,0.598-2.094,1.495-3.691,2.693c-0.333,0.132-0.566,0.264-0.698,0.398c-0.533,0.464-0.965,0.93-1.297,1.395l-1.595-1.595
			c0.664-0.4,0.963-1.196,0.897-2.393v-8.281h-3.492v-1.795h5.487v10.477c0.132-0.069,0.332-0.235,0.598-0.502
			C138.073,314.019,139.171,313.151,139.969,312.49z M134.482,297.428c0.533,0.464,1.363,1.263,2.493,2.394
			c0.8,0.729,1.331,1.229,1.598,1.494l-1.598,1.498c-0.265-0.268-0.697-0.732-1.296-1.398c-1.198-1.196-2.095-2.095-2.693-2.693
			L134.482,297.428z M144.657,297.027h1.996v7.081h6.785v1.797h-6.785v11.37h7.981v1.599h-16.06v-1.599h6.083V297.027
			L144.657,297.027z"/>
		<path fill="#FFFFFF" d="M163.379,304.108c1.462-1.928,2.727-4.422,3.791-7.48l1.795,0.697c-0.133,0.269-0.299,0.665-0.499,1.198
			c-0.133,0.266-0.434,0.897-0.897,1.894h4.388v1.596h-5.287c-0.665,1.268-1.43,2.53-2.293,3.794
			C164.043,305.206,163.712,304.642,163.379,304.108z M163.479,309.495h3.292v-3.293h-1.595v-1.594h6.184v1.594h-2.792v3.293h3.292
			v1.696h-3.292v5.688c0.998-0.534,2.061-1.13,3.192-1.797c0,0.733,0.033,1.396,0.1,1.995c-0.865,0.267-2.03,0.863-3.491,1.795
			c-0.335,0.202-0.666,0.499-0.997,0.898l-1.298-1.697c0.532-0.462,0.764-1.029,0.698-1.693v-5.188h-3.292V309.495z
			 M172.058,298.425l1.396-0.997c0.932,0.931,2.062,2.193,3.393,3.787l-1.597,1.297
			C174.253,300.917,173.188,299.555,172.058,298.425z M174.453,320.27h-1.696v-16.658h5.686v-6.885h1.695v6.885h5.686v13.466
			c0.134,1.997-0.932,2.993-3.191,2.993c-0.999,0.065-2.062,0.099-3.192,0.099c-0.068-0.664-0.2-1.331-0.4-1.994
			c1.33,0.131,2.494,0.2,3.492,0.2c1.063,0,1.595-0.467,1.595-1.396v-2.195h-9.675V320.27L174.453,320.27z M174.453,305.306v3.094
			h9.675v-3.094H174.453z M174.453,309.996v3.089h9.675v-3.089H174.453z M181.535,301.616c1.13-1.132,2.294-2.494,3.492-4.089
			l1.496,1.096c-1.331,1.661-2.562,3.027-3.691,4.09L181.535,301.616z"/>
		<path fill="#FFFFFF" d="M207.539,297.227l1.596-0.801c0.598,0.869,1.162,1.765,1.695,2.696l-0.798,0.397h8.979v1.497h-8.58v1.797
			h7.882v1.493h-7.882v1.799h7.882v1.394h-7.882v1.797h9.078v1.495h-18.753v0.999h-1.796v-8.179
			c-0.598,0.663-1.231,1.395-1.895,2.193c-0.134-0.2-0.333-0.53-0.599-0.996c-0.265-0.267-0.433-0.467-0.498-0.599
			c2.395-2.263,4.222-4.789,5.486-7.584l1.696,0.601c-0.399,0.796-0.833,1.562-1.298,2.292h6.984
			c-0.068-0.134-0.201-0.398-0.399-0.798C208.303,298.523,208.003,298.024,207.539,297.227z M199.06,312.688h18.255v7.582h-1.796
			v-1.195h-14.663v1.195h-1.796V312.688L199.06,312.688z M200.855,301.017c0,0.068-0.035,0.135-0.1,0.198v1.599h7.88v-1.797H200.855
			L200.855,301.017z M200.756,304.309v1.797h7.88v-1.797H200.756z M200.756,307.5v1.797h7.88V307.5H200.756z M200.855,314.284v3.292
			h14.663v-3.292H200.855z"/>
		<path fill="#FFFFFF" d="M228.754,318.772c3.592-0.732,5.986-1.395,7.184-1.992c-1.064-0.732-2.262-1.83-3.591-3.295l1.496-1.095
			c1.063,1.395,2.26,2.461,3.591,3.19c0.998-1.063,1.63-2.262,1.896-3.591h-7.681v-10.176h8.28v-2.193h-10.274v-1.698h22.145v1.698
			h-10.076c0,0.598,0,1.33,0,2.193h8.279v11.372h-1.795v-1.196h-6.983c-0.332,1.795-1.031,3.292-2.095,4.488
			c2.727,0.933,7.284,1.43,13.668,1.496c-0.134,0.197-0.334,0.633-0.599,1.296c-0.135,0.333-0.234,0.531-0.301,0.599
			c-7.049-0.266-11.77-1.031-14.165-2.293c-1.463,0.996-4.089,1.961-7.88,2.893C229.519,319.87,229.154,319.305,228.754,318.772z
			 M233.444,303.512v2.594h6.484c0-0.8,0-1.662,0-2.594H233.444z M239.628,310.295c0.133-0.731,0.2-1.596,0.2-2.595h-6.384v2.595
			H239.628z M241.623,307.7c0,0.999-0.067,1.863-0.199,2.595h6.783V307.7H241.623z M248.207,303.512h-6.483c0,0.932,0,1.794,0,2.594
			h6.483V303.512z"/>
		<path fill="#FFFFFF" d="M273.212,304.21l1.798,0.699c-0.2,0.198-0.4,0.396-0.6,0.597c3.325,3.259,6.949,5.387,10.875,6.385
			l-0.102,0.198c-0.334,0.599-0.597,1.131-0.797,1.597c-0.535-0.2-1.232-0.499-2.096-0.897c-0.533-0.199-0.897-0.331-1.098-0.397
			v7.879h-1.795v-1.097h-11.97v1.097h-1.896v-7.779c-0.999,0.595-2.064,1.13-3.193,1.594c-0.332-0.599-0.664-1.163-0.999-1.693
			C266.462,310.528,270.42,307.799,273.212,304.21z M272.115,296.927l1.995-0.299c0.067,0.135,0.134,0.365,0.2,0.697
			c0.199,0.998,0.334,1.73,0.399,2.194h9.677v4.392h-1.896v-2.696h-18.154v2.696h-1.896v-4.392h10.274
			C272.647,298.722,272.449,297.859,272.115,296.927z M270.021,302.314l1.197,1.497c-2.994,1.859-5.486,3.257-7.482,4.187
			c-0.268-0.531-0.634-1.062-1.098-1.596C265.432,305.141,267.892,303.777,270.021,302.314z M273.412,306.702
			c-1.996,1.997-4.222,3.692-6.683,5.088h13.468C277.535,310.462,275.275,308.765,273.412,306.702z M267.429,313.485v4.091h11.97
			v-4.091H267.429z M276.507,302.314c2.657,1.197,5.152,2.459,7.479,3.791l-1.098,1.693c-2.527-1.527-4.985-2.858-7.381-3.987
			L276.507,302.314z"/>
		<path fill="#FFFFFF" d="M294.23,312.986c2.526-1.395,4.588-3.291,6.185-5.687l1.695,0.599c-0.268,0.469-0.564,0.899-0.896,1.3
			h15.261c-0.066,1.396-0.165,3.325-0.297,5.785c0,3.522-1.632,5.186-4.89,4.988c-0.467,0.064-1.263,0.064-2.396,0
			c-0.467,0-0.796,0-0.996,0c-0.068-0.733-0.168-1.399-0.297-1.997c0.861,0.065,2.058,0.099,3.591,0.099
			c2.059,0.2,3.123-0.862,3.19-3.189c0.064-1.132,0.132-2.493,0.198-4.091h-3.69c-0.664,3.925-3.558,7.149-8.679,9.676
			c-0.066-0.135-0.198-0.3-0.398-0.497c-0.266-0.401-0.534-0.733-0.798-0.999c4.722-1.994,7.412-4.72,8.079-8.18h-3.592
			c-1.33,3.324-4.589,5.987-9.774,7.979c-0.067-0.066-0.168-0.2-0.298-0.397c-0.333-0.467-0.635-0.764-0.898-0.897
			c4.919-1.729,7.947-3.956,9.076-6.685h-3.889c-1.198,1.464-2.661,2.692-4.39,3.691
			C294.992,313.952,294.629,313.453,294.23,312.986z M297.323,297.824h17.755v9.177h-17.755V297.824z M299.118,299.421v1.994h14.065
			v-1.994H299.118z M299.118,303.11v2.294h14.065v-2.294H299.118z"/>
	</g>
</g>
</svg>
