<?xml version="1.0" encoding="utf-8"?>
<!-- Generator: Adobe Illustrator 16.0.0, SVG Export Plug-In . SVG Version: 6.00 Build 0)  -->
<!DOCTYPE svg PUBLIC "-//W3C//DTD SVG 1.1//EN" "http://www.w3.org/Graphics/SVG/1.1/DTD/svg11.dtd">
<svg version="1.1" id="Layer_1" xmlns="http://www.w3.org/2000/svg" xmlns:xlink="http://www.w3.org/1999/xlink" x="0px" y="0px"
	 width="500px" height="500px" viewBox="0 0 500 500" enable-background="new 0 0 500 500" xml:space="preserve">
<g>
	<path fill="#FFFFFF" d="M203.067,241.043c-3.827,0-7.181,2.44-9.055,6.097c-6.38-13.899-19.649-26.777-36.05-32.08
		c-8.85-3.548-15.063-10.36-15.831-18.32c-0.769,7.96-6.983,14.772-15.833,18.32c-16.398,5.303-29.669,18.181-36.049,32.08
		c-1.874-3.657-5.229-6.097-9.054-6.097c-5.876,0-10.64,5.748-10.64,12.84c0,7.09,4.763,12.839,10.64,12.839
		c1.788,0,3.471-0.535,4.95-1.475c0.505,23.026,25.365,37.973,55.986,38.012c30.622-0.039,55.482-14.985,55.987-38.012
		c1.48,0.939,3.163,1.475,4.95,1.475c5.876,0,10.64-5.749,10.64-12.839C213.707,246.792,208.943,241.043,203.067,241.043
		 M86.031,257.896c-0.497,1.85-2.714,2.635-4.949,1.758c-2.235-0.877-3.645-3.084-3.147-4.934c0.499-1.849,2.714-2.636,4.95-1.76
		C85.122,253.838,86.53,256.048,86.031,257.896 M142.13,296.851c-24.561-0.04-44.45-11.671-44.45-28.32
		c0-0.351,0.012-0.695,0.029-1.04c0.006-0.114,0.011-0.229,0.02-0.341c0.015-0.235,0.036-0.47,0.059-0.703
		c0.031-0.312,0.067-0.626,0.114-0.936c0.003-0.031,0.008-0.062,0.012-0.093c0.494-3.272,1.761-8.266,3.672-11.145
		c4.592-6.676,12.784-11.124,22.131-11.124c7.195,0,13.701,2.639,18.414,6.899c4.71-4.26,11.217-6.899,18.412-6.899
		c9.346,0,17.539,4.447,22.131,11.124c1.912,2.879,3.177,7.872,3.671,11.145c0.004,0.03,0.009,0.062,0.014,0.093
		c0.045,0.31,0.083,0.623,0.114,0.936c0.023,0.233,0.044,0.468,0.06,0.703c0.006,0.112,0.012,0.228,0.018,0.341
		c0.017,0.346,0.03,0.689,0.03,1.04C186.582,285.182,166.692,296.812,142.13,296.851 M203.179,259.654
		c-2.236,0.877-4.451,0.088-4.951-1.758c-0.497-1.849,0.913-4.059,3.147-4.936c2.236-0.877,4.451-0.088,4.95,1.76
		C206.824,256.57,205.415,258.779,203.179,259.654 M169.483,261.939c1.288,0,2.333-1.261,2.333-2.816
		c0-1.555-1.044-2.814-2.333-2.814c-1.289,0-2.333,1.26-2.333,2.814C167.151,260.679,168.194,261.939,169.483,261.939
		 M114.078,261.939c1.288,0,2.333-1.261,2.333-2.816c0-1.555-1.045-2.814-2.333-2.814c-1.288,0-2.333,1.26-2.333,2.814
		C111.745,260.679,112.79,261.939,114.078,261.939"/>
	<path fill="#FFFFFF" d="M257.212,287.097c-0.082-0.366-0.234-0.708-0.459-1.027c-0.225-0.316-0.506-0.595-0.843-0.828
		c-0.335-0.235-0.723-0.421-1.159-0.557c-0.438-0.134-0.907-0.201-1.407-0.201c-0.712,0-1.356,0.116-1.936,0.348
		c-0.58,0.232-1.073,0.573-1.48,1.027c-0.407,0.451-0.721,1.017-0.942,1.693c-0.22,0.677-0.33,1.463-0.33,2.359
		c0,0.897,0.109,1.688,0.33,2.371c0.22,0.685,0.536,1.259,0.942,1.722c0.407,0.464,0.897,0.816,1.469,1.056
		c0.571,0.239,1.21,0.357,1.912,0.357c1.062,0,1.936-0.236,2.624-0.712c0.688-0.474,1.114-1.168,1.278-2.082h0.932
		c-0.09,0.586-0.273,1.106-0.55,1.566c-0.276,0.459-0.625,0.846-1.043,1.161c-0.42,0.313-0.901,0.553-1.447,0.718
		s-1.135,0.246-1.772,0.246c-0.865,0-1.646-0.15-2.338-0.454c-0.692-0.303-1.279-0.731-1.766-1.283
		c-0.486-0.554-0.86-1.227-1.123-2.015c-0.261-0.788-0.393-1.672-0.393-2.651c0-0.972,0.131-1.848,0.393-2.625
		c0.263-0.778,0.639-1.441,1.128-1.99s1.079-0.972,1.772-1.268c0.69-0.296,1.467-0.442,2.326-0.442c0.592,0,1.152,0.084,1.688,0.257
		c0.535,0.173,1.015,0.413,1.439,0.724c0.428,0.31,0.786,0.682,1.077,1.11c0.294,0.431,0.494,0.902,0.606,1.419L257.212,287.097
		L257.212,287.097z M275.26,283.587c0.837,0,1.611,0.15,2.321,0.448c0.709,0.298,1.32,0.726,1.833,1.276
		c0.512,0.556,0.912,1.22,1.2,1.999c0.287,0.777,0.431,1.645,0.431,2.602c0,0.949-0.142,1.816-0.427,2.602
		c-0.282,0.783-0.682,1.459-1.192,2.023c-0.513,0.565-1.122,1.004-1.828,1.312c-0.707,0.309-1.487,0.465-2.338,0.465
		c-0.854,0-1.635-0.156-2.346-0.465c-0.708-0.309-1.32-0.745-1.832-1.307s-0.91-1.233-1.195-2.019
		c-0.282-0.785-0.426-1.656-0.426-2.613c0-0.965,0.144-1.836,0.433-2.613c0.288-0.777,0.688-1.44,1.204-1.989
		c0.517-0.552,1.128-0.977,1.835-1.273C273.639,283.737,274.414,283.587,275.26,283.587 M275.247,295.418
		c0.703,0,1.352-0.12,1.946-0.363s1.108-0.602,1.543-1.072c0.434-0.47,0.77-1.048,1.008-1.732c0.239-0.684,0.36-1.464,0.36-2.338
		c0-0.883-0.121-1.661-0.365-2.333c-0.243-0.672-0.58-1.239-1.01-1.699c-0.428-0.46-0.938-0.808-1.524-1.043
		s-1.227-0.354-1.923-0.354c-0.712,0-1.363,0.12-1.957,0.36c-0.596,0.239-1.108,0.588-1.542,1.048s-0.772,1.024-1.016,1.699
		c-0.242,0.672-0.365,1.445-0.365,2.322c0,0.873,0.12,1.653,0.359,2.338c0.239,0.684,0.574,1.262,1.006,1.732
		c0.428,0.47,0.941,0.829,1.535,1.071C273.896,295.298,274.545,295.418,275.247,295.418 M302.726,289.854
		c0,4.158-2.065,6.235-6.2,6.235h-3.713v-12.269h3.713c2.07,0,3.622,0.499,4.654,1.497
		C302.212,286.317,302.726,287.829,302.726,289.854 M301.773,289.854c0-0.808-0.081-1.527-0.241-2.164
		c-0.161-0.636-0.443-1.176-0.847-1.622c-0.404-0.442-0.943-0.781-1.621-1.014c-0.676-0.23-1.53-0.348-2.562-0.348h-2.793v10.486
		h2.793c1.024,0,1.873-0.12,2.551-0.359c0.676-0.238,1.216-0.588,1.62-1.049c0.404-0.458,0.688-1.018,0.854-1.676
		C301.69,291.452,301.773,290.701,301.773,289.854 M323.476,296.09h-8.87v-12.28h8.568v0.897h-7.672v4.543h7.189v0.896h-7.189v5.048
		h7.974V296.09L323.476,296.09z M366.12,296.09h-0.896v-10.811l-4.421,10.811h-0.94l-4.408-10.811v10.811h-0.897v-12.28h1.302
		l4.475,11.159l4.508-11.159h1.278L366.12,296.09L366.12,296.09z M388.126,296.09h-1.076l-1.503-3.947h-6.045
		c-0.218,0.621-0.452,1.276-0.707,1.969c-0.254,0.691-0.496,1.352-0.729,1.979h-0.953c0.404-1.062,0.803-2.1,1.194-3.115
		c0.394-1.018,0.782-2.03,1.173-3.035c0.389-1.006,0.78-2.017,1.172-3.033c0.393-1.018,0.792-2.052,1.192-3.106h1.268
		L388.126,296.09z M385.289,291.438l-2.849-6.831l-2.702,6.831H385.289z M409.077,296.09h-0.986l-1.223-3.262
		c-0.119-0.314-0.253-0.609-0.397-0.888c-0.147-0.275-0.316-0.517-0.51-0.722c-0.194-0.207-0.418-0.368-0.668-0.488
		c-0.251-0.119-0.543-0.18-0.88-0.18h-4.295v5.539h-0.898v-12.28h5.53c0.515,0,1.015,0.048,1.497,0.141
		c0.482,0.094,0.91,0.261,1.288,0.5c0.378,0.238,0.679,0.57,0.904,0.992c0.223,0.423,0.335,0.962,0.335,1.62
		c0,0.412-0.05,0.795-0.15,1.15c-0.102,0.354-0.256,0.672-0.461,0.952c-0.205,0.281-0.466,0.521-0.784,0.719
		c-0.319,0.197-0.689,0.342-1.117,0.433c0.233,0.179,0.424,0.351,0.573,0.514c0.148,0.166,0.278,0.34,0.388,0.527
		c0.107,0.187,0.204,0.393,0.29,0.617c0.088,0.226,0.186,0.483,0.298,0.773L409.077,296.09z M400.117,289.652h4.261
		c0.605,0,1.125-0.043,1.559-0.134c0.435-0.09,0.792-0.237,1.07-0.442c0.281-0.205,0.488-0.474,0.622-0.802
		c0.136-0.329,0.203-0.733,0.203-1.212c0-0.845-0.267-1.447-0.801-1.811c-0.536-0.362-1.334-0.545-2.396-0.545h-4.518V289.652
		L400.117,289.652z M429.445,284.707h-4.295v11.383h-0.896v-11.383h-4.251v-0.897h9.442V284.707z"/>
	<path fill="#FFFFFF" d="M248.692,213.612v-5.553h28.721v5.553H265.99c-1.088,5.662-1.233,8.488-5.005,15.865
		c-3.773,7.374-11.097,13.424-13.272,15.166v-6.207c5.657-6.533,9.139-14.809,10.444-24.825L248.692,213.612L248.692,213.612z"/>
	<rect x="279.045" y="251.503" fill="#FFFFFF" width="29.048" height="5.878"/>
	<rect x="354.561" y="209.257" fill="#FFFFFF" width="74.329" height="6.968"/>
	<path fill="#FFFFFF" d="M400.001,209.278c-4.468-1.811-7.601-5.261-7.989-9.291c-0.39,4.029-3.522,7.479-7.988,9.291H400.001z"/>
	<polygon fill="#FFFFFF" points="253.791,269.949 253.791,258.334 249.145,258.334 249.145,272.271 249.145,274.595 
		263.082,274.595 263.082,269.949 	"/>
	<polygon fill="#FFFFFF" points="267.715,244.271 267.715,255.885 272.36,255.885 272.36,239.626 270.008,239.626 258.362,239.626 
		258.362,244.271 	"/>
	<rect x="387.08" y="226.678" fill="#FFFFFF" width="9.291" height="51.101"/>
	<rect x="387.087" y="222.033" fill="#FFFFFF" width="9.291" height="3.484"/>
	<rect x="387.087" y="218.571" fill="#FFFFFF" width="9.291" height="2.323"/>
	<rect x="387.087" y="216.248" fill="#FFFFFF" width="9.291" height="1.162"/>
	<path fill="#FFFFFF" d="M401.017,230.235h14.478v25.478c0.22,4.138-1.631,6.097-5.548,5.879h-4.896v6.206h6.854
		c8.485,0.219,12.512-3.809,12.076-12.085v-31.357H382.75h-22.739v43.771h8.812v-37.891h13.612v-5.879h18.582V230.235
		L401.017,230.235z"/>
	<path fill="#FFFFFF" d="M307.505,235.493v0.004h-11.751c-3.481,0.218-5.113-1.525-4.895-5.227v-14.045h-8.161v16.005
		c-0.217,6.098,2.829,9.037,9.14,8.82h20.562v23.519c0.218,4.136-1.959,6.097-6.527,5.88h-7.834v5.552h10.445
		c8.486,0.218,12.511-3.484,12.075-11.106v-29.402h-3.012L307.505,235.493L307.505,235.493z M307.505,230.848v-19.195h-26.111
		v-5.879h34.271v25.074H307.505z"/>
</g>
</svg>
