<?xml version="1.0" encoding="utf-8"?>
<!-- Generator: Adobe Illustrator 16.0.0, SVG Export Plug-In . SVG Version: 6.00 Build 0)  -->
<!DOCTYPE svg PUBLIC "-//W3C//DTD SVG 1.1//EN" "http://www.w3.org/Graphics/SVG/1.1/DTD/svg11.dtd">
<svg version="1.1" id="Layer_1" xmlns="http://www.w3.org/2000/svg" xmlns:xlink="http://www.w3.org/1999/xlink" x="0px" y="0px"
	 width="500px" height="500px" viewBox="0 0 500 500" enable-background="new 0 0 500 500" xml:space="preserve">
<path fill="#FFFFFF" d="M321.423,122.028H180.656c-31.805,0-57.587,25.784-57.587,57.588v140.768
	c0,31.804,25.782,57.588,57.587,57.588h140.767c31.804,0,57.588-25.784,57.588-57.588V179.616
	C379.011,147.812,353.227,122.028,321.423,122.028z M314.67,304.183c-0.863,3.026-3.327,5.303-6.433,5.944l-110.944,22.87
	c-0.567,0.117-1.149,0.173-1.726,0.173c-2.899,0-5.567-1.444-7.132-3.872c-1.883-2.907-1.76-6.735,0.304-9.523l97.823-131.834
	l-73.345,15.118l23.974,22.424L227.11,239.17l-37.358-34.943c-2.307-2.166-3.203-5.385-2.34-8.412c0.866-3.019,3.33-5.3,6.43-5.946
	l110.947-22.867c3.438-0.703,6.979,0.788,8.859,3.692c1.883,2.912,1.761,6.739-0.305,9.531l-97.823,131.831l73.345-15.114
	l-23.935-22.392l10.078-13.691l37.32,34.917C314.638,297.937,315.534,301.156,314.67,304.183z"/>
</svg>
