<?xml version="1.0" encoding="utf-8"?>
<!-- Generator: Adobe Illustrator 16.0.0, SVG Export Plug-In . SVG Version: 6.00 Build 0)  -->
<!DOCTYPE svg PUBLIC "-//W3C//DTD SVG 1.1//EN" "http://www.w3.org/Graphics/SVG/1.1/DTD/svg11.dtd">
<svg version="1.1" id="Layer_1" xmlns="http://www.w3.org/2000/svg" xmlns:xlink="http://www.w3.org/1999/xlink" x="0px" y="0px"
	 width="500px" height="500px" viewBox="0 0 500 500" enable-background="new 0 0 500 500" xml:space="preserve">
<g>
	<g>
		<path fill="#FFFFFF" d="M258.754,221.002c-0.958-3.707-3.084-6.522-6.311-8.443c-3.158-1.992-7.961-2.953-14.417-2.953
			c-1.508,0-2.949,0.071-4.322,0.21c-6.108,0.683-11.464,2.812-16.13,6.313c-2.747,2.126-5.009,4.596-6.862,7.34
			c-1.924,2.884-3.362,6.179-4.324,9.747c-1.304,4.942-1.304,9.269,0,12.974c0.962,2.741,2.4,4.942,4.324,6.587
			c0.617,0.551,1.304,0.962,2.058,1.374c3.019,1.714,7.482,2.539,13.452,2.539c2.678,0,5.146-0.138,7.482-0.412
			c3.5-0.48,6.52-1.305,9.059-2.539c4.254-1.924,8.235-5.216,11.943-9.744l-16.541-1.577c-1.443,1.37-2.676,2.331-3.774,2.88
			c-0.206,0.14-0.484,0.205-0.687,0.342c-1.51,0.62-3.023,0.893-4.461,0.893c-2.678,0-4.601-0.962-5.763-2.881
			c-0.826-1.373-1.031-3.434-0.62-6.246h10.844h23.676l0.551-1.923C259.443,229.511,259.719,224.707,258.754,221.002z
			 M242.078,229.168h-8.373h-8.647c0.959-2.678,2.196-4.737,3.567-6.038c1.579-1.58,3.228-2.541,5.08-3.022
			c0.753-0.207,1.511-0.275,2.335-0.275c2.399,0,4.118,0.688,5.216,2.198C242.352,223.401,242.627,225.805,242.078,229.168z"/>
		<polygon fill="#FFFFFF" points="216.065,210.635 210.713,210.635 198.63,210.635 182.094,239.188 180.787,210.635 
			162.809,210.635 169.806,255.659 185.111,255.659 210.713,218.391 		"/>
		<polygon fill="#FFFFFF" points="148.464,193.479 145.442,205.216 162.67,205.216 165.757,193.479 		"/>
		<polygon fill="#FFFFFF" points="132.335,240.356 132.266,240.356 102.339,240.356 114.626,193.479 95.406,193.479 79.072,255.659 
			128.354,255.659 132.266,240.629 		"/>
		<polygon fill="#FFFFFF" points="132.266,255.452 132.196,255.659 132.266,255.659 149.493,255.659 161.295,210.635 
			144.002,210.635 		"/>
		<path fill="#FFFFFF" d="M422.238,203.227c-0.477-1.854-1.371-3.57-2.607-5.22c-1.305-1.646-3.157-3.018-5.558-4.045
			c-2.403-1.033-5.694-1.513-9.888-1.513c-3.153,0-6.106,0.275-8.851,0.891c-4.806,1.099-8.992,3.159-12.49,6.177
			c-5.491,4.74-9.748,12.973-12.834,24.847c-0.617,2.265-1.099,4.528-1.511,6.657c-0.344,2.267-0.618,4.394-0.686,6.521
			c-0.209,3.502,0.068,6.312,0.686,8.511c0.137,0.274,0.207,0.616,0.343,0.822c1.235,3.227,3.224,5.698,5.97,7.344
			c2.816,1.716,6.865,2.541,12.081,2.541c3.02,0,5.834-0.276,8.441-0.825c5.422-1.166,9.813-3.498,13.315-7.07
			c5.217-5.212,9.265-13.449,12.217-24.773c1.304-5.011,1.991-9.814,2.059-14.484C422.995,207.137,422.792,205.009,422.238,203.227z
			 M403.504,224.843c-1.513,5.631-2.885,9.746-4.188,12.423c-1.167,2.472-2.472,4.254-3.981,5.491
			c-0.068,0.139-0.206,0.207-0.344,0.344c-1.646,1.234-3.293,1.854-5.078,1.854c-2.678,0-4.323-1.443-4.944-4.393
			c-0.611-2.882,0.071-8.236,2.131-16.199c2.057-7.824,4.117-13.177,6.177-16.128c0.617-0.892,1.302-1.719,2.059-2.333
			c1.579-1.306,3.292-1.992,5.216-1.992c2.815,0,4.527,1.441,5.219,4.257C406.388,211.051,405.631,216.608,403.504,224.843z"/>
		<path fill="#FFFFFF" d="M315.103,210.566c0.136-0.478,0.278-0.961,0.414-1.438c0.819-3.226,0.684-6.038-0.414-8.578
			c-0.547-1.169-1.371-2.334-2.401-3.364c-3.157-3.157-8.854-4.736-17.159-4.736c-1.304,0-2.605,0-3.843,0.139
			c-4.668,0.411-8.786,1.646-12.356,3.636c-5.764,3.294-9.328,7.551-10.638,12.767c-0.893,3.157-0.751,5.973,0.343,8.441
			c0.759,1.784,2.335,3.362,4.669,4.805c-3.91,1.373-7.069,3.361-9.402,5.901c-2.332,2.54-4.05,5.631-5.01,9.268
			c-0.963,3.706-0.893,7.137,0.066,10.155c1.032,3.02,3.089,5.284,6.181,6.862c3.087,1.579,7.892,2.336,14.478,2.336
			c3.504,0,6.936-0.344,10.16-1.031c0.548-0.136,1.029-0.275,1.51-0.411c2.676-0.619,5.077-1.646,7.138-2.881
			c2.472-1.444,4.735-3.505,6.865-6.246c2.123-2.678,3.639-5.627,4.462-8.716c0.82-3.226,0.751-6.178-0.208-8.785
			c-0.964-2.676-2.885-4.807-5.837-6.452c2.952-1.716,5.289-3.433,7.002-5.217C312.976,214.963,314.277,212.835,315.103,210.566z
			 M293.003,236.788c-0.342,1.097-0.753,2.127-1.304,3.157c-0.757,1.302-1.716,2.54-2.95,3.566c-2.13,1.717-4.188,2.608-6.248,2.608
			c-2.125,0-3.843-0.822-5.075-2.608c-1.166-1.717-1.444-3.979-0.688-6.724c0.754-2.884,2.127-5.151,4.188-6.865
			c2.058-1.714,4.115-2.54,6.245-2.54c1.918,0,3.431,0.618,4.529,1.921c0.207,0.207,0.411,0.482,0.551,0.687
			C293.481,231.775,293.69,234.04,293.003,236.788z M298.769,210.227c-0.479,2.059-1.578,3.707-3.227,5.009
			c-1.167,0.959-2.469,1.578-3.843,1.855c-0.48,0.068-1.032,0.137-1.51,0.137c-2.267,0-3.844-0.688-4.874-1.992
			c-1.03-1.302-1.231-3.088-0.684-5.215c0.548-2.06,1.645-3.777,3.361-5.08c1.096-0.961,2.402-1.51,3.706-1.782
			c0.618-0.139,1.238-0.207,1.919-0.207c2.063,0,3.572,0.684,4.535,1.989C299.182,206.313,299.388,208.029,298.769,210.227z"/>
		<path fill="#FFFFFF" d="M369.324,209.605c0.069-2.469-0.206-4.598-0.688-6.379c-0.069-0.137-0.069-0.276-0.137-0.344
			c-0.483-1.716-1.303-3.366-2.541-4.876c-1.236-1.646-3.089-3.018-5.491-4.045c-2.399-1.033-5.694-1.513-9.881-1.513
			c-3.156,0-6.106,0.275-8.854,0.891c-4.805,1.099-8.993,3.159-12.493,6.177c-5.487,4.74-9.745,12.973-12.903,24.847
			c-0.478,1.921-0.89,3.845-1.234,5.627c-0.479,2.677-0.825,5.15-0.894,7.551c-0.205,3.774,0.069,6.794,0.894,9.059
			c0,0.068,0.069,0.206,0.136,0.273c1.168,3.227,3.229,5.698,5.973,7.345c2.814,1.716,6.796,2.54,12.081,2.54
			c3.02,0,5.831-0.275,8.441-0.824c5.419-1.167,9.815-3.498,13.315-7.07c5.216-5.212,9.265-13.449,12.215-24.774
			c0.551-1.991,0.961-3.981,1.236-5.899C369.049,215.235,369.258,212.421,369.324,209.605z M349.899,224.843
			c-1.513,5.631-2.883,9.746-4.186,12.423c-1.166,2.472-2.54,4.254-3.98,5.491c-0.138,0.139-0.274,0.207-0.411,0.344
			c-1.58,1.234-3.295,1.854-5.011,1.854c-2.677,0-4.326-1.443-4.942-4.393c-0.685-2.882,0.068-8.236,2.127-16.199
			c2.06-7.824,4.12-13.177,6.107-16.128c0.69-0.892,1.374-1.719,2.13-2.333c1.58-1.306,3.292-1.992,5.215-1.992
			c2.815,0,4.532,1.441,5.218,4.257C352.783,211.051,352.026,216.608,349.899,224.843z"/>
	</g>
	<g>
		<path fill="#FFFFFF" d="M91.626,289.553c-1.346-0.094-4.018-0.124-9.35-0.124l-1.598,4.148h6.297c1.529,0,2.854-0.062,3.967-0.249
			c-0.513,1.498-2.76,6.957-3.909,9.171c-1.791,3.494-3.118,4.335-9.096,4.648c0.11-1.061,0.011-2.496-0.34-3.463
			c3.2,0.592,4.994,0.312,6.22-1.061c0.717-0.779,2.084-3.649,3.024-6.675h-6.142c-1.216,0-2.644,0.093-3.637,0.187
			c1.469-2.684,2.689-6.146,3.515-9.203c1.278,0.219,4.11,0.343,9.179,0.281l1.441-4.368c-5.735,0-8.847,0.095-10.708,0.281
			l0.878-2.808c2.501,0.312,10.972,0.343,13.438,0C93.785,282.846,92.426,286.808,91.626,289.553z M103.396,282.814l-5.147,18.374
			c-0.534,1.903-0.957,3.526-1.434,5.896h-3.367c0.82-2.37,1.297-3.962,1.839-5.896l4.693-16.751
			c0.639-2.278,0.963-3.775,1.065-5.023c1.145,0.251,2.232,0.375,3.435,0.312c0.756-0.03,0.874,0.218,0.033,0.655
			C104.119,280.57,103.832,281.255,103.396,282.814z"/>
		<path fill="#FFFFFF" d="M128.7,295.479h-2.588c-2.019-0.03-3.767,0.095-5.574,0.313l0.785-2.807
			c1.227,0.188,2.394,0.25,5.604,0.25c3.211,0,4.601-0.062,5.9-0.25l-7.286,9.982c0.354,0.968,0.655,1.777,0.734,2.277l-2.75,1.466
			c-0.51-2.965-1.162-5.085-2.295-7.05l2.287-1.373c0.267,0.497,0.711,1.467,1.153,2.558L128.7,295.479z M135.472,286.215
			l-2.553,2.216c-0.605-1.623-1.826-3.495-3.086-4.897c-2.749,3.024-4.592,4.929-7.549,7.579c-0.382-0.967-0.894-1.59-1.528-1.997
			c3.906-2.589,6.146-4.803,9.643-10.046c0.731,0.5,1.914,1.062,2.722,1.188c0.357,0.062,0.279,0.343-0.131,0.467
			c-0.338,0.094-0.897,0.531-1.424,0.969C132.896,283.063,134.204,284.624,135.472,286.215z M127.125,291.861
			c0.087-1.31-0.036-2.651-0.447-3.743l2.682-0.999c0.049,1.154,0.2,2.621,0.528,3.682L127.125,291.861z M141.438,293.515
			c-0.775,2.215-1.808,4.896-2.366,6.114c-1.595,3.463-4.506,5.615-10.252,7.768c-0.188-0.999-0.593-1.777-1.216-2.559
			c4.366-0.779,7.901-2.495,9.631-6.332c1.169-2.621,1.913-5.271,2.24-7.55c1.162,0.187,2.338,0.22,3.104,0.156
			c0.195-0.03,0.277,0.126-0.025,0.312C142.324,291.58,141.618,292.985,141.438,293.515z M135.447,283.189l0.716-2.559
			c1.881,0.188,4.171,0.249,7.818,0.249c3.554,0,5.941-0.062,7.926-0.249l-0.716,2.559c-2.637-0.156-3.929-0.219-6.704-0.219
			c-0.546,1.061-1.163,2.372-1.687,3.682c2.743,0,3.469-0.031,5.981-0.094c-0.272,0.747-0.54,1.591-1.134,3.712l-1.687,6.021
			c-0.403,1.435-0.689,2.682-0.905,3.898h-2.681l3.176-11.449h-7.981l-3.403,12.041h-2.527c0.475-1.248,0.901-2.433,1.311-3.897
			l1.854-6.614c0.638-2.278,0.798-2.965,0.916-3.713c0.887,0.062,2.343,0.094,4.338,0.094c0.701-1.061,1.335-2.432,1.717-3.681
			C139.436,282.971,136.854,283.063,135.447,283.189z M142.672,306.804c-1.069-1.966-2.26-3.276-3.76-4.492l2.143-1.747
			c1.591,1.217,3.046,2.589,4.417,4.149L142.672,306.804z"/>
		<path fill="#FFFFFF" d="M169.003,285.873l0.804-2.87c2.233,0.154,4.793,0.249,8.207,0.311c1.107-1.621,1.968-3.244,2.608-4.866
			c0.849,0.312,2.428,0.687,3.126,0.749c0.638,0.062,0.725,0.311-0.212,0.873c-0.262,0.157-0.618,0.53-2.686,3.244
			c5.85,0.032,10.553-0.062,13.991-0.311l-0.804,2.869c-3.485-0.251-8.759-0.343-14.909-0.312c-1.679,2.216-3.925,4.556-6.584,6.926
			l-2.438,8.703c-0.394,1.403-0.739,2.746-1.393,5.522h-2.867c0.903-2.776,1.342-4.119,1.734-5.522l1.661-5.927
			c-1.278,0.998-2.617,1.997-3.979,2.963c-0.577-1.061-1.123-1.559-1.773-1.902c2.312-1.247,4.549-2.776,6.643-4.461
			c0.234-1.061,0.368-1.872,0.356-2.277c0.798,0.156,1.411,0.188,2.046,0.156c1.395-1.31,2.692-2.714,3.812-4.149
			C173.397,285.652,171.074,285.716,169.003,285.873z M190.53,292.829l-0.787,2.807c-1.663-0.188-3.663-0.279-6.719-0.279
			l-2.132,7.61c3.688-0.031,6.207-0.124,8.379-0.312l-0.804,2.869c-2.275-0.218-4.993-0.311-9.296-0.311
			c-4.269,0-7.071,0.093-9.438,0.311l0.804-2.869c2.036,0.188,4.378,0.28,7.832,0.312l2.133-7.61
			c-2.792,0.062-4.697,0.187-6.372,0.373l0.814-2.9c1.63,0.187,3.412,0.279,6.178,0.31c0.874-3.118,1.321-5.053,1.371-5.895
			c0.852,0.188,1.908,0.312,2.999,0.312c0.499,0,0.509,0.188-0.014,0.5c-0.303,0.188-0.607,0.716-0.713,1.092l-1.119,3.991
			C186.709,293.108,188.761,293.016,190.53,292.829z"/>
		<path fill="#FFFFFF" d="M217.233,302.499c-6.149,1.247-8.479,1.996-10.528,2.963c0.142-1.061,0.178-1.747-0.07-3.088
			c1.787-0.031,4.488-0.436,11.159-2.215C217.423,300.814,217.238,301.812,217.233,302.499z M212.7,291.082
			c-1.082,0.187-2.055,0.436-2.659,0.593c0.165-0.593,0.141-1.843-0.099-2.434c1.481-0.5,5.638-5.21,8.678-10.389
			c0.746,0.561,1.925,1.03,2.514,1.153c0.524,0.126,0.364,0.594-0.125,0.781c-1.049,0.405-1.971,1.249-7.916,8.328l4.322-0.623
			c1.593-1.902,2.125-2.684,2.807-3.898c0.984,0.717,1.698,1.06,2.479,1.279c0.463,0.123,0.331,0.592-0.335,0.748
			c-0.236,0.062-0.488,0.187-1.211,0.872c1.465,0,2.333-0.093,4.504-0.497c0.627-2.466,1.343-5.242,2.05-7.986
			c0.843,0.217,2.065,0.312,2.923,0.249c0.477-0.032,0.599,0.312,0.049,0.717c-0.2,0.157-0.795,1.061-0.968,1.561
			c-0.438,1.34-1.13,3.587-1.554,4.99c3.63-0.717,7.296-1.559,9.243-2.058l-0.174,2.4c-2.033,0.25-5.913,0.967-9.574,1.686
			c-0.256,1.247-0.485,2.4-0.638,3.493c3.773-0.779,7.701-1.56,9.752-2.089l-0.175,2.4c-2.095,0.251-6.055,1.03-9.802,1.717
			c-0.164,1.809-0.102,3.369,0.154,4.679c1.731-1.279,3.807-3.12,4.959-4.46c0.694,0.748,1.764,1.497,1.978,1.621
			c0.321,0.188,0.226,0.53-0.126,0.562c-0.477,0.03-2.266,1.186-3.852,2.619c-0.497,0.437-1.294,1.062-2.307,1.78
			c0.536,1.091,1.249,1.996,2.161,2.743c0.861,0.718,1.156,0.655,2.52-2.869c0.442,1.092,1.43,1.685,2.268,1.81
			c-2.821,4.835-3.708,5.333-5.406,4.272c-2.02-1.246-3.011-2.495-3.777-4.429c-2.465,1.56-5.479,3.306-8.353,4.555
			c-0.155-0.779-0.607-1.622-1.274-2.246c2.555-0.655,3.825-1.187,8.903-4.398c-0.397-1.591-0.519-3.493-0.364-5.71
			c-2.159,0.47-3.187,0.687-4.806,1.124l0.192-2.464c1.659-0.25,2.639-0.406,4.832-0.78c0.172-1.061,0.363-2.183,0.641-3.4
			c-1.931,0.438-2.832,0.655-4.358,1.091l0.082-2.4c-1.285,1.247-3.58,3.649-8.324,8.671c2.227-0.154,4.576-0.529,6.391-0.998
			c-0.388,0.718-0.532,1.341-0.642,2.184l-6.007,0.967c-2.226,0.375-2.906,0.47-3.506,0.719c0.244-0.874,0.206-2.185-0.006-2.87
			c1.559-0.562,3.005-1.498,6.849-5.865L212.7,291.082z M233.262,284.562c-0.259-0.968-0.653-2.121-1.26-3.182l2.771-1.217
			c0.51,1.187,0.984,2.277,1.346,2.994L233.262,284.562z"/>
		<path fill="#FFFFFF" d="M258.595,292.892c-0.355-0.625-1.008-1.186-1.919-1.498c3.434-1.685,6.506-3.524,8.973-6.77
			c0.886,0.405,1.393,0.592,2.2,0.719c0.629,0.092,0.471,0.436-0.112,0.623c-0.275,0.094-0.578,0.28-1.475,1.03h4.022
			c2.776,0,5.964-0.032,7.322-0.095c-2.354,2.839-5.192,4.96-8.218,6.521c2.778,1.435,6.332,2.214,10.78,2.245
			c-0.828,0.842-1.598,2.027-2.049,3.088c-1.356-0.279-2.648-0.561-3.801-0.904c-0.219,0.561-0.411,1.247-0.726,2.371l-1.015,3.619
			c-0.401,1.435-0.552,2.308-0.663,3.368h-2.806l0.507-1.808h-11.13l-0.551,1.963h-2.897c0.629-1.466,1.067-2.589,1.469-4.023
			l0.875-3.119c0.245-0.874,0.409-1.684,0.543-2.276c-1.43,0.436-2.812,0.81-4.188,1.152c-0.262-0.843-0.587-1.684-1.015-2.496
			c4.317-0.497,9.01-1.776,12.409-3.119c-0.967-0.779-1.823-1.621-2.574-2.493l1.93-1.437c0.918,1.061,1.957,2.027,3.133,2.839
			c1.812-0.905,3.476-2.06,5.099-3.399h-8.793C262.273,290.333,260.432,291.675,258.595,292.892z M269.553,279.04l3.374-0.25
			c-0.057,1.093-0.11,2.059-0.22,3.12c5.893,0,8.279-0.062,10.279-0.187l-1.565,5.582h-2.495l0.936-3.337h-19.734l-0.935,3.337
			h-2.525l1.565-5.582c2.085,0.124,4.625,0.187,11.482,0.187C269.758,280.974,269.69,279.883,269.553,279.04z M258.603,297.759
			c1.386,0.061,3.651,0.092,7.518,0.092c4.615,0,6.619-0.031,7.914-0.092c-2.912-0.844-5.298-1.904-7.23-3.12
			C263.697,296.041,261.088,297.009,258.603,297.759z M270.177,303.404l0.995-3.557h-11.129l-0.997,3.557H270.177z"/>
		<path fill="#FFFFFF" d="M296.252,307.304c-0.556-0.906-1.195-1.405-1.87-1.779c2.56-2.682,4.595-6.832,6.51-13.663l2.001-7.145
			c0.533-1.902,0.829-3.181,0.932-3.993c1.359,0.156,2.441,0.188,4.374,0.188s3.416-0.063,4.854-0.188
			c-0.33,0.843-0.772,2.091-1.306,3.993l-5.41,19.311c-0.464,1.653-1.397,2.309-5.276,2.807c0.217-0.996,0.164-1.808-0.322-2.744
			c2.463,0.219,3.397-0.219,3.668-1.185l1.688-6.021h-4.429C300.504,300.252,298.287,304.714,296.252,307.304z M302.238,294.949
			h4.396l1.513-5.396h-4.396L302.238,294.949z M310.01,282.908h-4.396l-1.346,4.805h4.396L310.01,282.908z M313.896,292.952
			l-3.96,14.133h-2.399c0.938-2.684,1.503-4.586,2.219-7.144l4.265-15.225c0.323-1.153,0.815-3.245,0.924-3.961
			c1.127,0.093,3.697,0.155,5.879,0.155c2.09,0,4.57-0.062,5.812-0.155c-0.186,0.437-0.487,1.185-0.786,2.027l-1.158,3.244
			c-0.86,2.402-2.274,2.995-5.969,3.274c0.172-1.059,0.098-1.684-0.166-2.744c2.755,0.625,3.723-0.156,4.147-1.342l0.816-2.245
			h-6.827l-2.229,7.954h5.236c1.965,0,3.675-0.093,4.771-0.219c-2.701,5.522-4.144,7.55-6.484,10.232
			c1.187,1.436,2.992,2.34,5.043,2.808c-1.256,0.812-2.217,1.686-2.837,2.559c-1.675-1.029-2.959-2.121-3.906-3.526
			c-1.174,1.187-2.525,2.34-4.298,3.651c-0.131-0.532-0.611-1.373-1.175-1.81c1.824-1.062,3.194-2.06,4.568-3.399
			c-0.985-1.936-0.956-4.93-0.458-8.269H313.896L313.896,292.952z M317.012,299.411c1.527-1.778,2.816-3.713,4.025-6.458h-4.022
			C316.49,295.605,316.389,297.632,317.012,299.411z"/>
		<path fill="#FFFFFF" d="M342.423,305.462h-2.616c0.657-1.684,1.037-2.931,1.379-4.147l4.535-16.191
			c0.308-1.092,0.67-2.495,0.784-3.462c0.884,0.188,2.331,0.249,5.044,0.249c2.68,0,4.194-0.062,5.15-0.249
			c-0.41,0.904-0.851,2.37-1.158,3.462l-4.168,14.88c-0.41,1.467-0.654,2.559-0.937,4.119h-2.618l0.796-2.84h-5.02L342.423,305.462z
			 M351.001,292.766h-5.02l-1.801,6.428h5.019L351.001,292.766z M353.421,284.125h-5.02l-1.809,6.457h5.02L353.421,284.125z
			 M367.527,278.727c0.964,0.126,2.255,0.188,2.98,0.156c0.664-0.03,0.741,0.251,0.304,0.47c-0.505,0.248-0.734,0.623-0.901,1.218
			l-1.477,5.269c1.412-0.03,2.716-0.123,3.803-0.217l-0.804,2.87c-0.994-0.126-2.255-0.187-3.681-0.219l-4.396,15.692
			c-0.683,2.433-1.453,2.963-6.533,3.398c0.226-1.247,0.104-2.37-0.374-3.337c3.703,0.25,4.342-0.031,4.613-0.997l4.143-14.786
			h-3.773c-2.307,0-4.391,0.093-5.961,0.249l0.805-2.871c1.453,0.157,3.547,0.252,5.821,0.252h3.772
			C366.901,282.189,367.401,280.069,367.527,278.727z M356.82,297.694c0.047-1.84-0.183-4.242-0.467-5.896l2.771-0.874
			c-0.116,1.748,0.193,4.088,0.75,5.771L356.82,297.694z"/>
		<path fill="#FFFFFF" d="M387.133,296.041c-0.305-1.028-0.677-1.81-1.317-2.526c2.448-1.84,4.396-3.899,6.918-7.893
			c1.179-1.872,2.39-4.305,3.107-6.082c0.954,0.373,2.082,0.687,3.066,0.841c0.715,0.125,0.684,0.343-0.234,0.843
			c-0.365,0.187-0.897,0.873-3.567,4.836l-6.023,21.491h-2.898c0.869-2.213,1.463-3.993,2.074-6.175l2.666-9.515
			C389.645,293.422,388.369,294.856,387.133,296.041z M406.882,303.778c0.375,0.217,0.85-0.032,2.82-3.837
			c0.326,1.06,1.188,1.653,2.174,1.811c-2.657,4.584-3.657,5.489-4.75,5.489c-1.527,0-4.146-1.779-5.073-4.804
			c-0.861-2.716-1.129-5.21-0.725-10.326c-3.359,0.748-5.001,1.154-6.227,1.527l0.239-2.743c1.149-0.095,2.79-0.281,6.211-1.031
			c0.298-2.838,1.389-8.515,1.996-10.794c1.133,0.188,2.362,0.251,3.292,0.156c0.868-0.093,0.947,0.063,0.172,0.718
			c-0.727,0.592-1.354,2.059-2.706,9.328l2.63-0.593c3.923-0.874,5.754-1.404,6.968-1.84l0.051,2.713
			c-1.18,0.093-3.063,0.469-6.914,1.31l-3.091,0.688C403.222,297.259,404.246,302.28,406.882,303.778z M409.824,286.152
			c-0.333-1.591-0.746-2.9-1.452-4.273l2.999-1.466c0.683,1.34,1.244,2.683,1.655,3.993L409.824,286.152z"/>
	</g>
</g>
</svg>
