<?xml version="1.0" encoding="utf-8"?>
<!-- Generator: Adobe Illustrator 16.0.0, SVG Export Plug-In . SVG Version: 6.00 Build 0)  -->
<!DOCTYPE svg PUBLIC "-//W3C//DTD SVG 1.1//EN" "http://www.w3.org/Graphics/SVG/1.1/DTD/svg11.dtd">
<svg version="1.1" id="Layer_1" xmlns="http://www.w3.org/2000/svg" xmlns:xlink="http://www.w3.org/1999/xlink" x="0px" y="0px"
	 width="500px" height="500px" viewBox="0 0 500 500" enable-background="new 0 0 500 500" xml:space="preserve">
<g>
	<g>
		<polygon fill="#FFFFFF" points="80.45,291.413 130.229,320.153 130.229,179.847 80.45,208.587 		"/>
		<path fill="#FFFFFF" d="M148.26,169.456v161.089l67.778-39.132v-82.826L148.26,169.456z M207.039,291.413l-49.779,28.74V179.847
			l49.779,28.74V291.413z"/>
	</g>
	<rect x="408.129" y="228.654" fill="#FFFFFF" width="11.421" height="46.819"/>
	<polygon fill="#FFFFFF" points="375.183,259.804 375.183,259.807 357.563,228.654 346.142,228.654 346.142,275.473 
		357.563,275.473 357.563,247.309 372.731,275.473 375.183,275.473 375.183,275.471 377.634,275.471 392.802,247.307 
		392.802,275.473 404.272,275.473 404.272,228.654 392.802,228.651 	"/>
	<rect x="312.861" y="246.353" fill="#FFFFFF" width="30.197" height="11.421"/>
	<rect x="312.861" y="228.654" fill="#FFFFFF" width="30.197" height="11.42"/>
	<rect x="312.861" y="264.052" fill="#FFFFFF" width="30.197" height="11.421"/>
	<path fill="#FFFFFF" d="M293.648,256.298l0.631-0.021c3.797-0.149,7.175-3.826,7.175-3.826s4.965-4.843,2.363-14.171
		s-13.051-9.626-13.051-9.626h-8.811h-0.098h-11.324v46.819h11.422v-18.804l12.144,18.804h14.888l-14.527-19.175H293.648z
		 M285.889,249.801h-3.933v-12.417h3.933v0.019c3.424,0,6.199,2.775,6.199,6.199C292.088,247.025,289.312,249.801,285.889,249.801z"
		/>
</g>
</svg>
