<?xml version="1.0" encoding="utf-8"?>
<!-- Generator: Adobe Illustrator 16.0.0, SVG Export Plug-In . SVG Version: 6.00 Build 0)  -->
<!DOCTYPE svg PUBLIC "-//W3C//DTD SVG 1.1//EN" "http://www.w3.org/Graphics/SVG/1.1/DTD/svg11.dtd">
<svg version="1.1" id="Layer_1" xmlns="http://www.w3.org/2000/svg" xmlns:xlink="http://www.w3.org/1999/xlink" x="0px" y="0px"
	 width="500px" height="500px" viewBox="0 0 500 500" enable-background="new 0 0 500 500" xml:space="preserve">
<g>
	<g>
		<g>
			<rect x="114.385" y="201.858" fill="#FFFFFF" width="48.172" height="7.386"/>
			<rect x="114.103" y="224.128" fill="#FFFFFF" width="39.96" height="6.281"/>
			<rect x="114.144" y="244.046" fill="#FFFFFF" width="48.414" height="7.339"/>
			<path fill="#FFFFFF" d="M128.618,325.044h-9.853v-54.816h9.853v5.223c1.822-3.039,5.107-4.782,9.854-5.223h3.832
				c11.307,0,16.969,3.703,16.969,11.096v30.018c1.095,9.137-4.567,13.479-16.969,13.052h-3.832c-5.115,0-8.399-1.957-9.854-5.874
				V325.044L128.618,325.044z M128.618,278.061v38.501c1.822,2.609,4.926,3.916,9.306,3.916h3.832
				c5.473,0.428,8.023-2.611,7.664-9.137v-29.365c0-5.222-2.557-7.831-7.664-7.831h-3.832
				C133.544,274.145,130.439,275.45,128.618,278.061z"/>
			<path fill="#FFFFFF" d="M316.378,266.314h-22.444c-7.305,0.438-12.958,3.263-16.968,8.483v22.187
				c-0.368,7.83,2.368,11.747,8.209,11.747h77.185v2.609h-82.11c-9.853,0-14.601-4.996-14.233-15.009v-15.661
				c-3.282,0.877-7.114,0.877-11.496,0l-1.641-0.651c0.358-0.431,1.095-1.083,2.189-1.959c6.928-3.479,14.59-11.521,22.991-24.146
				h13.138c-1.096,1.744-2.737,3.915-4.928,6.526c-2.189,2.608-3.651,4.567-4.378,5.873c3.644-2.61,7.842-4.128,12.591-4.568h65.686
				c14.961-1.305,21.897,5.874,20.804,21.534v24.799c-0.369,13.05-7.663,19.79-21.897,20.229
				c-10.947-0.438-11.683-6.749-5.475-7.179c9.854-0.876,15.139-5.219,15.877-13.05v-23.494c0-12.173-4.568-18.271-13.687-18.271
				h-27.918 M299.956,204.32h-10.95v-11.745H254.52v-5.22h34.486v-15.663h10.95v15.663h40.508v-15.01h10.947v15.01h34.486v5.22
				h-34.486v11.093h-10.947v-11.093h-40.508V204.32z M281.342,250h-11.494v-41.765h11.494v7.832c1.824-6.525,6.571-9.79,14.233-9.79
				h58.025c13.498-0.428,19.888,5.445,19.159,17.621v9.135c0.361,12.185-5.294,17.844-16.968,16.967h-60.764
				c-8.399,0.877-12.957-1.958-13.687-8.484V250L281.342,250z M281.342,218.025v9.134h80.471v-4.567
				c0.358-7.831-3.105-11.521-10.401-11.094h-56.929C287.544,211.499,283.166,213.681,281.342,218.025z M361.812,234.338v-3.261
				h-80.471v8.482c1.455,4.354,5.835,6.098,13.141,5.221h56.382C357.791,245.218,361.444,241.74,361.812,234.338z"/>
			<path fill="#FFFFFF" d="M143.219,174.331c-4.938-2.622-11.07-0.742-13.692,4.199c-2.623,4.939-0.742,11.069,4.199,13.692
				c4.938,2.621,11.07,0.743,13.691-4.2C150.038,183.083,148.159,176.954,143.219,174.331z"/>
			<path fill="#FFFFFF" d="M187.738,323.74h-10.402v-51.554c-4.38,1.743-9.673,2.183-15.875,1.307h-2.19
				c0-0.43,0.728-1.082,2.19-1.958c4.01-1.734,9.305-5.872,15.875-12.398v-7.831h6.57c3.282-3.04,8.757-9.349,16.42-18.924
				c0.36-0.868,0.727-1.521,1.096-1.958h-37.224v-5.221h29.56V199.1h-21.348v-5.22h21.348v-22.187h10.401v22.187h18.61v5.22h-18.61
				v26.104h1.094c8.023-10.442,17.517-23.492,28.466-39.154h12.59c-12.411,17.404-22.084,30.455-29.012,39.154h29.012v5.221h-32.298
				c-5.473,7.403-10.946,14.356-16.421,20.882c0.359,0.438,1.094,0.438,2.189,0c0.728-0.429,1.454-0.654,2.19-0.654h12.591
				c16.422,0,24.444,5.874,24.086,17.62v39.154c0.358,10.44-7.664,15.662-24.086,15.662H201.97
				c-8.031,0.428-12.779-2.397-14.232-8.484V323.74z M213.92,255.838h-12.581c-4.375,0-7.112,0.44-8.204,1.308
				c-1.095,1.307-2.377,3.05-3.829,5.223l-1.641,1.306v17.392v4.154v26.771c2.188,4.785,6.741,6.957,13.673,6.528h12.581
				c9.11-0.438,13.854-3.703,14.221-9.793v-23.505v-4.155v-14.127C228.498,259.104,223.766,255.41,213.92,255.838z"/>
		</g>
	</g>
	<g>
		<polygon fill="#FFFFFF" points="320.274,263.254 353.319,292.287 350.676,296.722 317.631,267.688 		"/>
		<polygon fill="#FFFFFF" points="259.079,275.194 291.578,303.683 288.935,308.116 256.435,279.627 		"/>
		<polygon fill="#FFFFFF" points="182.812,275.007 234.014,291.848 232.776,296.86 181.573,280.02 		"/>
		<polygon fill="#FFFFFF" points="287.991,296.853 318.927,264.349 322.094,268.219 291.16,300.722 		"/>
		<polygon fill="#FFFFFF" points="229.279,289.881 262.157,277.126 263.342,281.984 230.463,294.739 		"/>
		<polygon fill="#FFFFFF" points="351.67,286.077 375.524,260.102 378.735,263.935 354.884,289.911 		"/>
		<path fill="#FFFFFF" d="M289.773,292.233c-4.368-2.321-9.793-0.659-12.111,3.712c-2.321,4.37-0.657,9.793,3.714,12.112
			c4.369,2.32,9.794,0.657,12.11-3.714C295.807,299.974,294.145,294.552,289.773,292.233z"/>
		<path fill="#FFFFFF" d="M352.56,282.113c-4.367-2.318-9.791-0.656-12.11,3.713c-2.322,4.372-0.659,9.793,3.713,12.113
			c4.369,2.318,9.793,0.656,12.111-3.713C358.593,289.856,356.93,284.433,352.56,282.113z"/>
		<path fill="#FFFFFF" d="M326.405,252.951c-5.688-3.021-12.752-0.856-15.771,4.835c-3.021,5.689-0.854,12.751,4.837,15.771
			c5.688,3.022,12.751,0.855,15.771-4.835S332.096,255.973,326.405,252.951z"/>
		<path fill="#FFFFFF" d="M378.362,256.437c-4.367-2.32-9.793-0.658-12.112,3.714c-2.319,4.368-0.656,9.791,3.715,12.111
			c4.369,2.32,9.794,0.656,12.111-3.714C384.394,264.177,382.732,258.756,378.362,256.437z"/>
		<path fill="#FFFFFF" d="M266.038,273.153c-4.368-2.318-9.792-0.656-12.112,3.713c-2.32,4.371-0.657,9.794,3.715,12.113
			c4.368,2.319,9.791,0.656,12.109-3.713C272.071,280.896,270.408,275.475,266.038,273.153z"/>
		<path fill="#FFFFFF" d="M235.201,283.741c-4.369-2.318-9.793-0.654-12.112,3.714c-2.32,4.372-0.658,9.793,3.713,12.113
			c4.369,2.318,9.793,0.656,12.111-3.713C241.234,291.484,239.571,286.062,235.201,283.741z"/>
		<path fill="#FFFFFF" d="M191.898,269.061c-4.37-2.32-9.794-0.657-12.113,3.713c-2.32,4.369-0.657,9.792,3.715,12.112
			c4.369,2.32,9.793,0.658,12.111-3.714C197.929,276.803,196.266,271.38,191.898,269.061z"/>
	</g>
</g>
</svg>
