<?xml version="1.0" encoding="utf-8"?>
<!-- Generator: Adobe Illustrator 16.0.0, SVG Export Plug-In . SVG Version: 6.00 Build 0)  -->
<!DOCTYPE svg PUBLIC "-//W3C//DTD SVG 1.1//EN" "http://www.w3.org/Graphics/SVG/1.1/DTD/svg11.dtd">
<svg version="1.1" id="Layer_1" xmlns="http://www.w3.org/2000/svg" xmlns:xlink="http://www.w3.org/1999/xlink" x="0px" y="0px"
	 width="500px" height="500px" viewBox="0 0 500 500" enable-background="new 0 0 500 500" xml:space="preserve">
<g>
	<g>
		<path fill="#FFFFFF" d="M151.354,101.598v197.293h197.293V101.598H151.354z M278.623,223.603l-75.534,52.991l-0.03,0.075
			l-10.65,7.474l56.763-140.646l-46.028-0.001l-9.42,23.278h-7.662l12.354-30.521h54.358h7.014h54.151L278.623,223.603z"/>
		<polygon fill="#FFFFFF" points="248.228,164.868 244.045,175.218 263.481,175.218 235.146,245.36 248.107,236.104 
			276.882,164.873 		"/>
		<polygon fill="#FFFFFF" points="242.486,179.078 239.067,187.541 247.515,187.541 219.69,256.399 230.323,248.805 
			258.492,179.078 		"/>
		<polygon fill="#FFFFFF" points="250.636,158.906 284.564,158.906 255.522,230.808 272.949,218.362 303.197,143.497 
			256.861,143.497 		"/>
		<polygon fill="#FFFFFF" points="238.035,190.095 207.824,264.873 216.523,258.661 244.226,190.095 		"/>
	</g>
	<g>
		<path fill="#FFFFFF" d="M151.487,335.541l16.467-2.993v-18.464h7.583V331.2l23.303-4.291v3.143l-23.303,4.291v22.355
			c0,1.048,0.85,1.896,1.897,1.896h21.406v2.843h-27.593c-1.796,0-3.292-1.496-3.292-3.292v-22.456l-16.467,2.995L151.487,335.541
			L151.487,335.541z"/>
		<path fill="#FFFFFF" d="M217.562,352.157v2.844h-13.223c-0.45,0-0.849-0.198-1.099-0.647c-0.299-0.35-0.348-0.849-0.199-1.248
			c2.346-5.141,4.492-10.478,6.238-15.817h-6.489c-0.449,0-0.797-0.149-1.048-0.547c-0.249-0.351-0.348-0.801-0.198-1.25
			c2.096-6.387,4.09-14.719,5.04-21.555h7.084c-0.847,5.637-2.544,14.02-4.539,19.959c-0.052,0.149-0.052,0.299,0.049,0.398
			c0.1,0.101,0.248,0.149,0.299,0.149h0.699c0.898-2.995,1.698-5.986,2.345-8.883h6.736c-1.846,9.282-5.089,19.86-7.735,25.947
			c-0.049,0.149-0.049,0.3,0.05,0.449c0.101,0.149,0.201,0.2,0.35,0.2H217.562L217.562,352.157z M201.693,361.289v-2.844
			l16.266-0.997v2.843L201.693,361.289z M221.952,361.34v-25.25h-3.943c2.746-8.282,4.242-14.221,5.29-22.153h7.185
			c-0.397,2.794-0.797,5.389-1.296,7.882h19.561v2.894h-6.138v8.835h5.188v2.843h-5.188v9.231h5.188v2.844h-5.188v8.882h6.138v2.896
			h-19.512v1.097H221.952L221.952,361.34z M229.237,333.547h6.188v-8.832h-6.188V333.547z M229.237,345.621h6.188v-9.23h-6.188
			V345.621z M229.237,357.347h6.188v-8.882h-6.188V357.347z M235.425,320.372l-1.695-6.436h7.183l1.698,6.436H235.425z"/>
		<path fill="#FFFFFF" d="M251.35,316.182h8.482c2.048,0,3.394-0.7,4.243-2.245h8.481c-0.947,3.342-2.992,5.089-6.634,5.089h-1.148
			v7.384h6.285v2.796h-6.285v32.234h-7.135v-32.234h-6.29v-2.796h6.29v-7.384h-6.29V316.182L251.35,316.182z M251.35,361.438
			c0.6-4.092,0.649-8.134,0.649-12.226V331h4.242v18.312c0,4.043-0.052,8.086-0.699,12.126H251.35L251.35,361.438z M266.221,331.001
			h4.242v30.438h-4.242V331.001z M286.479,361.34v-12.576l-13.771,1.598v-2.895l13.771-1.545v-31.985h7.336v31.136l4.791-0.548
			v2.843l-4.791,0.55v13.423H286.479L286.479,361.34z M280.341,331.352l3.743,9.53h-7.036l-3.543-9.53H280.341z M280.891,317.578
			l3.792,9.632h-7.085l-3.594-9.632H280.891z"/>
		<path fill="#FFFFFF" d="M301.309,345.173l3.343-0.699v-15.32h-3.343v-2.842h3.343v-12.374h7.436v12.374h3.24v2.842h-3.24v13.773
			l3.24-0.697v2.844l-3.24,0.696v12.277c0,1.797-1.596,3.293-3.492,3.293h-6.938v-2.844h1c1.098,0,1.995-0.849,1.995-1.946v-9.229
			l-3.343,0.697V345.173z M327.057,337.088c1.696,2.744,3.842,5.689,6.286,8.635c2.595-3.194,4.89-6.388,6.539-9.533
			c0.396-0.796-0.103-1.296-0.7-1.296h-20.458v-2.844h10.527v-8.835h-11.476v-2.84h11.476v-6.438h7.636v6.438h11.627v2.84h-11.627
			v8.835h8.283c2.593,0,3.392,1.896,2.744,3.441c-2.295,5.189-6.039,10.43-10.18,15.32c3.392,3.692,7.086,7.285,10.779,10.578
			h-9.033c-2.096-1.846-4.092-3.794-6.036-5.738c-1.898,1.995-3.842,3.943-5.59,5.738h-9.83c3.594-3.294,7.384-6.937,10.927-10.678
			c-3.343-3.993-6.535-8.434-9.532-13.624H327.057z"/>
	</g>
	<g>
		<path fill="#FFFFFF" d="M248.163,380.02h-5.743c-0.608,0-0.911,0.142-0.911,0.428v8.713c0,0.271,0.303,0.408,0.911,0.408h5.743
			c0.606,0,0.909-0.138,0.909-0.408v-8.713C249.072,380.161,248.769,380.02,248.163,380.02z"/>
		<path fill="#FFFFFF" d="M151.353,371.385v27.018h197.294v-27.018H151.353z M171.363,392.343h-2.776v-11.896
			c0-0.286-0.302-0.428-0.909-0.428h-9.405v-2.777h9.695c2.264,0,3.396,0.894,3.396,2.68V392.343z M187.112,389.662
			c0,1.786-1.134,2.683-3.397,2.683h-6.248v-2.778h5.96c0.607,0,0.908-0.136,0.908-0.406v-8.711c0-0.288-0.3-0.432-0.908-0.432
			h-6.653v12.327h-2.753v-15.104h9.693c2.264,0,3.397,0.909,3.397,2.729L187.112,389.662L187.112,389.662z M211.306,381.071
			l-5.216,11.273h-2.514l-5.361-11.273v-3.829h2.752v3.185l3.83,8.781l3.734-8.808v-3.158h2.775V381.071z M215.999,392.343h-2.3
			v-15.101h2.3V392.343z M231.628,380.02h-9.479c-0.605,0-0.909,0.142-0.909,0.43v2.609c0,0.223,0.304,0.335,0.909,0.335h5.745
			c2.487,0,3.735,0.94,3.735,2.823v3.445c0,1.786-1.144,2.683-3.424,2.683h-9.669v-2.778h9.359c0.606,0,0.908-0.136,0.908-0.406
			v-2.633c0-0.224-0.302-0.336-0.908-0.336h-5.745c-2.408,0-3.614-0.988-3.614-2.966v-3.255c0-1.819,1.135-2.729,3.4-2.729h9.694
			V380.02z M236.27,392.343h-2.3v-15.101h2.3V392.343z M251.849,389.662c0,1.786-1.133,2.681-3.399,2.681h-6.294
			c-2.265,0-3.4-0.895-3.4-2.681v-9.691c0-1.819,1.135-2.729,3.4-2.729h6.294c2.266,0,3.399,0.908,3.399,2.729V389.662z
			 M267.598,392.345h-2.777v-11.897c0-0.286-0.301-0.428-0.909-0.428h-5.743c-0.606,0-0.909,0.142-0.909,0.428v11.897h-2.753
			v-12.374c0-1.82,1.135-2.729,3.398-2.729h6.296c2.265,0,3.397,0.908,3.397,2.729V392.345L267.598,392.345z M286.646,392.343h-2.68
			v-11.536h2.68V392.343z M291.792,380.02h-13.09v-2.777h13.09V380.02z M307.588,380.02h-9.476c-0.608,0-0.912,0.142-0.912,0.428
			v2.944h10.388v2.779H297.2v2.991c0,0.27,0.304,0.405,0.912,0.405h9.476v2.777h-9.694c-2.265,0-3.396-0.895-3.396-2.681v-9.693
			c0-1.82,1.132-2.729,3.396-2.729h9.694V380.02z M323.286,380.02h-9.429c-0.605,0-0.91,0.142-0.91,0.428v8.714
			c0,0.27,0.305,0.405,0.91,0.405h9.429v2.778h-9.692c-2.266,0-3.399-0.895-3.399-2.681v-9.694c0-1.819,1.134-2.729,3.399-2.729
			h9.692V380.02z M339.084,392.343h-2.827v-6.151h-7.562v6.151h-2.704v-15.101h2.704v6.148h7.562v-6.148h2.827V392.343
			L339.084,392.343z"/>
	</g>
</g>
</svg>
