<?xml version="1.0" encoding="utf-8"?>
<!-- Generator: Adobe Illustrator 16.0.0, SVG Export Plug-In . SVG Version: 6.00 Build 0)  -->
<!DOCTYPE svg PUBLIC "-//W3C//DTD SVG 1.1//EN" "http://www.w3.org/Graphics/SVG/1.1/DTD/svg11.dtd">
<svg version="1.1" id="Layer_1" xmlns="http://www.w3.org/2000/svg" xmlns:xlink="http://www.w3.org/1999/xlink" x="0px" y="0px"
	 width="500px" height="500px" viewBox="0 0 500 500" enable-background="new 0 0 500 500" xml:space="preserve">
<g>
	<path fill="#FFFFFF" d="M153.582,263.48c-3.627,0-6.787,1.967-8.496,4.888l-0.011-0.007c-6.349,10.926-18.171,18.274-31.717,18.274
		c-12.536,0-23.593-6.294-30.203-15.893l0.017-0.014c-0.995-1.464-1.579-3.231-1.579-5.135c0-5.051,4.096-9.146,9.146-9.146
		c3.146,0,5.918,1.588,7.566,4.005l0.012-0.01c3.312,4.748,8.812,7.859,15.04,7.859c10.127,0,18.335-8.211,18.335-18.339
		c0-10.125-8.208-18.334-18.334-18.334c-6.402,0-12.018,3.29-15.296,8.263c-1.626,2.528-4.46,4.206-7.69,4.206
		c-5.053,0-9.147-4.094-9.147-9.146c0-2,0.649-3.844,1.737-5.349l-0.06-0.042c6.581-9.806,17.758-16.266,30.455-16.266
		c13.585,0,25.435,7.395,31.773,18.372l0.029-0.018c1.708,2.901,4.854,4.852,8.462,4.852c5.426,0,9.824-4.399,9.824-9.825
		c0-1.84-0.515-3.558-1.395-5.028c-4.774-8.221-11.69-15.348-20.508-20.45c-26.951-15.585-61.434-6.37-77.021,20.582
		c-15.586,26.951-6.375,61.436,20.578,77.021c26.951,15.589,61.434,6.373,77.021-20.579l-0.009-0.007
		c0.829-1.44,1.311-3.108,1.311-4.892C163.425,267.888,159.018,263.48,153.582,263.48"/>
	<line fill="none" x1="207.926" y1="274.332" x2="204.468" y2="285.82"/>
	<rect x="190.946" y="212.696" fill="#FFFFFF" width="72.716" height="5.612"/>
	<path fill="#FFFFFF" d="M293.09,282.946l54.071-62.261c1.343-1.346,1.681-3.365,0.844-5.132c-0.758-1.848-2.438-2.856-4.374-2.856
		h-5.121h-20.183v-5.96H305.55v5.96h-27.295h-0.111v4.792h0.111v0.818h51.808c1.491,0,2.28,1.768,1.281,2.879l-55.554,61.759v5.61
		h78.939v-4.792v-0.818H293.09L293.09,282.946z"/>
	<path fill="#FFFFFF" d="M263.571,283.092l-7.481-26.815h-13.281l6.717,23.725c0.371,1.31-0.613,2.609-1.973,2.609h-39.384
		c-1.374,0-2.36-1.326-1.962-2.642l11.378-37.717h45.988v-0.016v-4.79v-0.805h-72.716v0.805v4.79v0.016h13.53l-12.269,40.84
		c-0.755,2.607,1.009,5.129,3.866,5.129h4.078h54.306h5.675C262.646,288.22,264.326,285.615,263.571,283.092"/>
	<polygon fill="#FFFFFF" points="379.776,217.573 379.776,212.696 363.364,212.696 363.364,217.573 363.364,218.308 
		379.776,218.308 	"/>
	<path fill="#FFFFFF" d="M382.195,280.737v-43.073c0-3.02-2.448-5.466-5.471-5.466h-13.36v5.611h3.331
		c1.133,0,2.052,0.917,2.052,2.051v43.317c0,3.195,2.605,5.633,5.965,5.633h12.78v-4.794h-1.851
		C383.709,284.016,382.195,282.505,382.195,280.737"/>
	<path fill="#FFFFFF" d="M440.367,283.934c-1.849,0-3.359-1.432-3.359-3.193v-62.33c0-3.106-2.607-5.713-5.884-5.713h-3.888h-39.069
		h-0.506v5.61h9.835v13.89h-9.835v5.611h9.835v51.001h13.282v-51.001h12.861v45.367c0,3.194,2.691,5.634,5.885,5.634h13.534v-4.876
		H440.367L440.367,283.934z M423.639,232.198h-12.86v-13.89h10.811c1.133,0,2.05,0.917,2.05,2.05V232.198z"/>
</g>
</svg>
