<?xml version="1.0" encoding="utf-8"?>
<!-- Generator: Adobe Illustrator 16.0.0, SVG Export Plug-In . SVG Version: 6.00 Build 0)  -->
<!DOCTYPE svg PUBLIC "-//W3C//DTD SVG 1.1//EN" "http://www.w3.org/Graphics/SVG/1.1/DTD/svg11.dtd">
<svg version="1.1" id="Layer_1" xmlns="http://www.w3.org/2000/svg" xmlns:xlink="http://www.w3.org/1999/xlink" x="0px" y="0px"
	 width="500px" height="500px" viewBox="0 0 500 500" enable-background="new 0 0 500 500" xml:space="preserve">
<g>
	<g>
		<g>
			<path fill="#FFFFFF" d="M147.481,250.917h-7.445v-8.325h7.445c4.329,0,7.85-3.522,7.85-7.851s-3.521-7.85-7.85-7.85h-1.291
				c-0.674,13.361-11.757,24.026-25.284,24.026H97.34c-8.919,0-16.175-7.256-16.175-16.176c0-8.919,7.256-16.175,16.175-16.175
				h39.032c-2.681-5.868-8.604-9.956-15.465-9.956c-5.284,0-10.178,2.396-13.425,6.576l-2.555,3.287l-6.573-5.108l2.554-3.287
				c4.836-6.223,12.125-9.793,19.999-9.793c11.519,0,21.265,7.733,24.322,18.28h2.252c8.919,0,16.175,7.257,16.175,16.176
				C163.656,243.661,156.4,250.917,147.481,250.917z M97.34,226.891c-4.328,0-7.85,3.521-7.85,7.85s3.522,7.851,7.85,7.851h23.566
				c8.934,0,16.281-6.933,16.942-15.701H97.34L97.34,226.891z"/>
		</g>
		<path fill="#FFFFFF" d="M210.971,239.458h-14.469l-3.561,11.868h-6.669l13.791-41.598h7.573l13.791,41.598h-6.952L210.971,239.458
			z M209.389,234.315l-1.639-5.596c-1.413-4.521-2.657-9.156-3.957-13.847h-0.226c-1.187,4.748-2.487,9.326-3.843,13.847
			l-1.695,5.596H209.389z"/>
		<path fill="#FFFFFF" d="M226.908,209.729h12.604c9.269,0,15.883,3.165,15.883,12.547c0,9.101-6.614,13.283-15.657,13.283h-6.273
			v15.768h-6.556V209.729z M239.116,230.302c6.669,0,9.835-2.543,9.835-8.026c0-5.482-3.449-7.291-10.062-7.291h-5.426v15.317
			L239.116,230.302L239.116,230.302z"/>
		<path fill="#FFFFFF" d="M263.474,209.729h6.557v41.598h-6.557V209.729L263.474,209.729z"/>
		<g>
			<path fill="#FFFFFF" d="M306.25,244.521c-3.131,3.472-6.284,5.021-10.223,5.021c-8.834,0-14.322-7.221-14.322-18.844
				c0-11.484,5.575-18.618,14.549-18.618c4.285,0,7.121,2.234,8.745,4.108l0.398,0.459l2.034-2.211l-0.308-0.365
				c-1.277-1.52-4.895-5.055-10.871-5.055c-10.836,0-17.838,8.51-17.838,21.681c0,13.103,7.032,21.906,17.498,21.906
				c5.038,0,8.879-1.854,12.451-6.009l0.321-0.374l-2.045-2.134L306.25,244.521z"/>
			<path fill="#FFFFFF" d="M320.658,249.549c-0.574,0.105-0.84,0.105-1.047,0.105c-0.19,0-0.739,0-0.739-1.323v-42.327h-3.07v41.987
				c0,3.811,1.967,4.611,3.608,4.611c0.789,0,1.193-0.093,1.615-0.191l0.729-0.164l-0.576-2.794L320.658,249.549z"/>
			<path fill="#FFFFFF" d="M341.353,220.263c-8.106,0-13.769,6.685-13.769,16.256c0,9.471,5.662,16.085,13.769,16.085
				s13.769-6.614,13.769-16.085C355.121,226.948,349.459,220.263,341.353,220.263z M341.353,249.654
				c-6.203,0-10.536-5.402-10.536-13.135c0-7.709,4.432-13.305,10.536-13.305c6.138,0,10.591,5.596,10.591,13.305
				C351.943,244.13,347.49,249.654,341.353,249.654z"/>
			<path fill="#FFFFFF" d="M382.007,243.608c-3.945,4.46-6.376,6.046-9.608,6.046c-3.092,0-6.614-1.043-6.614-9.18V221.35h-2.631
				v19.351c0,8.101,2.927,11.875,9.351,11.875c4.154,0,7.176-2.555,9.707-5.202l0.163,4.229h2.701V221.35h-3.068V243.608z"/>
			<path fill="#FFFFFF" d="M415.767,206.005v12.951l0.072,4.465c-2.688-1.967-5.204-3.159-8.612-3.159
				c-8.045,0-13.897,6.836-13.897,16.256c0,10.04,4.801,16.034,12.855,16.034c3.502,0,6.798-1.433,9.596-4.151l0.235,3.201h2.82
				v-45.597H415.767z M415.767,226.983v17.845c-3.507,3.292-6.327,4.826-9.356,4.826c-6.047,0-9.832-5.034-9.832-13.135
				c0-7.461,4.672-13.305,10.583-13.305C410.178,223.214,412.697,224.343,415.767,226.983z"/>
		</g>
	</g>
	<g>
		<path fill="#FFFFFF" d="M146.277,297.488v1.288h-20.847v-1.288h9.567v-2.159h-7.809v-1.267h7.809v-1.735h-7.082v-7.198h7.082
			v-1.524h-9.427v-1.29h9.427v-1.806c-2.486,0.165-4.995,0.282-7.34,0.329c-0.023-0.376-0.188-0.915-0.328-1.243
			c5.417-0.163,12.053-0.586,15.688-1.266l0.868,1.22c-2.017,0.374-4.597,0.655-7.34,0.866v1.899h9.615v1.29h-9.615v1.523h7.387
			v7.199h-7.387v1.735h8.254v1.267h-8.254v2.158L146.277,297.488L146.277,297.488z M129.44,288.179h5.558v-1.9h-5.558V288.179z
			 M134.998,291.18v-1.924h-5.558v1.924H134.998z M136.546,286.278v1.9h5.815v-1.9H136.546z M142.361,289.256h-5.815v1.924h5.815
			V289.256z"/>
		<path fill="#FFFFFF" d="M154.066,292.517c-0.539,1.618-1.478,3.329-2.415,4.455c-0.235-0.21-0.798-0.633-1.103-0.82
			c0.961-1.032,1.759-2.485,2.228-3.963L154.066,292.517z M156.904,291.25v6.145c0,0.774-0.165,1.125-0.657,1.382
			c-0.493,0.235-1.29,0.235-2.393,0.235c-0.047-0.375-0.235-0.938-0.445-1.337c0.797,0.023,1.5,0.023,1.758,0
			c0.258,0,0.305-0.07,0.305-0.305v-6.12h-4.761v-1.361h4.761v-2.556h-4.854v-1.337h6.496c0.469-1.103,1.032-2.742,1.336-3.846
			l1.431,0.328c-0.399,1.149-0.891,2.486-1.337,3.518h3.072v1.337h-4.713v2.556h4.455v1.361H156.904L156.904,291.25z
			 M161.242,281.986h-10.271v-1.336h4.713c-0.305-0.704-0.704-1.523-1.055-2.181l1.383-0.377c0.469,0.799,1.009,1.807,1.313,2.558
			h3.917V281.986L161.242,281.986z M153.503,285.927c-0.093-0.938-0.469-2.369-0.938-3.448l1.243-0.305
			c0.516,1.056,0.938,2.463,1.032,3.377L153.503,285.927z M159.014,292.094c0.75,1.173,1.618,2.743,1.97,3.752l-1.126,0.61
			c-0.352-1.009-1.219-2.627-1.946-3.799L159.014,292.094z M171.817,287.521h-2.65v11.913h-1.5v-11.913h-3.799v0.867
			c0,3.354-0.305,7.88-2.462,10.952c-0.258-0.306-0.844-0.799-1.196-0.963c2.017-2.837,2.228-6.847,2.228-9.989v-7.95
			c2.626-0.446,5.651-1.126,7.316-1.806l1.267,1.125c-1.923,0.751-4.667,1.313-7.152,1.713v4.596h7.95L171.817,287.521
			L171.817,287.521z"/>
		<path fill="#FFFFFF" d="M187.275,297.275c1.219,0.259,2.603,0.329,4.033,0.329c0.774,0,4.831,0,5.886-0.023
			c-0.258,0.399-0.516,1.126-0.586,1.571h-5.371c-4.971,0-8.559-0.844-10.693-4.995c-0.797,2.252-1.946,4.08-3.541,5.464
			c-0.258-0.28-0.891-0.82-1.267-1.055c2.627-2.041,3.917-5.395,4.433-9.638l1.571,0.163c-0.141,1.079-0.352,2.111-0.563,3.072
			c0.938,2.579,2.486,3.939,4.503,4.689v-9.966h-5.957v-1.501h13.719v1.501h-6.168v3.987h7.059v1.477h-7.059L187.275,297.275
			L187.275,297.275z M178.34,285.786h-1.524v-4.948h9.192c-0.281-0.727-0.727-1.642-1.148-2.368l1.524-0.423
			c0.539,0.868,1.125,2.041,1.407,2.791h8.395v4.948h-1.571v-3.447H178.34L178.34,285.786L178.34,285.786z"/>
		<path fill="#FFFFFF" d="M220.272,280.416c-1.688,4.737-3.939,8.864-7.27,12.218c2.72,2.462,5.909,4.362,9.544,5.511
			c-0.375,0.327-0.821,0.961-1.078,1.383c-3.705-1.242-6.918-3.212-9.639-5.768c-2.626,2.392-5.863,4.314-9.919,5.744
			c-0.165-0.398-0.539-0.962-0.844-1.312c3.939-1.337,7.105-3.188,9.685-5.512c-3.026-3.165-5.394-7.082-7.106-11.443l1.407-0.422
			c1.571,4.033,3.87,7.761,6.848,10.764c3.189-3.213,5.323-7.199,6.801-11.68L220.272,280.416z M212.229,284.285
			c-0.422-1.547-1.454-3.893-2.298-5.652l1.337-0.54c0.891,1.761,1.899,4.059,2.369,5.582L212.229,284.285z"/>
		<path fill="#FFFFFF" d="M233.595,291.789c-0.305-0.703-1.172-2.111-1.876-3.189v10.975h-1.478v-10.669
			c-0.844,2.461-1.993,4.947-3.095,6.424c-0.165-0.396-0.562-1.03-0.821-1.384c1.336-1.688,2.814-4.83,3.635-7.598h-3.283v-1.478
			h3.564v-3.963c-0.961,0.188-1.946,0.376-2.884,0.539c-0.047-0.352-0.282-0.867-0.469-1.219c2.321-0.398,5.042-1.103,6.566-1.828
			l1.008,1.242c-0.798,0.327-1.735,0.633-2.744,0.914v4.314h2.884v1.478h-2.884v0.588c0.633,0.726,2.416,3.001,2.814,3.61
			L233.595,291.789z M247.759,289.21c-2.041,6.097-7.339,9.099-13.062,10.435c-0.141-0.398-0.517-0.961-0.797-1.29
			c2.673-0.538,5.276-1.501,7.434-2.979c-0.727-0.749-1.829-1.616-2.768-2.274l1.149-0.774c0.962,0.587,2.041,1.408,2.792,2.136
			c1.359-1.173,2.485-2.627,3.259-4.34h-4.783c-1.383,1.384-3.096,2.674-5.253,3.729c-0.187-0.352-0.657-0.844-1.008-1.078
			c3.541-1.641,5.98-4.057,7.153-6.145l1.618,0.307c-0.375,0.608-0.82,1.243-1.313,1.852h4.315l0.281-0.07L247.759,289.21z
			 M239.224,281.776c-1.055,0.962-2.298,1.852-3.752,2.626c-0.234-0.328-0.703-0.82-1.055-1.055
			c2.907-1.407,4.971-3.448,6.026-5.184l1.595,0.328c-0.422,0.658-0.914,1.313-1.5,1.947h4.62l0.281-0.069l0.986,0.538
			c-1.994,4.339-6.567,6.802-11.163,8.021c-0.165-0.376-0.539-0.893-0.798-1.196c1.83-0.424,3.682-1.103,5.347-2.041
			c-0.633-0.586-1.548-1.29-2.345-1.781l1.125-0.774c0.821,0.491,1.806,1.195,2.486,1.805c1.29-0.89,2.415-1.946,3.189-3.165
			H239.224L239.224,281.776z"/>
		<path fill="#FFFFFF" d="M261.316,296.245c-0.116-0.446-0.258-1.008-0.445-1.618c-6.613,1.453-7.434,1.642-7.925,1.969
			c-0.096-0.327-0.353-1.078-0.54-1.477c0.374-0.071,0.68-0.727,1.055-1.619c0.352-0.773,1.359-3.587,1.97-6.354h-3.307v-1.453
			h10.248v1.453h-5.347c-0.609,2.557-1.524,5.229-2.463,7.387l5.863-1.218c-0.445-1.268-0.938-2.581-1.431-3.729l1.29-0.353
			c0.915,2.111,1.946,4.925,2.414,6.543L261.316,296.245z M261.949,281.518h-8.957v-1.406h8.957V281.518z M272.831,284.427
			c-0.328,9.637-0.633,12.921-1.431,13.951c-0.492,0.562-0.914,0.75-1.642,0.821c-0.727,0.047-1.993,0.047-3.259-0.047
			c-0.024-0.445-0.211-1.078-0.493-1.524c1.384,0.141,2.626,0.141,3.12,0.141c0.421,0,0.679-0.046,0.914-0.351
			c0.633-0.704,0.96-3.823,1.218-12.312h-3.682c-0.304,5.77-1.312,11.14-4.759,14.422c-0.282-0.375-0.821-0.891-1.22-1.102
			c3.213-2.955,4.174-7.95,4.479-13.32h-3.401v-1.501h3.472c0.046-1.664,0.069-3.375,0.069-5.042h1.524
			c0,1.666-0.023,3.378-0.095,5.042h5.184V284.427L272.831,284.427z"/>
		<path fill="#FFFFFF" d="M280.596,282.714v4.9c0,3.519-0.305,8.654-2.204,12.101c-0.281-0.281-1.009-0.727-1.337-0.867
			c1.783-3.307,1.971-7.927,1.971-11.233v-6.378h9.428c-0.354-0.821-0.846-1.947-1.337-2.813l1.5-0.399
			c0.586,0.985,1.219,2.299,1.548,3.119l-0.306,0.094h8.208v1.478H280.596L280.596,282.714z M298.395,296.925v1.501h-17.4v-1.501
			h9.381c2.275-3.658,4.08-8.419,4.995-12.452l1.618,0.587c-1.126,3.939-2.885,8.207-5.019,11.865H298.395L298.395,296.925z
			 M284.864,294.299c-0.446-2.158-1.571-5.487-2.557-8.021l1.36-0.562c1.008,2.556,2.134,5.84,2.649,7.996L284.864,294.299z
			 M289.413,293.008c-0.306-2.157-1.173-5.464-1.946-7.995l1.406-0.423c0.799,2.556,1.665,5.815,2.018,7.997L289.413,293.008z"/>
		<path fill="#FFFFFF" d="M322.106,297.323c0,1.078-0.305,1.571-1.032,1.829c-0.772,0.282-2.134,0.282-4.338,0.258
			c-0.047-0.398-0.305-1.078-0.54-1.501c1.689,0.071,3.284,0.048,3.752,0.024c0.446-0.024,0.61-0.165,0.61-0.61v-4.996h-6.543v7.014
			h-1.547v-7.014h-6.051c-0.352,2.628-1.125,5.301-2.954,7.341c-0.212-0.304-0.822-0.844-1.173-1.031
			c2.579-2.908,2.837-7.035,2.837-10.342v-8.441h16.979V297.323L322.106,297.323z M312.468,290.851v-4.104h-5.815v1.548
			c0,0.821-0.023,1.665-0.094,2.556H312.468z M306.652,281.331v3.962h5.815v-3.962H306.652z M320.559,281.331h-6.543v3.962h6.543
			V281.331z M320.559,290.851v-4.104h-6.543v4.104H320.559z"/>
		<path fill="#FFFFFF" d="M348.913,289.562h-5.277v10.013h-1.594v-10.013h-6.825c-0.306,3.705-1.523,7.34-5.862,10.06
			c-0.257-0.327-0.82-0.867-1.22-1.126c3.987-2.485,5.184-5.674,5.488-8.934h-5.559v-1.501h5.651
			c0.024-0.352,0.024-0.704,0.024-1.055v-5.77h-4.784v-1.501h19.206v1.501h-4.526v6.824h5.277V289.562z M342.042,288.061v-6.824
			h-6.73v5.769c0,0.352,0,0.704-0.023,1.056H342.042L342.042,288.061z"/>
		<path fill="#FFFFFF" d="M371.662,288.084c-0.984,2.954-2.578,5.299-4.572,7.104c2.064,1.431,4.572,2.486,7.481,3.049
			c-0.352,0.329-0.75,0.962-0.961,1.384c-3.025-0.703-5.604-1.854-7.739-3.446c-2.134,1.569-4.643,2.695-7.27,3.423
			c-0.163-0.399-0.539-0.984-0.82-1.313c2.462-0.609,4.83-1.666,6.894-3.119c-1.477-1.36-2.696-2.979-3.658-4.83
			c-1.641,2.978-3.868,5.439-6.94,7.362c-0.212-0.327-0.751-0.913-1.15-1.173c4.292-2.649,6.918-6.542,8.443-11.467h-3.307
			c-1.501,0-2.252,0.118-2.463,0.375c-0.117-0.351-0.352-1.125-0.539-1.5c0.304-0.07,0.562-0.423,0.82-0.915
			c0.281-0.468,1.15-2.367,1.548-4.15l1.688,0.305c-0.469,1.525-1.102,3.119-1.735,4.362h4.41c0.444-1.712,0.773-3.518,0.983-5.441
			l1.736,0.283c-0.259,1.805-0.563,3.517-0.962,5.158h10.248l-0.023,1.524h-10.646c-0.26,0.892-0.54,1.759-0.868,2.58h8.066
			l0.282-0.07L371.662,288.084z M361.955,289.14c0.914,1.97,2.228,3.705,3.893,5.112c1.571-1.385,2.885-3.096,3.728-5.112H361.955z
			 M370.889,282.784c-0.656-0.914-1.992-2.392-3.001-3.494l1.173-0.728c1.032,1.032,2.391,2.486,3.048,3.354L370.889,282.784z"/>
	</g>
</g>
</svg>
