<?xml version="1.0" encoding="utf-8"?>
<!-- Generator: Adobe Illustrator 16.0.0, SVG Export Plug-In . SVG Version: 6.00 Build 0)  -->
<!DOCTYPE svg PUBLIC "-//W3C//DTD SVG 1.1//EN" "http://www.w3.org/Graphics/SVG/1.1/DTD/svg11.dtd">
<svg version="1.1" id="Layer_1" xmlns="http://www.w3.org/2000/svg" xmlns:xlink="http://www.w3.org/1999/xlink" x="0px" y="0px"
	 width="500px" height="500px" viewBox="0 0 500 500" enable-background="new 0 0 500 500" xml:space="preserve">
<g>
	<polygon fill="#FFFFFF" points="251.359,236.648 251.371,236.663 251.371,236.635 	"/>
	<path fill="#FFFFFF" d="M241.707,244.703h0.001H241.707z"/>
	<rect x="215.922" y="216.74" fill="#FFFFFF" width="14.273" height="47.042"/>
	<polygon fill="#FFFFFF" points="209.7,231.768 219.771,204.989 230.783,204.989 220.712,231.768 	"/>
	<path fill="#FFFFFF" d="M271.459,216.844h-3.094v-11.855H254.09v11.855h-21.745v4.737h21.745v35.933
		c-0.025,1.053-0.888,1.896-1.969,1.948h-5.832v4.736h7.801h6.271h0.994c3.872,0,7.011-3.037,7.011-6.784v-35.833h3.094V216.844
		L271.459,216.844z"/>
	<path fill="#FFFFFF" d="M251.996,237.932l-0.01-0.01c-4.183-1.987-7.583-5.278-9.635-9.327l-0.002-0.001h0.001l0.002-0.002h-0.008
		l0.002,0.002l-0.022,0.022c-2.049,4.033-5.438,7.313-9.606,9.296l-0.023,0.022l0.006-0.002l0.013,0.013
		c4.182,1.985,7.583,5.276,9.636,9.323l0.018-0.017c2.051-4.034,5.44-7.314,9.606-9.296L251.996,237.932z"/>
	<path fill="#FFFFFF" d="M325.26,260.436l-0.03-0.127C325.238,260.351,325.25,260.393,325.26,260.436"/>
	<path fill="#FFFFFF" d="M324.556,256.231l-0.162-0.699C324.438,255.77,324.494,256.002,324.556,256.231"/>
	<polygon fill="#FFFFFF" points="342.994,215.095 333.68,216.026 331.298,206.726 340.712,205.784 	"/>
	<rect x="292.532" y="210.489" fill="#FFFFFF" width="14.416" height="4.737"/>
	<rect x="283.492" y="222.575" fill="#FFFFFF" width="23.443" height="4.736"/>
	<rect x="283.492" y="234.916" fill="#FFFFFF" width="23.443" height="4.738"/>
	<polygon fill="#FFFFFF" points="283.622,221.118 290.772,204.958 301.445,204.958 294.295,221.118 	"/>
	<path fill="#FFFFFF" d="M301.378,225.416v20.845l-0.081,10.071c0,1.496,1.261,2.707,2.746,2.78h3.67v5.085h-9.948h-0.423
		c-5.236,0-9.479-4.224-9.479-9.432v-29.35H301.378L301.378,225.416z"/>
	<polygon fill="#FFFFFF" points="344.51,236.175 309.186,240.018 309.186,234.916 344.51,231.073 	"/>
	<polygon fill="#FFFFFF" points="344.51,223.467 309.186,227.311 309.186,222.209 344.51,218.366 	"/>
	<polygon fill="#FFFFFF" points="344.51,249.139 310.382,264.196 310.382,259.094 344.51,244.037 	"/>
	<path fill="#FFFFFF" d="M342.559,259.097h-0.872c-1.138-0.03-2.08-0.826-2.293-1.875l-2.496-10.666l-9.69-41.598h-14.268
		l12.074,51.829l0.163,0.699c1.053,3.863,4.676,6.713,9,6.713h6.831h3.503v-5.102H342.559L342.559,259.097z"/>
	<rect x="382.053" y="258.063" fill="#FFFFFF" width="36.021" height="6.137"/>
	<polygon fill="#FFFFFF" points="402.771,260.747 408.254,220.46 419.285,221.273 413.891,261.567 	"/>
	<rect x="356.578" y="217.145" fill="#FFFFFF" width="25.603" height="4.713"/>
	<rect x="383.842" y="212.696" fill="#FFFFFF" width="35.493" height="6.077"/>
	<polygon fill="#FFFFFF" points="381.991,238.985 357.411,248.182 356.767,243.514 381.344,234.318 	"/>
	<path fill="#FFFFFF" d="M363.726,204.968v46.323v6.169c0,1.079-1.276,1.949-2.782,2.001h-3.639v4.739h10.08h0.43
		c5.306,0,9.606-3.04,9.606-6.79v-52.442H363.726z"/>
	<polygon fill="#FFFFFF" points="384.026,223.35 394.092,219.613 400.299,253.081 390.236,256.817 	"/>
	<rect x="394.989" y="204.824" fill="#FFFFFF" width="14.154" height="11.35"/>
	<polygon fill="#FFFFFF" points="230.012,275.972 230.012,278.338 218.784,278.338 218.784,283.989 228.542,283.989 
		228.542,286.357 218.784,286.357 218.784,295.01 215.86,295.01 215.86,275.972 	"/>
	<path fill="#FFFFFF" d="M243.18,275.541v12.712c0,0.72,0.146,1.359,0.435,1.918c0.289,0.561,0.668,1.033,1.139,1.42
		c0.469,0.386,0.997,0.682,1.582,0.889c0.586,0.204,1.172,0.308,1.762,0.308c0.639,0,1.268-0.094,1.888-0.281
		c0.621-0.189,1.175-0.47,1.663-0.842c0.491-0.372,0.887-0.837,1.193-1.398c0.305-0.561,0.458-1.214,0.458-1.957v-12.768h2.938
		v12.633c0,1.12-0.211,2.106-0.63,2.958c-0.42,0.853-0.994,1.568-1.725,2.141c-0.729,0.573-1.589,1.008-2.578,1.298
		c-0.99,0.29-2.059,0.439-3.208,0.439c-1.02,0-2.001-0.146-2.946-0.433c-0.945-0.286-1.78-0.718-2.503-1.293
		c-0.726-0.572-1.305-1.29-1.74-2.151c-0.435-0.861-0.652-1.863-0.652-3.014v-12.578H243.18L243.18,275.541z"/>
	<path fill="#FFFFFF" d="M285.834,284.968c0,0.681-0.057,1.351-0.172,2.004c-0.115,0.654-0.28,1.284-0.494,1.884
		c-0.215,0.601-0.471,1.167-0.765,1.702c-0.296,0.533-0.623,1.021-0.98,1.46l2.997,2.662l-1.934,1.617l-2.984-2.693
		c-1.448,0.896-3.212,1.345-5.292,1.345c-1.529,0-2.887-0.243-4.078-0.733c-1.188-0.487-2.189-1.174-3.004-2.056
		c-0.814-0.886-1.435-1.938-1.858-3.157c-0.426-1.219-0.637-2.564-0.637-4.035c0-1.463,0.211-2.803,0.637-4.023
		c0.424-1.218,1.044-2.271,1.858-3.153c0.814-0.884,1.816-1.571,3.004-2.06c1.191-0.488,2.549-0.733,4.078-0.733
		c1.539,0,2.905,0.245,4.101,0.733c1.193,0.488,2.201,1.176,3.021,2.06c0.819,0.883,1.44,1.936,1.866,3.153
		C285.621,282.164,285.834,283.504,285.834,284.968 M282.896,284.968c0-1.203-0.173-2.279-0.516-3.23
		c-0.347-0.948-0.819-1.752-1.418-2.407c-0.601-0.654-1.308-1.154-2.122-1.5c-0.814-0.347-1.692-0.517-2.632-0.517
		c-0.938,0-1.812,0.17-2.622,0.517c-0.811,0.346-1.512,0.846-2.105,1.5c-0.597,0.655-1.064,1.459-1.401,2.407
		c-0.342,0.951-0.512,2.027-0.512,3.23c0,1.202,0.17,2.275,0.512,3.223c0.337,0.945,0.805,1.747,1.401,2.406
		c0.594,0.66,1.295,1.164,2.105,1.515c0.81,0.35,1.684,0.523,2.622,0.523c0.58,0,1.143-0.068,1.688-0.207
		c0.545-0.141,1.057-0.34,1.537-0.6l-2.038-1.871l1.843-1.707l2.098,1.909c0.481-0.646,0.86-1.401,1.142-2.267
		C282.757,287.026,282.896,286.052,282.896,284.968"/>
	<rect x="297.639" y="275.972" fill="#FFFFFF" width="2.908" height="19.037"/>
	<path fill="#FFFFFF" d="M321.524,275.972l7.721,19.037h-3.118l-2.279-5.665h-8.275l-2.294,5.665h-3.133l7.797-19.037H321.524z
		 M319.695,279.093l-3.179,7.952h6.342L319.695,279.093z"/>
	<polygon fill="#FFFFFF" points="341.737,275.972 351.632,291.041 351.632,275.972 354.555,275.972 354.555,295.01 351.031,295.01 
		341.139,279.927 341.139,295.01 338.214,295.01 338.214,275.972 	"/>
	<rect x="364.754" y="291.9" fill="#FFFFFF" width="3.493" height="3.108"/>
	<polygon fill="#FFFFFF" points="381.326,275.972 381.326,292.654 391.668,292.654 391.668,295.01 378.389,295.01 378.389,275.972 	
		"/>
	<path fill="#FFFFFF" d="M411.672,275.972l7.721,19.037h-3.116l-2.279-5.665h-8.276l-2.293,5.665h-3.133l7.796-19.037H411.672z
		 M409.845,279.093l-3.179,7.952h6.341L409.845,279.093z"/>
	<path fill="#FFFFFF" d="M156.101,194.914l-0.048-0.047l-20.281,17.572l-0.002-0.001l-0.012,0.011l-0.002,0.004l0.008,0.005
		c7.987,16.278,21.218,29.511,37.497,37.498l0.05,0.051l17.585-20.297l-0.115-0.115
		C175.978,221.852,163.844,209.718,156.101,194.914"/>
	<path fill="#FFFFFF" d="M115.454,194.867c-7.75,14.844-19.915,27.007-34.759,34.754l-0.087,0.088l17.585,20.296l0.09-0.091
		c16.217-7.978,29.401-21.163,37.38-37.379l0.084-0.086L115.454,194.867z"/>
	<path fill="#FFFFFF" d="M135.77,287.548l-0.006-0.009c-7.988-16.278-21.22-29.51-37.499-37.497l-0.05-0.05L80.63,270.288
		l0.032,0.033c14.874,7.753,27.058,19.938,34.813,34.812l20.281-17.573l0,0l0.012-0.009L135.77,287.548z"/>
	<path fill="#FFFFFF" d="M156.07,305.105c7.75-14.852,19.92-27.018,34.771-34.772l0.047-0.046l-17.586-20.294l-0.089,0.089
		c-16.216,7.979-29.401,21.163-37.379,37.38l-0.085,0.085l20.295,17.585L156.07,305.105z"/>
</g>
</svg>
