<?xml version="1.0" encoding="utf-8"?>
<!-- Generator: Adobe Illustrator 16.0.0, SVG Export Plug-In . SVG Version: 6.00 Build 0)  -->
<!DOCTYPE svg PUBLIC "-//W3C//DTD SVG 1.1//EN" "http://www.w3.org/Graphics/SVG/1.1/DTD/svg11.dtd">
<svg version="1.1" id="Layer_1" xmlns="http://www.w3.org/2000/svg" xmlns:xlink="http://www.w3.org/1999/xlink" x="0px" y="0px"
	 width="500px" height="500px" viewBox="0 0 500 500" enable-background="new 0 0 500 500" xml:space="preserve">
<g>
	<path fill="#FFFFFF" d="M196.456,279.088h4.797l-1.235,2.757h-4.099l-0.982,4.952h0.839v-2.721h3.67v2.721h1.846l0.021,2.588
		h-1.867v3.184h1.883l-0.016,2.729h-1.867v3.622l-3.67,1.486v-5.108h-4.234v-2.729h4.234v-3.184h-4.354v-2.4l1.116-5.14h-1.083
		v-2.757h1.519l0.254-1.327h3.515L196.456,279.088z M200.987,285.322l2.17-7.468h3.857l-0.422,1.399h7.201v5.626h-3.624v-2.976
		h-4.179l-1.108,3.418H200.987L200.987,285.322z M208.934,286.867h1.539l3.321,12.895h-3.843l-2.206-8.846l-2.549,8.846h-3.952
		l4.746-15.92h3.814L208.934,286.867z"/>
	<path fill="#FFFFFF" d="M228.155,295.434l3.404,1.748h14.057l-1.14,2.408H229.67l-1.675-1.246l-3.741,2.093V282.96h3.902
		L228.155,295.434L228.155,295.434z M226.278,277.489c0.366,0.009,0.72,0.104,1.08,0.288c0.357,0.187,0.638,0.457,0.842,0.814
		c0.208,0.355,0.311,0.729,0.315,1.115c0.002,0.391-0.093,0.752-0.298,1.094c-0.202,0.352-0.476,0.617-0.823,0.812
		c-0.35,0.195-0.72,0.291-1.117,0.291c-0.413,0.008-0.793-0.083-1.14-0.284c-0.348-0.199-0.623-0.467-0.828-0.816
		c-0.198-0.342-0.297-0.712-0.286-1.108c0-0.37,0.102-0.737,0.307-1.099c0.207-0.358,0.486-0.634,0.838-0.824
		C225.522,277.585,225.894,277.489,226.278,277.489z M245.349,279.794l-2.033,2.53h2.033v10.796c0,0,0.14,1.182-0.901,2.033
		c-1.044,0.848-1.991,0.769-1.991,0.769h-2.221v-2.473h1.559v-8.688h-2.425v1.385h2.178l0.002,2.402h-2.18v1.343h2.129l0.006,2.396
		h-2.135v2.718l-3.59,1.152v-3.869h-2.432v2.468l-3.567,1.166v-13.598h2.244l-0.899-1.46l4.041-0.013l0.983,1.473h3.05l1.582-2.016
		h-11v-2.427h15.57L245.349,279.794L245.349,279.794z M233.346,286.146h2.433v-1.386h-2.433V286.146z M233.346,289.891h2.433v-1.342
		h-2.433V289.891z"/>
	<path fill="#FFFFFF" d="M258.246,286.364h-2.118v-2.824h10.813l-1.261,2.824h-3.857l-2.193,10.416h2.961l-0.805-7.21h3.472
		l1.172,10.213h-3.513l-0.253-2.483l-1.023,2.329l-5.711-0.014v-2.326L258.246,286.364z M256.222,280.844v-2.78h10.308l-1.171,2.78
		H256.222z M268.738,281.793h-1.988v-2.706h2.304l0.155-1.414h3.726l-0.156,1.414h5.283v17.666c0,0,0.213,1.041-0.728,1.967
		c-0.939,0.929-2.108,0.836-2.108,0.836h-2.447v-2.804h1.623v-14.959h-1.943l-2.047,17.881h-3.724L268.738,281.793z"/>
	<path fill="#FFFFFF" d="M287.236,299.664l3.708-17.062h-3.612v-2.934l3.952,0.013l0.204-1.804h4.256l-0.206,1.791h12.859v17.037
		c0,0,0.08,1.161-1.004,2.136c-1.083,0.98-2.391,0.822-2.391,0.822h-7.228v-2.958h6.573v-14.104h-9.217l-3.624,17.062H287.236
		L287.236,299.664z"/>
	<g>
		<g>
			<rect x="317.064" y="287.832" fill="#FFFFFF" width="99.398" height="2.26"/>
		</g>
		<g>
			<rect x="83.737" y="287.832" fill="#FFFFFF" width="99.399" height="2.26"/>
		</g>
	</g>
	<path fill="#FFFFFF" d="M108.685,199.802c-0.154-0.15-0.365-0.238-0.583-0.238h-0.541c-1.443,0.016-3.964,0.145-7.272,0.723
		c-6.05,1.054-10.462,4.313-13.171,8.377c-2.478,3.722-3.559,9.416-3.559,14.367v9.188c0-1.053,0.558-4.531,2.647-7.067
		c5.011-6.082,11.86-7.633,16.262-7.633h3.803v-0.001c0.842,0.001,1.451,0.001,1.702,0.001h0.126c0.221,0,0.431-0.084,0.584-0.237
		c0.156-0.154,0.242-0.359,0.242-0.576V200.38C108.926,200.164,108.841,199.956,108.685,199.802z"/>
	<path fill="#FFFFFF" d="M149.673,230.125l-0.057,0.133v19.351c0.09,10.937,7.972,19.186,18.336,19.186
		c10.452,0,18.335-8.322,18.335-19.358c0-12.136-7.753-19.358-18.205-19.358c0.005,0-18.277-0.005-18.277-0.005L149.673,230.125z
		 M158.853,249.437c0-5.609,4.082-10.177,9.1-10.177c5.018,0,9.096,4.568,9.096,10.177s-4.079,10.174-9.096,10.174
		C162.934,259.611,158.853,255.046,158.853,249.437z"/>
	<path fill="#FFFFFF" d="M312.778,230.125l-0.059,0.133v19.351c0.088,10.937,7.971,19.186,18.334,19.186
		c10.455,0,18.336-8.322,18.336-19.358c0-12.136-7.755-19.358-18.202-19.358c0.004,0-18.275-0.005-18.275-0.005L312.778,230.125z
		 M321.957,249.437c0-5.609,4.082-10.177,9.097-10.177c5.02,0,9.101,4.568,9.101,10.177s-4.081,10.174-9.101,10.174
		C326.039,259.611,321.957,255.046,321.957,249.437z"/>
	<path fill="#FFFFFF" d="M389.384,230.083c-0.115,0-0.207,0.091-0.207,0.202v37.618c0,0.11,0.091,0.201,0.207,0.201h26.893
		c0.113,0,0.203-0.091,0.203-0.201v-8.022c0-0.112-0.09-0.204-0.203-0.204h-16.797c-0.353,0-0.64-0.277-0.64-0.627v-5.114
		c0-0.35,0.287-0.628,0.64-0.628h16.006c0.112,0,0.204-0.092,0.204-0.202v-8.024c0-0.109-0.092-0.2-0.204-0.2h-16.006
		c-0.353,0-0.64-0.28-0.64-0.629v-5.113c0-0.35,0.287-0.629,0.64-0.629h16.797c0.113,0,0.203-0.091,0.203-0.203v-8.022
		c0-0.11-0.09-0.202-0.203-0.202L389.384,230.083L389.384,230.083z"/>
	<path fill="#FFFFFF" d="M372.532,230.083l-0.144,0.059l-0.061,0.144v17.406c0,0.294-0.208,0.551-0.5,0.614
		c-0.291,0.062-0.588-0.087-0.711-0.353l-8.2-17.72c-0.038-0.083-0.122-0.149-0.185-0.149h-9.119l-0.146,0.059l-0.061,0.144
		l0.004,37.618c0,0.11,0.09,0.201,0.204,0.201h9.119l0.146-0.061l0.058-0.141v-17.375c0-0.299,0.208-0.55,0.499-0.612
		c0.295-0.065,0.591,0.084,0.716,0.349l8.196,17.722c0.034,0.069,0.109,0.117,0.188,0.117h9.16l0.146-0.061l0.059-0.141
		l-0.001-37.618c0-0.11-0.091-0.202-0.205-0.202H372.532L372.532,230.083z"/>
	<path fill="#FFFFFF" d="M124.958,216.739c-6.145,0.886-10.883,3.995-13.004,8.532c-0.866,1.853-1.291,3.733-1.291,5.561
		c0,3.374,1.514,6.718,4.321,9.247c1.823,1.646,4.231,3.001,6.901,4.089c0.001,0,3.813,1.314,3.813,1.314
		c2.205,0.709,4.697,1.719,6.255,2.529c1.924,1.007,3.57,2.646,3.57,5.005c0,0.668-0.154,1.616-0.476,2.334
		c-1.014,2.252-3.832,3.9-7.577,3.837c-6.059-0.108-10.167-3.63-13-6.611l-1.815-2.085c-0.733-0.949-0.96-1.335-1.319-1.339
		c-0.338-0.005-0.34,0.296-0.34,0.912v9.497c-0.005,0.978-0.01,2.083,0.558,2.672c3.934,4.056,9.941,6.57,15.681,6.562
		c5.989-0.004,10.565-1.853,13.952-5.151c4.154-4.048,5.548-10.816,3.493-16.193c-1.441-3.778-5.67-7.194-13.217-9.722
		c-5.403-1.808-8.194-3.247-9.453-4.692c-1.112-1.282-1.318-2.838-0.749-4.179c0.695-1.637,2.526-2.698,4.939-3.009
		c2.047-0.261,4.842-0.154,8.768,1.585c1.625,0.723,4.921,2.55,6.759,4.601c0.404,0.447,0.754,0.396,0.807,0.171
		c0.038-0.163,0.026-0.521,0.026-0.866v-7.777l0.006-0.477c0.019-0.82,0.027-1.126-0.524-1.619
		c-1.042-0.931-4.126-2.722-7.107-3.715C131.541,216.621,127.873,216.319,124.958,216.739z"/>
	<path fill="#FFFFFF" d="M190.768,230.083c-0.114,0-0.206,0.091-0.206,0.202v37.618c0,0.11,0.092,0.201,0.206,0.201h9.479
		c0.115,0,0.207-0.091,0.207-0.201v-10.409c0-0.17,0.065-0.328,0.185-0.446c0.12-0.121,0.281-0.188,0.45-0.188h14.382
		c0.112,0,0.206-0.091,0.206-0.2v-8.023c0-0.111-0.094-0.203-0.206-0.203h-14.382c-0.354,0-0.635-0.279-0.635-0.631v-8.664
		c0-0.35,0.281-0.629,0.635-0.629h15.502c0.113,0,0.207-0.091,0.207-0.203v-8.022c0-0.11-0.093-0.202-0.207-0.202L190.768,230.083
		L190.768,230.083z"/>
	<path fill="#FFFFFF" d="M220.405,230.083c-0.115,0-0.206,0.091-0.206,0.202v8.022c0,0.112,0.091,0.203,0.206,0.203h6.875
		c0.352,0,0.635,0.279,0.635,0.628v28.764c0,0.11,0.092,0.201,0.207,0.201h9.48c0.112,0,0.206-0.091,0.206-0.201v-28.764
		c0-0.349,0.282-0.628,0.636-0.628h6.87c0.113,0,0.205-0.091,0.205-0.203v-8.022c0-0.111-0.091-0.202-0.205-0.202H220.405
		L220.405,230.083z"/>
	<path fill="#FFFFFF" d="M284.146,230.083c-0.112,0-0.207,0.091-0.207,0.202v8.022c0,0.112,0.095,0.203,0.207,0.203h6.877
		c0.35,0,0.633,0.279,0.633,0.628v28.764c0,0.11,0.093,0.201,0.205,0.201h9.481c0.112,0,0.207-0.091,0.207-0.201v-28.764
		c0-0.349,0.283-0.628,0.635-0.628h6.87c0.113,0,0.205-0.091,0.205-0.203v-8.022c0-0.111-0.092-0.202-0.205-0.202H284.146
		L284.146,230.083z"/>
	<path fill="#FFFFFF" d="M262.925,216.739c-6.144,0.886-10.882,3.995-13.002,8.532c-0.868,1.853-1.293,3.733-1.293,5.561
		c0,3.374,1.515,6.718,4.324,9.247c1.82,1.646,4.231,3.001,6.899,4.089c0.003,0,3.812,1.314,3.812,1.314
		c2.204,0.709,4.698,1.719,6.256,2.529c1.925,1.007,3.571,2.646,3.571,5.005c0,0.668-0.156,1.616-0.478,2.334
		c-1.015,2.252-3.831,3.9-7.576,3.837c-6.061-0.108-10.165-3.63-13.001-6.611l-1.815-2.085c-0.733-0.949-0.96-1.335-1.32-1.339
		c-0.336-0.005-0.339,0.296-0.339,0.912v9.497c-0.005,0.978-0.01,2.083,0.558,2.672c3.935,4.056,9.944,6.57,15.684,6.562
		c5.986-0.004,10.563-1.853,13.95-5.151c4.154-4.048,5.547-10.816,3.493-16.193c-1.444-3.778-5.67-7.194-13.218-9.722
		c-5.402-1.808-8.194-3.247-9.452-4.692c-1.113-1.282-1.321-2.838-0.753-4.179c0.697-1.637,2.529-2.698,4.943-3.009
		c2.044-0.261,4.841-0.154,8.766,1.585c1.624,0.723,4.922,2.55,6.76,4.601c0.401,0.447,0.753,0.396,0.806,0.171
		c0.038-0.163,0.025-0.521,0.025-0.866v-7.777l0.008-0.477c0.021-0.82,0.026-1.126-0.523-1.619
		c-1.045-0.931-4.127-2.722-7.106-3.715C269.51,216.621,265.842,216.319,262.925,216.739z"/>
	<path fill="#FFFFFF" d="M94.663,268.104c4.174,0,8.785-3.322,8.812-7.433h0.003v-34.818h-1.011c-7.53,0-13.008,2.336-16.509,6.664
		c-2.933,3.621-2.4,6.37-2.4,10.645v24.941C83.559,268.104,92.912,268.104,94.663,268.104z"/>
</g>
</svg>
