<?xml version="1.0" encoding="utf-8"?>
<!-- Generator: Adobe Illustrator 16.0.0, SVG Export Plug-In . SVG Version: 6.00 Build 0)  -->
<!DOCTYPE svg PUBLIC "-//W3C//DTD SVG 1.1//EN" "http://www.w3.org/Graphics/SVG/1.1/DTD/svg11.dtd">
<svg version="1.1" id="Layer_1" xmlns="http://www.w3.org/2000/svg" xmlns:xlink="http://www.w3.org/1999/xlink" x="0px" y="0px"
	 width="500px" height="500px" viewBox="0 0 500 500" enable-background="new 0 0 500 500" xml:space="preserve">
<g>
	<path fill="#FFFFFF" d="M92.466,183.537v132.926c0,4.246,5.133,6.372,8.134,3.369l28.075-28.073
		c1.167-1.168,1.823-2.751,1.823-4.402v-74.714c0-1.651-0.656-3.234-1.823-4.401L100.6,180.167
		C97.599,177.165,92.466,179.291,92.466,183.537"/>
	<path fill="#FFFFFF" d="M229.946,316.463V183.537c0-4.246-5.133-6.372-8.135-3.37l-28.074,28.075
		c-1.167,1.167-1.823,2.75-1.823,4.401v74.715c0,1.651,0.656,3.234,1.823,4.401l28.074,28.073
		C224.813,322.834,229.946,320.708,229.946,316.463"/>
	<path fill="#FFFFFF" d="M297.344,265.589l8.763,5.981c0.367,0.25,0.85,0.248,1.215-0.003l3.53-2.435
		c0.619-0.429,0.618-1.344-0.002-1.77l-8.761-6.013c-0.368-0.254-0.856-0.252-1.223,0.004l-3.531,2.467
		C296.719,264.251,296.724,265.165,297.344,265.589"/>
	<path fill="#FFFFFF" d="M306.372,227.348l5.56-3.837c0.62-0.428,0.619-1.345-0.003-1.771l-3.71-2.541
		c-0.364-0.25-0.844-0.251-1.209-0.004l-14.035,9.48c-0.632,0.426-0.631,1.356,0.001,1.782l3.435,2.312
		c0.311,0.209,0.679,0.321,1.054,0.321h20.27l-8.701,5.927c-0.363,0.248-0.841,0.249-1.206,0.002l-3.1-2.094
		c-0.363-0.245-0.837-0.246-1.199-0.001l-3.669,2.461c-0.631,0.424-0.634,1.353-0.004,1.78l8.06,5.471
		c0.364,0.248,0.844,0.247,1.209-0.001l20.146-13.735c0.293-0.199,0.468-0.529,0.468-0.883c0.001-1.087,0.002-2.449,0.002-3.596
		c0-0.593-0.48-1.075-1.073-1.075H306.372L306.372,227.348z"/>
	<path fill="#FFFFFF" d="M274.49,235.645l-4.791-3.612c-0.708-0.534-1.722-0.029-1.722,0.857v15.98c0,0.864,0.969,1.375,1.682,0.887
		l4.791-3.28c0.292-0.2,0.468-0.532,0.468-0.886v-9.089C274.918,236.165,274.76,235.848,274.49,235.645"/>
	<path fill="#FFFFFF" d="M326.366,251.278v-2.299c0-0.354-0.175-0.685-0.466-0.885l-5.031-3.457
		c-0.713-0.489-1.682,0.021-1.682,0.885v5.754h-25.312c-1.057,0-1.479,1.365-0.606,1.962l5.058,3.453
		c0.313,0.214,0.685,0.329,1.064,0.329h19.796v17.471c0,0.507,0.204,0.992,0.566,1.348l4.787,4.683
		c0.68,0.665,1.825,0.183,1.825-0.769v-22.732h4.43c0.593,0,1.074-0.48,1.074-1.074v-3.595c0-0.594-0.481-1.074-1.074-1.074H326.366
		L326.366,251.278z"/>
	<path fill="#FFFFFF" d="M280.354,249.731l-11.844,8.395c-0.606,0.429-0.604,1.331,0.006,1.757l3.719,2.597
		c0.373,0.26,0.87,0.257,1.24-0.008l6.884-4.931l0.034,22.278c0.002,0.951,1.15,1.432,1.829,0.763l4.817-4.755
		c0.359-0.354,0.562-0.838,0.562-1.342v-47.658c0-0.354-0.175-0.686-0.468-0.886l-5.064-3.469c-0.713-0.489-1.681,0.021-1.682,0.885
		L280.354,249.731z"/>
	<path fill="#FFFFFF" d="M351.95,237.682h4.982c0.588,0,1.063-0.477,1.063-1.064v-12.094c0-0.587-0.476-1.064-1.063-1.064h-4.982
		c-0.588,0-1.064,0.477-1.064,1.064v12.094C350.886,237.205,351.362,237.682,351.95,237.682"/>
	<path fill="#FFFFFF" d="M365.818,224.524v4.272c0,0.588,0.476,1.064,1.064,1.064h32.772c0.425,0,0.769,0.344,0.769,0.769v43.873
		c0,0.499,0.199,0.977,0.553,1.328l4.745,4.702c0.672,0.666,1.812,0.191,1.812-0.755v-55.252c0-0.587-0.475-1.064-1.063-1.064
		h-39.588C366.295,223.46,365.818,223.937,365.818,224.524"/>
	<path fill="#FFFFFF" d="M352.697,280.585l4.743-4.682c0.355-0.351,0.556-0.83,0.556-1.33v-28.005c0-0.588-0.476-1.064-1.063-1.064
		h-4.982c-0.588,0-1.065,0.477-1.065,1.064v33.259C350.885,280.771,352.024,281.248,352.697,280.585"/>
</g>
</svg>
