<?xml version="1.0" encoding="utf-8"?>
<!-- Generator: Adobe Illustrator 16.0.0, SVG Export Plug-In . SVG Version: 6.00 Build 0)  -->
<!DOCTYPE svg PUBLIC "-//W3C//DTD SVG 1.1//EN" "http://www.w3.org/Graphics/SVG/1.1/DTD/svg11.dtd">
<svg version="1.1" id="Layer_1" xmlns="http://www.w3.org/2000/svg" xmlns:xlink="http://www.w3.org/1999/xlink" x="0px" y="0px"
	 width="500px" height="500px" viewBox="0 0 500 500" enable-background="new 0 0 500 500" xml:space="preserve">
<g>
	<path fill="#FFFFFF" d="M292.42,263.618v8.8h-8.033c-2.376,0-4.311-1.93-4.311-4.307v-14.746h13.902c1.623,0,2.947-1.32,2.947-2.95
		v-31.455c0-5.066-4.109-9.18-9.178-9.18v-6.961h-9.557v6.961h-35.703l-2.093-6.961h-9.562l2.095,6.961h-3.071
		c-3.914,0-7.082,3.168-7.082,7.081v32.452h3.705c2.582,0,4.912-1.574,5.868-3.979h-0.016v-27.522h52.176
		c1.789,0,3.246,1.45,3.246,3.237v24.285h-49.465l-3.198,8.03h0.021l-12.005,27.949h9.557l12.007-27.949h26.572v14.967
		c0,7.135,5.78,12.925,12.921,12.925h9.734c4.064,0,7.363-3.299,7.363-7.366v-6.245c0-2.218-1.801-4.028-4.029-4.028L292.42,263.618
		L292.42,263.618z"/>
	<path fill="#FFFFFF" d="M333.729,204.434h-21.25c-1.625,0-2.945,1.316-2.945,2.947v66.352c0,1.634,1.32,2.951,2.945,2.951h21.25
		c1.621,0,2.941-1.317,2.941-2.951v-66.352C336.67,205.75,335.35,204.434,333.729,204.434 M327.496,268.659h-8.408v-55.82h8.408
		V268.659z"/>
	<path fill="#FFFFFF" d="M388.391,253.396c1.631,0,2.945-1.319,2.945-2.942v-33.859c0-7.137-5.785-12.927-12.922-12.927h-30.762
		c-1.633,0-2.955,1.322-2.955,2.944v62.835c0,6.306,5.113,11.419,11.422,11.419h33.428c1.625,0,2.949-1.317,2.949-2.948v-5.459
		h-35.783c-1.35,0-2.451-1.099-2.451-2.46v-57.919h23.594c2.381,0,4.309,1.926,4.309,4.307v28.984h-9.133v-22.129
		c0-3.448-2.793-6.24-6.24-6.24h-2.934v36.395H388.391L388.391,253.396z"/>
	<g>
		<g>
			<path id="SVGID_1_" fill="#FFFFFF" d="M131.313,177.406c-5.9,0-12.108,0.284-18.426,0.862c-3.074,0.278-5.385,2.813-5.383,5.903
				v98.515h14.709v-89.059c3.018-0.165,7.73-0.276,10.597-0.276c12.678,0,23.31,1.634,29.939,4.588
				c16.099,7.175,24.609,20.212,24.609,37.695c0,8.526-2.327,17.662-6.208,24.436c-3.571,6.207-10.35,13.721-22.379,14.244
				c-0.28,0.004-0.541,0.016-0.807,0.016c-4.592,0-8.537-1.795-11.126-5.064c-2.343-2.964-3.274-7.109-2.55-11.393
				c1.06-6.328,6.236-14.05,17.306-15.015l0.709-0.056v-10.342l-0.793,0.025c-16.101,0.4-26.613,12.354-28.323,23.4
				c-1.263,8.123,0.409,15.167,4.833,20.361c4.672,5.493,12.42,8.804,20.722,8.856h0.316c14.11,0,25.439-6.161,32.774-17.806
				c5.395-8.562,8.609-20.378,8.609-31.604c0-23.321-12.594-43.432-32.88-52.478C158.917,179.36,146.723,177.406,131.313,177.406z"
				/>
		</g>
	</g>
	<g>
		<path fill="#FFFFFF" d="M117.831,317.654h-2.568v-7.134c0-1.749-0.599-3.212-2.327-3.212c-1.262,0-2.613,1.041-2.613,2.88v7.466
			h-2.569v-17.768h2.569v7.223h0.044c0.797-1.264,2.171-1.928,3.5-1.928c1.838,0,3.965,1.239,3.965,5.095L117.831,317.654
			L117.831,317.654z"/>
		<path fill="#FFFFFF" d="M121.569,303.232l2.547-0.798v3.014h2.902v1.927h-2.902v6.18c0,1.508,0.467,2.238,1.552,2.238
			c0.508,0,0.819-0.066,1.129-0.156l0.088,1.973c-0.442,0.176-1.129,0.288-1.995,0.288c-1.017,0-1.882-0.331-2.413-0.931
			c-0.621-0.665-0.909-1.684-0.909-3.278v-6.313h-1.729v-1.927h1.729L121.569,303.232L121.569,303.232z"/>
		<path fill="#FFFFFF" d="M129.739,303.232l2.547-0.798v3.014h2.901v1.927h-2.901v6.18c0,1.508,0.466,2.238,1.552,2.238
			c0.509,0,0.819-0.066,1.13-0.156l0.088,1.973c-0.443,0.176-1.129,0.288-1.994,0.288c-1.018,0-1.883-0.331-2.414-0.931
			c-0.621-0.665-0.909-1.684-0.909-3.278v-6.313h-1.728v-1.927h1.728V303.232L129.739,303.232z"/>
		<path fill="#FFFFFF" d="M139.748,307.309c0.843-1.375,2.171-2.127,3.877-2.127c2.747,0,4.808,2.438,4.808,6.225
			c0,4.475-2.593,6.492-5.163,6.492c-1.462,0-2.657-0.688-3.256-1.684h-0.044v6.379h-2.569v-13.202c0-1.596-0.046-2.857-0.09-3.943
			h2.261l0.132,1.86H139.748z M139.97,312.736c0,2.192,1.506,3.123,2.769,3.123c1.993,0,3.078-1.838,3.078-4.363
			c0-2.326-1.041-4.253-3.012-4.253c-1.528,0-2.835,1.44-2.835,3.233V312.736z"/>
		<path fill="#FFFFFF" d="M150.598,307.441c0-0.998,0.687-1.75,1.638-1.75c0.975,0,1.64,0.708,1.64,1.75
			c0,0.975-0.643,1.729-1.64,1.729C151.195,309.17,150.598,308.371,150.598,307.441z M150.598,316.17c0-0.997,0.687-1.75,1.638-1.75
			c0.975,0,1.64,0.73,1.64,1.75c0,0.998-0.643,1.729-1.64,1.729C151.195,317.898,150.598,317.099,150.598,316.17z"/>
		<path fill="#FFFFFF" d="M156.664,318.674h-1.86l6.335-18.234h1.883L156.664,318.674z"/>
		<path fill="#FFFFFF" d="M164.856,318.674h-1.86l6.336-18.234h1.882L164.856,318.674z"/>
		<path fill="#FFFFFF" d="M188.513,305.448l-3.699,12.206h-2.327l-1.572-5.404c-0.377-1.286-0.643-2.46-0.91-3.9h-0.065
			c-0.245,1.463-0.577,2.701-0.954,3.922l-1.66,5.383H175l-3.5-12.206h2.659l1.35,5.848c0.289,1.308,0.577,2.612,0.799,3.899h0.043
			c0.243-1.265,0.619-2.613,0.976-3.877l1.683-5.87h2.104l1.597,5.737c0.376,1.418,0.709,2.723,0.951,4.01h0.068
			c0.198-1.265,0.486-2.57,0.819-3.988l1.417-5.759H188.513L188.513,305.448z"/>
		<path fill="#FFFFFF" d="M206.228,305.448l-3.699,12.206h-2.327l-1.572-5.404c-0.376-1.286-0.643-2.46-0.909-3.9h-0.066
			c-0.245,1.463-0.577,2.701-0.954,3.922l-1.66,5.383h-2.327l-3.5-12.206h2.659l1.35,5.848c0.289,1.308,0.577,2.612,0.799,3.899
			h0.044c0.242-1.265,0.619-2.613,0.976-3.877l1.683-5.87h2.104l1.596,5.737c0.377,1.418,0.709,2.723,0.952,4.01h0.068
			c0.198-1.265,0.487-2.57,0.819-3.988l1.417-5.759H206.228L206.228,305.448z"/>
		<path fill="#FFFFFF" d="M223.942,305.448l-3.699,12.206h-2.327l-1.572-5.404c-0.376-1.286-0.644-2.46-0.909-3.9h-0.066
			c-0.245,1.463-0.577,2.701-0.953,3.922l-1.66,5.383h-2.327l-3.501-12.206h2.66l1.35,5.848c0.289,1.308,0.577,2.612,0.799,3.899
			h0.044c0.242-1.265,0.619-2.613,0.976-3.877l1.682-5.87h2.104l1.596,5.737c0.377,1.418,0.709,2.723,0.952,4.01h0.067
			c0.199-1.265,0.487-2.57,0.819-3.988l1.418-5.759H223.942L223.942,305.448z"/>
		<path fill="#FFFFFF" d="M225.552,316.148c0-1.02,0.709-1.772,1.66-1.772c0.976,0,1.64,0.731,1.64,1.772
			c0,1.02-0.643,1.75-1.662,1.75S225.552,317.123,225.552,316.148z"/>
		<path fill="#FFFFFF" d="M241.521,314.398c0,1.107,0.043,2.414,0.09,3.256h-2.261l-0.132-1.905h-0.066
			c-0.643,1.239-1.972,2.149-3.7,2.149c-2.77,0-4.873-2.459-4.873-6.227c0-4.143,2.369-6.49,5.095-6.49
			c1.572,0,2.703,0.709,3.234,1.639h0.044v-6.934h2.57V314.398L241.521,314.398z M238.952,310.387c0-1.992-1.262-3.166-2.702-3.166
			c-1.973,0-3.058,1.949-3.058,4.363c0,2.393,1.063,4.231,3.012,4.231c1.662,0,2.748-1.462,2.748-3.169V310.387z"/>
		<path fill="#FFFFFF" d="M254.72,314.153c0,1.375,0.066,2.526,0.11,3.501h-2.259l-0.134-1.772h-0.066
			c-0.51,0.841-1.706,2.017-3.677,2.017c-2.105,0-3.945-1.307-3.945-5.207v-7.267h2.572v6.847c0,2.105,0.596,3.5,2.28,3.5
			c1.175,0,2.547-0.932,2.547-2.77v-7.553h2.572L254.72,314.153L254.72,314.153z"/>
		<path fill="#FFFFFF" d="M259.299,303.564c-0.887,0-1.485-0.666-1.485-1.484c0-0.863,0.621-1.506,1.507-1.506
			c0.887,0,1.484,0.643,1.484,1.506C260.806,302.898,260.229,303.564,259.299,303.564z M260.583,317.654h-2.569v-12.23h2.569
			V317.654z"/>
		<path fill="#FFFFFF" d="M266.494,307.152c0.731-1.24,1.996-1.971,3.699-1.971c2.792,0,4.721,2.459,4.721,6.181
			c0,4.453-2.594,6.536-5.119,6.536c-1.572,0-2.791-0.643-3.61-2.083h-0.065l-0.133,1.839h-2.195
			c0.047-0.819,0.091-2.148,0.091-3.256v-14.512h2.569v7.266H266.494L266.494,307.152z M266.451,312.824
			c0,1.552,1.107,3.014,2.791,3.014c1.971,0,3.057-1.75,3.057-4.363c0-2.305-0.996-4.232-3.034-4.232
			c-1.618,0-2.812,1.572-2.812,3.19L266.451,312.824L266.451,312.824z"/>
		<path fill="#FFFFFF" d="M285.984,314.752c0,1.041,0.021,2.105,0.176,2.902h-2.324l-0.18-1.418h-0.064
			c-0.688,0.953-1.884,1.662-3.414,1.662c-2.281,0-3.588-1.684-3.588-3.566c0-3.035,2.637-4.542,6.824-4.542
			c0-0.909,0-2.726-2.459-2.726c-1.085,0-2.194,0.332-2.97,0.844l-0.53-1.707c0.863-0.554,2.303-1.02,3.943-1.02
			c3.588,0,4.586,2.37,4.586,4.963V314.752z M283.48,311.518c-2.016,0-4.344,0.377-4.344,2.549c0,1.352,0.844,1.947,1.795,1.947
			c1.395,0,2.549-1.063,2.549-2.48V311.518z"/>
		<path fill="#FFFFFF" d="M288.857,316.148c0-1.02,0.709-1.772,1.66-1.772c0.977,0,1.641,0.731,1.641,1.772
			c0,1.02-0.645,1.75-1.662,1.75C289.477,317.898,288.857,317.123,288.857,316.148z"/>
		<path fill="#FFFFFF" d="M302.855,317.277c-0.576,0.268-1.729,0.621-3.146,0.621c-3.521,0-5.824-2.414-5.824-6.226
			c0-3.699,2.391-6.491,6.311-6.491c1.178,0,2.197,0.289,2.727,0.553l-0.508,1.974c-0.445-0.223-1.154-0.487-2.195-0.487
			c-2.391,0-3.721,1.949-3.721,4.342c0,2.68,1.572,4.275,3.697,4.275c1.021,0,1.73-0.244,2.307-0.488L302.855,317.277z"/>
		<path fill="#FFFFFF" d="M315.676,311.451c0,4.562-2.967,6.447-5.715,6.447c-3.168,0-5.582-2.327-5.582-6.27
			c0-4.123,2.525-6.447,5.76-6.447C313.482,305.182,315.676,307.707,315.676,311.451z M310.049,307.109
			c-2.193,0-3.033,2.348-3.033,4.453c0,2.393,1.129,4.408,3.012,4.408c1.861,0,3.014-2.016,3.014-4.452
			C313.041,309.501,312.199,307.109,310.049,307.109z"/>
		<path fill="#FFFFFF" d="M334.967,317.654h-2.525v-6.979c0-2.037-0.664-3.389-2.215-3.389c-1.176,0-2.371,1.062-2.371,2.836v7.531
			h-2.523v-7.355c0-1.707-0.645-3.012-2.129-3.012c-1.152,0-2.457,1.041-2.457,2.968v7.399h-2.525v-8.773
			c0-1.375-0.045-2.391-0.09-3.433h2.217l0.131,1.794h0.066c0.6-1.019,1.707-2.061,3.566-2.061c1.553,0,2.727,0.864,3.234,2.236
			h0.047c0.818-1.35,2.014-2.236,3.764-2.236c1.818,0,3.812,1.24,3.812,5.096v7.377H334.967z"/>
		<path fill="#FFFFFF" d="M337.816,316.148c0-1.02,0.709-1.772,1.66-1.772c0.975,0,1.641,0.731,1.641,1.772
			c0,1.02-0.645,1.75-1.662,1.75C338.436,317.898,337.816,317.123,337.816,316.148z"/>
		<path fill="#FFFFFF" d="M351.814,317.277c-0.576,0.268-1.729,0.621-3.146,0.621c-3.523,0-5.824-2.414-5.824-6.226
			c0-3.699,2.391-6.491,6.311-6.491c1.176,0,2.195,0.289,2.727,0.553l-0.508,1.974c-0.445-0.223-1.154-0.487-2.195-0.487
			c-2.391,0-3.721,1.949-3.721,4.342c0,2.68,1.572,4.275,3.697,4.275c1.02,0,1.729-0.244,2.307-0.488L351.814,317.277z"/>
		<path fill="#FFFFFF" d="M364.193,317.654h-2.57v-7.156c0-1.727-0.576-3.189-2.326-3.189c-1.262,0-2.613,1.041-2.613,2.99v7.355
			h-2.57v-8.773c0-1.353-0.043-2.391-0.09-3.433h2.238l0.133,1.816h0.066c0.576-1.042,1.861-2.083,3.701-2.083
			c1.904,0,4.031,1.239,4.031,5.007V317.654z"/>
	</g>
</g>
</svg>
