<?xml version="1.0" encoding="utf-8"?>
<!-- Generator: Adobe Illustrator 16.0.0, SVG Export Plug-In . SVG Version: 6.00 Build 0)  -->
<!DOCTYPE svg PUBLIC "-//W3C//DTD SVG 1.1//EN" "http://www.w3.org/Graphics/SVG/1.1/DTD/svg11.dtd">
<svg version="1.1" id="Layer_1" xmlns="http://www.w3.org/2000/svg" xmlns:xlink="http://www.w3.org/1999/xlink" x="0px" y="0px"
	 width="500px" height="500px" viewBox="0 0 500 500" enable-background="new 0 0 500 500" xml:space="preserve">
<g>
	<g>
		<g>
			<g>
				<path fill="#FFFFFF" d="M119.131,207.132v-0.335H91.6v-4.113h22.179c4.941,0,5.353-2.601,5.353-5.054v-0.339H91.6v-2.812h-7.157
					v2.812H56.909v5.393h27.534v4.113H56.909v5.397h56.871C118.72,212.194,119.131,209.582,119.131,207.132z"/>
				<path fill="#FFFFFF" d="M119.131,232.948v-0.342h-13.223v-3.676h4.561c4.538,0,8.235-3.136,8.235-6.995v-6.66H57.347v6.66
					c0,3.859,3.69,6.995,8.224,6.995h2.792v3.676H56.909v5.393h56.871C118.72,237.999,119.131,235.386,119.131,232.948z
					 M66.34,223.532c-1.021,0-1.843-0.711-1.843-1.598v-1.271h47.051v1.271c0,0.886-0.83,1.598-1.836,1.598H66.34z M98.747,232.605
					H75.528v-3.676h23.219V232.605z"/>
				<path fill="#FFFFFF" d="M320.825,194.792h-6.333v3.136h-10.388v-3.136h-6.344v59.716h28.3c4.899,0,5.303-3.049,5.303-5.914
					v-0.423h-10.538V237.76h5.235c4.899,0,5.303-3.053,5.303-5.906v-0.43h-10.538v-10.406h5.235c4.899,0,5.303-3.046,5.303-5.914
					v-0.426h-10.538v-10.411h5.235c4.899,0,5.303-3.058,5.303-5.913v-0.427h-10.538V194.792L320.825,194.792z M314.492,248.171
					h-10.388V237.76h10.388V248.171z M314.492,231.424h-10.388v-10.406h10.388V231.424z M314.492,214.678h-10.388v-10.411h10.388
					V214.678z"/>
				<path fill="#FFFFFF" d="M118.705,247.756v-6.664H57.347v6.664c0,3.857,3.69,6.994,8.224,6.994h44.899
					C115.008,254.75,118.705,251.613,118.705,247.756z M66.34,249.363c-1.021,0-1.843-0.716-1.843-1.606v-1.267h47.051v1.267
					c0,0.891-0.83,1.606-1.836,1.606H66.34z"/>
				<path fill="#FFFFFF" d="M285.081,227.313c-4.021,0-6.905,0.866-8.815,5.2l-9.711,21.995c6.518-0.061,8.522-1.756,9.895-4.855
					l9.86-22.339H285.081L285.081,227.313z"/>
				<path fill="#FFFFFF" d="M157.995,244.305c3.408,1.084,6.17,3.011,8.842,4.88c3.935,2.731,7.651,5.323,13.151,5.323
					c7.249,0,11.409-4.03,11.409-11.04v-10.407c0-7.693-4.032-11.59-11.981-11.59h-42.921v-15.036h-7.296v21.567h49.437
					c4.437,0,5.454,0.947,5.454,5.058v9.31c0,2.643-0.347,4.513-4.873,4.513c-2.374,0-4.866-1.568-8.025-3.566
					c-4.082-2.561-9.158-5.767-16.015-6.63c-1.353-0.167-2.758-0.264-4.171-0.264c-7.931,0-15.891,2.612-22.432,7.36v8.365
					c1.998-1.573,11.839-8.876,22.646-8.876C153.574,243.272,155.857,243.607,157.995,244.305z"/>
				<path fill="#FFFFFF" d="M135.414,202.409h36.82c7.44,0,8.756,0.652,8.756,8.756v6.336h7.305v-7.893
					c0-10.136-3.6-13.731-13.735-13.731h-45.362v0.188C129.232,197.552,129.79,202.409,135.414,202.409z"/>
				<path fill="#FFFFFF" d="M288.586,204.268v14.373h-7.926c-4.384,0-4.554-0.78-4.554-4.086v-7.049h-6.332v7.049
					c0,4.855,1.244,10.426,10.886,10.426h7.926v18.812c0,2.562-0.335,4.379-4.727,4.379h-2.23v6.337h2.23
					c9.258,0,11.062-3.932,11.062-10.716v-45.864h-24.956c0.027,0.708,0.266,3.016,1.852,4.632c1.116,1.139,2.68,1.708,4.644,1.708
					H288.586z"/>
				<g>
					<path fill="#FFFFFF" d="M208.393,197.725h-2.658c-3.417,0-6.189,2.661-6.189,6.072l0,0l0,0l0,0h6.189l0,0h2.658v17.689h-2.658
						l-0.007,0.007c-3.404,0-6.174,2.661-6.182,6.072l0,0l0,0v0.011h6.189v-0.011h2.658v16.227c0,2.551-0.358,4.509-4.865,4.509
						h-3.981v6.072h4.738c6.95,0,10.946-3.856,10.946-10.581V194.69h-6.837V197.725z"/>
					<g>
						<path fill="#FFFFFF" d="M218.434,197.676v6.343h36.316c3.689,0,6.673-2.834,6.673-6.325v-0.018H218.434z"/>
					</g>
					<g>
						<rect x="235.909" y="194.521" fill="#FFFFFF" width="6.698" height="7.38"/>
					</g>
					<g>
						<path fill="#FFFFFF" d="M227.578,245.812h0.182c1.653,0,3.226-0.716,4.326-1.953c1.293-1.455,1.78-3.46,1.384-5.638
							l-4.037-23.192c-0.728-4.309-3.253-6.311-7.946-6.311h-0.249l6.306,36.923L227.578,245.812z"/>
						<path fill="#FFFFFF" d="M248.437,248.436c3.341-3.931,4.029-7.003,4.945-12.514l4.65-26.972l0.027-0.231h-0.246
							c-4.7,0-7.225,2.002-7.949,6.311c-0.038,0.2-3.422,19.12-3.614,19.983c-1.693,7.792-4.354,13.423-9.125,13.423h-18.692v6.34
							h36.316c3.581,0,6.569-2.75,6.673-6.128v-0.211H248.437z"/>
					</g>
				</g>
			</g>
			<g>
				<path fill="#FFFFFF" d="M366.345,196.661h-8.773c-11.93,0-17.46,8.429-17.46,17.67v39.987h7.274v-23.542h18.96h3.159h1.884
					c3.691,0,6.68-3.558,6.68-7.248v-0.031h-8.563v-0.002h-22.119v-8.331c0-8.442,5.813-11.221,10.747-11.221h8.213h4.286h3.112
					c3.687,0,6.675-3.566,6.675-7.26v-0.023h-9.787H366.345L366.345,196.661z"/>
				<path fill="#FFFFFF" d="M433.772,199.729l-18.722,18.533l-18.726-18.533c-5.092-5.631-9.321-2.675-9.321,2.07v52.519h7.006
					v-42.614c0-1.586,1.087-2.755,3.051-0.784l17.99,17.696l17.993-17.696c1.835-2.092,3.054-0.803,3.054,0.784v35.615v6.999
					c3.859,0,6.995-3.131,6.995-6.999v-45.52C443.094,197.054,438.868,194.098,433.772,199.729z"/>
			</g>
		</g>
	</g>
	<g>
		<path fill="#FFFFFF" d="M54.492,276.514c0.193-0.23,0.796-0.117,1.829,0.354c0,14.234-0.139,22.053-0.423,23.455
			c-0.279,1.408-0.513,2.076-0.701,2.041c-0.193-0.055-0.4-0.451-0.637-1.193c-0.233-0.75-0.373-1.312-0.418-1.686
			c-0.049-0.377,0.07-1.76,0.35-4.145c0.287-2.389,0.422-5.85,0.422-10.396c0-4.541-0.117-7.025-0.354-7.447
			C54.328,277.078,54.305,276.748,54.492,276.514z M59.48,287.471c-0.054-0.521-0.472-1.057-1.264-1.615
			c-0.798-0.564-1.152-0.941-1.054-1.121c0.09-0.189,0.489-0.189,1.19,0c0.704,0.18,1.143,0.207,1.334,0.066
			c0.192-0.141,0.095-0.799-0.274-1.969c-0.385-1.172-0.567-1.844-0.567-2.031s0.182-0.85,0.567-1.971
			c0.369-1.125,0.493-1.752,0.35-1.893c-0.143-0.145-0.655-0.094-1.546,0.141c-0.889,0.236-1.895,0.35-3.018,0.35v-0.703
			c0.93,0,1.934-0.211,3.018-0.631c1.075-0.422,1.73-0.791,1.968-1.123c0.234-0.328,0.49-0.492,0.773-0.492
			c0.279,0,0.746,0.26,1.398,0.773c0.657,0.512,0.987,0.887,0.987,1.125c0,0.23-0.211,0.441-0.637,0.627
			c-0.422,0.189-0.985,0.801-1.681,1.826c-0.706,1.031-1.12,1.643-1.263,1.832c-0.143,0.18,0.185,0.998,0.976,2.449
			c0.8,1.451,0.965,2.65,0.499,3.584c-0.476,0.936-0.868,1.428-1.192,1.473C59.713,288.221,59.525,287.986,59.48,287.471z
			 M78.645,302.92c-0.372-0.045-2.759-0.961-7.157-2.742c-4.406-1.771-6.886-2.668-7.44-2.668c-0.569,0-1.27,0.121-2.111,0.355
			c-0.844,0.234-1.429,0.234-1.753,0c-0.331-0.234-0.632-0.58-0.911-1.057c1.685-0.184,2.709-0.297,3.083-0.352
			c0.38-0.041,0.931-0.068,1.692-0.068c0.747,0,1.685,0.254,2.808,0.783c1.121,0.514,3.174,1.115,6.174,1.814
			c2.997,0.701,5.921,1.125,8.783,1.266c2.853,0.146,4.282,0.326,4.282,0.561c0,0.236-0.657,0.561-1.964,0.984
			c-1.316,0.416-2.466,0.727-3.445,0.912C79.705,302.898,79.023,302.969,78.645,302.92z M63.905,294.707
			c-0.374-1.129-0.589-1.871-0.63-2.246c-0.053-0.369,0.041-0.939,0.275-1.691c0.234-0.75,0.261-1.164,0.072-1.273
			c-0.189-0.08-0.4-0.08-0.633,0c-0.234,0.109-0.679,0.199-1.339,0.295c-0.645,0.09-1.075,0.09-1.262,0
			c-0.182-0.096-0.325-0.211-0.416-0.357c-0.094-0.141,0.369-0.324,1.402-0.562c1.034-0.227,1.637-0.484,1.829-0.764
			c0.185-0.287,0.441-0.4,0.772-0.357c0.328,0.047,0.743,0.262,1.26,0.637c0.516,0.371,0.747,0.682,0.705,0.906
			c-0.049,0.236-0.305,0.727-0.77,1.477c-0.466,0.752-0.705,1.195-0.705,1.344c0,0.131,0.18,0.693,0.562,1.68
			c0.369,0.984,0.419,2.086,0.143,3.303h-0.569C64.511,296.625,64.277,295.83,63.905,294.707z M65.796,282.127
			c0.333,0.705,0.374,1.246,0.144,1.621c-0.234,0.375-0.425,0.562-0.565,0.562c-0.139,0-0.441-0.287-0.909-0.848
			c-0.475-0.555-0.772-1.236-0.916-2.031c-0.14-0.791-0.117-1.24,0.072-1.336c0.189-0.094,0.515,0.053,0.979,0.42
			C65.073,280.896,65.472,281.432,65.796,282.127z M71.273,282.34c-1.169,1.971-2.314,3.469-3.441,4.496
			c-1.123,1.031-1.775,1.482-1.964,1.332c-0.188-0.135,0.188-0.771,1.127-1.893c0.935-1.121,1.941-2.715,3.023-4.773
			c1.071-2.061,1.87-3.934,2.378-5.613c0.513-1.688,0.632-2.68,0.354-2.953c-0.286-0.287-0.327-0.514-0.135-0.705
			c0.18-0.186,0.459-0.23,0.837-0.137c0.374,0.092,0.75,0.252,1.123,0.486c0.377,0.236,0.587,0.516,0.634,0.85
			c0.045,0.326-0.313,1.402-1.053,3.227C73.403,278.479,72.442,280.381,71.273,282.34z M81.178,277.918
			c-0.565,0.143-1.662,0.332-3.301,0.561c-1.64,0.24-3.536,0.496-5.688,0.775c-2.159,0.279-3.32,0.396-3.514,0.35
			c-0.191-0.043-0.489-0.227-0.912-0.562c-0.422-0.322-0.535-0.541-0.351-0.633c0.189-0.09,0.611-0.141,1.262-0.141
			c0.657,0,2.153-0.186,4.49-0.561c2.352-0.369,4.01-0.703,4.99-0.98c0.988-0.283,1.616-0.42,1.893-0.42
			c0.291,0,0.682,0.16,1.197,0.486c0.513,0.334,0.77,0.564,0.77,0.703C82.016,277.639,81.736,277.779,81.178,277.918z
			 M70.433,283.328c0.136-0.189,0.632-0.189,1.474,0c0,5.717-0.045,9.389-0.14,11.029c-0.094,1.635-0.259,2.451-0.493,2.451
			c-0.238,0-0.445-0.279-0.625-0.844c-0.189-0.557-0.305-0.902-0.355-1.053c-0.052-0.135,0-0.721,0.139-1.756
			c0.136-1.027,0.216-2.666,0.216-4.916c0-2.244-0.081-3.58-0.216-4.004C70.293,283.82,70.293,283.52,70.433,283.328z
			 M74.224,291.334c-0.979,0.188-1.948,0.281-2.875,0.281v-1.125c0.657,0,1.172-0.07,1.541-0.203
			c0.374-0.145,0.747-0.217,1.125-0.217c0.376,0,0.745,0.072,1.119,0.217c0.385,0.133,0.562,0.297,0.562,0.482
			C75.695,290.959,75.209,291.145,74.224,291.334z M78.793,295.268c-0.102,0.748-0.355,1.447-0.773,2.107
			c-0.426,0.656-0.799,0.951-1.127,0.912c-0.332-0.051-0.498-0.324-0.498-0.844c0-0.514-0.324-1.027-0.976-1.543
			c-0.659-0.512-0.912-0.861-0.772-1.059c0.139-0.18,0.54-0.18,1.195,0c0.652,0.197,1.022,0.146,1.12-0.135
			c0.094-0.279,0.143-1.004,0.143-2.176s-0.075-2.859-0.211-5.061c-0.143-2.203-0.305-3.393-0.498-3.582
			c-0.185-0.189-1.82,0-4.907,0.561l0.135-1.121c1.406-0.09,2.414-0.217,3.024-0.352c0.607-0.145,1.029-0.328,1.262-0.564
			c0.234-0.229,0.513-0.32,0.841-0.285c0.331,0.059,0.772,0.27,1.337,0.635c0.558,0.377,0.841,0.686,0.841,0.916
			c0,0.234-0.117,0.494-0.354,0.771c-0.231,0.285-0.231,1.965,0,5.047C78.812,292.596,78.879,294.518,78.793,295.268z
			 M71.623,287.82v-1.125c0.382,0,0.751-0.07,1.127-0.209c0.369-0.141,0.747-0.211,1.127-0.211c0.374,0,0.743,0.07,1.12,0.211
			c0.37,0.139,0.536,0.303,0.486,0.494C75.438,287.168,74.156,287.447,71.623,287.82z"/>
		<path fill="#FFFFFF" d="M104.341,278.83c0,11.713-0.124,18.008-0.355,18.895c-0.234,0.891-0.426,1.336-0.565,1.336
			c-0.135,0-0.346-0.254-0.632-0.773c-0.276-0.521-0.416-1.076-0.416-1.684c0-0.611,0.114-2.039,0.344-4.287
			c0.236-2.244,0.263-4.846,0.072-7.793c-0.188-2.957-0.396-4.707-0.625-5.27c-0.238-0.564-0.238-0.889,0-0.986
			C102.392,278.178,103.119,278.365,104.341,278.83z M111.295,278.061c0.697,0.516,1.047,0.891,1.047,1.119
			c0,0.234-0.169,0.447-0.486,0.637c-0.338,0.188-0.52,3.092-0.561,8.705c-0.054,5.627-0.238,8.83-0.567,9.625
			c-0.327,0.801-0.682,1.193-1.058,1.193c-0.371,0-0.536-0.393-0.491-1.193c0.052-0.795-0.4-1.902-1.334-3.305
			c0.754,0,1.198-0.135,1.334-0.414c0.139-0.279,0.256-1.896,0.351-4.848c0.09-2.955,0.139-5.32,0.139-7.1
			c0-1.77-0.122-2.779-0.351-3.014c-0.238-0.236-1.1-0.213-2.596,0.064c-1.5,0.285-2.621,0.42-3.374,0.42v-1.262
			c1.5,0,2.767-0.139,3.795-0.422c1.029-0.277,1.663-0.512,1.899-0.699c0.231-0.186,0.488-0.279,0.77-0.279
			C110.092,277.289,110.589,277.549,111.295,278.061z M105.738,285.996c0.657-0.188,1.289-0.141,1.901,0.139
			c0.605,0.279,0.794,0.561,0.561,0.846c-0.237,0.279-1.854,0.516-4.851,0.703v-1.27
			C104.287,286.324,105.083,286.186,105.738,285.996z M109.395,295.688l-6.045,0.701v-1.547c0.29,0,0.992-0.064,2.107-0.203
			c1.123-0.146,1.881-0.211,2.25-0.211C108.076,294.428,108.645,294.842,109.395,295.688z M117.325,283.463
			c2.104-0.375,4.377-0.814,6.815-1.336c2.435-0.504,3.769-0.764,3.999-0.764c0.234,0,0.607,0.09,1.127,0.273
			c0.509,0.195,1.03,0.455,1.543,0.775c0.516,0.326,0.707,0.609,0.561,0.848c-0.139,0.229-1.33,0.35-3.577,0.35
			c-2.25,0-5.08,0.324-8.498,0.975c-3.423,0.66-5.267,0.99-5.542,0.99c-0.286,0-0.637-0.164-1.06-0.49
			c-0.422-0.324-0.659-0.584-0.7-0.773c-0.054-0.188,0.301-0.287,1.05-0.287C113.797,284.023,115.226,283.84,117.325,283.463z
			 M117.257,292.461c-0.188,0.184-0.357,0.281-0.493,0.281c-0.141,0-0.656-0.613-1.539-1.828c-0.893-1.219-1.41-2.105-1.557-2.676
			c-0.136-0.555-0.136-0.859,0-0.912c0.147-0.043,0.498,0.031,1.06,0.211c0.564,0.189,1.168,0.586,1.824,1.197
			c0.651,0.611,0.983,1.336,0.983,2.178C117.536,291.756,117.438,292.271,117.257,292.461z M118.655,300.672
			c-1.398-0.984-2.054-1.564-1.967-1.752c0.102-0.184,0.731-0.094,1.904,0.277c1.168,0.375,1.959,0.521,2.39,0.424
			c0.415-0.094,0.72-0.541,0.909-1.334c0.189-0.797,0.286-3.559,0.286-8.283c0-4.736-0.124-8.451-0.354-11.174
			c-0.234-2.713-0.544-4.26-0.913-4.629c-0.381-0.381-0.516-0.705-0.425-0.992c0.102-0.273,0.471-0.318,1.127-0.129
			c0.648,0.186,1.211,0.391,1.681,0.627c0.468,0.234,0.727,0.514,0.777,0.84c0.045,0.334-0.022,0.592-0.212,0.773
			c-0.184,0.186-0.263,1.947-0.213,5.27c0.045,3.322,0.144,7.277,0.279,11.871c0.146,4.582,0.097,7.373-0.135,8.352
			c-0.234,0.984-0.585,1.801-1.049,2.457c-0.479,0.656-0.848,0.986-1.127,0.986c-0.288,0-0.49-0.35-0.63-1.057
			C120.839,302.498,120.065,301.66,118.655,300.672z"/>
		<path fill="#FFFFFF" d="M149.409,276.514c0.185-0.23,0.792-0.117,1.82,0.354c0,14.234-0.14,22.053-0.422,23.455
			c-0.275,1.408-0.512,2.076-0.696,2.041c-0.193-0.055-0.4-0.451-0.634-1.193c-0.234-0.75-0.374-1.312-0.425-1.686
			c-0.045-0.377,0.072-1.76,0.358-4.145c0.275-2.389,0.414-5.85,0.414-10.396c0-4.541-0.113-7.025-0.346-7.447
			C149.243,277.078,149.217,276.748,149.409,276.514z M154.388,287.471c-0.045-0.521-0.468-1.057-1.26-1.615
			c-0.794-0.564-1.149-0.941-1.055-1.121c0.094-0.189,0.494-0.189,1.198,0c0.698,0.18,1.143,0.207,1.327,0.066
			s0.09-0.799-0.279-1.969c-0.378-1.172-0.562-1.844-0.562-2.031s0.185-0.85,0.562-1.971c0.369-1.125,0.49-1.752,0.351-1.893
			c-0.139-0.145-0.661-0.094-1.543,0.141c-0.893,0.236-1.899,0.35-3.018,0.35v-0.703c0.934,0,1.937-0.211,3.018-0.631
			c1.075-0.422,1.734-0.791,1.964-1.123c0.231-0.328,0.498-0.492,0.773-0.492c0.279,0,0.746,0.26,1.406,0.773
			c0.656,0.512,0.984,0.887,0.984,1.125c0,0.23-0.215,0.441-0.634,0.627c-0.421,0.189-0.983,0.801-1.688,1.826
			c-0.701,1.031-1.123,1.643-1.262,1.832c-0.139,0.18,0.191,0.998,0.988,2.449c0.788,1.451,0.953,2.65,0.486,3.584
			c-0.468,0.936-0.868,1.428-1.188,1.473C154.618,288.221,154.433,287.986,154.388,287.471z M173.562,302.92
			c-0.38-0.045-2.763-0.961-7.161-2.742c-4.398-1.771-6.883-2.668-7.445-2.668c-0.561,0-1.265,0.121-2.106,0.355
			c-0.844,0.234-1.433,0.234-1.757,0s-0.632-0.58-0.912-1.057c1.685-0.184,2.714-0.297,3.091-0.352
			c0.369-0.041,0.935-0.068,1.684-0.068c0.747,0,1.685,0.254,2.81,0.783c1.119,0.514,3.18,1.115,6.177,1.814
			c2.997,0.701,5.922,1.125,8.779,1.266c2.857,0.146,4.286,0.326,4.286,0.561c0,0.236-0.657,0.561-1.968,0.984
			c-1.315,0.416-2.453,0.727-3.445,0.912C174.617,302.898,173.931,302.969,173.562,302.92z M158.816,294.707
			c-0.376-1.129-0.587-1.871-0.632-2.246c-0.053-0.369,0.045-0.939,0.279-1.691c0.236-0.75,0.256-1.164,0.067-1.273
			c-0.189-0.08-0.4-0.08-0.63,0c-0.232,0.109-0.682,0.199-1.334,0.295c-0.655,0.09-1.074,0.09-1.263,0
			c-0.188-0.096-0.328-0.211-0.422-0.357c-0.097-0.141,0.371-0.324,1.41-0.562c1.021-0.227,1.636-0.484,1.82-0.764
			c0.185-0.287,0.445-0.4,0.773-0.357c0.324,0.047,0.75,0.262,1.265,0.637c0.51,0.371,0.747,0.682,0.697,0.906
			c-0.048,0.236-0.304,0.727-0.768,1.477c-0.472,0.752-0.709,1.195-0.709,1.344c0,0.131,0.192,0.693,0.565,1.68
			c0.374,0.984,0.422,2.086,0.144,3.303h-0.562C159.423,296.625,159.187,295.83,158.816,294.707z M160.712,282.127
			c0.32,0.705,0.374,1.246,0.135,1.621c-0.232,0.375-0.418,0.562-0.556,0.562c-0.141,0-0.45-0.287-0.92-0.848
			c-0.467-0.555-0.773-1.236-0.908-2.031c-0.14-0.791-0.122-1.24,0.067-1.336c0.188-0.094,0.517,0.053,0.987,0.42
			C159.985,280.896,160.373,281.432,160.712,282.127z M166.186,282.34c-1.169,1.971-2.315,3.469-3.438,4.496
			c-1.127,1.031-1.784,1.482-1.968,1.332c-0.188-0.135,0.184-0.771,1.127-1.893c0.936-1.121,1.941-2.715,3.019-4.773
			c1.074-2.061,1.87-3.934,2.387-5.613c0.504-1.688,0.628-2.68,0.349-2.953c-0.282-0.287-0.327-0.514-0.142-0.705
			c0.185-0.186,0.463-0.23,0.847-0.137c0.373,0.092,0.743,0.252,1.124,0.486c0.369,0.236,0.58,0.516,0.632,0.85
			c0.042,0.326-0.309,1.402-1.058,3.227C168.314,278.479,167.358,280.381,166.186,282.34z M176.088,277.918
			c-0.562,0.143-1.66,0.332-3.298,0.561c-1.644,0.24-3.54,0.496-5.688,0.775c-2.157,0.279-3.325,0.396-3.514,0.35
			c-0.192-0.043-0.493-0.227-0.907-0.562c-0.427-0.322-0.547-0.541-0.359-0.633c0.193-0.09,0.612-0.141,1.267-0.141
			c0.656,0,2.152-0.186,4.497-0.561c2.333-0.369,4.003-0.703,4.984-0.98c0.987-0.283,1.616-0.42,1.899-0.42
			c0.279,0,0.671,0.16,1.19,0.486c0.513,0.334,0.774,0.564,0.774,0.703C176.932,277.639,176.648,277.779,176.088,277.918z
			 M165.345,283.328c0.135-0.189,0.63-0.189,1.474,0c0,5.717-0.045,9.389-0.139,11.029c-0.094,1.635-0.259,2.451-0.493,2.451
			c-0.234,0-0.445-0.279-0.634-0.844c-0.185-0.557-0.301-0.902-0.347-1.053c-0.049-0.135,0-0.721,0.139-1.756
			c0.135-1.027,0.208-2.666,0.208-4.916c0-2.244-0.072-3.58-0.208-4.004C165.206,283.82,165.206,283.52,165.345,283.328z
			 M169.14,291.334c-0.987,0.188-1.948,0.281-2.886,0.281v-1.125c0.659,0,1.175-0.07,1.552-0.203
			c0.374-0.145,0.743-0.217,1.123-0.217c0.369,0,0.747,0.072,1.121,0.217c0.369,0.133,0.561,0.297,0.561,0.482
			C170.61,290.959,170.124,291.145,169.14,291.334z M173.697,295.268c-0.09,0.748-0.347,1.447-0.769,2.107
			c-0.422,0.656-0.796,0.951-1.12,0.912c-0.332-0.051-0.498-0.324-0.498-0.844c0-0.514-0.328-1.027-0.976-1.543
			c-0.66-0.512-0.92-0.861-0.772-1.059c0.139-0.18,0.538-0.18,1.19,0c0.653,0.197,1.026,0.146,1.119-0.135
			c0.096-0.279,0.148-1.004,0.148-2.176s-0.076-2.859-0.211-5.061c-0.146-2.203-0.313-3.393-0.498-3.582
			c-0.191-0.189-1.82,0-4.911,0.561l0.139-1.121c1.402-0.09,2.408-0.217,3.024-0.352c0.603-0.145,1.021-0.328,1.262-0.564
			c0.226-0.229,0.513-0.32,0.837-0.285c0.331,0.059,0.772,0.27,1.337,0.635c0.562,0.377,0.841,0.686,0.841,0.916
			c0,0.234-0.117,0.494-0.347,0.771c-0.234,0.285-0.234,1.965,0,5.047C173.724,292.596,173.796,294.518,173.697,295.268z
			 M166.54,287.82v-1.125c0.374,0,0.747-0.07,1.123-0.209c0.374-0.141,0.747-0.211,1.12-0.211c0.376,0,0.754,0.07,1.128,0.211
			c0.374,0.139,0.538,0.303,0.493,0.494C170.346,287.168,169.066,287.447,166.54,287.82z"/>
		<path fill="#FFFFFF" d="M196.788,300.178c-0.332,0-0.837-0.25-1.542-0.77c-0.704-0.512-1.055-0.908-1.055-1.193
			c0-0.279,0.286-0.449,0.848-0.49c0.558-0.041,1.018-0.139,1.397-0.283c0.377-0.137,1.942-0.891,4.705-2.242
			c2.763-1.361,4.188-1.896,4.286-1.621c0.086,0.287-1.244,1.461-4,3.518C198.661,299.152,197.116,300.178,196.788,300.178z
			 M205.427,286.836c0,0.189-0.121,0.35-0.355,0.49c-0.234,0.145-1.474,0.592-3.712,1.334c-2.25,0.756-3.611,1.148-4.079,1.193
			c-0.466,0.055-0.844-0.045-1.123-0.273c-0.282-0.232-0.421-0.422-0.421-0.564c0-0.145,1.308-0.697,3.931-1.689
			c2.616-0.98,4.044-1.471,4.286-1.471c0.229,0,0.538,0.119,0.912,0.352C205.238,286.436,205.427,286.656,205.427,286.836z
			 M199.316,278.268c-0.331-0.277-0.471-0.578-0.421-0.91c0.045-0.324,0.256-0.49,0.632-0.49c0.376,0,0.957,0.258,1.749,0.771
			c0.8,0.514,1.194,0.914,1.194,1.191c0,0.283-0.037,0.682-0.135,1.199c-0.09,0.512-0.207,1.607-0.346,3.299
			c-0.144,1.68-0.268,5.9-0.355,12.637l-1.684,0.279c0.185-4.961,0.229-8.678,0.139-11.16c-0.092-2.477-0.159-4.168-0.215-5.055
			C199.836,279.139,199.645,278.553,199.316,278.268z M218.065,291.055c0.185-0.564,0.374-1.357,0.562-2.395
			c0.185-1.029,0.282-1.893,0.282-2.594c0-0.707-0.072-1.096-0.211-1.195c-0.139-0.092-2.126,1.051-5.97,3.447
			c-3.837,2.383-5.948,3.646-6.322,3.795c-0.376,0.131-0.7,0.203-0.979,0.203c-0.279,0-0.611-0.09-0.988-0.279
			c-0.369-0.186-0.553-0.422-0.553-0.705c0-0.277,0.347-0.488,1.047-0.631c0.706-0.135,1.636-0.535,2.812-1.205
			c1.172-0.648,3.208-1.812,6.105-3.5c2.903-1.686,4.516-2.736,4.847-3.164c0.328-0.42,0.58-0.631,0.773-0.631
			c0.185,0,0.674,0.258,1.469,0.773c0.803,0.514,1.195,0.914,1.195,1.195c0,0.279-0.135,0.562-0.418,0.838
			c-0.286,0.283-0.49,0.914-0.633,1.898c-0.144,0.982-0.377,2.162-0.702,3.514c-0.331,1.361-0.772,2.486-1.337,3.373
			c-0.562,0.893-0.981,1.312-1.267,1.27c-0.276-0.055-0.509-0.334-0.698-0.848c-0.189-0.512-0.54-1.002-1.044-1.473
			c-0.52-0.471-0.788-0.826-0.788-1.059c0-0.229,0.313-0.252,0.923-0.068c0.603,0.188,1.025,0.279,1.262,0.279
			C217.669,291.895,217.876,291.615,218.065,291.055z M226.628,300.041c-1.116,0.658-2.408,1.129-3.859,1.406
			c-1.455,0.283-2.835,0.439-4.142,0.49c-1.312,0.045-2.76,0-4.354-0.141c-1.591-0.137-2.831-0.439-3.724-0.914
			c-0.891-0.463-1.592-1.234-2.1-2.316c-0.521-1.076-0.779-2.453-0.779-4.139s-0.045-3.725-0.14-6.109
			c-0.094-2.395-0.276-3.734-0.562-4.008c-0.284-0.287-0.418-0.562-0.418-0.848c0-0.268,0.18-0.441,0.562-0.486
			c0.372-0.049,0.885,0.188,1.542,0.701c0.652,0.512,0.916,1.195,0.772,2.033c-0.135,0.846-0.203,1.596-0.203,2.25
			s-0.034,1.668-0.072,3.021c-0.052,1.359-0.029,2.598,0.072,3.725c0.083,1.123,0.229,1.988,0.414,2.598s0.727,1.172,1.618,1.682
			c0.885,0.521,2.453,0.775,4.7,0.775c2.25,0,4.047-0.164,5.408-0.496c1.357-0.318,2.269-0.699,2.737-1.119
			c0.467-0.422,0.798-1.633,0.992-3.654c0.18-2.014,0.396-3.02,0.633-3.02c0.229,0,0.49,0.912,0.765,2.744
			c0.279,1.82,0.652,3.088,1.123,3.793C228.083,298.707,227.751,299.387,226.628,300.041z M212.094,274.342
			c-0.324-0.375-0.47-0.723-0.418-1.055c0.046-0.328,0.325-0.469,0.841-0.418c0.513,0.039,1.055,0.229,1.618,0.561
			c0.554,0.326,0.862,0.605,0.912,0.836c0.045,0.238,0,0.965-0.14,2.178c-0.139,1.221-0.218,3.846-0.218,7.869
			s-0.064,7.002-0.208,8.92c-0.135,1.92-0.418,2.857-0.841,2.805c-0.421-0.045-0.625-2.805-0.625-8.287
			c0-5.475-0.075-8.986-0.219-10.533C212.656,275.672,212.427,274.713,212.094,274.342z"/>
		<path fill="#FFFFFF" d="M272.668,280.73c-0.188-0.328-0.301-0.635-0.347-0.914c-0.047-0.283,0.159-0.402,0.635-0.35
			c0.459,0.045,1.118,0.16,1.959,0.35c0,0.188,0.049,1.547,0.144,4.072c0.086,2.525,0.143,3.979,0.143,4.352
			c0,0.375-0.057,0.939-0.143,1.689c-0.095,0.75-0.256,1.125-0.495,1.125c-0.229,0-0.44-0.189-0.628-0.564
			c-0.188-0.375-0.278-1-0.278-1.898c0-0.885-0.122-2.336-0.355-4.355C273.068,282.227,272.861,281.062,272.668,280.73z
			 M279.062,278.619c0.234-0.225,0.469-0.352,0.693-0.352c0.238,0,0.87,0.311,1.903,0.912c1.028,0.611,1.546,1.035,1.546,1.262
			c0,0.244-0.188,0.455-0.562,0.643c-0.376,0.189-1.077,2.379-2.114,6.6h-1.542c0.567-3.273,0.846-5.289,0.846-6.047
			c0-0.74-0.075-1.195-0.208-1.332c-0.138-0.141-0.961-0.068-2.457,0.211c-1.501,0.285-2.62,0.424-3.37,0.424v-1.123
			c1.214,0,2.341-0.143,3.37-0.426C278.19,279.113,278.824,278.861,279.062,278.619z M281.447,286.695
			c0.14,0.189,0.211,0.4,0.211,0.631c0,0.24-0.191,0.424-0.562,0.562c-0.372,0.145-2.574,0.447-6.6,0.92v-1.271
			c3.46-0.75,5.458-1.123,5.963-1.123C280.981,286.414,281.312,286.512,281.447,286.695z M285.801,278.975
			c-0.234-1.217-0.207-1.85,0.067-1.896c0.287-0.045,1.037,0.211,2.247,0.771c0,1.029-0.02,2.861-0.067,5.479
			c-0.045,2.617-0.302,4.939-0.773,6.961c-0.463,2.006-1.262,3.879-2.385,5.613c-1.125,1.729-2.342,3.062-3.649,3.998
			c-1.316,0.936-2.017,1.291-2.11,1.057c-0.099-0.234,0.423-0.916,1.55-2.037c1.118-1.121,2.147-2.625,3.085-4.492
			c0.94-1.875,1.546-3.607,1.829-5.199c0.275-1.598,0.445-3.395,0.49-5.408C286.134,281.809,286.039,280.191,285.801,278.975z
			 M298.021,275.457c0.042,0.475-0.705,0.967-2.25,1.48c-1.546,0.518-4.471,1.199-8.775,2.037v-0.838
			c3.555-1.223,5.756-2.133,6.597-2.744c0.841-0.604,1.127-1.072,0.841-1.402c-0.275-0.33-0.256-0.541,0.074-0.633
			c0.324-0.092,0.984,0.113,1.969,0.633C297.455,274.502,297.973,274.992,298.021,275.457z M303.498,284.1
			c-0.05,0.324-1.192,0.514-3.442,0.562c-2.245,0.049-4.685,0.188-7.305,0.422c-2.619,0.236-4.446,0.35-5.477,0.35v-1.262
			c1.496,0,3.747-0.305,6.743-0.91c3.001-0.611,4.979-0.922,5.971-0.922c0.979,0,1.825,0.215,2.524,0.637
			C303.215,283.398,303.543,283.771,303.498,284.1z M292.891,283.889c1.691,0.75,2.62,1.285,2.812,1.611
			c0.185,0.334,0.211,0.756,0.068,1.27c-0.14,0.514-0.21,3.068-0.21,7.658c0,4.582-0.092,7.582-0.276,8.982
			c-0.191,1.41-0.403,2.111-0.633,2.111c-0.241,0-0.495-0.631-0.776-1.896c-0.283-1.262-0.418-4.428-0.418-9.477
			C293.457,289.082,293.268,285.666,292.891,283.889z"/>
		<path fill="#FFFFFF" d="M327.85,294.492c-4.305,2.293-6.672,3.471-7.093,3.516c-0.418,0.045-0.89-0.283-1.399-0.982
			c-0.52-0.707-0.655-1.195-0.426-1.475c0.23-0.283,0.51-0.332,0.84-0.143c0.329,0.191,0.635,0.26,0.918,0.205
			c0.277-0.039,2.614-0.975,7.021-2.807c4.398-1.826,6.6-2.576,6.6-2.24C334.311,290.891,332.155,292.203,327.85,294.492z
			 M327.775,288.736c-2.194,0.697-3.555,1.057-4.067,1.057c-0.517,0-1.036-0.164-1.545-0.5c-0.513-0.332-0.675-0.535-0.494-0.633
			c0.192-0.082,0.78-0.229,1.76-0.42c0.984-0.189,2.028-0.443,3.158-0.77c1.124-0.324,3.955-1.195,8.5-2.598
			c4.543-1.41,6.995-2.111,7.368-2.111c0.378,0,0.8,0.166,1.263,0.498c0.468,0.318,0.706,0.561,0.706,0.699
			c0,0.141-0.193,0.277-0.562,0.42c-0.374,0.145-1.644,0.445-3.796,0.914c-2.155,0.471-4.188,0.982-6.11,1.543
			C332.041,287.396,329.979,288.033,327.775,288.736z M328.766,280.441c0.701-0.512,1.007-0.908,0.913-1.188
			c-0.095-0.279,0-0.445,0.274-0.49c0.287-0.045,0.776,0.098,1.482,0.416c0.7,0.332,1.047,0.66,1.047,0.984
			c0,0.332-0.115,0.566-0.347,0.701c-0.234,0.146-0.916,0.447-2.035,0.914c-1.127,0.469-2.483,0.939-4.074,1.416
			c-1.595,0.463-2.412,0.576-2.461,0.348c-0.042-0.234,0.632-0.682,2.043-1.342C327.01,281.553,328.059,280.963,328.766,280.441z
			 M329.044,302.855c-0.515,0.463-0.911,0.701-1.194,0.701c-0.279,0-0.464-0.332-0.562-0.988c-0.094-0.656-0.584-1.334-1.473-2.035
			c-0.891-0.699-1.316-1.102-1.263-1.193c0.045-0.09,0.535-0.043,1.474,0.146c0.93,0.178,1.563,0.178,1.893,0
			c0.331-0.189,0.493-1.037,0.493-2.533c0-1.494,0-2.736,0-3.721c0-0.988-0.022-2.578-0.068-4.775
			c-0.052-2.201-0.357-4.432-0.919-6.678c1.783,1.219,2.718,1.947,2.816,2.182c0.083,0.23,0.036,0.602-0.14,1.123
			c-0.193,0.512-0.238,2.967-0.148,7.377c0.099,4.402,0.099,7.113,0,8.148C329.863,301.633,329.554,302.385,329.044,302.855z
			 M344.843,288.809c0,0.371-0.49,1.172-1.476,2.385c-0.983,1.223-2.226,2.463-3.715,3.719c-1.508,1.266-3.114,2.342-4.852,3.234
			c-1.73,0.891-2.646,1.24-2.737,1.051c-0.095-0.189,0.935-1.074,3.091-2.668c2.148-1.59,3.812-3.086,4.979-4.492
			c1.172-1.402,1.9-2.457,2.182-3.166c0.279-0.703,0.329-1.164,0.14-1.402c-0.191-0.232-0.14-0.422,0.14-0.562
			c0.283-0.139,0.724,0.041,1.334,0.562C344.54,287.986,344.843,288.432,344.843,288.809z M348.354,304.395
			c-1.119-0.564-2.246-1.359-3.37-2.385c-1.123-1.031-2.416-2.551-3.859-4.566c-1.459-2.014-2.673-4.166-3.655-6.463
			c-0.978-2.299-1.73-4.514-2.243-6.67c-0.521-2.154-0.943-4.592-1.271-7.307c-0.324-2.713-0.625-4.188-0.911-4.424
			c-0.279-0.234-0.4-0.51-0.347-0.838c0.045-0.332,0.603-0.301,1.681,0.068c1.073,0.375,1.64,0.648,1.688,0.838
			c0.043,0.197,0.021,0.447-0.067,0.779c-0.093,0.328-0.143,1.102-0.143,2.314c0,1.223,0.143,2.666,0.419,4.354
			c0.286,1.684,0.78,3.77,1.477,6.25c0.701,2.484,1.775,4.936,3.227,7.371c1.451,2.443,2.902,4.314,4.357,5.621
			c1.451,1.32,2.318,1.965,2.602,1.965c0.278,0,0.58-0.77,0.908-2.316c0.327-1.545,0.562-2.314,0.7-2.314
			c0.14,0,0.287,0.744,0.427,2.246c0.136,1.502,0.347,2.902,0.628,4.207c0.279,1.312,0.261,1.99-0.067,2.037
			C350.201,305.215,349.474,304.957,348.354,304.395z M344.284,278.764c-0.099,0.516-0.333,0.77-0.706,0.77
			c-0.376,0-1.194-0.443-2.453-1.334c-1.267-0.885-1.9-1.564-1.9-2.031c1.03,0,1.969,0.074,2.81,0.209
			c0.844,0.139,1.454,0.441,1.827,0.912C344.23,277.758,344.375,278.25,344.284,278.764z"/>
		<path fill="#FFFFFF" d="M367.231,292.037c-0.14-0.186,0.655-1.078,2.385-2.676c1.73-1.584,3.812-4.391,6.25-8.422l0.7,1.969
			c-1.122,1.965-2.291,3.559-3.508,4.775c-1.214,1.215-2.454,2.297-3.716,3.23C368.075,291.852,367.366,292.227,367.231,292.037z
			 M368.638,282.201c-0.238-0.277-0.238-0.422,0-0.422c0.229,0,1.914-0.367,5.049-1.117c3.141-0.75,5.014-1.131,5.62-1.131
			c0.604,0,1.101,0.072,1.482,0.211c0.369,0.143,0.549,0.354,0.549,0.639c0,0.281-0.67,0.535-2.031,0.771
			c-1.359,0.236-3.09,0.609-5.193,1.121c-2.112,0.514-3.491,0.703-4.143,0.559C369.314,282.697,368.867,282.48,368.638,282.201z
			 M372.501,297.936c-0.283,0.934-0.754,1.729-1.411,2.387c-0.652,0.656-1.1,0.98-1.334,0.98c-0.233,0-0.463-0.324-0.697-0.98
			c-0.236-0.658-0.351-1.057-0.351-1.195c0-0.141,0.306-0.531,0.909-1.191c0.606-0.65,1.379-2.148,2.317-4.492
			c0.472,0.463,0.75,1.098,0.841,1.896C372.877,296.137,372.775,297.002,372.501,297.936z M393.702,303.059
			c-0.75,0.326-1.874,0.59-3.366,0.771c-1.504,0.189-3.004,0.189-4.5,0c-1.496-0.182-2.835-0.512-4-0.975
			c-1.168-0.471-2.34-1.18-3.505-2.107c-1.176-0.938-2.088-2.152-2.747-3.652c-0.653-1.496-0.864-2.275-0.63-2.318
			c0.233-0.047,0.82,0.611,1.752,1.961c0.936,1.361,1.994,2.342,3.163,2.951c1.168,0.611,2.394,1.102,3.652,1.482
			c1.262,0.365,2.62,0.531,4.074,0.49c1.446-0.055,2.266-0.191,2.454-0.426s0-1.076-0.562-2.527
			c-0.562-1.455-0.742-2.195-0.562-2.252c0.188-0.039,0.868,0.609,2.04,1.967c1.168,1.355,2.11,2.209,2.808,2.533
			c0.701,0.326,1.056,0.676,1.056,1.053C394.829,302.385,394.448,302.734,393.702,303.059z M377.412,282.34
			c-0.095,4.967-0.188,8.174-0.276,9.625c-0.097,1.451-0.236,2.184-0.43,2.184c-0.188,0-0.464-0.338-0.84-0.992
			c-0.373-0.65-0.589-1.191-0.626-1.611c-0.053-0.42,0.015-1.102,0.204-2.049c0.192-0.918,0.33-3.082,0.422-6.447
			c0.09-3.375,0.067-5.9-0.071-7.59c-0.133-1.682-0.351-2.613-0.626-2.811c-0.288-0.189-0.352-0.391-0.216-0.629
			c0.144-0.232,0.63-0.232,1.478,0c0.841,0.238,1.312,0.494,1.402,0.773c0.09,0.287,0.072,0.705-0.067,1.266
			C377.626,274.621,377.505,277.383,377.412,282.34z M380.709,286.559c-0.041,0.561-0.162,0.889-0.347,0.98
			c-0.188,0.092-0.821-0.279-1.895-1.125c-1.082-0.84-1.618-1.541-1.618-2.104c1.492,0.1,2.525,0.352,3.087,0.773
			C380.499,285.5,380.763,285.996,380.709,286.559z M385.418,296.738c-0.189,0.705-0.378,1.076-0.562,1.127
			c-0.191,0.047-0.795-0.375-1.824-1.262c-1.036-0.891-1.662-1.451-1.895-1.691c-0.234-0.225-0.257-0.484-0.072-0.764
			c1.212,0,2.29,0.254,3.23,0.764C385.229,295.43,385.602,296.037,385.418,296.738z M384.43,277.289
			c0,6.459-0.067,10.557-0.207,12.291c-0.136,1.734-0.449,2.549-0.916,2.459c-0.464-0.096-0.63-1.029-0.485-2.811
			c0.139-1.781,0.157-3.961,0.067-6.531c-0.095-2.578-0.257-4.145-0.49-4.705c-0.238-0.564-0.261-0.941-0.072-1.125
			C382.511,276.682,383.22,276.818,384.43,277.289z M391.037,278.619c-0.094-0.604-0.256-0.98-0.494-1.123
			c-0.234-0.139-0.961-0.068-2.179,0.211c-1.217,0.283-2.808,0.43-4.771,0.43v-0.848c1.032,0,2.292-0.186,3.791-0.562
			c1.496-0.373,2.387-0.684,2.666-0.92c0.286-0.225,0.516-0.35,0.7-0.35c0.192,0,0.754,0.285,1.689,0.85
			c0.934,0.561,1.429,0.961,1.474,1.189c0.052,0.242-0.045,0.467-0.283,0.703c-0.23,0.24-0.377,0.939-0.419,2.105
			c-0.052,1.172-0.097,2.604-0.135,4.279c-0.054,1.691-0.146,3.467-0.291,5.346c-0.136,1.875-0.368,2.812-0.701,2.812
			c-0.327,0-0.58-0.236-0.772-0.703c-0.185-0.469-0.301-0.869-0.347-1.195c-0.049-0.33,0-1.85,0.144-4.568
			c0.136-2.713,0.181-4.514,0.136-5.41C391.195,279.98,391.128,279.23,391.037,278.619z M388.153,281.012
			c0.513,0.051,0.821,0.205,0.925,0.49c0.081,0.277-0.313,0.535-1.203,0.773s-2.318,0.352-4.282,0.352v-0.988
			C386.122,281.176,387.641,280.963,388.153,281.012z M385.836,285.5c1.024-0.232,1.663-0.346,1.896-0.346
			c0.233,0,0.546,0.068,0.915,0.205c0.374,0.141,0.566,0.328,0.566,0.562s-0.306,0.424-0.92,0.564
			c-0.604,0.139-2.171,0.209-4.7,0.209v-0.984C384.061,285.809,384.811,285.734,385.836,285.5z M383.593,291.055v-1.125
			c1.033,0,3.791-0.234,8.284-0.701v1.541C388.595,290.865,385.836,290.959,383.593,291.055z M391.452,294.078
			c0-0.24,0.632-0.361,1.896-0.361c1.267,0,2.393,0.311,3.373,0.922c0.984,0.604,1.474,1.24,1.474,1.891
			c0,0.656-0.067,1.035-0.207,1.125c-0.144,0.092-0.335,0.143-0.562,0.143c-0.234,0-1.292-0.562-3.159-1.684
			C392.386,294.988,391.452,294.307,391.452,294.078z"/>
		<path fill="#FFFFFF" d="M415.04,280.73c-0.189-0.328-0.313-0.635-0.355-0.914c-0.049-0.283,0.166-0.402,0.634-0.35
			c0.467,0.045,1.128,0.16,1.968,0.35c0,0.188,0.049,1.547,0.137,4.072c0.097,2.525,0.146,3.979,0.146,4.352
			c0,0.375-0.049,0.939-0.146,1.689c-0.088,0.75-0.261,1.125-0.487,1.125c-0.234,0-0.448-0.189-0.629-0.564
			c-0.193-0.375-0.287-1-0.287-1.898c0-0.885-0.12-2.336-0.347-4.355C415.442,282.227,415.224,281.062,415.04,280.73z
			 M421.432,278.619c0.226-0.225,0.468-0.352,0.702-0.352c0.229,0,0.861,0.311,1.892,0.912c1.033,0.611,1.542,1.035,1.542,1.262
			c0,0.244-0.189,0.455-0.562,0.643c-0.369,0.189-1.073,2.379-2.1,6.6h-1.545c0.562-3.273,0.841-5.289,0.841-6.047
			c0-0.74-0.067-1.195-0.211-1.332c-0.144-0.141-0.966-0.068-2.455,0.211c-1.499,0.285-2.626,0.424-3.377,0.424v-1.123
			c1.222,0,2.338-0.143,3.377-0.426C420.565,279.113,421.195,278.861,421.432,278.619z M423.814,286.695
			c0.14,0.189,0.211,0.4,0.211,0.631c0,0.24-0.188,0.424-0.562,0.562c-0.378,0.145-2.574,0.447-6.597,0.92v-1.271
			c3.454-0.75,5.447-1.123,5.963-1.123C423.343,286.414,423.675,286.512,423.814,286.695z M428.168,278.975
			c-0.233-1.217-0.216-1.85,0.072-1.896c0.281-0.045,1.028,0.211,2.245,0.771c0,1.029-0.022,2.861-0.067,5.479
			c-0.054,2.617-0.306,4.939-0.773,6.961c-0.471,2.006-1.267,3.879-2.386,5.613c-1.126,1.729-2.348,3.062-3.655,3.998
			c-1.316,0.936-2.017,1.291-2.105,1.057c-0.095-0.234,0.425-0.916,1.544-2.037c1.127-1.121,2.152-2.625,3.091-4.492
			c0.936-1.875,1.546-3.607,1.82-5.199c0.287-1.598,0.449-3.395,0.497-5.408C428.496,281.809,428.401,280.191,428.168,278.975z
			 M440.392,275.457c0.045,0.475-0.709,0.967-2.251,1.48c-1.542,0.518-4.481,1.199-8.782,2.037v-0.838
			c3.562-1.223,5.759-2.133,6.607-2.744c0.837-0.604,1.116-1.072,0.837-1.402c-0.283-0.33-0.256-0.541,0.075-0.633
			c0.323-0.092,0.98,0.113,1.964,0.633C439.825,274.502,440.338,274.992,440.392,275.457z M445.863,284.1
			c-0.052,0.324-1.194,0.514-3.439,0.562c-2.252,0.049-4.683,0.188-7.306,0.422c-2.619,0.236-4.447,0.35-5.474,0.35v-1.262
			c1.493,0,3.739-0.305,6.736-0.91c3.001-0.611,4.987-0.922,5.974-0.922c0.98,0,1.817,0.215,2.526,0.637
			C445.58,283.398,445.909,283.771,445.863,284.1z M435.258,283.889c1.688,0.75,2.619,1.285,2.814,1.611
			c0.182,0.334,0.204,0.756,0.069,1.27c-0.141,0.514-0.216,3.068-0.216,7.658c0,4.582-0.09,7.582-0.274,8.982
			c-0.196,1.41-0.404,2.111-0.637,2.111c-0.231,0-0.495-0.631-0.773-1.896c-0.275-1.262-0.421-4.428-0.421-9.477
			C435.82,289.082,435.634,285.666,435.258,283.889z"/>
	</g>
	<g>
		<path fill="#FFFFFF" d="M250.002,287.102c1.179,0.096,1.815,0.695,1.922,1.779c0,0.984-0.642,1.482-1.922,1.482
			c-1.184,0-1.829-0.498-1.924-1.482C248.173,287.797,248.818,287.197,250.002,287.102z"/>
	</g>
</g>
</svg>
