<?xml version="1.0" encoding="utf-8"?>
<!-- Generator: Adobe Illustrator 16.0.0, SVG Export Plug-In . SVG Version: 6.00 Build 0)  -->
<!DOCTYPE svg PUBLIC "-//W3C//DTD SVG 1.1//EN" "http://www.w3.org/Graphics/SVG/1.1/DTD/svg11.dtd">
<svg version="1.1" id="Layer_1" xmlns="http://www.w3.org/2000/svg" xmlns:xlink="http://www.w3.org/1999/xlink" x="0px" y="0px"
	 width="500px" height="500px" viewBox="0 0 500 500" enable-background="new 0 0 500 500" xml:space="preserve">
<g>
	<polygon fill="#FFFFFF" points="154.443,225.009 123.131,274.558 123.131,274.9 154.779,274.9 154.779,283.104 110.279,283.104 
		110.279,277.573 141.941,227.524 141.941,227.182 112.999,227.182 112.999,219.07 154.443,219.07 	"/>
	<path fill="#FFFFFF" d="M202.511,283.104h-9.862v-26.954c0-6.61-2.304-12.134-8.94-12.134c-4.845,0-10.04,3.931-10.04,10.883
		v28.205H163.8v-67.128h9.869v27.283h0.164c3.075-4.772,8.348-7.281,13.444-7.281c7.071,0,15.234,4.688,15.234,19.251V283.104
		L202.511,283.104z"/>
	<path fill="#FFFFFF" d="M249.229,281.26c-3.318,1.501-8.506,2.765-14.893,2.765c-14.129,0-22.292-9.296-22.292-23.358
		c0-13.721,7.828-24.689,21.093-24.689c13.194,0,18.474,10.797,18.474,22.187c0,1.586-0.092,2.923-0.262,4.095h-29.773
		c0.251,10.376,6.802,14.313,14.208,14.313c5.188,0,8.756-0.922,11.824-2.173L249.229,281.26z M242.251,255.319
		c0.079-5.53-2.211-12.396-9.784-12.396c-7.242,0-10.296,7.031-10.81,12.396H242.251z"/>
	<path fill="#FFFFFF" d="M299.846,283.104h-9.862v-27.04c0-6.523-2.212-12.047-8.94-12.047c-4.84,0-10.034,3.93-10.034,11.304
		v27.784h-9.875v-33.15c0-5.103-0.166-9.04-0.329-12.977h8.585l0.513,6.874h0.257c2.206-3.937,7.144-7.874,14.207-7.874
		c7.316,0,15.479,4.688,15.479,18.921V283.104L299.846,283.104z"/>
	<rect x="330.223" y="222.671" fill="#FFFFFF" width="9.31" height="60.432"/>
	<path fill="#FFFFFF" d="M352.305,223.382c3.693-0.632,8.586-1.186,14.933-1.186c7.551,0,13.246,1.587,16.946,4.821
		c3.449,2.922,5.537,7.498,5.537,13.035c0,14.688-11.885,19.745-22.964,19.745c-1.93,0-3.695-0.079-5.214-0.395v23.701h-9.238
		V223.382z M361.542,252.055c1.363,0.396,3.048,0.474,5.214,0.474c8.513,0,13.643-4.345,13.643-12.087
		c0-7.341-5.13-11.048-12.597-11.048c-2.889,0-5.056,0.316-6.26,0.546V252.055L361.542,252.055z"/>
</g>
</svg>
