<?xml version="1.0" encoding="utf-8"?>
<!-- Generator: Adobe Illustrator 16.0.0, SVG Export Plug-In . SVG Version: 6.00 Build 0)  -->
<!DOCTYPE svg PUBLIC "-//W3C//DTD SVG 1.1//EN" "http://www.w3.org/Graphics/SVG/1.1/DTD/svg11.dtd">
<svg version="1.1" id="Layer_1" xmlns="http://www.w3.org/2000/svg" xmlns:xlink="http://www.w3.org/1999/xlink" x="0px" y="0px"
	 width="500px" height="500px" viewBox="0 0 500 500" enable-background="new 0 0 500 500" xml:space="preserve">
<g>
	<g>
		<g>
			<g>
				<path id="XMLID_112_" fill="#FFFFFF" d="M304.953,278.951v-6.538c1.053,0,1.907-0.783,1.907-1.746v-8.433h6.539v8.433
					C313.399,275.234,309.61,278.951,304.953,278.951z"/>
			</g>
			<g>
				<path id="XMLID_111_" fill="#FFFFFF" d="M336.435,278.951c-4.938,0-8.955-3.937-8.955-8.774v-7.942h6.538v7.942
					c0,1.232,1.084,2.236,2.417,2.236c1.329,0,2.413-1.002,2.413-2.235v-33.689h6.539v33.689
					C345.387,275.016,341.37,278.951,336.435,278.951z"/>
			</g>
			<g>
				<rect id="XMLID_110_" x="338.829" y="234.528" fill="#FFFFFF" width="26.01" height="5.605"/>
			</g>
			<g>
				<rect id="XMLID_109_" x="317.174" y="232.696" fill="#FFFFFF" width="6.538" height="5.35"/>
			</g>
			<g>
				<g>
					<rect id="XMLID_108_" x="308.187" y="240.54" fill="#FFFFFF" width="6.539" height="7.74"/>
				</g>
				<g>
					<rect id="XMLID_107_" x="326.162" y="240.54" fill="#FFFFFF" width="6.539" height="7.74"/>
				</g>
			</g>
			<g>
				<rect id="XMLID_106_" x="317.174" y="251.051" fill="#FFFFFF" width="6.538" height="27.471"/>
			</g>
			<g>
				<rect id="XMLID_105_" x="353.773" y="251.102" fill="#FFFFFF" width="6.538" height="27.42"/>
			</g>
			<g>
				<g>
					<g>
						<rect id="XMLID_104_" x="320.802" y="221.048" fill="#FFFFFF" width="6.538" height="10.717"/>
					</g>
					<g>
						<rect id="XMLID_103_" x="342.287" y="221.048" fill="#FFFFFF" width="6.538" height="10.717"/>
					</g>
				</g>
				<g>
					<rect id="XMLID_102_" x="303.912" y="223.671" fill="#FFFFFF" width="61.804" height="5.604"/>
				</g>
			</g>
			<g>
				<g>
					<rect id="XMLID_101_" x="370.908" y="223.671" fill="#FFFFFF" width="58.264" height="5.604"/>
				</g>
			</g>
			<g>
				<rect id="XMLID_100_" x="305.238" y="235.553" fill="#FFFFFF" width="30.41" height="5.605"/>
			</g>
			<g>
				<rect id="XMLID_99_" x="303.912" y="247.199" fill="#FFFFFF" width="33.062" height="5.606"/>
			</g>
			<g>
				<rect id="XMLID_98_" x="341.598" y="247.199" fill="#FFFFFF" width="24.176" height="5.606"/>
			</g>
			<g>
				<rect id="XMLID_97_" x="304.953" y="255.598" fill="#FFFFFF" width="30.981" height="5.604"/>
			</g>
			<g>
				<path id="XMLID_96_" fill="#FFFFFF" d="M242.611,278.893v-7.472c11.078,0,24.597-20.292,24.597-27.66v-19.154h7.472v19.154
					C274.68,254.12,259.146,278.893,242.611,278.893z"/>
			</g>
			<g>
				<path id="XMLID_95_" fill="#FFFFFF" d="M299.276,278.893c-16.534,0-32.068-24.772-32.068-35.131v-19.154h7.472v19.154
					c0,7.368,13.519,27.66,24.597,27.66V278.893L299.276,278.893z"/>
			</g>
			<g>
				<path id="XMLID_94_" fill="#FFFFFF" d="M395.491,278.497h-11.477v-6.539h11.477c1.346,0,2.435-1.089,2.435-2.435v-48.466h6.539
					v48.465C404.465,274.479,400.447,278.497,395.491,278.497z"/>
			</g>
			<g>
				<g>
					<rect id="XMLID_93_" x="376.11" y="231.145" fill="#FFFFFF" width="48.261" height="5.603"/>
				</g>
			</g>
			<g>
				<g>
					<rect id="XMLID_92_" x="373.711" y="247.467" fill="#FFFFFF" width="46.925" height="5.604"/>
				</g>
			</g>
			<g>
				<g>
					<rect id="XMLID_91_" x="376.11" y="239.552" fill="#FFFFFF" width="48.261" height="5.604"/>
				</g>
			</g>
			<g>
				<g>
					<g>
						<rect id="XMLID_90_" x="375.598" y="231.182" fill="#FFFFFF" width="6.539" height="13.956"/>
					</g>
				</g>
				<g>
					<g>
						<rect id="XMLID_89_" x="418.347" y="231.182" fill="#FFFFFF" width="6.538" height="13.956"/>
					</g>
				</g>
			</g>
			<g>
				<g>
					<path id="XMLID_88_" fill="#FFFFFF" d="M419.258,272.033L419.258,272.033v-24.585h6.539v18.048
						C425.797,269.106,422.87,272.033,419.258,272.033z"/>
				</g>
			</g>
			<g>
				<g>
					<rect id="XMLID_87_" x="370.908" y="255.407" fill="#FFFFFF" width="58.264" height="5.604"/>
				</g>
			</g>
			<g>
				<g>
					<rect id="XMLID_86_" x="373.711" y="263.347" fill="#FFFFFF" width="46.925" height="5.604"/>
				</g>
			</g>
		</g>
		<g>
			<path id="XMLID_85_" fill="#FFFFFF" d="M178.375,278.951v-6.538c1.053,0,1.908-0.783,1.908-1.746v-8.433h6.539v8.433
				C186.822,275.234,183.032,278.951,178.375,278.951z"/>
		</g>
		<g>
			<path id="XMLID_84_" fill="#FFFFFF" d="M209.857,278.951c-4.938,0-8.955-3.937-8.955-8.774v-7.942h6.538v7.942
				c0,1.232,1.085,2.236,2.417,2.236c1.33,0,2.414-1.002,2.414-2.235v-33.689h6.539v33.689
				C218.809,275.016,214.794,278.951,209.857,278.951z"/>
		</g>
		<g>
			<rect id="XMLID_83_" x="212.251" y="234.528" fill="#FFFFFF" width="26.01" height="5.605"/>
		</g>
		<g>
			<rect id="XMLID_82_" x="190.597" y="232.696" fill="#FFFFFF" width="6.54" height="5.35"/>
		</g>
		<g>
			<g>
				<rect id="XMLID_81_" x="181.61" y="240.54" fill="#FFFFFF" width="6.538" height="7.74"/>
			</g>
			<g>
				<rect id="XMLID_75_" x="199.584" y="240.54" fill="#FFFFFF" width="6.539" height="7.74"/>
			</g>
		</g>
		<g>
			<rect id="XMLID_74_" x="190.597" y="251.051" fill="#FFFFFF" width="6.54" height="27.471"/>
		</g>
		<g>
			<rect id="XMLID_73_" x="227.197" y="251.102" fill="#FFFFFF" width="6.538" height="27.42"/>
		</g>
		<g>
			<g>
				<g>
					<rect id="XMLID_72_" x="194.224" y="221.048" fill="#FFFFFF" width="6.541" height="10.717"/>
				</g>
				<g>
					<rect id="XMLID_71_" x="215.71" y="221.048" fill="#FFFFFF" width="6.539" height="10.717"/>
				</g>
			</g>
			<g>
				<rect id="XMLID_70_" x="177.335" y="223.671" fill="#FFFFFF" width="61.803" height="5.604"/>
			</g>
		</g>
		<g>
			<rect id="XMLID_69_" x="178.661" y="235.553" fill="#FFFFFF" width="30.411" height="5.605"/>
		</g>
		<g>
			<rect id="XMLID_68_" x="177.335" y="247.199" fill="#FFFFFF" width="33.063" height="5.606"/>
		</g>
		<g>
			<rect id="XMLID_67_" x="215.02" y="247.199" fill="#FFFFFF" width="24.175" height="5.606"/>
		</g>
		<g>
			<rect id="XMLID_66_" x="178.375" y="255.598" fill="#FFFFFF" width="30.983" height="5.604"/>
		</g>
	</g>
	<g id="XMLID_76_">
		<path id="XMLID_80_" fill="#FFFFFF" d="M81.309,220.58c-5.113,5.596-8.781,12.528-10.433,20.213
			c3.265-0.356,6.347-1.323,9.126-2.792c-1.878,3.554-2.952,7.6-2.952,11.897c0,4.299,1.073,8.345,2.952,11.899
			c-2.792-1.477-5.89-2.445-9.174-2.796c1.63,7.766,5.322,14.771,10.48,20.416c11.229-5.049,19.061-16.308,19.061-29.418
			C100.369,236.891,92.537,225.629,81.309,220.58z"/>
		<path id="XMLID_79_" fill="#FFFFFF" d="M113.523,263.155c-13.109,0-24.369,7.831-29.417,19.059
			c5.595,5.112,12.527,8.78,20.209,10.432c-0.355-3.265-1.324-6.345-2.792-9.122c3.554,1.877,7.6,2.951,11.898,2.951
			c4.298,0,8.344-1.074,11.897-2.951c-1.475,2.79-2.444,5.887-2.796,9.171c7.766-1.629,14.772-5.322,20.418-10.481
			C137.893,270.986,126.632,263.155,113.523,263.155z"/>
		<path id="XMLID_78_" fill="#FFFFFF" d="M156.217,259.002c-3.282,0.351-6.38,1.319-9.171,2.796
			c1.876-3.555,2.951-7.601,2.951-11.899c0-4.298-1.074-8.344-2.951-11.897c2.778,1.47,5.857,2.436,9.124,2.792
			c-1.651-7.685-5.32-14.617-10.434-20.212c-11.229,5.049-19.059,16.311-19.059,29.419c0,13.11,7.831,24.37,19.059,29.419
			C150.896,273.773,154.588,266.768,156.217,259.002z"/>
		<path id="XMLID_77_" fill="#FFFFFF" d="M122.524,207.306c0.353,3.283,1.321,6.38,2.796,9.172
			c-3.553-1.877-7.599-2.952-11.897-2.952s-8.345,1.075-11.897,2.952c1.468-2.779,2.436-5.859,2.792-9.125
			c-7.684,1.65-14.616,5.318-20.212,10.432c5.049,11.229,16.31,19.06,29.419,19.06s24.369-7.832,29.418-19.06
			C137.297,212.627,130.29,208.936,122.524,207.306z"/>
	</g>
</g>
</svg>
