<?xml version="1.0" encoding="utf-8"?>
<!-- Generator: Adobe Illustrator 16.0.0, SVG Export Plug-In . SVG Version: 6.00 Build 0)  -->
<!DOCTYPE svg PUBLIC "-//W3C//DTD SVG 1.1//EN" "http://www.w3.org/Graphics/SVG/1.1/DTD/svg11.dtd">
<svg version="1.1" id="Layer_1" xmlns="http://www.w3.org/2000/svg" xmlns:xlink="http://www.w3.org/1999/xlink" x="0px" y="0px"
	 width="500px" height="500px" viewBox="0 0 500 500" enable-background="new 0 0 500 500" xml:space="preserve">
<g>
	<path fill="#FFFFFF" d="M268.52,189.425v-2.922h22.214v-21.278h-59.112v21.278h22.591v2.922h-24.848v6.258h24.848v16.276h14.307
		v-16.276h22.968v-6.258H268.52z M244.802,180.037v-8.763h32.379v8.763h-4.897H244.802z"/>
	<path fill="#FFFFFF" d="M230.808,164.389h-14.312c0,0-1.92,4.308-5.224,8.036c-4.211,4.75-10.031,9.169-10.031,9.169l8.919-1.561
		v31.927h13.557v-36.635c0.561-0.538,1.111-1.094,1.607-1.647C229.329,169.158,230.808,164.389,230.808,164.389"/>
	<path fill="#FFFFFF" d="M213.485,231.945c0,0-0.309-3.881-2.58-7.522c-2.535-4.066-7.054-7.931-7.054-7.931s15.418,0,19.466,6.98
		c2.47,3.962,3.174,8.473,3.174,8.473H213.485L213.485,231.945z"/>
	<path fill="#FFFFFF" d="M224.165,249.11c2.327-9.706,2.327-11.174,2.327-11.174h-13.007c0,0,0.252,4.058-1.915,10.033
		c-2.371,6.558-10.551,16.035-10.551,16.035S221.962,258.279,224.165,249.11"/>
	<path fill="#FFFFFF" d="M290.355,226.101v-6.674h-16.191l-2.922-2.919h-14.688l2.551,2.919h-10.458
		c0.902-1.692,1.429-2.937,1.429-2.937h-4.535h-10.531h-0.516c0,0-1.106,3.06-3.338,6.179c-1.865,2.608-4.415,5.115-5.393,6.054
		l-0.164,0.082h0.074c-0.203,0.189-0.347,0.325-0.347,0.325h4.038v34.734h60.615v-6.674h-15.813v-5.841h15.813v-6.882h-15.813
		v-5.636h15.813v-6.888h-15.813v-5.842H290.355z M260.24,257.19h-16.192v-5.633h16.192V257.19z M260.24,244.674h-16.192v-5.842
		h16.192V244.674z M260.24,231.943h-16.192v-5.633h16.192V231.943z"/>
	<path fill="#FFFFFF" d="M247.664,205.438c2.688-3.629,3.596-7.469,3.596-7.469h-12.843c0,0-0.342,3.068-2.729,6.288
		c-2.768,3.736-7.639,7.702-7.639,7.702S244.047,210.741,247.664,205.438"/>
	<path fill="#FFFFFF" d="M274.149,205.438c-2.133-3.822-3.597-7.469-3.597-7.469h12.844c0,0,0.343,3.068,2.728,6.288
		c2.77,3.736,7.64,7.702,7.64,7.702S277.409,211.265,274.149,205.438"/>
	<path fill="#FFFFFF" d="M363.899,251.389h-39.638c-0.579,0-1.05-0.466-1.05-1.045c0-0.579,0.471-1.052,1.05-1.052h39.638
		c0.58,0,1.046,0.474,1.046,1.052C364.945,250.923,364.479,251.389,363.899,251.389"/>
	<path fill="#FFFFFF" d="M179.479,251.391h-43.386c-0.581,0-1.046-0.465-1.046-1.046c0-0.578,0.466-1.052,1.046-1.052h43.386
		c0.58,0,1.047,0.475,1.047,1.052C180.526,250.925,180.059,251.391,179.479,251.391"/>
	<path fill="#FFFFFF" d="M249.996,157.223c-0.576,0-1.047-0.466-1.047-1.047V145.25c0-0.578,0.472-1.051,1.047-1.051
		c0.58,0,1.046,0.474,1.046,1.051v10.926C251.042,156.757,250.576,157.223,249.996,157.223"/>
	<path fill="#FFFFFF" d="M249.996,357.213c-0.576,0-1.047-0.466-1.047-1.044v-10.657c0-0.581,0.472-1.047,1.047-1.047
		c0.58,0,1.046,0.466,1.046,1.047v10.657C251.042,356.747,250.576,357.213,249.996,357.213"/>
	<path fill="#FFFFFF" d="M316.161,295.755c0,0-4.028,12.003-28.226,12.003h-29.895v-13.073h31.016v-15.041h-31.016v-9.946h-16.483
		v9.946h-16.837c1.979-4.018,3.125-7.405,3.125-7.405h-13.224c0,0-2.173,6.083-5.477,11.778
		c-6.484,11.158-14.535,17.342-14.535,17.342s12.694,0,22.14-6.674h24.426v13.074h-33.375c-24.199,0-28.688-12.45-28.688-12.45
		s-3.403,30.285,29.432,30.285h32.631v11.611h16.866v-11.611h29.155C320.026,325.594,316.161,295.755,316.161,295.755"/>
	<path fill="#FFFFFF" d="M252.224,131.037L252.224,131.037c0,4.872,3.695,8.952,8.547,9.423
		c55.724,5.416,99.283,52.383,99.283,109.53c0,60.41-48.714,109.545-109.12,110.049c-61.21,0.508-110.991-48.96-110.991-110.049
		c0-57.147,43.555-104.114,99.288-109.53c4.848-0.471,8.538-4.551,8.538-9.423c-64.892,1.193-117.092,54.337-116.74,119.603
		c0.347,65.565,53.407,118.323,118.972,118.323c65.704,0,118.974-53.266,118.974-118.973
		C368.974,185.025,316.906,132.225,252.224,131.037"/>
</g>
</svg>
