<?xml version="1.0" encoding="utf-8"?>
<!-- Generator: Adobe Illustrator 16.0.0, SVG Export Plug-In . SVG Version: 6.00 Build 0)  -->
<!DOCTYPE svg PUBLIC "-//W3C//DTD SVG 1.1//EN" "http://www.w3.org/Graphics/SVG/1.1/DTD/svg11.dtd">
<svg version="1.1" id="Layer_1" xmlns="http://www.w3.org/2000/svg" xmlns:xlink="http://www.w3.org/1999/xlink" x="0px" y="0px"
	 width="500px" height="500px" viewBox="0 0 500 500" enable-background="new 0 0 500 500" xml:space="preserve">
<g>
	<rect x="278.005" y="219.715" fill="#FFFFFF" width="13.021" height="3.971"/>
	<path fill="#FFFFFF" d="M280.212,304.32l-1.97-4.524c-0.635,1.604-1.296,3.144-1.983,4.619l1.888,4.063
		C278.854,307.147,279.542,305.76,280.212,304.32z"/>
	<polygon fill="#FFFFFF" points="278.005,234.039 291.026,233.356 291.026,229.546 278.005,229.546 	"/>
	<rect x="278.005" y="209.884" fill="#FFFFFF" width="13.021" height="3.972"/>
	<path fill="#FFFFFF" d="M318.773,141.979H181.228c-21.475,0-38.888,17.412-38.888,38.888v138.267
		c0,21.478,17.414,38.886,38.888,38.886h137.546c21.475,0,38.887-17.408,38.887-38.886V180.868
		C357.66,159.392,340.248,141.979,318.773,141.979z M280.023,191.069h34.767v48.505c0,3.731-0.619,6.538-1.855,8.416
		c-1.236,1.875-3.038,3.037-5.403,3.482c-2.366,0.446-6.065,0.666-11.102,0.666c-0.347-1.886-0.726-3.645-1.141-5.273h-4.265v-6.576
		l-25.195,1.562l-0.652-7.291l5.016-0.195v-24.481h-3.714v-7.162h36.657v7.162h-4.297v23.047l5.797-0.39
		c-0.219,2.56-0.37,4.904-0.456,7.032l-5.34,0.292v3.711c2.083,0,3.529-0.076,4.345-0.227c0.814-0.153,1.498-0.59,2.051-1.32
		c0.555-0.726,0.832-1.718,0.832-2.978v-39.976h-26.043L280.023,191.069L280.023,191.069z M271.166,187.943
		c1.954,3.126,4.039,6.641,6.252,10.548l-8.335,3.321c-1.953-4.124-3.861-7.792-5.729-11.004L271.166,187.943z M255.282,196.537
		h8.724v55.472h-8.724V196.537z M191.2,199.533c0.87,6.032,1.844,12.739,2.93,20.117l-5.536,1.238
		c-1.343-8.594-2.43-15.235-3.253-19.923L191.2,199.533z M195.758,214.377c0.086-3.471,0.151-12.219,0.196-26.239h7.943
		c-0.086,3.994-0.153,8.725-0.196,14.195c0.998-1.389,1.996-2.8,2.996-4.234l3.189,3.516v-5.272h15.563
		c-0.87-2.084-1.867-4.34-2.995-6.771l9.699-1.757c1.129,2.169,2.432,5.012,3.908,8.529h13.412v7.421h-19.077
		c-2.865,4.08-6.229,8.768-10.091,14.063c3.471-0.259,6.965-0.542,10.482-0.846c2.041-3.083,4.102-6.404,6.186-9.962l8.854,4.428
		c-7.77,11.241-15.281,20.943-22.528,29.103c3.127-0.217,7.357-0.587,12.697-1.106c-1.303-2.648-2.628-5.211-3.974-7.684
		l7.816-3.646c4.643,8.377,8.158,15.235,10.546,20.573l-8.334,3.908c-0.738-1.779-1.498-3.516-2.278-5.209
		c-12.893,1.129-22.029,2.17-27.411,3.126l-3.127-8.074c5.036-4.08,10.332-9.876,15.886-17.383
		c-5.382,0.435-9.679,0.976-12.89,1.626l-2.475-7.812c2.82-2.778,6.381-7.814,10.677-15.106h-8.593l0.455,0.457
		c-3.299,3.429-6.205,6.357-8.723,8.789c-0.132,4.341-0.415,8.311-0.848,11.915c2.996,3.733,6.119,7.596,9.376,11.589l-6.642,5.793
		c-1.519-2.56-3.059-5.099-4.62-7.616c-1.954,7.161-4.908,13.26-8.857,18.295c-0.519-0.521-2.779-2.952-6.771-7.292
		C191.852,238.099,195.367,227.66,195.758,214.377z M216.892,313.26c0,0.843-0.178,1.508-0.537,1.998
		c-0.358,0.489-0.855,0.799-1.494,0.93c-0.639,0.132-1.819,0.197-3.54,0.197c-0.083-1.078-0.263-2.097-0.543-3.058l-0.57,1.211
		c-0.707-0.436-1.677-0.888-2.908-1.359c0.906-1.703,1.693-3.695,2.364-5.979l3.043,0.925c-0.488,1.639-1.068,3.225-1.739,4.754
		c0.442,0.037,0.887,0.057,1.332,0.057c0.688,0,1.041-0.411,1.061-1.225v-4.999h-5.109v-3.045h5.109v-1.766h-5.545v-3.042h2.921
		c-0.381-0.743-0.774-1.45-1.182-2.12l2.962-1.198c0.724,1.206,1.331,2.312,1.82,3.318h1.196c0.898-1.514,1.512-2.637,1.848-3.371
		h-9.076v-3.043h4.838c-0.245-0.661-0.481-1.26-0.708-1.793l3.751-0.68c0.262,0.706,0.533,1.531,0.815,2.473h4.565v3.043h-3.724
		c0.498,0.227,1.467,0.651,2.907,1.276c-0.298,0.462-0.76,1.161-1.385,2.095h2.798v3.042h-5.272v1.766h4.783v3.045h-4.783V313.26
		L216.892,313.26z M234.61,298.859v3.557h-2.066v14.133h-3.587v-14.133h-2.392v1.55c0,5.734-1.241,10.109-3.722,13.125
		c-1.232-1.068-2.374-1.974-3.424-2.717c1.033-0.916,1.839-2.052,2.419-3.41l-2.772,1.561c-0.635-1.429-1.324-2.77-2.065-4.019
		l2.608-1.306c0.644,0.87,1.391,2.115,2.243,3.735c0.751-1.765,1.128-3.906,1.128-6.426v-12.229c4.13-0.416,7.49-1.077,10.081-1.983
		l1.549,3.56c-2.447,0.651-5.127,1.114-8.044,1.386v3.615L234.61,298.859L234.61,298.859z M262.75,310.761h-11.031v6.194h-3.968
		v-6.194h-11.223v-3.425h11.223v-2.554h3.968v2.554h11.031V310.761z M261.352,303.79c-0.798,0.625-1.8,0.938-3.004,0.938h-4.783
		c-2.627,0-3.939-1.225-3.939-3.668v-0.504c-1.205,0.508-2.446,0.992-3.723,1.453c-0.599-1.212-1.187-2.283-1.766-3.207v6.387
		h-3.614v-6.236c-0.887,0.816-1.812,1.582-2.772,2.297c-0.634-1.45-1.159-2.528-1.576-3.233c2.881-2.03,5.354-4.758,7.419-8.181
		l3.206,1.576c-0.833,1.305-1.721,2.537-2.662,3.696v3.6c1.92-0.625,3.75-1.299,5.489-2.023v-6.25h3.613v4.592
		c2.338-1.178,4.493-2.473,6.468-3.886l2.255,2.717c-2.59,1.839-5.498,3.533-8.723,5.081v1.143c0,1.032,0.617,1.548,1.848,1.548
		h2.257c0.868,0,1.46-0.26,1.773-0.781c0.312-0.521,0.536-1.728,0.672-3.62c1.068,0.416,2.209,0.797,3.423,1.141
		C262.769,301.358,262.148,303.165,261.352,303.79z M290.512,312.01c0,1.404-0.267,2.483-0.802,3.241
		c-0.535,0.754-1.284,1.196-2.249,1.324c-0.964,0.126-2.764,0.19-5.399,0.19c-0.257-1.467-0.536-2.736-0.844-3.805
		c1.285,0.127,2.591,0.191,3.912,0.191c1.16,0,1.74-0.572,1.74-1.713v-16.902h-17.419v2.364l2.556-1.332l2.403,4.933
		c0.716-1.621,1.391-3.311,2.025-5.068l1.834,0.843l1.454-0.652l2.201,4.769c0.679-1.621,1.332-3.31,1.957-5.067l2.935,1.25
		c-0.917,2.717-1.931,5.325-3.043,7.826l2.852,6.359l-3.071,1.52l-1.643-3.966c-0.878,1.739-1.799,3.423-2.759,5.054
		c-0.407-0.317-0.81-0.62-1.21-0.91l-1.453,0.721l-2.105-4.999c-1.043,1.965-2.134,3.794-3.274,5.488
		c-0.453-0.426-1.006-0.906-1.658-1.44v4.512h-3.642v-25.598h24.702V312.01L290.512,312.01z M248.516,276.285
		c-33.217-0.271-81.016,5.94-81.016,5.94s33.216-14.583,86.416-14.583c46.179,0,78.584,14.583,78.584,14.583
		S281.73,276.555,248.516,276.285z"/>
	<path fill="#FFFFFF" d="M269.451,297.444v12.405c1.133-1.758,2.196-3.627,3.193-5.611
		C271.576,301.865,270.512,299.601,269.451,297.444z"/>
</g>
</svg>
