<?xml version="1.0" encoding="utf-8"?>
<!-- Generator: Adobe Illustrator 16.0.0, SVG Export Plug-In . SVG Version: 6.00 Build 0)  -->
<!DOCTYPE svg PUBLIC "-//W3C//DTD SVG 1.1//EN" "http://www.w3.org/Graphics/SVG/1.1/DTD/svg11.dtd">
<svg version="1.1" id="Layer_1" xmlns="http://www.w3.org/2000/svg" xmlns:xlink="http://www.w3.org/1999/xlink" x="0px" y="0px"
	 width="500px" height="500px" viewBox="0 0 500 500" enable-background="new 0 0 500 500" xml:space="preserve">
<path fill="#FFFFFF" d="M249.999,129.916c-66.319,0-120.083,53.765-120.083,120.085c0,66.319,53.765,120.083,120.083,120.083
	c66.321,0,120.085-53.764,120.085-120.083C370.084,183.68,316.32,129.916,249.999,129.916z M282.998,318.925
	c-1.249,2.598-3.884,4.399-6.957,4.399c-3.586,0-6.586-2.452-7.455-5.775c-0.126-0.211-0.219-0.396-0.263-0.555
	c-0.871-3.481-2.083-33.213-8.413-40.081c-8.375-9.43-15.412-1.066-16.834,0.71c-1.423,2.262-5.469,6.162-9.121,38.67
	c-0.009,0.027-0.024,0.048-0.038,0.079c-0.742,4.606-3.679,6.952-7.674,6.952c-3.253,0-6.026-2.021-7.163-4.874
	c-0.293-0.346-0.487-0.62-0.556-0.755c-7.15-9.419-30.522-80.936-25.25-113.911c0.328-3.203,1.042-5.829,2.01-7.998
	c1.776-5.947,7.269-10.283,13.775-10.283c1.189,0,2.34,0.163,3.441,0.435c1.54,0.069,2.517,0.269,2.517,0.269
	s33.318,9.317,58.219,25.315c-3.097-7.444-15.433-13.361-15.433-13.361c-0.466-1.406,8.071-9.139,33.672-12.657
	c3.329-0.442,4.072,0,4.558,0c6.762,0,12.411,4.681,13.952,10.979c0.778,2.226,1.827,11.021,1.827,13.633
	C311.811,243.525,296.851,299.17,282.998,318.925z"/>
</svg>
