<?xml version="1.0" encoding="utf-8"?>
<!-- Generator: Adobe Illustrator 16.0.0, SVG Export Plug-In . SVG Version: 6.00 Build 0)  -->
<!DOCTYPE svg PUBLIC "-//W3C//DTD SVG 1.1//EN" "http://www.w3.org/Graphics/SVG/1.1/DTD/svg11.dtd">
<svg version="1.1" id="Layer_1" xmlns="http://www.w3.org/2000/svg" xmlns:xlink="http://www.w3.org/1999/xlink" x="0px" y="0px"
	 width="500px" height="500px" viewBox="0 0 500 500" enable-background="new 0 0 500 500" xml:space="preserve">
<g>
	<polygon fill="#FFFFFF" points="86.071,228.578 73.037,228.578 73.037,271.422 102.684,271.422 102.684,261.091 86.071,261.091 	
		"/>
	<polygon fill="#FFFFFF" points="117.866,254.591 134.539,254.591 134.539,244.602 117.866,244.602 117.866,238.566 
		135.518,238.566 135.518,228.578 104.825,228.578 104.825,271.422 136.154,271.422 136.154,261.433 117.866,261.433 	"/>
	<path fill="#FFFFFF" d="M176.117,233.847c-1.819-1.923-4.077-3.407-6.76-4.44c-2.64-1.014-5.713-1.526-9.154-1.526
		c-3.421,0-6.5,0.513-9.147,1.526c-2.676,1.033-4.947,2.518-6.747,4.44c-1.799,1.915-3.167,4.27-4.091,7.02
		c-0.903,2.695-1.354,5.774-1.354,9.134c0,3.318,0.452,6.377,1.354,9.079c0.924,2.736,2.312,5.11,4.119,7.047
		c1.827,1.93,4.092,3.435,6.747,4.461c2.62,1.013,5.699,1.533,9.12,1.533c3.4,0,6.459-0.521,9.093-1.533
		c2.675-1.026,4.959-2.524,6.78-4.461c1.82-1.942,3.209-4.311,4.112-7.047c0.91-2.702,1.375-5.761,1.375-9.079
		c0-3.359-0.465-6.438-1.375-9.134C179.285,238.116,177.911,235.762,176.117,233.847 M167.674,254.591
		c-0.315,1.437-0.8,2.717-1.464,3.804c-0.637,1.033-1.471,1.875-2.457,2.491c-0.958,0.596-2.148,0.896-3.551,0.896
		c-1.389,0-2.572-0.301-3.544-0.896c-0.992-0.616-1.82-1.458-2.45-2.491c-0.664-1.087-1.149-2.367-1.471-3.804
		c-0.328-1.478-0.5-3.017-0.5-4.591c0-1.649,0.171-3.236,0.5-4.714c0.308-1.43,0.807-2.696,1.471-3.764
		c0.629-1.012,1.444-1.833,2.442-2.436c0.958-0.574,2.155-0.876,3.551-0.876c1.402,0,2.6,0.302,3.572,0.876
		c0.985,0.603,1.799,1.424,2.436,2.436c0.664,1.067,1.149,2.34,1.464,3.764c0.336,1.478,0.486,3.064,0.486,4.714
		C168.16,251.566,168.01,253.113,167.674,254.591"/>
	<polygon fill="#FFFFFF" points="211.634,253.113 203.854,228.578 184.964,228.578 184.964,271.422 197.772,271.422 
		197.581,246.449 205.47,271.422 217.004,271.422 225.366,246.093 225.229,271.422 238.037,271.422 238.037,228.578 
		219.776,228.578 	"/>
	<path fill="#FFFFFF" d="M255.312,228.578l-16.181,42.844h13.383l3.175-8.647h13.492l2.996,8.647h14.266l-16.4-42.844H255.312z
		 M258.967,252.784l3.605-11.028l3.338,11.028H258.967z"/>
	<polygon fill="#FFFFFF" points="367.91,254.591 384.584,254.591 384.584,244.602 367.91,244.602 367.91,238.566 385.555,238.566 
		385.555,228.578 354.861,228.578 354.861,271.422 386.191,271.422 386.191,261.433 367.91,261.433 	"/>
	<path fill="#FFFFFF" d="M422.446,258.791c-0.472-1.211-0.883-2.312-1.196-3.27c-0.35-1.04-0.732-1.971-1.144-2.778
		c-0.438-0.862-0.972-1.601-1.581-2.189l-0.088-0.082c1.67-0.745,3.018-1.806,3.996-3.161c1.402-1.929,2.12-4.406,2.12-7.354
		c0-1.923-0.376-3.634-1.136-5.077c-0.759-1.43-1.807-2.634-3.146-3.592c-1.308-0.931-2.832-1.629-4.537-2.066
		c-1.662-0.424-3.455-0.644-5.315-0.644h-20.308v42.845h13.049v-16.024h1.087c0.876,0,1.608,0.109,2.196,0.315
		c0.521,0.178,0.965,0.52,1.402,1.013c0.486,0.574,0.945,1.368,1.376,2.381c0.466,1.081,0.958,2.49,1.491,4.188l2.565,8.128h13.685
		L422.446,258.791z M411.033,243.808c-0.383,0.466-0.84,0.814-1.422,1.054c-0.623,0.261-1.361,0.411-2.169,0.466
		c-0.909,0.055-1.786,0.082-2.614,0.082h-1.669v-6.843h1.669c0.986,0,1.943,0.049,2.826,0.165c0.836,0.096,1.553,0.28,2.17,0.548
		c0.533,0.231,0.943,0.554,1.258,0.984c0.295,0.403,0.445,0.931,0.445,1.608C411.527,242.754,411.349,243.404,411.033,243.808"/>
	<path fill="#FFFFFF" d="M300.771,272.12l0.226-0.015c0.574-0.013,1.189-0.054,1.799-0.096c5.193-0.465,16.305-2.764,16.865-14.054
		c0.746-14.757-14.477-18.034-20.383-19.484c0,0,8.245-1.779,16.941-0.356l0.698-8.375l-0.841-0.287
		c-1.41-0.485-3.08-0.876-4.94-1.149c-3.804-0.574-8.019-0.602-12.214,0.179c-2.188,0.403-4.186,1.107-5.972,2.093
		c-1.82,1.013-3.347,2.422-4.522,4.174c-1.205,1.793-1.812,4.051-1.812,6.719c0,2.689,0.525,4.898,1.6,6.548
		c1.033,1.607,2.34,2.908,3.879,3.866c1.499,0.93,3.127,1.655,4.872,2.161c1.629,0.479,3.153,0.958,4.536,1.437
		c1.293,0.445,2.381,0.973,3.236,1.567c0.616,0.438,0.924,1.061,0.924,1.95c0,0.567-0.123,1.013-0.342,1.334
		c-0.254,0.356-0.59,0.63-1.02,0.842c-0.508,0.232-1.102,0.396-1.786,0.479c-0.753,0.089-1.532,0.13-2.341,0.13
		c-2.127,0-4.104-0.239-5.87-0.711c-1.786-0.473-3.338-1.088-4.652-1.813l-1.519-0.849l-1.197,11.631l0.875,0.281
		c1.883,0.595,3.949,1.054,6.151,1.348c2.196,0.301,4.276,0.452,6.212,0.452c0.191,0,0.391,0,0.589-0.015L300.771,272.12z"/>
	<path fill="#FFFFFF" d="M320.078,228.578v10.331v0.068c4.235,1.212,8.279,3.353,11.289,7.027c7.786,9.544,4.83,20.826,3.113,25.418
		h8.566v-32.514h9.92v-10.331H320.078z"/>
</g>
</svg>
