<?xml version="1.0" encoding="utf-8"?>
<!-- Generator: Adobe Illustrator 16.0.0, SVG Export Plug-In . SVG Version: 6.00 Build 0)  -->
<!DOCTYPE svg PUBLIC "-//W3C//DTD SVG 1.1//EN" "http://www.w3.org/Graphics/SVG/1.1/DTD/svg11.dtd">
<svg version="1.1" id="Layer_1" xmlns="http://www.w3.org/2000/svg" xmlns:xlink="http://www.w3.org/1999/xlink" x="0px" y="0px"
	 width="500px" height="500px" viewBox="0 0 500 500" enable-background="new 0 0 500 500" xml:space="preserve">
<path fill="#FFFFFF" d="M331.993,176.621l-59.443-34.318c-6.848-3.955-14.644-6.042-22.55-6.042h-0.003
	c-7.906,0-15.703,2.087-22.548,6.042l-59.445,34.318c-5.214,3.012-9.692,7-13.249,11.656c-1.183,1.55-2.267,3.171-3.239,4.856
	c0,0.003-0.003,0.007-0.005,0.007c-2.917,5.056-4.858,10.672-5.651,16.543c-0.002,0.011-0.005,0.025-0.007,0.034
	c-0.075,0.56-0.115,1.121-0.168,1.684c-0.138,1.417-0.229,2.84-0.229,4.276v28.14v40.5c0,2.009,0.132,3.995,0.396,5.959
	c0.692,5.156,2.287,10.104,4.632,14.66c3.904,7.576,9.917,14.047,17.518,18.437l24.368,14.071l35.078,20.249
	c6.844,3.951,14.641,6.044,22.549,6.044h0.001c7.906,0,15.701-2.091,22.55-6.044l59.445-34.318c1.734-1.004,3.387-2.113,4.951-3.318
	c0.006-0.007,0.014-0.011,0.021-0.015c1.56-1.206,3.032-2.507,4.41-3.892c0.004-0.003,0.009-0.009,0.012-0.013
	c1.38-1.388,2.666-2.862,3.85-4.411c0-0.002,0-0.002,0.003-0.003c5.111-6.69,8.301-14.759,9.092-23.29
	c0.127-1.365,0.213-2.735,0.213-4.118v-40.503v-28.138C354.543,199.619,345.9,184.652,331.993,176.621z M327.836,285.822
	c-0.448,5.53-3.367,10.57-7.944,13.712l-61.948,35.765c-2.514,1.2-5.228,1.805-7.947,1.805h-0.002
	c-2.732-0.002-5.464-0.61-7.986-1.822l-61.877-35.724c-4.609-3.155-7.545-8.229-7.98-13.796v-71.521
	c0.218-2.778,1.057-5.433,2.415-7.787h0.001c1.352-2.343,3.218-4.391,5.502-5.966l62.012-35.801
	c4.993-2.373,10.793-2.382,15.792-0.019l62.083,35.84c2.266,1.573,4.128,3.604,5.476,5.94l-2.299,1.327l-67.217,38.808l-0.623,0.361
	c-0.045,0.027-0.086,0.056-0.13,0.082l-0.432,0.251c-0.029,0.015-0.062,0.028-0.092,0.044l-0.006,0.007
	c-1.394,0.712-2.968,1.126-4.638,1.126c-1.671,0-3.244-0.411-4.634-1.126h-0.003c-0.01-0.007-0.019-0.013-0.029-0.015
	c-0.029-0.014-0.063-0.033-0.093-0.046l-0.339-0.195c-0.051-0.031-0.104-0.065-0.158-0.1l-53.127-30.674v67.415l58.382,33.708
	l0.002-0.002v-0.008l-4.593-2.65c1.381,0.703,2.939,1.109,4.593,1.111h0.01c1.629,0,3.162-0.392,4.524-1.073l53.844-31.086v-22.474
	l-53.211,30.725l-0.431,0.25c-1.416,0.746-3.026,1.172-4.737,1.172c-1.722,0-3.339-0.432-4.76-1.187l-0.339-0.192l-14.361-8.294
	l0.021-0.018l-19.484-11.252v-22.467l34.565,19.955c1.319,0.642,2.793,1.013,4.357,1.021c0.018,0,0.039,0.002,0.058,0.002
	c1.449,0,2.824-0.312,4.07-0.859l54.25-31.323v0.021l19.463-11.232L327.836,285.822L327.836,285.822z"/>
</svg>
