<?xml version="1.0" encoding="utf-8"?>
<!-- Generator: Adobe Illustrator 16.0.0, SVG Export Plug-In . SVG Version: 6.00 Build 0)  -->
<!DOCTYPE svg PUBLIC "-//W3C//DTD SVG 1.1//EN" "http://www.w3.org/Graphics/SVG/1.1/DTD/svg11.dtd">
<svg version="1.1" id="Layer_1" xmlns="http://www.w3.org/2000/svg" xmlns:xlink="http://www.w3.org/1999/xlink" x="0px" y="0px"
	 width="500px" height="500px" viewBox="0 0 500 500" enable-background="new 0 0 500 500" xml:space="preserve">
<g>
	<path fill="#FFFFFF" d="M184.906,264.794c-5.79,0-9.972-1.642-12.544-4.918c-2.573-3.283-3.857-7.655-3.857-13.129v-28.938h12.927
		v30.196c0,1.997,0.531,3.615,1.591,4.87c1.062,1.253,2.622,1.882,4.681,1.882h12.154v-36.948h12.929v46.985H184.906
		L184.906,264.794z"/>
	<path fill="#FFFFFF" d="M269.76,253.793c-1.772,3.669-4.553,6.527-8.348,8.587c-1.996,1.096-3.955,1.769-5.885,2.027
		c-1.929,0.26-3.987,0.387-6.175,0.387H237.97v17.656h-12.93v-64.641h22.575c1.543,0,3.022,0.027,4.437,0.095
		c1.415,0.063,2.801,0.223,4.151,0.478c1.351,0.264,2.668,0.664,3.955,1.209c1.287,0.545,2.572,1.3,3.858,2.268
		c3.087,2.44,5.257,5.45,6.515,9.023c1.253,3.564,1.878,7.282,1.878,11.142C272.409,246.202,271.526,250.129,269.76,253.793
		 M256.153,231.41c-2.022-2.378-5.131-3.573-9.31-3.573h-8.874v26.92h7.909c4.568,0,7.927-1.154,10.083-3.473
		c2.155-2.315,3.229-5.723,3.229-10.229C259.19,237.005,258.18,233.792,256.153,231.41"/>
	<path fill="#FFFFFF" d="M323.254,270.776c-0.576,2.182-1.768,4.177-3.567,5.982c-1.096,1.089-2.253,1.943-3.473,2.555
		c-1.225,0.608-2.51,1.073-3.86,1.4c-1.353,0.315-2.749,0.527-4.197,0.627c-1.446,0.089-2.879,0.145-4.291,0.145h-23.061v-10.036
		h23.061c1.154,0,2.378-0.092,3.663-0.283c1.479-0.317,2.396-0.826,2.751-1.526c0.352-0.695,0.594-1.71,0.722-3.038
		c0-0.32,0.017-0.608,0.05-0.857c0.032-0.25,0.08-0.541,0.144-0.859c-2.442,0-4.905,0.018-7.377,0.051
		c-2.479,0.032-4.942-0.016-7.383-0.141c-3.538-0.192-6.596-1.128-9.167-2.806c-2.572-1.677-4.403-4.25-5.5-7.732
		c-0.514-1.482-0.805-3.013-0.868-4.592c-0.064-1.582-0.096-3.145-0.096-4.691v-27.165h12.928v24.985
		c0,1.29,0.032,2.626,0.099,4.008c0.062,1.382,0.257,2.718,0.579,4c0.45,1.547,1.202,2.592,2.267,3.138
		c1.061,0.546,2.33,0.818,3.812,0.818h10.707v-36.95h12.927v46.021C324.121,266.271,323.835,268.585,323.254,270.776"/>
	<path fill="#FFFFFF" d="M352.102,264.794c-5.789,0-9.972-1.642-12.545-4.918c-2.571-3.283-3.858-7.655-3.858-13.129v-28.938h12.931
		v30.196c0,1.997,0.53,3.615,1.59,4.87c1.06,1.253,2.622,1.882,4.681,1.882h12.155v-36.948h12.927v46.985H352.102L352.102,264.794z"
		/>
	<path fill="#FFFFFF" d="M423.012,264.794V234.4c0-2.377-0.515-4.069-1.544-5.063c-1.028-1-2.732-1.5-5.11-1.5h-11.193v36.958
		h-12.93v-46.985h25.761c6.238,0,10.79,1.463,13.654,4.392c2.859,2.926,4.29,7.508,4.29,13.746v28.847H423.012L423.012,264.794z"/>
	<path fill="#FFFFFF" d="M137.955,238.851c-1.814,0-3.564,0.249-5.236,0.691c-0.209-1.378-0.537-2.75-0.981-4.114
		c-4.455-13.619-19.104-21.043-32.722-16.583c-13.617,4.455-21.763,21.678-13.776,38.646c-2.082-13.9,3.153-26.501,15.094-28.956
		c14.369-2.958,21.955,7.011,23.808,15.698c-1.984,1.818-3.621,4.013-4.771,6.486c2.537-4.192,7.486-7.038,13.175-7.038
		c8.275,0,14.984,6.02,14.984,13.448c0,7.422-6.709,13.42-14.984,13.42h-1.174h-10.6H86.786c-8.961,0-16.226-7.266-16.226-16.229
		c0-6.684,4.049-12.421,9.821-14.901c-9.318,1.982-16.321,10.228-16.321,20.137c0,11.4,9.241,20.647,20.642,20.647h42.22h4.448
		h6.585c11.337,0,20.527-9.492,20.527-20.829C158.482,248.038,149.292,238.851,137.955,238.851"/>
</g>
</svg>
