<?xml version="1.0" encoding="utf-8"?>
<!-- Generator: Adobe Illustrator 16.0.0, SVG Export Plug-In . SVG Version: 6.00 Build 0)  -->
<!DOCTYPE svg PUBLIC "-//W3C//DTD SVG 1.1//EN" "http://www.w3.org/Graphics/SVG/1.1/DTD/svg11.dtd">
<svg version="1.1" id="Layer_1" xmlns="http://www.w3.org/2000/svg" xmlns:xlink="http://www.w3.org/1999/xlink" x="0px" y="0px"
	 width="500px" height="500px" viewBox="0 0 500 500" enable-background="new 0 0 500 500" xml:space="preserve">
<g>
	<path fill="#FFFFFF" d="M118.699,287.528c35.226-23.615,143.889-64.121,271.899-18.596
		c-62.121-19.127-183.014-33.947-287.854,42.74C102.744,311.673,116.981,290.143,118.699,287.528z"/>
	<g>
		<path fill="#FFFFFF" d="M171.633,200.976c-0.19-0.756-2.266-4.529-2.266-4.529c-0.565,0-2.17-0.284-2.17-0.284
			c-1.886-1.7-6.417-0.946-6.417-0.946c-1.32,0.851-2.171,0.664-2.171,0.664l0.097-2.078c0.565-0.375,0.849-1.412,0.849-1.412
			l-2.357-3.115c-1.323-1.883-2.454-0.377-2.454-0.377c-1.981,3.302-2.55,7.928-2.55,7.928h-3.302
			c-5.943,0.472-8.959,3.018-8.959,3.018c-4.25,0.19-7.928,0.756-7.928,0.756c-6.796,2.644-8.961,1.416-8.961,1.416
			c-2.265,0.563-2.454,3.111-2.454,3.111c-0.664-1.602-3.587-3.49-3.587-3.49l-1.413,0.942l-0.188,2.26
			c-0.661,2.362-4.344,7.457-4.344,7.457c-2.925,5.569-5.377,6.792-5.377,6.792l-0.662,7.831c-1.319,2.641-3.3,9.625-3.3,9.625
			c-1.888,7.545-2.266,6.224-2.266,6.224c-1.886,3.398-0.375,8.678-0.375,8.678c2.074,1.706,4.412,3.966,4.412,3.966
			c0.783,2.26,3.406,0.53,3.406,0.53c1.172-0.314,2.879-0.637,2.879-0.637c0.531-0.32,0.719-2.441,0.719-2.441
			c0.843-1.603,2.359-4.527,2.359-4.527c0.942-0.374,1.224-1.13,1.224-1.13c-0.754-1.979-0.474-3.681-0.474-3.681
			c1.226-0.946,1.136-1.98,1.136-1.98c1.413-0.945,1.413-2.737,1.413-2.737c1.419-2.267,6.322-5.658,6.322-5.658
			c2.356-0.753,3.396-1.701,3.396-1.701c7.737-4.814,18.021-8.771,18.021-8.771c4.249-2.737,4.623-1.227,4.623-1.227
			c0.282,2.639,0.566,24.625,0.566,24.625c-0.851,2.925,0.754,7.166,0.754,7.166c1.605,8.872,2.269,17.74,2.269,17.74
			c1.319,2.266,2.357,0.757,2.357,0.757c1.412-0.472,1.412-1.322,1.412-1.322c-1.13-4.058-1.412-9.623-1.412-9.623
			c-0.378-5.189-0.66-6.794-0.66-6.794c-0.948-3.962-1.04-8.87-1.04-8.87c1.04-3.112,0.283-6.507,0.283-6.507
			c-0.944-5.661-0.378-8.402-0.378-8.965c0-0.564,0.472-1.227,0.472-1.227v-2.263c0-1.981,0.38-1.698,0.38-1.698
			c0-1.418,0.472-3.962,0.472-3.962c2.263-1.323,5.09-3.302,5.09-3.302l0.097-2.356c0.377-0.474,4.248-2.833,4.248-2.833
			c5.469-2.926,8.485-7.456,8.485-7.456L171.633,200.976L171.633,200.976z M150.595,206.448l-0.569,3.302
			c-2.075,3.869-6.515,5.188-6.515,5.188c-9.902,2.266-14.243,6.981-14.243,6.981c-5.095,4.153-11.415,6.604-11.415,6.604
			c-0.375-2.547,1.979-6.979,1.979-6.979c0.947-0.188,5.002-3.776,5.002-3.776l1.608-0.657l1.033-1.794
			c3.02-2.076,7.172-5.852,7.172-5.852l2.358-0.47l1.134-0.663c2.542-1.412,8.866-3.11,8.866-3.11
			C151.44,204.281,150.595,206.448,150.595,206.448L150.595,206.448z M161.82,204.654l-2.551,0.185l-2.637,2.55h-1.042v-3.02
			c0,0-0.186-1.317,1.891-1.698c1.496-0.27,6.985-0.281,6.985-0.281S163.988,203.997,161.82,204.654L161.82,204.654z"/>
		<path fill="#FFFFFF" d="M227.913,218.875l-0.854-2.029l-2.767-1.168c0,0-1.594,0.213-1.918,0
			c-0.319-0.217-3.512-3.733-14.592-7.03l-1.383-0.853l-1.177-0.426l-0.318-1.065l2.022-1.814c0,0,2.134-1.492-0.424-4.685
			l-1.598-2.131c0,0-1.277-0.107-2.556,1.7l-2.771,3.944l-1.384,0.213l-0.961,0.958l-1.375,3.089c0,0-6.509,6.713-10.234,8.95
			c0,0-2.665,3.303-4.688,5.326l-2.658,3.09l-0.753,0.854c0,0-1.277,0.213-1.809-0.215c-0.533-0.427-1.277-0.213-1.277-0.213
			l-2.662,6.39l-0.319,1.063l-0.75,0.641l-0.208,1.068l-0.112,2.771l1.07,1.277h1.913l1.069-0.855l0.635-1.706l8.42-8.091
			l2.023-1.708l10.975-12.037c0,0,2.125-0.743,2.551-0.96c0.434-0.211,3.832-1.063,7.249,1.174l6.073,4.685
			c0,0,2.662,2.343-0.747,2.557l-9.374,0.11l-3.304-2.454c0,0-2.022-1.279-3.41,1.705v1.49l1.067,2.453l0.318,1.067l0.106,5.537
			c0,0-2.44,0.103-3.336,0.191c-0.902,0.088-1.71,0.088-3.423,0.631c-1.709,0.539-3.783,2.802-3.783,2.802s-3.305,3.725-4.478,7.029
			l0.321,6.283c0,0,0.744,4.048,3.301,5.861c0,0,1.708,2.343,6.815,1.17l7.883-2.661c0,0,1.921-0.217,2.666-0.43
			c0.745-0.206,1.702-0.742,2.234-0.847c0.533-0.107,2.133-1.175,2.133-1.175s4.683-0.534,6.708-0.107l0.215,0.965
			c0,0,0.421,0.21,2.664-1.177c0,0,2.235-1.705,2.235-2.129c0-0.428-0.315-1.599-0.315-1.599l-3.625-3.729l-3.517,0.85l-2.873,1.493
			l-2.876,0.637c0,0-1.17,1.281-1.492,1.281c-0.321,0-3.623,0.11-3.623,0.11s-0.852-1.073,1.387-3.094c0,0,0.745,0.534,0.854-3.622
			c0,0,1.168-2.979,6.28-4.895c0,0,3.091-0.431,3.303-2.563l-2.982-4.046c0,0-1.705-0.96-2.449,1.81l-2.027,0.961l-0.85,0.533
			h-2.129c0,0-0.855-2.237-1.281-4.689l-0.426-1.703c0,0,4.479-0.746,5.966,0.212h6.709l1.814,1.28l0.743,0.211l1.92-0.854
			c0,0,0.639,0.216,1.598,0.216c0.955,0,1.6-0.533,1.6-0.533l0.744-0.638l4.686-0.428c0,0,2.028,0.746,3.089-1.491
			C229.405,223.664,230.152,221.319,227.913,218.875L227.913,218.875z M196.278,238.366l-1.392,4.364c0,0-0.741,2.238-0.104,4.688
			c0,0,1.281,2.665-2.447,2.235c0,0-1.387,0.11-2.662,0.535c0,0-1.71,0.855-2.88-2.554c0,0-2.237-5.86,1.063-9.487
			c0.534-0.423,3.304-1.275,3.945-3.085h4.476V238.366L196.278,238.366z"/>
		<path fill="#FFFFFF" d="M255.396,207.123c0,0-2.259,1.19-4.517-1.31c0,0-1.552-1.784,2.26-4.518l3.569-2.38
			c0,0-0.122-1.907,2.619-3.095c0,0,7.732-2.854,11.062-2.137c0,0,4.872,5.947,1.545,8.086c0,0-1.545,2.498-3.569,0.833
			c0,0-0.952-1.902-1.788,0.952l-2.496,1.072l-1.303,1.068c0,0-1.313,0.595-1.789-1.545
			C260.99,204.15,256.828,204.39,255.396,207.123L255.396,207.123z"/>
		<path fill="#FFFFFF" d="M300.123,226.631c0,0,0.717-2.617-6.302-3.093l-2.502-0.237l-0.231-3.332c0,0-0.836-3.329-2.855-1.069
			l-0.239,4.282l-3.452,0.475l-1.306,1.191c0,0-0.714,0.356-1.071,0.356c-0.356,0-2.97,0-2.97,0s-3.459-3.809-4.641-0.832
			c0,0,0.598,2.019-2.266,4.758l-4.874,5.947l-0.949,0.715l-0.719,1.546l-1.305,1.545c0,0-1.661,2.018-1.31-1.67
			c0,0,2.024-6.061,6.067-8.796c0,0,2.143-1.669-0.36-5.591c0,0-0.354-1.788-4.043-0.362l0.116-5.589l2.979-2.258
			c0,0,3.212-2.976,6.064-3.81c0,0,1.308-0.95-0.354-3.21l-2.378-3.212c0,0-0.833-0.118-3.213,2.142l-2.384,1.667l-0.715,0.592
			l-1.539-0.835c0,0-1.434-3.088-3.094,0.958l0.116,2.02c0,0,0.479,1.429-7.612,2.974c0,0-4.162,2.497-5.589,3.327
			c0,0-5.95,3.924-12.372,3.214c0,0-4.402,0.951-1.547,3.212c0,0,1.31,3.804,6.19,2.974c0,0,5.351,0.238,9.631-2.854l3.687-2.497
			c0,0,2.615-2.262,1.429,0.592l-3.805,5.949c0,0-2.147,3.568-0.836,5.949l1.546,2.26c0,0,2.14,1.781,3.926-1.072
			c0,0,1.906-1.188,2.258-1.188c0.359,0-1.663,3.804-1.663,3.804l-0.114,4.637l1.426,2.264l0.352,1.782l1.784,3.688
			c0,0,0.479,3.328,4.048,0.595l0.95-2.734c0,0,0.958-1.188,1.074-1.789c0.113-0.592,0.239-1.902,0.239-1.902l9.867-12.369
			l0.833-1.785c0,0,0.356-1.072,2.741,0l2.612,0.354l0.358,2.616l-0.358,0.716v1.9l0.477,0.835l-0.118,1.308l-1.066,1.311
			l-0.596,2.139c0,0-2.148,3.092,1.903,3.69c0,0,1.188,0.472,2.613-1.787c0,0,1.31-1.426,3.447,0.596l3.098,1.546
			c0,0,1.667,1.186,4.042-2.977C295.248,242.211,302.146,233.887,300.123,226.631L300.123,226.631z M256.709,227.224
			c-0.239-1.069,0.834-2.26,0.834-2.26C258.854,227.821,256.709,227.224,256.709,227.224L256.709,227.224z M258.967,234.362
			c-1.188-1.547,0.479-2.021,0.479-2.021C261.109,234.125,258.967,234.362,258.967,234.362L258.967,234.362z M261.226,224.253
			c-2.852-3.449,0.475-4.402,0.475-4.402C261.939,221.872,261.226,224.253,261.226,224.253L261.226,224.253z M295.248,232.461
			l-2.143,3.684l-0.713,1.31l-1.665,1.548c0,0-2.023,1.184-4.157-1.072c0,0-0.241-2.38,0.71-2.974c0,0,0-2.022,0.712-2.855
			l1.43-3.095c0,0,3.33-1.305,3.809,0.239l2.971-0.117C296.201,229.129,297.392,229.721,295.248,232.461L295.248,232.461z"/>
		<path fill="#FFFFFF" d="M375.659,218.423c-1.666-3.686-4.872-5.474-4.872-5.474h-5.235c-6.424,0.599-12.727,2.854-12.727,2.854
			c-3.452,0.36-0.598-2.734-0.598-2.734c2.26-1.425,3.807-5.829,3.807-5.829c1.666-4.399-2.026-6.783-2.026-6.783
			c-1.78-1.901-2.73-0.114-2.73-0.114l-2.025,1.782c-2.973,3.69-3.922,7.853-3.922,7.853c-1.43,3.453-2.023,4.042-2.023,4.042
			l-4.402-0.235c-3.689,0.357-5.828,0.357-5.828,0.357c-2.14-1.074-5.827-0.595-5.827-0.595l-4.876,1.19
			c-3.57,1.305-6.306,1.065-6.306,1.065c-8.096,0.122-3.808,4.642-3.808,4.642c1.9,4.994,6.78,2.382,6.78,2.382l8.446-1.788
			c3.684-0.234,8.446-1.07,8.446-1.07l3.924-0.474l-0.597,2.261l-12.135,15.222l-2.97,2.738c-3.684,0.472-4.639,2.02-4.639,2.02
			c-2.615,3.811-3.688,2.976-3.688,2.976c-6.544-1.312-4.639,2.023-4.639,2.023c0.948,4.162,5.948,5.113,5.948,5.113
			c7.731,2.616,7.376-0.598,7.376-0.598c0.834-1.663,3.09-4.282,3.09-4.282l2.498-3.21l8.685-11.655
			c1.667-3.567,2.737-3.686,2.737-3.686l0.239,7.967c0.83,5.351,4.995,8.091,4.995,8.091c4.753,4.16,5.586,0.951,5.586,0.951
			l4.283-3.927l3.81-4.044c1.065-1.545,2.727-2.262,2.727-2.262l3.936-4.404l1.543-0.947c3.926-5.708,5.945-6.423,5.945-6.423
			C377.563,221.396,375.659,218.423,375.659,218.423L375.659,218.423z M368.649,222.475l-13.607,14.828l-2.656,1.879
			c0,0-4.314,2.877-6.306-2.988c0,0-1.66-4.316-0.891-10.511l0.446-3.209c0,0-0.995-3.542,2.768-0.998c0,0,2.764,0.442,4.536,0.998
			c0,0,1.216,1.659,6.078-0.443c0,0,6.534-3.321,9.632-1.66C368.649,220.373,369.761,221.254,368.649,222.475L368.649,222.475z"/>
	</g>
	<g>
		<path fill="#FFFFFF" d="M395.166,200.981c-3.488,0-6.327-2.841-6.327-6.329s2.839-6.325,6.327-6.325
			c3.49,0,6.328,2.836,6.328,6.325S398.656,200.981,395.166,200.981 M395.166,189.185c-3.017,0-5.471,2.455-5.471,5.468
			c0,3.016,2.454,5.471,5.471,5.471c3.016,0,5.469-2.455,5.469-5.471C400.635,191.639,398.182,189.185,395.166,189.185"/>
		<path fill="#FFFFFF" d="M397.202,191.086c0.274,0.119,0.51,0.294,0.7,0.526c0.162,0.191,0.288,0.402,0.382,0.632
			c0.095,0.232,0.136,0.496,0.136,0.792c0,0.356-0.09,0.708-0.267,1.054c-0.184,0.346-0.479,0.588-0.894,0.734
			c0.346,0.137,0.594,0.336,0.737,0.591c0.146,0.257,0.218,0.649,0.218,1.176v0.505c0,0.342,0.019,0.578,0.04,0.699
			c0.044,0.237,0.23,0.336,0.382,0.43v0.188h-1.777c-0.097-0.139-0.13-0.3-0.15-0.404c-0.042-0.208-0.063-0.426-0.067-0.647
			l-0.01-0.699c-0.006-0.478-0.09-0.798-0.249-0.958c-0.157-0.159-0.456-0.239-0.895-0.239h-1.536v2.948h-1.533v-7.52h3.595
			C396.528,190.904,396.923,190.968,397.202,191.086 M393.95,192.198v2.021h1.693c0.336,0,0.586-0.04,0.757-0.121
			c0.299-0.145,0.444-0.424,0.444-0.848c0-0.456-0.143-0.762-0.429-0.918c-0.164-0.089-0.407-0.135-0.729-0.135H393.95z"/>
	</g>
	<g>
		<path fill="#FFFFFF" d="M209.16,270.507c1.198,0.426,2.429,0.695,3.689,0.809c-0.088,0.231-0.185,0.449-0.291,0.653
			c0.326,0.566,0.776,1.276,1.349,2.131c0.573,0.852,1.39,1.657,2.453,2.414c1.062,0.756,2.014,1.334,2.856,1.734
			c0.842,0.397,1.509,0.644,2.003,0.736l1.6,0.349c-0.476,1.133-0.917,2.419-1.322,3.855c-0.838-0.277-1.532-0.529-2.083-0.752
			c-0.551-0.222-1.31-0.604-2.274-1.148c-0.964-0.542-1.752-1.088-2.36-1.635c-0.608-0.548-1.224-1.172-1.844-1.872
			c-0.622-0.701-1.105-1.339-1.448-1.915l-0.636-1.016c-0.528,0.696-1.197,1.545-2.003,2.548c-0.807,1.003-1.896,2.044-3.266,3.125
			c-1.371,1.08-2.307,1.772-2.805,2.074c-0.498,0.302-1.118,0.652-1.857,1.051c-0.706-1.337-1.433-2.46-2.184-3.369
			c0.909-0.287,1.884-0.698,2.923-1.231c1.04-0.534,2.146-1.366,3.313-2.499c1.168-1.132,2.005-2.118,2.513-2.958
			C207.993,272.75,208.551,271.722,209.16,270.507z M199.399,292.251l3.452,0.098h0.886v-5.638l-0.066-2.616h3.227l-0.066,2.616
			v5.638l2.698-0.029v-8.769l-0.066-3.132h3.412l-0.066,3.132v1.086h3.015l2.5-0.056v3.424l-2.5-0.069h-3.015v4.413h6.388
			l3.24-0.098v3.564l-3.24-0.099h-16.345l-3.452,0.099L199.399,292.251L199.399,292.251z"/>
		<path fill="#FFFFFF" d="M231.976,295.062l-2.778,0.1v-3.453l2.778,0.111h4.773v-4.733c-1.067,0.474-1.772,0.826-2.116,1.06
			l-0.926,0.611c-0.811-2.997-1.444-5.238-1.898-6.724c-0.454-1.484-0.832-2.622-1.129-3.41l-0.86-2.269
			c1.084-0.344,1.834-0.637,2.248-0.879l0.886-0.5c0.248,0.724,0.648,1.872,1.204,3.444c0.555,1.574,0.912,2.603,1.072,3.084
			l0.714,2.297c0.352,1.122,0.55,1.787,0.595,1.991l0.212,0.961v-12l-0.092-3.425h3.517l-0.092,3.425v17.066h2.275v-17.025
			l-0.094-3.424h3.504l-0.091,3.424v12.028c0.298-0.613,0.536-1.12,0.713-1.524c0.177-0.404,0.435-1.056,0.774-1.956
			s0.674-1.928,1.005-3.078c0.33-1.148,0.579-2.175,0.747-3.075l0.358-1.879c0.908,0.306,2.066,0.628,3.478,0.961
			c-0.38,1.522-0.714,2.761-1.007,3.717c-0.29,0.956-0.66,2.052-1.108,3.291c-0.45,1.239-0.849,2.261-1.198,3.062
			c-0.347,0.804-0.892,1.97-1.632,3.502c-0.663-0.576-1.372-1.118-2.129-1.628v3.604h4.535l3.161-0.111v3.453l-3.161-0.1H231.976
			L231.976,295.062z"/>
		<path fill="#FFFFFF" d="M261.125,274.099l2.459,0.098h5.793v-1.56l-0.066-2.199h3.293l-0.066,2.199v1.56h6.838l2.115-0.098
			l-0.079,2.436v10.859l0.079,2.728h-3.28v-0.515h-5.674v2.937c0,0.242,0.073,0.461,0.219,0.655
			c0.145,0.194,0.527,0.306,1.145,0.334l2.857,0.068c1.224,0.039,2.103,0.026,2.63-0.033c0.529-0.062,0.959-0.23,1.29-0.509
			c0.33-0.278,0.54-0.774,0.629-1.488l0.158-1.087c1.182,0.752,2.231,1.291,3.147,1.614c-0.529,1.895-0.965,3.042-1.309,3.446
			c-0.345,0.403-0.718,0.688-1.118,0.855s-1.005,0.273-1.812,0.32c-0.807,0.047-2.042,0.042-3.709-0.015
			c-1.605-0.037-2.913-0.058-3.922-0.062c-1.009-0.004-1.761-0.159-2.255-0.466c-0.492-0.307-0.802-0.649-0.925-1.031
			c-0.124-0.38-0.184-0.885-0.184-1.517v-4.022h-4.975v0.417h-3.277l0.078-2.839v-10.65L261.125,274.099z M264.403,280.487h4.974
			V277.3h-4.974V280.487z M264.403,286.571h4.974v-3.132h-4.974V286.571z M272.536,280.487h5.674V277.3h-5.674V280.487z
			 M272.536,286.571h5.674v-3.132h-5.674V286.571z"/>
		<path fill="#FFFFFF" d="M301.132,281.643c-0.097-0.222-0.19-0.419-0.284-0.591c-0.093-0.171-0.362-0.549-0.808-1.135
			c-0.443-0.584-0.812-0.969-1.104-1.155l-0.595-0.39c1.04-0.927,1.799-1.675,2.274-2.24c0.59,0.491,0.931,0.779,1.02,0.862
			l1.281,1.309c1.421-1.262,2.312-2.143,2.672-2.646l0.555-0.737h-8.463l-3.583,0.084v-3.369l3.86,0.111h11.612l1.361,2.158
			c-0.238,0.38-0.464,0.729-0.674,1.043c-0.211,0.315-0.693,0.917-1.448,1.803c-0.753,0.887-1.399,1.59-1.938,2.109
			c-0.537,0.52-1.336,1.234-2.393,2.144l0.225,0.64h6.453l3.572-0.11v3.494l-3.122-0.099h-6.309
			c0.061,0.761,0.111,1.444,0.152,2.047c0.039,0.604,0.057,1.315,0.053,2.138c-0.005,0.82-0.047,1.693-0.133,2.617
			c-0.084,0.923-0.236,1.688-0.461,2.296c-0.226,0.608-0.734,1.178-1.521,1.713c-0.789,0.533-2.327,0.833-4.609,0.897
			c-0.081-0.38-0.174-0.8-0.283-1.26c-0.111-0.459-0.268-0.936-0.472-1.427l-0.408-1.002c0.66,0.047,1.368,0.072,2.115,0.076
			c0.75,0.005,1.287-0.144,1.614-0.444c0.325-0.303,0.544-0.628,0.654-0.976s0.188-0.879,0.23-1.594
			c0.044-0.714,0.069-1.471,0.074-2.269s-0.038-1.495-0.126-2.09l-0.106-0.723h-8.186l-3.546,0.098v-3.494l3.571,0.11H301.132
			L301.132,281.643z"/>
		<path fill="#FFFFFF" d="M327.188,276.631h-2.724l-3.293,0.1v-3.092l3.293,0.099h7.365c-0.371-0.705-0.63-1.17-0.78-1.392
			l-0.621-0.92c1.243-0.565,2.222-1.057,2.937-1.475c0.767,1.234,1.22,1.977,1.361,2.227l0.596,1.114l-0.716,0.445h6.587
			l3.518-0.099v3.092l-3.492-0.1h-2.392l0.713,0.531c-0.661,1.076-1.106,1.79-1.336,2.143h2.541l2.882-0.11l-0.093,3.201v12.277
			c0,0.482-0.06,0.84-0.18,1.071c-0.118,0.231-0.386,0.465-0.798,0.696c-0.415,0.232-0.834,0.39-1.257,0.474
			c-0.425,0.083-1.227,0.144-2.407,0.182c-0.037-0.362-0.077-0.735-0.126-1.122c-0.049-0.384-0.139-0.818-0.271-1.301l-0.342-1.238
			c0.934,0.102,1.493,0.134,1.679,0.097c0.256-0.037,0.414-0.104,0.476-0.201c0.061-0.098,0.092-0.351,0.092-0.76v-6.849
			c-0.501,0.64-0.798,1.04-0.885,1.197l-0.622,1.03l-0.927-0.863l-0.066,1.865v3.008l0.066,2.477l-1.745-0.069h-5.818l-2.155,0.069
			l0.065-2.254v-3.091l-0.065-2.131c-0.361,0.299-0.75,0.572-1.164,0.822c-0.316-0.649-0.512-1.034-0.582-1.155l-0.7-1.142v7.183
			l0.104,3.995h-3.477l0.091-3.827v-11.109l-0.091-2.532l2.684,0.11h2.698c-0.564-1.066-0.872-1.643-0.927-1.727l-0.356-0.459
			L327.188,276.631z M325.799,284.957c0.705-0.345,1.299-0.683,1.778-1.017c0.48-0.334,0.829-0.649,1.052-0.947l0.688-0.862h-3.519
			V284.957z M328.946,286.46l1.771,0.07h5.026l1.494-0.07c-0.282-0.269-0.514-0.484-0.693-0.646
			c-0.182-0.162-1.132-0.881-2.852-2.151c0.557-0.454,1.124-0.965,1.707-1.53h-4.841c0.53,0.463,1.106,0.892,1.732,1.28
			c-0.405,0.428-0.782,0.814-1.13,1.162C330.812,284.921,330.075,285.551,328.946,286.46z M329.767,276.631
			c0.379,0.66,0.767,1.324,1.163,1.992c-0.352,0.223-0.688,0.45-1.006,0.682h5.688c-0.239-0.176-0.494-0.361-0.767-0.557
			c0.361-0.5,0.572-0.802,0.633-0.904l0.717-1.213H329.767L329.767,276.631z M330.902,291.652h4.181v-2.423h-4.181V291.652z
			 M340.398,282.131h-4.021c2.134,1.55,3.231,2.349,3.293,2.396l0.728,0.583V282.131L340.398,282.131z"/>
		<path fill="#FFFFFF" d="M361.654,280.195c-0.478-0.511-0.84-0.925-1.092-1.246c-0.252-0.32-0.66-0.915-1.223-1.787
			c-1.155,1.244-1.875,1.976-2.156,2.198l-0.728,0.599c-0.839-0.956-1.625-1.777-2.368-2.465c1.254-0.769,2.353-1.725,3.302-2.865
			c0.946-1.144,1.628-2.362,2.041-3.661l0.277-0.837c0.873,0.278,2.068,0.58,3.585,0.906c-0.256,0.547-0.528,1.057-0.821,1.53
			l8.914,0.014l1.111,2.129c-0.662,1.104-1.306,2.025-1.931,2.758c-0.627,0.733-1.199,1.309-1.719,1.727l-1.654,1.363
			c1.322,0.631,2.34,1.038,3.05,1.218c0.709,0.182,1.473,0.319,2.293,0.411c0.821,0.093,2.041,0.075,3.664-0.055
			c-0.246,0.992-0.384,1.661-0.41,2.005l-0.159,1.655c-1.4-0.046-2.822-0.174-4.258-0.383c-1.438-0.209-2.726-0.604-3.869-1.183
			c-1.141-0.58-2.227-1.2-3.259-1.858c-1.869,1.02-3.581,1.748-5.138,2.186c-1.556,0.436-3.569,0.882-6.038,1.335
			c-0.069-0.427-0.13-0.746-0.185-0.96l-0.516-1.435l-0.369-1.03c0.563-0.008,1.564-0.055,3.002-0.138
			C356.438,282.242,358.656,281.532,361.654,280.195z M354.922,289.286v-3.16l2.05,0.098h4.827c0.096-0.715,0.15-1.141,0.16-1.281
			l0.105-1.448c0.784,0.158,1.92,0.325,3.41,0.502c-0.106,0.753-0.211,1.494-0.316,2.229h5.726l1.918-0.07l-0.054,2.866
			c0.035,1.662-0.018,2.993-0.157,3.996c-0.144,1.003-0.435,1.766-0.881,2.29c-0.444,0.524-1.047,0.912-1.806,1.164
			c-0.758,0.249-2.035,0.449-3.835,0.597c-0.034-0.38-0.084-0.777-0.145-1.189c-0.062-0.414-0.159-0.829-0.291-1.247l-0.41-1.267
			c0.546,0.103,0.975,0.16,1.282,0.174c0.309,0.015,0.748-0.032,1.316-0.139c0.569-0.106,0.998-0.336,1.282-0.689
			c0.288-0.353,0.417-1.016,0.39-1.99l-0.039-1.49h-5.025c-0.318,0.726-0.695,1.485-1.137,2.284
			c-0.441,0.798-1.371,1.751-2.791,2.861c-1.419,1.108-3.54,1.95-6.361,2.526c-0.097-0.335-0.216-0.716-0.355-1.143
			c-0.144-0.427-0.495-1.169-1.06-2.227c2.434-0.037,4.272-0.521,5.516-1.447c1.243-0.928,2.133-1.88,2.671-2.854h-4.034
			L354.922,289.286z M367.908,275.561h-6.043c0.784,1.197,1.352,1.954,1.706,2.27l0.833,0.793c0.598-0.362,1.117-0.708,1.554-1.036
			C366.395,277.257,367.044,276.581,367.908,275.561z"/>
	</g>
</g>
</svg>
