<?xml version="1.0" encoding="utf-8"?>
<!-- Generator: Adobe Illustrator 16.0.0, SVG Export Plug-In . SVG Version: 6.00 Build 0)  -->
<!DOCTYPE svg PUBLIC "-//W3C//DTD SVG 1.1//EN" "http://www.w3.org/Graphics/SVG/1.1/DTD/svg11.dtd">
<svg version="1.1" id="Layer_1" xmlns="http://www.w3.org/2000/svg" xmlns:xlink="http://www.w3.org/1999/xlink" x="0px" y="0px"
	 width="500px" height="500px" viewBox="0 0 500 500" enable-background="new 0 0 500 500" xml:space="preserve">
<g>
	<path fill="#FFFFFF" d="M395.19,223.166h-42.815c-1.349,0-2.438-1.094-2.438-2.439c0-1.346,1.09-2.439,2.438-2.439h42.815
		c1.344,0,2.437,1.093,2.437,2.439C397.627,222.072,396.534,223.166,395.19,223.166"/>
	<path fill="#FFFFFF" d="M394.779,296.064h-44.148c-1.344,0-2.436-1.096-2.436-2.441c0-1.344,1.092-2.437,2.436-2.437h44.052
		c1.631-0.143,21.744-2.318,21.744-23.365c0-21.323-23.513-21.641-24.515-21.644h-50.169c-1.345,0-2.438-1.095-2.438-2.439
		c0-1.347,1.092-2.439,2.438-2.439h50.171c10.163,0,29.391,5.544,29.391,26.521c0,26.054-26.088,28.214-26.348,28.232
		C394.901,296.06,394.838,296.064,394.779,296.064"/>
	<path fill="#FFFFFF" d="M319.668,296.064h-26.377c-1.35,0-2.439-1.096-2.439-2.441c0-1.344,1.09-2.437,2.439-2.437h23.935v-84.145
		c0-1.346,1.094-2.439,2.442-2.439c1.344,0,2.439,1.093,2.439,2.439v86.582C322.106,294.969,321.012,296.064,319.668,296.064"/>
	<path fill="#FFFFFF" d="M213.491,243.31c-1.347,0-2.438-1.093-2.438-2.439v-33.828c0-1.348,1.09-2.441,2.438-2.441
		c1.348,0,2.439,1.093,2.439,2.441v33.828C215.93,242.217,214.839,243.31,213.491,243.31"/>
	<path fill="#FFFFFF" d="M173.353,296.064c-0.535,0-1.075-0.177-1.523-0.536c-1.05-0.84-1.22-2.377-0.38-3.429l40.138-50.172
		c0.45-0.563,1.129-0.896,1.85-0.912c0.73-0.016,1.41,0.286,1.889,0.824l43.005,49.031c0.887,1.012,0.788,2.551-0.229,3.437
		c-1.012,0.891-2.55,0.789-3.441-0.222l-41.081-46.839l-38.327,47.903C174.776,295.751,174.065,296.064,173.353,296.064"/>
	<path fill="#FFFFFF" d="M266.909,294.914c-0.496,0-0.994-0.148-1.426-0.459c-1.087-0.793-1.337-2.317-0.542-3.408l28.67-39.563
		c0.789-1.092,2.311-1.338,3.401-0.543c1.093,0.788,1.333,2.313,0.548,3.402l-28.673,39.564
		C268.412,294.566,267.666,294.914,266.909,294.914"/>
	<path fill="#FFFFFF" d="M348.623,282.729c-0.622,0-1.247-0.237-1.721-0.712c-0.953-0.955-0.953-2.497,0-3.452l23.223-23.223
		c0.949-0.948,2.492-0.948,3.444,0c0.951,0.956,0.951,2.497,0,3.45l-23.223,23.225C349.873,282.493,349.25,282.729,348.623,282.729"
		/>
	<path fill="#FFFFFF" d="M369.195,282.729c-0.623,0-1.25-0.237-1.723-0.712c-0.955-0.955-0.955-2.497,0-3.452l23.221-23.223
		c0.951-0.948,2.495-0.948,3.446,0c0.953,0.956,0.953,2.497,0,3.45l-23.221,23.225C370.443,282.493,369.818,282.729,369.195,282.729
		"/>
	<path fill="#FFFFFF" d="M399.943,236.851h-47.591c-5.141,0-9.32-4.184-9.32-9.321v-13.607c0-5.138,4.182-9.32,9.32-9.32h47.591
		c5.139,0,9.318,4.182,9.318,9.32v13.607C409.262,232.667,405.082,236.851,399.943,236.851 M352.351,209.479
		c-2.449,0-4.44,1.992-4.44,4.443v13.607c0,2.451,1.991,4.443,4.44,4.443h47.593c2.451,0,4.444-1.992,4.444-4.443v-13.607
		c0-2.451-1.993-4.443-4.444-4.443H352.351z"/>
	<path fill="#FFFFFF" d="M331.993,236.851H257.74c-1.348,0-2.438-1.093-2.438-2.44c0-1.345,1.091-2.438,2.438-2.438h74.253
		c1.351,0,2.44,1.092,2.44,2.438C334.434,235.758,333.344,236.851,331.993,236.851"/>
	<path fill="#FFFFFF" d="M142.388,278.449c-4.957,2.963-10.751,4.664-16.945,4.664c-18.286,0-33.113-14.824-33.113-33.114
		c0-18.288,14.827-33.111,33.113-33.111c16.992,0,30.984,12.797,32.887,29.277l13.556-1.461
		c-2.634-23.325-22.417-41.454-46.443-41.454c-25.817,0-46.748,20.933-46.748,46.748c0,25.816,20.931,46.751,46.748,46.751
		c9.061,0,17.51-2.586,24.672-7.046L142.388,278.449z"/>
	<path fill="#FFFFFF" d="M142.388,278.449c9.682-5.778,16.17-16.355,16.17-28.45c0-1.295-0.083-2.573-0.228-3.833l-35.485,3.833
		L142.388,278.449z"/>
</g>
</svg>
