<?xml version="1.0" encoding="utf-8"?>
<!-- Generator: Adobe Illustrator 16.0.0, SVG Export Plug-In . SVG Version: 6.00 Build 0)  -->
<!DOCTYPE svg PUBLIC "-//W3C//DTD SVG 1.1//EN" "http://www.w3.org/Graphics/SVG/1.1/DTD/svg11.dtd">
<svg version="1.1" id="Layer_1" xmlns="http://www.w3.org/2000/svg" xmlns:xlink="http://www.w3.org/1999/xlink" x="0px" y="0px"
	 width="500px" height="500px" viewBox="0 0 500 500" enable-background="new 0 0 500 500" xml:space="preserve">
<g>
	<path fill="#FFFFFF" d="M175.76,202.081c-6.568-5.716-11.177-7.182-17.389-8.055c-5.028-0.706-10.69-0.76-17.347-0.76h-20.211
		c0,0-12.358-0.522-18.785,1.41c-4.351,1.321-13.155,5.874-16.656,13.543c-3.501,7.672-3.833,14.522-4.179,19.947
		c-0.333,5.418-2.053,39.978-2.053,39.978s-0.937,14.457,10.044,21.974c0,0,7.344,5.932,25.642,5.932h9.092
		c0,0,1.829-0.445,1.364,1.874c-0.46,2.319-1.834,6.107-1.834,6.107s-0.686,1.618,0,2.242c0.69,0.633,0.939,0.646,3.707,0.291
		c9.284-1.21,22.445-3.615,35.585-10.777c12.587-6.859,18.873-16.238,19.998-27.764l2.304-39.771
		C185.041,228.251,186.411,211.338,175.76,202.081z M131.99,282.914v0.106c-19.053-0.008-34.497-15.206-34.497-33.956
		c0-17.19,12.986-31.388,29.832-33.635V202.45l22.338,18.045l-22.338,17.158v-12.108c-11.181,2.182-19.622,12.024-19.622,23.842
		c0,13.181,10.495,23.9,23.583,24.278c0.23-0.034,0.464-0.058,0.704-0.058c2.57,0,4.653,2.083,4.653,4.652
		C136.643,280.83,134.56,282.914,131.99,282.914z M146.705,278.26c-2.095,0-3.793-1.698-3.793-3.793
		c0-2.096,1.698-3.792,3.793-3.792c2.094,0,3.792,1.697,3.792,3.792S148.799,278.26,146.705,278.26z M157.448,267.027
		c-1.542,0-2.793-1.249-2.793-2.791c0-1.541,1.251-2.794,2.793-2.794c1.542,0,2.792,1.253,2.792,2.794
		C160.24,265.778,158.989,267.027,157.448,267.027z M161.559,251.326c-0.96,0-1.74-0.781-1.74-1.741c0-0.96,0.78-1.74,1.74-1.74
		c0.961,0,1.74,0.78,1.74,1.74C163.299,250.546,162.52,251.326,161.559,251.326z"/>
	<path fill="#FFFFFF" d="M147.209,222.38L147.209,222.38l-19.885,15.272v-12.106c-11.181,2.18-19.621,12.021-19.621,23.84
		c0,2.196,0.297,4.323,0.844,6.346c-0.377-3.073-0.246-6.593,0.922-10.367c3.832-12.393,15.573-15.9,15.573-15.9v12.923
		l24.061-18.479L147.209,222.38z"/>
	<path fill="#FFFFFF" d="M222.368,210.185h8.562l0.239-4.071l0.096-1.622l0.19-3.249h-3.472h-3.964h-7.438l-0.179,3.036
		c-0.089,1.512,0.437,3.026,1.605,4.175C219.17,209.609,220.754,210.185,222.368,210.185"/>
	<path fill="#FFFFFF" d="M221.11,231.582h8.563l0.239-4.069l0.097-1.625l0.188-3.249h-3.472h-3.965h-7.437l-0.18,3.039
		c-0.09,1.511,0.438,3.025,1.605,4.177C217.913,231.005,219.496,231.582,221.11,231.582"/>
	<path fill="#FFFFFF" d="M273.18,205.316l10.843,0.006l0.481-8.201l-14.918-0.005l-0.248,4.215c-0.06,1.021,0.279,2.039,1.028,2.819
		C271.118,204.931,272.134,205.316,273.18,205.316"/>
	<path fill="#FFFFFF" d="M223.049,284.675c3.871-6.27,4.629-19.135,5.041-26.171c0.027-0.46,0.839-14.277,0.839-14.277h-11.888
		c0,0-1.497,25.48-1.638,27.874c-0.753,12.814-6.486,14.54-6.486,14.54l-0.571,9.7C215.15,295.115,220.516,288.776,223.049,284.675"
		/>
	<path fill="#FFFFFF" d="M310.508,240.921l1.384-23.513l0.517-8.756h-62.289c-11.07,0.013-11.892,7.93-11.943,8.697
		c-1.058,17.995-3.11,52.901-3.218,54.751c-0.72,12.252-7.127,14.54-7.127,14.54l-0.572,9.7c6.804-1.225,12.398-7.775,14.927-11.872
		c3.874-6.274,4.632-19.137,5.043-26.17c0.009-0.153,0.11-1.886,0.566-9.628h46.521h1.089h0.835h4.815
		C310.099,248.67,310.547,242.544,310.508,240.921 M299.446,240.531h-2.728h-0.833h-47.611c0.477-8.111,0.991-16.848,1.358-23.123
		h53.308l-1.238,21.068h-0.048C301.526,240.672,299.446,240.531,299.446,240.531"/>
	<path fill="#FFFFFF" d="M330.792,210.287h8.563l0.239-4.07l0.096-1.622l0.189-3.249h-3.471h-3.968h-7.435l-0.18,3.036
		c-0.089,1.512,0.44,3.026,1.604,4.175C327.597,209.711,329.176,210.287,330.792,210.287"/>
	<polygon fill="#FFFFFF" points="418.945,296.484 419.462,287.727 385.42,287.727 389.972,210.287 420.366,210.287 420.879,201.599 
		349.083,201.599 348.568,210.287 378.324,210.287 373.773,287.727 340.375,287.727 339.86,296.484 373.26,296.484 384.907,296.484 
			"/>
	<path fill="#FFFFFF" d="M331.406,284.571c3.872-6.272,4.616-18.927,5.03-25.963c0.024-0.463,0.839-14.278,0.839-14.278h-11.889
		c0,0-1.486,25.267-1.626,27.661c-0.804,13.682-6.488,14.545-6.488,14.545l-0.583,9.906
		C323.493,295.218,328.87,288.67,331.406,284.571"/>
	<path fill="#FFFFFF" d="M329.535,231.683h8.563l0.239-4.069l0.096-1.624l0.191-3.25h-3.475h-3.965h-7.438l-0.178,3.04
		c-0.089,1.511,0.438,3.024,1.601,4.176C326.34,231.107,327.919,231.683,329.535,231.683"/>
</g>
</svg>
