<?xml version="1.0" encoding="utf-8"?>
<!-- Generator: Adobe Illustrator 16.0.0, SVG Export Plug-In . SVG Version: 6.00 Build 0)  -->
<!DOCTYPE svg PUBLIC "-//W3C//DTD SVG 1.1//EN" "http://www.w3.org/Graphics/SVG/1.1/DTD/svg11.dtd">
<svg version="1.1" id="Layer_1" xmlns="http://www.w3.org/2000/svg" xmlns:xlink="http://www.w3.org/1999/xlink" x="0px" y="0px"
	 width="500px" height="500px" viewBox="0 0 500 500" enable-background="new 0 0 500 500" xml:space="preserve">
<path fill="#FFFFFF" d="M125.812,221.667h-10.78c-1.117,0-2.023,0.896-2.023,2.002v10.822c0,1.106,0.906,2.002,2.023,2.002h10.78
	c1.117,0,2.023-0.896,2.023-2.002v-10.822C127.835,222.563,126.929,221.667,125.812,221.667 M271.819,247.898h108.085
	c0.616,0,1.116-0.5,1.116-1.117V188.57c0-0.617-0.5-1.118-1.116-1.118H271.819c-1.103,0-1.996,0.894-1.996,1.997v10.834
	c0,1.102,0.894,1.996,1.996,1.996h86.146c0.072,0.006,0.144,0.015,0.22,0.015h6.893c0.616,0,1.115,0.5,1.115,1.117v5.721
	c0,0.617-0.499,1.117-1.115,1.117h-6.893c-0.076,0-0.147,0.008-0.22,0.014h-74.742c-1.103,0-1.996,0.894-1.996,1.997v10.834
	c0,1.103,0.894,1.996,1.996,1.996h74.742c0.072,0.006,0.144,0.015,0.22,0.015h6.893c0.616,0,1.115,0.499,1.115,1.116v5.721
	c0,0.617-0.499,1.117-1.115,1.117h-6.893c-0.076,0-0.147,0.009-0.22,0.014h-86.146c-1.103,0-1.996,0.894-1.996,1.996v10.834
	C269.823,247.005,270.717,247.898,271.819,247.898 M125.839,243.337h-10.834c-1.102,0-1.996,0.894-1.996,1.996v75.482
	c0,0.084,0.007,0.167,0.022,0.249c0.092,0.505,0.525,2.105,2.219,0.978l11.051-7.37c0.956-0.639,1.534-1.732,1.534-2.907v-66.431
	C127.835,244.23,126.941,243.337,125.839,243.337 M120.275,212.473l5.932-10.193h13.602v9.979c0,1.102,0.895,1.995,1.997,1.995
	h10.835c1.102,0,1.995-0.894,1.995-1.995v-9.979h13.971c1.103,0,1.996-0.894,1.996-1.996V189.45c0-1.103-0.894-1.997-1.996-1.997
	h-33.771l1.598-2.747c0.525-0.902,0.213-2.055-0.697-2.576l-9.719-5.562c-0.911-0.521-2.074-0.211-2.598,0.69l-16.158,27.767
	c-0.524,0.902-0.213,2.056,0.697,2.576l9.72,5.561C118.588,213.684,119.751,213.375,120.275,212.473 M234.754,187.453h-33.771
	l1.599-2.747c0.524-0.902,0.213-2.055-0.696-2.576l-9.721-5.562c-0.91-0.52-2.073-0.211-2.598,0.691l-16.159,27.766
	c-0.524,0.902-0.213,2.056,0.697,2.577l9.72,5.561c0.91,0.521,2.073,0.212,2.598-0.69l5.932-10.193h13.603v9.979
	c0,1.101,0.893,1.995,1.996,1.995h10.834c1.103,0,1.995-0.894,1.995-1.995v-9.979h13.972c1.102,0,1.996-0.894,1.996-1.996V189.45
	C236.75,188.347,235.856,187.453,234.754,187.453 M205.958,300.36v-54.458c0-1.103-0.895-1.996-1.996-1.996h-62.156
	c-1.102,0-1.997,0.894-1.997,1.996v54.458c0,0.629,0.511,1.141,1.142,1.141h63.866C205.447,301.501,205.958,300.99,205.958,300.36
	 M191.131,285.534c0,0.63-0.51,1.14-1.14,1.14h-34.214c-0.63,0-1.14-0.51-1.14-1.14v-3.707c0-1.103,0.893-1.996,1.995-1.996h32.504
	c1.102,0,1.996,0.894,1.996,1.996V285.534z M191.131,264.436c0,0.629-0.51,1.141-1.14,1.141h-34.214c-0.63,0-1.14-0.511-1.14-1.141
	v-3.707c0-1.102,0.893-1.996,1.995-1.996h32.504c1.102,0,1.996,0.895,1.996,1.996V264.436z M325.012,294.487l-18.641-11.412
	c-0.641-0.393-1.449-0.393-2.09,0l-11.524,7.069c-1.257,0.771-1.265,2.585-0.015,3.366l18.522,11.576
	c0.646,0.404,1.468,0.406,2.116,0.003l11.642-7.232C326.276,297.078,326.271,295.259,325.012,294.487 M390.999,261.014h-24.806
	v-5.42c0-1.101-0.976-1.993-2.086-1.993h-11.029c-1.111,0-1.71,0.892-1.71,1.991v5.422h-90.384c-1.102,0-1.995,0.894-1.995,1.996
	v10.835c0,1.102,0.894,1.996,1.995,1.996h82.154c0.072,0.005,0.144,0.014,0.221,0.014h6.893c0.616,0,1.116,0.5,1.116,1.117v22.248
	c0,0.384-0.235,1.51-0.571,1.71l-19.246,12.408c-0.712,0.432-0.692,1.453,0.017,1.891l12.316,8.287
	c0.364,0.224,0.834,0.224,1.198-0.003l21.111-13.932v-33.74h24.806c1.103,0,1.995-0.895,1.995-1.996V263.01
	C392.994,261.907,392.102,261.014,390.999,261.014 M231.643,221.667h-90.146c-1.068,0-1.687,0.569-1.687,1.682v11.421
	c0,1.207,0.713,1.681,1.687,1.681h75.32c0.617,0,1.116,0.499,1.116,1.113v61.656c0,0.383-0.234,1.509-0.57,1.71l-19.246,12.408
	c-0.712,0.431-0.692,1.453,0.017,1.89l12.316,8.287c0.365,0.225,0.834,0.224,1.199-0.002l21.111-13.933V222.78
	C232.758,222.166,232.258,221.667,231.643,221.667"/>
</svg>
