<?xml version="1.0" encoding="utf-8"?>
<!-- Generator: Adobe Illustrator 16.0.0, SVG Export Plug-In . SVG Version: 6.00 Build 0)  -->
<!DOCTYPE svg PUBLIC "-//W3C//DTD SVG 1.1//EN" "http://www.w3.org/Graphics/SVG/1.1/DTD/svg11.dtd">
<svg version="1.1" id="Layer_1" xmlns="http://www.w3.org/2000/svg" xmlns:xlink="http://www.w3.org/1999/xlink" x="0px" y="0px"
	 width="500px" height="500px" viewBox="0 0 500 500" enable-background="new 0 0 500 500" xml:space="preserve">
<g>
	<path fill="#FFFFFF" d="M157.548,389.544c-3.516-0.039-5.004-1.273-4.991-4.234v-28.846h35.434v19.135
		c-0.009,3.635-1.154,4.981-4.99,4.98h-12.584v-4.98h3.654c2.426,0.007,2.626-0.481,2.626-2.489v-11.912h-13.372v21.625
		c-0.002,1.797,0.594,2.489,2.363,2.488h22.302v4.233H157.548L157.548,389.544z M176.173,349.598h-11.534l-0.524,3.577h-11.557
		l1.838-10.946h31.232l2.364,10.946h-11.293L176.173,349.598z M192.217,342.229h4.967V387.8h-4.967V342.229z M201.673,389.544
		v-47.315h11.293v43.081c0,3.061-1.265,4.234-4.989,4.234H201.673z"/>
	<polygon fill="#FFFFFF" points="280.204,350.695 266.283,350.695 266.283,348.703 233.453,348.703 233.453,350.695 
		219.533,350.695 219.533,343.972 242.908,343.972 242.646,342.229 256.304,342.229 256.828,343.972 280.204,343.972 	"/>
	<path fill="#FFFFFF" d="M219.533,368.273l9.717-1.744l-9.717-1.493v-5.729l27.314,4.234l19.436-3.236
		c0.694-0.152,0.905-0.883,0.775-1.238c-0.057-0.152-0.25-0.419-0.775-0.419h-41.499c-3.504,0-5.251-1.243-5.251-3.734v-1.991
		h16.021c-0.005,1.537,0.418,1.748,2.101,1.744h42.55v6.137c0,2.292-1.243,3.831-4.728,4.481l-8.929,1.494l13.656,2.241v5.728
		l-31.256-4.98l-29.416,4.98V368.273L219.533,368.273z"/>
	<path fill="#FFFFFF" d="M280.204,375.247v10.062c0.011,2.983-1.513,4.247-5.253,4.234h-55.418v-14.297H280.204L280.204,375.247z
		 M267.072,382.821v-2.843h-34.408v5.331h31.781C266.805,385.312,267.074,384.85,267.072,382.821"/>
	<path fill="#FFFFFF" d="M295.438,389.544h-8.405l1.578-11.351h-1.578v-35.965h22.59v31.231c-0.021,3.446-1.232,4.734-4.991,4.733
		h-3.939v-31.232h-4.99v29.987h1.837L295.438,389.544z M307.782,381.823l1.84,7.721h-8.668l-1.838-7.721H307.782z M347.443,356.673
		v28.637c0.013,2.945-1.451,4.247-4.991,4.234h-29.133v-32.871h2.366v-14.444h12.605v2.489h19.152v4.733h-19.152v7.222H347.443z
		 M335.622,382.821v-21.417h-11.008v23.905h8.384C335.28,385.292,335.626,384.812,335.622,382.821"/>
	<polygon fill="#FFFFFF" points="215.804,295.855 224.055,326.113 309.11,326.113 313.909,278.435 255.44,314.67 	"/>
	<path fill="#FFFFFF" d="M323.02,244.66c-4.132-6.612-6.875-0.696-12.535-7.006c-5.658-6.309,9.586-15.854-2.957-31.075
		c-8.316-10.09-34.073-6.473-60.442,5.471c-26.367,11.944-52.83,46.629-36.544,71.685c10.257,15.782,44.979,19.68,71.685,7.028
		C308.933,278.112,329.331,254.757,323.02,244.66 M297.661,260.83c-4.707,0-8.523-3.817-8.523-8.524
		c0-4.708,3.816-8.524,8.523-8.524c4.709,0,8.524,3.816,8.524,8.524C306.186,257.013,302.37,260.83,297.661,260.83"/>
	<path fill="#FFFFFF" d="M247.085,212.05c-21.51,9.744-43.073,34.62-41.451,57.057l97.706-65.805
		C292.378,197.606,269.971,201.684,247.085,212.05"/>
	<polygon fill="#FFFFFF" points="175.174,162.062 208.667,221.331 175.424,236.56 184.944,259.244 324.826,193.54 315.013,173.849 
		294.148,184.85 264.856,110.456 	"/>
</g>
</svg>
