<?xml version="1.0" encoding="utf-8"?>
<!-- Generator: Adobe Illustrator 16.0.0, SVG Export Plug-In . SVG Version: 6.00 Build 0)  -->
<!DOCTYPE svg PUBLIC "-//W3C//DTD SVG 1.1//EN" "http://www.w3.org/Graphics/SVG/1.1/DTD/svg11.dtd">
<svg version="1.1" id="Layer_1" xmlns="http://www.w3.org/2000/svg" xmlns:xlink="http://www.w3.org/1999/xlink" x="0px" y="0px"
	 width="500px" height="500px" viewBox="0 0 500 500" enable-background="new 0 0 500 500" xml:space="preserve">
<g>
	<path fill="#FFFFFF" d="M138.861,318.108c-37.557,0-68.109-30.552-68.109-68.106c0-37.556,30.553-68.11,68.109-68.11v2.01
		c-36.447,0-66.099,29.652-66.099,66.1c0,36.446,29.651,66.096,66.099,66.096c36.446,0,66.098-29.65,66.098-66.096h2.01
		C206.969,287.557,176.417,318.108,138.861,318.108z"/>
	<path fill="#FFFFFF" d="M138.861,182.898c37.06,0,67.103,30.042,67.103,67.104h-19.651c0-26.208-21.246-47.452-47.452-47.452
		V182.898L138.861,182.898z"/>
	<path fill="#FFFFFF" d="M206.969,251.008h-21.662v-1.005c0-25.612-20.835-46.448-46.446-46.448h-1.005v-21.663h1.005
		c37.556,0,68.109,30.554,68.109,68.111L206.969,251.008L206.969,251.008z M187.308,248.998h17.644
		c-0.534-35.652-29.436-64.554-65.086-65.088v17.644C165.789,202.083,186.776,223.075,187.308,248.998z"/>
	<path fill="#FFFFFF" d="M138.859,298.461c-26.717,0-48.454-21.738-48.454-48.458s21.738-48.458,48.454-48.458
		c26.721,0,48.458,21.738,48.458,48.458S165.58,298.461,138.859,298.461z M138.859,203.555c-25.609,0-46.444,20.836-46.444,46.448
		s20.835,46.449,46.444,46.449c25.612,0,46.448-20.837,46.448-46.449C185.307,224.391,164.471,203.555,138.859,203.555z"/>
	<path fill="#FFFFFF" d="M156.701,250.002c0,9.85-7.988,17.837-17.84,17.837s-17.839-7.987-17.839-17.837
		c0-9.855,7.986-17.84,17.839-17.84C148.712,232.162,156.701,240.147,156.701,250.002"/>
	<g>
		<path fill="#FFFFFF" d="M156.701,250.002c0,9.85-7.988,17.837-17.84,17.837s-17.839-7.987-17.839-17.837
			c0-9.855,7.986-17.84,17.839-17.84C148.712,232.162,156.701,240.147,156.701,250.002z"/>
		<path fill="#FFFFFF" d="M138.861,268.845c-10.391,0-18.845-8.452-18.845-18.842c0-10.392,8.454-18.845,18.845-18.845
			s18.845,8.453,18.845,18.845C157.706,260.393,149.252,268.845,138.861,268.845z M138.861,233.168
			c-9.282,0-16.834,7.553-16.834,16.834c0,9.283,7.552,16.833,16.834,16.833c9.283,0,16.834-7.55,16.834-16.833
			C155.695,240.721,148.144,233.168,138.861,233.168z"/>
	</g>
	
		<line fill="none" stroke="#FFFFFF" stroke-width="5.6693" stroke-miterlimit="10" x1="258.465" y1="267.703" x2="258.465" y2="284.556"/>
	
		<line fill="none" stroke="#FFFFFF" stroke-width="5.6693" stroke-miterlimit="10" x1="245.2" y1="271.954" x2="245.2" y2="284.453"/>
	
		<line fill="none" stroke="#FFFFFF" stroke-width="5.6693" stroke-miterlimit="10" x1="278.41" y1="284.768" x2="236.876" y2="284.953"/>
	
		<line fill="none" stroke="#FFFFFF" stroke-width="5.6693" stroke-miterlimit="10" x1="273.065" y1="274.74" x2="258.885" y2="274.926"/>
	<path fill="none" stroke="#FFFFFF" stroke-width="5.6693" stroke-miterlimit="10" d="M242.032,288.596v15.705
		c0,1.599,1.295,2.898,2.896,2.898h25.917c1.598,0,2.893-1.3,2.893-2.898v-15.705"/>
	<path fill="none" stroke="#FFFFFF" stroke-width="5.6693" stroke-miterlimit="10" d="M258.167,286.341
		c-0.675,7.551-5.512,13.744-11.997,16.449"/>
	<path fill="none" stroke="#FFFFFF" stroke-width="5.6693" stroke-miterlimit="10" d="M269.393,303.275
		c-3.771-4.741-11.9-11.609-11.9-11.609"/>
	
		<line fill="none" stroke="#FFFFFF" stroke-width="5.6693" stroke-miterlimit="10" x1="289.805" y1="274.607" x2="304.077" y2="274.607"/>
	<path fill="none" stroke="#FFFFFF" stroke-width="5.6693" stroke-miterlimit="10" d="M296.949,267.718l-5.806,17.47
		c-0.406,1.222,0.501,2.478,1.785,2.478h10.964"/>
	
		<line fill="none" stroke="#FFFFFF" stroke-width="5.6693" stroke-miterlimit="10" x1="296.944" y1="279.064" x2="296.944" y2="307.606"/>
	<path fill="none" stroke="#FFFFFF" stroke-width="5.6693" stroke-miterlimit="10" d="M288.246,302.688
		c5.8-1.241,10.365-2.898,16.681-5.801"/>
	<path fill="none" stroke="#FFFFFF" stroke-width="5.6693" stroke-miterlimit="10" d="M304.206,280.098
		c3.838-3.334,8.973-8.473,11.399-11.232c0.75-0.849,1.966-0.839,2.707,0.02c2.967,3.438,9.712,10.37,11.384,11.213"/>
	<path fill="none" stroke="#FFFFFF" stroke-width="5.6693" stroke-miterlimit="10" d="M325.55,284.864
		c-3.938,3.524-12.278,8.708-15.594,9.64"/>
	<path fill="none" stroke="#FFFFFF" stroke-width="5.6693" stroke-miterlimit="10" d="M309.802,280.516v23.525
		c0,1.603,1.294,2.898,2.892,2.898h12.86c1.599,0,2.898-1.296,2.898-2.898v-6.737"/>
	<path fill="none" stroke="#FFFFFF" stroke-width="5.6693" stroke-miterlimit="10" d="M371.262,283.423h-23.344
		c-1.476,0-2.684-1.2-2.684-2.677v-9.616c0-1.47,1.208-2.677,2.684-2.677h22.799c1.774,0,3.228,1.445,3.228,3.222v9.071
		C373.944,282.223,372.732,283.423,371.262,283.423z"/>
	
		<line fill="none" stroke="#FFFFFF" stroke-width="5.6693" stroke-miterlimit="10" x1="345.24" y1="276.392" x2="373.939" y2="276.392"/>
	<path fill="none" stroke="#FFFFFF" stroke-width="5.6693" stroke-miterlimit="10" d="M358.794,290.464
		c-2.487,2.59-10.566,10.776-18.441,12.12"/>
	<path fill="none" stroke="#FFFFFF" stroke-width="5.6693" stroke-miterlimit="10" d="M369.987,290.464
		c-2.075,2.903-11.454,14.905-21.506,17.603"/>
	<path fill="none" stroke="#FFFFFF" stroke-width="5.6693" stroke-miterlimit="10" d="M348.172,289.527h25.237
		c1.598,0,2.898,1.3,2.898,2.898v11.615c0,1.603-1.301,2.898-2.898,2.898h-7.36"/>
	<path fill="none" stroke="#FFFFFF" stroke-width="5.6693" stroke-miterlimit="10" d="M339.317,295.234
		c5.109-3.016,8.91-6.035,13.979-10.787"/>
	<path fill="none" stroke="#FFFFFF" stroke-width="5.6693" stroke-miterlimit="10" d="M385.961,279.177
		c3.555-3.049,8.315-7.756,10.567-10.287c0.696-0.774,1.819-0.765,2.504,0.02c2.751,3.147,9.008,9.494,10.553,10.268"/>
	<path fill="none" stroke="#FFFFFF" stroke-width="5.6693" stroke-miterlimit="10" d="M394.527,293.65h6.741
		c1.6,0,2.898-1.299,2.898-2.898v-7.961c0-1.604-1.299-2.898-2.898-2.898h-8.217c-1.604,0-2.897,1.294-2.897,2.898v21.49
		c0,0.98,0.695,1.794,1.604,1.882c2.117,0.192,8.025,0.124,12.042,0.085c1.589-0.016,2.863-1.305,2.863-2.894v-4.306"/>
	
		<line fill="none" stroke="#FFFFFF" stroke-width="5.6693" stroke-miterlimit="10" x1="413.768" y1="271.93" x2="413.768" y2="298.687"/>
	<path fill="none" stroke="#FFFFFF" stroke-width="5.6693" stroke-miterlimit="10" d="M421.729,267.458v35.961
		c0,1.603-1.299,2.896-2.897,2.896h-6.119"/>
	<path fill="#FFFFFF" d="M375.679,206.963c-12.238,0.107-22.069,10.595-21.966,22.836c0.107,12.239,10.116,21.596,22.354,21.488
		c12.238-0.108,22.073-10.115,21.965-22.353C397.925,216.691,387.917,206.86,375.679,206.963 M375.871,243.292
		c-7.89,0-14.288-5.915-14.288-13.809c0-7.895,6.398-14.769,14.288-14.769c7.894,0,14.293,6.399,14.293,14.288
		C390.163,236.897,383.765,243.292,375.871,243.292"/>
	<path fill="#FFFFFF" d="M375.855,252.292c-12.868,0-23.034-9.875-23.147-22.483c-0.113-13.04,10.189-23.739,22.961-23.852
		c12.864,0,23.259,10.302,23.369,22.967c0.112,12.772-10.192,23.256-22.964,23.368H375.855z M375.868,207.967
		c-11.647,0.101-21.248,10.095-21.15,21.822c0.104,11.49,9.388,20.492,21.138,20.492v1.005l0.201-1.005
		c11.664-0.103,21.073-9.676,20.971-21.338C396.927,217.377,387.435,207.967,375.868,207.967z M375.871,244.298
		c-8.576,0-15.295-6.506-15.295-14.814c0-8.552,7.006-15.773,15.295-15.773c8.435,0,15.298,6.859,15.298,15.292
		C391.169,237.436,384.306,244.298,375.871,244.298z M375.871,215.72c-7.199,0-13.283,6.303-13.283,13.763
		c0,7.179,5.835,12.804,13.283,12.804c7.324,0,13.286-5.96,13.286-13.286C389.157,221.679,383.195,215.72,375.871,215.72z"/>
	<polygon fill="#FFFFFF" points="398.744,249.897 389.81,249.972 389.447,208.899 398.386,208.82 	"/>
	<path fill="#FFFFFF" d="M388.812,250.988l-0.378-43.084l10.949-0.098l0.375,43.089L388.812,250.988z M390.462,209.894l0.345,39.063
		l6.925-0.058l-0.341-39.063L390.462,209.894z"/>
	<path fill="#FFFFFF" d="M288.501,221.216c0,14.307-15.221,27.458-31.696,20.123c-4.264-1.898-7.717-5.29-9.688-9.521
		c-7.62-16.343,4.034-32.42,19.56-32.555c6.114-0.052,11.669,2.375,15.713,6.347l6.057-6.069l-0.039-0.05
		c-5.747-5.829-13.783-9.458-22.617-9.379h-0.085c-16.909,0.586-30.306,14.553-30.155,31.571
		c0.149,17.012,13.869,30.778,30.812,31.043c18.849,0,30.536-12.567,30.536-31.528L288.501,221.216z"/>
	<path fill="#FFFFFF" d="M266.362,253.729h-0.014c-17.385-0.271-31.652-14.644-31.804-32.038
		c-0.157-17.664,13.516-31.977,31.127-32.586l0.399-0.002c8.716,0,16.898,3.439,23.052,9.681l0.7,0.711l-0.663,0.754l-6.764,6.776
		l-0.711-0.698c-3.98-3.907-9.241-6.06-14.817-6.06c-7.41,0.064-14.03,3.753-17.892,9.875c-3.968,6.287-4.314,14.034-0.949,21.251
		c1.874,4.018,5.135,7.225,9.187,9.027c2.996,1.336,6.057,2.012,9.095,2.012c11.286,0,21.186-9.914,21.186-21.216v-1.003
		l10.41-0.024v1.008C297.905,240.958,285.524,253.729,266.362,253.729z M266.071,191.115h-0.272
		c-16.571,0.572-29.391,13.993-29.244,30.558c0.142,16.31,13.518,29.785,29.817,30.046c17.607-0.002,29.099-11.549,29.513-29.515
		l-6.399,0.015c-0.546,12.147-10.938,22.223-23.176,22.223c-3.323,0-6.656-0.734-9.913-2.183
		c-4.496-2.001-8.114-5.558-10.192-10.017c-3.659-7.85-3.27-16.296,1.07-23.173c4.229-6.7,11.479-10.743,19.392-10.812
		c0,0,0.003,0,0.005,0c5.957,0,11.435,2.106,15.695,5.95l4.657-4.665C281.342,194.101,273.937,191.115,266.071,191.115z"/>
	<polygon fill="#FFFFFF" points="297.454,226.001 272.335,226.22 272.251,217.087 297.37,216.868 	"/>
	<g>
		<polygon fill="#FFFFFF" points="297.454,226.001 272.335,226.22 272.251,217.087 297.37,216.868 		"/>
		<path fill="#FFFFFF" d="M271.337,227.234l-0.098-11.143l27.13-0.24l0.097,11.147L271.337,227.234z M273.267,218.083l0.063,7.122
			l23.108-0.201l-0.063-7.123L273.267,218.083z"/>
	</g>
	
		<rect x="407.77" y="208.489" transform="matrix(-1 0.0087 -0.0087 -1 826.4678 454.9718)" fill="#FFFFFF" width="8.939" height="41.605"/>
	<path fill="#FFFFFF" d="M406.947,251.12l-0.38-43.611l10.946-0.098l0.382,43.611L406.947,251.12z M408.595,209.5l0.345,39.591
		l6.929-0.059l-0.349-39.59L408.595,209.5z"/>
	<path fill="#FFFFFF" d="M407.639,220.031c4.368-6.964,11.854-11.783,20.529-12.473l0.069,9.901
		c-11.734,2.917-20.383,13.578-20.271,26.198L407.639,220.031z"/>
	<path fill="#FFFFFF" d="M406.961,243.672l-0.334-23.922l0.158-0.251c4.65-7.414,12.612-12.251,21.302-12.943l1.076-0.085
		l0.085,11.775l-0.767,0.19c-11.592,2.884-19.616,13.251-19.51,25.212L406.961,243.672z M408.647,220.319l0.179,13.035
		c3.088-7.987,9.78-14.266,18.4-16.666l-0.059-8.02C419.632,209.595,412.786,213.886,408.647,220.319z"/>
	<path fill="#FFFFFF" d="M340.097,228.753c-0.137-7.891-6.644-14.173-14.533-14.039c-7.888,0.14-14.175,6.649-14.037,14.538
		c0.136,7.892,6.644,14.175,14.532,14.037c6.183-0.107,11.376-4.124,13.274-9.649l7.446,2.555
		c-2.941,8.572-10.998,14.798-20.583,14.968c-12.238,0.212-22.329-9.535-22.546-21.773c-0.211-12.238,9.536-22.332,21.775-22.545
		c12.238-0.214,22.328,9.537,22.545,21.769L340.097,228.753z"/>
	<path fill="#FFFFFF" d="M325.805,252.173c-12.548,0-22.938-10.214-23.158-22.767c-0.221-12.773,9.988-23.344,22.761-23.567
		l0.412-0.004c12.546,0,22.937,10.211,23.157,22.763l0.018,1.004l-9.883,0.172l-0.02-1.005c-0.123-7.195-6.082-13.051-13.281-13.051
		c-7.553,0.132-13.407,6.194-13.28,13.518c0.123,7.195,6.08,13.052,13.275,13.052c5.809-0.101,10.766-3.705,12.575-8.973
		l0.323-0.952l9.354,3.208l-0.328,0.95c-3.152,9.187-11.799,15.476-21.515,15.646L325.805,252.173z M325.819,207.847l-0.378,0.002
		c-5.648,0.098-10.925,2.391-14.848,6.458c-3.926,4.064-6.035,9.413-5.938,15.064c0.203,11.46,9.689,20.787,21.148,20.787
		l0.378-0.002c8.536-0.15,16.168-5.473,19.298-13.345l-5.556-1.905c-2.324,5.551-7.769,9.283-13.847,9.388l-0.271,0.002
		c-8.283,0-15.144-6.742-15.285-15.028c-0.147-8.432,6.592-15.411,15.023-15.561l0.267-0.002c7.951,0,14.588,6.202,15.241,14.023
		l5.87-0.103C346.201,216.631,336.938,207.847,325.819,207.847z"/>
	<polygon fill="#FFFFFF" points="347.992,231.091 308.108,231.442 308.039,223.57 347.923,223.221 	"/>
	<path fill="#FFFFFF" d="M307.111,232.457l-0.086-9.885l41.895-0.365l0.086,9.88L307.111,232.457z M309.052,224.567l0.053,5.859
		l37.874-0.331l-0.051-5.858L309.052,224.567z"/>
</g>
</svg>
