<?xml version="1.0" encoding="utf-8"?>
<!-- Generator: Adobe Illustrator 16.0.0, SVG Export Plug-In . SVG Version: 6.00 Build 0)  -->
<!DOCTYPE svg PUBLIC "-//W3C//DTD SVG 1.1//EN" "http://www.w3.org/Graphics/SVG/1.1/DTD/svg11.dtd">
<svg version="1.1" id="Layer_1" xmlns="http://www.w3.org/2000/svg" xmlns:xlink="http://www.w3.org/1999/xlink" x="0px" y="0px"
	 width="500px" height="500px" viewBox="0 0 500 500" enable-background="new 0 0 500 500" xml:space="preserve">
<g>
	<g>
		<g>
			<path fill="#FFFFFF" d="M264.426,216.207h-36.955v-5.548h40.81c0.535-1.323,0.81-2.241,0.81-2.746
				c0-1.058-0.688-1.587-2.035-1.587h-46.068c-2.877,3.15-6.573,4.936-11.056,5.366v-7.351c2.29-0.207,4.093-1.059,5.4-2.523
				c0.786-0.917,1.745-2.679,2.853-5.3h8.062l-1.15,3.167h43.215c2.365,0,4.268,0.612,5.698,1.843
				c1.579,1.373,2.365,3.151,2.365,5.343c0,2.472-0.876,5.433-2.631,8.873c-2.041,4.035-4.754,6.777-8.135,8.215
				c-3.623,1.546-7.864,2.316-12.728,2.316l-41.214-0.042v-6.635h39.958c4.581,0,8.013-0.562,10.278-1.696
				C262.672,217.547,263.509,216.984,264.426,216.207z M264.615,250.57h-37.144v-5.516h40.768c0.586-1.199,0.884-2.108,0.884-2.736
				c0-1.059-0.612-1.588-1.853-1.588l-1.919,0.033h-44.365c-2.068,1.902-3.671,3.143-4.803,3.713
				c-1.754,0.869-3.838,1.397-6.252,1.587v-7.359c0.099,0,0.198,0,0.297,0c1.72,0,3.275-0.67,4.656-2.018
				c1.355-1.314,2.481-3.25,3.366-5.771h7.889c-0.298,1.033-0.646,2.092-1.042,3.175h41.139c3.532,0,5.988,0.521,7.36,1.555
				c1.853,1.389,2.778,3.273,2.778,5.655c0,2.092-0.769,4.806-2.29,8.121c-2.026,4.449-4.822,7.467-8.402,9.054
				c-1.604,0.694-4.349,1.308-8.253,1.845c-1.868,0.24-3.447,0.355-4.737,0.355h-41.025v-6.674h40.735
				C257.827,254.002,261.896,252.861,264.615,250.57z"/>
			<path fill="#FFFFFF" d="M378.278,228.004v-17.667h-8.42v-7.203h8.42v-6.624h5.985v6.624h6.6v7.203h-6.6v13.673
				c1.68-1.183,3.879-2.196,6.6-3.055v7.348c-2.266,0.801-4.466,1.959-6.6,3.464v17.895c0,2.944-0.462,5.177-1.396,6.708
				c-1.051,1.752-2.373,2.943-3.944,3.548c-1.142,0.421-2.729,0.636-4.756,0.636h-2.786v-6.855h2.786c1.339,0,2.374-0.43,3.11-1.281
				c0.669-0.803,1.001-2.283,1.001-4.441v-11.982c-2.373,1.322-5.285,2.191-8.742,2.597v-7.311
				C372.382,231.08,375.301,229.988,378.278,228.004z M396.594,260.552v-6.855c2.836-0.753,4.357-1.472,5.994-2.149
				c1.622-0.654,4.235-1.96,7.832-3.911c-2.812-2.416-4.97-4.441-6.475-6.069c-1.688-1.836-3.432-4.127-5.25-6.897h7.904
				c2.57,3.084,5.763,6.104,9.576,9.047c3.166-2.34,5.466-4.25,6.896-5.731c1.688-1.752,3.283-4.043,4.788-6.855h-31.201v-6.971
				h30.953c2.662,0,4.63,0.669,5.895,1.993c1.217,1.258,1.82,2.794,1.82,4.598c0,4.267-4.301,9.974-12.899,17.109
				c2.695,1.529,4.92,2.638,6.68,3.308c1.456,0.555,4.144,1.216,6.939,2.001v7.386c-6.657-2.01-13.521-4.838-19.441-8.477
				c-4.697,2.654-8.36,4.515-11.015,5.572C403.135,258.625,400.621,259.593,396.594,260.552z M396.875,221.789v-6.4
				c1.166-0.257,2.051-0.753,2.646-1.481c0.645-0.802,0.96-2.067,0.96-3.804v-9.229c0-1.051,0.396-1.977,1.182-2.787
				c1.025-1.034,2.307-1.546,3.861-1.546h21.013c2.149,0,3.729,0.495,4.756,1.471c0.825,0.811,1.248,1.827,1.248,3.051v9.038
				c0,1.886,0.348,3.217,1.033,3.994c0.504,0.554,1.323,0.984,2.473,1.291v6.4c-2.365-0.306-4.135-0.836-5.326-1.58
				c-2.787-1.786-4.184-4.789-4.184-9.014v-4.631c0-1.48-0.166-2.49-0.495-3.01c-0.315-0.429-1.108-0.645-2.399-0.645h-14.396
				c-1.2,0-1.984,0.199-2.366,0.604c-0.28,0.306-0.429,1.092-0.429,2.373v3.167c0,3.192-0.308,5.581-0.927,7.194
				c-0.761,1.978-2.067,3.432-3.927,4.325C400.571,221.103,398.991,221.508,396.875,221.789z"/>
			<g>
				<path fill="#FFFFFF" d="M289.705,205.151v-6.979h30.712c1.307,0,2.092-0.132,2.373-0.38c0.265-0.223,0.463-0.653,0.604-1.282
					h7.549c-0.388,2.613-1.223,4.582-2.529,5.879c-1.819,1.844-4.043,2.762-6.648,2.762H289.705L289.705,205.151z M289.705,233.362
					v-6.972h15.257v-2.34h7.79v2.34h15.86v6.972h-15.86v27.388h-7.79v-27.388H289.705L289.705,233.362z M289.747,260.75v-7.12
					c1.198-0.083,1.793-0.785,1.793-2.109v-14.619h7.633v12.693c0,3.259-0.479,5.582-1.43,6.938
					c-1.142,1.654-2.53,2.821-4.169,3.499C292.682,260.41,291.408,260.65,289.747,260.75z M318.623,236.901h7.541v13.893
					c0,1.19,0.107,1.917,0.331,2.183c0.248,0.306,0.777,0.554,1.587,0.728v7.046c-2.804-0.174-5.003-1.009-6.605-2.481
					c-0.977-0.885-1.688-1.819-2.118-2.794c-0.488-1.109-0.735-2.697-0.735-4.789V236.901z"/>
				<path fill="#FFFFFF" d="M336.674,205.151v-6.979h12.197c0.795,0,1.29-0.174,1.48-0.529c0.115-0.248,0.232-0.628,0.356-1.133
					h5.375c-0.017,1.984-0.521,3.796-1.513,5.433c-1.275,2.134-2.871,3.208-4.771,3.208H336.674z"/>
				<path fill="#FFFFFF" d="M336.674,229.988v-6.971h12.107c1.108,0,1.744-0.554,1.927-1.657h5.375
					c-0.247,2.558-0.844,4.51-1.77,5.841c-1.307,1.861-2.812,2.787-4.516,2.787H336.674L336.674,229.988z"/>
				<path fill="#FFFFFF" d="M336.674,260.75v-6.979h12.107c0.877,0,1.397-0.175,1.57-0.521c0.132-0.281,0.266-0.695,0.382-1.24h5.35
					c-0.017,2.107-0.521,3.96-1.513,5.572c-0.621,0.984-1.39,1.762-2.299,2.342c-0.895,0.545-1.712,0.826-2.473,0.826H336.674
					L336.674,260.75z"/>
				<rect x="291.54" y="208.087" fill="#FFFFFF" width="7.633" height="13.215"/>
				<rect x="305.16" y="208.087" fill="#FFFFFF" width="7.551" height="13.215"/>
				<rect x="318.87" y="208.087" fill="#FFFFFF" width="7.542" height="13.215"/>
			</g>
			<g>
				<path fill="#FFFFFF" d="M209.923,292.98v-1.844c0.421-0.018,0.76-0.059,1.025-0.117c0.331-0.074,0.58-0.198,0.745-0.363
					c0.124-0.107,0.29-0.323,0.496-0.653l1.208-1.852c0.578-0.886,1.165-1.439,1.77-1.663c0.346-0.116,0.752-0.183,1.241-0.183
					l5.665,0.009c0.694,0,1.256,0.082,1.703,0.231c0.571,0.198,1.018,0.621,1.331,1.273l1.101,2.292
					c0.223,0.445,0.512,0.734,0.892,0.858c0.281,0.091,0.752,0.149,1.43,0.167v1.835c-1.008-0.018-1.793-0.141-2.356-0.389
					c-0.637-0.281-1.115-0.752-1.438-1.415l-1.026-2.059c-0.181-0.347-0.388-0.596-0.628-0.735c-0.215-0.133-0.545-0.19-0.967-0.19
					l-5.524-0.017c-0.355,0-0.612,0.042-0.777,0.107c-0.248,0.108-0.454,0.29-0.621,0.555l-1.504,2.291
					c-0.497,0.769-1.067,1.281-1.704,1.546C211.602,292.831,210.916,292.938,209.923,292.98z M210.022,303.383v-2.331
					c1.637-1.407,2.729-3.053,3.283-4.921c0.273-0.927,0.414-2.01,0.414-3.242h1.852c0.025,1.166,0.108,2.043,0.24,2.638
					c0.422,1.911,1.439,3.622,3.051,5.152v2.423c-1.224-0.885-2.167-1.77-2.836-2.672c-0.431-0.577-0.894-1.355-1.381-2.34
					c-0.463,0.911-0.901,1.654-1.307,2.241c-0.596,0.835-1.241,1.538-1.944,2.093C211.106,302.654,210.65,302.977,210.022,303.383z
					 M219.623,303.102v-2.423c1.125-1.107,1.943-2.266,2.456-3.465c0.512-1.208,0.785-2.646,0.827-4.325h1.844
					c-0.017,0.272-0.017,0.472-0.017,0.596c0,1.348,0.298,2.68,0.902,3.978c0.694,1.472,1.637,2.671,2.827,3.59v2.308
					c-1.008-0.654-1.76-1.241-2.273-1.763c-0.894-0.901-1.678-2.067-2.357-3.507c-0.397,0.778-0.678,1.315-0.852,1.597
					c-0.413,0.694-0.893,1.29-1.439,1.811C221.038,301.969,220.4,302.498,219.623,303.102z"/>
				<path fill="#FFFFFF" d="M239.668,303.407v-1.86c0.851-0.446,1.521-0.968,2-1.538c0.497-0.604,0.985-1.456,1.472-2.564h-3.473
					v-1.612h4.01l0.239-0.893h-4.026v-1.579h4.49l0.189-0.72h-4.681v-1.612h5.144l0.148-0.53h-0.802v-1.777h-1.985
					c-0.306,0.604-0.662,1.042-1.076,1.308c-0.422,0.256-0.976,0.412-1.653,0.47v-1.876c0.43-0.074,0.728-0.282,0.909-0.596
					c0.182-0.348,0.315-0.951,0.381-1.802h1.927l-0.075,0.728h6.079v1.77h-2.646v1.289h0.943l-0.256,1.018h11.122v1.612h-11.545
					l-0.198,0.72h11.743v1.579h-12.156l-0.231,0.893h12.602v1.612h-1.166v0.886h1.166v1.58h-1.166v0.645
					c0,0.479-0.033,0.819-0.099,1.025c-0.224,0.637-0.604,1.108-1.149,1.432c-0.381,0.214-0.728,0.329-1.034,0.329h-0.826h-1.307
					v-1.834h1.224c0.885,0,1.332-0.397,1.332-1.184v-0.413h-11.173c-0.727,1.124-1.422,1.934-2.092,2.447
					C241.371,302.812,240.611,303.167,239.668,303.407z M244.72,302.465v-1.679h6.955v1.679H244.72z M244.844,298.33h10.394v-0.886
					h-10.064L244.844,298.33z M249.078,290.498v-1.876c0.347-0.074,0.587-0.19,0.728-0.331c0.249-0.265,0.431-0.951,0.538-2.066
					h1.927l-0.05,0.728h6.045v1.77h-2.63v1.777h-1.86v-1.777h-2.002c-0.288,0.604-0.628,1.025-1.025,1.282
					C250.343,290.259,249.781,290.424,249.078,290.498z"/>
				<path fill="#FFFFFF" d="M269.337,294.163v-2.398c0.786-0.555,1.406-1.249,1.853-2.092c0.381-0.704,0.753-1.828,1.133-3.374
					h2.102c-0.058,0.239-0.108,0.422-0.133,0.537c-0.298,1.257-0.646,2.356-1.067,3.299v13.215h-1.958v-10.386
					C270.628,293.468,269.983,293.873,269.337,294.163z M274.398,303.35v-1.893c0.298,0,0.538-0.076,0.719-0.208
					c0.398-0.314,0.638-0.976,0.704-1.985l0.405-5.921l1.843-0.007l-0.363,5.3c-0.083,1.19-0.165,1.942-0.257,2.265
					c-0.24,0.918-0.734,1.597-1.472,2.051C275.564,303.201,275.035,303.341,274.398,303.35z M274.514,292.483v-1.985
					c0.811-0.346,1.374-0.942,1.688-1.794c0.256-0.694,0.422-1.505,0.488-2.423h1.959l-0.173,1.142l6.549-0.017
					c0.835,0,1.473,0.148,1.901,0.454c0.555,0.398,0.836,0.942,0.836,1.622c0,0.354-0.116,0.744-0.331,1.166
					c-0.157,0.289-0.488,0.776-1,1.463h-2.349l1.513-2.01c0.117-0.148,0.173-0.306,0.173-0.438c0-0.265-0.223-0.397-0.686-0.397
					h-7.078c-0.248,0.646-0.621,1.248-1.125,1.803c-0.313,0.355-0.661,0.637-1.025,0.843
					C275.557,292.078,275.109,292.261,274.514,292.483z M278.5,303.358l0.008-1.869h1.092c0.28,0,0.472-0.059,0.58-0.174
					c0.106-0.1,0.147-0.372,0.147-0.818v-9.667h1.869v10.502c0,0.694-0.175,1.207-0.505,1.529c-0.24,0.24-0.521,0.38-0.826,0.438
					c-0.207,0.034-0.471,0.051-0.803,0.051L278.5,303.358z M284.155,293.344h1.887l0.397,6.433c0.041,0.587,0.247,1.059,0.628,1.423
					c0.19,0.182,0.464,0.28,0.818,0.28v1.861c-0.926-0.018-1.662-0.299-2.216-0.853c-0.638-0.636-1-1.57-1.092-2.811
					L284.155,293.344z"/>
				<path fill="#FFFFFF" d="M300.562,287.696v-1.356h1.844v1.356h3.283c0.613,0,1.1,0.165,1.447,0.504
					c0.348,0.34,0.513,0.819,0.513,1.431v11.767c0,0.728-0.157,1.248-0.472,1.555c-0.34,0.34-0.719,0.496-1.149,0.496h-5.168
					c-0.611,0-1.075-0.156-1.389-0.496c-0.249-0.247-0.396-0.528-0.446-0.844c-0.033-0.182-0.051-0.438-0.051-0.752v-11.52
					c0-0.835,0.19-1.414,0.58-1.736C299.769,287.91,300.107,287.778,300.562,287.696z M300.836,294.418h4.952v-4.233
					c0-0.405-0.223-0.611-0.66-0.611l-3.606-0.008c-0.455,0-0.686,0.247-0.686,0.761V294.418z M305.788,296.287h-4.952v4.647
					c0,0.438,0.182,0.661,0.537,0.661h3.836c0.381,0,0.579-0.189,0.579-0.569V296.287L305.788,296.287z M308.468,291.004v-1.969
					c0.637-0.314,1.108-0.744,1.423-1.282c0.173-0.322,0.346-0.835,0.503-1.529h1.953c-0.116,0.414-0.232,0.802-0.348,1.174h2.911
					c0.81-0.008,1.446,0.231,1.918,0.72c0.488,0.504,0.728,1.133,0.728,1.877v10.659c0,0.868-0.24,1.555-0.728,2.052
					c-0.472,0.487-1.051,0.735-1.754,0.735h-4.97v-1.861h4.482c0.744,0,1.116-0.446,1.116-1.339v-9.56
					c0-0.479-0.074-0.819-0.224-1.009c-0.198-0.273-0.496-0.405-0.893-0.405l-3.482-0.008
					C310.37,290.144,309.486,290.73,308.468,291.004z M309.163,296.205v-1.894h5.357v1.894H309.163z"/>
				<path fill="#FFFFFF" d="M343.68,291.781h-12.935v-1.546h13.976c0.148-0.373,0.224-0.621,0.224-0.77
					c0-0.29-0.191-0.438-0.556-0.438h-12.535c-0.785,0.876-1.786,1.381-3.01,1.496v-2.051c0.629-0.066,1.117-0.297,1.473-0.703
					c0.215-0.256,0.479-0.752,0.777-1.479h2.191l-0.314,0.885h11.76c0.646,0,1.166,0.165,1.554,0.513
					c0.422,0.38,0.646,0.876,0.646,1.488c0,0.695-0.239,1.513-0.72,2.481c-0.554,1.124-1.299,1.886-2.217,2.291
					c-0.983,0.43-2.133,0.645-3.455,0.645l-11.214-0.009v-1.852h10.866c1.249,0,2.183-0.157,2.803-0.472
					C343.199,292.152,343.422,292.004,343.68,291.781z M343.728,300.497h-12.982v-1.546h13.967c0.157-0.332,0.24-0.589,0.24-0.763
					c0-0.297-0.174-0.445-0.505-0.445l-0.521,0.008h-12.073c-0.553,0.529-1,0.877-1.307,1.042c-0.47,0.239-1.041,0.389-1.703,0.438
					v-2.052c0.034,0,0.059,0,0.082,0c0.472,0,0.894-0.189,1.266-0.562s0.678-0.909,0.917-1.612h2.151
					c-0.083,0.28-0.183,0.578-0.29,0.885h11.197c0.959,0,1.628,0.148,2,0.438c0.505,0.381,0.761,0.91,0.761,1.58
					c0,0.578-0.214,1.332-0.628,2.258c-0.546,1.249-1.314,2.083-2.282,2.53c-0.438,0.198-1.183,0.363-2.25,0.512
					c-0.503,0.067-0.934,0.101-1.289,0.101h-11.155v-1.861h11.081C341.876,301.447,342.984,301.133,343.728,300.497z"/>
				<path fill="#FFFFFF" d="M358.324,288.662v-1.858h7.574c0.321,0,0.521-0.034,0.587-0.108c0.065-0.058,0.116-0.174,0.148-0.339
					h1.861c-0.093,0.694-0.298,1.224-0.62,1.571c-0.455,0.487-1.002,0.734-1.646,0.734H358.324L358.324,288.662z M358.324,295.667
					v-1.86h3.763v-0.619h1.918v0.619h3.919v1.86h-3.919v7.849h-1.918v-7.849H358.324z M358.332,303.516v-1.911
					c0.298-0.017,0.447-0.207,0.447-0.562v-4.424h1.876v3.912c0,0.876-0.115,1.488-0.355,1.853c-0.28,0.446-0.62,0.752-1.024,0.934
					C359.052,303.415,358.737,303.482,358.332,303.516z M358.779,292.442v-2.993h1.876v2.993H358.779z M362.137,292.442v-2.993
					h1.858v2.993H362.137z M365.459,296.618h1.861v4.235c0,0.312,0.024,0.511,0.074,0.577c0.065,0.091,0.19,0.149,0.397,0.197v1.888
					c-0.694-0.051-1.231-0.274-1.629-0.671c-0.248-0.24-0.413-0.479-0.53-0.743c-0.115-0.299-0.174-0.721-0.174-1.275V296.618z
					 M365.518,292.442v-2.993h1.86v2.993H365.518z M368.809,288.662v-1.858h5.657c0.272,0,0.446-0.051,0.513-0.142
					c0.041-0.066,0.082-0.165,0.123-0.306h1.86c-0.007,0.53-0.181,1.018-0.521,1.446c-0.446,0.58-1,0.86-1.654,0.86L368.809,288.662
					L368.809,288.662z M368.809,295.296v-1.861h5.624c0.389,0,0.604-0.149,0.669-0.439h1.86c-0.091,0.679-0.289,1.2-0.611,1.556
					c-0.455,0.496-0.977,0.745-1.563,0.745H368.809z M368.809,303.383v-1.861h5.624c0.306,0,0.488-0.05,0.546-0.148
					c0.049-0.074,0.09-0.183,0.132-0.331h1.852c-0.007,0.562-0.181,1.06-0.521,1.488c-0.215,0.266-0.487,0.472-0.793,0.629
					c-0.313,0.14-0.595,0.224-0.861,0.224H368.809L368.809,303.383z"/>
				<path fill="#FFFFFF" d="M387.902,291.137v-1.423c0-0.729,0.225-1.298,0.679-1.704c0.43-0.397,0.909-0.595,1.438-0.595h6.277
					v-1.166h1.877v1.166h6.102c0.679,0,1.224,0.197,1.646,0.587c0.43,0.396,0.636,0.917,0.636,1.579v1.556h-1.844v-0.804
					c0-0.256-0.107-0.496-0.314-0.719c-0.206-0.231-0.462-0.339-0.776-0.339H390.74c-0.281,0-0.521,0.107-0.721,0.339
					c-0.173,0.191-0.256,0.414-0.256,0.671v0.852H387.902L387.902,291.137z M387.902,294.287v-1.763
					c0.148,0,0.281,0.009,0.405,0.009c2.125,0,3.688-0.769,4.697-2.298h2.15c-0.496,0.908-1.001,1.603-1.505,2.075
					C392.343,293.517,390.433,294.179,387.902,294.287z M387.92,303.398v-1.86h8.377v-4.209h-7.964v-1.859h17.779v1.859h-7.956
					v4.209h8.377v1.86H387.92z M399.248,290.235h2.192c0.562,0.775,1.189,1.339,1.893,1.678c0.861,0.413,1.803,0.62,2.829,0.62
					c0.115,0,0.248-0.009,0.396-0.009v1.763c-1.455-0.067-2.672-0.298-3.63-0.671c-1.133-0.438-2.051-1.1-2.746-1.992
					C399.951,291.326,399.638,290.862,399.248,290.235z"/>
				<path fill="#FFFFFF" d="M417.879,288.043v-1.745h4.324v1.745H417.879z M417.879,303.415v-13.793h1.86v13.793H417.879
					L417.879,303.415z M421.906,299.653v-7.509c0-0.48,0.148-0.9,0.455-1.257c0.338-0.405,0.776-0.612,1.307-0.612h6.549
					c0.429,0,0.819,0.165,1.166,0.472c0.363,0.323,0.546,0.761,0.546,1.314v7.476c0,0.679-0.132,1.191-0.405,1.515
					c-0.331,0.405-0.769,0.611-1.307,0.611h-6.641c-0.421,0-0.818-0.191-1.189-0.579
					C422.063,300.752,421.906,300.282,421.906,299.653z M423.726,295.047h6.376v-2.183c0-0.166-0.076-0.322-0.224-0.447
					c-0.116-0.091-0.256-0.141-0.43-0.141h-4.979c-0.214,0-0.387,0.066-0.528,0.198c-0.14,0.125-0.207,0.273-0.207,0.439
					L423.726,295.047z M430.102,296.874h-6.376l0.009,2.002c0,0.265,0.066,0.446,0.206,0.562c0.149,0.124,0.289,0.181,0.431,0.181
					h5.109c0.248,0,0.414-0.082,0.521-0.263c0.066-0.108,0.101-0.241,0.101-0.39V296.874L430.102,296.874z M423.949,288.158v-1.86
					h9.221c0.867,0,1.546,0.248,2.05,0.753c0.497,0.487,0.744,1.157,0.744,1.984v11.42c0,0.836-0.131,1.447-0.405,1.853
					c-0.512,0.735-1.232,1.107-2.166,1.107h-0.753v-1.86h0.43c0.273,0,0.529-0.124,0.761-0.38c0.183-0.198,0.274-0.513,0.274-0.959
					v-10.809c0-0.826-0.414-1.249-1.233-1.249H423.949L423.949,288.158z"/>
			</g>
			<rect x="182.783" y="196.485" fill="#FFFFFF" width="1.406" height="106.948"/>
			<g>
				<path fill="#FFFFFF" d="M103.894,223.497c9.575,4.458,18.233,14.62,18.233,26.47c0,11.685-8.484,21.707-17.821,26.275
					c11.554-3.199,24.089-13.49,29.837-26.002c0.058-0.108,0.108-0.207,0.156-0.322
					C128.545,237.116,115.661,226.589,103.894,223.497z"/>
				<path fill="#FFFFFF" d="M138.509,229.484c0,7.302-1.562,14.231-4.333,20.433c-6.061-13.553-20.086-24.559-32.325-26.892
					c-2.472-0.48-4.738-0.786-9.252-0.786c-4.987,0-28.645-0.008-28.645-0.008v-12.226v-13.462c0,0,0.124,0,0.273,0
					c1.257,0,11.519,0,17.837,0c3.713,0,7.418,0,10.196,0c4.557,0.017,9.072,0.025,13.24,0.414
					c5.258,0.496,7.426,0.934,10.122,1.752c3.373,1.025,5.755,1.819,8.574,3.391C133.084,207.037,138.509,215.728,138.509,229.484z"
					/>
				<path fill="#FFFFFF" d="M124.194,202.1c7.476,4.15,12.488,10.964,13.894,21.197c0.025,0.149,0.042,0.306,0.066,0.456
					c0.091,0.711,0.157,1.438,0.215,2.182c0.016,0.232,0.041,0.455,0.056,0.688c0.051,0.925,0.083,1.876,0.083,2.861
					c0,7.302-1.562,14.231-4.333,20.433c2.771,6.211,4.333,13.131,4.333,20.441l0,0l0,0c0,0.926-0.024,1.833-0.073,2.708
					c-0.01,0.1-0.017,0.183-0.025,0.266c-0.735,12.048-5.987,19.847-14.216,24.411c-0.379,0.215-0.744,0.38-1.108,0.57
					c1.191-0.505,2.374-1.042,3.532-1.62c17.481-8.824,30.463-25.607,30.463-46.776c0-21.136-11.973-36.414-27.975-45.477
					c-2.199-1.248-4.407-2.299-6.533-3.167C123.103,201.529,123.641,201.794,124.194,202.1z"/>
				<path fill="#FFFFFF" d="M101.851,276.821c-1.115,0.216-2.223,0.39-3.927,0.521v-13.054l-33.97,6.467v32.543h33.97v-0.007
					c2.927-0.059,5.318-0.198,7.576-0.405c5.258-0.496,7.426-0.936,10.122-1.754c3.373-1.017,5.755-1.818,8.574-3.39
					c8.89-4.938,14.38-13.637,14.38-27.393c0-7.302-1.653-14.43-4.399-20.425C128.115,263.479,114.09,274.49,101.851,276.821z"/>
			</g>
		</g>
	</g>
</g>
</svg>
