<?xml version="1.0" encoding="utf-8"?>
<!-- Generator: Adobe Illustrator 16.0.0, SVG Export Plug-In . SVG Version: 6.00 Build 0)  -->
<!DOCTYPE svg PUBLIC "-//W3C//DTD SVG 1.1//EN" "http://www.w3.org/Graphics/SVG/1.1/DTD/svg11.dtd">
<svg version="1.1" id="Layer_1" xmlns="http://www.w3.org/2000/svg" xmlns:xlink="http://www.w3.org/1999/xlink" x="0px" y="0px"
	 width="500px" height="500px" viewBox="0 0 500 500" enable-background="new 0 0 500 500" xml:space="preserve">
<g>
	<path fill="#FFFFFF" d="M169.623,279.659v-6.866c1.441-0.744,2.162-2.114,2.162-4.111l0.035-15.998h-2.092v-6.447h2.092v-13.071
		c0-2.485,0.081-4.042,0.243-4.669c0.581-2.37,2.288-3.812,5.124-4.322v-3.625h6.447v3.625l5.959-0.035
		c2.022,0,3.636,0.649,4.844,1.952c1.115,1.208,1.673,2.788,1.673,4.739v15.405h2.162v6.447h-2.162v20.424
		c0,1.998-0.395,3.509-1.185,4.531c-1.208,1.579-2.985,2.356-5.332,2.335l-2.58-0.036v-6.413l1.29-0.035
		c1.301-0.021,1.951-0.789,1.951-2.299v-18.506h-12.407v15.301C177.848,274.258,175.106,278.147,169.623,279.659 M177.848,246.236
		h3.138v-9.515h6.028v9.515h3.242l-0.035-13.837c0-0.882-0.232-1.499-0.697-1.848c-0.326-0.232-0.965-0.348-1.917-0.348h-7.946
		c-1.209,0-1.813,0.976-1.813,2.927V246.236z M180.986,256.761h6.028v11.605h-6.028V256.761z M199.457,230.796v-6.447h14.114v-3.591
		h6.448v3.591h14.115v6.447H199.457z M199.875,279.764v-6.519c0.93,0,1.603-0.186,2.021-0.557c0.767-0.696,1.15-1.963,1.15-3.8
		v-24.744c0-2.742,0.372-4.693,1.116-5.855c0.72-1.185,1.743-2.115,3.067-2.788c1.092-0.581,2.091-0.882,2.997-0.906l11.71-0.035
		c2.091-0.022,3.845,0.616,5.263,1.916c1.766,1.628,2.648,3.753,2.648,6.378v24.327c0,2.719,0.104,4.333,0.313,4.846
		c0.349,0.881,0.941,1.323,1.777,1.323h2.056v6.447c-3.857-0.023-6.552-0.661-8.085-1.917c-1.673-1.395-2.509-3.438-2.509-6.135
		v-23.558c0-3.208-0.128-5.032-0.384-5.473c-0.72-1.185-1.615-1.777-2.684-1.777h-7.214c-0.952,0-1.719,0.208-2.299,0.628
		c-0.906,0.625-1.36,1.335-1.36,2.125l0.035,1.465v22.409c0,3.207-0.278,5.484-0.836,6.831c-0.767,1.905-2.092,3.347-3.973,4.322
		C203.685,279.229,202.083,279.577,199.875,279.764"/>
	<path fill="#FFFFFF" d="M241.244,279.45v-6.343h5.681v-21.749h-5.681v-6.447h5.681v-18.088h-5.681v-6.414h17.984v6.414h-5.961
		v18.088h5.961v6.447h-5.961v21.749h5.961v6.343H241.244L241.244,279.45z M261.215,279.902v-6.517
		c8.435-2.23,12.651-7.935,12.651-17.111v-36.073h6.413v36.769c0,6.437-1.65,11.594-4.949,15.475
		c-2.255,2.671-5.065,4.658-8.435,5.96C265.641,278.892,263.747,279.392,261.215,279.902 M263.236,221.7h6.274v41.892h-6.274V221.7z
		 M283.032,279.555v-6.31h7.527v-21.887h-7.527l-0.069-6.447h7.598v-17.948h-7.527v-6.448h22.513v6.447h-8.538v17.949h8.538v6.447
		h-8.538v21.887h8.538v6.31H283.032L283.032,279.555z"/>
	<path fill="#FFFFFF" d="M312.447,247.42v-4.948c0-1.744,0.51-3.138,1.533-4.183c1.162-1.185,2.601-1.777,4.321-1.777h23.107v-1.917
		h3.625v-6.309c1.394-0.326,2.347-0.884,2.857-1.673c0.72-1.115,1.233-3.312,1.534-6.587h6.656l-0.244,2.439h21.017v6.204h-9.097
		v6.135h-6.448v-6.135h-6.971c-0.999,2.859-3.415,4.833-7.248,5.926h0.767v1.916h22.165c4.554,0,6.832,2.161,6.832,6.483v4.426
		h-3.695c0.188,1.139,0.278,2.614,0.278,4.427v3.972c0,1.79-0.313,2.999-0.939,3.626c-0.814,0.836-2.487,1.253-5.02,1.253h-45.1
		v2.859h40.709c5.04,0,7.958,0.256,8.748,0.767c0.649,0.417,1.079,0.872,1.288,1.358c0.209,0.466,0.313,1.337,0.313,2.614v6.726
		c0,1.417-0.208,2.429-0.627,3.033c-0.674,0.906-2.3,1.358-4.88,1.358h-45.062c-2.279,0-3.8-0.243-4.567-0.731
		c-1.721-1.139-2.578-2.788-2.578-4.948v-21.295c0-1.557,0.162-2.73,0.487-3.52c0.14-0.326,0.477-0.826,1.011-1.499H312.447
		L312.447,247.42z M312.447,234.804v-6.483c1.324-0.278,2.275-0.823,2.857-1.637c0.768-1.047,1.302-3.265,1.604-6.658h6.691
		l-0.279,2.439h21.052v6.204h-9.166v6.135h-6.449v-6.135h-6.864c-1.114,2.139-2.371,3.637-3.765,4.496
		C316.712,234.049,314.817,234.596,312.447,234.804 M318.895,245.992c1.231-0.302,2.161-0.454,2.788-0.454h48.618l-0.034-0.906
		c-0.024-0.812-0.325-1.417-0.905-1.812c-0.256-0.186-0.501-0.302-0.733-0.348h-2.542h-42.904c-1.789,0-2.87,0.127-3.241,0.382
		c-0.745,0.466-1.104,1.138-1.08,2.022L318.895,245.992z M322.379,254.914h41.615c1.067,0,1.754-0.07,2.057-0.209
		c0.348-0.187,0.521-0.558,0.521-1.115v-0.558c0-0.581-0.209-0.999-0.627-1.255c-0.232-0.14-0.884-0.209-1.951-0.209h-38.756
		c-1.465,0-2.325,0.163-2.58,0.488c-0.186,0.232-0.279,0.686-0.279,1.359V254.914z M322.379,269.273v2.509
		c0,0.882,0.176,1.452,0.524,1.707c0.231,0.163,1.184,0.246,2.856,0.246h37.677c1.463,0,2.287-0.048,2.474-0.141
		c0.441-0.256,0.662-0.778,0.662-1.569v-1.148c0-1.069-0.545-1.603-1.639-1.603L322.379,269.273L322.379,269.273z"/>
	<path fill="#FFFFFF" d="M383.512,279.45v-5.786c4.926-0.813,8.189-1.429,9.792-1.847c7.086-1.813,14.869-6.041,23.351-12.687
		c-0.162-1.114-0.441-2.149-0.836-3.102c-10.409,7.343-21.179,11.757-32.308,13.244l-0.069-5.682
		c3.834-0.767,6.738-1.463,8.711-2.09c4.066-1.278,8.749-3.393,14.046-6.344c2.301-1.302,4.612-2.799,6.937-4.495
		c-0.396-0.721-0.896-1.337-1.499-1.849c-4.973,2.463-9.271,4.333-12.895,5.612c-4.578,1.626-9.654,2.823-15.23,3.59l-0.071-5.925
		c4.393-0.859,8.33-1.848,11.816-2.963c4.53-1.44,9.525-3.635,14.985-6.588h-25.859v-6.202h62.978v6.202h-25.268L420,243.866
		l-2.23,1.395c1.788,2.439,3.066,4.961,3.834,7.562c8.202-3.74,13.337-5.959,15.404-6.656c3.439-1.115,7.075-1.778,10.909-1.986
		v6.483c-3.368,0.186-6.099,0.604-8.19,1.254c-2.045,0.627-4.612,1.754-7.703,3.381c2.719,5.623,4.975,9.479,6.762,11.569
		c1.626,1.884,3.484,3.521,5.576,4.915c0.953,0.628,2.208,1.058,3.764,1.29v6.62c-4.832-0.883-9.026-3.066-12.579-6.551
		c-2.163-2.114-4.161-4.949-5.996-8.504c-0.396-0.768-1.022-2.021-1.883-3.764c-0.326-0.627-0.755-1.487-1.288-2.579
		c-1.024,0.604-2.045,1.174-3.068,1.707c0.07,1.441,0.105,2.476,0.105,3.103c0,5.691-1.394,9.978-4.183,12.86
		c-2.138,2.229-5.157,3.426-9.062,3.59l-0.036-5.961c3.579-0.209,5.821-2.567,6.728-7.075c-5.158,3.695-9.562,6.331-13.208,7.912
		C398.079,276.848,391.365,278.52,383.512,279.45 M383.615,234.386v-3.764c0.021-4.53,2.301-6.796,6.83-6.796l22.236-0.034v-3.625
		h6.448v3.625l21.016,0.034c2.811,0,4.809,0.5,5.994,1.498c1.346,1.162,2.032,2.928,2.056,5.298l0.035,3.764h-6.551v-1.603
		c0-0.975-0.151-1.638-0.454-1.985c-0.372-0.419-1.033-0.628-1.986-0.628h-46.284c-1.068,0-1.8,0.208-2.194,0.628
		c-0.372,0.371-0.57,0.962-0.594,1.776v1.812H383.615L383.615,234.386z"/>
	<g>
		<path fill="#FFFFFF" d="M91.435,224.468c-0.065,0.527-0.155,1.309-0.155,1.309l6.309,1.161l6.503-1.551
			c0,0,0.011-0.765,0.019-1.254c-1.823-0.397-3.715-0.609-5.657-0.609C96.023,223.524,93.67,223.854,91.435,224.468z"/>
		<path fill="#FFFFFF" d="M128.76,203.313H68.151c-9.047,0-16.381,7.334-16.381,16.381v60.611c0,9.048,7.334,16.381,16.381,16.381
			h60.609c9.047,0,16.381-7.333,16.381-16.381v-60.611C145.141,210.648,137.807,203.313,128.76,203.313z M125.113,238.12
			c1.62,3.629,2.521,7.649,2.521,11.881c0,11.215-6.327,20.948-15.606,25.834l2.679,5.246l-4.565-4.34
			c-3.578,1.566-7.53,2.438-11.686,2.438c-16.115,0-29.177-13.063-29.177-29.178c0-3.631,0.665-7.106,1.876-10.314l-7.539-7.164
			l11.049,0.579c5.289-7.433,13.973-12.281,23.79-12.281c10.913,0,20.425,5.991,25.43,14.863l9.409,0.493L125.113,238.12z"/>
		<polygon fill="#FFFFFF" points="78.955,248.155 80.596,248.662 77.16,245.395 76.914,246.368 		"/>
		<path fill="#FFFFFF" d="M88.761,233.027l-2.805-2.068l0.224-4.421c-3.186,1.671-5.987,3.972-8.243,6.735l1.887,0.1l8.949,0.469
			L88.761,233.027z"/>
		<path fill="#FFFFFF" d="M88.773,233.843l-8.95-0.469L88.773,233.843z"/>
		<path fill="#FFFFFF" d="M78.955,248.155l-2.041-1.788l0.246-0.973l-3.858-3.667c-0.771,2.349-1.228,4.842-1.308,7.429l4.104,2.496
			l1.301,7.959l5.684,3.726l-0.355,7.923c0.921,0.663,2.307,1.622,3.278,2.11l3.989-4.852l2.891-8.177l-2.06-1.959l-10.229-9.721
			L78.955,248.155z"/>
		<polygon fill="#FFFFFF" points="73.304,241.72 77.161,245.388 77.161,245.388 		"/>
		<path fill="#FFFFFF" d="M80.596,248.662l10.229,9.721L80.596,248.662z"/>
		<path fill="#FFFFFF" d="M114.692,240.594l-7.55,1.792l-0.189,4.15l4.561,3.742l5.082-0.289l2.375,8.078l-0.655,9.44
			c4.117-4.666,6.615-10.794,6.615-17.506c0-4.021-0.896-7.831-2.5-11.244L114.692,240.594z"/>
		<polygon fill="#FFFFFF" points="107.142,242.386 107.142,242.386 114.692,240.594 		"/>
		<path fill="#FFFFFF" d="M111.533,226.975c-0.762,0.802-1.581,1.616-1.581,1.616l1.906,2.236l-1.715,2.512l-2.023,1.518
			l7.206,0.378l5.289,0.278C118.312,231.997,115.197,229.06,111.533,226.975z"/>
		<path fill="#FFFFFF" d="M120.615,235.512l-5.289-0.278L120.615,235.512z"/>
		<path fill="#FFFFFF" d="M78.383,234.313l1.388,0.073l8.949,0.47l26.553,1.392l4.688,0.247c0.324,0.517,0.629,1.047,0.915,1.587
			l-6.417,1.523l-7.55,1.792l-10.874,2.582l-1.257,0.298l0.587,1.151l14.003,27.428c-0.413,0.198-0.831,0.385-1.252,0.559
			l-16.592-15.769l-10.228-9.721l-3.437-3.267l-3.391-3.222C75.38,238.865,76.694,236.474,78.383,234.313 M77.915,233.272
			c-2.021,2.484-3.601,5.341-4.618,8.453l0.003,0.003l3.859,3.667l3.436,3.267l0,0l10.229,9.721l17.062,16.218
			c0.979-0.377,1.93-0.811,2.849-1.296l-14.467-28.336l10.873-2.583l7.55-1.792l7.66-1.819c-0.529-1.135-1.138-2.227-1.817-3.267
			l-5.208-0.274l-26.553-1.393l-8.95-0.47L77.915,233.272L77.915,233.272z"/>
	</g>
</g>
</svg>
