<?xml version="1.0" encoding="utf-8"?>
<!-- Generator: Adobe Illustrator 16.0.0, SVG Export Plug-In . SVG Version: 6.00 Build 0)  -->
<!DOCTYPE svg PUBLIC "-//W3C//DTD SVG 1.1//EN" "http://www.w3.org/Graphics/SVG/1.1/DTD/svg11.dtd">
<svg version="1.1" id="Layer_1" xmlns="http://www.w3.org/2000/svg" xmlns:xlink="http://www.w3.org/1999/xlink" x="0px" y="0px"
	 width="500px" height="500px" viewBox="0 0 500 500" enable-background="new 0 0 500 500" xml:space="preserve">
<g>
	<path id="XMLID_72_" fill="#FFFFFF" d="M187.592,226.806c1.838,0.71,3.785,1.364,5.866,1.952c-0.761,5.116-1.821,8.215-3.185,9.284
		c-1.372,1.072-3.083,1.603-5.141,1.603h-8.19c-4.495,0-6.749-2.092-6.749-6.279v-0.859c-2.058,0.868-4.187,1.695-6.371,2.484
		c-1.024-2.074-2.033-3.903-3.023-5.487v10.935h-6.188v-10.679c-1.522,1.396-3.103,2.704-4.743,3.93
		c-1.088-2.479-1.987-4.324-2.704-5.534c4.935-3.472,9.168-8.144,12.7-14.002l5.491,2.698c-1.423,2.23-2.945,4.342-4.558,6.325
		v6.162c3.284-1.068,6.417-2.225,9.394-3.461V215.17h6.188v7.868c4.005-2.019,7.695-4.232,11.077-6.654l3.859,4.651
		c-4.435,3.154-9.414,6.047-14.936,8.701v1.954c0,1.767,1.057,2.653,3.169,2.653h3.859c1.485,0,2.499-0.448,3.035-1.339
		C186.978,232.112,187.364,230.046,187.592,226.806 M147.772,244.112h19.216v-4.377h6.792v4.377h18.89v5.864h-18.89v10.604h-6.792
		v-10.604h-19.216V244.112z"/>
	<path id="XMLID_69_" fill="#FFFFFF" d="M238.08,253.229c0.268,0,0.479-0.09,0.63-0.28c0.158-0.181,0.331-0.941,0.537-2.277
		c0.201-1.333,0.403-3.415,0.607-6.234c1.454,0.746,2.822,1.361,4.091,1.858c-0.481,6.128-1.19,10.004-2.127,11.625
		c-0.939,1.619-2.307,2.424-4.104,2.424c-2.432,0-4.277-1.293-5.515-3.879c-1.246-2.594-1.837-9.468-1.79-20.635v-12.84h-22.795
		v11.91c0,5.94-0.417,10.841-1.257,14.703c-0.835,3.859-2.499,7.69-4.978,11.487c-1.459-1.764-3.039-3.581-4.747-5.437
		c1.952-2.886,3.225-5.865,3.812-8.924c0.592-3.059,0.875-7.908,0.84-14.525v-15.538h35.457v19.863
		c0,6.748,0.047,11.206,0.157,13.371C237.007,252.073,237.398,253.181,238.08,253.229 M212.678,225.597
		c2.377,3.055,4.604,5.984,6.682,8.793c2.03-3.153,3.793-6.362,5.278-9.633l5.534,3.07c-1.998,4.08-4.296,8.049-6.882,11.909
		c2.833,3.942,5.364,7.623,7.584,11.025l-5.306,4.147c-1.999-3.212-4.083-6.422-6.257-9.634c-2.51,3.268-5.254,6.45-8.218,9.536
		c-1.577-1.766-3.106-3.397-4.597-4.888c3.358-3.284,6.371-6.653,9.023-10.115c-2.495-3.562-5.105-7.127-7.817-10.674
		L212.678,225.597z"/>
	<path id="XMLID_62_" fill="#FFFFFF" d="M248.139,234.296h12.637c0.308-0.871,0.592-1.75,0.859-2.656h6.28
		c-0.234,0.907-0.481,1.786-0.745,2.656h25.725v4.884h-27.515c-0.347,0.809-0.71,1.597-1.096,2.373h24.655v4
		c-2.696,2.554-5.743,4.833-9.141,6.812c4.048,0.993,8.571,1.564,13.561,1.698c-1.144,2.046-2.165,4.047-3.066,6.005
		c-6.671-0.607-12.582-1.987-17.755-4.141c-4.833,2.018-10.24,3.58-16.208,4.698c-0.946-1.703-1.963-3.334-3.043-4.88
		c-0.938,0.836-1.909,1.636-2.913,2.412c-1.021-2.049-2.109-3.862-3.259-5.439c4.983-3.662,8.837-8.175,11.564-13.54h-10.541
		V234.296L248.139,234.296z M248.699,216.384c10.856,0.063,24.69-0.22,41.5-0.834l1.443,4.88l-6.464,0.166l3.346,1.978
		c-0.884,1.022-1.846,2.09-2.882,3.209h5.857v7.35h-6.419v-2.462h-29.263v2.462h-6.416v-7.35h5.977
		c-0.623-1.088-1.198-2.019-1.743-2.792l4.415-1.859l-7.813,0.142C249.894,219.935,249.386,218.309,248.699,216.384
		 M260.331,248.089c-1.864,2.53-3.994,4.884-6.397,7.071c4.391-0.714,8.373-1.62,11.959-2.716
		C263.891,251.151,262.038,249.7,260.331,248.089 M259.286,221.106c0.915,1.364,1.916,2.925,2.996,4.676h6.212
		c-0.56-1.104-1.181-2.231-1.877-3.399l4.321-1.513L259.286,221.106z M272.638,249.922c2.85-1.269,5.357-2.705,7.509-4.32h-14.651
		C267.588,247.304,269.97,248.747,272.638,249.922 M272.495,220.846c0.942,1.569,1.869,3.217,2.768,4.936h3.493
		c1.252-1.553,2.503-3.265,3.75-5.141L272.495,220.846z"/>
	<path id="XMLID_57_" fill="#FFFFFF" d="M297.143,245.791c2.957-3.587,5.245-7.509,6.86-11.774h-6.44v-6.004h6.65v-5.21
		l-5.626,0.513c-0.315-2.105-0.669-3.954-1.073-5.535c6.419-0.497,12.348-1.131,17.77-1.908l1.771,5.439
		c-2.093,0.299-4.362,0.584-6.795,0.864v5.837h6.047v6.004h-6.047v4l2.235-2.097c2.229,1.991,4.121,3.784,5.676,5.401l-3.911,3.534
		c-1.533-1.797-2.869-3.311-4-4.537v20.077h-6.048V244.67c-1.459,3.072-3.102,5.921-4.932,8.558
		C298.752,251.179,298.043,248.704,297.143,245.791 M315.052,244.388l15.121-1.372v-28.354h6.563v27.754l6.322-0.588l0.512,5.913
		l-6.834,0.626v12.027h-6.563v-11.444l-14.329,1.301L315.052,244.388z M320.353,229.783c2.733,2.014,5.387,4.205,7.96,6.559
		l-4.376,4.229c-2.109-2.231-4.62-4.478-7.54-6.74L320.353,229.783z M321.934,217.97c2.362,1.734,4.979,3.901,7.864,6.511
		l-4.329,4.277c-2.324-2.479-4.801-4.757-7.441-6.839L321.934,217.97z"/>
	<path id="XMLID_53_" fill="#FFFFFF" d="M147.614,275.099c2.354-2.945,4.111-6.248,5.267-9.914l1.987,0.599
		c-0.268,0.765-0.553,1.506-0.844,2.224h16.737v1.719h-17.498c-1.336,2.854-2.96,5.388-4.868,7.6
		C148.104,276.396,147.843,275.649,147.614,275.099 M150.161,277.72V276h17.415v2.578c0,3.917,0.437,6.694,1.316,8.311
		c0.394,0.604,0.694,0.544,0.911-0.19c0.229-1.162,0.39-2.602,0.492-4.316c0.584,0.21,1.175,0.383,1.767,0.509
		c-0.051,1.262-0.221,2.646-0.521,4.147c-0.378,1.6-1.135,2.403-2.274,2.403c-0.899,0-1.612-0.531-2.137-1.592
		c-1.017-1.964-1.517-5.022-1.517-9.174v-0.957L150.161,277.72L150.161,277.72z M152.908,272.027h15.984v1.671h-15.984V272.027z"/>
	<path id="XMLID_48_" fill="#FFFFFF" d="M198.267,277.523l0.979,1.643c-1.447,0.509-2.953,1.033-4.518,1.569
		c1.301,2.937,3.54,4.915,6.706,5.939c-0.54,0.666-0.982,1.21-1.328,1.637c-3.044-1.289-5.354-3.639-6.938-7.052
		c-0.449,0.153-0.898,0.304-1.348,0.454c0.292,0.945,0.441,2.014,0.441,3.22c0,2.925-1.399,4.384-4.194,4.384
		c-1.013,0-2.093-0.018-3.24-0.049c-0.063-0.404-0.197-1.035-0.41-1.883c1.19,0.126,2.293,0.188,3.311,0.188
		c1.845,0,2.767-0.918,2.767-2.767c0-0.726-0.064-1.363-0.186-1.94c-2.432,2.382-6.551,4.408-12.342,6.079
		c-0.299-0.488-0.623-1.062-0.985-1.71c5.632-1.437,9.881-3.414,12.755-5.949c-0.205-0.382-0.465-0.768-0.78-1.162
		c-2.263,2.006-5.811,3.737-10.651,5.17c-0.26-0.472-0.596-1.031-1.005-1.666c4.709-1.233,8.261-2.78,10.654-4.632
		c-0.283-0.292-0.603-0.592-0.945-0.884c-1.994,1.377-5.006,2.56-9.042,3.556c-0.212-0.46-0.536-1.04-0.961-1.738
		c4.588-0.861,7.75-2.007,9.476-3.437h-5.211v0.761h-1.69v-4.73c-0.56,0.382-1.148,0.765-1.762,1.15
		c-0.213-0.544-0.489-1.079-0.835-1.624c3.417-1.924,6.098-4.201,8.041-6.839l2.207,0.268c-0.429,0.636-0.938,1.265-1.513,1.889
		h10.099v1.45l-2.389,2.16h6.063v6.079h-1.691v-0.564h-8.975c-0.178,0.225-0.383,0.438-0.608,0.651
		c1.329,1.017,2.326,2.076,2.976,3.185C193.829,279.478,196.186,278.543,198.267,277.523 M181.27,274.901h6.575
		c0.403-0.667,0.71-1.439,0.931-2.33h-7.505V274.901L181.27,274.901z M193.261,268.89h-9.058c-0.742,0.686-1.568,1.379-2.491,2.089
		h9.382L193.261,268.89z M197.798,272.571h-7.13c-0.217,0.871-0.481,1.652-0.812,2.33h7.943V272.571z"/>
	<path id="XMLID_43_" fill="#FFFFFF" d="M205.662,282.773c1.869-2.507,3.271-5.291,4.218-8.365h-3.871v-1.743h4.021v-3.602
		c-1.261,0.13-2.444,0.244-3.556,0.344c-0.119-0.604-0.276-1.21-0.493-1.818c3.173-0.221,6.319-0.586,9.441-1.073l0.639,1.814
		c-1.468,0.197-2.871,0.371-4.19,0.512v3.823h3.898v1.743h-3.899v2.771l1.077-0.978c1.174,1.013,2.263,2.002,3.263,2.964
		l-1.376,1.399c-1.045-1.175-2.039-2.2-2.964-3.066v12.015h-1.841v-11.059c-0.967,2.521-2.113,4.649-3.434,6.402
		C206.317,284.188,206.009,283.49,205.662,282.773 M214.515,281.472l9.61-0.858v-15.152h1.894v14.979l3.874-0.361l0.146,1.762
		l-4.02,0.365v7.309h-1.894v-7.132l-9.413,0.856L214.515,281.472z M215.982,275.169l1.182-1.25c1.864,1.455,3.271,2.614,4.213,3.485
		l-1.273,1.489C219.34,278.098,217.969,276.853,215.982,275.169 M217.437,269.283l1.124-1.229c1.813,1.398,3.287,2.609,4.414,3.656
		l-1.272,1.444C220.539,271.964,219.116,270.672,217.437,269.283"/>
	<path id="XMLID_39_" fill="#FFFFFF" d="M234.398,278.312c1.23-0.356,2.424-0.703,3.58-1.05v-5.28h-3.264v-1.692h3.264v-4.758h1.883
		v4.758h2.875v1.692h-2.875v4.697c0.939-0.308,1.857-0.603,2.749-0.896c0,0.785,0.02,1.424,0.051,1.916
		c-0.922,0.291-1.86,0.595-2.799,0.896v7.903c0,1.735-0.815,2.604-2.451,2.625c-0.65,0.015-1.435,0.015-2.353,0
		c-0.099-0.686-0.205-1.38-0.319-2.085c0.97,0.099,1.689,0.142,2.184,0.142c0.701,0,1.057-0.361,1.057-1.104v-6.862
		c-1.104,0.37-2.216,0.744-3.339,1.127L234.398,278.312z M243.488,276.493v-1.62h6.307v-3.752h-6.401v-1.786h6.401v-3.946h1.96
		v3.946h6.667v1.786h-6.667v3.752h5.221v1.471c-1.149,3.268-2.789,5.92-4.919,7.949c1.847,1.443,4.124,2.548,6.836,3.308
		c-0.619,0.723-1.146,1.345-1.57,1.889c-2.655-1.08-4.909-2.388-6.755-3.938c-2.151,1.621-4.667,3.001-7.541,4.131
		c-0.347-0.516-0.776-1.103-1.3-1.738c2.913-0.946,5.412-2.176,7.478-3.674c-1.814-1.979-3.173-4.571-4.084-7.776L243.488,276.493
		L243.488,276.493z M254.844,276.493h-7.836c0.742,2.586,1.968,4.767,3.686,6.548C252.616,281.209,254.004,279.027,254.844,276.493"
		/>
	<path id="XMLID_38_" fill="#FFFFFF" d="M268.345,290.507c-2.917-3.185-4.375-7.048-4.375-11.573c0-4.589,1.458-8.494,4.375-11.724
		h2.108c-2.9,3.311-4.351,7.21-4.351,11.7c0,4.422,1.442,8.286,4.323,11.597H268.345z"/>
	<path id="XMLID_35_" fill="#FFFFFF" d="M274.203,284.98c2.137-0.741,4.658-1.703,7.576-2.901v-7.719h-7.061v-1.812h7.061v-6.891
		h1.986v23.564h-1.986v-5.093c-1.569,0.639-3.831,1.564-6.791,2.787L274.203,284.98z M288.646,265.605h1.987v8.299
		c2.23-1.139,4.312-2.396,6.251-3.761l1.229,1.766c-1.773,1.112-4.265,2.468-7.48,4.084V285c0,1.111,0.614,1.675,1.837,1.675h1.719
		c1.174,0,1.837-0.563,1.98-1.675c0.148-1.028,0.282-2.368,0.396-4.018c0.723,0.294,1.415,0.554,2.086,0.782
		c-0.166,1.552-0.34,2.877-0.537,3.972c-0.314,1.864-1.466,2.8-3.46,2.8h-2.649c-2.239,0-3.358-1.104-3.358-3.315V265.605
		L288.646,265.605z"/>
	<path id="XMLID_29_" fill="#FFFFFF" d="M307.581,281.984l1.354,1.475c-2.193,1.646-4.393,3.161-6.596,4.533
		c-0.316-0.553-0.685-1.104-1.129-1.641C303.452,285.06,305.575,283.602,307.581,281.984 M301.283,268.72h11.328
		c-0.464-0.862-0.996-1.763-1.596-2.667l1.793-0.884c0.654,0.977,1.291,1.995,1.912,3.035l-0.98,0.516h11.524v1.72h-23.981V268.72z
		 M304.472,272.622h17.529v8.282h-1.911v-0.981h-5.641v6.232c0,1.936-0.923,2.917-2.768,2.94h-3.213
		c-0.113-0.701-0.24-1.363-0.374-1.986c1.104,0.099,2.05,0.15,2.847,0.15c1.032,0.03,1.543-0.505,1.543-1.594v-5.743h-6.1v1.104
		h-1.913V272.622L304.472,272.622z M320.09,274.313h-13.705v3.918h13.705V274.313z M317.098,283.628l1.151-1.47
		c2.243,1.324,4.391,2.664,6.456,4.02l-1.302,1.688C321.666,286.58,319.564,285.169,317.098,283.628"/>
	<path id="XMLID_28_" fill="#FFFFFF" d="M330.625,290.507h-2.108c2.902-3.299,4.352-7.21,4.352-11.723
		c0-4.427-1.442-8.286-4.327-11.574h2.084c2.902,3.162,4.352,7.024,4.352,11.574C334.978,283.389,333.527,287.298,330.625,290.507"
		/>
	<path id="XMLID_24_" fill="#FFFFFF" d="M346.479,289.391h-1.935v-12.688c-1.187,1.378-2.495,2.712-3.922,3.98
		c-0.347-0.567-0.736-1.167-1.183-1.79c3.154-2.632,5.621-5.562,7.396-8.773h-6.709v-1.817h7.631
		c0.467-1.021,0.868-2.066,1.198-3.143l2.038,0.469c-0.326,0.911-0.685,1.802-1.08,2.674h13.856v1.817H349.03
		c-0.505,0.961-1.061,1.899-1.667,2.822h13.435v13.092c0,2.028-0.985,3.038-2.966,3.038c-0.867,0.015-2.183,0.023-3.943,0.023
		c-0.085-0.553-0.207-1.229-0.368-2.011c1.507,0.114,2.712,0.175,3.627,0.175c1.128,0,1.694-0.562,1.694-1.664v-1.748H346.48v5.543
		H346.479z M358.842,274.652h-12.363v2.922h12.363V274.652z M346.479,282.182h12.363v-2.944h-12.363V282.182z"/>
	<path id="XMLID_19_" fill="#FFFFFF" d="M374.936,279.903c0.475,3.122-0.302,4.872-2.328,5.247c-0.742,0.145-1.561,0.161-2.477,0.05
		c-0.134-0.673-0.313-1.359-0.535-2.064c0.858,0.217,1.612,0.28,2.251,0.2c1.116-0.217,1.485-1.384,1.123-3.512
		c-0.226-1.309-0.971-2.774-2.228-4.406c0.588-1.782,1.36-4.168,2.307-7.144h-3.626v21.408h-1.842v-23.118h7.427v1.71
		c-0.801,2.306-1.564,4.581-2.306,6.824C374.01,276.879,374.759,278.479,374.936,279.903 M376.505,266.635h11.621v12.212h-1.816
		v-0.662h-4.141c0.505,1.47,1.202,2.798,2.081,3.974c1.476-0.934,3.027-2.08,4.66-3.454l1.302,1.542
		c-1.803,1.258-3.397,2.337-4.809,3.236c1.426,1.438,3.216,2.587,5.375,3.457c-0.607,0.587-1.131,1.187-1.566,1.789
		c-4.551-2.385-7.476-5.9-8.783-10.544h-2.107v8.337c1.098-0.488,2.521-1.21,4.289-2.155c0.018,0.749,0.057,1.395,0.127,1.936
		c-1.457,0.705-2.874,1.463-4.246,2.281c-0.326,0.182-0.768,0.52-1.319,1.029l-1.403-1.841c0.489-0.426,0.736-0.966,0.736-1.616
		V266.635L376.505,266.635z M386.31,268.303h-7.988v3.268h7.988V268.303z M386.31,273.21h-7.988v3.312h7.988V273.21z"/>
	<path id="XMLID_15_" fill="#FFFFFF" d="M393.755,276.915c3.646-2.979,6.366-6.483,8.162-10.524l1.941,0.812
		c-2.208,4.594-5.055,8.35-8.531,11.278C394.901,277.94,394.378,277.419,393.755,276.915 M409.714,279.951
		c2.359,3.059,4.345,5.833,5.966,8.336l-1.866,1.227c-0.457-0.749-0.944-1.529-1.459-2.341c-5.395,0.26-9.783,0.527-13.156,0.795
		c-0.619,0.067-1.371,0.206-2.259,0.418l-1.076-2.085c0.741-0.287,1.417-0.74,2.034-1.353c1.916-2.207,3.989-5.462,6.232-9.779
		l2.109,0.958c-2.026,3.478-4.195,6.733-6.501,9.76c3.374-0.11,7.192-0.261,11.46-0.457c-0.928-1.41-1.952-2.905-3.075-4.479
		L409.714,279.951z M407.609,266.761l1.814-0.708c1.584,4.264,4.535,7.646,8.852,10.149c-0.439,0.453-0.949,1.091-1.521,1.911
		C412.245,275.008,409.194,271.224,407.609,266.761"/>
	<path id="XMLID_10_" fill="#FFFFFF" d="M420.979,271.42h18.686v1.813h-18.686V271.42z M422.385,268.429v-1.818h21.183v19.075
		c0,2.326-1.049,3.487-3.143,3.487c-1.177,0-2.784-0.006-4.828-0.03c-0.046-0.556-0.186-1.258-0.417-2.104
		c1.993,0.117,3.555,0.17,4.683,0.17c1.131,0,1.694-0.651,1.694-1.959v-16.82H422.385L422.385,268.429z M423.409,276.127h12.873
		v8.681h-10.934v1.789h-1.939V276.127L423.409,276.127z M434.344,277.893h-8.995v5.148h8.995V277.893z"/>
	<path fill="#FFFFFF" d="M142.19,249.886l-9.768-8.856l3.965-12.566l-12.889-2.784l-2.855-12.874l-12.542,4.036l-8.901-9.72
		l-8.857,9.771l-12.57-3.969l-2.784,12.881l-12.874,2.854l4.036,12.551l-9.72,8.909l9.764,8.845l-3.965,12.575l12.886,2.783
		l2.851,12.869l12.558-4.023l8.901,9.712l8.854-9.768l12.57,3.974l2.784-12.886l12.87-2.862l-4.04-12.547L142.19,249.886z
		 M99.296,279.753c-16.391,0-29.722-13.331-29.722-29.72c0-16.382,13.331-29.714,29.722-29.714
		c16.382,0,29.713,13.332,29.713,29.714C129.009,266.422,115.678,279.753,99.296,279.753z"/>
	<g id="XMLID_3_">
		<path id="XMLID_7_" fill="#FFFFFF" d="M88.286,271.2c1.613,2.393,3.902,3.958,5.649,4.386c7.536,1.865,13.796-0.764,15.361-1.334
			c3.733-1.353,11.436-5.823,14.667-15.797c1.207-3.988,1.956-9.333,0.552-14.525c0.37,3.382-0.517,6.724-2.302,11.171
			C113.336,273.057,93.533,273.593,88.286,271.2"/>
		<path id="XMLID_6_" fill="#FFFFFF" d="M94.36,257.891c-8.475,0-12.109-3.185-12.109-3.185c0.406,3.587,1.616,8.776,3.232,11.165
			c2.822,1.601,10.896,2.798,15.74,1.994c16.954-2.786,26.722-17.739,20.667-30.502c-2.019-3.989-5.026-6.638-8.553-8.996
			c1.884,1.261,3.208,2.997,4.032,5.191C122.43,247.028,110.506,258.688,94.36,257.891"/>
		<path id="XMLID_5_" fill="#FFFFFF" d="M109.572,230.503c-1.616-2.396-4.009-3.658-5.653-4.387
			c-8.077-3.603-24.336,0.398-29.354,16.182c-1.261,3.972-1.695,8.957-0.49,14.143c-0.362-3.39,0.206-6.726,1.991-11.175
			C84.947,227.315,104.325,228.107,109.572,230.503"/>
		<path id="XMLID_4_" fill="#FFFFFF" d="M103.919,242.472c8.476,0,12.114,3.192,12.114,3.192c-0.41-3.594-1.617-8.774-3.233-11.17
			c-2.827-1.601-10.898-2.792-15.743-1.996c-16.95,2.795-26.442,17.735-20.387,30.506c2.018,3.988,5.076,6.521,8.305,8.914
			c-1.612-1.594-3.086-2.985-4.063-5.109C74.958,253.805,87.77,241.676,103.919,242.472"/>
	</g>
</g>
</svg>
