<?xml version="1.0" encoding="utf-8"?>
<!-- Generator: Adobe Illustrator 16.0.0, SVG Export Plug-In . SVG Version: 6.00 Build 0)  -->
<!DOCTYPE svg PUBLIC "-//W3C//DTD SVG 1.1//EN" "http://www.w3.org/Graphics/SVG/1.1/DTD/svg11.dtd">
<svg version="1.1" id="Layer_1" xmlns="http://www.w3.org/2000/svg" xmlns:xlink="http://www.w3.org/1999/xlink" x="0px" y="0px"
	 width="500px" height="500px" viewBox="0 0 500 500" enable-background="new 0 0 500 500" xml:space="preserve">
<g id="XMLID_74_">
	<g id="XMLID_108_">
		<g id="XMLID_127_">
			<g id="XMLID_134_">
				<rect id="XMLID_72_" x="274.537" y="335.821" fill="#FFFFFF" width="22.867" height="3.266"/>
				<g id="XMLID_135_">
					<polygon id="XMLID_71_" fill="#FFFFFF" points="303.91,371.754 268.014,371.754 268.014,388.102 271.279,388.102 
						271.279,375.02 300.658,375.02 300.658,384.836 272.914,384.836 272.914,388.102 303.91,388.102 303.926,388.102 					"/>
					<g id="XMLID_137_">
						<polygon id="XMLID_70_" fill="#FFFFFF" points="266.342,342.35 266.342,345.616 307.186,345.616 307.186,352.146 
							310.451,352.146 310.451,342.374 310.451,342.35 						"/>
						<rect id="XMLID_69_" x="261.438" y="342.374" fill="#FFFFFF" width="3.266" height="9.783"/>
					</g>
					<polygon id="XMLID_67_" fill="#FFFFFF" points="303.926,355.424 303.926,355.424 303.926,355.424 303.926,355.424 
						303.926,355.424 303.926,348.88 268.014,348.88 268.014,358.807 271.279,358.807 271.279,352.146 300.658,352.146 
						300.658,353.181 261.438,368.257 261.438,371.757 285.938,362.337 310.443,371.757 310.443,368.257 290.492,360.586 					"/>
				</g>
			</g>
			<g id="XMLID_128_">
				<g id="XMLID_129_">
					<polygon id="XMLID_66_" fill="#FFFFFF" points="212.417,365.216 212.417,368.482 223.86,368.482 223.86,383.197 
						227.128,383.197 227.128,368.482 238.569,368.482 238.569,365.216 					"/>
					<rect id="XMLID_65_" x="212.425" y="384.836" fill="#FFFFFF" width="26.138" height="3.266"/>
					<polygon id="XMLID_64_" fill="#FFFFFF" points="238.569,342.362 238.569,342.359 238.569,342.359 238.569,339.093 
						238.536,339.093 238.536,339.087 212.417,339.093 212.417,342.359 233.094,342.359 212.417,357.871 212.417,361.953 
						212.417,361.953 212.417,361.958 225.51,352.148 238.569,361.943 238.569,357.86 228.234,350.108 					"/>
					<polygon id="XMLID_62_" fill="#FFFFFF" points="202.683,335.821 199.2,335.821 196.79,342.35 189.554,342.35 189.554,345.616 
						195.582,345.616 189.557,361.918 189.56,361.92 189.557,361.93 189.604,361.95 189.557,361.95 189.557,365.216 
						197.728,365.216 197.728,378.292 189.557,378.292 189.557,381.558 197.728,381.558 197.728,388.093 200.994,388.093 
						200.994,381.558 209.165,381.558 209.165,378.292 200.994,378.292 200.994,365.216 209.165,365.216 209.165,361.95 
						200.994,361.95 200.994,358.689 197.728,358.689 197.728,361.95 193.032,361.95 199.065,345.616 209.165,345.616 
						209.165,342.35 200.27,342.35 					"/>
				</g>
			</g>
		</g>
		<g id="XMLID_109_">
			<g id="XMLID_110_">
				<g id="XMLID_111_">
					<path id="XMLID_50_" fill="#FFFFFF" d="M206.761,322.997v-29.371h3.656v29.371H206.761z"/>
					<rect id="XMLID_49_" x="152.563" y="299.366" fill="#FFFFFF" width="3.653" height="23.651"/>
					<rect id="XMLID_48_" x="140.308" y="293.614" fill="#FFFFFF" width="28.163" height="3.27"/>
					<polygon id="XMLID_47_" fill="#FFFFFF" points="226.73,293.626 223.062,293.626 223.062,322.997 226.718,322.997 					"/>
					<polygon id="XMLID_46_" fill="#FFFFFF" points="249.671,293.626 249.671,318.945 249.563,318.945 229.212,295.771 
						229.212,300.387 249.079,322.997 253.328,322.997 253.328,293.626 					"/>
					<g id="XMLID_41_">
						<polygon id="XMLID_45_" fill="#FFFFFF" points="310.525,315.574 300.27,293.611 296.455,293.611 308.52,319.934 						"/>
						<polygon id="XMLID_44_" fill="#FFFFFF" points="323.539,293.611 310.018,322.997 313.994,322.997 327.354,293.611 						"/>
					</g>
					<polygon id="XMLID_40_" fill="#FFFFFF" points="355.711,322.997 359.691,322.997 344.859,293.629 340.719,293.629 
						325.51,322.997 329.643,323.041 334.123,314.143 348.469,314.143 347.033,311.278 335.449,311.278 342.652,296.622 					"/>
					<path id="XMLID_38_" fill="#FFFFFF" d="M173.971,317.632l3.366-1.519c2.369,3.284,5.108,4.923,8.211,4.923
						c1.332,0,2.763-0.07,3.93-0.536c1.166-0.467,2.055-1.091,2.664-1.874c0.61-0.782,0.915-1.615,0.915-2.491
						c0-1-0.448-1.977-1.346-2.938c-1.24-1.322-3.685-3.081-6.969-4.942c-3.304-1.877-5.36-3.234-6.169-4.072
						c-1.398-1.404-2.099-2.923-2.099-4.56c0-1.296,0.413-2.477,1.237-3.545c0.826-1.066,1.99-1.908,3.489-2.521
						c1.495-0.616,3.125-0.924,4.887-0.924c1.867,0,3.612,0.349,5.239,1.044c1.622,0.697,3.343,1.976,5.155,3.841l-3.231,1.84
						c-1.492-1.485-2.762-2.462-3.812-2.938c-1.05-0.469-2.192-0.706-3.434-0.706c-1.598,0-3.207,0.511-4.222,1.237
						c-1.014,0.729-1.521,1.63-1.521,2.694c0,0.65,0.178,1.278,0.539,1.886c0.358,0.606,1.014,1.27,1.964,1.984
						c0.521,0.378,2.226,1.372,5.119,2.979c3.431,1.905,5.676,3.366,6.951,4.853c1.272,1.486,1.911,2.979,1.911,4.477
						c0,2.161-0.686,4.125-2.867,5.72c-2.181,1.593-4.831,2.39-7.954,2.39c-2.409,0-4.589-0.48-6.544-1.448
						C177.425,321.52,175.622,319.901,173.971,317.632z"/>
					<path id="XMLID_35_" fill="#FFFFFF" d="M277.09,293.125c4.434,0,8.143,1.46,11.127,4.383c2.986,2.917,4.482,6.512,4.482,10.78
						c0,4.23-1.492,7.819-4.471,10.766s-6.611,4.418-10.898,4.418c-4.338,0-8-1.466-10.988-4.397
						c-2.986-2.932-4.479-6.485-4.479-10.648c0-2.776,0.682-5.348,2.039-7.723c1.361-2.365,3.217-4.221,5.562-5.564
						C271.816,293.793,274.357,293.125,277.09,293.125z M277.223,296.183c-2.123,0-4.135,0.548-6.033,1.639
						c-1.9,1.091-3.387,2.56-4.451,4.41c-1.068,1.85-1.602,3.907-1.602,6.182c0,3.364,1.18,6.208,3.541,8.523
						c2.363,2.316,5.211,3.478,8.545,3.478c2.221,0,4.285-0.533,6.176-1.598c1.895-1.067,3.373-2.521,4.434-4.374
						c1.062-1.848,1.592-3.902,1.592-6.164c0-2.245-0.529-4.28-1.592-6.095c-1.061-1.817-2.557-3.271-4.482-4.362
						S279.383,296.183,277.223,296.183z"/>
				</g>
			</g>
		</g>
	</g>
	<g id="XMLID_75_">
		<path id="XMLID_58_" fill="#FFFFFF" d="M250.257,111.898c42.483,0,77.047,34.563,77.047,77.049
			c0,18.506-6.66,36.396-18.752,50.375c-11.967,13.835-28.463,22.983-46.449,25.762c-3.01,0.461-5.814-1.598-6.277-4.6
			c-0.467-3.002,1.594-5.813,4.6-6.277c15.406-2.38,29.541-10.224,39.803-22.086c10.361-11.979,16.068-27.312,16.068-43.174
			c0-36.416-29.625-66.042-66.04-66.042c-36.416,0-66.039,29.626-66.039,66.042c0,15.861,5.705,31.194,16.069,43.174
			c10.259,11.862,24.396,19.706,39.803,22.086c3.005,0.464,5.063,3.275,4.6,6.277c-0.466,3.002-3.283,5.058-6.28,4.6
			c-17.986-2.778-34.48-11.927-46.449-25.761c-12.09-13.98-18.752-31.87-18.752-50.376
			C173.208,146.462,207.772,111.898,250.257,111.898z"/>
		<path id="XMLID_57_" fill="#FFFFFF" d="M250.257,155.926c10.483,0,20.11,4.812,26.413,13.202c1.828,2.434,1.334,5.881-1.094,7.708
			c-2.43,1.823-5.881,1.334-7.707-1.094c-4.203-5.6-10.625-8.811-17.612-8.811c-6.988,0-13.41,3.211-17.614,8.811
			c-1.826,2.428-5.277,2.92-7.705,1.094c-2.431-1.827-2.92-5.274-1.096-7.708C230.145,160.737,239.774,155.926,250.257,155.926z"/>
		<path id="XMLID_56_" fill="#FFFFFF" d="M223.314,188.944c2.562,0,4.855,1.8,5.386,4.406c1.425,7.007,6.192,12.906,12.757,15.773
			c2.783,1.217,4.055,4.462,2.835,7.247c-1.214,2.785-4.459,4.058-7.245,2.838c-9.842-4.304-16.995-13.152-19.13-23.666
			c-0.607-2.979,1.316-5.881,4.295-6.488C222.581,188.982,222.951,188.944,223.314,188.944z"/>
		<path id="XMLID_55_" fill="#FFFFFF" d="M277.201,188.944c0.363,0,0.732,0.038,1.102,0.111c2.979,0.606,4.902,3.513,4.297,6.488
			c-2.139,10.516-9.293,19.361-19.131,23.665c-2.789,1.22-6.029-0.053-7.248-2.837c-1.217-2.785,0.053-6.031,2.838-7.248
			c6.562-2.867,11.328-8.766,12.754-15.773C272.344,190.744,274.639,188.944,277.201,188.944z"/>
		<path id="XMLID_54_" fill="#FFFFFF" d="M299.467,188.947c0.201,0,0.406,0.009,0.611,0.032c3.02,0.335,5.197,3.053,4.865,6.075
			c-2.576,23.256-19.635,42.362-42.461,47.546c-2.957,0.675-5.912-1.182-6.586-4.146c-0.672-2.968,1.184-5.917,4.148-6.588
			c18.252-4.143,31.9-19.424,33.959-38.022C294.314,191.028,296.699,188.947,299.467,188.947z"/>
		<path id="XMLID_53_" fill="#FFFFFF" d="M250.257,133.91c23.276,0,44.131,14.748,51.889,36.689
			c1.014,2.867-0.488,6.011-3.355,7.024c-2.867,1.015-6.01-0.489-7.021-3.354c-6.207-17.557-22.889-29.354-41.511-29.354
			c-18.623,0-35.305,11.797-41.515,29.354c-1.012,2.864-4.152,4.368-7.022,3.354c-2.864-1.015-4.368-4.157-3.354-7.024
			C206.125,148.658,226.979,133.91,250.257,133.91z"/>
		<path id="XMLID_52_" fill="#FFFFFF" d="M201.047,188.947c2.77,0,5.15,2.082,5.465,4.896c2.058,18.6,15.703,33.88,33.957,38.023
			c2.964,0.671,4.822,3.62,4.148,6.588c-0.675,2.961-3.621,4.819-6.585,4.146c-22.824-5.184-39.888-24.291-42.462-47.546
			c-0.335-3.022,1.844-5.741,4.863-6.075C200.642,188.956,200.845,188.947,201.047,188.947z"/>
	</g>
</g>
</svg>
