<?xml version="1.0" encoding="utf-8"?>
<!-- Generator: Adobe Illustrator 16.0.0, SVG Export Plug-In . SVG Version: 6.00 Build 0)  -->
<!DOCTYPE svg PUBLIC "-//W3C//DTD SVG 1.1//EN" "http://www.w3.org/Graphics/SVG/1.1/DTD/svg11.dtd">
<svg version="1.1" id="Layer_1" xmlns="http://www.w3.org/2000/svg" xmlns:xlink="http://www.w3.org/1999/xlink" x="0px" y="0px"
	 width="1600px" height="1000px" viewBox="0 0 1600 1000" enable-background="new 0 0 1600 1000" xml:space="preserve">
<g>
	<path  d="M960.403,645.916c-3.642,12.714-6.047,23.007-7.942,31.255c-4.867,20.918-7.863,33.76-24.229,34.655
		l-0.164,0.044l-1.253,0.039l-1.915-0.083c-16.363-0.896-19.316-13.723-24.184-34.655c-1.939-8.248-4.324-18.541-7.981-31.255
		c-12.553-43.813-37.715-79.841-60.64-106.752c-23.021,3.121-32.089,7.523-48.174,25.076
		c-31.977,34.834-39.664,39.717-55.136,39.717c-12.93,0-88,3.991-110.002,5.366c6.156-11.252,15.033-17.103,27.183-18.585
		c26.29-1.595,60.128-1.967,82.819-3.688c7.49-0.565,12.876-2.5,42.737-34.306c16.74-17.812,25-24.641,47.031-28.763
		c-6.391-6.935-12.391-13.066-17.491-18.301c-12.724-10.53-21.801-19.952-30.187-31.448c-0.251-0.346-0.816-1.152-2.399-3.576
		c-22.202-31.185-33.945-68.285-33.945-107.319c0-48.942,18.44-93.675,48.707-127.608H579.285
		c-24.071,0-43.559,19.495-43.559,43.576V720.7c0,24.059,19.487,43.573,43.559,43.573h441.4c24.062,0,43.588-19.515,43.588-43.573
		V495.537v-0.977c-3.771,3.711-7.656,7.243-11.707,10.646C1026.842,531.464,979.277,580.076,960.403,645.916 M655.368,632.609
		h-33.55c-5.631,0-7.247,7.113-9.321,24.323l-0.149,2.729h41.151l-0.76,10.576H611.57l-1.739,25.272
		c-0.245,3.185,3.799,6.022,14.664,6.434h26.055l-0.778,10.601h-38.082c-0.761-0.024-1.611,0-2.51,0
		c-20.822,0-24.675-4.275-24.345-9.207l2.343-33.1l0.731-10.576l0.086-1.399c0.195-1.242,0.362-2.705,0.521-4.451
		c1.018-12.519,1.494-31.804,17.67-31.804h49.952L655.368,632.609z M744.381,632.609h-25.734l-5.545,79.936h-24.436l5.594-79.936
		h-25.692l0.735-10.602h75.805L744.381,632.609z M849.433,644.829c-0.656-0.22-15.513-9.817-31.644-7.699
		c-26.41,3.468-33.35,25.517-33.103,35.785c0.245,9.094,4.212,30.164,33.222,35.462c16.132,2.965,29.577-7.915,30.309-8.175
		l-0.2,13.718c-0.086,0.063-8.713,7.808-39.797,7.808c-15.628,0-52.618-13.458-51.127-48.26
		c1.749-40.369,35.167-50.687,60.892-49.997c18.479,0.509,31.69,5.107,31.69,5.107L849.433,644.829z"/>
	<path  d="M925.47,438.77c17.308-4.703,40.721-12.665,40.721-46.562c0-0.653,0-23.617-0.029-24.272
		c-1.223-49.659-47.855-44.708-79.175-44.573l0.081,115.718C893.84,440.602,906.599,442.092,925.47,438.77"/>
	<path  d="M1020.683,235.727H804.372c-33.623,32.196-54.563,77.492-54.563,127.61
		c0,35.898,10.775,70.008,31.194,98.602l0.2,0.274c0,0,1.373,2.164,1.864,2.795c7.744,10.688,16.129,19.368,27.997,29.201
		l0.606,0.55c6.883,7.003,15.354,15.682,24.426,25.799l-0.195-228.018l98.971-0.022c53.561,0,81.555,9.273,82.685,62.833
		c0.047,1.008,0.047,37.272,0.047,38.319c0,42.289-20.168,72.365-86.303,78.277v0.149c-19.843,1.788-36.133,1.509-44.188,1.182
		l0.034,118.84c8.111,15.219,15.148,31.744,20.253,49.59c3.776,13.106,6.206,23.6,8.146,31.994
		c5.186,22.2,6.123,22.831,10.865,22.938h0.161h0.154c4.784-0.107,5.712-0.738,10.865-22.938c1.935-8.395,4.378-18.888,8.141-31.994
		c20.008-69.792,69.606-120.302,96.221-147.434l0.572-0.543c7.894-6.567,15.188-13.891,21.746-21.745V279.305
		C1064.271,255.229,1044.744,235.727,1020.683,235.727"/>
</g>
</svg>
