<?xml version="1.0" encoding="utf-8"?>
<!-- Generator: Adobe Illustrator 16.0.0, SVG Export Plug-In . SVG Version: 6.00 Build 0)  -->
<!DOCTYPE svg PUBLIC "-//W3C//DTD SVG 1.1//EN" "http://www.w3.org/Graphics/SVG/1.1/DTD/svg11.dtd">
<svg version="1.1" id="Layer_1" xmlns="http://www.w3.org/2000/svg" xmlns:xlink="http://www.w3.org/1999/xlink" x="0px" y="0px"
	 width="1600px" height="1000px" viewBox="0 0 1600 1000" enable-background="new 0 0 1600 1000" xml:space="preserve">
<g>
	<g>
		<path  d="M386.47,367.508l-2.843,100.922l-85.4-58.669c5.396-5.957,11.45-11.428,17.977-16.299
			c6.565-4.909,13.647-9.234,21.124-12.865c7.473-3.658,15.382-6.622,23.597-8.855C369.145,369.542,377.693,368.086,386.47,367.508"
			/>
		<path  d="M292.247,416.203l85.375,58.971l-112.15,33.537c-0.507-2.155-0.911-4.361-1.268-6.611
			c-0.322-2.215-0.604-4.457-0.792-6.729c-0.171-2.266-0.256-4.595-0.286-6.897c0-2.309,0.065-4.653,0.229-7.016
			c0.414-6.147,1.415-12.161,2.929-18.052c1.488-5.85,3.482-11.578,5.995-17.071c2.438-5.477,5.419-10.729,8.754-15.786
			C284.39,425.509,288.142,420.735,292.247,416.203"/>
		<path  d="M433.64,372.352c4.115,1.034,8.152,2.341,12.085,3.808c3.9,1.484,7.69,3.221,11.351,5.079
			c3.644,1.898,7.151,3.981,10.517,6.256c3.387,2.264,6.576,4.757,9.575,7.37l-85.015,75.104l2.482-101.113
			c3.453-0.237,6.818-0.338,10.156-0.289c3.344,0.052,6.655,0.228,9.895,0.479c3.254,0.322,6.459,0.729,9.628,1.285
			C427.457,370.879,430.55,371.545,433.64,372.352"/>
		<path  d="M480.952,404.316c4.882,4.218,9.273,8.868,13.214,13.902c3.919,5.104,7.312,10.604,10.132,16.381
			c2.836,5.837,5.041,12.017,6.558,18.456c1.572,6.535,2.449,13.299,2.574,20.322c0.016,1.476,0,2.969-0.055,4.448
			c-0.035,1.464-0.127,2.97-0.246,4.424c-0.111,1.47-0.267,2.924-0.452,4.405c-0.202,1.454-0.396,2.926-0.654,4.367l-116.427-11.227
			L480.952,404.316z"/>
		<path  d="M379.379,486.504l-57.718,99.211c-7.106-3.256-13.644-7.167-19.631-11.738
			c-5.957-4.503-11.343-9.614-16.018-15.238c-4.667-5.58-8.671-11.623-11.894-18.107c-3.229-6.446-5.706-13.298-7.38-20.454
			L379.379,486.504z"/>
		<path  d="M506.742,501.342c-1.167,7.015-3.087,13.85-5.678,20.493c-2.592,6.639-5.856,13.042-9.753,19.154
			c-3.896,6.126-8.4,11.916-13.37,17.292c-5.041,5.443-10.574,10.462-16.593,14.994l5.891,54.948l-47.216-33.955
			c-2.596,0.818-5.285,1.522-7.953,2.182c-2.662,0.613-5.385,1.17-8.098,1.626c-2.742,0.495-5.528,0.866-8.287,1.164
			c-2.804,0.303-5.609,0.496-8.435,0.614c-3.68,0.171-7.305,0.171-10.874,0c-3.594-0.129-7.094-0.45-10.577-0.889
			c-3.44-0.465-6.832-1.064-10.146-1.785c-3.353-0.73-6.592-1.576-9.777-2.574c-1.135-0.373-2.305-0.739-3.447-1.151
			c-1.151-0.4-2.246-0.801-3.377-1.221c-1.118-0.423-2.214-0.884-3.3-1.359c-1.107-0.434-2.207-0.924-3.264-1.412l57.589-99.512
			L506.742,501.342z"/>
	</g>
	<path  d="M574.563,389.005h16.496v130.078h31.04V389.005h16.157V371.01h-63.693V389.005z M705.803,414.201
		c0-8.744-2.684-15.273-8.074-19.588c-5.391-4.31-13.58-6.459-24.574-6.459c-11.31,0-19.664,2.207-25.051,6.611
		c-5.381,4.417-8.081,11.317-8.081,20.693v10.16h28.168v-14.079c0-3.736,0.35-6.072,1.054-7.037c0.682-0.938,1.988-1.439,3.91-1.439
		c1.386,0,2.534,0.422,3.442,1.188c0.914,0.766,1.353,1.762,1.353,2.954v26.46c-15.469,5.442-25.656,10.214-30.571,14.35
		c-4.901,4.128-7.355,11.708-7.355,22.708v15.874c0,14.024,1.683,23.163,5.041,27.41c3.363,4.228,9.428,6.353,18.167,6.353
		c4.055,0,7.393-0.614,10.015-1.841c2.598-1.249,4.772-3.208,6.474-5.887v6.451h26.398v-97.387c0-2.089-0.049-4.254-0.153-6.442
		C705.868,414.61,705.803,414.256,705.803,414.201 M677.95,501.729c0,1.276-0.439,2.304-1.353,3.117
		c-0.908,0.818-2.056,1.235-3.442,1.235c-1.816,0-3.092-0.485-3.84-1.435c-0.75-0.962-1.124-3.379-1.124-7.271v-31.42
		c0-4.522,0.688-7.729,2.09-9.639c1.375-1.904,3.933-3.581,7.669-5.068V501.729z M720.844,519.083h28.814V371.01h-28.814V519.083z
		 M823.608,439.481c3.097-5.785,5.384-12.376,6.884-19.782c1.495-7.418,2.237-16.113,2.237-26.15v-3.474h-28.168
		c-0.109,1.115-0.167,2.673-0.167,4.646c-0.951,24.197-4.21,38.347-9.745,42.443V371.01h-28.193v148.073h28.193V455.57l3.346-2.427
		c2.246,3.175,3.838,9.065,4.815,17.632c0.954,8.562,1.532,24.672,1.751,48.308h28.653c-0.752-24.132-1.841-41.978-3.289-53.55
		C828.482,453.955,826.388,445.276,823.608,439.481 M848.417,385.727h28.817v-16.609h-28.817V385.727z M848.417,519.083h28.817
		V390.075h-28.817V519.083z M936.926,388.593c-4.162,0-7.768,0.695-10.806,2.101c-3.038,1.416-5.101,3.398-6.163,5.932v-6.55
		h-25.928v129.008h27.853V410.912c0-2.623,0.393-4.412,1.2-5.403c0.802-0.976,2.159-1.48,4.08-1.48c1.599,0,2.875,0.428,3.841,1.271
		c0.954,0.854,1.445,2.023,1.445,3.492v110.292h27.84v-96.629c0-13.839-1.707-22.935-5.11-27.309
		C951.747,390.762,945.67,388.593,936.926,388.593 M1012.473,396.192c-2.465-2.735-4.964-4.709-7.521-5.86
		c-2.563-1.16-5.672-1.738-9.289-1.738c-8.748,0-14.809,2.168-18.158,6.552c-3.366,4.374-5.057,13.47-5.057,27.309v56.73
		c0,13.773,1.708,22.876,5.133,27.361c3.415,4.479,9.433,6.731,18.082,6.731c3.306,0,6.224-0.511,8.728-1.495
		c2.503-0.992,4.396-2.403,5.672-4.233v2.434c0,3.254-1.193,5.635-3.589,7.2c-2.416,1.543-6.119,2.33-11.137,2.33
		c-3.409,0-6.774-0.369-10.08-1.107c-3.306-0.742-6.721-1.888-10.239-3.459l-7.522,14.726c4.582,1.48,9.465,2.576,14.646,3.267
		c5.171,0.72,10.801,1.08,16.877,1.08c14.416,0,24.545-2.037,30.42-6.091c5.87-4.071,8.793-12.933,8.793-26.624V390.075h-25.758
		V396.192z M1010.062,493.464c0,1.2-0.452,2.193-1.352,2.962c-0.917,0.801-2.057,1.172-3.442,1.172
		c-1.932,0-3.229-0.458-3.928-1.374c-0.683-0.925-1.046-3.268-1.046-7.1V412.62c0-3.829,0.363-6.206,1.046-7.152
		c0.698-0.965,1.996-1.439,3.928-1.439c1.483,0,2.667,0.412,3.518,1.219c0.847,0.819,1.276,1.918,1.276,3.325V493.464z
		 M1121.541,377.36c-5.504-4.23-15.655-6.35-30.487-6.35h-35.052v148.073h35.052c14.832,0,24.983-2.122,30.487-6.353
		c5.498-4.222,8.237-12.183,8.237-23.824v-87.726C1129.778,389.54,1127.039,381.587,1121.541,377.36 M1099.051,488.083
		c0,5.708-0.77,9.293-2.312,10.781c-1.549,1.484-4.516,2.226-8.881,2.226h-1.603V389.005h1.603c4.365,0,7.332,0.742,8.881,2.226
		c1.543,1.478,2.312,5.089,2.312,10.794V488.083z M1207.732,414.201c0-8.744-2.689-15.273-8.09-19.588
		c-5.368-4.31-13.582-6.459-24.563-6.459c-11.307,0-19.675,2.207-25.042,6.611c-5.396,4.417-8.096,11.317-8.096,20.693v10.16h28.18
		v-14.079c0-3.736,0.333-6.072,1.053-7.037c0.682-0.938,1.99-1.439,3.905-1.439c1.38,0,2.536,0.422,3.431,1.188
		c0.923,0.766,1.354,1.762,1.354,2.954v26.46c-15.453,5.442-25.626,10.214-30.552,14.35c-4.91,4.128-7.37,11.708-7.37,22.708v15.874
		c0,14.024,1.691,23.163,5.058,27.41c3.354,4.228,9.415,6.353,18.164,6.353c4.036,0,7.386-0.614,9.998-1.841
		c2.608-1.249,4.784-3.208,6.47-5.887v6.451h26.428v-97.387c0-2.089-0.049-4.254-0.174-6.442
		C1207.775,414.61,1207.732,414.256,1207.732,414.201 M1179.863,501.729c0,1.276-0.431,2.304-1.354,3.117
		c-0.895,0.818-2.051,1.235-3.431,1.235c-1.821,0-3.093-0.485-3.835-1.435c-0.764-0.962-1.123-3.379-1.123-7.271v-31.42
		c0-4.522,0.688-7.729,2.068-9.639c1.38-1.904,3.965-3.581,7.674-5.068V501.729z M1253.35,369.117l-28.959,6.017v14.941h-6.098
		v15.224h6.098v96.634c0,8.4,1.478,13.684,4.468,15.816c2.973,2.166,8.165,3.24,15.535,3.24c2.46,0,4.958-0.158,7.517-0.42
		c2.559-0.294,5.116-0.715,7.68-1.264v-13.225h-1.429c-1.506,0-2.689-0.256-3.529-0.755c-0.856-0.505-1.282-1.192-1.282-2.117
		v-97.91h6.24v-15.224h-6.24V369.117z M1334.326,415.253c-0.104-0.644-0.158-0.998-0.158-1.053c0-8.744-2.684-15.273-8.084-19.588
		c-5.4-4.31-13.588-6.459-24.552-6.459c-11.318,0-19.659,2.207-25.06,6.611c-5.396,4.417-8.084,11.317-8.084,20.693v10.16h28.169
		v-14.079c0-3.736,0.332-6.072,1.053-7.037c0.687-0.938,1.984-1.439,3.922-1.439c1.363,0,2.52,0.422,3.426,1.188
		c0.916,0.766,1.379,1.762,1.379,2.954v26.46c-15.49,5.442-25.69,10.214-30.579,14.35c-4.914,4.128-7.369,11.708-7.369,22.708
		v15.874c0,14.024,1.686,23.163,5.04,27.41c3.382,4.228,9.415,6.353,18.165,6.353c4.069,0,7.396-0.614,10.004-1.841
		c2.613-1.249,4.784-3.208,6.49-5.887v6.451h26.418v-97.387C1334.506,419.607,1334.457,417.441,1334.326,415.253 M1306.337,501.729
		c0,1.276-0.463,2.304-1.379,3.117c-0.906,0.818-2.062,1.235-3.426,1.235c-1.822,0-3.104-0.485-3.852-1.435
		c-0.741-0.962-1.123-3.379-1.123-7.271v-31.42c0-4.522,0.687-7.729,2.078-9.639c1.386-1.904,3.96-3.581,7.701-5.068V501.729z"/>
	<path  d="M580.632,616.729c-1.348-2.457-2.619-4.124-4.68-5.943c4.909-5.07,11.018-13.312,14.106-22.267
		c-5.071,0.082-9.511,0.317-12.285,0.631v-6.729c2.938,0.395,7.61,0.63,12.841,0.63v-10.776c-3.562,0.791-6.977,1.347-8.957,1.743
		c-0.396-1.9-0.871-3.087-2.296-5.703c3.808-0.24,9.186-0.951,13.233-2.138c3.726-1.11,7.124-2.458,10.219-3.966
		c0.871,2.379,2.534,4.912,3.488,5.708c1.348,1.107,1.113,1.585-0.158,1.345c-1.825-0.316-3.965,0-9.745,1.584v12.203
		c4.116-0.077,7.056-0.235,9.587-0.63v6.729c-2.531-0.313-5.471-0.549-9.587-0.549v28.76c0,3.885,0.235,8.873,0.63,13.63h-7.053
		c0.398-4.757,0.638-9.745,0.638-13.63v-19.012C588.157,605.558,585.143,610.627,580.632,616.729 M607.806,603.334l-4.831,3.251
		c-1.429-2.694-3.485-5.468-5.946-8.162l4.042-3.088C603.371,598.188,605.588,600.803,607.806,603.334 M610.66,583.133
		c-1.265-1.429-3.089-2.615-5.149-3.33c6.495-5.309,11.57-13.072,13.787-21.08c2.616,1.271,5.544,2.3,7.686,2.617
		c1.503,0.238,1.584,0.952,0.313,1.506c-1.183,0.558-2.378,1.664-4.356,4.6h12.683c3.485,0,7.366-0.164,8.867-0.322
		c-3.802,11.411-9.18,17.91-17.828,23.695c1.825,0.791,4.448,1.345,5.552,1.427c0.871,0.075,1.104,0.712,0.156,1.427
		c-1.187,0.871-2.057,1.581-3.645,3.324h11.887c2.929,0,6.104-0.158,7.445-0.319c-2.607,11.174-7.92,21.083-15.371,26.388
		c-6.175,4.44-14.423,7.056-25.352,8.722c-0.246-1.587-1.11-3.33-3.965-6.423c8.795-0.472,17.032-2.455,22.901-5.626
		c-1.985-2.774-4.838-6.02-7.217-8.235l4.444-3.726c2.135,2.374,4.989,5.624,7.685,8.472c3.56-3.403,6.816-8.472,8.243-13.86
		h-15.298c-3.164,3.327-8.637,8.714-12.122,11.644c-1.506-1.658-2.535-2.454-5.862-4.039c7.135-3.562,14.259-11.014,18.622-17.987
		c-3.883,2.218-9.666,4.756-15.611,6.657c-0.554-1.666-1.819-3.327-4.359-5.705c7.209-1.192,13.152-3.252,17.118-5.624
		c-1.511-2.062-3.567-4.518-5.548-6.5l4.037-3.883c1.746,2.141,4.123,4.754,6.109,6.896c4.516-3.883,7.683-7.926,8.945-11.174
		h-16.001C617.081,575.921,613.279,580.518,610.66,583.133"/>
	<path  d="M675.832,591.609v-6.499c4.116,0.556,8.316,0.712,16.557,0.712c5.946,0,10.697-0.156,15.612-0.633v6.42
		c-3.649-0.316-7.925-0.557-12.996-0.633c-3.57,9.429-7.606,19.174-9.663,22.185l16.318-3.802c-1.269-3.094-2.615-6.025-3.8-7.841
		l5.627-2.619c1.502,4.2,5.229,11.962,7.446,16.323l-6.342,3.009c-0.24-1.187-0.714-2.694-1.271-4.274
		c-15.132,3.721-20.831,6.178-23.769,8.475c-0.635-2.458-2.06-5.627-3.404-7.766c2.929-1.266,4.279-2.932,6.576-8.236
		c2.22-5.236,4.36-11.095,5.389-15.453C682.407,591.134,678.524,591.293,675.832,591.609 M693.895,574.094
		c-8.318,0-11.258,0.24-13.866,0.641v-6.974c2.695,0.476,5.704,0.714,13.945,0.714c6.102,0,9.112-0.238,12.121-0.64v6.899
		C703.085,574.334,699.677,574.094,693.895,574.094 M720.361,559.519c2.697,0.715,5.226,1.104,8.324,1.104
		c1.578,0,1.739,0.322,0.626,1.588c-0.949,1.109-1.739,3.25-2.296,13.395c6.184-0.159,15.612-0.797,17.906-1.271
		c-0.552,2.144-1.105,5.547-1.264,9.669l-1.347,30.189c-0.562,12.281-2.619,14.264-13.79,16.083
		c-0.551-3.246-1.978-6.02-4.358-8.633c8.957,0.71,11.253-0.081,11.57-5.234l2.062-35.575h-11.1
		c-0.317,6.654-0.785,12.124-1.662,18.462c-1.9,13.707-5.31,21.235-19.173,31.777c-1.584-2.065-3.881-3.65-7.686-4.754
		c12.437-6.581,17.594-11.414,19.889-23.219c1.031-5.07,1.983-13.708,2.457-22.189c-4.751,0.163-10.377,0.635-13.549,1.036v-6.815
		c3.327,0.389,7.839,0.55,13.866,0.55C721.073,569.105,720.999,563.08,720.361,559.519"/>
	<path  d="M818.492,595.649c0,5.071-4.123,9.192-9.194,9.192c-5.069,0-9.196-4.121-9.196-9.192
		s4.127-9.189,9.196-9.189C814.527,586.46,818.492,590.736,818.492,595.649"/>
	<path  d="M875.261,580.991v-5.626c4.042,0.315,9.027,0.556,15.61,0.556v-7.446c0-2.937-0.315-5.47-0.796-8.241
		c2.373,0.231,4.681,0.316,7.135,0.316c1.423,0,1.582,0.946,0.551,1.342c-0.949,0.4-1.112,0.873-1.112,2.302v11.728
		c5.869-0.084,11.569-0.401,14.738-0.556v5.626c-2.93-0.158-8.799-0.474-14.738-0.556c0,4.836,0.163,8.479,0.562,12.6h-6.9
		c0.321-3.802,0.562-7.129,0.562-11.645c-3.802,7.523-6.736,10.854-13.555,15.688c-1.184-1.743-2.929-3.246-5.863-4.758
		c6.338-1.977,12.207-6.891,15.692-11.803C882.308,580.593,878.424,580.833,875.261,580.991 M910.678,617.678
		c-1.663,1.824-2.536,2.932-3.485,4.915c-2.062-1.19-4.201-2.303-6.578-3.248c-4.599,4.829-11.254,7.205-22.981,9.902
		c-1.031-2.06-3.328-4.833-5.384-6.415c9.66-0.239,17.352-1.669,22.424-5.553c-3.965-1.187-8.563-2.057-13.946-2.773
		c1.896-3.328,3.321-6.258,4.674-9.587c-4.914,0.084-8.242,0.24-10.855,0.639v-5.71c2.771,0.24,7.288,0.399,12.443,0.473
		c0.633-1.975,1.26-4.115,1.974-6.573c2.384,0.954,4.048,1.348,6.421,1.506c2.062,0.161,2.062,0.554,0.48,1.581
		c-1.032,0.719-1.67,1.589-2.701,3.486h10.697c2.144,0,3.884-0.155,5.471-0.548c-1.745,6.493-3.403,11.329-5.471,15.055
		C906.243,615.618,908.457,616.57,910.678,617.678 M880.011,572.746c-0.076-2.454-0.393-4.985-1.107-8.081l6.257-0.79
		c0.715,2.691,1.195,5.548,1.511,7.925L880.011,572.746z M888.101,611.26c3.948,0.633,7.363,1.269,10.457,1.982
		c1.505-2.223,2.606-4.994,3.168-8.323h-10.702L888.101,611.26z M905.688,593.507c-2.068-2.454-4.523-5.069-7.212-7.444l4.042-3.089
		c2.93,2.531,5.067,4.675,7.047,6.658L905.688,593.507z M905.289,573.147c-1.19-0.316-3.012-0.638-5.625-0.796
		c1.822-2.774,2.695-5.07,3.721-9.107c2.226,0.709,4.914,1.346,6.502,1.579c1.184,0.164,1.271,0.638,0,1.195
		C908.85,566.408,907.666,568.475,905.289,573.147 M907.509,629.959c-0.954-1.658-2.613-3.641-4.833-5.468
		c6.736-1.427,14.974-5.944,19.337-11.33c-3.333-6.102-4.681-13.154-4.996-24.086c-1.746,3.011-3.645,5.858-5.466,8.157
		c-1.276-1.979-2.536-3.4-3.885-4.275c6.421-8.638,10.779-21.477,11.646-32.808c2.384,0.796,6.104,1.511,8.078,1.669
		c1.195,0.073,1.512,0.869-0.234,1.742c-0.48,0.235-1.184,1.345-3.715,9.505h9.104c4.599,0,7.768-0.234,9.753-0.633v6.418
		c-1.276-0.158-3.098-0.316-5.477-0.475c-1.107,17.354-3.72,27.574-7.763,34.703c3.012,3.409,7.13,5.627,14.581,8.008
		c-2.536,2.458-3.649,4.83-4.439,7.604c-7.61-4.59-11.096-7.211-13.784-10.459C921.772,622.353,916.066,626.318,907.509,629.959
		 M930.958,578.295h-9.108c-1.032,3.329-2.689,6.895-4.6,10.306l4.992-0.163c0,7.923,0.948,14.267,3.016,18.862
		C928.27,600.405,930.331,591.214,930.958,578.295"/>
	<path  d="M981.476,584.003c-4.283,0-7.293,0.234-9.672,0.715v-6.74c2.379,0.48,5.389,0.638,9.672,0.638
		c0-12.758-0.083-14.34-0.956-17.752c2.849,0.475,4.676,0.633,6.896,0.557c2.46-0.082,2.847,0.63,1.183,1.983
		c-1.107,0.872-1.423,1.502-1.423,2.85v12.281c2.617-0.076,4.674-0.239,6.42-0.557v6.74c-1.746-0.313-3.803-0.554-6.42-0.639v10.939
		c2.22-0.955,4.516-2.06,6.812-3.331c-0.076,2.376,0.234,4.758,0.873,6.418c-2.455,0.712-5.068,1.585-7.686,2.615v21.157
		c0,6.496-0.639,7.45-11.81,9.429c-0.153-2.851-0.944-5.073-3.322-8.242c6.977,1.109,9.432,0.158,9.432-2.216v-17.672
		c-3.485,1.665-6.655,3.569-9.279,5.626c-0.152-2.455-0.633-5.542-1.423-8.397c3.877-1.031,7.369-2.06,10.702-3.17V584.003z
		 M1023.546,605.317c8.16,0,11.33-0.156,13.556-0.557c-0.404,1.745-0.48,3.802-0.48,6.657v10.773c0,2.855,0.152,5.23,0.551,7.926
		h-6.654v-3.243h-17.984v4.116h-6.661c0.48-2.689,0.558-5.147,0.558-8.003v-11.569c0-2.533-0.159-4.912-0.475-6.657
		c2.459,0.316,4.915,0.478,11.885,0.557v-8.557c-5.786,0.073-9.741,0.313-13.232,0.792v-6.421c3.567,0.401,7.446,0.633,13.232,0.717
		v-8.558h-14.104c0,24.009-1.746,32.406-9.584,46.752c-1.587-1.271-3.726-2.144-6.338-2.384c6.175-9.026,8.951-17.586,9.661-31.139
		c0.403-7.131,0.233-20.359-0.312-32.245c2.688,0.548,6.255,0.87,19.33,0.87c12.677,0,18.225-0.396,20.837-0.87
		c-0.316,2.612-0.557,6.257-0.557,9.982c0,3.646,0.158,6.101,0.557,9.821c-2.689-0.552-7.451-0.788-13.784-0.788v8.558
		c7.686,0,13.386-0.242,17.505-0.717v6.421c-4.119-0.557-9.819-0.792-17.505-0.792V605.317z M1003.735,578.218h27.338v-8.239
		h-27.338V578.218z M1030.518,609.989h-17.984v11.653h17.984V609.989z"/>
	<path  d="M1113.359,595.649c0,5.071-4.125,9.192-9.192,9.192c-5.071,0-9.196-4.121-9.196-9.192
		s4.125-9.189,9.196-9.189C1109.393,586.46,1113.359,590.736,1113.359,595.649"/>
	<path  d="M1171.076,598.977c-1.587-2.456-3.645-4.275-5.629-5.387c3.484-2.695,8.716-9.745,11.329-16.084
		c2.935-7.129,4.281-12.047,4.833-16.883c2.617,1.195,5.154,1.986,7.768,2.457c1.739,0.323,2.057,0.797,0.315,2.379
		c-0.633,0.557-1.505,2.46-6.093,13.474v52.851h-7.538c0.479-4.522,0.878-11.332,0.878-17.038v-23.851
		C1175.118,593.674,1173.057,596.445,1171.076,598.977 M1190.408,597.394c-1.43-1.742-3.645-3.488-5.864-4.756
		c8.798-5.387,12.916-9.745,17.674-17.59c2.929-4.833,4.511-8.954,5.939-15.371c1.745,0.792,6.649,2.613,8.319,2.774
		c1.184,0.079,1.352,0.952-0.558,2.536c3.649,10.459,11.172,17.746,24.171,21.947c-2.22,2.539-3.961,5.312-4.834,7.686
		c-10.696-5.784-17.908-12.599-22.266-25.116C1204.912,583.604,1199.283,589.629,1190.408,597.394 M1206.805,600.646
		c-0.627,16.085-4.517,22.975-14.575,31.847c-1.188-1.345-3.966-3.087-7.135-4.674c13.238-8.316,16.407-17.03,15.055-37.796
		c1.828,0.397,5.711,0.556,7.534,0.479c1.106-0.082,1.106,0.234,0.474,1.028C1207.684,592.247,1207.044,595.967,1206.805,600.646
		 M1225.515,597.473v19.575c0,3.641,0.315,10.059,0.626,14.496h-8.078c0.311-3.882,0.71-10.855,0.71-14.496v-15.612
		c0-5.23-0.399-10.459-0.71-12.283c2.537,0.477,5.543,0.712,7.926,0.712c1.5,0,1.898,0.556,0.388,1.587
		C1225.748,592.007,1225.515,593.59,1225.515,597.473"/>
	<path  d="M1280.297,631.941h-7.206c0.475-4.52,0.862-11.332,0.862-17.035V586.22
		c-1.894,3.331-3.803,6.341-5.461,8.872c-1.271-1.978-2.776-3.485-5.073-4.985c3.645-4.284,7.687-10.302,9.988-15.928
		c2.057-4.917,3.955-10.387,5.144-14.587c2.46,1.271,5.396,2.54,6.9,2.859c1.582,0.315,1.663,1.187,0.153,1.982
		c-0.71,0.39-1.823,2.06-3.721,6.414c-0.474,1.113-1.036,2.3-1.587,3.486V631.941z M1291.314,588.124
		c0-1.664-0.163-6.733-0.397-8.638c2.929,0.233,7.206,0.474,13.631,0.551c0.393-2.449,0.628-4.989,0.786-7.686
		c-7.762,0.084-13.625,0.158-18.383,0.479v-6.183c4.833,0.397,10.702,0.557,18.71,0.63c0.071-3.164,0.071-5.94-0.088-7.842
		c2.221,0.396,6.742,0.713,8.56,0.557c0.872-0.076,1.106,0.472,0.24,1.187c-0.955,0.797-1.506,2.141-2.139,6.099
		c10.222,0,17.907-0.155,23.455-0.63v6.183c-5.711-0.396-13.479-0.557-24.088-0.479c-0.245,2.141-0.48,4.68-0.796,7.686
		c8.716,0,13.947-0.156,17.597-0.551c-0.246,1.743-0.328,6.103-0.328,8.638v34.782c3.175-0.074,5.946-0.234,8.799-0.554v6.338
		c-3.093-0.316-7.844-0.557-26.548-0.557c-18.541,0-22.817,0.167-26.544,0.48v-6.262c2.303,0.24,4.839,0.395,7.533,0.479V588.124z
		 M1321.977,585.11h-24.639v5.781h24.639V585.11z M1297.332,601.592h24.645v-6.178h-24.645V601.592z M1297.332,612.133h24.645
		v-6.102h-24.645V612.133z M1321.977,616.648h-24.639v6.258h24.639V616.648z"/>
</g>
</svg>
