<?xml version="1.0" encoding="utf-8"?>
<!-- Generator: Adobe Illustrator 16.0.0, SVG Export Plug-In . SVG Version: 6.00 Build 0)  -->
<!DOCTYPE svg PUBLIC "-//W3C//DTD SVG 1.1//EN" "http://www.w3.org/Graphics/SVG/1.1/DTD/svg11.dtd">
<svg version="1.1" id="Layer_1" xmlns="http://www.w3.org/2000/svg" xmlns:xlink="http://www.w3.org/1999/xlink" x="0px" y="0px"
	 width="1600px" height="1000px" viewBox="0 0 1600 1000" enable-background="new 0 0 1600 1000" xml:space="preserve">
<g>
	<path  d="M557.758,456.149c-33.275-4.287-66.295-5.572-102.661-5.45c-36.359-0.122-69.385,1.164-102.655,5.45
		c-20.223,2.175-36.026,10.988-36.031,31.176v89.609c0.004,20.188,15.808,29.005,36.031,31.172
		c33.27,4.296,66.295,5.576,102.655,5.457c36.366,0.119,69.386-1.161,102.661-5.457c20.218-2.167,36.026-10.983,36.037-31.172
		v-89.609C593.784,467.138,577.976,458.324,557.758,456.149 M566.23,583.219c-15.384,1.266-60.485,5.028-111.133,5.043
		c-50.657-0.015-95.743-3.777-111.127-5.043V481.012c15.384-1.244,60.47-4.847,111.127-4.847c50.648,0,95.75,3.603,111.133,4.847
		V583.219z"/>
	<rect x="401.958" y="386.429"  width="24.798" height="52.785"/>
	<rect x="483.453" y="386.429"  width="24.784" height="52.785"/>
	<path  d="M1258.144,424.07c-17.882-2.307-38.598-3-58.138-2.94c-19.522-0.06-40.248,0.633-58.129,2.94
		c-10.859,1.164-19.352,5.893-19.352,16.733v51.128c0,10.848,8.492,15.564,19.352,16.745c17.881,2.312,38.606,2.995,58.129,2.93
		c19.54,0.065,40.256-0.618,58.138-2.93c10.858-1.181,19.345-5.896,19.351-16.745v-51.128
		C1277.488,429.962,1269.002,425.233,1258.144,424.07 M1256.718,492.549c-7.485,0.607-32.1,2.449-56.712,2.449
		c-24.604,0-49.219-1.841-56.698-2.449v-52.357c7.479-0.618,32.094-2.365,56.698-2.375c24.612,0.011,49.227,1.757,56.712,2.375
		V492.549z"/>
	<rect x="1059.431" y="478.271"  width="20.795" height="121.304"/>
	<rect x="1018.166" y="501.841"  width="20.782" height="55.868"/>
	<path  d="M988.39,501.841h-87.935h-0.024l0.004,105.021l97.354-18.738v-17.558l-76.562,14.741v-66.969h55.53v39.371
		h21.032v-46.532c0-2.387-0.913-4.783-2.762-6.618C993.203,502.745,990.801,501.841,988.39,501.841"/>
	<path  d="M1143.687,540.72h25.042l-48.335,65.075h23.766l48.346-65.075h33.709l-48.341,65.075h24.001l48.335-65.075
		h12.43v65.075h20.95v-66.401c0-3.897-1.501-7.813-4.471-10.789c-2.98-2.97-6.907-4.49-10.809-4.49h-137.66h-0.239v0.333
		l-25.331,33.071h25.739L1143.687,540.72z"/>
	<rect x="1170.153" y="450.813"  width="15.907" height="31.232"/>
	<rect x="1213.89" y="450.813"  width="15.907" height="31.232"/>
	<path  d="M978.911,424.548c-0.663-0.326-1.375-0.5-2.089-0.5h-57.036c-0.698,0-1.41,0.174-2.078,0.5
		c-0.678,0.367-1.231,0.867-1.625,1.45l-32.487,63.708h22.467l25.495-49.272h33.504l25.5,49.272h22.476l-32.496-63.708
		C980.137,425.415,979.594,424.915,978.911,424.548"/>
	<rect x="740.744" y="553.323"  width="20.786" height="33.504"/>
	<path  d="M816.762,588.223h-45.725v16.505h57.351c2.401,0,4.811-0.901,6.644-2.726
		c1.828-1.829,2.756-4.231,2.756-6.613v-98.604h-21.025V588.223z"/>
	<polygon  points="672.588,517.277 653.158,517.277 663.792,437.024 683.218,437.024 	"/>
	<polygon  points="714.236,421.287 693.444,421.287 693.444,606.9 695.393,606.9 713.857,606.9 714.236,606.9 	"/>
	<rect x="731.887" y="522.819"  width="124.398" height="17.541"/>
	<polygon  points="802.13,484.231 802.13,454.733 845.632,454.733 845.632,437.189 802.13,437.189 802.13,421.763 
		781.334,421.763 781.334,437.189 741.187,437.189 741.187,454.733 781.334,454.733 781.334,484.231 731.887,484.231 
		731.887,501.775 856.285,501.775 856.285,484.231 	"/>
	<polygon  points="697.161,548.663 653.452,571.218 653.452,551.1 697.161,528.555 	"/>
	<rect x="673.79" y="460.966"  width="58.097" height="17.544"/>
</g>
</svg>
