<?xml version="1.0" encoding="utf-8"?>
<!-- Generator: Adobe Illustrator 16.0.0, SVG Export Plug-In . SVG Version: 6.00 Build 0)  -->
<!DOCTYPE svg PUBLIC "-//W3C//DTD SVG 1.1//EN" "http://www.w3.org/Graphics/SVG/1.1/DTD/svg11.dtd">
<svg version="1.1" id="Layer_1" xmlns="http://www.w3.org/2000/svg" xmlns:xlink="http://www.w3.org/1999/xlink" x="0px" y="0px"
	 width="1600px" height="1000px" viewBox="0 0 1600 1000" enable-background="new 0 0 1600 1000" xml:space="preserve">
<g>
	<path  d="M297.941,522.58l-37.829,44.736c-4.032,4.28,0.959,8.949,4.801,4.862l37.637-45.124l40.521,45.318
		c3.264,4.087,8.64,0.194,5.375-4.085l-40.903-45.708l39.368-44.739c2.879-3.89-2.688-7.974-5.185-4.28L302.55,518.3l-36.486-44.349
		c-3.647-3.695-8.642,1.166-4.8,4.861L297.941,522.58z"/>
	<path  d="M369.755,571.012c0,4.67,6.723,4.67,6.723,0v-94.727c0-4.474-6.723-4.474-6.723,0.193V571.012z
		 M376.669,449.442c0-4.279-7.105-4.279-7.105,0v10.891c0,4.282,7.105,4.282,7.105,0V449.442z"/>
	<path  d="M493.802,570.429c0,2.139,1.344,3.501,3.456,3.501c2.113,0,3.265-1.362,3.265-3.501v-55.631
		c0-32.871-29.189-48.238-54.73-41.625c-13.825,3.695-27.072,14.005-31.488,30.344v-26.843c0-2.14-1.152-3.501-3.268-3.501
		c-2.11,0-3.456,1.555-3.456,3.306v93.95c0,2.139,1.346,3.501,3.456,3.501c2.115,0,3.268-1.362,3.268-3.501v-46.489
		c0.576-20.423,13.825-39.291,33.604-44.348c22.657-6.029,45.895,9.921,45.895,35.206V570.429z"/>
	<path fill-rule="evenodd" clip-rule="evenodd"  d="M530.248,496.727c0.024,0.138,0.055,0.27,0.079,0.406h-0.062
		c-0.062,1.781-1.507,3.211-3.292,3.211c-1.783,0-3.23-1.43-3.294-3.211h-0.027c-4.263-21.686-20.016-39.178-40.566-45.685
		c-0.007-0.005-0.015-0.005-0.021-0.008c-0.006,0-0.01-0.004-0.016-0.006c-0.02-0.006-0.042-0.014-0.061-0.02
		c0-0.003,0.001-0.006,0.001-0.008c-1.655-0.626-2.527-2.478-1.948-4.18c0.593-1.729,2.455-2.646,4.162-2.049
		c0.008,0.004,0.017,0.009,0.023,0.013c0.002-0.007,0.005-0.013,0.008-0.019c22.783,7.295,40.218,26.757,44.88,50.858
		C530.184,496.253,530.227,496.485,530.248,496.727 M483.94,461.559c0.522,0,1.017,0.126,1.462,0.336
		c0.006-0.021,0.01-0.04,0.016-0.063c14.251,6.247,25.094,18.932,28.993,34.426h-0.061c0.37,1.803-0.672,3.617-2.446,4.138
		c-1.864,0.549-3.815-0.537-4.358-2.425c-0.08-0.281-0.113-0.561-0.126-0.837h-0.07c-3.509-12.821-12.579-23.296-24.42-28.599
		c0.005-0.022,0.013-0.044,0.018-0.067c-1.435-0.436-2.489-1.772-2.489-3.373C480.458,463.141,482.018,461.559,483.94,461.559"/>
	<path fill-rule="evenodd" clip-rule="evenodd"  d="M230.546,450.25v67.768c0,15.404-5.399,27.195-13.66,35.388
		c-0.079,0.058-0.155,0.121-0.236,0.178c-8.953,8.762-21.195,13.334-33.589,13.728c-0.072,0.015-0.144,0.025-0.216,0.04
		c-25.102,0.688-50.73-15.746-50.73-49.333v-41.783c0.004-0.002,0.008-0.003,0.012-0.003v-26.346c0-4.298-6.168-4.298-6.168-0.196
		v28.528c0.002-0.002,0.004-0.002,0.006-0.004v39.804c0,27.897,15.601,45.335,35.102,52.307c0.024-0.001,0.049-0.004,0.072-0.005
		c28.916,10.317,66.338-2.405,74.242-38.147c0.012-0.02,0.024-0.04,0.035-0.064c0.948-4.356,1.475-9.047,1.475-14.09v-67.962
		C236.89,445.964,230.546,445.964,230.546,450.25"/>
	<path  d="M566.238,461.416c-2.088,0.351-3.134,1.222-3.134,2.608c0,1.746,1.046,2.609,3.134,2.609h41.238
		c-11.142,14.616-26.451,26.801-45.938,36.541c-2.085,1.043-2.787,2.438-2.085,4.176c1.042,1.395,2.607,1.565,4.696,0.521
		c0.692-0.342,1.737-0.863,3.131-1.567c7.651-4.519,13.396-8.17,17.228-10.957v75.164c0,1.739,0.861,2.782,2.609,3.133
		c1.737-0.351,2.782-1.394,3.133-3.133v-26.099h80.907v15.66c0.343,5.217-1.042,7.829-4.175,7.829
		c-2.788,0.692-9.92-0.524-21.403-3.654c-2.089-0.703-3.483,0-4.173,2.087c-0.354,1.739,0.52,2.952,2.609,3.655
		c7.647,2.087,14.092,3.304,19.312,3.654c9.739,1.043,14.265-2.962,13.572-12.006v-67.858c0.338-6.607-2.962-9.738-9.918-9.397
		H598.08c6.958-6.264,12.347-12.176,16.185-17.748h68.9c1.738,0,2.782-0.863,3.134-2.609c-0.352-1.387-1.396-2.258-3.134-2.608
		h-66.291c1.738-3.476,3.474-6.959,5.221-10.442c0.69-1.385,0.17-2.608-1.569-3.651c-1.745-0.344-2.96,0.177-3.651,1.563
		c-0.352,0.351-0.874,1.224-1.57,2.611c-1.039,3.132-2.605,6.443-4.693,9.919H566.238z M590.251,511.527v-18.794
		c-0.351-2.088,0.863-3.131,3.651-3.131h73.603c2.432,0,3.653,1.043,3.653,3.131v18.794H590.251z M671.158,539.192h-80.907v-22.445
		h80.907V539.192z"/>
	<path  d="M693.604,511.525c-0.698,2.09-0.521,3.655,0.523,4.7c1.739,0.699,3.132,0.177,4.174-1.569
		c1.386-2.78,3.134-6.082,5.223-9.916c1.733-3.476,2.948-5.742,3.654-6.786v72.557c0,1.386,0.859,2.088,2.609,2.088
		c1.384,0,2.258-0.702,2.608-2.088v-85.085c3.131-13.221,5.219-24.706,6.265-34.451c0-1.738-0.874-2.779-2.61-3.133
		c-1.747,0.354-2.61,1.395-2.61,3.133C711.002,471.854,704.388,492.041,693.604,511.525 M754.156,447.842
		c-1.043,1.395-0.875,2.612,0.52,3.656c4.179,4.174,8.874,9.573,14.093,16.18c1.046,1.745,2.262,2.089,3.658,1.044
		c1.386-1.044,1.565-2.429,0.52-4.176c-5.571-6.606-9.225-10.78-10.96-12.526c-1.396-1.386-2.611-2.783-3.653-4.178
		C756.585,446.799,755.199,446.799,754.156,447.842 M722.837,470.811c-1.746,0.351-2.609,1.224-2.609,2.61
		c0,1.745,0.863,2.61,2.609,2.61h91.869c1.389,0,2.26-0.865,2.611-2.61c-0.352-1.387-1.223-2.26-2.611-2.61H722.837z
		 M725.969,540.236v20.88c0,6.263,2.952,9.395,8.873,9.395h68.38c5.914,0,8.876-3.482,8.876-10.438v-20.358
		c0-6.606-3.135-9.917-9.4-9.917h-66.809C729.27,530.146,725.969,533.627,725.969,540.236 M728.058,492.734
		c0,1.747,1.044,2.612,3.129,2.612h75.69c1.386,0,2.259-0.865,2.61-2.612c-0.352-1.385-1.225-2.259-2.61-2.609H731.71
		C729.622,490.476,728.397,491.35,728.058,492.734 M728.577,512.571c0.344,1.743,1.386,2.609,3.133,2.609h75.689
		c1.386,0,2.088-0.866,2.088-2.609c0-1.389-0.702-2.261-2.088-2.609H731.71C729.963,510.311,728.921,511.183,728.577,512.571
		 M734.842,565.291c-2.789,0-4.006-1.044-3.655-3.132v-24.011c0-1.738,1.047-2.782,3.134-3.133h69.949
		c1.385,0.351,2.256,1.565,2.607,3.653v23.49c-0.352,1.738-1.397,2.781-3.134,3.132H734.842z"/>
	<g>
		<defs>
			<path id="SVGID_1_" d="M1380.749,498.925c-0.822,0-1.491,0.669-1.491,1.489v48.052c0,0.821,0.667,1.487,1.491,1.487h0.483
				c0.821,0,1.488-0.668,1.488-1.487v-48.052c0-0.823-0.667-1.489-1.488-1.489H1380.749z M1429.096,498.925
				c-0.823,0-1.72,0.628-2.003,1.399l-15.839,43.104c-0.282,0.771-0.909,2.139-1.836-0.004l-15.551-43.097
				c-0.28-0.774-1.171-1.402-1.993-1.402h-0.887c-0.822,0-1.258,0.628-0.975,1.397l17.758,48.234
				c0.282,0.772,1.18,1.396,2.003,1.396h1.212c0.821,0,1.723-0.625,2.006-1.396l17.852-48.234c0.284-0.771-0.15-1.397-0.976-1.397
				H1429.096z M1437.845,521.111c0-12.129,6.788-19.427,16.352-19.427c9.565,0,16.328,6.208,16.328,18.338
				c0,0.709-0.669,1.287-1.49,1.287h-31.189V521.111z M1434.354,521.949v5.424c0,14.842,7.689,23.469,20.313,23.469
				c11.009,0,16.815-6.331,18.333-12.216c0.08-0.305-0.097-1.54-1.289-1.54h-0.704c-1.054,0-1.852,0.85-2.073,1.572
				c-1.33,4.349-6.118,8.585-14.62,8.585c-10.059,0-16.469-7.198-16.469-19.918v-2.516h34.707c0.822,0,1.49-0.668,1.49-1.49v-1.222
				c0-15.63-7.84-23.906-19.869-23.906C1442.141,498.191,1434.354,506.518,1434.354,521.949 M1335.599,482.9
				c-0.822,0-1.488,0.666-1.488,1.49v64.074c0,0.822,0.666,1.488,1.49,1.488h34.737c0.822,0,1.489-0.664,1.489-1.488v-0.513
				c0-0.825-0.667-1.492-1.489-1.492h-31.247c-0.819,0-1.489-0.668-1.489-1.489V484.39c0-0.823-0.666-1.489-1.488-1.489H1335.599z"
				/>
		</defs>
		<use xlink:href="#SVGID_1_"  overflow="visible" />
		<clipPath id="SVGID_2_">
			<use xlink:href="#SVGID_1_"  overflow="visible"/>
		</clipPath>
		<rect x="1332.541" y="480.393" clip-path="url(#SVGID_2_)"  width="143.07" height="72.02"/>
	</g>
	<g>
		<defs>
			<path id="SVGID_3_" d="M1263.459,527.035c-0.29,0.639-0.146,1.355,0.439,2.153c3.298,5.268,5.931,10.081,7.901,14.443
				c0.479,1.118,0.955,1.678,1.434,1.678c0.479,0,0.934-0.188,1.357-0.56c0.479-0.319,0.72-0.72,0.72-1.199
				c0-0.478-0.374-1.46-1.119-2.95c-0.743-1.488-1.649-3.206-2.712-5.146c-1.062-1.944-2.154-3.844-3.271-5.707
				c-1.064-1.916-1.755-3.005-2.074-3.271c-0.374-0.267-0.744-0.399-1.117-0.399
				C1264.271,526.077,1263.752,526.397,1263.459,527.035"/>
		</defs>
		<use xlink:href="#SVGID_3_"  overflow="visible" />
		<clipPath id="SVGID_4_">
			<use xlink:href="#SVGID_3_"  overflow="visible"/>
		</clipPath>
		<rect x="1261.743" y="524.506" clip-path="url(#SVGID_4_)"  width="15.137" height="22.373"/>
	</g>
	<g>
		<defs>
			<path id="SVGID_5_" d="M1302.76,527.993c-1.701,5.426-4.841,11.729-9.417,18.911h-43.648c-0.903,0-1.356,0.527-1.356,1.852
				c0,1.327,0.932,1.58,1.356,1.58h71.817c0.958,0,1.435-0.587,1.435-1.757c0-1.117-0.477-1.675-1.435-1.675h-24.259
				c1.225-1.97,2.395-3.949,3.511-5.945c1.119-1.995,2.154-4.002,3.112-6.024c1.916-4.148,2.873-6.783,2.873-7.899
				c0-0.532-0.215-0.919-0.64-1.158s-0.824-0.358-1.196-0.358C1303.956,525.519,1303.239,526.343,1302.76,527.993"/>
		</defs>
		<use xlink:href="#SVGID_5_"  overflow="visible" />
		<clipPath id="SVGID_6_">
			<use xlink:href="#SVGID_5_"  overflow="visible"/>
		</clipPath>
		<rect x="1246.769" y="523.949" clip-path="url(#SVGID_6_)"  width="77.749" height="27.957"/>
	</g>
	<g>
		<defs>
			<path id="SVGID_7_" d="M1251.771,482.429c-0.478,0-1.358,0.346-1.358,1.638s0.881,1.635,1.358,1.635h67.664
				c0.958,0,1.437-0.532,1.437-1.595c0-1.118-0.479-1.678-1.437-1.678H1251.771z"/>
		</defs>
		<use xlink:href="#SVGID_7_"  overflow="visible" />
		<clipPath id="SVGID_8_">
			<use xlink:href="#SVGID_7_"  overflow="visible"/>
		</clipPath>
		<rect x="1248.843" y="480.858" clip-path="url(#SVGID_8_)"  width="73.602" height="6.413"/>
	</g>
	<g>
		<defs>
			<path id="SVGID_9_" d="M1260.481,506.71c0-5.165,4.186-9.351,9.352-9.351h30.623c5.165,0,9.352,4.185,9.352,9.351
				c0,5.167-4.186,9.353-9.352,9.353h-30.623C1264.667,516.062,1260.481,511.877,1260.481,506.71 M1269.501,494.047
				c-6.994,0-12.661,5.671-12.661,12.663c0,6.995,5.667,12.665,12.661,12.665h31.454c6.993,0,12.662-5.671,12.662-12.665
				s-5.671-12.663-12.662-12.663H1269.501z"/>
		</defs>
		<use xlink:href="#SVGID_9_"  overflow="visible" />
		<clipPath id="SVGID_10_">
			<use xlink:href="#SVGID_9_"  overflow="visible"/>
		</clipPath>
		<rect x="1255.267" y="492.477" clip-path="url(#SVGID_10_)"  width="59.92" height="28.468"/>
	</g>
	<g>
		<defs>
			<path id="SVGID_11_" d="M1377.075,485.701c0,2.012,1.631,3.644,3.643,3.644c2.013,0,3.645-1.632,3.645-3.644
				s-1.632-3.643-3.645-3.643C1378.706,482.059,1377.075,483.689,1377.075,485.701"/>
		</defs>
		<use xlink:href="#SVGID_11_"  overflow="visible" />
		<clipPath id="SVGID_12_">
			<use xlink:href="#SVGID_11_"  overflow="visible"/>
		</clipPath>
		<rect x="1376.333" y="481.316" clip-path="url(#SVGID_12_)"  width="8.771" height="8.771"/>
	</g>
	<path  d="M1110.469,541.768l-2.955-11.015l-46.922,12.569c-11.316,3.028-22.944-3.688-25.982-15.015l-1.019-3.803
		c-3.036-11.322,3.679-22.963,14.987-25.991l46.927-12.569l-2.333-8.695c-8.359-31.201-36.574-51.762-67.4-51.764
		c-5.986,0-12.065,0.776-18.121,2.396c-13.176,3.53-24.45,10.597-33.086,19.899c-0.178,4.032-0.188,8.706-0.188,14.51v48.524
		c0,14.464,0.07,21.909,2.6,29.91c3.264,8.977,10.338,16.047,19.314,19.313c6.317,1.999,12.291,2.461,21.65,2.569h65.028
		c9.358-0.108,15.332-0.57,21.649-2.569c2.932-1.066,5.663-2.539,8.12-4.35C1112.458,551.07,1111.713,546.409,1110.469,541.768z
		 M1068.763,463.479c0.583-0.155,1.167-0.229,1.741-0.229c2.966,0,5.683,1.979,6.486,4.979c0.961,3.587-1.163,7.269-4.746,8.229
		c-3.582,0.959-7.267-1.168-8.226-4.754C1063.056,468.121,1065.185,464.439,1068.763,463.479z M1026.681,481.707
		c-0.964-3.585,1.163-7.269,4.743-8.225c0.582-0.153,1.163-0.232,1.738-0.232c2.968,0,5.682,1.981,6.488,4.981
		c0.961,3.586-1.168,7.27-4.748,8.228C1031.319,487.42,1027.641,485.294,1026.681,481.707z"/>
	<path  d="M1165.212,510.613h16.852l-9.527,24.253c-0.167,0.426-0.159,0.892,0.023,1.312
		c0.183,0.419,0.52,0.741,0.945,0.909c0.199,0.079,0.411,0.119,0.624,0.119c0.711,0,1.338-0.427,1.597-1.086l10.447-26.595
		c0.207-0.526,0.14-1.122-0.179-1.592c-0.32-0.469-0.848-0.748-1.416-0.748h-16.524l12.75-24.158
		c0.439-0.834,0.119-1.873-0.716-2.313c-0.834-0.442-1.874-0.12-2.316,0.716l-14.075,26.67c-0.279,0.528-0.261,1.174,0.048,1.684
		C1164.054,510.295,1164.615,510.613,1165.212,510.613"/>
	<path  d="M1236.391,482.893h-0.263h-40.158h-0.265c-0.796,0-1.449,0.652-1.449,1.45v0.545
		c0,0.797,0.653,1.448,1.449,1.448h18.611v60.592h-18.611c-0.796,0-1.449,0.652-1.449,1.447v0.548c0,0.795,0.653,1.448,1.449,1.448
		h40.686c0.798,0,1.451-0.653,1.451-1.448v-0.548c0-0.795-0.653-1.447-1.451-1.447h-18.647v-60.592h18.647
		c0.798,0,1.451-0.651,1.451-1.448v-0.545C1237.842,483.545,1237.188,482.893,1236.391,482.893"/>
	<path  d="M1185.645,546.928h-21.291c-0.798,0-1.449,0.652-1.449,1.449v0.545c0,0.798,0.651,1.449,1.449,1.449h21.291
		c0.799,0,1.451-0.651,1.451-1.449v-0.545C1187.096,547.58,1186.443,546.928,1185.645,546.928"/>
	<line  x1="897.62" y1="465.602" x2="897.62" y2="553.908"/>
</g>
</svg>
