<?xml version="1.0" encoding="utf-8"?>
<!-- Generator: Adobe Illustrator 16.0.0, SVG Export Plug-In . SVG Version: 6.00 Build 0)  -->
<!DOCTYPE svg PUBLIC "-//W3C//DTD SVG 1.1//EN" "http://www.w3.org/Graphics/SVG/1.1/DTD/svg11.dtd">
<svg version="1.1" id="Layer_1" xmlns="http://www.w3.org/2000/svg" xmlns:xlink="http://www.w3.org/1999/xlink" x="0px" y="0px"
	 width="1600px" height="1000px" viewBox="0 0 1600 1000" enable-background="new 0 0 1600 1000" xml:space="preserve">
<g>
	<path fill-rule="evenodd" clip-rule="evenodd"  d="M430.323,374.028H291.756c-31.308,0-56.687,25.381-56.687,56.688
		v138.568c0,31.307,25.379,56.688,56.687,56.688h138.567c31.307,0,56.688-25.381,56.688-56.688V430.716
		C487.011,399.409,461.63,374.028,430.323,374.028z M423.676,553.336c-0.851,2.978-3.276,5.22-6.332,5.852l-109.211,22.512
		c-0.559,0.115-1.131,0.17-1.698,0.17c-2.855,0-5.481-1.422-7.021-3.811c-1.854-2.862-1.733-6.63,0.299-9.375l96.294-129.774
		l-72.198,14.882l23.598,22.074l-9.923,13.474l-36.774-34.398c-2.271-2.131-3.153-5.3-2.304-8.28
		c0.853-2.972,3.278-5.217,6.33-5.852L413.949,418.3c3.385-0.692,6.869,0.775,8.721,3.635c1.853,2.866,1.733,6.633-0.3,9.381
		l-96.294,129.771l72.199-14.878l-23.56-22.042l9.92-13.478l36.737,34.372C423.644,547.188,424.526,550.356,423.676,553.336z"/>
	<g>
		<path  d="M596.771,521.77c2.376,13.385,10.257,18.514,21.142,18.514c13.635,0,20.141-7.631,20.141-19.144
			c0-9.63-6.006-17.012-24.145-17.012c-1.878,0-9.132,0-9.132,0l-0.125-11.76c0,0,6.88,0,7.13,0
			c16.138,0,23.019-6.504,23.019-16.886c0-9.632-5.13-16.013-16.888-16.013c-11.136,0-17.764,6.254-19.642,17.764l-14.761-3.251
			c3.752-16.014,15.262-26.147,35.278-26.147c21.518,0,31.524,12.51,31.524,26.147c0,11.508-6.379,20.14-19.765,23.27v0.249
			c15.388,2.251,22.894,13.51,22.894,24.642c0,17.142-12.386,29.776-35.78,29.776c-19.764,0-31.273-7.63-36.153-26.772
			L596.771,521.77z"/>
		<path  d="M720.749,474.729c-2.753-10.508-8.383-15.261-17.89-15.261c-14.26,0-22.893,11.383-23.144,39.28
			c5.13-9.006,14.512-13.76,26.021-13.76c19.015,0,31.15,14.512,31.15,32.15c0,19.389-12.385,34.901-34.153,34.901
			c-24.769,0-37.655-14.509-37.655-50.414c0-34.653,13.262-53.792,37.906-53.792c18.891,0,28.648,10.759,31.774,23.893
			L720.749,474.729z M722.124,518.14c0-12.762-7.13-21.642-19.765-21.642c-13.761,0-21.894,8.758-21.894,19.389
			c0,15.013,8.632,24.521,21.767,24.521C714.742,540.408,722.124,530.899,722.124,518.14z"/>
		<path  d="M838.347,543.786c-2.251-9.51-3.129-20.518-3.129-42.786v-15.011h-39.655v7.256h33.901v8.131h-33.901
			v7.005h27.771v26.147h-17.637v8.131c0,3.625,1.248,4.753,5.253,4.753h5.129c3.877,0,5.505-1.128,6.381-4.505
			c0.5-2.751,0.874-5.628,1.125-8.632c3.379,1.378,6.88,2.628,9.633,3.378c-0.376,3.378-1.001,7.008-1.753,9.885
			c-1.501,6.381-5.002,9.132-12.633,9.132h-12.51c-8.383,0-12.009-3.629-12.009-11.512v-10.63h-10.259
			c-1.501,13.258-8.756,20.015-31.149,25.268c-1.627-3.126-3.629-6.63-5.756-10.007c18.515-3.878,24.145-7.257,25.521-15.261
			h-17.015v-26.147h28.024v-7.005h-34.152v-8.131h34.152v-7.256h-28.774v-8.508h0.249c-2.625-2.5-5.879-5.254-8.881-7.88
			c10.759-8.632,18.013-17.764,23.394-29.398l12.636,1.501c-1.127,2.376-2.254,4.753-3.503,6.881h81.067v8.755h-86.321
			c-4.505,6.881-10.133,13.262-17.39,20.141h91.322v24.396c0,21.518,0.627,30.523,2.378,38.655c0.878,4.003,2.128,5.38,3.378,5.38
			c1.126,0,1.875-1.124,2.376-4.254c0.627-4.127,1.25-10.007,1.628-17.513c3.125,1.25,6.129,2.252,8.383,2.877
			c-0.752,8.381-1.379,14.261-2.254,19.642c-1.501,7.88-5.255,11.509-11.136,11.509
			C845.729,558.173,840.725,553.794,838.347,543.786z M767.416,526.271H811.7v-9.758h-44.285V526.271z M771.544,463.595h79.94v7.508
			h-79.94V463.595z"/>
		<path  d="M933.309,482.987c-0.127,7.63-0.627,19.767-1.001,26.396c-0.75,10.634-5.131,15.387-15.138,15.888
			l-13.887,0.374c-0.5-3.504-1.25-7.382-2.251-11.508c4.253,0.251,8.132,0.377,11.635,0.251c5.375-0.127,7.504-2.251,8.004-7.509
			c0.249-3.002,0.501-8.756,0.501-12.758h-26.647v41.41c0,6.128,2.002,8.256,8.259,8.256h15.513c5.754,0,8.756-2.128,9.757-6.132
			c0.877-3.001,1.626-7.131,2.251-12.133c4.379,1.75,8.131,3,11.886,4.128c-0.999,5.253-2.004,10.007-3.254,14.012
			c-2.502,8.505-7.507,11.757-18.389,11.757h-20.769c-12.257,0-17.264-5.376-17.264-17.764v-50.541
			c-2.002,1.627-4.126,3.38-6.376,5.005c-1.629-4.001-3.257-7.631-5.385-11.761c15.889-11.383,26.023-24.142,33.654-39.907
			l13.261,1.379c-1.001,1.75-1.877,3.5-2.752,5.254c10.756,9.881,19.266,18.388,28.148,27.271l-9.008,9.507L933.309,482.987z
			 M887.395,482.735h45.66c-8.256-9.255-15.513-16.886-23.891-25.77C902.783,466.973,896.026,474.981,887.395,482.735z
			 M945.943,454.588h12.006v73.56h-12.006V454.588z M948.694,543.786c5.881,0.375,10.009,0.501,15.013,0.501
			c5.503,0,7.88-2.376,7.88-8.384V441.33h12.636v98.204c0,11.884-4.126,16.638-15.638,17.264
			c-6.381,0.374-10.883,0.374-17.391,0.374C950.572,553.042,949.693,548.414,948.694,543.786z"/>
		<path  d="M997.991,463.22h13.636v-21.516h12.138v21.516h12.757v11.884h-12.757v21.394l11.761-2.754
			c-0.129,5.005-0.129,8.757,0.122,12.387l-11.883,2.999v33.281c0,10.508-3.63,14.386-12.638,15.01
			c-4.003,0.374-7.504,0.5-11.383,0.5c-0.625-4.754-1.375-9.633-2.129-12.886c0,0,4.507,0.124,8.259,0.124
			c4.252-0.124,5.753-1.625,5.753-6.505v-26.269l-14.385,3.878l-1.001-13.763c4.628-0.875,9.759-2.002,15.386-3.251v-24.146h-13.636
			V463.22z M1073.053,542.782c-9.882,6.507-21.893,11.887-36.277,16.14c-2.129-4.127-4.257-7.757-6.635-11.636
			c13.138-3.377,24.022-7.504,32.903-12.757c-7.38-7.134-13.385-15.89-18.387-26.897l5.503-2.877h-8.51V493.12h64.052v12.009
			c-5.625,11.51-12.758,21.269-22.017,29.524c8.632,5.003,18.892,8.756,31.526,11.384c-2.377,4.005-4.753,8.383-6.632,12.01
			C1094.319,554.043,1082.685,549.289,1073.053,542.782z M1035.024,479.857c12.133-6.504,15.387-11.632,15.387-24.52v-9.507h47.66
			v20.767c0,5.128,1.501,6.755,6.757,6.755h10.006c-0.749,3.753-1.499,7.757-1.999,11.384h-13.009
			c-10.136,0-14.388-3.753-14.388-13.134V457.34h-23.018v3.378c0,12.884-4.63,21.142-19.392,29.525
			C1041.152,487.74,1037.522,482.987,1035.024,479.857z M1056.414,504.755c4.506,9.006,10.008,16.514,17.139,22.641
			c8.007-6.505,13.763-14.136,18.142-22.641H1056.414z"/>
		<path  d="M1121.476,536.904c2.377-0.124,5.128-0.377,7.882-0.625v-88.947h45.158V531.9l6.508-0.75
			c-0.127,2-0.252,4.004-0.252,6.003c8.134-12.506,11.012-26.145,12.01-54.418c0-1.876,0.125-3.749,0.125-5.628h-12.633v-11.758
			h13.009l0.376-23.771h12.51c-0.124,8.131-0.251,16.014-0.5,23.771h28.896c-0.371,27.271-0.999,54.793-1.75,73.556
			c-0.499,11.26-4.876,16.641-15.514,17.141c-4.128,0.251-10.882,0.5-16.636,0.5c-0.627-3.752-1.628-8.758-2.752-13.011
			c5.254,0.252,9.885,0.375,13.635,0.375c5.753,0,8.507-2.751,8.76-8.506c0.75-13.763,1.497-38.405,1.624-58.297h-16.641
			c-0.122,2.001-0.249,4.004-0.249,6.006c-1.626,41.282-6.254,54.668-24.646,76.062c-2.875-3.629-5.38-6.757-8.756-10.509
			l4.255-4.879c-16.139,1.625-35.906,3.878-53.043,6.129L1121.476,536.904z M1141.367,476.731h21.141v-18.39h-21.141V476.731z
			 M1141.367,505.256h21.141v-18.265h-21.141V505.256z M1162.508,533.15v-17.637h-21.141v19.641
			C1148.371,534.529,1155.626,533.901,1162.508,533.15z"/>
		<path  d="M1254.342,449.083c34.776-0.498,67.678-1.625,98.828-3.626l2.624,12.384
			c-13.382,0.752-27.396,1.375-41.657,2.002v18.765h41.035v12.136h-41.035v18.765h50.794v12.384h-50.794v16.263
			c0,12.511-4.626,18.142-17.388,18.643c-6.13,0.249-15.389,0.374-21.392,0.374c-0.752-4.378-1.628-8.131-3.002-13.262
			c5.504,0.252,11.507,0.378,17.637,0.378c7.631,0,10.26-2.505,10.26-10.011v-12.385h-53.045v-12.384h53.045v-18.765h-44.286
			v-12.136h44.286v-18.264c-14.889,0.5-29.647,1.001-43.785,1.25C1255.966,456.965,1255.217,452.712,1254.342,449.083z"/>
	</g>
</g>
</svg>
