<?xml version="1.0" encoding="utf-8"?>
<!-- Generator: Adobe Illustrator 16.0.0, SVG Export Plug-In . SVG Version: 6.00 Build 0)  -->
<!DOCTYPE svg PUBLIC "-//W3C//DTD SVG 1.1//EN" "http://www.w3.org/Graphics/SVG/1.1/DTD/svg11.dtd">
<svg version="1.1" id="Layer_1" xmlns="http://www.w3.org/2000/svg" xmlns:xlink="http://www.w3.org/1999/xlink" x="0px" y="0px"
	 width="1600px" height="1000px" viewBox="0 0 1600 1000" enable-background="new 0 0 1600 1000" xml:space="preserve">
<g>
	<path  d="M594.073,672.108l7.028,1.626c-1.441,3.24-3.064,6.487-4.866,9.731h92.483v5.412h-95.73
		c-5.767,9.731-13.338,18.929-22.716,27.582c-1.08-1.44-2.886-3.247-5.406-5.412C577.485,700.236,587.221,687.253,594.073,672.108
		 M609.756,722.408h6.487v8.654h41.105v5.947h-41.105v10.817h31.912v27.044h-20.554v11.9c-0.361,4.685,2.344,6.85,8.115,6.486h8.653
		c5.406,0.363,8.473-1.622,9.193-5.949c1.084-2.884,1.625-6.31,1.625-10.275c1.082,0.36,2.705,0.901,4.866,1.625
		c0.721,0.359,1.261,0.54,1.625,0.54c0,3.965-0.542,7.211-1.625,9.733c-1.44,7.211-6.127,10.637-14.062,10.275h-12.439
		c-8.651,0.361-12.797-3.605-12.438-11.898v-12.438h-16.768c0.361,14.781-10.999,23.978-34.073,27.582
		c-0.36-2.164-1.44-4.326-3.245-6.49c21.273-3.605,31.551-10.638,30.831-21.092h-20.553v-27.044h32.451V737.01h-41.105v-5.947
		h41.105V722.408z M687.095,786.771c1.083-3.968,1.985-9.738,2.706-17.31c0.36,0,1.079,0.18,2.165,0.539
		c2.161,0.72,3.605,1.084,4.326,1.084c0,1.442-0.179,3.244-0.542,5.408c-0.724,6.132-1.444,10.278-2.165,12.438
		c-1.44,7.932-4.867,11.717-10.277,11.357c-5.406,0.359-9.552-4.326-12.437-14.059c-3.247-7.572-4.687-27.946-4.327-61.12v-5.406
		h-87.075v-5.951h93.567v12.984c-0.361,30.285,1.08,49.756,4.326,58.406c1.44,5.412,3.426,8.114,5.946,8.114
		C685.473,793.258,686.734,791.096,687.095,786.771 M584.335,769.462h57.329v-15.684h-57.329V769.462z M591.367,698.609h85.453
		v5.407h-85.453V698.609z"/>
	<path  d="M710.756,689.417h28.127v89.781h-21.636v9.192h-6.491V689.417z M717.247,772.707h15.144v-76.799h-15.144
		V772.707z M756.19,673.19h7.027c-0.359,5.049-0.539,13.162-0.539,24.341h22.714c0,6.128-0.179,15.682-0.541,28.665
		c-0.358,28.121-0.72,46.871-1.079,56.247c0,10.453-4.867,16.044-14.604,16.764h-9.737l-1.62-7.571c1.44,0.36,4.505,0.54,9.192,0.54
		c6.851,0.36,10.096-2.885,9.736-9.732c1.08-19.112,1.62-45.255,1.62-78.423h-15.682c0,2.882-0.182,7.027-0.54,12.439
		c0,5.767-0.181,9.916-0.542,12.438c0.361,33.891-6.131,58.052-19.47,72.474c-2.165-2.165-4.147-3.784-5.951-4.871
		c12.982-12.618,19.289-34.973,18.931-67.063V718.08c0.358-6.128,0.54-10.816,0.54-14.06h-10.814v-6.489h10.814
		C756.006,689.957,756.19,681.846,756.19,673.19 M797.292,689.417h31.371v106.006h-6.49v-9.192H803.78v9.732h-6.489V689.417z
		 M803.78,779.737h18.392v-83.829H803.78V779.737z"/>
	<path  d="M847.725,687.793h32.455v97.354h-7.035v-10.818h-18.389v11.896h-7.031V687.793z M854.756,767.838h18.389
		V694.28h-18.389V767.838z M887.211,696.989h23.252V673.19h7.574v128.724h-7.574v-32.993h-23.795v-6.49h23.795v-27.042h-21.632
		v-6.49h21.632v-25.42h-23.252V696.989z M969.958,762.431v6.49h-25.419v32.993h-7.574V673.19h7.574v23.799h24.876v6.489h-24.876
		v25.42h23.8v6.49h-23.8v27.042H969.958z"/>
	<path  d="M1049.81,238.076l-65.148-37.617c-6.729-3.882-15.017-3.882-21.745,0l-65.149,37.617
		c-6.728,3.882-10.875,11.062-10.875,18.83v75.231c0,7.766,4.147,14.948,10.875,18.829l54.297,31.353v18.241
		c0,13.218-1.414,26.103-4.053,38.532c-29.621,21.163-103.871,60.83-172.944-10.085c-73.567-75.529-153.216-42.417-191.999-18.01
		c-0.19-3.456-0.31-6.932-0.31-10.436V298.716c0-6.028,4.885-10.918,10.918-10.918h206.321c11.999,0,21.725-9.726,21.725-21.722
		c0-11.998-9.726-21.724-21.725-21.724H561.022c-11.993,0-21.71,9.722-21.71,21.711v21.734V400.56
		c0,125.979,102.122,228.102,228.098,228.102c125.979,0,228.103-102.122,228.103-228.102v-18.241l54.297-31.353
		c6.731-3.881,10.879-11.063,10.879-18.829v-75.231C1060.688,249.138,1056.541,241.958,1049.81,238.076 M767.41,585.213
		c-90.136,0-165.145-64.6-181.362-150.02c29.085-21.009,104.033-62.002,173.71,9.531c34.124,35.035,69.55,46.696,101.601,46.696
		c29.832-0.003,56.73-10.11,76.941-20.877C910.718,537.815,844.615,585.213,767.41,585.213 M1017.235,313.322
		c0,3.891-2.072,7.48-5.441,9.426l-32.562,18.799c-3.368,1.947-7.518,1.947-10.886,0l-32.563-18.799
		c-3.368-1.946-5.44-5.535-5.44-9.426v-37.602c0-3.89,2.072-7.48,5.44-9.426l32.563-18.8c3.368-1.946,7.518-1.946,10.886,0
		l32.562,18.8c3.369,1.945,5.441,5.536,5.441,9.426V313.322z"/>
</g>
</svg>
