<?xml version="1.0" encoding="utf-8"?>
<!-- Generator: Adobe Illustrator 16.0.0, SVG Export Plug-In . SVG Version: 6.00 Build 0)  -->
<!DOCTYPE svg PUBLIC "-//W3C//DTD SVG 1.1//EN" "http://www.w3.org/Graphics/SVG/1.1/DTD/svg11.dtd">
<svg version="1.1" id="Layer_1" xmlns="http://www.w3.org/2000/svg" xmlns:xlink="http://www.w3.org/1999/xlink" x="0px" y="0px"
	 width="1600px" height="1000px" viewBox="0 0 1600 1000" enable-background="new 0 0 1600 1000" xml:space="preserve">
<g>
	<g>
		<polygon  points="1149.76,435.647 1145.544,435.647 1143.529,446.044 1147.738,446.044 		"/>
		<polygon  points="1164.746,459.786 1171.651,459.786 1172.157,457.497 1165.249,457.497 		"/>
		<path  d="M1140.327,463.13h4.208l1.852-9.862h-4.207C1141.504,457.146,1141.003,460.136,1140.327,463.13z"/>
		<polygon  points="1162.22,473.527 1169.124,473.527 1169.631,471.061 1162.723,471.061 		"/>
		<path  d="M1178.555,449.036h-6.397c-1.009,1.06-2.192,2.292-3.538,3.349h11.784
			C1179.735,451.328,1179.064,450.274,1178.555,449.036z"/>
		<path  d="M1152.62,461.725l-5.229,26.996c1.793-2.988,3.219-5.72,4.387-8.321l1.521,0.495l3.699-19.702
			c-1.349,0.707-2.526,1.591-3.875,2.292C1152.792,462.601,1153.124,462.601,1152.62,461.725z"/>
		<path  d="M1178.724,459.786h8.418c-0.838-0.707-1.685-1.41-2.522-2.289h-5.391L1178.724,459.786z"/>
		<polygon  points="1163.565,466.657 1170.471,466.657 1170.977,464.366 1164.071,464.366 		"/>
		<polygon  points="1209.713,474.056 1203.816,474.056 1201.965,483.921 1207.86,483.921 		"/>
		<path  d="M1286.758,409.879h-181.938c-6.528,0-11.825,5.291-11.825,11.819v116.565l26.303-26.306h167.461
			c6.529,0,11.818-5.289,11.818-11.813v-78.446C1298.576,415.17,1293.287,409.879,1286.758,409.879z M1201.628,433.359h8.923
			c-0.16-2.468-0.503-4.763-1.008-7.044l9.938-0.706c0.17,2.816,0.17,5.456,0.17,7.925h6.229l-1.515,7.398h-24.085L1201.628,433.359
			z M1158.855,491.321c-0.172-3.349-0.341-6.341-0.678-9.34l5.388-1.581c0.677,3.7,1.01,6.692,1.35,8.979L1158.855,491.321z
			 M1187.313,488.151c-1.856,4.227-5.054,6.518-9.597,6.869c-2.195,0.176-5.391,0.176-9.438,0c0.174-1.937,0.174-3.875,0-6.163
			c3.205,0.174,5.392,0.347,6.739,0.347c2.864,0,4.884-1.759,5.897-5.105c0.506-1.76,1.009-3.351,1.344-4.935h-4.883
			c0.841,1.936,1.852,4.049,2.691,6.163l-5.05,2.999c-0.674-2.641-1.512-4.933-2.53-7.226l3.878-1.936h-6.062
			c0.844,2.116,1.514,4.582,2.184,7.404l-5.387,2.105c-0.169-1.582-0.676-4.223-1.513-7.749l4.716-1.76h-9.263l-0.335,1.76h-7.314
			l3.771,1.235c-1.513,3.526-3.363,6.872-5.385,10.394l-4.646-2.194c-0.308,1.908-1.396,3.892-5.968,4.661
			c-1.179,0.176-2.016,0.176-4.885,0.354c0.34-2.82-0.161-8.102-0.5-9.512c0.671,0.171,3.029,0,3.704-0.535
			c0.843-0.527,1.011-2.113,1.344-3.699l1.686-8.101h-4.55c-2.357,10.752-7.239,19.905-9.255,22.55
			c-1.692-3.17-3.88-5.459-5.226-6.518c2.192-3.874,5.051-10.038,6.23-14.27c1.179-4.229,2.862-11.629,4.886-22.374l4.713-24.49
			h19.877l-5.39,27.66c4.037-2.111,6.396-4.403,9.262-6.69h-7.411l1.01-5.644h11.959c0.84-1.053,1.686-2.116,2.357-3.346h-11.787
			l1.006-5.464h4.38c-0.504-1.76-1.179-3.525-2.015-5.28l6.563-3.346c0.841,1.578,2.024,3.873,3.364,6.692l-3.702,1.763h4.721
			c1.006-2.648,1.852-5.638,2.523-8.811h8.086c-0.843,3.172-1.691,6.163-2.868,8.811h5.733l-2.195-1.41
			c2.527-2.822,4.547-5.111,6.067-7.223l5.892,3.348c-1.681,1.931-3.03,3.696-4.379,5.103h4.04l-1.012,5.465h-16.671
			c-0.675,1.059-1.347,2.292-2.023,3.346h20.72l-1.014,5.637h-9.94c2.698,3.173,6.234,5.465,10.954,6.519
			c-2.025,3.178-3.705,5.638-4.72,7.576c-1.343-0.53-2.53-1.23-3.536-1.938l-0.672,3.346h-10.443l-0.507,2.292h10.441l-0.842,4.58
			H1176.7l-0.503,2.465h14.99C1189.836,480.749,1188.492,485.503,1187.313,488.151z M1213.079,495.021h-7.241l0.674-3.875h-5.893
			l-0.844,4.403h-7.238l5.385-28.717h20.38L1213.079,495.021z M1219.312,462.784h-21.05l1.347-6.877h20.88L1219.312,462.784z
			 M1200.28,451.855l1.348-6.871h20.884l-1.179,6.871H1200.28z M1252.488,495.548c-2.859,0.352-5.385-0.878-7.412-4.049
			c-3.53-5.637-4.208-13.393-2.187-23.613l0.669-3.694l0.512-2.645h-6.572l-0.506,2.645l-5.892,30.653h-9.095l5.895-30.653
			l0.504-2.645h-6.565l1.68-8.631h6.573l3.03-15.856h-4.883l1.685-8.634h29.473l-6.908,35.593v0.173
			c-1.514,7.751-2.021,13.211-1.179,16.557c0.335,1.765,1.179,0.176,2.69-4.754c2.192,1.054,4.721,2.111,7.412,3.7
			C1258.55,490.442,1255.517,495.724,1252.488,495.548z"/>
		<polygon  points="1239.185,452.739 1245.922,452.739 1248.955,436.88 1242.217,436.88 		"/>
	</g>
	<path fill-rule="evenodd" clip-rule="evenodd"  d="M463.755,409.879h-158.66c-5.958,0-10.789,4.832-10.789,10.792
		v158.654c0,5.964,4.831,10.79,10.789,10.79h158.66c5.962,0,10.792-4.826,10.792-10.79V420.671
		C474.547,414.711,469.718,409.879,463.755,409.879z M414.478,525.743c0,2.372-1.922,4.295-4.292,4.295h-21.459
		c-2.366,0-4.29-1.923-4.29-4.295v-21.457c0-2.37,1.923-4.296,4.29-4.296h21.459c2.37,0,4.292,1.926,4.292,4.296V525.743z
		 M444.514,465.662c0,2.367-1.918,4.289-4.287,4.289h-11.462v0.016c0,0-26.881,0-53.24,0c-12.23,0-21.129,9.951-21.129,21.974
		c0,26.435,0,56.703,0,56.703v7.143c0,2.371-1.918,4.293-4.293,4.293h-21.459c-2.372,0-4.284-1.922-4.284-4.293v-7.143
		c0,0-0.01-26.64-0.01-61.931c0-28.133,20.038-46.787,47.464-46.787c19.875,0,35.429,0,45.225,0c0.095-0.01,0.2-0.019,0.296-0.019
		h22.893c2.369,0,4.287,1.921,4.287,4.292V465.662z"/>
	<g id="XMLID_453_">
		<g id="XMLID_499_">
			<path id="XMLID_522_" fill-rule="evenodd" clip-rule="evenodd"  d="M922.417,519.899h-12.734
				c3.711-9.053,7.623-17.91,7.623-17.91s-6.562,0-11.259,0c-2.047,0-5.015,1.038-6.096,3.604
				c-2.435,5.755-4.569,10.801-6.061,14.307h-19.695c-1.495-3.506-3.63-8.552-6.057-14.307c-1.078-2.565-4.07-3.604-6.104-3.604
				c-4.689,0-11.253,0-11.253,0s3.908,8.857,7.628,17.91h-12.752c-1.409,0-2.554,1.144-2.554,2.562v2.556
				c0,1.408,1.145,2.557,2.554,2.557h76.76c1.412,0,2.561-1.148,2.561-2.557v-2.556
				C924.978,521.043,923.829,519.899,922.417,519.899z"/>
			<path id="XMLID_514_" fill-rule="evenodd" clip-rule="evenodd"  d="M924.978,421.654v-2.567
				c0-1.415-1.057-2.558-2.356-2.558h-20.139c-0.006-0.34-0.02-0.68-0.02-1.025c0-1.415-1.152-2.558-2.561-2.558h-10.746
				c-1.41,0-2.554,0.759-2.554,2.558c0,12.549,3.966,24.268,9.639,33.777h-24.395c5.667-9.509,9.637-21.228,9.637-33.779
				c0-1.797-1.148-2.556-2.559-2.556h-5.116h-5.63h-22.521c-1.409,0-2.554,1.146-2.554,2.556v2.563c0,1.416,1.145,2.564,2.554,2.564
				h19.763c-0.382,4.732-1.251,9.185-2.447,13.297h-17.821c-1.133,0-2.048,1.146-2.048,2.563v2.556c0,1.411,0.915,2.561,2.048,2.561
				h15.084c-4.408,10.444-10.481,17.845-14.052,21.01c-1.054,0.937-3.08,2.374-3.08,5.595c0,2.243,0,4.101,0,4.101
				c3.08,0,6.597-1.202,10.236-3.378v25.601c0,1.292,1.146,2.337,2.556,2.337h10.238h35.305c0.091,0,0.172-0.007,0.259-0.016
				c0.082,0.008,0.168,0.016,0.253,0.016h10.236c1.406,0,2.556-1.148,2.556-2.561v-25.377c3.641,2.176,7.163,3.378,10.235,3.378
				c0,0,0-1.858,0-4.094c0-3.228-2.021-4.665-3.082-5.602c-3.564-3.165-9.646-10.565-14.054-21.01h15.088
				c1.137,0,2.048-1.15,2.048-2.561v-2.556c0-1.417-0.911-2.563-2.048-2.563h-17.82c-0.891-3.06-1.594-6.311-2.044-9.725h19.556
				C923.921,424.202,924.978,423.058,924.978,421.654z M899.395,489.196h-30.702v-16.883h30.702V489.196z M908.875,464.632h-6.925
				c-0.085,0-0.171,0.003-0.253,0.012c-0.087-0.009-0.168-0.012-0.259-0.012h-35.305h-0.517h-6.407
				c2.52-2.19,5.014-4.793,7.367-7.744c0.185,0.042,0.377,0.069,0.576,0.069h34.403
				C903.896,459.881,906.366,462.464,908.875,464.632z"/>
			<path id="XMLID_508_" fill-rule="evenodd" clip-rule="evenodd"  d="M835.429,479.984h-35.821
				c-1.412,0-2.557,1.146-2.557,2.558v2.047v0.511v39.916c0,1.408,1.145,2.557,2.557,2.557h10.235h2.553h11.778v-0.18
				c0.287,0.115,0.598,0.18,0.93,0.18h0.514c6.834,0,12.369-5.533,12.369-12.368v-30.104v-0.511v-2.047
				C837.986,481.13,836.836,479.984,835.429,479.984z M822.635,519.899h-10.239v-32.24h10.239V519.899z"/>
			<path id="XMLID_506_" fill-rule="evenodd" clip-rule="evenodd"  d="M835.429,464.632h-35.821
				c-1.412,0-2.557,1.148-2.557,2.557v2.559c0,1.413,1.145,2.565,2.557,2.565h35.821c1.407,0,2.558-1.152,2.558-2.565v-2.559
				C837.986,465.78,836.836,464.632,835.429,464.632z"/>
			<path id="XMLID_504_" fill-rule="evenodd" clip-rule="evenodd"  d="M835.429,449.281h-35.821
				c-1.412,0-2.557,1.152-2.557,2.556v2.559c0,1.413,1.145,2.561,2.557,2.561h35.821c1.407,0,2.558-1.148,2.558-2.561v-2.559
				C837.986,450.434,836.836,449.281,835.429,449.281z"/>
			<path id="XMLID_502_" fill-rule="evenodd" clip-rule="evenodd"  d="M835.429,433.927h-35.821
				c-1.412,0-2.557,1.146-2.557,2.563v2.556c0,1.411,1.145,2.561,2.557,2.561h35.821c1.407,0,2.558-1.15,2.558-2.561v-2.556
				C837.986,435.073,836.836,433.927,835.429,433.927z"/>
			<path id="XMLID_500_" fill-rule="evenodd" clip-rule="evenodd"  d="M817.005,429.324h10.234
				c1.419,0,2.562-1.148,2.562-2.559v-1.02c0-7.071-5.733-12.799-12.797-12.799h-10.237c-1.406,0-2.555,1.146-2.555,2.556v1.027
				C804.213,423.596,809.943,429.324,817.005,429.324z"/>
		</g>
		<g id="XMLID_482_">
			<path id="XMLID_497_" fill-rule="evenodd" clip-rule="evenodd"  d="M775.879,519.899h-91.594v7.674h91.594h0.519
				c3.681,0,6.653-2.983,6.653-6.651v-1.022h-6.653H775.879z"/>
			<path id="XMLID_495_" fill-rule="evenodd" clip-rule="evenodd"  d="M760.022,476.4c-4.697,0-11.263,0-11.263,0
				s10.854,26.026,14.839,35.901c0.347,0.854,1.36,2.477,3.59,2.477c1.353,0,13.309,0,13.309,0s-9.342-23.771-14.377-34.765
				C764.965,477.471,762.057,476.4,760.022,476.4z"/>
			<path id="XMLID_493_" fill-rule="evenodd" clip-rule="evenodd"  d="M702.755,480.014
				c-5.044,10.994-14.375,34.765-14.375,34.765s11.954,0,13.313,0c2.221,0,3.237-1.623,3.583-2.477
				c3.975-9.875,14.837-35.901,14.837-35.901s-6.564,0-11.267,0C706.813,476.4,703.908,477.471,702.755,480.014z"/>
			<path id="XMLID_487_" fill-rule="evenodd" clip-rule="evenodd"  d="M702.712,454.996
				c1.122-2.792,3.003-7.356,5.117-12.473v0.106h18.928c0,3.156,0,10.849,0,19.958h-35.812c-1.422,0-2.566,1.146-2.566,2.559v2.554
				c0,1.413,1.144,2.561,2.566,2.561h35.812c0,11.857,0,24.561,0,32.29c0,4.192-2.052,7.11-4.604,7.11
				c-1.419,0-2.562,1.146-2.562,2.562c0,1.411,1.143,2.556,2.562,2.556c0,0,10.848,0,13.309,0c2.454,0,6.651-1.454,6.651-9.722
				c0-8.042,0-21.979,0-34.795h35.816c1.417,0,2.568-1.148,2.568-2.561v-2.554c0-1.413-1.15-2.559-2.568-2.559h-35.816
				c0-9.141,0-16.812,0-19.958h18.932v-0.106c2.112,5.117,3.989,9.681,5.117,12.473c0.337,0.847,1.352,2.469,3.589,2.469
				c1.353,0,13.299,0,13.299,0s-11.896-29.907-16.931-40.912c-1.155-2.532-4.063-3.607-6.098-3.607c-4.697,0-11.263,0-11.263,0
				h-28.646c0,0-6.564,0-11.267,0c-2.033,0-4.938,1.075-6.091,3.607c-5.044,11.005-16.931,40.912-16.931,40.912s11.943,0,13.302,0
				C701.354,457.465,702.375,455.843,702.712,454.996z M716.909,420.629h35.058c1.664,4.004,3.798,9.147,5.942,14.325h-46.953
				C713.109,429.776,715.243,424.634,716.909,420.629z"/>
			<path id="XMLID_485_" fill-rule="evenodd" clip-rule="evenodd"  d="M677.625,505.309
				c0.01-0.083,0.01-0.165,0.01-0.252c0-14.55,0-44.891,0-55.271h4.605c1.413,0,2.556-1.144,2.556-2.556v-2.556
				c0-1.416-1.143-2.553-2.556-2.553h-24.565c-1.413,0-2.556,1.137-2.556,2.553v2.556c0,1.412,1.143,2.556,2.556,2.556h4.61
				c0,10.388,0,40.753,0,55.271c0,3.883-0.385,11.013-3.604,13.722c-1.545,1.301-3.562,2.207-3.562,4.76c0,1.985,0,4.035,0,4.035
				c5.165,0,10.512-1.704,14.696-5.106c4.063,3.402,9.296,5.106,14.471,5.106c0,0-0.011-7.272-0.011-7.674
				C678.378,519.899,677.648,510.268,677.625,505.309z"/>
			<path id="XMLID_483_" fill-rule="evenodd" clip-rule="evenodd"  d="M667.914,433.927h10.232
				c1.412,0,2.556-1.144,2.556-2.556v-1.019c0-7.072-5.723-12.794-12.789-12.794h-10.239c-1.413,0-2.556,1.144-2.556,2.561v1.022
				C655.119,428.201,660.847,433.927,667.914,433.927z"/>
		</g>
		<g id="XMLID_459_">
			<path id="XMLID_480_" fill-rule="evenodd" clip-rule="evenodd"  d="M628.286,447.231h-2.518v-23.03h-97.227v20.472
				c0,1.417-1.144,2.558-2.562,2.558h-10.233c-1.412,0-2.562-1.141-2.562-2.558v-25.586c0-1.415,1.149-2.558,2.562-2.558h10.233l0,0
				h38.383v-4.089c0-1.412,1.143-2.561,2.561-2.561h16.375c3.671,0,6.642,2.977,6.642,6.65l0,0h38.377h0.004h10.239
				c1.413,0,2.55,1.144,2.55,2.558v15.315C641.111,441.491,635.371,447.231,628.286,447.231z"/>
			<path id="XMLID_474_" fill-rule="evenodd" clip-rule="evenodd"  d="M615.534,446.207h-6.658h-3.574h-55.785h-0.504
				h-9.733c-1.407,0-2.555,1.148-2.555,2.561v17.912c0,1.414,1.148,2.557,2.555,2.557h9.733h0.504h55.785h3.574h6.658
				c1.413,0,2.562-1.143,2.562-2.557v-17.912C618.096,447.355,616.947,446.207,615.534,446.207z M602.739,461.567h-50.655v-7.685
				h50.655V461.567z"/>
			<path id="XMLID_472_" fill-rule="evenodd" clip-rule="evenodd"  d="M536.213,433.42
				c0-1.42,1.148-2.558,2.555-2.558h76.766c1.413,0,2.562,1.138,2.562,2.558v2.556c0,1.409-1.148,2.563-2.562,2.563h-76.766
				c-1.407,0-2.555-1.154-2.555-2.563V433.42z"/>
			<path id="XMLID_460_" fill-rule="evenodd" clip-rule="evenodd"  d="M633.437,476.915h-12.489
				c-0.14,0-0.244,0.098-0.287,0.219c-0.321-0.142-0.669-0.219-1.037-0.219h-37.35h-10.239h-40.939h-5.117h-5.117
				c-1.412,0-2.561,1.146-2.561,2.556v45.546c0,1.408,1.148,2.557,2.561,2.557h12.789h86.999v-0.291c0,0.16,0.132,0.291,0.292,0.291
				h2.257c7.073,0,12.8-5.729,12.8-12.795v-35.308C636.001,478.061,634.847,476.915,633.437,476.915z M569.479,519.899h-35.828
				v-13.817h35.828V519.899z M569.479,498.406h-35.828V484.59h35.828V498.406z M620.651,519.899h-35.83v-13.817h34.803
				c0.363,0,0.706-0.077,1.027-0.214V519.899z M620.651,498.617c-0.321-0.137-0.664-0.211-1.027-0.211h-34.803V484.59h34.803
				c0.363,0,0.706-0.079,1.027-0.211V498.617z"/>
		</g>
		<g id="XMLID_454_">
			<path id="XMLID_457_" fill-rule="evenodd" clip-rule="evenodd"  d="M1064.353,439.558
				c1.412,0,2.555-1.144,2.555-2.559v-2.559c0-1.413-1.143-2.561-2.555-2.561h-12.173c3.752-8.163,7.06-15.35,7.06-15.35
				s-6.566,0-11.271,0c-2.035,0-4.934,1.069-6.103,3.607c-2.081,4.566-3.939,8.588-5.396,11.743h-29.21
				c2.196-6.482,3.361-13.084,3.361-19.439c0-1.805-1.144-2.561-2.554-2.561h-10.241c-1.406,0-2.563,1.141-2.563,2.561
				c0,6.582-1.164,13.16-3.38,19.439h-22.903c-1.371-3.225-3.075-7.272-4.965-11.743c-1.085-2.569-4.062-3.607-6.102-3.607
				c-4.703,0-11.261,0-11.261,0s3.209,7.264,6.573,15.35h-11.69c-1.406,0-2.553,1.148-2.553,2.561v2.559
				c0,1.415,1.146,2.559,2.553,2.559h17.402c1.354,0,13.308,0,13.308,0h16.326c-2.338,4.562-5.25,8.863-8.68,12.793h-38.356
				c-1.406,0-2.553,1.144-2.553,2.559v2.556c0,1.42,1.146,2.563,2.553,2.563h30.365c-7.985,6.43-17.758,11.119-28.93,13.126
				c-1.569,0.117-3.988,1.36-3.988,3.76c0,2.005,0,3.702,0,4.092c21.01,0,38.341-8.589,50.705-20.979h26.518
				c12.361,12.389,29.703,20.979,50.703,20.979c0-0.39,0-2.087,0-4.092c0-2.399-2.428-3.643-3.988-3.76
				c-11.174-2.008-20.946-6.697-28.933-13.126h30.366c1.412,0,2.555-1.143,2.555-2.563v-2.556c0-1.415-1.143-2.559-2.555-2.559
				h-67.994c3.061-4.051,5.653-8.36,7.769-12.793H1064.353z"/>
			<path id="XMLID_455_" fill-rule="evenodd" clip-rule="evenodd"  d="M1061.795,483.567H944.091
				c-1.405,0-2.557,1.142-2.557,2.557v2.563c0,1.409,1.151,2.552,2.557,2.552h12.722c-5.427,12.223-15.278,36.334-15.278,36.334
				s11.949,0,13.307,0c2.233,0,3.245-1.624,3.585-2.477c2.856-7.072,10.271-24.51,14.256-33.858h76.32c0,4.318,0,11.665,0,22.006
				c0,4.194-2.057,6.654-4.615,6.654h-30.181v0.512c0,3.956,3.2,7.162,7.163,7.162h23.018h4.615c3.091,0,6.829,0,8.187,0
				c2.461,0,7.164-1.454,7.164-9.724c0-13.626,0-24.752,0-29.163v-2.048v-0.516C1064.353,484.708,1063.201,483.567,1061.795,483.567
				z"/>
		</g>
	</g>
	<g id="XMLID_399_">
		<path id="XMLID_449_" fill-rule="evenodd" clip-rule="evenodd"  d="M722.293,567.058v0.386
			c0,2.968-2.41,5.378-5.377,5.378h-21.533v3.199v0.261v2.689c0,6.158-4.983,11.145-11.134,11.145h-0.401V562.06
			c0-7.851,6.371-14.221,14.228-14.221l0,0l0,0h24.217v0.39c0,2.964-2.41,5.378-5.377,5.378h-1.167h-6.24h-5.664v0.014
			c-0.064-0.007-0.125-0.014-0.203-0.014c-4.553,0-8.26,3.697-8.26,8.265c0,0.061,0.004,0.121,0.004,0.188h-0.004v4.998H722.293z"/>
		<path id="XMLID_445_" fill-rule="evenodd" clip-rule="evenodd"  d="M766.485,590.115h-22.289l0,0
			c-7.857,0-14.223-6.361-14.223-14.217l0,0l0,0v-26.143c0-1.05,0.867-1.917,1.929-1.917h7.68c1.063,0,1.923,0.867,1.923,1.917
			v11.918v0.258v13.967h0.014c0,0.064-0.014,0.122-0.014,0.192c0,4.56,3.699,8.26,8.268,8.26c0.061,0,0.127-0.01,0.185-0.01v0.01
			h5.673h1.254v-34.595c0-1.05,0.852-1.917,1.924-1.917h7.676c1.065,0,1.926,0.867,1.926,1.917v36.517v1.543v0.381
			C768.412,589.258,767.55,590.115,766.485,590.115z"/>
		<path id="XMLID_441_" fill-rule="evenodd" clip-rule="evenodd"  d="M809.155,553.606h-8.071v34.59
			c0,1.062-0.86,1.919-1.922,1.919h-7.687c-1.068,0-1.931-0.857-1.931-1.919v-34.59h-11.531c-1.063,0-1.919-0.862-1.919-1.921v-1.93
			c0-1.05,0.856-1.917,1.919-1.917h13.462h7.687h15.37v0.39C814.532,551.192,812.116,553.606,809.155,553.606z"/>
		<path id="XMLID_437_" fill-rule="evenodd" clip-rule="evenodd"  d="M858.725,590.115H836.43
			c-0.227,0-0.484-0.011-0.725-0.013c-0.084-0.008-0.146-0.014-0.216-0.02c-0.173-0.013-0.34-0.02-0.497-0.04
			c-0.109-0.011-0.203-0.025-0.293-0.034c-0.145-0.018-0.285-0.03-0.419-0.055c-0.13-0.014-0.239-0.039-0.354-0.06
			c-0.115-0.021-0.24-0.039-0.354-0.068c-0.12-0.021-0.246-0.055-0.369-0.08c-0.107-0.025-0.215-0.052-0.319-0.072
			c-0.135-0.037-0.27-0.074-0.391-0.114c-0.094-0.025-0.194-0.051-0.281-0.08c-0.137-0.046-0.275-0.092-0.413-0.133
			c-0.075-0.031-0.169-0.062-0.253-0.096c-0.137-0.049-0.268-0.101-0.397-0.152c-0.074-0.04-0.175-0.063-0.241-0.098
			c-0.158-0.061-0.292-0.132-0.445-0.197c-0.058-0.032-0.124-0.058-0.188-0.09c-0.157-0.073-0.311-0.152-0.463-0.234
			c-0.044-0.022-0.104-0.051-0.153-0.076c-0.168-0.09-0.326-0.185-0.479-0.277c-0.038-0.023-0.083-0.047-0.117-0.068
			c-0.16-0.101-0.328-0.205-0.486-0.309c-0.029-0.018-0.061-0.037-0.09-0.057c-0.168-0.111-0.327-0.234-0.487-0.356
			c-0.021-0.007-0.053-0.027-0.068-0.045c-0.172-0.126-0.329-0.247-0.488-0.382c-0.015-0.008-0.03-0.02-0.058-0.038
			c-0.16-0.133-0.313-0.272-0.468-0.419c-0.017-0.006-0.032-0.02-0.045-0.034c-0.161-0.146-0.319-0.301-0.48-0.454
			c0,0-0.009-0.007-0.009-0.009c-2.582-2.579-4.164-6.131-4.164-10.057l0,0l0,0v-26.143c0-1.05,0.864-1.917,1.923-1.917h7.681
			c1.062,0,1.918,0.867,1.918,1.917v11.918v0.258v13.967h0.018c0,0.064-0.018,0.122-0.018,0.192c0,4.56,3.703,8.26,8.272,8.26
			c0.058,0,0.122-0.01,0.185-0.01v0.01h5.673h1.243v-34.595c0-1.05,0.872-1.917,1.929-1.917h7.683c1.064,0,1.927,0.867,1.927,1.917
			v36.517v1.543v0.381C860.651,589.258,859.789,590.115,858.725,590.115z"/>
		<path id="XMLID_435_" fill-rule="evenodd" clip-rule="evenodd"  d="M879.863,555.521L879.863,555.521v5.772h12.688
			c7.851,0,14.22,6.363,14.22,14.22v0.385c0,7.852-6.369,14.217-14.22,14.217h-16.535h-1.148h-1.147
			c-2.981,0-5.392-2.403-5.392-5.379v-0.386h6.539h1.148h5.102h5.664v-0.01c0.069,0,0.129,0.01,0.195,0.01
			c4.568,0,8.265-3.7,8.265-8.26c0-0.066-0.008-0.128-0.008-0.192h0.008v-0.385h-0.008c0-0.065,0.008-0.129,0.008-0.192
			c0-4.559-3.696-8.264-8.265-8.264c-0.066,0-0.126,0.004-0.195,0.006v-0.006h-5.664h-3.17h-3.08h-4.603
			c-1.078,0-1.937-0.863-1.937-1.925l0,0v-1.918v-11.529v-1.93l0,0c0-1.05,0.858-1.917,1.937-1.917c0,0,3.675,0,7.683,0
			c3.597,0,7.475,0,9.218,0c3.692,0,16.073-0.695,19.605-4.227C906.771,553.948,888.013,554.965,879.863,555.521z"/>
		<path id="XMLID_431_" fill-rule="evenodd" clip-rule="evenodd"  d="M916.383,578.586
			c3.191,0,5.758,2.585,5.758,5.765c0,3.185-2.566,5.765-5.758,5.765c-3.176,0-5.762-2.58-5.762-5.765
			C910.621,581.171,913.207,578.586,916.383,578.586z"/>
		<path id="XMLID_427_" fill-rule="evenodd" clip-rule="evenodd"  d="M672.476,578.586c3.182,0,5.77,2.585,5.77,5.765
			c0,3.185-2.588,5.765-5.77,5.765c-3.183,0-5.757-2.58-5.757-5.765C666.719,581.171,669.293,578.586,672.476,578.586z"/>
		<path id="XMLID_423_" fill-rule="evenodd" clip-rule="evenodd"  d="M964.422,584.351v0.386
			c0,2.976-2.406,5.379-5.379,5.379h-18.829c-7.854,0-14.214-6.365-14.214-14.217V562.06c0-7.851,6.36-14.221,14.214-14.221h18.829
			c2.973,0,5.379,2.417,5.379,5.386v0.382h-6.532h-6.249h-5.67v0.014c-0.063-0.007-0.128-0.014-0.193-0.014
			c-4.493,0-8.147,3.598-8.258,8.067l0,0v14.225l0,0c0,0.064,0,0.122,0,0.192c0,4.56,3.699,8.26,8.258,8.26
			c0.065,0,0.13-0.01,0.193-0.01v0.01h5.67h6.249H964.422z"/>
		<path id="XMLID_417_" fill-rule="evenodd" clip-rule="evenodd"  d="M995.161,590.115h-7.68
			c-10.618,0-19.219-8.601-19.219-19.213v-3.845c0-10.614,8.601-19.219,19.219-19.219h7.68c10.623,0,19.224,8.604,19.224,19.219
			v3.845C1014.385,581.515,1005.784,590.115,995.161,590.115z M1002.852,564.944c0-6.262-5.072-11.338-11.337-11.338h-0.381
			c-6.264,0-11.337,5.076-11.337,11.338v8.071c0,6.26,5.073,11.335,11.337,11.335h0.381c6.265,0,11.337-5.075,11.337-11.335V564.944
			z"/>
		<path id="XMLID_413_" fill-rule="evenodd" clip-rule="evenodd"  d="M1062.433,590.115h-5.771
			c-1.059,0-1.918-0.857-1.918-1.919v-20.907c-3.259,5.664-6.176,10.729-6.541,11.297c-0.567,0.916-1.313,1.418-2.117,1.676
			c-0.174,0.154-0.368,0.246-0.573,0.246h-1.154h-2.3h-1.148c-0.217,0-0.398-0.092-0.575-0.246c-0.805-0.258-1.546-0.76-2.116-1.676
			c-0.362-0.567-3.275-5.633-6.535-11.297v20.907c0,1.062-0.865,1.919-1.924,1.919h-5.771c-1.062,0-1.917-0.857-1.917-1.919v-38.44
			c0-1.05,0.854-1.917,1.917-1.917h5.066h0.704c0.745,0,1.383,0.432,1.699,1.043c0.125,0.155,0.247,0.327,0.357,0.526
			c0.535,0.913,7.012,12.4,11.392,20.164c4.383-7.764,10.854-19.251,11.398-20.164c0.112-0.203,0.238-0.371,0.356-0.526
			c0.323-0.611,0.956-1.043,1.699-1.043h0.707h5.05h0.015c1.059,0,1.912,0.867,1.912,1.917v38.44
			C1064.345,589.258,1063.491,590.115,1062.433,590.115z"/>
		<g id="XMLID_400_">
			<path id="XMLID_409_" fill-rule="evenodd" clip-rule="evenodd"  d="M520.231,547.839h5.761
				c1.062,0,1.919,0.858,1.919,1.917v20.915c3.259-5.667,6.181-10.732,6.537-11.306c0.563-0.91,1.314-1.409,2.118-1.67
				c0.166-0.156,0.369-0.248,0.564-0.248h1.159h2.304h1.156c0.203,0,0.403,0.092,0.567,0.248c0.809,0.261,1.555,0.76,2.124,1.67
				c0.35,0.573,3.272,5.637,6.522,11.3v-20.909c0-1.059,0.87-1.917,1.938-1.917h5.756c1.059,0,1.929,0.858,1.929,1.917v38.437
				c0,1.059-0.87,1.923-1.929,1.923h-5.061H552.9c-0.746,0-1.39-0.427-1.716-1.043c-0.122-0.154-0.231-0.326-0.348-0.521
				c-0.533-0.911-7.019-12.407-11.398-20.161c-4.376,7.754-10.86,19.25-11.387,20.161c-0.124,0.195-0.235,0.369-0.369,0.527
				c-0.316,0.61-0.949,1.037-1.689,1.037h-0.708h-5.053l0,0c-1.07,0-1.929-0.864-1.929-1.923v-38.437
				C518.303,548.697,519.161,547.839,520.231,547.839z"/>
			<path id="XMLID_405_" fill-rule="evenodd" clip-rule="evenodd"  d="M570.188,547.839h5.767
				c1.06,0,1.911,0.858,1.911,1.917v20.915c3.268-5.667,6.189-10.732,6.54-11.306c0.57-0.91,1.326-1.409,2.124-1.67
				c0.176-0.156,0.371-0.248,0.566-0.248h1.164h2.303h1.148c0.211,0,0.391,0.092,0.57,0.248c0.806,0.261,1.543,0.76,2.123,1.67
				c0.343,0.573,3.272,5.637,6.523,11.3v-20.909c0-1.059,0.87-1.917,1.929-1.917h5.768c1.062,0,1.911,0.858,1.911,1.917v38.437
				c0,1.059-0.849,1.923-1.911,1.923h-5.05h-0.717c-0.74,0-1.383-0.427-1.701-1.043c-0.117-0.154-0.237-0.326-0.355-0.521
				c-0.535-0.911-7.019-12.407-11.394-20.161c-4.38,7.754-10.862,19.25-11.39,20.161c-0.11,0.195-0.248,0.369-0.376,0.527
				c-0.309,0.61-0.952,1.037-1.685,1.037h-0.708h-5.059l0,0c-1.062,0-1.925-0.864-1.925-1.923v-38.437
				C568.263,548.697,569.126,547.839,570.188,547.839z"/>
			<path id="XMLID_401_" fill-rule="evenodd" clip-rule="evenodd"  d="M620.15,547.839h5.77
				c1.054,0,1.918,0.858,1.918,1.917v20.915c3.258-5.667,6.177-10.732,6.535-11.306c0.569-0.91,1.321-1.409,2.123-1.67
				c0.171-0.156,0.363-0.248,0.57-0.248h1.156h2.29h1.161c0.215,0,0.399,0.092,0.57,0.248c0.804,0.261,1.547,0.76,2.123,1.67
				c0.351,0.573,3.265,5.637,6.53,11.3v-20.909c0-1.059,0.861-1.917,1.922-1.917h5.764c1.068,0,1.922,0.858,1.922,1.917v38.437
				c0,1.059-0.854,1.923-1.922,1.923h-5.054h-0.71c-0.74,0-1.377-0.427-1.698-1.043c-0.118-0.154-0.249-0.326-0.363-0.521
				c-0.523-0.911-7.007-12.407-11.389-20.161c-4.378,7.754-10.848,19.25-11.39,20.161c-0.118,0.195-0.244,0.369-0.358,0.527
				c-0.321,0.61-0.96,1.037-1.699,1.037h-0.717h-5.044h-0.008c-1.062,0-1.918-0.864-1.918-1.923v-38.437
				C618.232,548.697,619.088,547.839,620.15,547.839z"/>
		</g>
	</g>
	<g id="XMLID_158_">
		<path id="XMLID_380_"  d="M1121.992,554.486l6.058-0.895c-0.244-4.701-0.422-9.842-0.527-15.423h3.681
			c0.037,5.265,0.141,10.246,0.318,14.949l11.58-1.737l0.422,3.579l-11.843,1.791c0.278,5.896,0.771,10.91,1.478,15.054
			c2.455-3.544,4.558-7.546,6.311-12.004l3.425,1.736c-2.452,5.687-5.352,10.703-8.687,15.058c0.986,3.757,2.227,6.384,3.738,7.891
			c1.262,1.091,2.14,0.566,2.628-1.578c0.424-2.841,0.74-5.544,0.95-8.104c1.302,0.7,2.351,1.21,3.159,1.526
			c-0.458,3.685-0.951,6.74-1.479,9.157c-0.59,2.562-1.7,3.983-3.312,4.268c-1.581,0.034-3.001-0.688-4.263-2.16
			c-1.652-1.755-3.036-4.332-4.163-7.738c-2.418,2.776-5.069,5.211-7.941,7.319c-0.951-1.233-1.883-2.198-2.793-2.896
			c0.704-0.493,1.383-0.982,2.053-1.479h-12.899v7.005h-3.364v-7.005h-13.527v-3.367h13.527v-4.895h-7.633v1.845h-3.266v-20.898
			h25.163v20.898h-3.266v-1.845h-7.635v4.895h13.006v3.317c2.702-2.104,5.176-4.509,7.424-7.211
			c-1.093-4.88-1.789-10.966-2.107-18.264l-5.634,0.843L1121.992,554.486z M1094.154,540.799h12.314v12.477h-2.948v-1.633h-6.421
			v1.633h-2.945V540.799z M1103.521,543.961h-6.421v4.526h6.421V543.961z M1098.889,563.486h7.633v-4.737h-7.633V563.486z
			 M1098.889,571.277h7.633v-4.736h-7.633V571.277z M1117.521,558.749h-7.635v4.737h7.635V558.749z M1109.886,571.277h7.635v-4.736
			h-7.635V571.277z M1109.94,540.799h12.318v12.477h-2.948v-1.633h-6.421v1.633h-2.949V540.799z M1119.311,543.961h-6.421v4.526
			h6.421V543.961z M1133.519,541.958l2.58-2.208c2.213,1.929,4.321,3.929,6.323,5.997l-2.74,2.582
			C1138.001,546.328,1135.94,544.206,1133.519,541.958z"/>
		<path id="XMLID_366_"  d="M1148.787,543.275h18.42v41.582h-3.47v-2.685h-11.475v3.738h-3.476V543.275z
			 M1152.263,560.854h4V546.8h-4V560.854z M1152.263,578.649h4v-14.267h-4V578.649z M1163.737,546.8h-4.006v14.054h4.006V546.8z
			 M1159.731,578.649h4.006v-14.267h-4.006V578.649z M1167.526,554.535c3.547-4.731,6.578-10.244,9.102-16.523l3.795,1.208
			c-0.701,1.599-1.407,3.127-2.104,4.581h16.579v3.526c-2.439,4.825-5.44,8.974-9.005,12.451c3.459,2.401,7.704,4.218,12.738,5.447
			c-0.771,1.438-1.436,2.893-1.997,4.372c-5.457-1.845-10.024-4.259-13.717-7.241c-3.748,2.948-8.128,5.569-13.129,7.871
			c-0.84-1.443-1.646-2.651-2.421-3.635c4.734-1.803,8.965-4.098,12.688-6.872c-2.122-2.228-4.085-4.952-5.868-8.183
			c-1.286,2.144-2.576,4.07-3.873,5.792C1169.259,556.102,1168.334,555.174,1167.526,554.535z M1172.26,569.645h21.529v20.477
			h-3.893v-2.526h-13.742v2.526h-3.895V569.645z M1189.896,573.326h-13.742v10.584h13.742V573.326z M1190.472,547.38h-13.969
			l-0.319,0.577c1.946,3.846,4.191,6.984,6.733,9.424C1185.713,554.805,1188.226,551.465,1190.472,547.38z"/>
		<path id="XMLID_361_"  d="M1199.996,566.436c2.46-0.67,5.021-1.413,7.688-2.241v-11.605h-7v-3.683h7v-10.21h3.947
			v10.21h6.374v3.683h-6.374v10.37c1.813-0.576,3.67-1.191,5.582-1.842c-0.034,1.126,0,2.492,0.103,4.108
			c-1.913,0.596-3.803,1.202-5.685,1.814v16.552c0,3.825-1.699,5.738-5.101,5.738h-5.106c-0.143-1.228-0.369-2.718-0.688-4.473
			c1.966,0.21,3.567,0.31,4.793,0.31c1.436,0,2.154-0.836,2.154-2.521v-14.317c-2.402,0.804-4.789,1.631-7.158,2.477
			L1199.996,566.436z M1219.843,566.171v-3.684h27.057v3.636c-2.385,5.558-5.744,10.232-10.081,14.023
			c4.198,2.632,9.467,4.462,15.816,5.501c-0.979,1.296-1.857,2.629-2.629,3.998c-6.563-1.438-12.039-3.761-16.425-6.974
			c-4.737,3.315-10.418,5.785-17.056,7.396c-0.766-1.438-1.541-2.666-2.315-3.685c6.374-1.332,11.788-3.445,16.27-6.341
			c-3.865-3.707-6.618-8.328-8.264-13.872H1219.843z M1246.53,554.646h5.894c-0.35,1.26-0.645,2.542-0.893,3.843h-5.581
			c-4.03,0-6.048-1.93-6.048-5.792v-8.263h-11.69v1.944c0.034,6.771-2.646,11.824-8.054,15.158
			c-0.876-1.157-1.822-2.225-2.843-3.206c4.634-2.529,6.949-6.514,6.949-11.952v-5.627h19.581v11.366
			C1243.846,553.801,1244.741,554.646,1246.53,554.646z M1242.528,566.171h-16.501c1.475,4.669,4.002,8.537,7.585,11.606
			C1237.451,574.638,1240.423,570.769,1242.528,566.171z"/>
		<path id="XMLID_174_"  d="M1273.009,582.173l1.895,3.159c-5.617,1.716-11.613,3.313-18.005,4.789
			c-0.627-1.299-1.313-2.44-2.053-3.42C1260.637,585.471,1266.689,583.961,1273.009,582.173z M1268.22,547.852
			c0.628,1.231,1.313,2.338,2.053,3.319c-5.513,3.682-9.862,6.685-13.059,9.002l-2.316-3.422
			C1259.81,553.873,1264.25,550.909,1268.22,547.852z M1259.951,538.485c3.193,1.786,6.121,3.541,8.789,5.265l-2.684,2.893
			c-2.354-1.688-5.154-3.545-8.418-5.581L1259.951,538.485z M1260.902,560.222h38.523v22.211h-3.994v-1.47h-30.532v1.578h-3.997
			V560.222z M1295.432,563.172h-30.532v3.157h30.532V563.172z M1264.899,572.172h30.532v-3.211h-30.532V572.172z M1264.899,578.017
			h30.532v-3.213h-30.532V578.017z M1268.53,556.17c9.93-1.718,15.636-5.523,17.107-11.422h-7.475
			c-1.367,2.702-2.995,5.177-4.896,7.422c-1.12-0.663-2.299-1.333-3.524-2.002c3.266-3.473,5.669-7.454,7.213-11.945h3.892
			c-0.387,1.195-0.803,2.35-1.259,3.478h24.052v2.943l-3.58,6.314c-1.191-0.49-2.475-0.965-3.842-1.418l2.792-4.792h-9.528
			c-0.175,0.881-0.402,1.721-0.686,2.527c3.02,4.56,8.65,7.562,16.896,9c-0.881,1.125-1.723,2.35-2.526,3.684
			c-7.231-1.718-12.581-4.892-16.052-9.522c-2.983,4.416-8.286,7.472-15.902,9.156C1270.585,558.465,1269.69,557.33,1268.53,556.17z
			 M1284.747,585.278l1.733-2.95c5.857,1.195,12.038,2.649,18.527,4.373l-1.262,3.42
			C1295.85,587.946,1289.516,586.33,1284.747,585.278z"/>
	</g>
</g>
</svg>
