<?xml version="1.0" encoding="utf-8"?>
<!-- Generator: Adobe Illustrator 16.0.0, SVG Export Plug-In . SVG Version: 6.00 Build 0)  -->
<!DOCTYPE svg PUBLIC "-//W3C//DTD SVG 1.1//EN" "http://www.w3.org/Graphics/SVG/1.1/DTD/svg11.dtd">
<svg version="1.1" id="Layer_1" xmlns="http://www.w3.org/2000/svg" xmlns:xlink="http://www.w3.org/1999/xlink" x="0px" y="0px"
	 width="1600px" height="1000px" viewBox="0 0 1600 1000" enable-background="new 0 0 1600 1000" xml:space="preserve">
<g>
	<path  d="M564.851,586.77v-20.088c4.214-2.176,6.323-6.184,6.323-12.03l0.102-46.802h-6.118v-18.862h6.118v-38.236
		c0-7.272,0.238-11.827,0.713-13.663c1.699-6.934,6.695-11.148,14.989-12.644v-10.604h18.862v10.604l17.436-0.101
		c5.914,0,10.638,1.902,14.173,5.709c3.262,3.536,4.894,8.158,4.894,13.867v45.067h6.323v18.862h-6.323v59.75
		c0,5.845-1.156,10.264-3.466,13.256c-3.535,4.62-8.735,6.897-15.6,6.832l-7.545-0.104v-18.762l3.772-0.101
		c3.807-0.068,5.71-2.312,5.71-6.73V507.85h-36.299v44.763C588.914,570.966,580.893,582.349,564.851,586.77 M588.914,488.988h9.178
		v-27.835h17.638v27.835h9.483l-0.102-40.479c0-2.581-0.68-4.385-2.04-5.404c-0.953-0.68-2.821-1.019-5.607-1.019h-23.247
		c-3.535,0-5.303,2.855-5.303,8.563V488.988z M598.092,519.779h17.638v33.954h-17.638V519.779z M652.131,443.818v-18.862h41.293
		v-10.503h18.863v10.503h41.295v18.862H652.131z M653.354,587.075v-19.067c2.718,0,4.689-0.546,5.914-1.633
		c2.243-2.037,3.364-5.742,3.364-11.112v-72.392c0-8.021,1.087-13.731,3.263-17.131c2.106-3.466,5.098-6.184,8.973-8.156
		c3.194-1.699,6.118-2.582,8.769-2.651l34.258-0.102c6.118-0.067,11.25,1.801,15.397,5.607c5.165,4.76,7.748,10.979,7.748,18.659
		v71.169c0,7.952,0.306,12.679,0.918,14.174c1.02,2.581,2.752,3.873,5.2,3.873h6.015v18.862
		c-11.284-0.069-19.168-1.936-23.654-5.608c-4.894-4.078-7.341-10.059-7.341-17.944v-68.924c0-9.381-0.375-14.718-1.122-16.01
		c-2.107-3.467-4.725-5.199-7.851-5.199H692.1c-2.787,0-5.031,0.611-6.729,1.835c-2.651,1.835-3.978,3.909-3.978,6.219l0.103,4.282
		v65.561c0,9.38-0.815,16.043-2.446,19.984c-2.244,5.573-6.119,9.79-11.625,12.646C664.502,585.51,659.812,586.53,653.354,587.075"
		/>
	<path  d="M774.382,586.158V567.6h16.621v-63.624h-16.621v-18.862h16.621v-52.918h-16.621v-18.762h52.613v18.762
		h-17.437v52.918h17.437v18.862h-17.437V567.6h17.437v18.559H774.382z M832.807,587.481v-19.067
		c24.678-6.525,37.012-23.211,37.012-50.061V412.821h18.762v107.57c0,18.829-4.826,33.919-14.478,45.272
		c-6.595,7.814-14.82,13.625-24.676,17.434C845.756,584.525,840.215,585.986,832.807,587.481 M838.723,417.206h18.354v122.559
		h-18.354V417.206z M896.638,586.463v-18.455h22.022v-64.032h-22.022l-0.206-18.862h22.229v-52.51h-22.022V413.74h65.863v18.863
		h-24.979v52.51h24.979v18.862h-24.979v64.032h24.979v18.455H896.638z"/>
	<path  d="M982.692,492.454v-14.477c0-5.1,1.492-9.177,4.486-12.237c3.396-3.466,7.609-5.199,12.644-5.199h67.6
		v-5.608h10.604v-18.455c4.078-0.952,6.865-2.583,8.361-4.895c2.106-3.263,3.604-9.687,4.487-19.271h19.476l-0.715,7.137h61.483
		v18.149h-26.612v17.946h-18.864v-17.946h-20.393c-2.923,8.362-9.991,14.14-21.209,17.334h2.245v5.608h64.848
		c13.321,0,19.985,6.321,19.985,18.965v12.948h-10.808c0.543,3.332,0.814,7.649,0.814,12.951v11.622
		c0,5.237-0.918,8.771-2.753,10.605c-2.38,2.446-7.274,3.67-14.684,3.67h-131.939v8.363h119.095c14.748,0,23.279,0.748,25.592,2.24
		c1.9,1.224,3.159,2.551,3.771,3.976c0.611,1.361,0.918,3.91,0.918,7.649v19.677c0,4.147-0.611,7.103-1.835,8.872
		c-1.974,2.649-6.73,3.976-14.274,3.976h-131.837c-6.663,0-11.114-0.712-13.356-2.143c-5.034-3.331-7.547-8.156-7.547-14.476
		v-62.299c0-4.554,0.476-7.987,1.43-10.298c0.406-0.952,1.391-2.413,2.956-4.386H982.692z M982.692,455.544v-18.965
		c3.872-0.815,6.66-2.412,8.36-4.792c2.243-3.06,3.806-9.55,4.69-19.475h19.576l-0.814,7.137h61.585v18.149h-26.816v17.946h-18.864
		v-17.946h-20.085c-3.262,6.255-6.936,10.639-11.014,13.153C995.164,453.336,989.626,454.933,982.692,455.544 M1001.554,488.274
		c3.604-0.883,6.323-1.326,8.158-1.326h142.236l-0.102-2.651c-0.069-2.378-0.952-4.145-2.65-5.301
		c-0.748-0.544-1.463-0.883-2.142-1.02h-7.443h-125.516c-5.235,0-8.396,0.373-9.482,1.121c-2.176,1.361-3.23,3.331-3.159,5.913
		L1001.554,488.274z M1011.749,514.377h121.744c3.126,0,5.131-0.205,6.017-0.612c1.02-0.543,1.529-1.631,1.529-3.264v-1.631
		c0-1.698-0.612-2.922-1.835-3.671c-0.681-0.405-2.585-0.611-5.711-0.611h-113.38c-4.284,0-6.801,0.478-7.546,1.429
		c-0.547,0.68-0.818,2.004-0.818,3.977V514.377z M1011.749,556.386v7.34c0,2.582,0.511,4.248,1.532,4.996
		c0.678,0.475,3.465,0.715,8.359,0.715h110.221c4.284,0,6.694-0.14,7.239-0.408c1.29-0.751,1.938-2.278,1.938-4.59v-3.364
		c0-3.125-1.599-4.688-4.794-4.688H1011.749z"/>
	<path  d="M1190.592,586.158V569.23c14.41-2.38,23.96-4.179,28.653-5.401c20.729-5.303,43.5-17.677,68.312-37.115
		c-0.478-3.262-1.293-6.289-2.448-9.075c-30.453,21.482-61.957,34.396-94.518,38.747l-0.203-16.621
		c11.215-2.244,19.713-4.281,25.489-6.116c11.896-3.739,25.593-9.925,41.091-18.559c6.73-3.806,13.492-8.189,20.291-13.151
		c-1.158-2.108-2.618-3.91-4.385-5.405c-14.547,7.206-27.121,12.679-37.725,16.417c-13.393,4.758-28.244,8.258-44.559,10.502
		l-0.203-17.335c12.847-2.513,24.369-5.402,34.564-8.667c13.254-4.214,27.868-10.638,43.844-19.271h-75.654v-18.149h184.244v18.149
		h-73.924l-6.118,3.874l-6.525,4.079c5.234,7.137,8.973,14.514,11.217,22.125c23.994-10.942,39.016-17.435,45.067-19.475
		c10.059-3.263,20.698-5.199,31.913-5.811v18.966c-9.854,0.543-17.842,1.766-23.96,3.67c-5.982,1.835-13.493,5.133-22.534,9.89
		c7.953,16.449,14.547,27.733,19.781,33.851c4.757,5.505,10.195,10.299,16.314,14.377c2.786,1.835,6.457,3.093,11.011,3.773v19.37
		c-14.14-2.583-26.408-8.972-36.807-19.167c-6.323-6.186-12.171-14.478-17.538-24.879c-1.158-2.243-2.992-5.914-5.507-11.01
		c-0.952-1.835-2.209-4.352-3.772-7.546c-2.992,1.768-5.982,3.432-8.974,4.995c0.205,4.217,0.308,7.241,0.308,9.076
		c0,16.651-4.077,29.191-12.235,37.623c-6.256,6.525-15.09,10.024-26.511,10.501l-0.103-17.435
		c10.469-0.614,17.027-7.512,19.68-20.7c-15.09,10.808-27.973,18.522-38.645,23.147
		C1233.212,578.544,1213.568,583.437,1190.592,586.158 M1190.898,454.321v-11.013c0.065-13.254,6.729-19.881,19.983-19.881
		l65.053-0.103v-10.603h18.862v10.603l61.483,0.103c8.224,0,14.069,1.461,17.538,4.383c3.939,3.399,5.947,8.564,6.015,15.498
		l0.103,11.013h-19.168v-4.69c0-2.855-0.443-4.792-1.326-5.812c-1.088-1.222-3.026-1.835-5.812-1.835h-135.406
		c-3.127,0-5.268,0.613-6.422,1.835c-1.088,1.088-1.668,2.821-1.734,5.201v5.302H1190.898z"/>
	<g>
		<path  d="M336.105,425.306c-0.19,1.543-0.455,3.83-0.455,3.83l18.459,3.396l19.026-4.536
			c0,0,0.034-2.237,0.056-3.67c-5.333-1.163-10.867-1.782-16.549-1.782C349.53,422.544,342.646,423.51,336.105,425.306z"/>
		<path  d="M445.304,363.419H267.988c-26.468,0-47.924,21.456-47.924,47.922v177.32
			c0,26.466,21.456,47.92,47.924,47.92h177.315c26.468,0,47.924-21.454,47.924-47.92v-177.32
			C493.228,384.875,471.771,363.419,445.304,363.419z M434.633,465.244c4.738,10.618,7.376,22.379,7.376,34.759
			c0,32.809-18.511,61.286-45.657,75.578l7.836,15.348l-13.356-12.693c-10.469,4.58-22.03,7.128-34.189,7.128
			c-47.144,0-85.36-38.217-85.36-85.36c0-10.624,1.946-20.79,5.49-30.172l-22.054-20.96l32.325,1.696
			c15.472-21.747,40.879-35.929,69.599-35.929c31.928,0,59.754,17.526,74.397,43.482l27.527,1.443L434.633,465.244z"/>
		<polygon  points="299.595,494.604 304.397,496.086 294.345,486.531 293.625,489.371 		"/>
		<path  d="M328.285,450.347l-8.206-6.052l0.653-12.935c-9.319,4.887-17.515,11.621-24.115,19.708l5.521,0.29
			l26.181,1.374L328.285,450.347z"/>
		<polygon  points="328.32,452.731 302.139,451.358 328.32,452.731 		"/>
		<path  d="M299.595,494.604l-5.97-5.233l0.72-2.84l-11.288-10.729c-2.258,6.871-3.591,14.162-3.828,21.731
			l12.007,7.302l3.805,23.286l16.629,10.896l-1.04,23.18c2.694,1.942,6.748,4.747,9.592,6.173l11.669-14.195l8.456-23.92
			l-6.025-5.729l-29.925-28.439L299.595,494.604z"/>
		
			<rect x="280.914" y="481.167" transform="matrix(0.7248 0.6889 -0.6889 0.7248 410.9319 -66.491)"  width="15.573" height="0"/>
		<polygon  points="304.397,496.086 334.322,524.525 304.397,496.086 		"/>
		<path  d="M404.147,472.483l-22.088,5.244l-0.552,12.135l13.342,10.948l14.867-0.845l6.948,23.632l-1.917,27.621
			c12.044-13.652,19.354-31.58,19.354-51.215c0-11.763-2.623-22.911-7.313-32.896L404.147,472.483z"/>
		<polygon  points="382.059,477.727 382.059,477.727 404.147,472.483 		"/>
		<path  d="M394.905,432.64c-2.23,2.344-4.624,4.728-4.624,4.728l5.576,6.54l-5.017,7.349l-5.919,4.443l21.081,1.106
			l15.475,0.813C414.737,447.332,405.624,438.741,394.905,432.64z"/>
		<polygon  points="421.476,457.618 406.001,456.805 421.476,457.618 		"/>
		<path  d="M297.923,454.11l4.06,0.213l26.181,1.374l77.682,4.074l13.713,0.721c0.946,1.512,1.839,3.064,2.675,4.645
			l-18.772,4.457l-22.089,5.243l-31.81,7.552l-3.677,0.872l1.718,3.367l40.967,80.242c-1.208,0.579-2.432,1.126-3.665,1.637
			l-48.539-46.134l-29.925-28.44l-10.052-9.555l-9.922-9.43C289.138,467.424,292.984,460.428,297.923,454.11 M296.554,451.064
			c-5.915,7.264-10.534,15.624-13.51,24.727l0.012,0.011l11.288,10.729l10.052,9.555h0l29.925,28.439l49.918,47.446
			c2.864-1.104,5.645-2.371,8.333-3.791l-42.325-82.902l31.81-7.552l22.088-5.244l22.411-5.32c-1.551-3.322-3.33-6.515-5.319-9.557
			l-15.238-0.801l-77.682-4.074l-26.181-1.374L296.554,451.064L296.554,451.064z"/>
	</g>
</g>
</svg>
