<?xml version="1.0" encoding="utf-8"?>
<!-- Generator: Adobe Illustrator 16.0.0, SVG Export Plug-In . SVG Version: 6.00 Build 0)  -->
<!DOCTYPE svg PUBLIC "-//W3C//DTD SVG 1.1//EN" "http://www.w3.org/Graphics/SVG/1.1/DTD/svg11.dtd">
<svg version="1.1" id="Layer_1" xmlns="http://www.w3.org/2000/svg" xmlns:xlink="http://www.w3.org/1999/xlink" x="0px" y="0px"
	 width="1600px" height="1000px" viewBox="0 0 1600 1000" enable-background="new 0 0 1600 1000" xml:space="preserve">
<g>
	<path  d="M583.968,360.561c-19.113-16.633-32.525-20.899-50.601-23.44c-14.631-2.052-31.105-2.211-50.476-2.211
		h-58.814c0,0-35.963-1.521-54.663,4.103c-12.659,3.845-38.28,17.094-48.466,39.409c-10.188,22.326-11.154,42.26-12.162,58.046
		c-0.968,15.766-5.973,116.333-5.973,116.333s-2.725,42.067,29.229,63.942c0,0,21.371,17.258,74.616,17.258h26.458
		c0,0,5.323-1.293,3.97,5.457c-1.342,6.746-5.339,17.77-5.339,17.77s-1.997,4.709,0,6.524c2.008,1.841,2.732,1.881,10.785,0.847
		c27.016-3.522,65.315-10.519,103.55-31.36c36.626-19.962,54.919-47.255,58.19-80.793l6.705-115.73
		C610.976,436.714,614.961,387.498,583.968,360.561z M456.6,595.778v0.309c-55.443-0.022-100.382-44.249-100.382-98.807
		c0-50.022,37.788-91.338,86.807-97.877v-37.768l65.001,52.509l-65.001,49.928v-35.233c-32.536,6.347-57.097,34.987-57.097,69.378
		c0,38.353,30.539,69.546,68.623,70.646c0.67-0.102,1.351-0.17,2.05-0.17c7.479,0,13.54,6.063,13.54,13.539
		C470.139,589.715,464.079,595.778,456.6,595.778z M499.42,582.235c-6.094,0-11.036-4.942-11.036-11.038
		c0-6.097,4.942-11.034,11.036-11.034c6.093,0,11.034,4.938,11.034,11.034C510.454,577.293,505.513,582.235,499.42,582.235z
		 M530.68,549.55c-4.488,0-8.127-3.634-8.127-8.122c0-4.487,3.64-8.129,8.127-8.129s8.128,3.642,8.128,8.129
		C538.808,545.916,535.167,549.55,530.68,549.55z M542.645,503.859c-2.795,0-5.065-2.27-5.065-5.065c0-2.795,2.27-5.064,5.065-5.064
		c2.796,0,5.063,2.27,5.063,5.064C547.708,501.59,545.441,503.859,542.645,503.859z"/>
	<path  d="M500.887,419.631L500.887,419.631l-57.863,44.438v-35.227c-32.536,6.343-57.097,34.983-57.097,69.374
		c0,6.391,0.866,12.577,2.458,18.463c-1.098-8.942-0.715-19.182,2.683-30.165c11.15-36.062,45.315-46.268,45.315-46.268v37.604
		l70.014-53.772L500.887,419.631z"/>
	<path  d="M719.593,384.143h24.917l0.695-11.844l0.279-4.72l0.554-9.455h-10.104h-11.537h-21.644l-0.521,8.834
		c-0.26,4.4,1.272,8.805,4.671,12.149C710.289,382.466,714.896,384.143,719.593,384.143"/>
	<path  d="M715.933,446.405h24.918l0.695-11.841l0.281-4.728l0.55-9.454h-10.104h-11.537h-21.642l-0.525,8.845
		c-0.261,4.396,1.274,8.801,4.673,12.152C706.631,444.728,711.236,446.405,715.933,446.405"/>
	<path  d="M867.45,369.976l31.553,0.018l1.401-23.865l-43.412-0.015l-0.721,12.266
		c-0.175,2.97,0.815,5.933,2.993,8.205C861.451,368.854,864.41,369.976,867.45,369.976"/>
	<path  d="M721.575,600.901c11.265-18.241,13.471-55.68,14.67-76.153c0.078-1.34,2.44-41.545,2.44-41.545h-34.593
		c0,0-4.357,74.146-4.766,81.11c-2.191,37.288-18.873,42.31-18.873,42.31l-1.663,28.227
		C698.59,631.284,714.203,612.84,721.575,600.901"/>
	<path  d="M976.075,473.585l4.026-68.423l1.503-25.478H800.348c-32.212,0.036-34.605,23.074-34.754,25.307
		c-3.079,52.364-9.05,153.938-9.366,159.322c-2.093,35.651-20.739,42.31-20.739,42.31l-1.663,28.227
		c19.799-3.565,36.076-22.624,43.438-34.548c11.27-18.256,13.478-55.686,14.676-76.153c0.025-0.446,0.319-5.489,1.647-28.016
		h135.373h3.168h2.428h14.013C974.884,496.133,976.188,478.306,976.075,473.585 M943.888,472.449h-7.939h-2.424H794.98
		c1.388-23.601,2.882-49.027,3.952-67.287h155.122l-3.605,61.307h-0.138C949.937,472.859,943.888,472.449,943.888,472.449"/>
	<path  d="M1035.098,384.44h24.919l0.697-11.844l0.279-4.72l0.552-9.455h-10.104h-11.543h-21.632l-0.523,8.834
		c-0.258,4.4,1.278,8.805,4.666,12.149C1025.8,382.764,1030.396,384.44,1035.098,384.44"/>
	<polygon  points="1291.618,635.268 1293.121,609.782 1194.063,609.782 1207.306,384.438 1295.753,384.438 
		1297.245,359.159 1088.322,359.159 1086.827,384.438 1173.415,384.438 1160.174,609.782 1062.983,609.782 1061.487,635.268 
		1158.678,635.268 1192.571,635.268 	"/>
	<path  d="M1036.885,600.6c11.267-18.252,13.434-55.076,14.64-75.551c0.072-1.347,2.439-41.544,2.439-41.544h-34.595
		c0,0-4.324,73.524-4.728,80.488c-2.342,39.812-18.884,42.325-18.884,42.325l-1.695,28.829
		C1013.861,631.582,1029.507,612.527,1036.885,600.6"/>
	<path  d="M1031.441,446.702h24.919l0.697-11.84l0.279-4.728l0.556-9.454h-10.112h-11.535h-21.644l-0.516,8.845
		c-0.258,4.396,1.271,8.801,4.655,12.152C1022.144,445.025,1026.736,446.702,1031.441,446.702"/>
</g>
</svg>
