<?xml version="1.0" encoding="utf-8"?>
<!-- Generator: Adobe Illustrator 16.0.0, SVG Export Plug-In . SVG Version: 6.00 Build 0)  -->
<!DOCTYPE svg PUBLIC "-//W3C//DTD SVG 1.1//EN" "http://www.w3.org/Graphics/SVG/1.1/DTD/svg11.dtd">
<svg version="1.1" id="Layer_1" xmlns="http://www.w3.org/2000/svg" xmlns:xlink="http://www.w3.org/1999/xlink" x="0px" y="0px"
	 width="1600px" height="1000px" viewBox="0 0 1600 1000" enable-background="new 0 0 1600 1000" xml:space="preserve">
<g>
	<g>
		<g>
			<g>
				<path  d="M447.729,390.143v-0.859h-70.555v-10.54h56.838c12.663,0,13.717-6.665,13.717-12.951v-0.87h-70.555
					v-7.207h-18.342v7.207H288.27v13.821h70.562v10.54H288.27v13.832h145.743C446.675,403.115,447.729,396.421,447.729,390.143z"/>
				<path  d="M447.729,456.3v-0.877h-33.886v-9.421h11.688c11.63,0,21.104-8.037,21.104-17.927v-17.067H289.392
					v17.067c0,9.89,9.457,17.927,21.075,17.927h7.156v9.421H288.27v13.821h145.743C446.675,469.244,447.729,462.55,447.729,456.3z
					 M312.439,432.17c-2.618,0-4.723-1.823-4.723-4.095v-3.257h120.577v3.257c0,2.271-2.126,4.095-4.705,4.095H312.439z
					 M395.49,455.423h-59.503v-9.421h59.503V455.423z"/>
				<path  d="M964.612,358.517h-16.229v8.037h-26.621v-8.037h-16.256v153.035h72.523
					c12.558,0,13.591-7.815,13.591-15.156v-1.083h-27.008v-26.679h13.417c12.558,0,13.591-7.824,13.591-15.136v-1.102h-27.008
					v-26.668h13.417c12.558,0,13.591-7.806,13.591-15.157v-1.091h-27.008v-26.679h13.417c12.558,0,13.591-7.835,13.591-15.153
					v-1.095h-27.008V358.517z M948.383,495.312h-26.621v-26.679h26.621V495.312z M948.383,452.396h-26.621v-26.668h26.621V452.396z
					 M948.383,409.48h-26.621v-26.679h26.621V409.48z"/>
				<path  d="M446.635,494.251v-17.078H289.392v17.078c0,9.883,9.457,17.922,21.075,17.922h115.063
					C437.161,512.173,446.635,504.134,446.635,494.251z M312.439,498.367c-2.618,0-4.723-1.834-4.723-4.116v-3.246h120.577v3.246
					c0,2.282-2.126,4.116-4.705,4.116H312.439z"/>
				<path  d="M873.011,441.861c-10.305,0-17.696,2.22-22.592,13.326l-24.885,56.364
					c16.703-0.152,21.841-4.499,25.357-12.44l25.268-57.25H873.011z"/>
				<path  d="M547.325,485.405c8.734,2.78,15.814,7.716,22.66,12.507c10.084,6.996,19.609,13.64,33.702,13.64
					c18.577,0,29.239-10.325,29.239-28.291v-26.672c0-19.714-10.333-29.701-30.705-29.701H492.227v-38.532h-18.7v55.271H600.22
					c11.37,0,13.977,2.426,13.977,12.962v23.858c0,6.774-0.888,11.565-12.489,11.565c-6.084,0-12.471-4.019-20.566-9.139
					c-10.46-6.561-23.469-14.778-41.042-16.991c-3.466-0.427-7.069-0.676-10.691-0.676c-20.324,0-40.724,6.694-57.485,18.862v21.438
					c5.12-4.031,30.34-22.748,58.034-22.748C535.995,482.759,541.847,483.618,547.325,485.405z"/>
				<path  d="M489.457,378.039h94.36c19.067,0,22.44,1.672,22.44,22.44v16.237h18.721v-20.228
					c0-25.975-9.225-35.188-35.2-35.188H473.527v0.483C473.614,365.59,475.043,378.039,489.457,378.039z"/>
				<path  d="M881.994,382.802v36.832h-20.313c-11.233,0-11.67-2-11.67-10.471v-18.064h-16.226v18.064
					c0,12.442,3.188,26.719,27.896,26.719h20.313v48.209c0,6.567-0.859,11.222-12.114,11.222h-5.715v16.239h5.715
					c23.726,0,28.351-10.076,28.351-27.461V366.554h-63.955c0.069,1.816,0.68,7.728,4.745,11.872
					c2.859,2.917,6.867,4.376,11.9,4.376H881.994z"/>
				<g>
					<path  d="M676.48,366.034h-6.81c-8.759,0-15.861,6.82-15.861,15.562l0,0l0,0l0,0h15.861l0,0h6.81v45.332h-6.81
						l-0.018,0.018c-8.723,0-15.822,6.82-15.843,15.562l0,0l0,0v0.029h15.861v-0.029h6.81v41.584
						c0,6.539-0.917,11.554-12.468,11.554H653.81v15.561h12.142c17.812,0,28.051-9.881,28.051-27.114V358.257H676.48V366.034z"/>
					<g>
						<path  d="M702.213,365.908v16.255h93.068c9.456,0,17.1-7.262,17.1-16.208v-0.047H702.213z"/>
					</g>
					<g>
						<rect x="746.996" y="357.823"  width="17.165" height="18.913"/>
					</g>
					<g>
						<path  d="M725.646,489.269h0.466c4.239,0,8.268-1.834,11.088-5.005c3.315-3.729,4.561-8.867,3.546-14.449
							l-10.345-59.435c-1.866-11.041-8.337-16.172-20.364-16.172h-0.639l16.161,94.624L725.646,489.269z"/>
						<path  d="M779.102,495.991c8.561-10.073,10.327-17.948,12.673-32.069l11.918-69.122l0.069-0.592h-0.629
							c-12.045,0-18.515,5.131-20.371,16.172c-0.097,0.513-8.77,49-9.261,51.213c-4.34,19.967-11.157,34.398-23.386,34.398h-47.902
							v16.246h93.068c9.178,0,16.836-7.048,17.1-15.704v-0.542H779.102z"/>
					</g>
				</g>
			</g>
			<g>
				<path  d="M1081.268,363.308h-22.486c-30.571,0-44.743,21.6-44.743,45.285v102.475h18.642v-60.332h48.588h8.096
					h4.827c9.46,0,17.118-9.116,17.118-18.572v-0.08h-21.945v-0.007h-56.684v-21.35c0-21.635,14.897-28.755,27.542-28.755h21.046
					h10.984h7.976c9.449,0,17.107-9.139,17.107-18.605v-0.059h-25.083H1081.268z"/>
				<path  d="M1254.065,371.172l-47.978,47.494l-47.989-47.494c-13.049-14.432-23.888-6.856-23.888,5.304v134.592
					h17.955V401.858c0-4.065,2.784-7.059,7.817-2.007l46.104,45.35l46.111-45.35c4.704-5.362,7.827-2.059,7.827,2.007v91.273v17.936
					c9.89,0,17.927-8.024,17.927-17.936V376.476C1277.953,364.315,1267.125,356.74,1254.065,371.172z"/>
			</g>
		</g>
	</g>
	<g>
		<path  d="M282.077,567.949c0.495-0.592,2.04-0.303,4.687,0.903c0,36.481-0.357,56.514-1.083,60.109
			c-0.715,3.61-1.314,5.322-1.795,5.229c-0.495-0.138-1.025-1.155-1.632-3.055c-0.599-1.921-0.957-3.365-1.072-4.318
			c-0.126-0.968,0.181-4.514,0.896-10.622c0.736-6.124,1.083-14.992,1.083-26.646c0-11.634-0.3-18.003-0.906-19.086
			C281.655,569.394,281.597,568.549,282.077,567.949z M294.859,596.025c-0.137-1.336-1.21-2.707-3.239-4.137
			c-2.047-1.445-2.954-2.412-2.701-2.875c0.231-0.483,1.253-0.483,3.051,0c1.805,0.463,2.928,0.535,3.419,0.174
			c0.491-0.361,0.242-2.051-0.704-5.048c-0.986-3.004-1.452-4.723-1.452-5.206c0-0.477,0.466-2.174,1.452-5.048
			c0.946-2.882,1.264-4.492,0.896-4.854c-0.365-0.368-1.679-0.238-3.961,0.361c-2.278,0.606-4.856,0.896-7.734,0.896v-1.798
			c2.383,0,4.954-0.542,7.734-1.618c2.755-1.083,4.434-2.028,5.044-2.881c0.599-0.838,1.256-1.257,1.982-1.257
			c0.715,0,1.91,0.665,3.582,1.979c1.683,1.314,2.531,2.275,2.531,2.882c0,0.592-0.542,1.134-1.632,1.61
			c-1.083,0.483-2.524,2.051-4.308,4.68c-1.809,2.643-2.87,4.21-3.238,4.693c-0.365,0.462,0.473,2.557,2.502,6.275
			c2.051,3.719,2.473,6.795,1.278,9.186c-1.221,2.397-2.224,3.661-3.055,3.776C295.458,597.947,294.974,597.348,294.859,596.025z
			 M343.974,635.62c-0.953-0.115-7.07-2.463-18.342-7.026c-11.29-4.542-17.648-6.839-19.067-6.839c-1.459,0-3.253,0.311-5.409,0.91
			c-2.163,0.6-3.661,0.6-4.492,0c-0.849-0.6-1.621-1.487-2.336-2.708c4.318-0.469,6.943-0.758,7.9-0.902
			c0.975-0.102,2.387-0.174,4.336-0.174c1.914,0,4.318,0.65,7.196,2.008c2.871,1.314,8.135,2.859,15.822,4.65
			c7.68,1.798,15.176,2.881,22.509,3.242c7.312,0.376,10.973,0.838,10.973,1.438c0,0.606-1.683,1.437-5.033,2.52
			c-3.373,1.069-6.319,1.863-8.828,2.34C346.689,635.562,344.942,635.743,343.974,635.62z M306.2,614.57
			c-0.957-2.889-1.509-4.795-1.614-5.756c-0.137-0.945,0.104-2.404,0.704-4.332c0.599-1.921,0.668-2.982,0.184-3.265
			c-0.484-0.202-1.025-0.202-1.622,0c-0.599,0.282-1.74,0.513-3.43,0.759c-1.654,0.23-2.755,0.23-3.235,0
			c-0.466-0.246-0.834-0.542-1.065-0.918c-0.242-0.36,0.946-0.83,3.592-1.443c2.65-0.578,4.196-1.242,4.687-1.957
			c0.473-0.736,1.13-1.025,1.979-0.917c0.841,0.122,1.903,0.671,3.228,1.632c1.322,0.953,1.914,1.747,1.806,2.325
			c-0.126,0.606-0.78,1.863-1.972,3.784c-1.195,1.928-1.805,3.062-1.805,3.444c0,0.332,0.462,1.776,1.44,4.304
			c0.946,2.521,1.073,5.344,0.365,8.463h-1.458C307.752,619.488,307.153,617.451,306.2,614.57z M311.045,582.334
			c0.853,1.806,0.957,3.192,0.369,4.152c-0.6,0.961-1.09,1.444-1.448,1.444c-0.357,0-1.13-0.736-2.329-2.173
			c-1.217-1.423-1.979-3.171-2.347-5.207c-0.358-2.029-0.3-3.178,0.184-3.423c0.484-0.238,1.321,0.138,2.509,1.076
			C309.193,579.179,310.215,580.551,311.045,582.334z M325.083,582.876c-2.997,5.055-5.932,8.89-8.82,11.525
			c-2.878,2.643-4.55,3.798-5.033,3.415c-0.48-0.346,0.483-1.979,2.888-4.853c2.397-2.874,4.976-6.954,7.749-12.232
			c2.744-5.279,4.791-10.081,6.095-14.385c1.314-4.326,1.621-6.868,0.906-7.568c-0.733-0.736-0.838-1.314-0.347-1.805
			c0.462-0.478,1.177-0.593,2.145-0.354c0.957,0.238,1.921,0.65,2.878,1.249c0.968,0.607,1.506,1.322,1.625,2.174
			c0.115,0.838-0.802,3.597-2.697,8.269C330.539,572.982,328.077,577.857,325.083,582.876z M350.466,571.546
			c-1.448,0.368-4.26,0.852-8.459,1.437c-4.203,0.614-9.063,1.271-14.576,1.986c-5.535,0.715-8.51,1.018-9.005,0.896
			c-0.491-0.108-1.253-0.578-2.336-1.438c-1.083-0.83-1.372-1.387-0.899-1.625c0.484-0.23,1.567-0.36,3.235-0.36
			c1.683,0,5.517-0.477,11.507-1.438c6.026-0.946,10.276-1.798,12.789-2.513c2.531-0.723,4.141-1.076,4.849-1.076
			c0.744,0,1.748,0.412,3.069,1.249c1.314,0.853,1.972,1.444,1.972,1.799C352.611,570.831,351.896,571.191,350.466,571.546z
			 M322.928,585.41c0.347-0.483,1.621-0.483,3.777,0c0,14.652-0.116,24.062-0.357,28.265c-0.242,4.188-0.665,6.282-1.264,6.282
			c-0.61,0-1.141-0.715-1.603-2.159c-0.484-1.43-0.783-2.317-0.91-2.7c-0.134-0.347,0-1.849,0.357-4.499
			c0.347-2.636,0.552-6.831,0.552-12.602c0-5.748-0.206-9.171-0.552-10.261C322.57,586.674,322.57,585.901,322.928,585.41z
			 M332.644,605.926c-2.509,0.484-4.994,0.723-7.37,0.723v-2.881c1.683,0,3.004-0.181,3.95-0.521
			c0.957-0.375,1.914-0.556,2.881-0.556c0.964,0,1.91,0.181,2.867,0.556c0.986,0.34,1.441,0.759,1.441,1.235
			C336.414,604.966,335.168,605.442,332.644,605.926z M344.353,616.007c-0.26,1.921-0.91,3.712-1.982,5.401
			c-1.091,1.683-2.047,2.441-2.889,2.34c-0.849-0.13-1.274-0.83-1.274-2.166c0-1.314-0.831-2.629-2.502-3.95
			c-1.689-1.314-2.336-2.21-1.979-2.715c0.357-0.462,1.383-0.462,3.062,0c1.671,0.505,2.618,0.375,2.87-0.347
			c0.242-0.715,0.365-2.571,0.365-5.575s-0.191-7.329-0.542-12.97c-0.365-5.646-0.78-8.693-1.274-9.178
			c-0.473-0.483-4.665,0-12.576,1.438l0.347-2.875c3.604-0.23,6.185-0.556,7.749-0.902c1.556-0.368,2.636-0.838,3.235-1.444
			c0.599-0.585,1.314-0.823,2.155-0.729c0.849,0.145,1.979,0.687,3.427,1.625c1.43,0.968,2.155,1.755,2.155,2.347
			c0,0.6-0.3,1.265-0.906,1.979c-0.592,0.729-0.592,5.033,0,12.933C344.4,609.161,344.573,614.086,344.353,616.007z
			 M325.979,596.922v-2.882c0.979,0,1.925-0.181,2.889-0.534c0.946-0.361,1.914-0.542,2.889-0.542c0.957,0,1.903,0.181,2.87,0.542
			c0.946,0.354,1.372,0.772,1.246,1.264C335.756,595.253,332.471,595.968,325.979,596.922z"/>
		<path  d="M409.825,573.886c0,30.012-0.318,46.144-0.91,48.418c-0.6,2.282-1.091,3.423-1.448,3.423
			c-0.347,0-0.888-0.649-1.621-1.979c-0.708-1.336-1.065-2.758-1.065-4.318c0-1.566,0.292-5.221,0.881-10.983
			c0.606-5.755,0.675-12.421,0.184-19.974c-0.484-7.575-1.015-12.06-1.603-13.504c-0.61-1.444-0.61-2.275,0-2.527
			C404.831,572.21,406.694,572.693,409.825,573.886z M427.647,571.914c1.787,1.321,2.683,2.282,2.683,2.867
			c0,0.599-0.434,1.147-1.246,1.632c-0.867,0.477-1.333,7.922-1.437,22.307c-0.137,14.421-0.61,22.631-1.452,24.667
			c-0.838,2.052-1.748,3.055-2.711,3.055c-0.95,0-1.372-1.003-1.257-3.055c0.134-2.036-1.025-4.874-3.419-8.47
			c1.932,0,3.069-0.347,3.419-1.062c0.357-0.715,0.657-4.86,0.899-12.421c0.231-7.575,0.357-13.634,0.357-18.197
			c0-4.535-0.311-7.12-0.899-7.72c-0.61-0.606-2.82-0.549-6.654,0.166c-3.845,0.729-6.716,1.076-8.647,1.076v-3.235
			c3.845,0,7.091-0.354,9.727-1.083c2.636-0.708,4.261-1.308,4.867-1.791c0.592-0.477,1.25-0.715,1.972-0.715
			C424.563,569.936,425.838,570.6,427.647,571.914z M413.406,592.249c1.683-0.483,3.304-0.36,4.871,0.354
			c1.552,0.715,2.036,1.437,1.437,2.166c-0.607,0.715-4.751,1.321-12.432,1.805v-3.256
			C409.688,593.087,411.728,592.733,413.406,592.249z M422.776,617.083l-15.493,1.798v-3.964c0.744,0,2.542-0.166,5.402-0.521
			c2.877-0.375,4.82-0.541,5.766-0.541C419.396,613.855,420.855,614.917,422.776,617.083z M443.1,585.758
			c5.391-0.961,11.215-2.088,17.465-3.424c6.239-1.292,9.658-1.957,10.247-1.957c0.599,0,1.556,0.231,2.888,0.701
			c1.304,0.498,2.64,1.162,3.954,1.985c1.322,0.838,1.812,1.56,1.437,2.174c-0.357,0.585-3.408,0.896-9.167,0.896
			c-5.767,0-13.02,0.83-21.779,2.498c-8.771,1.69-13.497,2.535-14.201,2.535c-0.733,0-1.632-0.419-2.715-1.257
			c-1.083-0.83-1.69-1.494-1.794-1.979c-0.137-0.483,0.772-0.736,2.693-0.736C434.059,587.194,437.72,586.725,443.1,585.758z
			 M442.927,608.814c-0.483,0.47-0.917,0.723-1.264,0.723c-0.361,0-1.683-1.574-3.943-4.687c-2.289-3.12-3.614-5.395-3.99-6.854
			c-0.347-1.423-0.347-2.202,0-2.34c0.376-0.108,1.275,0.08,2.715,0.542c1.448,0.483,2.993,1.502,4.676,3.069
			c1.668,1.566,2.52,3.423,2.52,5.582S443.389,608.331,442.927,608.814z M446.509,629.857c-3.582-2.521-5.265-4.008-5.041-4.491
			c0.26-0.47,1.874-0.238,4.878,0.715c2.993,0.96,5.022,1.336,6.124,1.083c1.062-0.238,1.845-1.387,2.329-3.416
			c0.484-2.043,0.733-9.12,0.733-21.23c0-12.139-0.318-21.656-0.906-28.632c-0.6-6.954-1.394-10.919-2.34-11.865
			c-0.975-0.975-1.321-1.805-1.09-2.542c0.26-0.7,1.206-0.815,2.889-0.332c1.661,0.477,3.102,1.004,4.307,1.61
			c1.199,0.6,1.863,1.314,1.99,2.152c0.115,0.852-0.058,1.517-0.542,1.979c-0.473,0.477-0.675,4.99-0.548,13.504
			c0.115,8.514,0.368,18.652,0.715,30.423c0.375,11.742,0.249,18.898-0.347,21.404c-0.6,2.52-1.499,4.614-2.687,6.297
			c-1.228,1.683-2.173,2.527-2.888,2.527c-0.737,0-1.257-0.896-1.614-2.708C452.105,634.537,450.123,632.393,446.509,629.857z"/>
		<path  d="M525.321,567.949c0.473-0.592,2.029-0.303,4.665,0.903c0,36.481-0.357,56.514-1.083,60.109
			c-0.704,3.61-1.311,5.322-1.784,5.229c-0.495-0.138-1.025-1.155-1.625-3.055c-0.599-1.921-0.957-3.365-1.09-4.318
			c-0.115-0.968,0.184-4.514,0.917-10.622c0.704-6.124,1.062-14.992,1.062-26.646c0-11.634-0.289-18.003-0.888-19.086
			C524.896,569.394,524.831,568.549,525.321,567.949z M538.082,596.025c-0.116-1.336-1.199-2.707-3.228-4.137
			c-2.036-1.445-2.946-2.412-2.704-2.875c0.242-0.483,1.267-0.483,3.072,0c1.788,0.463,2.928,0.535,3.401,0.174
			s0.231-2.051-0.715-5.048c-0.968-3.004-1.44-4.723-1.44-5.206c0-0.477,0.473-2.174,1.44-5.048
			c0.946-2.882,1.256-4.492,0.899-4.854c-0.357-0.368-1.693-0.238-3.954,0.361c-2.289,0.606-4.867,0.896-7.734,0.896v-1.798
			c2.394,0,4.964-0.542,7.734-1.618c2.755-1.083,4.445-2.028,5.033-2.881c0.592-0.838,1.274-1.257,1.982-1.257
			c0.715,0,1.91,0.665,3.604,1.979c1.679,1.314,2.52,2.275,2.52,2.882c0,0.592-0.552,1.134-1.625,1.61
			c-1.08,0.483-2.52,2.051-4.325,4.68c-1.798,2.643-2.878,4.21-3.235,4.693c-0.357,0.462,0.491,2.557,2.531,6.275
			c2.018,3.719,2.441,6.795,1.246,9.186c-1.199,2.397-2.224,3.661-3.044,3.776C538.67,597.947,538.197,597.348,538.082,596.025z
			 M587.219,635.62c-0.975-0.115-7.081-2.463-18.353-7.026c-11.272-4.542-17.638-6.839-19.079-6.839
			c-1.437,0-3.242,0.311-5.398,0.91c-2.163,0.6-3.672,0.6-4.502,0s-1.621-1.487-2.336-2.708c4.318-0.469,6.954-0.758,7.922-0.902
			c0.946-0.102,2.394-0.174,4.314-0.174c1.914,0,4.318,0.65,7.2,2.008c2.867,1.314,8.149,2.859,15.829,4.65
			c7.68,1.798,15.176,2.881,22.498,3.242c7.322,0.376,10.983,0.838,10.983,1.438c0,0.606-1.683,1.437-5.044,2.52
			c-3.369,1.069-6.286,1.863-8.828,2.34C589.923,635.562,588.165,635.743,587.219,635.62z M549.43,614.57
			c-0.964-2.889-1.506-4.795-1.621-5.756c-0.137-0.945,0.115-2.404,0.715-4.332c0.606-1.921,0.657-2.982,0.173-3.265
			c-0.484-0.202-1.025-0.202-1.614,0c-0.596,0.282-1.748,0.513-3.419,0.759c-1.679,0.23-2.751,0.23-3.235,0
			c-0.484-0.246-0.841-0.542-1.083-0.918c-0.249-0.36,0.95-0.83,3.614-1.443c2.618-0.578,4.192-1.242,4.665-1.957
			c0.473-0.736,1.141-1.025,1.982-0.917c0.831,0.122,1.921,0.671,3.243,1.632c1.307,0.953,1.914,1.747,1.787,2.325
			c-0.123,0.606-0.78,1.863-1.968,3.784c-1.209,1.928-1.816,3.062-1.816,3.444c0,0.332,0.491,1.776,1.448,4.304
			c0.957,2.521,1.083,5.344,0.368,8.463h-1.441C550.986,619.488,550.379,617.451,549.43,614.57z M554.29,582.334
			c0.82,1.806,0.957,3.192,0.347,4.152c-0.596,0.961-1.072,1.444-1.426,1.444c-0.361,0-1.152-0.736-2.358-2.173
			c-1.199-1.423-1.982-3.171-2.329-5.207c-0.357-2.029-0.311-3.178,0.173-3.423c0.484-0.238,1.325,0.138,2.531,1.076
			C552.427,579.179,553.419,580.551,554.29,582.334z M568.317,582.876c-2.997,5.055-5.932,8.89-8.81,11.525
			c-2.889,2.643-4.571,3.798-5.044,3.415c-0.48-0.346,0.473-1.979,2.889-4.853c2.397-2.874,4.975-6.954,7.737-12.232
			c2.751-5.279,4.792-10.081,6.117-14.385c1.292-4.326,1.61-6.868,0.895-7.568c-0.722-0.736-0.837-1.314-0.364-1.805
			c0.473-0.478,1.188-0.593,2.17-0.354c0.957,0.238,1.906,0.65,2.881,1.249c0.946,0.607,1.487,1.322,1.621,2.174
			c0.108,0.838-0.791,3.597-2.712,8.269C573.772,572.982,571.321,577.857,568.317,582.876z M593.692,571.546
			c-1.44,0.368-4.253,0.852-8.453,1.437c-4.213,0.614-9.07,1.271-14.576,1.986c-5.528,0.715-8.521,1.018-9.005,0.896
			c-0.491-0.108-1.264-0.578-2.325-1.438c-1.094-0.83-1.401-1.387-0.92-1.625c0.495-0.23,1.567-0.36,3.246-0.36
			c1.683,0,5.517-0.477,11.525-1.438c5.979-0.946,10.258-1.798,12.771-2.513c2.531-0.723,4.142-1.076,4.867-1.076
			c0.715,0,1.719,0.412,3.051,1.249c1.314,0.853,1.982,1.444,1.982,1.799C595.855,570.831,595.129,571.191,593.692,571.546z
			 M566.161,585.41c0.347-0.483,1.614-0.483,3.777,0c0,14.652-0.116,24.062-0.357,28.265c-0.242,4.188-0.665,6.282-1.264,6.282
			c-0.6,0-1.141-0.715-1.625-2.159c-0.473-1.43-0.772-2.317-0.888-2.7c-0.126-0.347,0-1.849,0.357-4.499
			c0.347-2.636,0.531-6.831,0.531-12.602c0-5.748-0.184-9.171-0.531-10.261C565.804,586.674,565.804,585.901,566.161,585.41z
			 M575.888,605.926c-2.531,0.484-4.993,0.723-7.398,0.723v-2.881c1.689,0,3.011-0.181,3.979-0.521
			c0.957-0.375,1.903-0.556,2.877-0.556c0.946,0,1.914,0.181,2.871,0.556c0.946,0.34,1.437,0.759,1.437,1.235
			C579.654,604.966,578.409,605.442,575.888,605.926z M587.565,616.007c-0.231,1.921-0.888,3.712-1.968,5.401
			c-1.083,1.683-2.04,2.441-2.87,2.34c-0.849-0.13-1.275-0.83-1.275-2.166c0-1.314-0.841-2.629-2.502-3.95
			c-1.69-1.314-2.358-2.21-1.979-2.715c0.357-0.462,1.379-0.462,3.051,0c1.672,0.505,2.628,0.375,2.867-0.347
			c0.246-0.715,0.379-2.571,0.379-5.575s-0.195-7.329-0.542-12.97c-0.375-5.646-0.802-8.693-1.275-9.178
			c-0.491-0.483-4.665,0-12.586,1.438l0.357-2.875c3.592-0.23,6.17-0.556,7.749-0.902c1.545-0.368,2.618-0.838,3.235-1.444
			c0.578-0.585,1.314-0.823,2.145-0.729c0.848,0.145,1.979,0.687,3.426,1.625c1.441,0.968,2.156,1.755,2.156,2.347
			c0,0.6-0.3,1.265-0.889,1.979c-0.599,0.729-0.599,5.033,0,12.933C587.634,609.161,587.818,614.086,587.565,616.007z
			 M569.223,596.922v-2.882c0.957,0,1.914-0.181,2.877-0.534c0.957-0.361,1.914-0.542,2.871-0.542c0.964,0,1.932,0.181,2.889,0.542
			c0.957,0.354,1.379,0.772,1.264,1.264C578.979,595.253,575.697,595.968,569.223,596.922z"/>
		<path  d="M646.74,628.594c-0.849,0-2.145-0.643-3.95-1.972c-1.805-1.313-2.704-2.332-2.704-3.062
			c0-0.715,0.733-1.148,2.173-1.257c1.43-0.101,2.607-0.354,3.582-0.722c0.967-0.354,4.975-2.282,12.056-5.748
			c7.081-3.488,10.731-4.86,10.983-4.152c0.221,0.736-3.188,3.74-10.25,9.012C651.542,625.965,647.581,628.594,646.74,628.594z
			 M668.88,594.401c0,0.483-0.311,0.896-0.91,1.256c-0.599,0.368-3.777,1.517-9.514,3.416c-5.766,1.942-9.254,2.946-10.453,3.062
			c-1.195,0.138-2.163-0.115-2.877-0.7c-0.722-0.6-1.08-1.083-1.08-1.451s3.351-1.784,10.073-4.326
			c6.705-2.513,10.363-3.769,10.984-3.769c0.588,0,1.379,0.303,2.336,0.902C668.396,593.376,668.88,593.939,668.88,594.401z
			 M653.221,572.441c-0.849-0.708-1.206-1.48-1.08-2.333c0.116-0.83,0.657-1.256,1.621-1.256c0.964,0,2.452,0.664,4.481,1.979
			c2.051,1.314,3.062,2.34,3.062,3.055c0,0.722-0.094,1.747-0.347,3.069c-0.231,1.313-0.531,4.123-0.888,8.455
			c-0.369,4.305-0.686,15.122-0.91,32.388l-4.314,0.715c0.473-12.717,0.588-22.241,0.357-28.604
			c-0.235-6.347-0.408-10.68-0.553-12.954C654.553,574.673,654.062,573.171,653.221,572.441z M701.268,605.211
			c0.473-1.443,0.957-3.48,1.44-6.138c0.473-2.636,0.722-4.846,0.722-6.644c0-1.812-0.184-2.809-0.542-3.062
			c-0.357-0.238-5.448,2.693-15.298,8.831c-9.835,6.109-15.244,9.345-16.201,9.728c-0.964,0.332-1.795,0.52-2.51,0.52
			s-1.567-0.231-2.531-0.715c-0.946-0.477-1.419-1.083-1.419-1.806c0-0.715,0.888-1.256,2.683-1.617
			c1.809-0.347,4.192-1.372,7.207-3.091c3.004-1.661,8.222-4.644,15.648-8.969c7.438-4.318,11.572-7.012,12.421-8.109
			c0.841-1.076,1.487-1.617,1.982-1.617c0.473,0,1.729,0.664,3.766,1.985c2.058,1.314,3.062,2.34,3.062,3.062
			c0,0.715-0.347,1.443-1.073,2.145c-0.733,0.729-1.256,2.347-1.621,4.867c-0.368,2.52-0.968,5.538-1.798,9.005
			c-0.849,3.487-1.979,6.369-3.427,8.644c-1.44,2.289-2.513,3.365-3.246,3.25c-0.708-0.138-1.304-0.853-1.788-2.167
			s-1.383-2.57-2.675-3.776c-1.333-1.206-2.019-2.116-2.019-2.716c0-0.585,0.802-0.643,2.365-0.173
			c1.545,0.483,2.628,0.715,3.235,0.715C700.253,607.363,700.784,606.648,701.268,605.211z M723.213,628.24
			c-2.86,1.689-6.171,2.896-9.89,3.604c-3.729,0.729-7.265,1.126-10.615,1.256c-3.361,0.115-7.073,0-11.157-0.361
			c-4.077-0.346-7.254-1.126-9.543-2.339c-2.282-1.185-4.08-3.163-5.383-5.937c-1.333-2.758-1.997-6.289-1.997-10.607
			s-0.116-9.547-0.358-15.656c-0.242-6.138-0.708-9.568-1.44-10.269c-0.726-0.736-1.072-1.444-1.072-2.173
			c0-0.687,0.462-1.135,1.44-1.25c0.953-0.123,2.268,0.484,3.95,1.798c1.672,1.314,2.347,3.062,1.979,5.214
			c-0.347,2.167-0.52,4.088-0.52,5.763c0,1.676-0.086,4.275-0.184,7.741c-0.133,3.488-0.076,6.658,0.184,9.547
			c0.213,2.881,0.589,5.098,1.062,6.658c0.473,1.56,1.863,3.004,4.145,4.311c2.268,1.336,6.286,1.986,12.045,1.986
			c5.766,0,10.373-0.419,13.861-1.271c3.477-0.815,5.813-1.791,7.012-2.867c1.199-1.083,2.047-4.188,2.542-9.365
			c0.462-5.163,1.015-7.741,1.622-7.741c0.588,0,1.256,2.34,1.96,7.033c0.715,4.665,1.672,7.915,2.877,9.72
			C726.942,624.824,726.09,626.564,723.213,628.24z M685.966,562.382c-0.831-0.96-1.206-1.855-1.073-2.701
			c0.119-0.845,0.834-1.205,2.156-1.075c1.314,0.101,2.704,0.585,4.145,1.437c1.419,0.838,2.209,1.553,2.336,2.145
			c0.116,0.607,0,2.47-0.357,5.582c-0.357,3.127-0.56,9.851-0.56,20.162c0,10.312-0.163,17.945-0.531,22.862
			c-0.347,4.918-1.072,7.322-2.156,7.186c-1.08-0.115-1.603-7.186-1.603-21.237c0-14.031-0.191-23.029-0.56-26.993
			C687.406,565.79,686.818,563.335,685.966,562.382z"/>
		<path  d="M841.201,578.753c-0.48-0.838-0.772-1.625-0.889-2.34c-0.122-0.729,0.408-1.033,1.625-0.896
			c1.177,0.115,2.867,0.411,5.022,0.896c0,0.477,0.126,3.964,0.368,10.435c0.221,6.471,0.365,10.196,0.365,11.149
			c0,0.961-0.145,2.412-0.365,4.333c-0.242,1.921-0.657,2.881-1.268,2.881c-0.588,0-1.13-0.483-1.61-1.443
			c-0.483-0.961-0.715-2.564-0.715-4.867c0-2.268-0.311-5.986-0.909-11.164C842.227,582.587,841.695,579.604,841.201,578.753z
			 M857.586,573.344c0.6-0.578,1.199-0.902,1.776-0.902c0.61,0,2.231,0.794,4.878,2.34c2.636,1.566,3.961,2.65,3.961,3.234
			c0,0.621-0.483,1.163-1.44,1.646c-0.964,0.484-2.763,6.096-5.42,16.912h-3.95c1.452-8.391,2.167-13.554,2.167-15.496
			c0-1.899-0.195-3.062-0.534-3.416c-0.354-0.361-2.463-0.173-6.297,0.542c-3.846,0.729-6.713,1.083-8.637,1.083v-2.874
			c3.112,0,6-0.368,8.637-1.091C855.354,574.607,856.976,573.965,857.586,573.344z M863.699,594.04
			c0.357,0.483,0.541,1.025,0.541,1.617c0,0.614-0.491,1.084-1.44,1.444c-0.953,0.369-6.597,1.142-16.912,2.354v-3.257
			c8.867-1.921,13.987-2.881,15.28-2.881C862.504,593.318,863.353,593.57,863.699,594.04z M874.855,574.254
			c-0.6-3.12-0.53-4.737,0.174-4.86c0.736-0.115,2.657,0.542,5.759,1.979c0,2.636-0.051,7.33-0.174,14.038
			c-0.115,6.709-0.772,12.659-1.981,17.837c-1.188,5.142-3.235,9.943-6.113,14.385c-2.881,4.434-6.001,7.85-9.352,10.247
			c-3.372,2.397-5.167,3.308-5.408,2.708c-0.253-0.6,1.083-2.347,3.972-5.221c2.866-2.874,5.502-6.724,7.907-11.511
			c2.408-4.803,3.961-9.243,4.687-13.323c0.704-4.095,1.141-8.702,1.256-13.858C875.708,581.519,875.466,577.373,874.855,574.254z
			 M906.171,565.241c0.108,1.214-1.806,2.478-5.767,3.791c-3.961,1.329-11.456,3.077-22.487,5.222v-2.145
			c9.11-3.135,14.75-5.467,16.905-7.034c2.155-1.545,2.889-2.751,2.155-3.596c-0.707-0.845-0.656-1.387,0.191-1.618
			c0.831-0.238,2.521,0.289,5.044,1.618C904.723,562.794,906.048,564.05,906.171,565.241z M920.209,587.39
			c-0.127,0.83-3.055,1.313-8.821,1.437c-5.755,0.13-12.005,0.484-18.721,1.083c-6.712,0.606-11.396,0.896-14.034,0.896v-3.234
			c3.834,0,9.601-0.78,17.28-2.333c7.69-1.567,12.76-2.361,15.302-2.361c2.509,0,4.676,0.549,6.47,1.632
			C919.483,585.591,920.324,586.545,920.209,587.39z M893.024,586.848c4.336,1.921,6.716,3.293,7.207,4.131
			c0.473,0.852,0.541,1.936,0.173,3.249c-0.357,1.321-0.538,7.864-0.538,19.628c0,11.741-0.234,19.432-0.707,23.021
			c-0.491,3.61-1.033,5.408-1.622,5.408c-0.617,0-1.267-1.617-1.989-4.859c-0.726-3.235-1.072-11.345-1.072-24.285
			C894.476,600.156,893.992,591.404,893.024,586.848z"/>
		<path  d="M982.615,614.021c-11.031,5.878-17.097,8.896-18.177,9.012c-1.072,0.115-2.281-0.729-3.585-2.52
			c-1.332-1.812-1.679-3.062-1.091-3.777c0.589-0.729,1.304-0.852,2.152-0.368c0.842,0.491,1.625,0.664,2.351,0.527
			c0.711-0.102,6.701-2.499,17.995-7.192c11.272-4.68,16.912-6.601,16.912-5.741C999.173,604.793,993.648,608.157,982.615,614.021z
			 M982.424,599.269c-5.622,1.79-9.11,2.708-10.424,2.708c-1.322,0-2.654-0.419-3.958-1.278c-1.313-0.853-1.729-1.372-1.267-1.625
			c0.494-0.209,2-0.585,4.51-1.076c2.523-0.483,5.199-1.134,8.095-1.972c2.881-0.83,10.135-3.062,21.783-6.657
			c11.641-3.61,17.927-5.409,18.883-5.409c0.968,0,2.048,0.426,3.235,1.278c1.199,0.816,1.809,1.437,1.809,1.791
			c0,0.361-0.494,0.708-1.44,1.076c-0.957,0.368-4.21,1.141-9.727,2.339c-5.524,1.206-10.731,2.521-15.659,3.958
			C993.356,595.838,988.074,597.471,982.424,599.269z M984.962,578.016c1.798-1.313,2.581-2.332,2.34-3.047
			c-0.242-0.715,0-1.142,0.704-1.257c0.736-0.115,1.989,0.253,3.798,1.069c1.795,0.852,2.683,1.689,2.683,2.52
			c0,0.853-0.296,1.452-0.888,1.799c-0.6,0.375-2.348,1.147-5.214,2.34c-2.889,1.205-6.365,2.411-10.442,3.632
			c-4.087,1.185-6.181,1.474-6.308,0.888c-0.108-0.599,1.621-1.747,5.235-3.437C980.463,580.861,983.149,579.352,984.962,578.016z
			 M985.677,635.454c-1.321,1.185-2.336,1.798-3.062,1.798c-0.715,0-1.188-0.852-1.438-2.534c-0.242-1.683-1.498-3.416-3.776-5.214
			c-2.282-1.791-3.373-2.824-3.235-3.062c0.115-0.23,1.372-0.107,3.776,0.376c2.384,0.455,4.008,0.455,4.85,0
			c0.849-0.483,1.264-2.657,1.264-6.492c0-3.827,0-7.012,0-9.532c0-2.534-0.058-6.607-0.174-12.239
			c-0.133-5.64-0.917-11.359-2.357-17.114c4.571,3.126,6.965,4.989,7.218,5.589c0.213,0.592,0.094,1.545-0.357,2.881
			c-0.495,1.314-0.61,7.604-0.379,18.905c0.252,11.28,0.252,18.227,0,20.884C987.774,632.32,986.983,634.248,985.677,635.454z
			 M1026.163,599.456c0,0.953-1.257,3.004-3.781,6.109c-2.52,3.134-5.704,6.312-9.521,9.532c-3.863,3.242-7.979,6-12.432,8.289
			c-4.434,2.282-6.781,3.178-7.016,2.694c-0.242-0.484,2.397-2.752,7.922-6.839c5.506-4.072,9.767-7.907,12.76-11.511
			c3.004-3.596,4.871-6.297,5.593-8.116c0.715-1.799,0.842-2.982,0.357-3.59c-0.49-0.599-0.357-1.083,0.357-1.443
			c0.727-0.354,1.856,0.107,3.42,1.443C1025.387,597.348,1026.163,598.488,1026.163,599.456z M1035.164,639.396
			c-2.87-1.444-5.756-3.48-8.637-6.109c-2.878-2.643-6.192-6.535-9.89-11.705c-3.74-5.156-6.85-10.673-9.369-16.559
			c-2.503-5.893-4.435-11.568-5.748-17.093c-1.333-5.524-2.416-11.771-3.257-18.725c-0.831-6.954-1.604-10.73-2.337-11.338
			c-0.715-0.599-1.025-1.307-0.888-2.145c0.115-0.852,1.545-0.772,4.308,0.174c2.751,0.96,4.202,1.66,4.325,2.145
			c0.108,0.506,0.051,1.148-0.173,2c-0.238,0.838-0.365,2.823-0.365,5.929c0,3.134,0.365,6.831,1.072,11.157
			c0.733,4.312,2.001,9.662,3.784,16.017c1.798,6.369,4.55,12.651,8.269,18.891c3.719,6.261,7.438,11.056,11.168,14.406
			c3.719,3.38,5.939,5.033,6.665,5.033c0.715,0,1.487-1.971,2.329-5.936c0.837-3.957,1.437-5.929,1.794-5.929
			s0.736,1.906,1.094,5.756c0.347,3.849,0.889,7.438,1.61,10.781c0.715,3.365,0.668,5.098-0.173,5.221
			C1039.897,641.498,1038.031,640.841,1035.164,639.396z M1024.732,573.712c-0.252,1.321-0.852,1.972-1.809,1.972
			c-0.964,0-3.062-1.134-6.286-3.416c-3.246-2.268-4.871-4.008-4.871-5.206c2.64,0,5.045,0.188,7.2,0.534
			c2.163,0.354,3.726,1.134,4.683,2.34C1024.596,571.134,1024.964,572.397,1024.732,573.712z"/>
		<path  d="M1083.539,607.731c-0.357-0.477,1.679-2.766,6.113-6.86c4.434-4.059,9.767-11.25,16.017-21.584
			l1.794,5.048c-2.877,5.033-5.871,9.12-8.99,12.239c-3.112,3.113-6.29,5.886-9.524,8.276
			C1085.702,607.255,1083.886,608.215,1083.539,607.731z M1087.143,582.522c-0.61-0.708-0.61-1.083,0-1.083
			c0.589,0,4.907-0.939,12.94-2.86c8.048-1.921,12.847-2.896,14.402-2.896c1.546,0,2.82,0.181,3.799,0.541
			c0.946,0.361,1.408,0.903,1.408,1.633c0,0.722-1.719,1.372-5.207,1.979c-3.483,0.606-7.918,1.56-13.309,2.874
			c-5.412,1.314-8.947,1.798-10.615,1.43C1088.879,583.793,1087.731,583.237,1087.143,582.522z M1097.043,622.846
			c-0.726,2.391-1.932,4.427-3.614,6.116c-1.672,1.683-2.82,2.513-3.419,2.513c-0.6,0-1.188-0.83-1.788-2.513
			c-0.606-1.689-0.898-2.708-0.898-3.062c0-0.361,0.783-1.365,2.329-3.055c1.556-1.668,3.534-5.503,5.939-11.511
			c1.209,1.185,1.924,2.81,2.155,4.86C1098.007,618.238,1097.747,620.455,1097.043,622.846z M1151.376,635.974
			c-1.921,0.838-4.803,1.51-8.626,1.979c-3.853,0.484-7.698,0.484-11.532,0c-3.835-0.469-7.265-1.313-10.251-2.498
			c-2.993-1.206-5.997-3.026-8.983-5.401c-3.011-2.405-5.351-5.518-7.04-9.359c-1.672-3.834-2.214-5.834-1.614-5.942
			c0.6-0.123,2.104,1.566,4.491,5.025c2.397,3.488,5.109,6.001,8.106,7.561c2.993,1.567,6.134,2.824,9.358,3.799
			c3.235,0.938,6.716,1.364,10.442,1.257c3.708-0.138,5.806-0.491,6.289-1.091c0.484-0.6,0-2.759-1.44-6.478
			c-1.44-3.727-1.902-5.625-1.44-5.77c0.483-0.102,2.224,1.56,5.229,5.04c2.993,3.474,5.408,5.661,7.195,6.492
			c1.795,0.838,2.704,1.733,2.704,2.7C1154.264,634.248,1153.289,635.144,1151.376,635.974z M1109.63,582.876
			c-0.242,12.731-0.484,20.949-0.708,24.668c-0.249,3.719-0.606,5.597-1.102,5.597c-0.479,0-1.188-0.867-2.151-2.542
			c-0.957-1.668-1.51-3.055-1.604-4.131c-0.137-1.076,0.036-2.823,0.521-5.25c0.494-2.354,0.848-7.899,1.083-16.522
			c0.23-8.65,0.173-15.121-0.185-19.454c-0.339-4.304-0.898-6.693-1.603-7.199c-0.737-0.484-0.899-1.004-0.553-1.61
			c0.368-0.6,1.614-0.6,3.787,0c2.156,0.606,3.362,1.264,3.593,1.979c0.231,0.736,0.185,1.806-0.173,3.242
			C1110.179,563.097,1109.868,570.174,1109.63,582.876z M1118.078,593.687c-0.104,1.437-0.415,2.281-0.888,2.513
			c-0.484,0.238-2.105-0.715-4.856-2.881c-2.773-2.152-4.146-3.95-4.146-5.388c3.824,0.253,6.471,0.896,7.911,1.979
			C1117.54,590.979,1118.216,592.249,1118.078,593.687z M1130.146,619.776c-0.484,1.806-0.968,2.759-1.441,2.889
			c-0.49,0.123-2.036-0.96-4.676-3.235c-2.653-2.281-4.257-3.719-4.855-4.332c-0.6-0.578-0.657-1.242-0.185-1.957
			c3.108,0,5.871,0.649,8.279,1.957C1129.661,616.426,1130.618,617.979,1130.146,619.776z M1127.614,569.936
			c0,16.551-0.174,27.051-0.531,31.499c-0.347,4.441-1.151,6.528-2.347,6.297c-1.188-0.245-1.614-2.636-1.245-7.199
			c0.357-4.564,0.404-10.153,0.173-16.739c-0.242-6.607-0.657-10.622-1.257-12.06c-0.61-1.444-0.668-2.412-0.184-2.881
			C1122.696,568.376,1124.513,568.729,1127.614,569.936z M1144.548,573.344c-0.242-1.545-0.657-2.513-1.268-2.881
			c-0.599-0.354-2.462-0.174-5.582,0.541c-3.119,0.729-7.195,1.105-12.229,1.105v-2.174c2.646,0,5.874-0.477,9.716-1.444
			c3.835-0.953,6.116-1.748,6.831-2.354c0.733-0.577,1.321-0.896,1.795-0.896c0.494,0,1.932,0.729,4.329,2.174
			c2.394,1.438,3.661,2.463,3.776,3.048c0.134,0.621-0.115,1.198-0.726,1.805c-0.589,0.614-0.964,2.405-1.072,5.395
			c-0.134,3.004-0.249,6.673-0.347,10.969c-0.137,4.333-0.375,8.883-0.744,13.699c-0.347,4.802-0.945,7.207-1.798,7.207
			c-0.838,0-1.487-0.606-1.979-1.806c-0.473-1.198-0.772-2.224-0.888-3.062c-0.127-0.845,0-4.737,0.368-11.706
			c0.347-6.954,0.462-11.568,0.347-13.864C1144.952,576.832,1144.779,574.911,1144.548,573.344z M1137.157,579.475
			c1.314,0.13,2.104,0.527,2.368,1.257c0.21,0.708-0.802,1.372-3.083,1.979c-2.278,0.614-5.939,0.902-10.973,0.902v-2.534
			C1131.95,579.894,1135.843,579.352,1137.157,579.475z M1131.218,590.979c2.625-0.6,4.26-0.889,4.856-0.889
			c0.599,0,1.4,0.174,2.347,0.527c0.957,0.361,1.451,0.838,1.451,1.444c0,0.6-0.783,1.083-2.357,1.444
			c-1.546,0.354-5.564,0.534-12.045,0.534v-2.521C1126.668,591.766,1128.589,591.578,1131.218,590.979z M1125.47,605.211v-2.881
			c2.646,0,9.716-0.6,21.23-1.798v3.95C1138.287,604.728,1131.218,604.966,1125.47,605.211z M1145.609,612.96
			c0-0.614,1.621-0.925,4.86-0.925c3.245,0,6.131,0.795,8.644,2.361c2.521,1.546,3.776,3.178,3.776,4.846
			c0,1.683-0.173,2.65-0.53,2.881c-0.368,0.238-0.859,0.369-1.44,0.369c-0.6,0-3.312-1.444-8.096-4.318
			C1148.003,615.292,1145.609,613.545,1145.609,612.96z"/>
		<path  d="M1206.059,578.753c-0.484-0.838-0.802-1.625-0.91-2.34c-0.126-0.729,0.426-1.033,1.625-0.896
			c1.195,0.115,2.889,0.411,5.041,0.896c0,0.477,0.126,3.964,0.35,10.435c0.249,6.471,0.375,10.196,0.375,11.149
			c0,0.961-0.126,2.412-0.375,4.333c-0.224,1.921-0.668,2.881-1.249,2.881c-0.6,0-1.148-0.483-1.61-1.443
			c-0.495-0.961-0.736-2.564-0.736-4.867c0-2.268-0.308-5.986-0.889-11.164C1207.092,582.587,1206.531,579.604,1206.059,578.753z
			 M1222.439,573.344c0.578-0.578,1.199-0.902,1.799-0.902c0.588,0,2.209,0.794,4.849,2.34c2.647,1.566,3.95,2.65,3.95,3.234
			c0,0.621-0.483,1.163-1.44,1.646c-0.946,0.484-2.751,6.096-5.38,16.912h-3.961c1.44-8.391,2.155-13.554,2.155-15.496
			c0-1.899-0.173-3.062-0.541-3.416c-0.368-0.361-2.474-0.173-6.29,0.542c-3.842,0.729-6.73,1.083-8.654,1.083v-2.874
			c3.13,0,5.99-0.368,8.654-1.091C1220.22,574.607,1221.834,573.965,1222.439,573.344z M1228.546,594.04
			c0.357,0.483,0.541,1.025,0.541,1.617c0,0.614-0.483,1.084-1.44,1.444c-0.968,0.369-6.597,1.142-16.905,2.354v-3.257
			c8.851-1.921,13.959-2.881,15.28-2.881C1227.336,593.318,1228.188,593.57,1228.546,594.04z M1239.702,574.254
			c-0.599-3.12-0.552-4.737,0.185-4.86c0.722-0.115,2.636,0.542,5.755,1.979c0,2.636-0.058,7.33-0.173,14.038
			c-0.138,6.709-0.783,12.659-1.982,17.837c-1.206,5.142-3.246,9.943-6.113,14.385c-2.888,4.434-6.019,7.85-9.369,10.247
			c-3.372,2.397-5.167,3.308-5.397,2.708c-0.242-0.6,1.09-2.347,3.957-5.221c2.889-2.874,5.517-6.724,7.922-11.511
			c2.397-4.803,3.961-9.243,4.665-13.323c0.736-4.095,1.151-8.702,1.274-13.858C1240.544,581.519,1240.302,577.373,1239.702,574.254
			z M1271.028,565.241c0.115,1.214-1.816,2.478-5.767,3.791c-3.953,1.329-11.485,3.077-22.508,5.222v-2.145
			c9.127-3.135,14.76-5.467,16.934-7.034c2.145-1.545,2.859-2.751,2.145-3.596c-0.726-0.845-0.657-1.387,0.191-1.618
			c0.83-0.238,2.513,0.289,5.033,1.618C1269.576,562.794,1270.891,564.05,1271.028,565.241z M1285.052,587.39
			c-0.134,0.83-3.062,1.313-8.817,1.437c-5.77,0.13-11.998,0.484-18.721,1.083c-6.712,0.606-11.398,0.896-14.027,0.896v-3.234
			c3.827,0,9.583-0.78,17.263-2.333c7.69-1.567,12.781-2.361,15.309-2.361c2.513,0,4.658,0.549,6.474,1.632
			C1284.326,585.591,1285.168,586.545,1285.052,587.39z M1257.871,586.848c4.325,1.921,6.712,3.293,7.214,4.131
			c0.466,0.852,0.523,1.936,0.177,3.249c-0.36,1.321-0.552,7.864-0.552,19.628c0,11.741-0.231,19.432-0.704,23.021
			c-0.502,3.61-1.037,5.408-1.633,5.408c-0.592,0-1.267-1.617-1.981-4.859c-0.704-3.235-1.08-11.345-1.08-24.285
			C1259.312,600.156,1258.835,591.404,1257.871,586.848z"/>
	</g>
	<g>
		<path  d="M783.113,595.08c3.022,0.245,4.654,1.783,4.925,4.563c0,2.521-1.643,3.799-4.925,3.799
			c-3.033,0-4.687-1.278-4.929-3.799C778.427,596.863,780.08,595.325,783.113,595.08z"/>
	</g>
</g>
</svg>
