<?xml version="1.0" encoding="utf-8"?>
<!-- Generator: Adobe Illustrator 16.0.0, SVG Export Plug-In . SVG Version: 6.00 Build 0)  -->
<!DOCTYPE svg PUBLIC "-//W3C//DTD SVG 1.1//EN" "http://www.w3.org/Graphics/SVG/1.1/DTD/svg11.dtd">
<svg version="1.1" id="Layer_1" xmlns="http://www.w3.org/2000/svg" xmlns:xlink="http://www.w3.org/1999/xlink" x="0px" y="0px"
	 width="1600px" height="1000px" viewBox="0 0 1600 1000" enable-background="new 0 0 1600 1000" xml:space="preserve">
<g id="XMLID_74_">
	<g id="XMLID_108_">
		<g id="XMLID_127_">
			<g id="XMLID_134_">
				<rect id="XMLID_72_" x="860.947" y="713.17"  width="56.802" height="8.113"/>
				<g id="XMLID_135_">
					<polygon id="XMLID_71_"  points="933.909,802.424 844.743,802.424 844.743,843.03 852.855,843.03 
						852.855,810.536 925.832,810.536 925.832,834.917 856.919,834.917 856.919,843.03 933.909,843.03 933.945,843.03 					"/>
					<g id="XMLID_137_">
						<polygon id="XMLID_70_"  points="840.592,729.388 840.592,737.501 942.043,737.501 942.043,753.719 
							950.156,753.719 950.156,729.447 950.156,729.388 						"/>
						<rect id="XMLID_69_" x="828.408" y="729.447"  width="8.113" height="24.301"/>
					</g>
					<polygon id="XMLID_67_"  points="933.945,761.86 933.945,761.86 933.945,761.86 933.945,761.86 933.945,761.86 
						933.945,745.606 844.743,745.606 844.743,770.265 852.855,770.265 852.855,753.719 925.832,753.719 925.832,756.289 
						828.408,793.736 828.408,802.431 889.268,779.032 950.134,802.431 950.134,793.736 900.578,774.685 					"/>
				</g>
			</g>
			<g id="XMLID_128_">
				<g id="XMLID_129_">
					<polygon id="XMLID_66_"  points="706.647,786.184 706.647,794.297 735.07,794.297 735.07,830.848 
						743.19,830.848 743.19,794.297 771.606,794.297 771.606,786.184 					"/>
					<rect id="XMLID_65_" x="706.668" y="834.917"  width="64.924" height="8.113"/>
					<polygon id="XMLID_64_"  points="771.606,729.418 771.606,729.41 771.606,729.41 771.606,721.298 
						771.525,721.298 771.525,721.283 706.647,721.298 706.647,729.41 758.009,729.41 706.647,767.941 706.647,778.079 
						706.647,778.079 706.647,778.093 739.17,753.726 771.606,778.057 771.606,767.913 745.936,748.658 					"/>
					<polygon id="XMLID_62_"  points="682.47,713.17 673.817,713.17 667.832,729.388 649.858,729.388 
						649.858,737.501 664.831,737.501 649.866,777.991 649.874,777.998 649.866,778.021 649.982,778.071 649.866,778.071 
						649.866,786.184 670.162,786.184 670.162,818.663 649.866,818.663 649.866,826.776 670.162,826.776 670.162,843.008 
						678.274,843.008 678.274,826.776 698.57,826.776 698.57,818.663 678.274,818.663 678.274,786.184 698.57,786.184 
						698.57,778.071 678.274,778.071 678.274,769.974 670.162,769.974 670.162,778.071 658.496,778.071 673.482,737.501 
						698.57,737.501 698.57,729.388 676.476,729.388 					"/>
				</g>
			</g>
		</g>
		<g id="XMLID_109_">
			<g id="XMLID_110_">
				<g id="XMLID_111_">
					<path id="XMLID_50_"  d="M692.6,681.317v-72.956h9.081v72.956H692.6z"/>
					<rect id="XMLID_49_" x="557.977" y="622.621"  width="9.074" height="58.747"/>
					<rect id="XMLID_48_" x="527.537" y="608.333"  width="69.954" height="8.12"/>
					<polygon id="XMLID_47_"  points="742.199,608.361 733.089,608.361 733.089,681.317 742.17,681.317 					"/>
					<polygon id="XMLID_46_"  points="799.185,608.361 799.185,671.254 798.915,671.254 748.367,613.692 
						748.367,625.155 797.713,681.317 808.266,681.317 808.266,608.361 					"/>
					<g id="XMLID_41_">
						<polygon id="XMLID_45_"  points="950.338,662.879 924.864,608.325 915.39,608.325 945.357,673.708 						"/>
						<polygon id="XMLID_44_"  points="982.664,608.325 949.078,681.317 958.953,681.317 992.139,608.325 						"/>
					</g>
					<polygon id="XMLID_40_"  points="1062.573,681.317 1072.464,681.317 1035.622,608.37 1025.339,608.37 
						987.559,681.317 997.826,681.427 1008.953,659.324 1044.587,659.324 1041.019,652.209 1012.245,652.209 1030.138,615.805 					
						"/>
					<path id="XMLID_38_"  d="M611.153,667.991l8.36-3.772c5.884,8.156,12.686,12.227,20.397,12.227
						c3.307,0,6.861-0.175,9.759-1.332c2.898-1.159,5.104-2.71,6.619-4.654c1.515-1.943,2.272-4.013,2.272-6.19
						c0-2.483-1.114-4.907-3.342-7.296c-3.081-3.285-9.153-7.654-17.31-12.278c-8.207-4.661-13.313-8.033-15.323-10.115
						c-3.473-3.488-5.213-7.261-5.213-11.324c0-3.219,1.026-6.154,3.073-8.806c2.053-2.649,4.944-4.739,8.666-6.262
						c3.714-1.53,7.764-2.294,12.14-2.294c4.639,0,8.972,0.866,13.014,2.593c4.028,1.733,8.302,4.908,12.804,9.54l-8.026,4.572
						c-3.707-3.691-6.86-6.117-9.467-7.297c-2.607-1.165-5.447-1.755-8.528-1.755c-3.969,0-7.967,1.268-10.487,3.073
						c-2.52,1.813-3.779,4.049-3.779,6.692c0,1.617,0.443,3.176,1.34,4.684c0.889,1.507,2.52,3.153,4.879,4.93
						c1.296,0.939,5.527,3.408,12.715,7.399c8.521,4.732,14.099,8.359,17.266,12.052c3.161,3.692,4.748,7.398,4.748,11.12
						c0,5.367-1.704,10.246-7.122,14.208c-5.418,3.954-12.001,5.935-19.758,5.935c-5.985,0-11.397-1.193-16.254-3.597
						C619.732,677.647,615.253,673.627,611.153,667.991z"/>
					<path id="XMLID_35_"  d="M867.29,607.117c11.01,0,20.223,3.627,27.637,10.887
						c7.42,7.246,11.134,16.174,11.134,26.777c0,10.509-3.706,19.423-11.105,26.741s-16.422,10.974-27.068,10.974
						c-10.778,0-19.874-3.641-27.295-10.923c-7.42-7.282-11.127-16.108-11.127-26.45c0-6.896,1.697-13.282,5.067-19.182
						c3.38-5.876,7.989-10.485,13.815-13.821C854.189,608.777,860.502,607.117,867.29,607.117z M867.618,614.713
						c-5.273,0-10.27,1.361-14.987,4.07c-4.72,2.709-8.412,6.358-11.055,10.953c-2.651,4.595-3.978,9.707-3.978,15.357
						c0,8.354,2.928,15.418,8.798,21.171s12.94,8.637,21.222,8.637c5.519,0,10.646-1.325,15.343-3.969
						c4.704-2.651,8.375-6.263,11.011-10.865c2.637-4.589,3.954-9.692,3.954-15.309c0-5.577-1.317-10.632-3.954-15.14
						c-2.636-4.515-6.35-8.127-11.134-10.836C878.053,616.074,872.984,614.713,867.618,614.713z"/>
				</g>
			</g>
		</g>
	</g>
	<g id="XMLID_75_">
		<path id="XMLID_58_"  d="M800.641,156.97c105.522,0,191.375,85.853,191.375,191.382
			c0,45.966-16.539,90.403-46.579,125.126c-29.72,34.365-70.696,57.087-115.375,63.99c-7.472,1.144-14.44-3.969-15.592-11.426
			c-1.158-7.457,3.962-14.44,11.427-15.592c38.269-5.913,73.378-25.394,98.865-54.858c25.736-29.756,39.915-67.842,39.915-107.24
			c0-90.455-73.589-164.043-164.036-164.043c-90.455,0-164.035,73.588-164.035,164.043c0,39.398,14.171,77.484,39.914,107.24
			c25.481,29.464,60.597,48.945,98.865,54.858c7.465,1.151,12.577,8.135,11.427,15.592c-1.158,7.457-8.156,12.562-15.6,11.426
			c-44.677-6.903-85.648-29.625-115.375-63.99c-30.031-34.723-46.578-79.16-46.578-125.126
			C609.259,242.822,695.111,156.97,800.641,156.97z"/>
		<path id="XMLID_57_"  d="M800.641,266.33c26.035,0,49.95,11.951,65.607,32.792
			c4.537,6.044,3.312,14.609-2.717,19.146c-6.037,4.529-14.608,3.313-19.146-2.716c-10.442-13.909-26.391-21.884-43.745-21.884
			c-17.36,0-33.309,7.975-43.752,21.884c-4.537,6.03-13.108,7.253-19.138,2.716c-6.038-4.537-7.253-13.101-2.724-19.146
			C750.684,278.28,774.6,266.33,800.641,266.33z"/>
		<path id="XMLID_56_"  d="M733.716,348.344c6.364,0,12.059,4.471,13.377,10.945
			c3.539,17.405,15.381,32.057,31.686,39.179c6.912,3.022,10.071,11.084,7.042,18.002c-3.015,6.917-11.076,10.079-17.995,7.049
			c-24.447-10.691-42.216-32.669-47.518-58.784c-1.507-7.399,3.27-14.608,10.669-16.116
			C731.895,348.438,732.812,348.344,733.716,348.344z"/>
		<path id="XMLID_55_"  d="M867.566,348.344c0.903,0,1.82,0.094,2.737,0.276c7.399,1.508,12.177,8.725,10.67,16.116
			c-5.31,26.122-23.079,48.093-47.518,58.784c-6.926,3.029-14.974-0.132-18.003-7.049c-3.022-6.918,0.131-14.98,7.049-18.002
			c16.299-7.122,28.14-21.774,31.679-39.179C855.498,352.815,861.202,348.344,867.566,348.344z"/>
		<path id="XMLID_54_"  d="M922.869,348.352c0.502,0,1.012,0.021,1.522,0.08c7.5,0.831,12.91,7.582,12.081,15.09
			c-6.395,57.764-48.771,105.223-105.464,118.099c-7.349,1.675-14.688-2.936-16.363-10.298c-1.668-7.37,2.941-14.696,10.304-16.363
			c45.34-10.29,79.24-48.246,84.353-94.445C910.074,353.521,915.994,348.352,922.869,348.352z"/>
		<path id="XMLID_53_"  d="M800.641,211.646c57.814,0,109.615,36.631,128.885,91.132
			c2.519,7.122-1.21,14.929-8.332,17.448c-7.122,2.52-14.929-1.216-17.441-8.331c-15.417-43.607-56.854-72.911-103.111-72.911
			c-46.258,0-87.694,29.304-103.119,72.911c-2.512,7.115-10.312,10.851-17.441,8.331c-7.115-2.52-10.851-10.327-8.332-17.448
			C691.019,248.277,742.819,211.646,800.641,211.646z"/>
		<path id="XMLID_52_"  d="M678.406,348.352c6.881,0,12.795,5.17,13.575,12.162
			c5.112,46.2,39.004,84.155,84.345,94.445c7.362,1.667,11.979,8.993,10.305,16.363c-1.676,7.355-8.994,11.973-16.356,10.298
			c-56.693-12.875-99.077-60.335-105.471-118.099c-0.831-7.508,4.581-14.259,12.081-15.09
			C677.401,348.373,677.904,348.352,678.406,348.352z"/>
	</g>
</g>
</svg>
