<?xml version="1.0" encoding="utf-8"?>
<!-- Generator: Adobe Illustrator 16.0.0, SVG Export Plug-In . SVG Version: 6.00 Build 0)  -->
<!DOCTYPE svg PUBLIC "-//W3C//DTD SVG 1.1//EN" "http://www.w3.org/Graphics/SVG/1.1/DTD/svg11.dtd">
<svg version="1.1" id="Layer_1" xmlns="http://www.w3.org/2000/svg" xmlns:xlink="http://www.w3.org/1999/xlink" x="0px" y="0px"
	 width="1600px" height="1000px" viewBox="0 0 1600 1000" enable-background="new 0 0 1600 1000" xml:space="preserve">
<g>
	<path id="XMLID_72_"  d="M619.691,432.986c5.308,2.051,10.933,3.941,16.947,5.637
		c-2.198,14.784-5.262,23.737-9.203,26.824c-3.962,3.097-8.905,4.633-14.851,4.633h-23.665c-12.985,0-19.499-6.046-19.499-18.142
		v-2.481c-5.945,2.504-12.096,4.896-18.404,7.175c-2.961-5.993-5.876-11.276-8.736-15.854v31.593H524.4v-30.852
		c-4.397,4.03-8.965,7.812-13.702,11.353c-3.143-7.162-5.74-12.494-7.812-15.99c14.259-10.031,26.49-23.528,36.695-40.452
		l15.865,7.792c-4.111,6.444-8.508,12.548-13.167,18.277V440.3c9.488-3.086,18.541-6.426,27.14-10.001v-30.932h17.88v22.733
		c11.571-5.832,22.231-12.231,32.004-19.227l11.149,13.44c-12.812,9.113-27.197,17.471-43.153,25.135v5.648
		c0,5.103,3.053,7.665,9.157,7.665h11.15c4.292,0,7.22-1.297,8.769-3.871C617.915,448.315,619.03,442.348,619.691,432.986
		 M504.641,482.986h55.521v-12.643h19.623v12.643h54.576v16.946h-54.576v30.636h-19.623v-30.636h-55.521V482.986z"/>
	<path id="XMLID_69_"  d="M765.561,509.327c0.774,0,1.379-0.262,1.821-0.809c0.456-0.523,0.957-2.723,1.55-6.581
		c0.582-3.85,1.163-9.865,1.754-18.008c4.201,2.155,8.154,3.93,11.82,5.366c-1.389,17.707-3.439,28.905-6.149,33.586
		c-2.71,4.679-6.663,7.004-11.855,7.004c-7.028,0-12.358-3.736-15.933-11.208c-3.6-7.494-5.308-27.356-5.171-59.619v-37.097h-65.862
		v34.407c0,17.164-1.207,31.322-3.633,42.482c-2.414,11.151-7.22,22.22-14.384,33.188c-4.214-5.093-8.78-10.342-13.713-15.706
		c5.638-8.336,9.317-16.947,11.014-25.785c1.709-8.836,2.528-22.846,2.427-41.966v-44.895h102.443v57.388
		c0,19.498,0.136,32.378,0.455,38.631C762.462,505.989,763.591,509.189,765.561,509.327 M692.17,429.49
		c6.867,8.828,13.302,17.289,19.304,25.409c5.866-9.111,10.957-18.383,15.25-27.834l15.99,8.872
		c-5.774,11.788-12.413,23.257-19.885,34.407c8.188,11.387,15.5,22.025,21.911,31.855l-15.329,11.98
		c-5.774-9.28-11.799-18.553-18.075-27.834c-7.255,9.442-15.181,18.632-23.744,27.55c-4.557-5.103-8.976-9.817-13.281-14.122
		c9.703-9.487,18.405-19.223,26.07-29.224c-7.209-10.296-14.749-20.592-22.585-30.842L692.17,429.49z"/>
	<path id="XMLID_62_"  d="M794.625,454.626h36.513c0.888-2.516,1.708-5.056,2.482-7.676h18.144
		c-0.672,2.621-1.39,5.16-2.152,7.676h74.323v14.111h-79.493c-1.004,2.336-2.052,4.613-3.167,6.857h71.237v11.559
		c-7.79,7.378-16.593,13.962-26.412,19.681c11.698,2.869,24.762,4.521,39.179,4.908c-3.303,5.911-6.252,11.696-8.86,17.347
		c-19.27-1.754-36.353-5.742-51.296-11.959c-13.963,5.829-29.588,10.341-46.831,13.575c-2.732-4.922-5.671-9.636-8.792-14.1
		c-2.71,2.414-5.514,4.725-8.417,6.969c-2.948-5.921-6.093-11.16-9.417-15.717c14.395-10.581,25.533-23.62,33.414-39.12h-30.454
		V454.626z M796.243,402.874c31.364,0.184,71.339-0.637,119.901-2.413l4.169,14.1l-18.678,0.479l9.669,5.716
		c-2.552,2.951-5.33,6.036-8.324,9.27h16.923v21.24h-18.542v-7.116h-84.551v7.116H798.27v-21.24h17.268
		c-1.801-3.143-3.464-5.832-5.036-8.065l12.755-5.373l-22.572,0.409C799.693,413.135,798.225,408.434,796.243,402.874
		 M829.852,494.477c-5.388,7.31-11.538,14.111-18.486,20.43c12.688-2.061,24.192-4.679,34.555-7.846
		C840.135,503.325,834.781,499.134,829.852,494.477 M826.832,416.519c2.644,3.941,5.535,8.45,8.656,13.507h17.95
		c-1.618-3.188-3.417-6.446-5.423-9.819l12.482-4.371L826.832,416.519z M865.406,499.772c8.235-3.666,15.478-7.813,21.697-12.481
		H844.77C850.818,492.21,857.697,496.377,865.406,499.772 M864.997,415.767c2.723,4.534,5.399,9.294,7.995,14.259h10.091
		c3.622-4.486,7.231-9.43,10.832-14.85L864.997,415.767z"/>
	<path id="XMLID_57_"  d="M936.211,487.838c8.542-10.364,15.148-21.697,19.816-34.021h-18.609v-17.345h19.215v-15.056
		l-16.252,1.481c-0.912-6.083-1.936-11.425-3.098-15.99c18.54-1.435,35.67-3.27,51.341-5.513l5.113,15.715
		c-6.047,0.866-12.606,1.688-19.635,2.495v16.867h17.47v17.345h-17.47v11.561l6.457-6.059c6.448,5.75,11.912,10.933,16.401,15.605
		l-11.298,10.213c-4.43-5.193-8.291-9.567-11.561-13.109v58.005h-17.47v-45.431c-4.215,8.874-8.963,17.107-14.248,24.726
		C940.859,503.405,938.81,496.252,936.211,487.838 M987.951,483.783l43.689-3.964v-81.921h18.963v80.19l18.268-1.696l1.48,17.084
		l-19.748,1.809v34.749h-18.963V496.97l-41.4,3.758L987.951,483.783z M1003.269,441.586c7.895,5.819,15.56,12.149,22.995,18.95
		l-12.641,12.221c-6.095-6.446-13.349-12.938-21.787-19.475L1003.269,441.586z M1007.837,407.454
		c6.823,5.012,14.384,11.274,22.721,18.814l-12.505,12.355c-6.719-7.162-13.871-13.744-21.503-19.759L1007.837,407.454z"/>
	<path id="XMLID_53_"  d="M504.185,572.514c6.798-8.509,11.878-18.051,15.216-28.643l5.74,1.73
		c-0.774,2.209-1.596,4.349-2.438,6.423h48.356v4.967h-50.555c-3.861,8.245-8.553,15.568-14.066,21.957
		C505.597,576.261,504.845,574.106,504.185,572.514 M511.542,580.086v-4.965h50.316v7.447c0,11.32,1.264,19.34,3.804,24.01
		c1.139,1.742,2.004,1.571,2.631-0.548c0.66-3.359,1.127-7.517,1.423-12.472c1.687,0.606,3.394,1.105,5.102,1.471
		c-0.147,3.644-0.638,7.642-1.502,11.98c-1.093,4.624-3.281,6.946-6.573,6.946c-2.596,0-4.657-1.537-6.172-4.6
		c-2.938-5.672-4.384-14.509-4.384-26.503v-2.768H511.542z M519.479,563.642h46.183v4.827h-46.183V563.642z"/>
	<path id="XMLID_48_"  d="M650.532,579.518l2.826,4.749c-4.18,1.47-8.531,2.983-13.052,4.532
		c3.757,8.485,10.227,14.203,19.373,17.163c-1.561,1.925-2.836,3.497-3.838,4.727c-8.793-3.725-15.467-10.513-20.046-20.374
		c-1.297,0.444-2.596,0.877-3.894,1.31c0.843,2.733,1.274,5.819,1.274,9.304c0,8.451-4.042,12.665-12.117,12.665
		c-2.927,0-6.048-0.046-9.362-0.137c-0.182-1.173-0.568-2.995-1.184-5.442c3.439,0.363,6.628,0.545,9.567,0.545
		c5.329,0,7.994-2.653,7.994-7.994c0-2.097-0.182-3.94-0.535-5.604c-7.027,6.879-18.928,12.733-35.659,17.561
		c-0.865-1.411-1.8-3.062-2.847-4.941c16.275-4.147,28.551-9.864,36.854-17.187c-0.591-1.104-1.343-2.221-2.254-3.359
		c-6.538,5.796-16.789,10.797-30.773,14.941c-0.751-1.366-1.721-2.983-2.903-4.816c13.609-3.564,23.87-8.03,30.783-13.382
		c-0.819-0.843-1.742-1.71-2.732-2.552c-5.762,3.976-14.464,7.392-26.126,10.272c-0.614-1.332-1.549-3.007-2.778-5.022
		c13.257-2.493,22.391-5.797,27.378-9.931h-15.056v2.198h-4.885v-13.667c-1.617,1.104-3.315,2.209-5.091,3.325
		c-0.615-1.571-1.412-3.119-2.414-4.692c9.874-5.559,17.618-12.14,23.233-19.759l6.376,0.774c-1.241,1.833-2.71,3.654-4.373,5.456
		h29.179v4.19l-6.901,6.241h17.517v17.562h-4.886v-1.629h-25.932c-0.514,0.649-1.105,1.265-1.755,1.879
		c3.838,2.938,6.72,6.003,8.599,9.203C637.708,585.166,644.519,582.466,650.532,579.518 M601.423,571.945h18.997
		c1.162-1.928,2.051-4.159,2.689-6.733h-21.686V571.945z M636.068,554.575h-26.172c-2.142,1.982-4.532,3.986-7.197,6.037h27.106
		L636.068,554.575z M649.177,565.212h-20.603c-0.626,2.518-1.39,4.772-2.347,6.733h22.95V565.212z"/>
	<path id="XMLID_43_"  d="M671.898,594.688c5.398-7.243,9.453-15.285,12.186-24.169H672.9v-5.033h11.617v-10.408
		c-3.645,0.375-7.061,0.705-10.273,0.991c-0.342-1.743-0.796-3.496-1.424-5.25c9.169-0.638,18.257-1.698,27.277-3.1l1.845,5.239
		c-4.238,0.57-8.291,1.071-12.106,1.48v11.047H701.1v5.033h-11.265v8.008l3.11-2.823c3.394,2.926,6.537,5.783,9.429,8.563
		l-3.975,4.043c-3.018-3.394-5.889-6.355-8.564-8.861v34.714h-5.318v-31.947c-2.792,7.279-6.105,13.429-9.92,18.497
		C673.789,598.776,672.9,596.76,671.898,594.688 M697.477,590.929l27.766-2.482v-43.779h5.468v43.278l11.194-1.047l0.422,5.09
		l-11.616,1.059v21.115h-5.468v-20.604l-27.196,2.473L697.477,590.929z M701.714,572.718l3.417-3.61
		c5.386,4.204,9.452,7.552,12.174,10.068l-3.678,4.303C711.417,581.18,707.455,577.582,701.714,572.718 M705.916,555.714
		l3.248-3.552c5.239,4.042,9.498,7.54,12.755,10.567l-3.678,4.169C714.88,563.458,710.769,559.723,705.916,555.714"/>
	<path id="XMLID_39_"  d="M754.923,581.795c3.554-1.026,7.005-2.028,10.342-3.029v-15.26h-9.431v-4.888h9.431v-13.745
		h5.443v13.745h8.303v4.888h-8.303v13.573c2.711-0.888,5.365-1.741,7.939-2.584c0,2.267,0.057,4.11,0.147,5.534
		c-2.665,0.842-5.375,1.72-8.086,2.585v22.836c0,5.011-2.356,7.526-7.083,7.583c-1.88,0.046-4.147,0.046-6.8,0
		c-0.285-1.979-0.592-3.985-0.923-6.023c2.802,0.284,4.885,0.411,6.31,0.411c2.027,0,3.052-1.048,3.052-3.19v-19.828
		c-3.189,1.07-6.401,2.152-9.646,3.257L754.923,581.795z M781.186,576.545v-4.681h18.222v-10.841h-18.496v-5.161h18.496v-11.4h5.661
		v11.4h19.268v5.161h-19.268v10.841h15.09v4.248c-3.325,9.44-8.063,17.105-14.213,22.97c5.329,4.169,11.913,7.359,19.746,9.557
		c-1.787,2.085-3.313,3.883-4.531,5.455c-7.677-3.121-14.19-6.902-19.521-11.377c-6.218,4.681-13.484,8.667-21.786,11.935
		c-1.003-1.491-2.243-3.188-3.758-5.021c8.416-2.733,15.636-6.287,21.604-10.615c-5.24-5.719-9.168-13.21-11.8-22.47H781.186z
		 M813.997,576.545h-22.642c2.142,7.471,5.684,13.77,10.649,18.917C807.563,590.166,811.571,583.867,813.997,576.545"/>
	<path id="XMLID_38_"  d="M853.004,617.032c-8.427-9.202-12.64-20.362-12.64-33.437
		c0-13.259,4.213-24.544,12.64-33.873h6.093c-8.381,9.567-12.573,20.831-12.573,33.805c0,12.777,4.17,23.939,12.496,33.505H853.004z
		"/>
	<path id="XMLID_35_"  d="M869.93,601.065c6.171-2.141,13.462-4.921,21.889-8.381v-22.302h-20.399v-5.238h20.399
		v-19.908h5.741v68.082h-5.741v-14.713c-4.533,1.844-11.07,4.521-19.622,8.052L869.93,601.065z M911.657,545.089h5.74v23.973
		c6.445-3.29,12.46-6.923,18.063-10.865l3.553,5.104c-5.124,3.211-12.322,7.129-21.616,11.799v26.022
		c0,3.214,1.777,4.841,5.307,4.841h4.968c3.393,0,5.307-1.627,5.727-4.841c0.422-2.971,0.809-6.844,1.14-11.604
		c2.085,0.844,4.089,1.595,6.026,2.255c-0.481,4.487-0.98,8.314-1.551,11.479c-0.91,5.388-4.236,8.087-9.999,8.087h-7.654
		c-6.468,0-9.703-3.188-9.703-9.578V545.089z"/>
	<path id="XMLID_29_"  d="M966.369,592.41l3.906,4.26c-6.332,4.759-12.687,9.133-19.054,13.098
		c-0.91-1.597-1.979-3.189-3.258-4.74C954.435,601.293,960.573,597.08,966.369,592.41 M948.171,554.085h32.732
		c-1.345-2.492-2.882-5.091-4.614-7.709l5.182-2.551c1.893,2.824,3.726,5.763,5.524,8.77l-2.835,1.49h33.301v4.967h-69.29V554.085z
		 M957.384,565.36h50.647v23.929h-5.523v-2.835H986.21v18.004c0,5.594-2.665,8.429-7.996,8.497h-9.28
		c-0.331-2.026-0.696-3.939-1.083-5.74c3.189,0.285,5.923,0.434,8.223,0.434c2.983,0.09,4.464-1.459,4.464-4.602v-16.593h-17.628
		v3.188h-5.525V565.36z M1002.508,570.247h-39.599v11.32h39.599V570.247z M993.863,597.159l3.325-4.25
		c6.481,3.828,12.687,7.7,18.654,11.617l-3.758,4.876C1007.062,605.688,1000.992,601.61,993.863,597.159"/>
	<path id="XMLID_28_"  d="M1032.95,617.032h-6.094c8.382-9.532,12.573-20.83,12.573-33.87
		c0-12.79-4.168-23.939-12.505-33.439h6.025c8.383,9.135,12.573,20.295,12.573,33.439
		C1045.523,596.464,1041.333,607.762,1032.95,617.032"/>
	<path id="XMLID_24_"  d="M1078.755,613.808h-5.591v-36.659c-3.43,3.985-7.21,7.836-11.332,11.502
		c-1.002-1.639-2.129-3.37-3.418-5.172c9.113-7.605,16.242-16.068,21.367-25.35h-19.385v-5.25h22.05
		c1.345-2.951,2.506-5.97,3.462-9.077l5.888,1.354c-0.943,2.632-1.981,5.207-3.121,7.724h40.033v5.25h-42.583
		c-1.459,2.777-3.064,5.489-4.816,8.154h38.812v37.824c0,5.864-2.846,8.779-8.564,8.779c-2.506,0.044-6.308,0.068-11.4,0.068
		c-0.239-1.595-0.593-3.553-1.059-5.81c4.351,0.332,7.835,0.503,10.478,0.503c3.258,0,4.897-1.618,4.897-4.807v-5.046h-35.717
		V613.808z M1114.472,571.228h-35.717v8.438h35.717V571.228z M1078.755,592.979h35.717v-8.506h-35.717V592.979z"/>
	<path id="XMLID_19_"  d="M1160.973,586.396c1.367,9.021-0.877,14.077-6.731,15.16
		c-2.141,0.42-4.51,0.466-7.151,0.146c-0.389-1.946-0.91-3.928-1.549-5.967c2.482,0.626,4.658,0.81,6.502,0.58
		c3.225-0.626,4.295-3.997,3.246-10.147c-0.649-3.781-2.802-8.018-6.435-12.733c1.697-5.147,3.929-12.037,6.662-20.636h-10.478
		v61.853h-5.317v-66.795h21.455v4.942c-2.311,6.662-4.52,13.235-6.662,19.715C1158.298,577.66,1160.461,582.284,1160.973,586.396
		 M1165.505,548.061h33.574v35.283h-5.249v-1.913h-11.959c1.459,4.247,3.474,8.086,6.013,11.479
		c4.26-2.697,8.748-6.011,13.463-9.975l3.76,4.451c-5.206,3.634-9.817,6.756-13.896,9.352c4.123,4.156,9.294,7.473,15.534,9.988
		c-1.754,1.697-3.268,3.428-4.531,5.17c-13.143-6.89-21.595-17.048-25.375-30.465h-6.083v24.088c3.167-1.411,7.28-3.497,12.392-6.23
		c0.046,2.165,0.16,4.031,0.365,5.594c-4.213,2.038-8.304,4.224-12.267,6.592c-0.945,0.525-2.221,1.503-3.815,2.973l-4.054-5.317
		c1.411-1.231,2.129-2.791,2.129-4.671V548.061z M1193.83,552.879h-23.075v9.441h23.075V552.879z M1193.83,567.058h-23.075v9.568
		h23.075V567.058z"/>
	<path id="XMLID_15_"  d="M1215.344,577.764c10.534-8.61,18.393-18.736,23.585-30.408l5.604,2.345
		c-6.379,13.27-14.6,24.122-24.646,32.584C1218.657,580.725,1217.144,579.221,1215.344,577.764 M1261.457,586.533
		c6.812,8.837,12.551,16.855,17.23,24.088l-5.388,3.541c-1.321-2.163-2.733-4.418-4.213-6.765
		c-15.591,0.752-28.267,1.526-38.016,2.301c-1.788,0.194-3.962,0.592-6.525,1.207l-3.11-6.023c2.141-0.833,4.09-2.143,5.878-3.908
		c5.536-6.376,11.525-15.784,18.007-28.256l6.092,2.769c-5.854,10.045-12.118,19.453-18.779,28.198
		c9.747-0.319,20.782-0.753,33.107-1.321c-2.68-4.077-5.638-8.393-8.884-12.938L1261.457,586.533z M1255.375,548.425l5.239-2.049
		c4.578,12.321,13.107,22.093,25.578,29.327c-1.273,1.31-2.745,3.153-4.396,5.522
		C1268.768,572.252,1259.954,561.318,1255.375,548.425"/>
	<path id="XMLID_10_"  d="M1294.006,561.888h53.982v5.238h-53.982V561.888z M1298.061,553.244v-5.252h61.205v55.112
		c0,6.718-3.031,10.078-9.079,10.078c-3.405,0-8.048-0.022-13.95-0.091c-0.136-1.606-0.535-3.633-1.207-6.082
		c5.762,0.342,10.272,0.49,13.531,0.49c3.266,0,4.896-1.879,4.896-5.66v-48.596H1298.061z M1301.023,575.486h37.194v25.078h-31.595
		v5.17h-5.6V575.486z M1332.613,580.587h-25.99v14.875h25.99V580.587z"/>
	<path fill-rule="evenodd" clip-rule="evenodd"  d="M488.513,499.67l-28.221-25.591l11.456-36.307l-37.24-8.042
		l-8.247-37.197l-36.24,11.662l-25.716-28.083l-25.591,28.233l-36.317-11.469l-8.042,37.217l-37.197,8.247l11.662,36.261
		l-28.085,25.74l28.211,25.556l-11.457,36.331l37.231,8.04l8.234,37.186l36.284-11.629l25.716,28.062l25.58-28.22l36.319,11.478
		l8.041-37.229l37.185-8.269l-11.674-36.252L488.513,499.67z M364.58,585.963c-47.356,0-85.873-38.518-85.873-85.871
		c0-47.332,38.517-85.852,85.873-85.852c47.331,0,85.849,38.521,85.849,85.852C450.429,547.445,411.911,585.963,364.58,585.963z"/>
	<g id="XMLID_3_">
		<path id="XMLID_7_"  d="M332.769,561.251c4.659,6.911,11.275,11.434,16.321,12.674
			c21.775,5.387,39.861-2.207,44.383-3.859c10.785-3.906,33.039-16.821,42.378-45.637c3.484-11.525,5.649-26.968,1.595-41.967
			c1.07,9.771-1.492,19.428-6.651,32.275C405.146,566.614,347.929,568.162,332.769,561.251"/>
		<path id="XMLID_6_"  d="M350.319,522.8c-24.485,0-34.986-9.203-34.986-9.203
			c1.173,10.364,4.669,25.354,9.338,32.256c8.154,4.623,31.479,8.085,45.476,5.763c48.985-8.053,77.206-51.252,59.712-88.128
			c-5.832-11.526-14.521-19.179-24.713-25.991c5.444,3.645,9.271,8.658,11.65,15C431.42,491.412,396.969,525.101,350.319,522.8"/>
		<path id="XMLID_5_"  d="M394.27,443.669c-4.669-6.923-11.582-10.568-16.332-12.674
			c-23.336-10.41-70.314,1.15-84.813,46.75c-3.645,11.479-4.898,25.877-1.414,40.864c-1.047-9.794,0.593-19.43,5.753-32.287
			C323.123,434.456,379.111,436.746,394.27,443.669"/>
		<path id="XMLID_4_"  d="M377.938,478.248c24.487,0,35,9.222,35,9.222c-1.186-10.385-4.67-25.35-9.34-32.275
			c-8.167-4.623-31.49-8.063-45.487-5.762c-48.972,8.076-76.397,51.239-58.904,88.138c5.831,11.525,14.668,18.838,23.996,25.751
			c-4.658-4.601-8.917-8.621-11.742-14.76C294.264,510.99,331.278,475.947,377.938,478.248"/>
	</g>
</g>
</svg>
