<?xml version="1.0" encoding="utf-8"?>
<!-- Generator: Adobe Illustrator 16.0.0, SVG Export Plug-In . SVG Version: 6.00 Build 0)  -->
<!DOCTYPE svg PUBLIC "-//W3C//DTD SVG 1.1//EN" "http://www.w3.org/Graphics/SVG/1.1/DTD/svg11.dtd">
<svg version="1.1" id="Layer_1" xmlns="http://www.w3.org/2000/svg" xmlns:xlink="http://www.w3.org/1999/xlink" x="0px" y="0px"
	 width="1600px" height="1000px" viewBox="0 0 1600 1000" enable-background="new 0 0 1600 1000" xml:space="preserve">
<g>
	<path fill-rule="evenodd" clip-rule="evenodd"  d="M536.43,686.199c-152.023,0-275.271-83.501-275.271-186.504
		c0-78.237,71.109-145.23,171.934-172.913c11.176-3.076,18.923-5.921,34.557-0.049c15.64,5.89,13.085,17.407,27.217,17.407
		c14.135,0,27.783-30.34,41.563-30.34c13.801,0,27.68,30.308,41.25,30.308c13.578,0,16.422-12.502,27.596-17.359
		c11.181-4.855,23.208-3.063,34.305-0.029c100.942,27.66,172.137,94.683,172.137,172.975
		C811.718,602.698,688.47,686.199,536.43,686.199 M726.114,571.874c0-35.071-28.422-63.5-63.489-63.5
		c-7.269,0-14.221,1.232-20.712,3.465c0-0.047,0.013-0.082,0.013-0.123c0.027-0.179-0.558,0.076-1.488,0.643
		c-9.334,3.485-17.632,9.098-24.295,16.248c-0.689,0.394-1.093,0.553-1.093,0.394c18.996-24.605,27.33-24.74,27.33-26.498
		c0-49.552-40.145-89.729-89.69-89.729c-37.947,0-70.368,23.585-83.467,56.875c-6.406-4.616-14.239-7.377-22.739-7.377
		c-21.491,0-38.903,17.438-38.903,38.924c0,0.227,11.77,1.994,19.518,5.587c8.787,4.063,13.66,10.005,13.671,10.25v0.068
		c-9.437-5.522-20.438-8.727-32.177-8.727c-35.075,0-63.506,28.429-63.506,63.5c0,0.341,0.02,0.676,0.02,1.021h-0.02
		c0,0.489,0.041,0.96,0.051,1.449c0.021,0.396,0.039,0.819,0.067,1.226c2.426,60.411,86.704,108.952,190.396,108.952
		s187.967-48.541,190.406-108.952c0.022-0.406,0.035-0.83,0.047-1.226c0.009-0.489,0.062-0.96,0.062-1.449h-0.035
		C726.079,572.55,726.114,572.215,726.114,571.874"/>
	<path  d="M873.999,587.053V365.365h70.629v191.519c0,4.585,1.45,16.105-4.322,22.65
		c-3.297,3.719-8.894,7.45-19.183,7.519H873.999z M919.638,390.7h-20.689v170.925h13.358c2.124,0,3.841-0.636,5.188-1.861
		c1.314-1.199,2.037-4.596,2.144-10.117V390.7z M1106.123,390.863l-100.057,0.119v34.844h100.057v25.118h-28.932V587.34h-25.108
		V450.944h-46.017l-0.028,97.71c0,11.794-0.085,15.018-1.327,19.405c-2.26,8.13-4.718,11.127-6.956,13.379
		c-2.657,2.639-7.728,5.779-15.115,5.901h-21.491v-26.341h6.83c5.879-0.095,9.541-0.943,10.927-2.259
		c1.372-1.291,2.092-4.736,2.092-10.228l0.035-183.147h125.091"/>
	<rect x="1129.298" y="365.364"  width="209.534" height="25.336"/>
	<path  d="M1138.058,558.401l36.183-79.476h-44.942v-25.314h209.548v25.314h-134.179l-33.507,75.848
		c0,0-2.13,4.752-0.086,6.109c1.596,1.59,5.201,1.635,5.201,1.635h121.286c4.008,0,6.832-1.074,8.558-2.439
		c1.585-1.285,2.424-2.355,1.691-5.305l-19.764-46.666h30.713l18.684,50.294c0,0,3.841,11.051-7.459,21.653
		c-1.686,1.423-7.545,6.155-14.512,7.185c-6.993,1.029-12.883,0.61-17.107,0.61h-125.264c0,0-11.512,0.237-18.876-1.405
		c-5.206-1.146-9.823-3.715-12.188-6.39C1133.675,570.136,1138.058,558.401,1138.058,558.401"/>
	<polygon  points="936.413,622.051 911.445,622.051 911.445,662.423 900.49,662.423 900.49,622.051 875.417,622.051 
		875.417,611.221 936.413,611.221 	"/>
	<rect x="946.865" y="611.218"  width="11.059" height="51.267"/>
	<path  d="M1113.135,662.423h-40.287c-9.229,0-16.855-2.706-22.876-7.608c-6.046-4.934-9.061-11.258-9.061-18.738
		c0-7.436,2.994-13.442,8.955-18.009c5.975-4.558,13.638-6.845,22.981-6.845h35.83v10.329h-35.83c-6.054,0-12.18,1.49-15.414,3.974
		c-3.979,3.052-5.464,6.382-5.464,11.295c0,4.87,1.519,7.713,5.452,10.736c3.927,3.014,9.372,4.562,15.426,4.562h29.242v-9.062
		h-30.076v-9.829h41.121V662.423z"/>
	<polygon  points="1192.139,611.287 1160.658,645.298 1160.658,662.484 1149.697,662.484 1149.697,645.139 
		1117.4,611.287 1131.608,611.287 1155.459,636.28 1177.836,611.287 	"/>
	<path  d="M1031.034,656.667c0,3.884-1.325,5.808-3.957,5.808c-1.941,0-3.14-1.219-6.514-3.608l-38.538-29.218v32.843
		h-10.385v-46.076c0-1.404,0.381-2.63,1.146-3.652c0.754-1.024,1.845-1.54,3.256-1.54c1.931,0,3.334,1.205,5.982,3.087
		l38.538,29.131v-32.218h10.471V656.667z"/>
	<path  d="M1338.846,656.734c0,3.873-1.318,5.805-3.949,5.805c-1.938,0-3.141-1.223-6.516-3.607l-38.547-29.231
		v32.849h-10.371v-46.062c0-1.41,0.377-2.626,1.144-3.655c0.765-1.029,1.843-1.546,3.254-1.546c1.935,0,3.346,1.195,5.974,3.083
		l38.547,29.135v-32.218h10.465V656.734z"/>
	<path  d="M1267.576,633.859c0,10.26-3.068,17.74-9.22,22.461c-5.387,4.117-13.399,6.154-23.997,6.154h-3.821
		c-10.61,0-18.61-2.037-24.009-6.154c-6.147-4.721-9.213-12.201-9.213-22.461v-22.567h11.065v22.567
		c0,7.646,2.643,12.711,7.915,15.194c3.405,1.56,9.431,2.335,18.062,2.335c7.191,0,12.465-1.094,15.816-3.274
		c4.213-2.728,6.322-7.479,6.322-14.255v-22.567h11.078V633.859z"/>
</g>
</svg>
