<?xml version="1.0" encoding="utf-8"?>
<!-- Generator: Adobe Illustrator 16.0.0, SVG Export Plug-In . SVG Version: 6.00 Build 0)  -->
<!DOCTYPE svg PUBLIC "-//W3C//DTD SVG 1.1//EN" "http://www.w3.org/Graphics/SVG/1.1/DTD/svg11.dtd">
<svg version="1.1" id="Layer_1" xmlns="http://www.w3.org/2000/svg" xmlns:xlink="http://www.w3.org/1999/xlink" x="0px" y="0px"
	 width="1600px" height="1000px" viewBox="0 0 1600 1000" enable-background="new 0 0 1600 1000" xml:space="preserve">
<g>
	<rect x="1156.854" y="447.201"  width="4.707" height="103.555"/>
	<polygon  points="1344.604,485.026 1330.395,459.246 1316.009,459.246 1330.219,485.026 	"/>
	<polygon  points="1397.328,459.246 1382.943,459.246 1368.732,485.026 1383.117,485.026 	"/>
	<polygon  points="1378.246,536.361 1378.246,499.906 1399.58,499.906 1401.415,489.796 1363.861,489.796 
		1363.861,452.954 1349.476,452.954 1349.476,489.796 1314.059,489.796 1312.226,499.906 1335.369,499.906 1309.93,546.431 
		1324.315,546.431 1349.755,499.906 1363.861,499.906 1363.861,536.361 1363.861,546.431 1378.246,546.431 1400.984,546.431 
		1403.407,536.361 	"/>
	<path  d="M1239.712,452.954v10.111h12.631l-18.491,83.366h12.355l7.908-35.657l9.501,10.515l-5.577,25.143h12.348
		l3.147-14.169l12.801,14.169h14.171l-16.328-18.07l8.229-37.042l0,0l1.85-8.323h-12.618l6.663-30.042H1239.712z M1280.053,491.319
		l-5.784,26.075l-6.022-6.667h-14.119l10.57-47.662h9.006l-6.267,28.254H1280.053z"/>
	<polygon  points="1240.081,470.549 1226.854,470.549 1226.854,452.954 1215.346,452.954 1215.346,470.549 
		1203.34,470.549 1201.679,480.661 1209.928,480.661 1200.018,522.563 1209.613,522.563 1215.346,498.331 1215.346,546.431 
		1226.854,546.431 1226.854,497.101 1229.57,504.862 1237.652,504.862 1229.182,480.661 1238.051,480.661 	"/>
	<path  d="M408.256,520.621c-0.268,0.268-0.461,0.6-0.563,0.965c-9.444,33.619-40.355,58.348-76.951,58.348
		c-18.625,0-35.782-6.408-49.385-17.128c-0.903-0.714-2.187-0.657-2.999,0.157l-23.006,23.007c-0.932,0.931-0.884,2.471,0.124,3.321
		c20.33,17.156,46.581,27.518,75.267,27.518c64.512,0,116.81-52.297,116.81-116.808c0-4.313-0.239-8.572-0.697-12.764
		c-0.208-1.889-2.514-2.704-3.856-1.359L408.256,520.621z"/>
	<path  d="M253.228,479.38c0.269-0.267,0.461-0.6,0.562-0.966c9.444-33.618,40.355-58.345,76.952-58.345
		c18.626,0,35.78,6.405,49.385,17.127c0.903,0.712,2.187,0.655,3-0.159l23.006-23.004c0.931-0.933,0.882-2.475-0.124-3.324
		c-20.332-17.157-46.582-27.517-75.268-27.517c-64.512,0-116.809,52.297-116.809,116.81c0,4.313,0.238,8.572,0.697,12.764
		c0.207,1.889,2.512,2.703,3.856,1.358L253.228,479.38z"/>
	<path  d="M312.723,537.535l44.93,7.756c0.728,0.126,1.471-0.11,1.994-0.633l104.579-104.58
		c0.427-0.426,0.667-1.005,0.667-1.608v-52.686c0-2.024-2.449-3.039-3.88-1.607L311.502,533.688
		C310.198,534.99,310.906,537.222,312.723,537.535z"/>
	<path  d="M348.762,462.455l-44.93-7.756c-0.729-0.126-1.472,0.11-1.995,0.632l-104.58,104.581
		c-0.426,0.426-0.665,1.005-0.665,1.605v52.688c0,2.027,2.448,3.039,3.879,1.609l149.51-149.511
		C351.286,465,350.578,462.769,348.762,462.455z"/>
	<path  d="M543.615,452.964h22.432v85.164c0,21.857-5.896,34.08-34.08,34.08v-22.432
		c6.616,0,11.648-3.596,11.648-11.648V452.964z"/>
	<path  d="M604.725,452.964v93.467h-22.429v-93.467H604.725z"/>
	<path  d="M670.567,492.22h23.296h18.693v54.21h-18.693v-7.478c-7.911,5.61-17.542,8.918-28.041,8.918
		c-26.601,0-48.172-21.571-48.172-48.174s21.572-48.17,48.172-48.17c11.936,0,22.865,4.313,31.347,11.502l-14.379,14.236
		c-4.89-3.593-10.785-5.607-16.968-5.607c-7.477,0-14.523,2.877-19.699,8.195c-5.321,5.32-8.341,12.367-8.341,19.844
		c0,7.477,3.02,14.522,8.341,19.846c5.176,5.175,12.222,8.195,19.699,8.195s14.523-3.021,19.844-8.195
		c1.007-1.007,5.176-5.323,6.472-8.629L670.567,492.22z"/>
	<path  d="M763.654,546.431c16.68,0,39.832-13.374,39.832-39.83c0-14.238,0-36.381,0-53.637h-20.851v53.637
		c0,5.751-2.013,10.352-6.183,13.806c-4.171,3.595-9.489,5.174-12.797,5.174s-8.627-1.579-12.797-5.174
		c-4.171-3.454-6.184-8.055-6.184-13.806v-53.637h-20.85c0,17.256,0,39.399,0,53.637
		C723.822,533.057,746.974,546.431,763.654,546.431z"/>
	<path  d="M1002.565,452.964v93.467l-61.977-45.584v45.584h-22.432v-93.467l61.975,47.741v-47.741H1002.565z"/>
	<path  d="M1066.444,492.22h23.296h18.692v54.21h-18.692v-7.478c-7.908,5.61-17.542,8.918-28.041,8.918
		c-26.603,0-48.172-21.571-48.172-48.174s21.569-48.17,48.172-48.17c11.936,0,22.863,4.313,31.348,11.502l-14.379,14.236
		c-4.891-3.593-10.786-5.607-16.969-5.607c-7.477,0-14.523,2.877-19.699,8.195c-5.32,5.32-8.34,12.367-8.34,19.844
		c0,7.477,3.02,14.522,8.34,19.846c5.176,5.175,12.223,8.195,19.699,8.195c7.478,0,14.523-3.021,19.845-8.195
		c1.006-1.007,5.175-5.323,6.471-8.629L1066.444,492.22z"/>
	<path  d="M856.626,449.643l-52.023,96.788h25.849l8.487-16.406h35.231l8.584,16.406h25.86L856.626,449.643z
		 M847.998,512.482l8.628-16.393l8.483,16.393H847.998z"/>
</g>
</svg>
