<?xml version="1.0" encoding="utf-8"?>
<!-- Generator: Adobe Illustrator 16.0.0, SVG Export Plug-In . SVG Version: 6.00 Build 0)  -->
<!DOCTYPE svg PUBLIC "-//W3C//DTD SVG 1.1//EN" "http://www.w3.org/Graphics/SVG/1.1/DTD/svg11.dtd">
<svg version="1.1" id="Layer_1" xmlns="http://www.w3.org/2000/svg" xmlns:xlink="http://www.w3.org/1999/xlink" x="0px" y="0px"
	 width="1600px" height="1000px" viewBox="0 0 1600 1000" enable-background="new 0 0 1600 1000" xml:space="preserve">
<g>
	<path  d="M1108.271,388.175H984.257c-1.591,0-2.898,1.31-2.898,2.914v11.708c0,1.602,1.308,2.911,2.898,2.911
		h124.015c1.598,0,2.901-1.31,2.901-2.911v-11.708C1111.173,389.484,1109.869,388.175,1108.271,388.175"/>
	<path  d="M1344.202,552.05h-51.053V434.896h41.491c1.598,0,2.902-1.31,2.902-2.907v-12.201
		c0-1.604-1.305-2.914-2.902-2.914h-41.491v-34.939c0-1.603-1.307-2.913-2.901-2.913h-11.674c-1.597,0-2.902,1.31-2.902,2.913
		v34.939h-41.489c-1.599,0-2.9,1.31-2.9,2.914v12.201c0,1.597,1.302,2.907,2.9,2.907h41.489V552.05h-51.053
		c-1.592,0-2.898,1.312-2.898,2.915v12.199c0,1.602,1.307,2.911,2.898,2.911h119.583c1.594,0,2.9-1.31,2.9-2.911v-12.199
		C1347.103,553.362,1345.796,552.05,1344.202,552.05"/>
	<path  d="M930.114,456.097h-11.671c-1.596,0-2.901,1.313-2.901,2.912v61.031c0,1.605,1.306,2.911,2.901,2.911h11.671
		c1.6,0,2.904-1.306,2.904-2.911v-61.031C933.019,457.41,931.714,456.097,930.114,456.097"/>
	<path  d="M978.819,456.097h-11.672c-1.597,0-2.901,1.313-2.901,2.912v20.186c0,1.602,1.305,2.912,2.901,2.912h11.672
		c1.599,0,2.899-1.31,2.899-2.912v-20.186C981.719,457.41,980.418,456.097,978.819,456.097"/>
	<path  d="M696.568,538.964h-11.671c-1.598,0-2.9,1.31-2.9,2.912v25.288c0,1.602,1.302,2.913,2.9,2.913h11.671
		c1.597,0,2.901-1.312,2.901-2.913v-25.288C699.469,540.273,698.166,538.964,696.568,538.964"/>
	<path  d="M761.08,538.964h-11.67c-1.599,0-2.901,1.31-2.901,2.912v25.288c0,1.602,1.302,2.913,2.901,2.913h11.67
		c1.598,0,2.9-1.312,2.9-2.913v-25.288C763.98,540.273,762.678,538.964,761.08,538.964"/>
	<path  d="M727.576,419.378h-9.174c-1.595,0-2.901,1.309-2.901,2.913v9.278h-33.617c-1.595,0-2.901,1.312-2.901,2.911
		v11.711c0,1.599,1.306,2.914,2.901,2.914h82.208c1.594,0,2.9-1.315,2.9-2.914V434.48c0-1.599-1.306-2.911-2.9-2.911h-33.616v-9.278
		C730.477,420.688,729.175,419.378,727.576,419.378"/>
	<path  d="M696.309,453.841c-1.596,0-2.901,1.31-2.901,2.912v7.178c0,1.601,1.306,2.914,2.901,2.914h11.673
		c1.595,0,2.9-1.313,2.9-2.914v-7.178c0-1.602-1.306-2.912-2.9-2.912H696.309z"/>
	<path  d="M737.995,453.841c-1.593,0-2.901,1.31-2.901,2.912v7.178c0,1.601,1.308,2.914,2.901,2.914h11.674
		c1.595,0,2.9-1.313,2.9-2.914v-7.178c0-1.602-1.306-2.912-2.9-2.912H737.995z"/>
	<path  d="M955.658,416.93h-11.676h-26.787c-1.595,0-2.901,1.312-2.901,2.91v11.712c0,1.599,1.307,2.912,2.901,2.912
		h23.888v132.701c0,1.602,1.306,2.913,2.899,2.913h11.676c1.595,0,2.898-1.312,2.898-2.913V431.552V419.84
		C958.557,418.241,957.253,416.93,955.658,416.93"/>
	<path  d="M767.741,472.452h-89.505c-1.598,0-2.9,1.31-2.9,2.915v11.71c0,1.601,1.303,2.911,2.9,2.911h89.505
		c1.599,0,2.902-1.31,2.902-2.911v-11.71C770.643,473.762,769.339,472.452,767.741,472.452"/>
	<path  d="M764.093,505.788h-32.368v-8.537c0-1.604-1.303-2.911-2.902-2.911h-11.67c-1.598,0-2.904,1.306-2.904,2.911
		v8.537h-32.364c-1.595,0-2.901,1.312-2.901,2.912v11.71c0,1.6,1.306,2.914,2.901,2.914h32.364v42.955
		c0,1.603,1.306,2.916,2.904,2.916h11.67c1.599,0,2.902-1.313,2.902-2.916v-42.955h32.368c1.594,0,2.9-1.314,2.9-2.914V508.7
		C766.993,507.1,765.687,505.788,764.093,505.788"/>
	<path  d="M850.929,388.175h-42.576v-6.239c0-1.6-1.305-2.913-2.9-2.913h-11.67c-1.599,0-2.905,1.312-2.905,2.913
		v6.239h-51.804v-6.239c0-1.6-1.31-2.913-2.901-2.913h-11.671c-1.599,0-2.907,1.312-2.907,2.913v6.239h-45.612
		c-1.597,0-2.901,1.31-2.901,2.914v11.708c0,1.602,1.304,2.911,2.901,2.911h45.612v6.237c0,1.604,1.308,2.914,2.907,2.914h11.671
		c1.591,0,2.901-1.31,2.901-2.914v-6.237h51.804v6.237c0,1.604,1.306,2.914,2.905,2.914h11.67c1.596,0,2.9-1.31,2.9-2.914v-6.237
		h42.576c1.6,0,2.899-1.31,2.899-2.911v-11.708C853.828,389.484,852.528,388.175,850.929,388.175"/>
	<path  d="M850.929,469.526h-50.065v-20.421h49.918c1.598,0,2.9-1.312,2.9-2.914V434.48
		c0-1.599-1.303-2.908-2.9-2.908h-52.818H787.54h-1.248c-1.599,0-2.901,1.309-2.901,2.908v132.687c0,1.599,1.303,2.91,2.901,2.91
		h11.67c1.595,0,2.9-1.312,2.9-2.91v-80.108h28.906v80.108c0,1.599,1.307,2.91,2.906,2.91h11.67c1.596,0,2.902-1.312,2.902-2.91
		v-80.108h3.681c1.6,0,2.899-1.308,2.899-2.906v-11.712C853.828,470.839,852.528,469.526,850.929,469.526"/>
	<path  d="M1180.233,456.097h-11.672c-1.597,0-2.902,1.313-2.902,2.912v61.031c0,1.605,1.306,2.911,2.902,2.911
		h11.672c1.597,0,2.902-1.306,2.902-2.911v-61.031C1183.136,457.41,1181.83,456.097,1180.233,456.097"/>
	<path  d="M1231.841,479.192v-20.182c0-1.604-1.306-2.916-2.901-2.916h-11.674c-1.596,0-2.902,1.312-2.902,2.916
		v20.182c0,1.6,1.307,2.914,2.902,2.914h11.674C1230.535,482.106,1231.841,480.792,1231.841,479.192"/>
	<path  d="M1206.065,379.023h-11.67c-1.6,0-2.9,1.312-2.9,2.913v20.862c0,1.602,1.301,2.911,2.9,2.911h11.67
		c1.599,0,2.904-1.31,2.904-2.911v-20.862C1208.97,380.335,1207.664,379.023,1206.065,379.023"/>
	<path  d="M955.658,379.023h-11.676c-1.594,0-2.899,1.312-2.899,2.913v20.862c0,1.602,1.306,2.911,2.899,2.911h11.676
		c1.595,0,2.898-1.31,2.898-2.911v-20.862C958.557,380.335,957.253,379.023,955.658,379.023"/>
	<path  d="M1205.772,416.93h-11.67h-24.294c-1.593,0-2.9,1.312-2.9,2.91v11.712c0,1.599,1.308,2.912,2.9,2.912h21.39
		v132.701c0,1.602,1.308,2.913,2.904,2.913h11.67c1.599,0,2.902-1.312,2.902-2.913V431.552V419.84
		C1208.675,418.241,1207.371,416.93,1205.772,416.93"/>
	<path  d="M1099.551,469.083c1.37,0,2.492-1.129,2.492-2.506v-47.122c0-1.38-1.122-2.51-2.492-2.51H992.981
		c-1.368,0-2.492,1.13-2.492,2.51v47.122c0,1.376,1.124,2.506,2.492,2.506H1099.551z M1007.965,437.588
		c0-1.376,1.122-2.503,2.497-2.503h71.61c1.373,0,2.497,1.127,2.497,2.503v11.456c0,1.376-1.124,2.502-2.497,2.502h-71.61
		c-1.375,0-2.497-1.126-2.497-2.502V437.588z"/>
	<path  d="M1106.151,485.247H986.379c-1.373,0-2.497,1.127-2.497,2.503v79.821c0,1.377,1.124,2.504,2.497,2.504
		h119.772c1.374,0,2.498-1.127,2.498-2.504V487.75C1108.649,486.374,1107.525,485.247,1106.151,485.247 M1037.528,552.541h-33.674
		c-1.369,0-2.493-1.127-2.493-2.504V536.43h36.167V552.541z M1037.528,518.896h-36.167v-13.499c0-1.376,1.124-2.503,2.493-2.503
		h33.674V518.896z M1091.174,550.037c0,1.377-1.125,2.504-2.5,2.504h-33.673V536.43h36.173V550.037z M1091.174,518.896h-36.173
		v-16.002h33.673c1.375,0,2.5,1.127,2.5,2.503V518.896z"/>
	<path  d="M887.423,470.309c-4.832,0-8.748,3.929-8.748,8.781c0,4.845,3.916,8.772,8.748,8.772
		c4.836,0,8.752-3.928,8.752-8.772C896.175,474.237,892.259,470.309,887.423,470.309"/>
	<path  d="M1139.305,470.309c-4.835,0-8.75,3.929-8.75,8.781c0,4.845,3.915,8.772,8.75,8.772
		c4.834,0,8.748-3.928,8.748-8.772C1148.053,474.237,1144.139,470.309,1139.305,470.309"/>
	<polygon  points="674.87,616.295 684.272,616.295 701.776,636.874 718.922,616.295 728.33,616.295 706.182,642.229 
		730.113,670.479 720.591,670.479 701.301,647.688 682.369,670.479 673.082,670.479 696.893,642.331 	"/>
	<path  d="M744.997,606.109h-7.502v-10.602h7.502V606.109z M744.997,670.475h-7.502v-54.183h7.502V670.475z"/>
	<path  d="M766.785,616.295v9.345h0.238c1.427-3.288,3.968-5.93,7.618-7.929c3.655-1.994,7.663-2.992,12.026-2.992
		c4.291,0,7.877,0.492,10.779,1.472c2.894,0.977,5.216,2.361,6.962,4.146c1.745,1.783,2.978,3.973,3.694,6.562
		c0.712,2.589,1.07,5.497,1.07,8.718v34.862h-7.502v-33.813c0-2.31-0.236-4.462-0.714-6.46c-0.476-1.991-1.31-3.729-2.5-5.197
		c-1.192-1.467-2.799-2.625-4.824-3.463c-2.025-0.84-4.543-1.262-7.56-1.262c-3.016,0-5.7,0.473-8.039,1.416
		c-2.34,0.947-4.325,2.246-5.953,3.89c-1.626,1.646-2.9,3.604-3.809,5.877c-0.915,2.276-1.409,4.745-1.49,7.403v31.609h-7.501
		v-54.184H766.785z"/>
	<path  d="M834.891,621.859v48.615h-7.502v-48.615h-10.478v-5.567h10.478v-4.935c0-2.311,0.194-4.441,0.595-6.401
		c0.396-1.962,1.149-3.64,2.263-5.04c1.111-1.402,2.639-2.481,4.583-3.255c1.942-0.771,4.422-1.156,7.446-1.156
		c1.105,0,2.14,0.036,3.089,0.104c0.952,0.071,2.026,0.179,3.219,0.317v5.67c-1.033-0.141-1.985-0.264-2.86-0.37
		c-0.875-0.103-1.745-0.156-2.616-0.156c-2.063,0-3.652,0.278-4.764,0.837c-1.113,0.562-1.925,1.316-2.442,2.262
		c-0.519,0.944-0.815,2.048-0.894,3.307c-0.077,1.261-0.116,2.624-0.116,4.094v4.724h12.143v5.567H834.891z"/>
	<path  d="M897.039,670.475v-9.766h-0.236c-1.982,3.641-4.865,6.426-8.636,8.35
		c-3.765,1.923-7.956,2.889-12.562,2.889c-3.886,0-7.202-0.475-9.938-1.422c-2.738-0.94-4.961-2.29-6.669-4.039
		c-1.707-1.75-2.963-3.887-3.753-6.406c-0.794-2.52-1.188-5.391-1.188-8.612v-35.176h7.502v35.283
		c0.157,4.901,1.444,8.607,3.867,11.131c2.421,2.52,6.607,3.78,12.562,3.78c3.258,0,6.033-0.617,8.338-1.84
		c2.297-1.221,4.202-2.849,5.712-4.883c1.508-2.029,2.621-4.355,3.337-6.98c0.712-2.624,1.072-5.305,1.072-8.035v-28.456h7.499
		v54.183H897.039z"/>
	<path  d="M953.476,626.846c-0.873-1.505-2.046-2.746-3.512-3.726c-1.47-0.978-3.157-1.697-5.061-2.156
		c-1.903-0.451-3.927-0.681-6.073-0.681c-1.667,0-3.354,0.158-5.062,0.475c-1.703,0.312-3.271,0.838-4.7,1.573
		c-1.432,0.734-2.579,1.7-3.452,2.891c-0.876,1.188-1.312,2.658-1.312,4.41c0,1.467,0.415,2.714,1.248,3.726
		c0.834,1.014,1.889,1.874,3.156,2.573c1.271,0.699,2.66,1.277,4.168,1.729c1.509,0.46,2.897,0.826,4.169,1.104l10,1.995
		c2.146,0.28,4.263,0.787,6.371,1.522c2.103,0.737,3.97,1.7,5.596,2.888c1.626,1.19,2.955,2.663,3.989,4.409
		c1.029,1.751,1.547,3.819,1.547,6.195c0,2.94-0.753,5.443-2.259,7.51c-1.511,2.066-3.44,3.744-5.778,5.037
		c-2.344,1.297-4.981,2.225-7.915,2.786c-2.942,0.559-5.838,0.841-8.695,0.841c-7.223,0-13.079-1.505-17.56-4.519
		c-4.485-3.01-7.046-7.836-7.679-14.487h7.497c0.322,4.479,2.163,7.855,5.537,10.131c3.378,2.277,7.561,3.414,12.562,3.414
		c1.824,0,3.711-0.174,5.655-0.527c1.944-0.346,3.752-0.945,5.421-1.785c1.664-0.84,3.033-1.909,4.105-3.202
		c1.07-1.296,1.606-2.886,1.606-4.778c0-1.609-0.376-2.957-1.131-4.042c-0.757-1.084-1.767-1.992-3.036-2.729
		c-1.271-0.736-2.722-1.349-4.345-1.837c-1.63-0.491-3.276-0.911-4.94-1.258l-9.646-1.894c-2.458-0.559-4.724-1.206-6.788-1.941
		c-2.063-0.737-3.866-1.644-5.418-2.729c-1.549-1.086-2.757-2.417-3.631-3.99c-0.873-1.575-1.309-3.519-1.309-5.831
		c0-2.727,0.693-5.072,2.087-7.029c1.385-1.962,3.189-3.536,5.414-4.727c2.223-1.19,4.703-2.066,7.44-2.625
		c2.74-0.562,5.456-0.842,8.156-0.842c3.099,0,5.974,0.351,8.635,1.05c2.661,0.704,5,1.789,7.021,3.256
		c2.025,1.472,3.634,3.29,4.827,5.46c1.188,2.173,1.859,4.726,2.021,7.667h-7.5C954.825,630.119,954.352,628.352,953.476,626.846"/>
	<path  d="M982.762,595.505v30.135H983c1.431-3.288,3.969-5.93,7.621-7.929c3.653-1.997,7.662-2.992,12.027-2.992
		c4.287,0,7.874,0.492,10.775,1.472c2.895,0.977,5.217,2.361,6.964,4.146c1.745,1.786,2.978,3.973,3.688,6.562
		c0.717,2.593,1.074,5.497,1.074,8.718v34.858h-7.502v-33.812c0-2.307-0.235-4.459-0.714-6.457
		c-0.476-1.991-1.311-3.729-2.497-5.197c-1.192-1.467-2.802-2.625-4.826-3.463c-2.021-0.84-4.544-1.262-7.562-1.262
		s-5.696,0.473-8.034,1.419c-2.341,0.944-4.327,2.243-5.954,3.887c-1.629,1.646-2.898,3.607-3.809,5.877
		c-0.911,2.276-1.411,4.745-1.491,7.403v31.605h-7.497v-74.97H982.762z"/>
	<path  d="M1044.857,652.571c0.753,2.559,1.961,4.847,3.629,6.877c1.665,2.031,3.771,3.714,6.311,5.042
		c2.54,1.33,5.598,1.996,9.169,1.996c5.475,0,9.766-1.261,12.86-3.78c3.097-2.52,5.236-5.881,6.427-10.082h7.503
		c-1.59,6.161-4.506,10.918-8.752,14.281c-4.245,3.356-10.258,5.037-18.038,5.037c-4.841,0-9.032-0.749-12.564-2.254
		c-3.528-1.506-6.408-3.571-8.633-6.194c-2.22-2.625-3.867-5.672-4.938-9.139c-1.073-3.461-1.609-7.12-1.609-10.971
		c0-3.567,0.536-7.071,1.609-10.5c1.07-3.431,2.718-6.491,4.938-9.188c2.225-2.694,5.104-4.863,8.633-6.51
		c3.532-1.644,7.724-2.464,12.564-2.464c4.919,0,9.128,0.871,12.618,2.621c3.494,1.749,6.336,4.044,8.517,6.877
		c2.177,2.836,3.749,6.09,4.702,9.765c0.953,3.678,1.35,7.403,1.193,11.183h-47.274
		C1043.722,647.55,1044.102,650.018,1044.857,652.571 M1082.004,632.358c-0.914-2.31-2.201-4.354-3.867-6.145
		c-1.672-1.784-3.693-3.216-6.076-4.304c-2.378-1.083-5.08-1.627-8.095-1.627c-3.096,0-5.833,0.544-8.218,1.627
		c-2.381,1.088-4.404,2.52-6.068,4.304c-1.668,1.79-3,3.856-3.991,6.201c-0.994,2.345-1.647,4.737-1.967,7.189h39.77
		C1083.412,637.086,1082.92,634.67,1082.004,632.358"/>
	<rect x="1105.518" y="659.347"  width="10.007" height="11.128"/>
	<path  d="M1171.841,623.751c-2.78-2.312-6.669-3.464-11.668-3.464c-3.574,0-6.711,0.663-9.409,1.989
		c-2.701,1.333-4.943,3.085-6.726,5.254c-1.786,2.169-3.138,4.635-4.049,7.403c-0.912,2.766-1.37,5.58-1.37,8.447
		c0,2.877,0.458,5.694,1.37,8.456c0.911,2.767,2.263,5.234,4.049,7.399c1.782,2.174,4.024,3.926,6.726,5.254
		c2.698,1.328,5.835,1.996,9.409,1.996c2.297,0,4.479-0.386,6.546-1.155c2.059-0.771,3.889-1.84,5.474-3.207
		c1.591-1.363,2.901-2.99,3.933-4.878c1.031-1.889,1.668-3.956,1.904-6.197h7.504c-1.033,6.581-3.774,11.708-8.216,15.386
		c-4.446,3.675-10.163,5.508-17.145,5.508c-4.688,0-8.835-0.752-12.444-2.258c-3.617-1.504-6.652-3.548-9.109-6.138
		c-2.463-2.591-4.328-5.619-5.597-9.084c-1.271-3.467-1.907-7.157-1.907-11.082c0-3.914,0.636-7.608,1.907-11.076
		c1.269-3.462,3.134-6.491,5.597-9.08c2.457-2.59,5.492-4.654,9.109-6.194c3.609-1.537,7.756-2.312,12.444-2.312
		c6.585,0,12.157,1.542,16.729,4.621c4.563,3.077,7.279,7.734,8.152,13.967h-7.502
		C1176.521,629.247,1174.616,626.061,1171.841,623.751"/>
	<path  d="M1234.406,617.03c3.611,1.54,6.649,3.606,9.107,6.196c2.461,2.587,4.329,5.616,5.598,9.081
		c1.273,3.465,1.904,7.155,1.904,11.077c0,3.921-0.631,7.611-1.904,11.078c-1.269,3.465-3.137,6.49-5.598,9.084
		c-2.458,2.59-5.496,4.636-9.107,6.142c-3.613,1.505-7.758,2.254-12.443,2.254c-4.683,0-8.826-0.749-12.44-2.254
		c-3.612-1.506-6.648-3.552-9.107-6.142c-2.46-2.594-4.329-5.619-5.597-9.084c-1.274-3.467-1.904-7.157-1.904-11.078
		c0-3.922,0.63-7.612,1.904-11.077c1.268-3.465,3.137-6.494,5.597-9.081c2.459-2.59,5.495-4.656,9.107-6.196
		c3.614-1.541,7.758-2.312,12.44-2.312C1226.648,614.719,1230.793,615.489,1234.406,617.03 M1212.56,622.28
		c-2.7,1.329-4.944,3.081-6.729,5.25c-1.785,2.169-3.138,4.64-4.048,7.403c-0.913,2.763-1.368,5.582-1.368,8.451
		c0,2.873,0.455,5.687,1.368,8.452c0.91,2.767,2.263,5.234,4.048,7.403c1.784,2.17,4.028,3.922,6.729,5.25
		c2.696,1.33,5.833,1.993,9.403,1.993c3.575,0,6.709-0.663,9.407-1.993c2.698-1.328,4.944-3.08,6.728-5.25
		c1.785-2.169,3.139-4.637,4.047-7.403c0.914-2.766,1.369-5.579,1.369-8.452c0-2.869-0.455-5.688-1.369-8.451
		c-0.908-2.764-2.262-5.234-4.047-7.403c-1.783-2.169-4.029-3.921-6.728-5.25c-2.698-1.33-5.832-1.997-9.407-1.997
		C1218.393,620.283,1215.256,620.95,1212.56,622.28"/>
	<path  d="M1269.113,616.295v9.136h0.356c1.989-3.359,4.588-5.984,7.801-7.873c3.217-1.895,7.324-2.839,12.325-2.839
		c4.047,0,7.716,0.876,11.012,2.629c3.295,1.746,5.497,4.406,6.609,7.979c1.825-3.572,4.525-6.232,8.097-7.979
		c3.57-1.753,7.38-2.629,11.43-2.629c13.576,0,20.359,6.339,20.359,19.004v36.756h-7.501v-36.442c0-4.475-1.072-7.891-3.212-10.231
		c-2.146-2.346-5.914-3.521-11.315-3.521c-3.253,0-5.951,0.546-8.097,1.627c-2.144,1.088-3.851,2.539-5.119,4.362
		c-1.269,1.817-2.16,3.898-2.677,6.245c-0.517,2.345-0.775,4.777-0.775,7.3v30.661h-7.499v-36.756c0-1.815-0.22-3.552-0.657-5.194
		c-0.438-1.647-1.15-3.081-2.142-4.305c-0.993-1.226-2.325-2.187-3.989-2.887c-1.667-0.7-3.691-1.054-6.072-1.054
		c-3.174,0-5.938,0.512-8.276,1.524c-2.341,1.012-4.248,2.416-5.713,4.201c-1.472,1.783-2.561,3.883-3.275,6.299
		c-0.718,2.413-1.071,5.057-1.071,7.926v30.245h-7.502v-54.184H1269.113z"/>
	<path  d="M328.467,382.662c-0.379,0.372-0.764,0.738-1.136,1.119c-0.271,0.279-0.526,0.569-0.79,0.851
		c-0.353,0.375-0.713,0.754-1.053,1.143c-0.263,0.294-0.514,0.6-0.771,0.898c-0.333,0.392-0.663,0.783-0.984,1.181
		c-0.251,0.311-0.491,0.629-0.734,0.947c-0.312,0.404-0.624,0.805-0.925,1.215c-0.238,0.328-0.469,0.662-0.7,0.992
		c-0.295,0.417-0.584,0.834-0.866,1.259c-0.225,0.336-0.443,0.683-0.661,1.028c-0.276,0.43-0.546,0.864-0.815,1.303
		c-0.209,0.353-0.418,0.707-0.62,1.06c-0.259,0.448-0.513,0.897-0.76,1.357c-0.196,0.355-0.391,0.718-0.581,1.081
		c-0.24,0.468-0.478,0.937-0.711,1.413c-0.183,0.365-0.356,0.737-0.536,1.109c-0.226,0.481-0.446,0.973-0.665,1.463
		c-0.164,0.373-0.331,0.752-0.49,1.133c-0.212,0.503-0.417,1.011-0.62,1.521c-0.147,0.377-0.298,0.76-0.442,1.146
		c-0.202,0.526-0.389,1.059-0.575,1.588c-0.134,0.381-0.269,0.764-0.404,1.145c-0.179,0.552-0.356,1.111-0.529,1.669
		c-0.116,0.379-0.239,0.757-0.354,1.143c-0.17,0.584-0.332,1.174-0.49,1.761c-0.101,0.369-0.207,0.741-0.303,1.113
		c-0.159,0.623-0.308,1.258-0.456,1.894c-0.083,0.353-0.167,0.696-0.244,1.044c-0.157,0.695-0.296,1.394-0.434,2.096
		c-0.061,0.305-0.128,0.606-0.183,0.915c-0.153,0.815-0.295,1.644-0.43,2.478c-0.026,0.198-0.067,0.391-0.096,0.593
		c-0.328,2.101-0.591,4.236-0.795,6.417c-0.006,0.068-0.01,0.139-0.017,0.202c-0.093,1.014-0.174,2.028-0.241,3.056
		c-0.016,0.263-0.025,0.526-0.042,0.789c-0.047,0.841-0.094,1.681-0.127,2.528c-0.014,0.34-0.02,0.691-0.03,1.034
		c-0.025,0.776-0.045,1.552-0.051,2.335c-0.008,0.392-0.008,0.786-0.008,1.178c0,0.749,0,1.493,0.008,2.249
		c0.006,0.418,0.02,0.841,0.026,1.269c0.019,0.73,0.037,1.465,0.064,2.207c0.016,0.442,0.038,0.888,0.063,1.339
		c0.031,0.725,0.068,1.455,0.116,2.188c0.025,0.461,0.061,0.923,0.093,1.386c0.048,0.729,0.104,1.457,0.169,2.191
		c0.039,0.471,0.08,0.946,0.128,1.424c0.068,0.736,0.141,1.467,0.219,2.205c0.047,0.481,0.103,0.963,0.159,1.447
		c0.084,0.738,0.181,1.479,0.273,2.227c0.061,0.485,0.128,0.976,0.197,1.469c0.099,0.748,0.208,1.496,0.32,2.244
		c0.077,0.497,0.151,0.994,0.231,1.491c0.122,0.753,0.244,1.515,0.372,2.278c0.087,0.499,0.174,0.992,0.26,1.494
		c0.138,0.77,0.283,1.542,0.433,2.316c0.094,0.498,0.187,0.995,0.289,1.489c0.155,0.787,0.322,1.576,0.489,2.368
		c0.102,0.495,0.206,0.986,0.311,1.477c0.176,0.809,0.363,1.616,0.549,2.433c0.112,0.481,0.224,0.962,0.34,1.45
		c0.194,0.834,0.404,1.671,0.616,2.516c0.115,0.461,0.23,0.925,0.35,1.392c0.228,0.88,0.461,1.759,0.699,2.645
		c0.118,0.432,0.228,0.864,0.35,1.296c0.263,0.946,0.533,1.899,0.809,2.853c0.109,0.375,0.211,0.747,0.32,1.117
		c0.324,1.1,0.662,2.204,1.001,3.308c0.07,0.231,0.137,0.456,0.212,0.687c0.847,2.711,1.746,5.44,2.702,8.184
		c0.038,0.099,0.075,0.198,0.106,0.292c0.44,1.255,0.889,2.519,1.353,3.779c0.13,0.352,0.264,0.706,0.395,1.062
		c0.374,1.005,0.752,2.012,1.14,3.025c0.177,0.459,0.363,0.926,0.54,1.385c0.355,0.903,0.708,1.812,1.076,2.723
		c0.204,0.518,0.422,1.036,0.634,1.557c0.347,0.854,0.699,1.713,1.059,2.57c0.228,0.552,0.463,1.1,0.699,1.653
		c0.357,0.832,0.707,1.662,1.072,2.493c0.251,0.57,0.504,1.146,0.761,1.717c0.356,0.813,0.722,1.63,1.091,2.445
		c0.267,0.588,0.542,1.178,0.812,1.771c0.367,0.796,0.738,1.596,1.117,2.397c0.282,0.604,0.571,1.209,0.86,1.812
		c0.379,0.789,0.757,1.583,1.143,2.372c0.301,0.612,0.605,1.229,0.912,1.842c0.388,0.785,0.779,1.568,1.178,2.353
		c0.311,0.623,0.625,1.241,0.945,1.863c0.398,0.78,0.803,1.56,1.213,2.339c0.327,0.631,0.656,1.253,0.99,1.882
		c0.412,0.773,0.831,1.553,1.25,2.329c0.34,0.63,0.68,1.261,1.027,1.894c0.424,0.77,0.853,1.546,1.287,2.319
		c0.349,0.636,0.707,1.271,1.068,1.903c0.437,0.774,0.88,1.547,1.322,2.317c0.367,0.635,0.732,1.271,1.104,1.902
		c0.449,0.776,0.909,1.554,1.367,2.326c0.376,0.632,0.751,1.265,1.13,1.897c0.468,0.782,0.951,1.559,1.424,2.343
		c0.379,0.625,0.764,1.247,1.149,1.876c0.491,0.789,0.99,1.579,1.487,2.369c0.387,0.614,0.773,1.229,1.164,1.842
		c0.515,0.811,1.048,1.62,1.57,2.434c0.385,0.593,0.76,1.182,1.152,1.772c0.552,0.85,1.124,1.694,1.684,2.538
		c0.37,0.556,0.742,1.114,1.113,1.67c0.668,0.986,1.353,1.982,2.035,2.97c0.28,0.407,0.553,0.813,0.833,1.22
		c0.958,1.38,1.93,2.763,2.913,4.14c0.37,0.52,0.748,1.029,1.12,1.547c0.629,0.875,1.252,1.746,1.89,2.615
		c0.447,0.607,0.899,1.207,1.345,1.813c0.578,0.779,1.155,1.56,1.739,2.339c0.479,0.632,0.967,1.267,1.451,1.902
		c0.471,0.619,0.944,1.242,1.425,1.864c-6.328-21.999,0.545-46.045,18.377-61.234c17.915-15.263,42.572-17.919,62.868-7.611
		L329.417,381.75c-0.049,0.045-0.098,0.083-0.146,0.128C328.999,382.135,328.736,382.401,328.467,382.662"/>
	<path  d="M477.337,469.456c17.8-15.166,42.264-17.88,62.487-7.792l-0.706-0.853
		c-0.129-0.146-0.261-0.293-0.388-0.437c-0.909-1.021-1.824-2.032-2.741-3.036c-0.304-0.338-0.609-0.675-0.915-1.001
		c-0.802-0.876-1.607-1.746-2.412-2.612c-0.463-0.495-0.931-0.989-1.394-1.482c-0.654-0.693-1.312-1.386-1.965-2.074
		c-0.678-0.709-1.361-1.408-2.042-2.111c-0.452-0.461-0.897-0.927-1.347-1.386c-1.001-1.014-2.002-2.025-3.003-3.022
		c-0.137-0.141-0.276-0.283-0.417-0.424c-42.636-42.365-89.711-69.421-129.062-76.092c-0.08-0.018-0.164-0.029-0.246-0.042
		c-0.989-0.171-1.968-0.318-2.945-0.459c-0.155-0.02-0.315-0.045-0.47-0.067c-0.897-0.123-1.791-0.235-2.679-0.338
		c-0.222-0.025-0.446-0.051-0.665-0.08c-0.815-0.087-1.623-0.161-2.43-0.232c-0.282-0.026-0.567-0.051-0.85-0.077
		c-0.731-0.057-1.45-0.103-2.176-0.142c-0.346-0.022-0.696-0.047-1.039-0.063c-0.629-0.033-1.246-0.044-1.872-0.064
		c-0.426-0.016-0.862-0.036-1.286-0.043c-0.418-0.006-0.835,0-1.251-0.002c-2.471-0.006-4.909,0.07-7.291,0.26
		c-0.108,0.006-0.218,0.014-0.327,0.023c-0.767,0.063-1.527,0.141-2.285,0.224c-0.206,0.022-0.408,0.039-0.61,0.064
		c-0.711,0.083-1.415,0.179-2.12,0.289c-0.241,0.032-0.485,0.063-0.723,0.1c-0.673,0.105-1.339,0.22-1.999,0.343
		c-0.27,0.048-0.54,0.093-0.807,0.146c-0.634,0.124-1.26,0.257-1.886,0.399c-0.289,0.065-0.578,0.127-0.87,0.196
		c-0.601,0.141-1.196,0.292-1.791,0.449c-0.305,0.083-0.613,0.163-0.914,0.244c-0.565,0.16-1.133,0.33-1.695,0.503
		c-0.321,0.097-0.641,0.196-0.959,0.302c-0.54,0.173-1.072,0.354-1.601,0.546c-0.338,0.118-0.674,0.238-1.005,0.359
		c-0.503,0.192-1.011,0.385-1.508,0.591c-0.35,0.14-0.697,0.285-1.042,0.429c-0.475,0.205-0.95,0.411-1.416,0.624
		c-0.362,0.166-0.729,0.336-1.084,0.509c-0.44,0.212-0.882,0.427-1.318,0.649c-0.379,0.195-0.755,0.394-1.13,0.6
		c-0.405,0.215-0.809,0.436-1.213,0.664c-0.397,0.228-0.789,0.459-1.178,0.697c-0.373,0.224-0.741,0.442-1.107,0.677
		c-0.417,0.264-0.827,0.539-1.239,0.814c-0.33,0.222-0.66,0.441-0.988,0.668c-0.442,0.312-0.875,0.632-1.309,0.959
		c-0.286,0.212-0.578,0.417-0.853,0.636c-0.056,0.038-0.106,0.083-0.161,0.122l125.943,152.381
		C452.564,508.912,459.422,484.718,477.337,469.456"/>
	<path  d="M543.954,458.956c-6.588-22.147,0.253-46.464,18.226-61.773c16.767-14.289,39.984-17.389,59.522-9.12
		c-73.335-69.854-183.972-79.471-267.74-24.921c6.61-1.723,13.721-2.583,21.258-2.583c14.042,0,29.576,2.998,46.175,8.999
		c0.059,0.022,0.116,0.045,0.173,0.064c1.127,0.405,2.257,0.828,3.39,1.265c0.109,0.042,0.218,0.083,0.328,0.122
		c0.037,0.017,0.073,0.032,0.108,0.045c1.014,0.391,2.034,0.799,3.051,1.21c0.241,0.099,0.484,0.192,0.725,0.291
		c0.202,0.083,0.402,0.161,0.606,0.245c0.787,0.328,1.579,0.668,2.372,1.008c0.248,0.105,0.491,0.205,0.739,0.314
		c1.048,0.45,2.095,0.917,3.144,1.386c0.183,0.083,0.363,0.161,0.542,0.244C473.441,392.487,511.043,421.631,543.954,458.956"/>
	<path  d="M288.465,671.942c-4.634-20.975,2.412-43.64,19.18-57.928c17.973-15.313,42.745-17.929,63.09-7.49
		c-0.867-1.122-1.72-2.244-2.57-3.363c-0.119-0.158-0.241-0.311-0.355-0.468c-1.046-1.383-2.082-2.77-3.101-4.155
		c-0.167-0.22-0.32-0.444-0.48-0.666c-0.845-1.146-1.682-2.289-2.506-3.444c-0.331-0.459-0.655-0.925-0.983-1.387
		c-0.65-0.915-1.298-1.83-1.94-2.746c-0.378-0.543-0.75-1.087-1.123-1.628c-0.583-0.838-1.161-1.675-1.732-2.517
		c-0.401-0.589-0.792-1.177-1.19-1.761c-0.536-0.802-1.075-1.604-1.608-2.408c-0.398-0.604-0.796-1.219-1.2-1.828
		c-0.51-0.784-1.021-1.563-1.527-2.349c-0.405-0.628-0.804-1.256-1.2-1.884c-0.489-0.771-0.976-1.533-1.455-2.303
		c-0.401-0.64-0.802-1.285-1.196-1.927c-0.468-0.76-0.937-1.521-1.398-2.284c-0.395-0.646-0.784-1.293-1.175-1.943
		c-0.455-0.757-0.902-1.517-1.348-2.273c-0.389-0.65-0.771-1.307-1.149-1.957c-0.442-0.758-0.879-1.519-1.315-2.272
		c-0.372-0.653-0.748-1.309-1.115-1.963c-0.432-0.762-0.849-1.524-1.274-2.285c-0.363-0.651-0.723-1.303-1.082-1.955
		c-0.42-0.766-0.834-1.539-1.248-2.31c-0.344-0.646-0.695-1.287-1.031-1.926c-0.424-0.795-0.834-1.595-1.245-2.391
		c-0.324-0.616-0.648-1.232-0.962-1.849c-0.443-0.862-0.874-1.723-1.304-2.583c-0.275-0.556-0.558-1.105-0.833-1.661
		c-0.687-1.394-1.364-2.783-2.028-4.172c-0.226-0.472-0.44-0.944-0.662-1.413c-0.443-0.942-0.89-1.883-1.322-2.825
		c-0.276-0.607-0.545-1.215-0.822-1.821c-0.365-0.805-0.731-1.609-1.084-2.415c-0.289-0.645-0.564-1.291-0.847-1.936
		c-0.331-0.767-0.661-1.531-0.988-2.294c-0.276-0.662-0.553-1.316-0.822-1.975c-0.314-0.754-0.629-1.505-0.937-2.255
		c-0.27-0.664-0.533-1.325-0.796-1.99c-0.295-0.747-0.59-1.488-0.883-2.229c-0.259-0.666-0.509-1.334-0.766-1.996
		c-0.282-0.741-0.559-1.483-0.834-2.222c-0.251-0.666-0.491-1.331-0.731-1.995c-0.267-0.734-0.534-1.473-0.79-2.208
		c-0.238-0.664-0.465-1.327-0.694-1.985c-0.256-0.745-0.507-1.483-0.753-2.225c-0.221-0.651-0.439-1.302-0.651-1.958
		c-0.244-0.746-0.481-1.492-0.715-2.236c-0.203-0.645-0.408-1.283-0.606-1.931c-0.231-0.754-0.459-1.508-0.681-2.263
		c-0.19-0.626-0.379-1.259-0.558-1.884c-0.226-0.776-0.44-1.546-0.654-2.316c-0.168-0.606-0.341-1.213-0.504-1.816
		c-0.222-0.809-0.427-1.61-0.633-2.419c-0.151-0.565-0.301-1.133-0.442-1.694c-0.225-0.899-0.438-1.787-0.649-2.683
		c-0.115-0.469-0.231-0.937-0.34-1.41c-0.315-1.357-0.617-2.717-0.908-4.072c-0.363-1.73-0.7-3.446-1.017-5.146
		c-0.092-0.499-0.18-0.988-0.267-1.48c-0.23-1.292-0.445-2.579-0.647-3.853c-0.074-0.45-0.147-0.898-0.214-1.351
		c-0.251-1.655-0.481-3.299-0.682-4.925c-0.031-0.263-0.057-0.522-0.089-0.783c-0.166-1.383-0.314-2.754-0.442-4.115
		c-0.045-0.481-0.086-0.962-0.126-1.441c-0.108-1.261-0.202-2.506-0.285-3.751c-0.02-0.356-0.045-0.715-0.068-1.071
		c-0.085-1.553-0.149-3.091-0.189-4.613c-0.006-0.357-0.01-0.714-0.02-1.068c-0.018-1.192-0.026-2.38-0.018-3.559
		c0.006-0.449,0.006-0.895,0.018-1.345c0.02-1.277,0.059-2.548,0.116-3.798c0.014-0.215,0.014-0.437,0.026-0.648
		c0.075-1.451,0.177-2.875,0.298-4.288c0.032-0.391,0.075-0.77,0.112-1.151c0.103-1.076,0.219-2.14,0.351-3.193
		c0.047-0.401,0.099-0.799,0.15-1.196c0.189-1.371,0.388-2.731,0.626-4.066c0.006-0.042,0.014-0.083,0.021-0.122
		c0.228-1.297,0.489-2.573,0.758-3.832c0.087-0.385,0.173-0.757,0.263-1.137c0.224-0.984,0.465-1.956,0.719-2.916
		c0.091-0.336,0.173-0.674,0.267-1.011c0.344-1.238,0.705-2.463,1.096-3.67c0.069-0.208,0.146-0.411,0.216-0.623
		c0.333-1.007,0.687-1.995,1.052-2.971c0.135-0.357,0.273-0.712,0.411-1.065c0.36-0.914,0.738-1.815,1.123-2.712
		c0.083-0.188,0.153-0.385,0.241-0.573C243.315,474.205,233.438,586.49,288.465,671.942"/>
	<path  d="M477.654,547.817c-2.124-2.564-5.929-2.901-8.458-0.745l-0.007,0.004c-2.531,2.156-2.865,6.021-0.744,8.587
		l60.365,73.038l9.206-7.846L477.654,547.817z"/>
	<path  d="M568.483,667.148L568.483,667.148c-5.585,4.754-13.982,4.013-18.664-1.651l-15.541-18.804
		c-4.656-5.633-3.924-14.113,1.63-18.839c5.583-4.76,13.982-4.016,18.664,1.651l15.541,18.798
		C574.769,653.938,574.033,662.42,568.483,667.148"/>
</g>
</svg>
