<?xml version="1.0" encoding="utf-8"?>
<!-- Generator: Adobe Illustrator 16.0.0, SVG Export Plug-In . SVG Version: 6.00 Build 0)  -->
<!DOCTYPE svg PUBLIC "-//W3C//DTD SVG 1.1//EN" "http://www.w3.org/Graphics/SVG/1.1/DTD/svg11.dtd">
<svg version="1.1" id="Layer_1" xmlns="http://www.w3.org/2000/svg" xmlns:xlink="http://www.w3.org/1999/xlink" x="0px" y="0px"
	 width="1600px" height="1000px" viewBox="0 0 1600 1000" enable-background="new 0 0 1600 1000" xml:space="preserve">
<g>
	<path  d="M985.3,597.327h-47.289l-52.834-74.256h-23.361v74.256h-38.364V402.671h78.695
		c8.147,0,15.847,1.574,23.083,4.727c7.216,3.153,13.568,7.456,19.056,12.926c5.451,5.473,9.818,11.819,13.062,19.056
		c3.235,7.229,4.872,15.013,4.872,23.361c0,12.228-3.163,23.208-9.472,32.947c-6.29,9.738-14.533,16.916-24.733,21.554
		L985.3,597.327z M894.91,484.707c9.831,0,17.057-2.175,21.701-6.542c4.63-4.352,6.951-9.498,6.951-15.425
		c0-5.932-2.321-10.989-6.951-15.159c-4.645-4.174-11.87-6.26-21.701-6.26h-33.095v43.386H894.91z"/>
	<path  d="M1092.192,487.267h75.854v82.511c-10.52,9.417-21.455,16.609-32.805,21.588
		c-11.355,4.993-23.861,7.482-37.518,7.482c-14.956,0-28.527-2.811-40.71-8.448c-12.183-5.625-22.564-13.007-31.142-22.145
		c-8.584-9.142-15.182-19.611-19.805-31.427c-4.608-11.812-6.922-23.997-6.922-36.545c0-14.959,2.822-28.567,8.447-40.846
		c5.626-12.27,13.01-22.703,22.16-31.287c9.127-8.584,19.601-15.228,31.423-19.939c11.808-4.703,23.99-7.059,36.548-7.059
		c13.104,0,25.839,2.681,38.209,8.031c12.359,5.359,23.613,13.114,33.779,23.256l-26.299,27.694
		c-6.832-6.464-14.18-11.499-22.014-15.09c-7.854-3.6-15.741-5.398-23.676-5.398c-8.311,0-16.106,1.563-23.403,4.698
		c-7.288,3.145-13.657,7.48-19.106,13.018c-5.447,5.54-9.733,11.996-12.862,19.379c-3.146,7.384-4.713,15.229-4.713,23.543
		c0,8.296,1.567,16.101,4.713,23.39c3.129,7.303,7.415,13.674,12.862,19.114c5.449,5.437,11.818,9.729,19.106,12.862
		c7.297,3.142,15.093,4.707,23.403,4.707c5.544,0,11.062-0.781,16.605-2.356c5.546-1.556,10.708-3.718,15.506-6.494v-25.755h-37.643
		V487.267z"/>
	<rect x="271.947" y="560.336"  width="123.073" height="36.93"/>
	<rect x="271.947" y="481.504"  width="123.073" height="36.911"/>
	<rect x="271.947" y="402.671"  width="123.073" height="36.928"/>
	<rect x="431.942" y="402.671"  width="36.92" height="194.653"/>
	<rect x="510.775" y="402.671"  width="36.914" height="194.653"/>
	<rect x="589.603" y="402.671"  width="36.933" height="194.653"/>
	<rect x="663.456" y="560.336"  width="123.066" height="36.93"/>
	<rect x="663.456" y="481.504"  width="123.066" height="36.911"/>
	<rect x="663.456" y="402.671"  width="123.066" height="36.928"/>
	<rect x="1204.976" y="560.328"  width="123.077" height="36.93"/>
	<rect x="1204.976" y="481.501"  width="123.077" height="36.91"/>
	<rect x="1204.976" y="402.667"  width="123.077" height="36.928"/>
</g>
</svg>
