<?xml version="1.0" encoding="utf-8"?>
<!-- Generator: Adobe Illustrator 16.0.0, SVG Export Plug-In . SVG Version: 6.00 Build 0)  -->
<!DOCTYPE svg PUBLIC "-//W3C//DTD SVG 1.1//EN" "http://www.w3.org/Graphics/SVG/1.1/DTD/svg11.dtd">
<svg version="1.1" id="Layer_1" xmlns="http://www.w3.org/2000/svg" xmlns:xlink="http://www.w3.org/1999/xlink" x="0px" y="0px"
	 width="1600px" height="1000px" viewBox="0 0 1600 1000" enable-background="new 0 0 1600 1000" xml:space="preserve">
<g>
	<path  d="M351.02,504.953l-14.451,26.198l-15.417-16.495l14.452-29.111v-72.773h-10.597v-20.375h34.685v89.267
		l26.978,25.229h148.375v21.346H377.033L351.02,504.953z M339.457,327.385l33.722,35.902l-12.524,19.405l-33.722-35.902
		L339.457,327.385z M524.446,487.487l14.454-16.496l-64.554-69.861v-21.347h61.662v-21.348h-61.662v-31.05h-24.087v31.05h-59.736
		v21.348h59.736v21.347l-63.59,69.861l13.489,16.496l61.663-66.952L524.446,487.487z"/>
	<path  d="M571.658,515.627l54.918-143.609v-17.464h-52.991v-21.346h78.04v34.932L588.036,528.24L571.658,515.627z
		 M592.853,370.079l56.845,144.578l-17.341,13.584l-56.845-143.605L592.853,370.079z M735.448,460.317l-52.027,67.923l-23.122-2.912
		l52.028-70.831v-77.626h23.122V460.317z M668.968,330.297h109.836v130.992h-23.122V351.643h-63.59v107.704h-23.125V330.297z
		 M731.595,528.24v-56.277h23.124v33.96h26.977v22.316H731.595z"/>
	<path  d="M916.585,471.963v-8.735h-94.423v-19.408h119.473v38.815l-110.797,45.602l-13.494-14.552L916.585,471.963z
		 M846.249,363.287l-26.013-21.345l19.269-11.645l26.014,20.377L846.249,363.287z M846.249,397.249l-26.013,21.347l19.269,11.644
		l26.014-20.377L846.249,397.249z M895.386,370.079h48.175v20.377h-48.175v37.841h-24.087v-37.841h-49.137v-20.377h49.137v-37.843
		h24.087V370.079z M853.955,477.785l93.461,35.901l-15.418,14.552l-108.873-40.751l24.087-52.398l22.162,8.732L853.955,477.785z
		 M920.436,363.287l26.018-21.345l-19.269-11.645l-26.018,20.377L920.436,363.287z M920.436,397.249l26.018,21.347l-19.269,11.644
		l-26.018-20.377L920.436,397.249z M966.685,528.238l-13.488-18.436l49.137-97.03v-58.219h-35.648v-21.346h66.479v21.346h-6.743
		v57.25L966.685,528.238z M961.868,326.413l19.267,11.646l-7.707,81.507l-18.306-10.676L961.868,326.413z M963.796,438.97
		l15.413-17.463l52.993,88.296l-14.448,18.436L963.796,438.97z"/>
	<path  d="M1061.103,446.734l60.699-20.377l4.82,21.347l-61.664,20.375L1061.103,446.734z M1064.958,528.24v-21.348
		h17.344V381.724h-20.236v-21.346h20.236v-31.052h23.124v31.052h17.345v21.346h-17.345V528.24H1064.958z M1274.037,330.297v63.067
		h-42.396v23.292h47.207v21.347h-47.207v27.167h42.396v63.07h-110.805v-63.07h44.322v-27.167h-43.36v15.521l-30.831,65.983
		l-12.525-19.408l19.27-46.575V330.297H1274.037z M1249.95,351.643h-85.756v21.346h85.756V351.643z M1207.555,393.364h-43.36v23.292
		h43.36V393.364z M1186.358,506.893h63.592v-20.375h-63.592V506.893z"/>
	<path  d="M333.572,672.144v-86.103h23.61c30.128,0,45.193,13.991,45.193,41.97c0,13.292-4.184,23.972-12.55,32.036
		c-8.369,8.066-19.566,12.097-33.598,12.097H333.572z M343.59,595.168v67.851h12.76c11.208,0,19.932-3.022,26.171-9.065
		c6.243-6.044,9.361-14.609,9.361-25.699c0-22.06-11.645-33.086-34.938-33.086H343.59z"/>
	<path  d="M507.347,672.146h-11.089l-9.062-24.139h-36.252l-8.524,24.139h-11.15l32.792-86.103h10.375
		L507.347,672.146z M483.916,638.941L470.5,602.254c-0.437-1.201-0.873-3.121-1.31-5.764h-0.24
		c-0.397,2.442-0.855,4.365-1.372,5.764l-13.295,36.688H483.916z"/>
	<polygon  points="592.464,595.168 567.78,595.168 567.78,672.144 557.765,672.144 557.765,595.168 533.143,595.168 
		533.143,586.041 592.464,586.041 	"/>
	<path  d="M694.037,672.146h-11.089l-9.062-24.139h-36.252l-8.523,24.139h-11.15l32.791-86.103h10.375
		L694.037,672.146z M670.606,638.941l-13.415-36.688c-0.438-1.201-0.874-3.121-1.31-5.764h-0.24
		c-0.398,2.442-0.855,4.365-1.373,5.764l-13.294,36.688H670.606z"/>
	<path  d="M847.935,666.261c-8.582,4.886-18.119,7.327-28.614,7.327c-12.205,0-22.072-3.965-29.604-11.889
		c-7.534-7.93-11.297-18.415-11.297-31.466c0-13.327,4.183-24.266,12.548-32.814c8.366-8.542,18.969-12.817,31.809-12.817
		c9.302,0,17.111,1.521,23.43,4.562v11.17c-6.912-4.406-15.103-6.606-24.563-6.606c-9.581,0-17.432,3.324-23.55,9.969
		c-6.12,6.641-9.179,15.251-9.179,25.818c0,10.89,2.838,19.444,8.523,25.671c5.683,6.222,13.395,9.335,23.133,9.335
		c6.679,0,12.459-1.34,17.348-4.024v-24.137h-18.719v-9.129h28.735V666.261z"/>
	<path  d="M951.058,672.144h-11.922l-14.308-24.137c-1.314-2.238-2.585-4.15-3.818-5.733
		c-1.229-1.581-2.494-2.872-3.786-3.871c-1.291-1.003-2.677-1.732-4.175-2.194c-1.491-0.459-3.166-0.69-5.036-0.69h-8.23v36.626
		h-10.015v-86.103h25.521c3.735,0,7.183,0.472,10.34,1.414c3.161,0.939,5.906,2.369,8.229,4.294c2.323,1.92,4.143,4.312,5.457,7.174
		c1.311,2.861,1.967,6.214,1.967,10.056c0,3.003-0.448,5.757-1.342,8.257c-0.893,2.501-2.166,4.735-3.819,6.694
		c-1.646,1.963-3.633,3.634-5.96,5.015c-2.324,1.381-4.939,2.451-7.837,3.211v0.241c1.431,0.638,2.671,1.371,3.726,2.189
		c1.051,0.821,2.055,1.794,3.011,2.913c0.952,1.122,1.896,2.393,2.83,3.814c0.936,1.417,1.977,3.072,3.13,4.951L951.058,672.144z
		 M899.782,595.168v31.225h13.595c2.504,0,4.823-0.38,6.948-1.144c2.124-0.756,3.966-1.849,5.517-3.272
		c1.546-1.418,2.759-3.162,3.634-5.223c0.874-2.062,1.314-4.372,1.314-6.934c0-4.604-1.481-8.195-4.444-10.777
		c-2.962-2.584-7.243-3.875-12.849-3.875H899.782z"/>
	<path  d="M1050.961,672.146h-11.086l-9.062-24.139h-36.251l-8.525,24.139h-11.149l32.793-86.103h10.372
		L1050.961,672.146z M1027.531,638.941l-13.414-36.688c-0.438-1.201-0.874-3.121-1.309-5.764h-0.239
		c-0.397,2.442-0.858,4.365-1.372,5.764l-13.298,36.688H1027.531z"/>
	<path  d="M1154.447,672.146h-12.285l-43.999-68.629c-1.115-1.724-2.025-3.523-2.744-5.405h-0.356
		c0.319,1.843,0.479,5.783,0.479,11.83v62.204h-10.019v-86.103h12.997l42.81,67.549c1.787,2.803,2.939,4.723,3.458,5.765h0.236
		c-0.398-2.481-0.598-6.706-0.598-12.671v-60.643h10.021V672.146z"/>
	<path  d="M1198.84,672.144v-86.103h23.609c30.132,0,45.194,13.991,45.194,41.97c0,13.292-4.185,23.972-12.549,32.036
		c-8.368,8.066-19.565,12.097-33.599,12.097H1198.84z M1208.855,595.168v67.851h12.762c11.21,0,19.935-3.022,26.174-9.065
		c6.239-6.044,9.359-14.609,9.359-25.699c0-22.06-11.646-33.086-34.938-33.086H1208.855z"/>
</g>
</svg>
