<?xml version="1.0" encoding="utf-8"?>
<!-- Generator: Adobe Illustrator 16.0.0, SVG Export Plug-In . SVG Version: 6.00 Build 0)  -->
<!DOCTYPE svg PUBLIC "-//W3C//DTD SVG 1.1//EN" "http://www.w3.org/Graphics/SVG/1.1/DTD/svg11.dtd">
<svg version="1.1" id="Layer_1" xmlns="http://www.w3.org/2000/svg" xmlns:xlink="http://www.w3.org/1999/xlink" x="0px" y="0px"
	 width="1600px" height="1000px" viewBox="0 0 1600 1000" enable-background="new 0 0 1600 1000" xml:space="preserve">
<g>
	<path  d="M364.791,498.921c-1.309-2.694-5.571-7.751-10.901-7.501c-3.737,0.179-8.259,4.966-8.473,6.661
		c-0.212,1.695-0.33,2.339-0.33,3.517c0,31.266-25.351,56.612-56.619,56.612c-31.269,0-56.613-25.347-56.613-56.612
		c0-31.27,25.344-56.615,56.613-56.615c0.825,0,0.729-0.138,2.46-0.608c1.732-0.473,4.841-1.438,6.913-7.281
		c2.072-5.848-4.161-10.975-6.594-11.592c-2.437-0.617-1.851-0.499-2.779-0.499c-42.302,0-76.596,34.292-76.596,76.596
		c0,42.303,34.294,76.599,76.596,76.599c42.304,0,76.596-34.296,76.596-76.599C365.064,500.701,364.813,499.777,364.791,498.921"/>
	<path  d="M325.963,463.811c0,0-0.222,27.793-0.222,38.851c0,21.213-17.198,38.411-38.408,38.411
		c-21.214,0-38.412-17.198-38.412-38.411c0-21.213,17.198-38.405,38.412-38.405C297.484,464.257,325.963,463.811,325.963,463.811"/>
	<path  d="M320.188,440.645c-0.187-0.047-4.213,0.59-5.104,3.11c-0.886,2.516,0.811,6.214,3.625,7.253
		c16.727,3.404,19.69,18.651,21.464,23.088c2.074,2.072,3.848,1.776,4.884,1.776c1.034,0,2.961-1.035,4.292-3.406
		C351.567,460.479,334.399,441.978,320.188,440.645"/>
	<path  d="M320.51,421.803c-0.189-0.03-4.093,1.451-4.688,3.968c-0.593,2.518,1.25,6.259,4.145,7.03
		c16.97,1.835,35.82,17.317,37.895,40.704c2.659,3.258,5.37,2.853,6.401,2.753c1.033-0.094,2.704-1.748,3.809-4.23
		C368.072,441.091,336.956,422.4,320.51,421.803"/>
	<path  d="M604.115,510.558l-2.337,3.42v-9.89h14.292l0.031-9.145h-14.323v-25.414H584.92v25.62h-12.602l-0.002,8.939
		h12.604v33.863c0,0-8.987,12.262-10.585,13.517c-1.561,1.308-4.939,1.114-4.939,1.114l0.003,6.638
		c10.85,0.832,15.154-3.998,15.154-3.998v8.846c0,5.754-6.727,5.989-6.727,5.989v7.239c23.593,1.707,23.951-13.663,23.951-13.663
		v-31.777l12.759-21.298H604.115z"/>
	<path  d="M678.171,469.529h-17.144l0.002,9.952h-40.183v9.205h40.181l-0.003,6.222h-40.178v9.219h40.178l0.003,6.332
		h-40.181l0.005,9.238h40.178l-0.002,7.089h-40.181v9.215h40.181v26.895c-2.11-0.313-3.922-0.635-4.991-0.97
		c-4.459-1.347-14.041-4.337-18.807-15.227c0,0,0.791-5.584,0.94-8.076h-15.594c0,0-1.01,14.803-2.019,19.14
		c-1.007,4.351-3.291,7.434-7.287,10.026v8.667c0,0,16.071-1.806,21.387-18.486c0,0,4.659,7.104,15.021,11.75
		c1.971,0.87,10.319,4.154,22.193,4.154h53.501v-9.23h-47.201v-11.442h41.718l-0.08-9.195h-41.638v-8.005h18.422
		c10.831,0,22.723-1.93,22.723-13.11l0.005-3.193h6.051v-9.238h-6.061c0,0,0.01-2.426,0.005-4.575
		c0-4.837-2.698-10.976-18.63-10.976h-22.515v-6.222h47.201v-9.205h-47.201V469.529z M702.492,522.919
		c0,1.035-0.276,3.867-4.392,3.867h-19.929v-7.089h24.331C702.502,519.697,702.502,521.862,702.492,522.919 M697.955,504.127
		c1.649,0,4.537,0.293,4.537,3.272c0,0.46,0.049,1.121,0,3.06h-24.321v-6.332H697.955z"/>
	<path  d="M466.936,540.88v-43.524c-0.408-7.453-6.713-13.805-17.534-13.805h-6.729v-16.12H427l0.003,16.12h-7.106
		c-11.299,0-17.419,6.314-17.417,12.539c-0.002,6.21,0,44.79,0,44.79c0,8.198,5.547,14.638,16.494,14.638h8.029L427,576.294h15.259
		v-20.776h6.562C460.721,555.518,466.936,549.287,466.936,540.88 M427.003,547.528h-2.897c-3.716,0-6.056-1.733-6.056-5.509V524.11
		H427L427.003,547.528z M427,514.216h-8.95v-17.393c0-4.149,1.872-5.309,8.95-5.309V514.216z M442.538,491.755
		c6.453,0,9.167,0.974,9.167,5.067v17.855h-9.167V491.755z M445.833,547.479c-1.799,0.091-3.296,0.05-3.296,0.05V524.11h9.167
		v17.898C451.705,542.009,452.38,547.104,445.833,547.479"/>
	<path  d="M515.971,523.151c0,0-17.018,27.357-29.924,42.14c-4.37,4.992-13.868,4.538-13.868,4.538l0.003,6.465
		c0,0,21.353,3.724,31.149-8.729c5.109-6.486,31.209-44.413,31.209-44.413H515.971z"/>
	<path  d="M481.664,554.478c1.354-1.682,20.204-31.329,20.204-31.329h-18.242c0,0-13.706,26.322-16.659,29.823
		c-3.965,4.689-12.379,4.791-12.379,4.791v6.363C454.588,564.126,471.412,567.217,481.664,554.478"/>
	<path  d="M558.362,527.457c-0.046-1.213-0.029-5.31-1.148-8.527c-2.531-7.357-10.031-9.454-11.615-9.966
		c-4.583-1.452-18.327-1.363-18.327-1.363h-30.069c0,0,44.191-20.967,45.69-21.764c3.627-1.879,6.987-4.01,7.753-5.777
		c1.64-3.691-1.357-7.76-4.774-9.183c-3.756-1.479-8.666-1.249-8.666-1.249h-72.965v8.557h62.471l-50.375,23.678
		c-7.635,3.956-7.83,7.882-6.637,10.27c2.69,5.229,10.783,5.271,10.783,5.271h44.73c17.422,0,15.766,9.066,15.766,9.066v31.601
		c0,6.853-9.117,7.093-15.303,7.511c-6.173,0.379-17.562-0.937-17.562-0.937v7.083c27.719,7.828,37.336,3.515,42.926-0.131
		c7.76-5.02,7.321-14.808,7.321-14.808V527.457z"/>
	<path  d="M803.114,567.12c0,0-23.718,1.208-31.515-11.73c-1.378-2.349-2.462-7.342-2.457-10.322
		c-0.005-2.028,0-18.507-0.005-23.96c0.005-7.8-6.427-10.648-14.229-10.648H737.9v9.639h9.07c2.969,0,5.209,1.38,5.209,4.249v22.242
		c0,0-0.373,15.303,9.064,21.822c4.822,3.339,15.533,8.552,44.546,8.552h86.374v-9.843H803.114z"/>
	<path  d="M762.914,494.908c6.024,2.135,15.608,2.017,15.608,2.017l3.089-3.6
		c-10.847-1.768-19.328-21.15-19.328-21.15h-17.621l10.162,16.601C754.823,488.775,757.848,493.131,762.914,494.908"/>
	<path  d="M851.634,484.087l-26.058,5.42l-5.056-2.419h-24.553l21.557,10.654h-20.379
		c-9.914,0-14.594,6.473-14.594,14.243v49.127h16.611v-18.176h27.292l-0.005,18.176l16.99-0.091v-18.085h27.727
		c0,0,0.041,5.498-0.009,6.826c-0.15,5.459-6.289,5.115-8.177,4.989c-7.812-0.479-16.322-3.284-16.322-3.284v7.493
		c7.093,3.278,20.103,4.917,23.977,5.054c17.859,0.823,17.384-13.511,17.384-13.511s0.119-37.834,0-39.331
		c-0.89-10.241-9.242-13.43-18.642-13.43h-22.065l-3.45-1.406c0,0,34.423-7.32,35.032-7.462c1.027-0.245,9.381-2.575,7.554-8.48
		c-1.724-5.452-11.877-5.452-11.877-5.452h-92.745v9.146h32.247H851.634z M826.45,534.626h-27.284v-10.764h27.284V534.626z
		 M826.45,515.742h-27.287v-4.17c-0.002-2.962,1.757-5.506,7.438-5.506h19.843L826.45,515.742z M871.158,534.626H843.44v-10.764
		h27.718V534.626z M861.917,506.066c6.23,0,9.241,2.23,9.241,6.654c0,0.811,0.009,3.021,0.009,3.021H843.44v-9.676H861.917z"/>
	<path  d="M1118.468,474.958c1.15-2.057,2.018-3.558,2.594-4.509l2.057-3.415h-21.188l-0.619,1.234
		c-7.043,13.982-15.063,27.859-23.827,41.239c-3.55,5.213-6.871,8.784-9.741,10.727v6.1c0.235,0.01,0.476,0.021,0.713,0.021h0.006
		c7.757-0.12,12.364-1.299,16.301-2.97l0.014,54.042h20.276v-72.145h-4.34C1104.894,498.26,1110.808,488.153,1118.468,474.958"/>
	<path  d="M1225.543,488.351v-9.429H1154.8c1.997-3.941,2.766-5.404,3.9-7.554l1.754-3.31h-20.479l-0.606,1.307
		c-11.751,25.281-19.143,35.017-23.603,38.494v6.474c0.325,0.011,0.845,0.016,0.845,0.016c11.822,0,21.814-4.021,25.866-11.822
		c1.185-2.008,3.144-5.652,5.789-10.807c0.703-1.334,1.294-2.464,1.772-3.368h0.036V576.4h18.516V549.97h52.013v-10.402h-52.013
		v-17.945h49.226V508.62h-49.226v-20.269H1225.543z"/>
	<path  d="M1240.85,491.144v79.552v6.729l115.217,0.003c12.611,0,20.764-1.012,24.758-3.022
		c3.496-1.445,7.592-4.976,7.287-13.511V489.57c0-9.474-2.508-13.082-7.532-15.147c-4.346-1.979-11.901-2.939-23.086-2.939
		l-94.892-0.01C1262.602,471.473,1240.85,470.444,1240.85,491.144 M1257.786,487.803c0-7.013,4.766-8.533,9.61-8.533l40.316,0.01
		l-0.246,1.93c-0.783,6.227-2.705,11.356-5.694,15.257h-0.148l0.204-0.502l-0.423-0.941c-0.531-1.196-1.82-1.583-2.594-1.809
		c-5.428-1.03-10.359-4.714-14.659-10.946l-0.67-0.97h-13.604l-4.726,0.055l5.724,6.982c1.091,1.404,2.05,2.589,2.787,3.446
		c1.635,2.128,3.383,3.702,5.155,4.685h-16.062v7.851h32.599l-0.11,0.131c-2.507,2.936-4.504,5.239-5.986,6.904h-31.472V487.803z
		 M1294.9,542.752c0.052,1.239,0.898,2.08,2.569,3.296c7.32,5.278,17.799,7.959,31.38,7.959c0.006,0,1.094,0.004,1.094,0.004
		c8.628,0,14.465-1.714,17.835-5.241c2.243-2.348,3.297-5.414,3.133-9.009v-1.492c2.043,1.048,4.136,1.776,6.243,2.183
		c0.954,0.22,2.094,0.402,3.411,0.555c-0.104,0.303-0.188,0.585-0.264,0.839c-1.963,10.269-8.546,15.262-20.113,15.262
		c-0.854,0-1.732-0.025-2.763-0.085l-30.151,0.002c-7.482,0-10.726-1.171-12.207-2.206c-1.969-1.273-2.913-3.727-2.868-7.53v-11.082
		c2.701-2.212,6.259-3.31,10.808-3.336l23.414-0.016c4.871,0,6.565,1.057,7.138,1.684c0.267,0.288,0.602,0.803,0.495,2.102v2.943
		c0.041,2.056-0.813,2.725-1.823,3.165c-1.168,0.563-3.91,1.229-10.779,1.229c-7.715,0-14.677-1.028-20.688-3.067
		c-1.516-0.5-2.48-0.709-3.205-0.709l-1.205,0.096l-0.638,0.553l-0.86,0.821L1294.9,542.752z M1327.786,525.016h-22.727
		c-4.076,0.042-7.532,0.636-10.348,1.788c2.906-3.067,5.268-5.629,7.021-7.65h23.666c2.567,2.053,5.14,4.061,7.676,6.009
		C1331.412,525.064,1329.653,525.016,1327.786,525.016 M1257.786,519.153h24.538c-2.672,2.95-5.344,5.747-7.981,8.356
		c-4.811,4.773-10.369,7.896-16.557,9.312V519.153z M1257.786,569.572v-25.895c5.266-0.037,9.194-0.226,11.942-0.565
		c2.031-0.23,3.88-0.585,5.539-1.067v4.372c-0.119,7.679,2.263,13.004,7.002,15.752c4.065,2.65,11.492,3.939,22.701,3.939h36.016
		c9.375,0,15.778-1.736,19.49-5.229c4.121-3.521,6.178-9.713,6.128-18.387c0-0.252,0-0.631-0.05-1.074
		c1.443,0.052,3.007,0.083,4.704,0.094v18.705c0.085,3.846-0.764,6.302-2.706,7.415c-1.035,0.727-4.097,1.939-13.512,1.939h-81.9
		H1257.786z M1371.259,534.453c-4.188-1.484-11.392-5.532-23.724-15.3h23.724V534.453z M1371.259,511.353h-62.696
		c2.306-2.719,5.783-6.865,5.933-7.035h50.591v-7.851H1349c1.811-0.993,3.528-2.535,5.108-4.591c0.817-0.948,1.772-2.133,2.82-3.498
		l5.814-7.079h-18.379l-0.675,0.97c-4.295,6.232-9.227,9.916-14.884,11.007c-0.548,0.165-1.837,0.552-2.363,1.748l-0.52,1.328
		l0.08,0.115h-5.908c2.037-3.858,3.346-8.805,3.88-14.773l0.22-2.413h32.427c7.33,0,10.527,0.98,12.036,1.869
		c1.141,0.589,2.647,3.007,2.602,6.685V511.353z"/>
	<polygon  points="903.188,576.963 903.188,566.076 969.254,566.076 969.254,489.465 914.895,489.465 
		914.895,476.368 1047.604,476.368 1047.604,489.465 993.254,489.465 993.254,566.076 1061.306,566.076 1061.306,576.963 	"/>
</g>
</svg>
