<?xml version="1.0" encoding="utf-8"?>
<!-- Generator: Adobe Illustrator 16.0.0, SVG Export Plug-In . SVG Version: 6.00 Build 0)  -->
<!DOCTYPE svg PUBLIC "-//W3C//DTD SVG 1.1//EN" "http://www.w3.org/Graphics/SVG/1.1/DTD/svg11.dtd">
<svg version="1.1" id="Layer_1" xmlns="http://www.w3.org/2000/svg" xmlns:xlink="http://www.w3.org/1999/xlink" x="0px" y="0px"
	 width="1600px" height="1000px" viewBox="0 0 1600 1000" enable-background="new 0 0 1600 1000" xml:space="preserve">
<g>
	<polygon  points="240.797,371.357 240.797,500.716 370.155,371.357 	"/>
	<polygon  points="240.797,630.074 370.155,630.074 240.797,500.716 	"/>
	<path  d="M437.152,500.716c35.724,0,64.679-28.956,64.679-64.679s-28.956-64.679-64.679-64.679h-42.677
		L265.117,500.716l129.358,129.358h42.677c35.724,0,64.679-28.957,64.679-64.68C501.832,529.671,472.876,500.716,437.152,500.716z
		 M400.285,410.165h25.872c14.287,0,25.872,11.586,25.872,25.872c0,7.14-2.897,13.608-7.58,18.291
		c-4.683,4.684-11.151,7.581-18.292,7.581h-25.872V410.165z M444.449,583.686c-4.683,4.684-11.151,7.581-18.292,7.581h-25.872
		v-51.744h25.872c14.287,0,25.872,11.585,25.872,25.872C452.029,572.535,449.132,579.003,444.449,583.686z"/>
	<g>
		<path  d="M647.597,425.971h-11.07v-28.778h30.162c0.726,0,1.395-0.039,2.036-0.099v-19.459
			c-0.641-0.053-1.31-0.089-2.036-0.089H560.985c-0.48,0-0.939,0.014-1.382,0.037v19.552c0.445,0.035,0.904,0.058,1.382,0.058
			h29.885v28.778h-12.175c-7.379,0-12.41,1.708-15.081,5.12c-2.676,3.415-4.011,8.992-4.011,16.74v57.475v97.206
			c0,7.747,1.335,13.281,4.011,16.601c2.671,3.322,7.702,4.981,15.081,4.981h68.902c7.561,0,12.68-1.659,15.355-4.981
			c2.673-3.319,4.013-8.854,4.013-16.601V447.831c0-7.748-1.339-13.325-4.013-16.74
			C660.277,427.679,655.158,425.971,647.597,425.971z M609.134,397.193h9.684v28.778h-9.684V397.193z M578.972,449.492
			c0-2.583,0.645-3.875,1.937-3.875h9.961v10.792c0,13.834-0.925,25.595-2.767,35.28c-1.846,9.686-4.89,18.865-9.131,27.532V449.492
			z M647.319,600.021c0,2.581-0.831,3.874-2.49,3.874h-63.92c-1.292,0-1.937-1.107-1.937-3.32v-26.842h68.347V600.021z
			 M647.319,552.979h-68.347v-14.942c4.241,2.032,7.515,2.354,9.823,0.969c2.304-1.384,4.47-4.379,6.503-8.992
			c2.58-6.089,4.747-12.08,6.501-17.986c1.75-5.901,3.182-11.804,4.291-17.71c1.106-5.901,1.889-12.037,2.351-18.401
			c0.458-6.365,0.692-13.049,0.692-20.061v-10.24h9.684v67.241c0,4.613,0.278,8.439,0.831,11.483
			c0.553,3.044,1.841,5.491,3.874,7.332c2.027,1.847,4.887,3.183,8.578,4.013c3.688,0.831,8.76,1.341,15.219,1.522V552.979z
			 M647.319,515.901c-4.799-0.367-7.796-1.06-8.992-2.075c-1.203-1.012-1.8-2.997-1.8-5.949v-62.261h8.302
			c1.659,0,2.49,1.293,2.49,3.875V515.901z"/>
		<path  d="M777.926,512.58h-68.623c-8.855,0-15.22,1.708-19.093,5.12c-3.874,3.415-5.812,9.731-5.812,18.954v58.662
			c0,9.222,1.938,15.495,5.812,18.816c3.873,3.321,10.238,4.979,19.093,4.979h68.623c9.036,0,15.539-1.658,19.508-4.979
			c3.964-3.321,5.949-9.595,5.949-18.816v-58.662c0-9.223-1.985-15.539-5.949-18.954C793.464,514.288,786.961,512.58,777.926,512.58
			z M781.247,594.764c0,2.58-1.756,3.874-5.258,3.874h-64.75c-3.321,0-4.981-1.294-4.981-3.874v-56.449
			c0-1.288,0.458-2.306,1.383-3.044c0.922-0.733,2.12-1.106,3.598-1.106h64.75c3.502,0,5.258,1.382,5.258,4.15V594.764z"/>
		<g>
			<path  d="M706.021,374.45c-1.478-0.168-2.797-0.168-3.954,0H706.021z"/>
			<path  d="M805.319,470.243h-49.807v-46.486h40.676c0.384,0,0.748-0.017,1.111-0.036v-21.238
				c-0.363-0.017-0.727-0.033-1.111-0.033h-40.676v-27.947c0-1.732-0.216-3.249-0.621-4.577h-20.654
				c-0.385,1.333-0.586,2.851-0.586,4.577v27.947h-21.306c0.367-1.475,0.691-3.043,0.967-4.704c0.277-1.66,0.597-3.411,0.969-5.257
				c0.567-3.215,0.827-5.936,0.787-8.183h-20.591c-0.243,1.072-0.468,2.22-0.672,3.479c-1.66,9.961-4.06,19.555-7.194,28.778
				c-3.138,9.226-7.103,18.449-11.898,27.671c-1.097,2.193-1.938,4.174-2.554,5.969h23.605c1.955-4.064,3.7-7.946,5.236-11.643
				c2.027-4.886,3.873-9.823,5.535-14.804h27.116v46.486h-59.701v21.861h140.18c0.5,0,0.98-0.018,1.442-0.052v-21.758
				C815.111,470.262,805.82,470.243,805.319,470.243z"/>
		</g>
		<path  d="M1079.784,490.167h-78.309v-24.074h41.783c8.482,0,14.295-1.981,17.433-5.949
			c3.135-3.965,4.705-10.005,4.705-18.125v-43.442c0-8.484-1.661-14.571-4.982-18.264c-3.32-3.688-9.04-5.535-17.155-5.535H938.939
			c-8.301,0-14.159,1.938-17.571,5.812c-3.415,3.875-5.119,9.78-5.119,17.709v43.72c0,8.302,1.704,14.389,5.119,18.263
			c3.412,3.874,9.271,5.811,17.571,5.811h41.23v24.074h-78.18v21.307h69.047l9.133,0.02v107.618h21.306v-82.458l-0.002-25.089
			l6.366-0.091h71.944c0.1,0,0.193-0.009,0.291-0.011v-21.289C1079.976,490.175,1079.885,490.167,1079.784,490.167z
			 M942.261,444.788c-2.953,0-4.428-1.842-4.428-5.535v-37.91c0-3.688,1.475-5.535,4.428-5.535h97.124
			c2.949,0,4.428,1.847,4.428,5.535v37.91c0,3.692-1.479,5.535-4.428,5.535H942.261z"/>
		<path  d="M855.928,491.965c1.474-2.489,2.948-5.118,4.426-7.885v135.032h21.861V439.253
			c4.055-9.59,7.608-19.093,10.652-28.501c3.044-9.409,5.487-18.539,7.334-27.394c0.634-3.435,0.845-6.396,0.646-8.908h-21.011
			c-0.646,1.651-1.237,3.51-1.772,5.586c-4.247,19.741-10.009,38.186-17.295,55.342c-7.29,17.156-16.465,34.312-27.533,51.468
			c-1.833,2.88-3.186,5.505-4.09,7.89h25.167C854.852,493.817,855.389,492.873,855.928,491.965z"/>
		<path  d="M923.1,619.112h-27.421c9.112-11.996,23.258-42.27,32.653-74.39c7.262-24.829,11.645-46.008,11.687-46.218
			l22.522,4.634C961.795,506.764,945.703,587.616,923.1,619.112z"/>
		<path  d="M1059.503,619.112h27.421c-9.111-11.996-23.257-42.27-32.653-74.39
			c-7.262-24.829-11.645-46.008-11.687-46.218l-22.522,4.634C1020.808,506.764,1036.899,587.616,1059.503,619.112z"/>
		<path  d="M1338.369,618.942h-201.447c-3.816,0-7.383-1.894-9.521-5.053c-2.139-3.158-2.57-7.174-1.154-10.715
			l54.081-135.201l21.349,8.54l-47.772,119.433h167.484l-28.846-72.112l24.51-0.642l31.992,79.982
			c1.416,3.541,0.984,7.557-1.153,10.715C1345.751,617.049,1342.185,618.942,1338.369,618.942z"/>
		<g>
			<path  d="M1138.588,408.505c0.402,0.019,0.812,0.033,1.242,0.033h196.74c0.107,0,0.205-0.007,0.312-0.008V387.24
				c-0.107-0.002-0.205-0.009-0.312-0.009h-196.74c-0.431,0-0.84,0.016-1.242,0.036V408.505z"/>
			<path  d="M1359.203,468.375c-0.6-0.041-1.219-0.069-1.879-0.069H1117.97c-0.662,0-1.282,0.028-1.881,0.069v20.621
				c0.599,0.038,1.219,0.064,1.881,0.064h86.887h26.011h126.457c0.66,0,1.279-0.026,1.879-0.064V468.375z"/>
		</g>
	</g>
</g>
</svg>
