<?xml version="1.0" encoding="utf-8"?>
<!-- Generator: Adobe Illustrator 16.0.0, SVG Export Plug-In . SVG Version: 6.00 Build 0)  -->
<!DOCTYPE svg PUBLIC "-//W3C//DTD SVG 1.1//EN" "http://www.w3.org/Graphics/SVG/1.1/DTD/svg11.dtd">
<svg version="1.1" id="Layer_1" xmlns="http://www.w3.org/2000/svg" xmlns:xlink="http://www.w3.org/1999/xlink" x="0px" y="0px"
	 width="1600px" height="1000px" viewBox="0 0 1600 1000" enable-background="new 0 0 1600 1000" xml:space="preserve">
<g>
	<g>
		<g>
			<defs>
				<path id="SVGID_1_" d="M223.117,487.186c0-23.05,18.67-41.73,41.736-41.73c23.021,0,41.709,18.68,41.709,41.73
					c0,8.672-2.653,16.726-7.167,23.41l6.051,16.357l-15.893-6.178c-6.927,5.092-15.442,8.145-24.7,8.145
					C241.787,528.92,223.117,510.226,223.117,487.186 M304.898,458.613c-7.777-10.768-19.229-17.876-32.252-20.019
					c-2.038-0.347-3.422-2.269-3.093-4.313c0.352-2.062,2.275-3.441,4.311-3.093c14.996,2.466,28.174,10.648,37.121,23.018
					c1.225,1.686,0.841,4.033-0.862,5.25c-0.652,0.467-1.429,0.702-2.178,0.702C306.768,460.158,305.637,459.623,304.898,458.613
					 M219.049,442.059c-12.588,12.679-18.883,27.91-18.883,45.643c0,17.954,6.295,33.229,18.883,45.811
					c12.591,12.579,27.844,18.883,45.804,18.883c12.754,0,24.198-3.276,34.348-9.788c0.49,0.58,0.981,1.171,1.536,1.722
					c5.319,5.385,11.765,8.066,19.363,8.066h9.437v-63.702h-0.021c0.004-0.29,0.021-0.6,0.021-0.913v-0.079
					c0-17.733-6.343-32.964-19.058-45.643c-12.674-12.703-27.91-19.05-45.625-19.05C246.893,423.008,231.64,429.355,219.049,442.059
					"/>
			</defs>
			<use xlink:href="#SVGID_1_"  overflow="visible" />
			<clipPath id="SVGID_2_">
				<use xlink:href="#SVGID_1_"  overflow="visible"/>
			</clipPath>
			<rect x="200.166" y="423.008" clip-path="url(#SVGID_2_)"  width="129.371" height="129.387"/>
		</g>
		<g>
			<defs>
				<path id="SVGID_3_" d="M649.052,423.021h-6.167v109.854l-0.09,1.787c0,0.673,0.025,1.308,0.09,1.946v0.044
					c0.416,4.01,2.102,7.507,5.074,10.515c3.441,3.482,7.629,5.229,12.536,5.229h6.121v-15.743h0.037v-50.014
					c0-18.032,8.712-28.848,13.328-32.797c12.68-10.884,17.976-6.861,24.303-11.997c1.395-1.148,5.586-4.233,5.586-14.2v-4.504
					c0,0-9.922-0.12-17.32,0.136c-10.335,0.647-17.452,4.599-25.329,14.856h-0.436v-1.816v-0.037
					c-0.414-4.035-1.631-7.188-4.974-10.209c-3.128-2.859-6.635-3.061-10.671-3.061C650.461,423.008,649.77,423.021,649.052,423.021
					"/>
			</defs>
			<use xlink:href="#SVGID_3_"  overflow="visible" />
			<clipPath id="SVGID_4_">
				<use xlink:href="#SVGID_3_"  overflow="visible"/>
			</clipPath>
			<rect x="642.795" y="423.008" clip-path="url(#SVGID_4_)"  width="67.076" height="129.387"/>
		</g>
		<g>
			<defs>
				<path id="SVGID_5_" d="M730.287,487.186c0-23.05,18.669-41.73,41.72-41.73c23.061,0,41.732,18.68,41.732,41.73
					c0,8.672-2.662,16.726-7.185,23.41l6.045,16.357l-15.889-6.178c-6.927,5.092-15.444,8.145-24.704,8.145
					C748.956,528.92,730.287,510.226,730.287,487.186 M726.216,442.059c-12.604,12.679-18.896,27.91-18.896,45.643
					c0,17.954,6.292,33.229,18.896,45.811c12.594,12.579,27.857,18.883,45.791,18.883c12.748,0,24.212-3.276,34.346-9.788
					c0.505,0.58,0.982,1.171,1.554,1.722c5.315,5.385,11.764,8.066,19.363,8.066h9.429v-63.702h-0.023c0-0.29,0.013-0.6,0.023-0.913
					v-0.079c0-17.733-6.335-32.964-19.05-45.643c-12.692-12.703-27.911-19.05-45.642-19.05
					C754.073,423.008,738.81,429.355,726.216,442.059"/>
			</defs>
			<use xlink:href="#SVGID_5_"  overflow="visible" />
			<clipPath id="SVGID_6_">
				<use xlink:href="#SVGID_5_"  overflow="visible"/>
			</clipPath>
			<rect x="707.32" y="423.008" clip-path="url(#SVGID_6_)"  width="129.378" height="129.387"/>
		</g>
		<g>
			<defs>
				<path id="SVGID_7_" d="M271.558,404.419c-1.945,0-3.739,1.51-3.854,3.546c-0.119,2.078,1.485,3.851,3.546,3.957
					c23.898,1.28,45.625,14.283,58.123,34.784c0.716,1.165,1.946,1.8,3.227,1.8c0.659,0,1.343-0.179,1.944-0.55
					c1.781-1.073,2.328-3.389,1.255-5.162c-13.785-22.623-37.771-36.956-64.135-38.375H271.558z"/>
			</defs>
			<use xlink:href="#SVGID_7_"  overflow="visible" />
			<clipPath id="SVGID_8_">
				<use xlink:href="#SVGID_7_"  overflow="visible"/>
			</clipPath>
			<rect x="267.584" y="404.419" clip-path="url(#SVGID_8_)"  width="69.286" height="44.087"/>
		</g>
		<g>
			<defs>
				<path id="SVGID_9_" d="M269.754,385.011c-2.051,0.019-3.705,1.662-3.743,3.703c-0.023,2.077,1.631,3.776,3.729,3.811
					c31.688,0.442,61.254,17.81,77.098,45.342c0.703,1.219,1.988,1.888,3.294,1.879c0.638-0.012,1.266-0.164,1.845-0.502
					c1.797-1.03,2.413-3.33,1.386-5.129c-17.19-29.811-49.191-48.623-83.521-49.104H269.754z"/>
			</defs>
			<use xlink:href="#SVGID_9_"  overflow="visible" />
			<clipPath id="SVGID_10_">
				<use xlink:href="#SVGID_9_"  overflow="visible"/>
			</clipPath>
			<rect x="265.988" y="385.011" clip-path="url(#SVGID_10_)"  width="88.402" height="54.743"/>
		</g>
		<g>
			<defs>
				<path id="SVGID_11_" d="M525.888,510.596c-4.5-6.685-7.174-14.738-7.174-23.41c0-23.05,18.684-41.73,41.736-41.73
					c23.049,0,41.744,18.68,41.744,41.73c0,23.04-18.695,41.734-41.744,41.734c-9.241,0-17.776-3.053-24.693-8.145l-15.9,6.178
					L525.888,510.596z M514.806,442.059c-12.705,12.679-19.037,27.91-19.037,45.643v0.079v0.021v0.012v0.008v0.014v0.023v0.012v0.01
					v0.01v0.023v0.01c0.01,0.268,0.01,0.527,0.01,0.77l0,0c0.209,17.532,6.501,32.463,18.859,44.819
					c3.575,3.574,7.363,6.638,11.364,9.196l0.1-0.102c9.521,6.101,20.182,9.362,31.967,9.753l0.582,0.013h0.121l0.079,0.013
					l0.65,0.01h0.111h0.222h0.605h0.012c17.956,0,33.205-6.304,45.799-18.883c12.581-12.582,18.883-27.857,18.883-45.811
					c0-17.733-6.302-32.964-18.883-45.643c-12.594-12.703-27.843-19.05-45.811-19.05
					C542.717,423.008,527.489,429.355,514.806,442.059"/>
			</defs>
			<use xlink:href="#SVGID_11_"  overflow="visible" />
			<clipPath id="SVGID_12_">
				<use xlink:href="#SVGID_11_"  overflow="visible"/>
			</clipPath>
			<rect x="495.769" y="423.008" clip-path="url(#SVGID_12_)"  width="129.363" height="129.387"/>
		</g>
		<g>
			<defs>
				<path id="SVGID_13_" d="M375.754,510.596c-4.502-6.685-7.16-14.738-7.16-23.41c0-23.05,18.667-41.73,41.73-41.73
					c23.04,0,41.721,18.68,41.721,41.73c0,23.04-18.682,41.734-41.721,41.734c-9.262,0-17.789-3.053-24.716-8.145l-15.899,6.178
					L375.754,510.596z M411.388,423.021h-0.013h-0.022h-0.01c-0.358,0-0.683-0.012-1.028-0.012c-17.722,0-32.962,6.347-45.656,19.05
					c-12.69,12.679-19.027,27.91-19.027,45.643v0.079v0.021v0.012v0.008v0.014v0.023v0.012v0.01v0.01v0.023v0.01
					c0,0.268,0,0.527,0,0.77l0,0c0.224,17.532,6.526,32.463,18.883,44.819c3.562,3.574,7.353,6.638,11.351,9.196l0.09-0.102
					c9.521,6.101,20.191,9.362,31.979,9.753l0.578,0.013h0.136l0.065,0.013l0.663,0.01h0.111h0.209h0.617h0.01
					c17.016,0,31.598-5.666,43.799-16.973c0,5.541-0.01,17.22-0.033,17.866c-0.983,29.845-19.387,40.502-43.02,40.712
					c-18.511,0-28.153-9.16-32.789-14.911c-1.32-2.159-2.439-3.948-3.089-4.907c-2.633-4-6.623-7.161-11.672-8.379
					c-5.074-1.207-10.035-0.973-14.471,1.798l-3.418,2.505c0,0,5.989,10.646,10.738,16.902c0.111,0.135,0.234,0.259,0.368,0.391
					c11.532,16.906,30.447,27.589,54.124,27.589c40.983,0,65.364-23.656,66.224-62.582c0-0.603,0-14.636,0.025-19.029v-0.223v-0.214
					v-0.188v-0.166v-0.146v-0.113v-0.112v-0.066v-0.045V423.444l-6.339,0.078c-5.183,0-9.586,1.833-13.204,5.508
					c-2.76,2.772-4.459,5.973-5.12,9.576l-0.624-0.547h-0.024c-8.646-8.242-23.32-15.051-39.844-15.051
					C411.779,423.008,411.577,423.021,411.388,423.021"/>
			</defs>
			<use xlink:href="#SVGID_13_"  overflow="visible" />
			<clipPath id="SVGID_14_">
				<use xlink:href="#SVGID_13_"  overflow="visible"/>
			</clipPath>
			<rect x="345.631" y="423.008" clip-path="url(#SVGID_14_)"  width="131.479" height="191.98"/>
		</g>
	</g>
	<g>
		<defs>
			<path id="SVGID_15_" d="M980.741,511.61c-4.524-6.705-7.204-14.789-7.204-23.489c0-23.134,18.753-41.888,41.888-41.888
				c23.14,0,41.901,18.754,41.901,41.888c0,23.133-18.762,41.883-41.901,41.883c-9.271,0-17.843-3.063-24.78-8.175l-15.964,6.203
				L980.741,511.61z M969.615,442.828c-12.752,12.727-19.111,28.013-19.111,45.812v0.07v0.029v0.013v0.012v0.009v0.024v0.01v0.012
				v0.015v0.016v0.013c0.009,0.265,0.009,0.522,0.009,0.773l0,0c0.212,17.589,6.527,32.587,18.933,44.979
				c3.59,3.588,7.392,6.661,11.404,9.229l0.101-0.099c9.557,6.123,20.255,9.399,32.088,9.793l0.582,0.007h0.122l0.081,0.012
				l0.65,0.012h0.109h0.227h0.606h0.009c18.026,0,33.334-6.324,45.974-18.954c12.63-12.628,18.952-27.952,18.952-45.975
				c0-17.799-6.322-33.085-18.952-45.812c-12.64-12.752-27.947-19.124-45.982-19.124
				C997.63,423.704,982.345,430.076,969.615,442.828"/>
		</defs>
		<use xlink:href="#SVGID_15_"  overflow="visible" />
		<clipPath id="SVGID_16_">
			<use xlink:href="#SVGID_15_"  overflow="visible"/>
		</clipPath>
		<rect x="950.504" y="423.704" clip-path="url(#SVGID_16_)"  width="129.847" height="129.865"/>
	</g>
	<g>
		<path  d="M927.682,426.776c-3.143-2.872-6.661-3.073-10.712-3.073c-0.683,0-1.383,0.01-2.097,0.01h-6.191v110.261
			l-0.09,1.797c0,0.672,0.022,1.309,0.09,1.948v0.046c0.412,4.027,2.11,7.538,5.089,10.554c3.455,3.499,7.663,5.249,12.584,5.249
			h6.146v-15.803h0.037v-50.191c0-0.068,0.009-0.125,0.009-0.186v-51.102C932.059,432.599,930.819,429.621,927.682,426.776z"/>
	</g>
	<g>
		<path  d="M864.491,546.956c-2.124-2.573-3.418-5.465-3.839-8.707h-0.035"/>
		<path  d="M860.63,538.146c0,0.035-0.013,0.067-0.013,0.103h0.035C860.647,538.214,860.635,538.182,860.63,538.146z"
			/>
		<path  d="M884.305,538.249c0-6.538-5.308-11.845-11.844-11.845c-6.506,0-11.773,5.258-11.831,11.742
			c0.005,0.035,0.018,0.067,0.022,0.103c0.421,3.242,1.715,6.134,3.839,8.707c0.377,0.455,0.725,0.927,1.158,1.363
			c3.453,3.499,7.656,5.249,12.584,5.249h6.144v-15.319H884.305z"/>
	</g>
	<g>
		<path  d="M1133.235,519.188c-2.029,15.238-7.519,28.275-15.359,37.7c-1.407,1.571-3.291,2.51-5.327,2.51
			c-1.41,0-2.671-0.467-3.92-1.248c-1.404-1.262-2.188-2.835-2.188-4.561c0-1.571,0.624-3.137,1.567-4.399
			c8.777-10.683,12.852-21.834,14.418-41.313c0.468-5.964,0.786-12.399,0.786-19.785c0-9.111,4.38-12.565,13.314-12.565h84.327
			c9.092,0,13.476,3.454,13.476,12.565v18.376c0,9.113-4.384,12.721-13.476,12.721H1133.235z M1234.644,453.375
			c2.662,0,4.238,2.353,4.238,5.191c0,2.976-1.576,5.339-4.238,5.339H1123.52c-2.66,0-4.225-2.363-4.225-5.339
			c0-2.838,1.564-5.191,4.225-5.191h47.65v-13.822h-57.211c-2.658,0-4.236-2.201-4.236-5.181c0-2.989,1.578-5.341,4.236-5.341
			h57.211v-11.942c0-2.818,2.19-4.389,5.801-4.389c3.758,0,6.107,1.571,6.107,4.389v11.942h57.15c2.655,0,4.227,2.205,4.227,5.341
			c0,2.98-1.571,5.181-4.227,5.181h-57.15v13.822H1234.644z M1171.637,485.575h-31.031c-3.453,0-5.486,0.947-5.486,4.56
			c0,8.324-0.316,14.295-0.622,18.686h37.14V485.575z M1216.938,508.821c3.451,0,5.48-0.945,5.48-4.548v-14.138
			c0-3.613-2.029-4.56-5.48-4.56h-33.699v23.246H1216.938z"/>
		<path  d="M1369.855,432.313c-0.308,18.573-1.379,29.422-5.198,47.67c6.417,8.141,12.436,16.524,17.121,23.462
			c1.027,1.531,1.661,3.349,1.661,4.809c0,1.632-0.673,2.821-1.971,3.956c-1.184,1.025-2.523,1.428-3.736,1.428
			c-1.539,0-2.84-0.588-3.752-1.888c-3.215-5.373-7.645-11.893-12.535-18.573c-1.072,3.747-2.139,7.491-3.363,10.913
			c-4.738,13.526-8.809,21.804-13.311,27.864c-1.363,1.849-2.612,3.915-4.857,4.545c-1.389,0.391-3.39-0.033-4.887-1.374
			c-1.471-1.296-2.224-2.92-1.992-4.943c0.152-1.287,1.191-3.122,2.259-4.591c6.239-8.588,8.419-13.029,13.161-25.733
			c1.984-5.208,3.512-10.916,5.049-17.265c-6.735-8.634-13.607-16.622-19.424-21.995c-1.064-0.983-1.68-2.279-1.68-3.587
			c0-1.466,0.615-2.769,1.536-4.077c1.069-1.299,2.438-1.941,3.671-1.956c1.872-0.006,2.844,1.204,3.609,2.016
			c4.588,4.399,9.223,9.56,14.725,16.24c2.141-14.826,2.747-21.936,2.906-36.921h-32.371c-0.297,18.573-1.525,28.933-5.036,47.181
			c5.801,7.493,11.612,15.309,16.192,22.162c1.083,1.3,1.729,3.092,1.689,4.14c-0.061,1.634-0.702,3.001-2.086,4.145
			c-1.227,1.143-2.732,1.671-3.957,1.671c-1.525,0-2.669-0.673-3.896-2.301c-3.058-4.886-6.874-10.596-11.153-16.462
			c-1.072,3.76-2.146,7.504-3.368,10.919c-5.046,13.85-9.081,21.474-13.343,26.673c-1.672,2.022-3.332,2.907-4.869,2.907
			c-1.375,0-2.929-0.629-4.146-1.771c-1.222-1.307-1.778-2.794-1.778-4.426c0-1.469,0.942-3.305,2.368-5.181
			c4.629-6.06,6.996-10.736,11.688-21.618c2.337-5.442,3.963-11.568,5.343-18.087c-6.576-8.306-13.302-16.129-18.952-21.506
			c-1.218-0.979-1.833-2.439-1.833-3.748c0-1.308,0.456-2.602,1.527-3.91c1.072-1.302,2.449-1.956,3.669-1.956
			c1.222,0,2.146,0.49,3.053,1.3c4.435,4.402,9.629,10.109,14.984,16.458c1.983-14.825,2.745-21.604,2.905-36.59h-30.861
			c-3.518,0-5.046,1.144-5.046,4.883v115.772c0,3.424-2.446,5.055-5.813,5.055c-3.358,0-5.799-1.796-5.799-5.055V435.242
			c0-9.766,5.039-14.337,14.825-14.337h102.381c9.474,0,14.67,4.572,14.67,14.337v106.484c0,11.727-5.196,15.96-18.646,15.96
			c-6.414,0-13.904-0.481-19.565-1.625c-2.745-0.489-4.431-2.443-4.431-5.534c0-0.489,0-1.146,0.155-1.798
			c0.606-2.935,2.44-4.725,4.729-4.725c0.469,0,0.921,0,1.379,0.165c4.74,1.137,11.008,1.792,16.357,1.792
			c7.027,0,8.41-1.302,8.41-7.658V437.038c0-3.581-1.531-4.725-5.052-4.725H1369.855z"/>
	</g>
</g>
</svg>
