<?xml version="1.0" encoding="utf-8"?>
<!-- Generator: Adobe Illustrator 16.0.0, SVG Export Plug-In . SVG Version: 6.00 Build 0)  -->
<!DOCTYPE svg PUBLIC "-//W3C//DTD SVG 1.1//EN" "http://www.w3.org/Graphics/SVG/1.1/DTD/svg11.dtd">
<svg version="1.1" id="Layer_1" xmlns="http://www.w3.org/2000/svg" xmlns:xlink="http://www.w3.org/1999/xlink" x="0px" y="0px"
	 width="1600px" height="1000px" viewBox="0 0 1600 1000" enable-background="new 0 0 1600 1000" xml:space="preserve">
<g>
	<path fill-rule="evenodd" clip-rule="evenodd"  d="M338.342,499.117c-2.627,0-4.523-1.916-4.523-4.543V479.04
		c0-2.377,1.896-4.565,4.523-4.565h84.38v-85.787h-77.93c-2.377,0-4.293-2.15-4.293-4.528v-14.839c0-2.373,1.916-4.291,4.293-4.291
		h189.072c2.373,0,4.307,1.917,4.307,4.291v14.839c0,2.378-1.934,4.528-4.307,4.528h-77.68v85.787h85.074
		c2.628,0,4.562,2.188,4.562,4.565v15.534c0,2.628-1.935,4.543-4.562,4.543h-85.074v32.498c0,2.39-2.153,4.31-4.542,4.31h-24.611
		c-2.408,0-4.308-1.92-4.308-4.31v-32.498H338.342z M410.531,455.143c0.948,1.661,1.187,2.644,1.187,3.102
		c0,1.441-0.952,2.154-2.852,2.154h-24.407c-5.001,0-6.188-0.713-7.884-4.069l-24.846-48.29c-0.477-1.187-0.952-2.374-0.952-3.102
		c0-1.421,0.952-2.139,2.867-2.139h24.133c4.786,0,6.228,0.718,7.888,4.054L410.531,455.143z M525.487,402.799
		c2.154,0,3.102,0.718,2.867,2.139c0,0.729-0.224,1.441-1.191,3.102l-24.623,48.29c-1.665,3.356-2.866,3.83-7.872,4.069h-24.373
		c-1.93,0-2.882-0.713-2.882-2.154c0-0.728,0-0.952,1.187-3.102l24.866-48.29c1.441-3.121,3.102-4.054,7.904-4.054H525.487z"/>
	<path fill-rule="evenodd" clip-rule="evenodd"  d="M574.952,446.55c-2.627,0-4.531-1.919-4.531-4.293V426.94
		c0-2.393,1.903-4.308,4.531-4.308h33.243v-14.331c0-2.389,1.899-4.309,4.288-4.309h21.505c2.647,0,4.547,1.919,4.547,4.309v14.331
		h78.881v-14.077c0-2.643,1.899-4.562,4.513-4.562h21.54c2.393,0,4.308,1.919,4.308,4.562v14.077h32.021
		c2.389,0,4.308,1.915,4.308,4.308v15.317c0,2.374-1.919,4.293-4.308,4.293h-32.021v8.816c0,19.845-5.733,26.78-31.088,38.263
		l-10.516,4.763l1.935,0.718c12.89,5.744,22.931,8.137,33.936,7.867h33.686c2.389,0,4.308,2.224,4.308,4.562v15.059
		c0,2.408-1.919,4.294-4.308,4.294h-33.686c-17.452-0.221-26.288-2.374-46.386-11.449l-17.691-7.903l-17.671,7.903
		c-21.047,9.31-27.729,10.989-46.371,11.449h-33.698c-2.393,0-4.292-1.886-4.292-4.294V511.54c0-2.339,1.9-4.562,4.292-4.562h33.698
		c10.754,0,22.947-2.832,33.94-7.867l1.915-0.718l-10.531-4.763c-25.798-11.957-30.6-17.924-31.054-38.263v-8.816H574.952z
		 M661.244,360.016c0-2.628,1.918-4.545,4.308-4.545h24.63c2.389,0,4.274,1.917,4.274,4.545v8.599h68.839
		c10.994,0,20.099,9.073,20.099,20.32v12.193c0,2.389-1.916,4.292-4.308,4.292h-16.265c-2.389,0-4.292-1.903-4.292-4.292v-10.771
		H597.186v10.771c0,2.389-1.915,4.292-4.289,4.292h-16.03c-2.374,0-4.542-1.903-4.542-4.292v-12.193
		c0-11.247,9.325-20.32,20.572-20.32h68.347V360.016z M638.536,454.908c0,11.718,0.713,12.651,14.111,19.117l25.319,11.483
		l25.34-11.483c13.636-6.701,14.111-7.399,14.111-19.117v-8.357h-78.881V454.908z"/>
	<path fill-rule="evenodd" clip-rule="evenodd"  d="M839.799,450.099c2.375,0.274,2.629,1.221,1.899,4.816
		l-9.786,71.691c-0.709,3.103-2.409,4.293-5.749,4.293h-17.688c-1.664,0-2.612-0.459-2.612-1.9c0-0.254,0-0.254,0.474-2.393
		l10.99-72.419c0.474-3.106,1.427-3.814,4.293-4.088H839.799z M873.246,415.465h34.669c2.39,0,4.543,1.915,4.543,4.528v13.147
		c0,2.389-1.935,4.562-4.543,4.562h-34.669v91.042c0,2.408-1.899,4.562-4.292,4.562h-15.771c-2.647,0-4.549-1.935-4.549-4.562
		v-91.042h-34.902c-2.375,0-4.289-2.173-4.289-4.562v-13.147c0-2.613,1.914-4.528,4.289-4.528h34.902V390.13h-32.749
		c-2.373,0-4.528-1.935-4.528-4.309v-13.858c0-2.63,2.155-4.529,4.528-4.529h70.03v-3.104c0-2.408,1.931-4.545,4.543-4.545h16.505
		c2.372,0,4.526,2.137,4.526,4.545l-0.234,5.48c0,11.242-9.093,20.321-20.063,20.321h-17.945V415.465z M912.936,526.606
		c0.473,2.139,0.473,2.139,0.473,2.393c0,1.441-0.73,1.9-2.631,1.9h-16.246c-3.34,0-5.038-1.19-5.749-4.293l-9.786-71.691
		c-0.968-3.595-0.474-4.542,1.899-4.816h16.756c2.834,0.274,4.056,0.982,4.511,4.088L912.936,526.606z M1021.919,472.845
		c2.373,0,4.532,2.134,4.532,4.508v16.269c0,2.629-1.901,4.54-4.532,4.54h-13.382v30.583c0,2.408-2.151,4.562-4.545,4.562h-18.894
		c-2.391,0-4.29-1.935-4.29-4.562v-30.583h-55.696c-2.393,0-4.309-1.911-4.309-4.54v-16.269c0-2.374,1.916-4.508,4.309-4.508h55.696
		V364.517c0-2.596,1.899-4.495,4.29-4.495h18.894c2.394,0,4.545,1.899,4.545,4.495v108.328H1021.919z M965.524,394.453
		c1.19,2.135,1.19,2.628,1.427,3.561c0,1.202-0.968,1.695-2.627,1.695h-21.761c-3.34,0-4.53-0.982-6.208-4.324L922.5,366.942
		c-1.207-2.137-1.442-3.104-1.442-4.053c0-1.205,0.948-1.918,2.629-1.918h20.317c4.054,0,5.022,0.713,6.702,3.545L965.524,394.453z
		 M965.983,450.373c1.187,2.374,1.187,2.612,1.187,3.321c0.256,1.221-0.713,1.935-2.373,1.935h-21.76
		c-3.34-0.254-4.547-1.222-6.208-4.309l-13.855-28.444c-1.187-2.151-1.44-3.118-1.44-4.069c0-1.426,0.727-2.135,2.627-2.135h20.08
		c4.292,0.22,5.243,0.709,6.939,4.054L965.983,450.373z"/>
	<path fill-rule="evenodd" clip-rule="evenodd"  d="M1076.888,478.336c-5.495,2.646-9.551,3.563-16.013,3.563h-8.834
		c-2.155,0-4.071-1.903-4.071-4.292V463.99c0-2.377,1.916-4.308,4.071-4.308h5.494c7.648,0,8.602-0.239,16.959-7.175l2.394-2.139
		v-42.332h-22.22c-2.389,0-4.309-1.885-4.309-4.513v-13.872c0-2.393,1.92-4.292,4.309-4.292h22.22v-21.032
		c0-2.169,2.392-4.306,4.547-4.306h18.638c2.155,0,4.547,2.137,4.547,4.306v21.032h20.317c2.391,0,4.544,1.899,4.544,4.292v13.872
		c0,2.628-2.153,4.513-4.544,4.513h-20.317v20.827c2.389-1.221,6.462-1.918,9.564-2.154h10.988c2.375,0,4.053,2.154,4.053,4.528
		v13.382c0,2.154-1.897,4.05-4.053,4.05h-5.493c-6.223,0.239-6.952,0.717-15.06,7.892v54.27c0,10.994-9.076,20.064-20.305,20.064
		h-27.018c-2.153,0.255-4.309-2.155-4.309-4.289v-14.331c0-2.172,2.155-4.053,4.309-4.053h19.591V478.336z M1228.664,503.656
		c4.783,3.596,7.649,4.566,14.096,4.566h18.894c2.373,0,4.528,2.119,4.528,4.764v13.62c0,2.39-1.899,4.289-4.528,4.289h-27.967
		c-12.197,0.255-16.724-1.187-24.153-7.634l-9.075-8.139l-9.325,8.139c-7.413,6.447-11.955,7.889-24.137,7.634h-28.913
		c-2.396,0-4.293-1.899-4.293-4.289v-13.62c0-2.39,1.897-4.764,4.293-4.764h19.823c6.463,0,9.33-0.971,14.111-4.566l7.887-6.697
		l-26.999-23.899c-7.667-7.629-10.042-12.904-10.042-22.472v-23.879h42.063v-23.186h-42.063c-2.394,0-4.308-2.173-4.308-4.546
		v-13.618c0-2.613,1.914-4.547,4.308-4.547h42.063v-16.484c0-2.408,1.916-4.306,4.286-4.306h19.847c2.407,0,4.308,1.898,4.543,4.306
		v16.484h45.897c2.153,0,4.307,1.935,4.307,4.547v13.618c0,2.374-1.914,4.546-4.307,4.546h-45.897v23.186h44.217v23.879
		c0.238,9.568-2.153,14.843-10.038,22.472l-26.999,23.899L1228.664,503.656z M1228.904,455.374c2.393-2.139,2.866-2.867,2.627-5.279
		v-0.933h-62.38v0.933c0,2.412,0.237,3.141,2.627,5.279l28.68,24.368L1228.904,455.374z"/>
	<g>
		<path fill-rule="evenodd" clip-rule="evenodd"  d="M485.185,590.722h-8.003c-0.697,0-1.264,0.566-1.264,1.271
			v36.453c-4.166-4.726-31.798-36.04-32.495-36.783c-0.755-0.795-1.738-0.941-2.397-0.941h-7.914c-0.694,0-1.252,0.566-1.252,1.271
			v50.363c0,0.698,0.558,1.271,1.252,1.271h8.007c0.694,0,1.271-0.573,1.271-1.271v-36.761c3.002,3.422,32.037,36.337,32.765,37.084
			c0.743,0.806,1.73,0.94,2.385,0.94v0.008h7.645c0.697,0,1.264-0.573,1.264-1.271v-50.363
			C486.449,591.288,485.882,590.722,485.185,590.722L485.185,590.722z M531.444,590.005h-18.438
			c-9.991,0-18.087,7.199-18.087,16.073v22.163c0,8.886,8.096,16.084,18.087,16.084h18.438c9.98,0,18.083-7.198,18.083-16.084
			v-14.206h-27.96v7.46c0,0.701,0.567,1.263,1.264,1.263h15.302v10.278c0,0.692-0.566,1.268-1.264,1.268h-29.301
			c-0.697,0-1.264-0.575-1.264-1.268v-31.745c0-0.685,0.566-1.26,1.264-1.26h29.301c0.698,0,1.264,0.575,1.264,1.26v6.085
			c0,0.705,0.567,1.268,1.252,1.268h8.89c0.697,0,1.252-0.562,1.252-1.268v-1.298C549.528,597.204,541.425,590.005,531.444,590.005
			L531.444,590.005z M684.121,590.722h-8.003c-0.705,0-1.264,0.566-1.264,1.271v36.453c-4.165-4.726-31.786-36.04-32.503-36.783
			c-0.748-0.795-1.73-0.941-2.389-0.941h-7.904c-0.697,0-1.264,0.566-1.264,1.271v50.363c0,0.698,0.566,1.271,1.264,1.271h7.997
			c0.693,0,1.259-0.573,1.259-1.271v-36.761c3.013,3.422,32.061,36.337,32.776,37.084c0.744,0.806,1.73,0.94,2.385,0.94l0.012,0.008
			h7.633c0.709,0,1.276-0.573,1.276-1.271v-50.363C685.396,591.288,684.83,590.722,684.121,590.722L684.121,590.722z M600.5,592.117
			c-0.497-0.891-1.294-1.464-2.289-1.464h-7.884c-1.006,0-1.811,0.573-2.308,1.464l-24.858,48.976
			c-0.826,1.58-0.12,2.517,1.34,2.517h7.877c1.155,0,1.579-0.293,2.157-1.392l19.729-39.396l19.718,39.396
			c0.573,1.099,1.013,1.392,2.158,1.392h7.872c1.472,0,2.188-0.937,1.364-2.517L600.5,592.117L600.5,592.117z M390.647,616.926
			c0,0.692-0.57,1.247-1.264,1.247h-27.047v-18.13h27.047c0.693,0,1.264,0.563,1.264,1.257V616.926L390.647,616.926z
			 M384.621,590.722h-32.568c-0.693,0-1.26,0.566-1.26,1.271v50.363c0,0.698,0.566,1.271,1.26,1.271h9.021
			c0.697,0,1.264-0.573,1.264-1.271v-14.854h22.284c9.98,0,18.087-5.896,18.087-14.783v-5.898
			C402.708,597.939,394.601,590.722,384.621,590.722L384.621,590.722z M420.626,590.722h-8.909c-0.709,0-1.275,0.566-1.275,1.271
			v50.363c0,0.698,0.566,1.271,1.275,1.271h8.909c0.693,0,1.26-0.573,1.26-1.271v-50.363
			C421.887,591.288,421.32,590.722,420.626,590.722L420.626,590.722z"/>
		<path fill-rule="evenodd" clip-rule="evenodd"  d="M601.055,627.803h-13.571c-0.698,0-1.265,0.569-1.265,1.259
			v13.28c0,0.705,0.567,1.268,1.265,1.268h13.571c0.697,0,1.263-0.562,1.263-1.268v-13.28
			C602.318,628.372,601.752,627.803,601.055,627.803L601.055,627.803z"/>
	</g>
	<g>
		<path  d="M728.758,599.334h-12.847c-2.416,0-4.305-1.965-4.305-4.312c0-2.339,1.889-4.305,4.305-4.305h35.15
			c2.342,0,4.23,1.966,4.23,4.305c0,2.347-1.888,4.312-4.23,4.312h-12.928v40.063c0,2.57-2.115,4.608-4.682,4.608
			c-2.574,0-4.693-2.038-4.693-4.608V599.334z"/>
		<path  d="M764.732,638.938v-43.539c0-2.643,2.038-4.682,4.682-4.682h30.765c2.27,0,4.157,1.889,4.157,4.158
			c0,2.339-1.888,4.154-4.157,4.154H774.03v13.756h22.75c2.266,0,4.154,1.892,4.154,4.231c0,2.272-1.888,4.084-4.154,4.084h-22.75
			v14.211h26.526c2.27,0,4.157,1.893,4.157,4.157c0,2.344-1.888,4.154-4.157,4.154h-31.143
			C766.771,643.624,764.732,641.586,764.732,638.938z"/>
		<path  d="M813.019,617.321v-0.15c0-15.044,11.263-27.363,27.282-27.363c8.164,0,13.532,2.421,18.146,5.97
			c0.978,0.759,1.811,2.046,1.811,3.707c0,2.57-2.038,4.539-4.614,4.539c-1.281,0-2.188-0.458-2.793-0.913
			c-3.629-2.947-7.556-4.763-12.622-4.763c-10.055,0-17.46,8.32-17.46,18.67v0.153c0,10.358,7.334,18.742,17.46,18.742
			c5.595,0,9.369-1.814,13.228-5.059c0.679-0.605,1.661-1.061,2.797-1.061c2.343,0,4.383,1.966,4.383,4.305
			c0,1.438-0.679,2.57-1.512,3.329c-4.989,4.386-10.658,7.102-19.2,7.102C824.505,644.529,813.019,632.515,813.019,617.321z"/>
		<path  d="M871.134,594.949c0-2.57,2.039-4.608,4.687-4.608c2.57,0,4.611,2.038,4.611,4.608v17.764h25.245v-17.764
			c0-2.57,2.041-4.608,4.607-4.608c2.643,0,4.687,2.038,4.687,4.608v44.448c0,2.57-2.044,4.608-4.687,4.608
			c-2.566,0-4.607-2.038-4.607-4.608v-18.068h-25.245v18.068c0,2.57-2.041,4.608-4.611,4.608c-2.647,0-4.687-2.038-4.687-4.608
			V594.949z"/>
		<path  d="M928.568,595.104c0-2.57,2.037-4.69,4.681-4.69h0.987c2.266,0,3.549,1.133,4.831,2.722l26.461,34.24
			v-32.499c0-2.497,2.04-4.535,4.533-4.535c2.565,0,4.607,2.038,4.607,4.535v44.44c0,2.57-1.961,4.612-4.532,4.612h-0.376
			c-2.192,0-3.558-1.132-4.84-2.797l-27.208-35.22v33.558c0,2.498-2.046,4.536-4.541,4.536c-2.566,0-4.604-2.038-4.604-4.536
			V595.104z"/>
		<path  d="M985.922,617.321v-0.15c0-14.888,11.49-27.363,27.739-27.363c16.25,0,27.587,12.319,27.587,27.21v0.153
			c0,14.889-11.487,27.358-27.737,27.358C997.258,644.529,985.922,632.211,985.922,617.321z M1031.502,617.321v-0.15
			c0-10.28-7.486-18.823-17.991-18.823c-10.508,0-17.842,8.393-17.842,18.67v0.153c0,10.281,7.484,18.742,17.992,18.742
			C1024.168,635.913,1031.502,627.603,1031.502,617.321z"/>
		<path  d="M1052.502,594.949c0-2.57,2.038-4.608,4.684-4.608c2.57,0,4.615,2.038,4.615,4.608v40.209h23.953
			c2.346,0,4.235,1.892,4.235,4.239c0,2.339-1.89,4.227-4.235,4.227h-28.568c-2.646,0-4.684-2.038-4.684-4.686V594.949z"/>
		<path  d="M1093.906,617.321v-0.15c0-14.888,11.494-27.363,27.741-27.363c16.248,0,27.589,12.319,27.589,27.21v0.153
			c0,14.889-11.491,27.358-27.739,27.358C1105.248,644.529,1093.906,632.211,1093.906,617.321z M1139.488,617.321v-0.15
			c0-10.28-7.484-18.823-17.991-18.823c-10.508,0-17.837,8.393-17.837,18.67v0.153c0,10.281,7.481,18.742,17.987,18.742
			C1132.158,635.913,1139.488,627.603,1139.488,617.321z"/>
		<path  d="M1158.143,617.321v-0.15c0-14.816,11.338-27.363,27.288-27.363c7.933,0,13.229,1.889,18.061,5.368
			c0.91,0.684,1.89,1.966,1.89,3.78c0,2.497-2.04,4.609-4.609,4.609c-1.205,0-2.111-0.528-2.867-1.056
			c-3.406-2.493-7.108-4.162-12.855-4.162c-9.75,0-17.154,8.543-17.154,18.67v0.153c0,10.883,7.179,18.896,17.987,18.896
			c4.991,0,9.526-1.591,12.778-4.008v-9.902h-10.432c-2.273,0-4.161-1.733-4.161-4c0-2.273,1.888-4.083,4.161-4.083h14.736
			c2.642,0,4.684,2.037,4.684,4.685v14.134c0,2.644-1.055,4.535-3.247,5.896c-4.54,3.025-10.883,5.741-18.824,5.741
			C1169.027,644.529,1158.143,632.742,1158.143,617.321z"/>
		<path  d="M1233.111,623.066l-18.213-25.016c-0.609-0.909-1.061-1.97-1.061-3.252c0-2.492,2.042-4.458,4.689-4.458
			c2.033,0,3.398,1.133,4.532,2.794l14.735,21.239l14.964-21.312c1.134-1.662,2.499-2.794,4.468-2.794
			c2.716,0,4.53,2.039,4.53,4.531c0,1.282-0.605,2.416-1.28,3.326l-18.066,24.714v16.559c0,2.57-2.037,4.608-4.689,4.608
			c-2.569,0-4.609-2.038-4.609-4.608V623.066z"/>
	</g>
</g>
</svg>
