<?xml version="1.0" encoding="utf-8"?>
<!-- Generator: Adobe Illustrator 16.0.0, SVG Export Plug-In . SVG Version: 6.00 Build 0)  -->
<!DOCTYPE svg PUBLIC "-//W3C//DTD SVG 1.1//EN" "http://www.w3.org/Graphics/SVG/1.1/DTD/svg11.dtd">
<svg version="1.1" id="Layer_1" xmlns="http://www.w3.org/2000/svg" xmlns:xlink="http://www.w3.org/1999/xlink" x="0px" y="0px"
	 width="1600px" height="1000px" viewBox="0 0 1600 1000" enable-background="new 0 0 1600 1000" xml:space="preserve">
<g>
	<g>
		<path  d="M449.238,653.788c4.404-4.729,10.123-7.096,17.165-7.096c10.835,0,18.272,4.797,22.299,14.392
			c2.29,5.438,3.439,12.589,3.439,21.466c0,8.608-1.1,15.797-3.295,21.558c-4.187,10.977-11.884,16.461-23.084,16.461
			c-5.338,0-10.134-1.582-14.389-4.746c-4.257-3.154-6.698-7.766-7.319-13.82h13.95c0.327,2.091,1.21,3.795,2.652,5.105
			c1.444,1.312,3.356,1.969,5.748,1.969c4.62,0,7.86-2.562,9.726-7.668c1.013-2.815,1.649-6.927,1.912-12.325
			c-1.273,1.604-2.634,2.831-4.072,3.68c-2.623,1.573-5.848,2.359-9.681,2.359c-5.662,0-10.69-1.96-15.079-5.869
			c-4.389-3.911-6.579-9.55-6.579-16.923C442.631,664.701,444.832,658.523,449.238,653.788z M472.789,682.057
			c3.178-2.028,4.762-5.547,4.762-10.561c0-4.025-0.94-7.22-2.822-9.578c-1.885-2.354-4.462-3.532-7.736-3.532
			c-2.393,0-4.439,0.671-6.14,2.013c-2.687,2.098-4.03,5.646-4.03,10.66c0,4.218,0.865,7.388,2.58,9.502
			c1.72,2.112,4.362,3.169,7.934,3.169C469.268,683.729,471.084,683.175,472.789,682.057z"/>
		<path  d="M509.102,653.788c4.404-4.729,10.127-7.096,17.169-7.096c10.836,0,18.272,4.797,22.299,14.392
			c2.291,5.438,3.439,12.589,3.439,21.466c0,8.608-1.102,15.797-3.292,21.558c-4.188,10.977-11.885,16.461-23.086,16.461
			c-5.336,0-10.134-1.582-14.392-4.746c-4.259-3.154-6.695-7.766-7.32-13.82h13.954c0.323,2.091,1.209,3.795,2.652,5.105
			c1.438,1.312,3.355,1.969,5.746,1.969c4.612,0,7.86-2.562,9.726-7.668c1.011-2.815,1.65-6.927,1.913-12.325
			c-1.28,1.604-2.637,2.831-4.081,3.68c-2.614,1.573-5.839,2.359-9.672,2.359c-5.666,0-10.69-1.96-15.08-5.869
			c-4.388-3.911-6.579-9.55-6.579-16.923C502.499,664.701,504.697,658.523,509.102,653.788z M532.657,682.057
			c3.169-2.028,4.759-5.547,4.759-10.561c0-4.025-0.94-7.22-2.824-9.578c-1.882-2.354-4.457-3.532-7.735-3.532
			c-2.392,0-4.435,0.671-6.141,2.013c-2.682,2.098-4.025,5.646-4.025,10.66c0,4.218,0.86,7.388,2.577,9.502
			c1.72,2.112,4.365,3.169,7.937,3.169C529.132,683.729,530.952,683.175,532.657,682.057z"/>
		<path  d="M591.145,664.964h14.195l8.153,38.558l8.35-38.558h14.588l-15.521,53.537h-14.389l-8.4-38.998
			l-8.499,38.998h-14.536l-15.032-53.537h15.032l8.349,38.411L591.145,664.964z"/>
		<path  d="M662.117,664.964v32.272c0,3.045,0.359,5.337,1.074,6.871c1.271,2.725,3.76,4.08,7.479,4.08
			c4.754,0,8.014-1.927,9.772-5.792c0.915-2.097,1.37-4.866,1.37-8.307v-29.125h14.196v53.537h-13.607v-7.559
			c-0.131,0.162-0.458,0.654-0.98,1.472c-0.523,0.818-1.14,1.535-1.862,2.161c-2.186,1.966-4.298,3.308-6.34,4.026
			c-2.043,0.717-4.434,1.08-7.178,1.08c-7.902,0-13.224-2.848-15.965-8.548c-1.536-3.147-2.302-7.774-2.302-13.897v-32.272H662.117z
			"/>
		<path  d="M708.306,718.501l18.272-27.112l-17.485-26.324h17.142l8.945,15.504l8.737-15.504h16.648l-17.581,26.078
			l18.268,27.358h-17.437l-9.212-16.098l-9.303,16.098H708.306z"/>
		<path  d="M787.893,658.577h-14.195v-12.91h14.195V658.577z M773.698,664.964h14.195v53.537h-14.195V664.964z"/>
		<path  d="M826.678,685.937c2.608-0.325,4.47-0.732,5.592-1.227c2.014-0.849,3.021-2.175,3.021-3.979
			c0-2.19-0.775-3.711-2.317-4.544c-1.543-0.832-3.808-1.249-6.798-1.249c-3.35,0-5.726,0.817-7.118,2.452
			c-0.994,1.212-1.659,2.854-1.988,4.913h-13.512c0.299-4.682,1.613-8.529,3.947-11.538c3.716-4.72,10.096-7.073,19.144-7.073
			c5.885,0,11.113,1.157,15.684,3.486c4.57,2.323,6.856,6.711,6.856,13.158v24.559c0,1.705,0.03,3.772,0.098,6.193
			c0.1,1.829,0.377,3.077,0.837,3.733c0.458,0.656,1.146,1.195,2.063,1.62v2.06H836.96c-0.428-1.08-0.721-2.091-0.889-3.047
			c-0.161-0.948-0.292-2.029-0.388-3.24c-1.946,2.099-4.185,3.881-6.723,5.353c-3.029,1.736-6.457,2.607-10.273,2.607
			c-4.874,0-8.902-1.389-12.08-4.149c-3.18-2.77-4.77-6.686-4.77-11.762c0-6.587,2.557-11.347,7.671-14.301
			c2.803-1.604,6.926-2.745,12.372-3.432L826.678,685.937z M835.24,692.469c-0.898,0.556-1.801,1.011-2.717,1.351
			c-0.913,0.346-2.166,0.662-3.76,0.963l-3.186,0.586c-2.984,0.525-5.132,1.166-6.433,1.914c-2.206,1.279-3.308,3.262-3.308,5.946
			c0,2.392,0.675,4.119,2.021,5.183c1.345,1.065,2.983,1.597,4.912,1.597c3.058,0,5.875-0.887,8.454-2.652
			c2.577-1.775,3.914-4.998,4.015-9.68V692.469z"/>
		<path  d="M908.509,668.034c3.506,2.9,5.262,7.706,5.262,14.415v36.052h-14.344v-32.564
			c0-2.815-0.374-4.977-1.122-6.479c-1.365-2.754-3.964-4.127-7.804-4.127c-4.711,0-7.947,2.014-9.7,6.041
			c-0.91,2.127-1.365,4.844-1.365,8.151v28.979h-14.001v-53.437h13.557v7.806c1.793-2.746,3.49-4.729,5.087-5.938
			c2.87-2.16,6.505-3.24,10.91-3.24C900.496,663.691,905.005,665.135,908.509,668.034z"/>
		<path  d="M930.561,703.814h14.882v14.687h-14.882V703.814z"/>
		<path  d="M994.803,684.169c-0.263-1.997-0.938-3.794-2.021-5.398c-1.573-2.168-4.017-3.247-7.334-3.247
			c-4.728,0-7.961,2.345-9.7,7.026c-0.916,2.484-1.377,5.778-1.377,9.896c0,3.919,0.461,7.073,1.377,9.457
			c1.675,4.449,4.824,6.679,9.453,6.679c3.282,0,5.613-0.887,6.992-2.653c1.379-1.766,2.217-4.057,2.51-6.872h14.291
			c-0.326,4.249-1.864,8.283-4.617,12.078c-4.394,6.124-10.899,9.187-19.521,9.187c-8.617,0-14.963-2.553-19.027-7.666
			c-4.065-5.105-6.098-11.725-6.098-19.869c0-9.178,2.245-16.328,6.74-21.435c4.488-5.105,10.68-7.659,18.584-7.659
			c6.716,0,12.217,1.504,16.493,4.512c4.277,3.017,6.807,8.338,7.597,15.966H994.803z"/>
		<path  d="M1067.293,711.953c-4.521,5.576-11.38,8.367-20.578,8.367c-9.202,0-16.063-2.791-20.583-8.367
			c-4.521-5.577-6.775-12.295-6.775-20.147c0-7.722,2.255-14.408,6.775-20.069c4.52-5.662,11.381-8.492,20.583-8.492
			c9.198,0,16.058,2.83,20.578,8.492c4.52,5.661,6.775,12.348,6.775,20.069C1074.068,699.658,1071.812,706.376,1067.293,711.953z
			 M1056.096,704.215c2.193-2.907,3.287-7.04,3.287-12.409c0-5.361-1.094-9.487-3.287-12.38c-2.195-2.892-5.339-4.342-9.432-4.342
			c-4.095,0-7.247,1.45-9.454,4.342c-2.212,2.893-3.317,7.019-3.317,12.38c0,5.369,1.105,9.502,3.317,12.409
			c2.207,2.909,5.359,4.366,9.454,4.366C1050.757,708.581,1053.9,707.124,1056.096,704.215z"/>
		<path  d="M1154.914,665.165c2.291,0.918,4.369,2.522,6.236,4.813c1.507,1.866,2.521,4.156,3.046,6.872
			c0.329,1.804,0.491,4.435,0.491,7.904l-0.099,33.746h-14.34v-34.085c0-2.027-0.329-3.702-0.986-5.014
			c-1.244-2.483-3.534-3.732-6.876-3.732c-3.863,0-6.532,1.604-8.007,4.812c-0.751,1.705-1.128,3.757-1.128,6.139v31.88h-14.095
			v-31.88c0-3.169-0.329-5.482-0.985-6.918c-1.175-2.591-3.484-3.887-6.92-3.887c-3.996,0-6.685,1.296-8.058,3.887
			c-0.757,1.474-1.131,3.663-1.131,6.579v32.219h-14.196v-53.437h13.607v7.806c1.733-2.776,3.369-4.758,4.913-5.938
			c2.714-2.099,6.233-3.147,10.559-3.147c4.093,0,7.401,0.903,9.922,2.707c2.029,1.666,3.567,3.811,4.617,6.434
			c1.831-3.147,4.106-5.454,6.825-6.927c2.881-1.473,6.09-2.214,9.626-2.214C1150.299,663.784,1152.618,664.246,1154.914,665.165z"
			/>
	</g>
	<path  d="M906.585,526.877c24.547-26.278,39.595-61.549,39.595-100.35c0-81.236-65.856-147.095-147.096-147.095
		c-39.039,0-74.504,15.242-100.835,40.057c16.76,19.188,29.104,42.323,35.434,67.814c13.35-22.214,37.604-37.116,65.401-37.116
		c42.16,0,76.34,34.181,76.34,76.34c0,42.164-34.18,76.347-76.34,76.347c-41.592,0-75.345-33.277-76.255-74.647l-0.069-0.13
		l-0.111-1.57c0-2.418-0.069-4.812-0.181-7.2c-0.043-0.824-0.117-1.642-0.169-2.468c-0.101-1.542-0.205-3.093-0.355-4.62
		c-0.093-1.005-0.224-1.994-0.34-2.988c-0.157-1.333-0.315-2.668-0.508-3.991c-0.154-1.081-0.336-2.159-0.516-3.232
		c-0.201-1.204-0.41-2.406-0.645-3.601c-0.221-1.149-0.459-2.284-0.706-3.417c-0.239-1.092-0.489-2.175-0.751-3.255
		c-0.291-1.204-0.595-2.41-0.918-3.602c-0.259-0.961-0.536-1.906-0.81-2.862c-0.374-1.281-0.756-2.566-1.164-3.837
		c-0.252-0.783-0.521-1.547-0.788-2.321c-0.477-1.416-0.96-2.824-1.484-4.216c-0.162-0.435-0.339-0.86-0.505-1.289
		c-3.725-9.65-8.423-18.796-13.996-27.343c-0.027-0.042-0.053-0.084-0.085-0.13c-1.117-1.704-2.266-3.382-3.454-5.041
		c-0.065-0.089-0.131-0.185-0.201-0.282c-1.18-1.643-2.399-3.263-3.645-4.859c-0.057-0.076-0.119-0.151-0.177-0.225
		c-26.935-34.273-68.727-56.316-115.695-56.316c-81.238,0-147.091,65.859-147.091,147.095c0,69.344,47.99,127.439,112.561,142.982
		l-26.449,27.974l-1.761,1.844c-1.925,2.407-3.087,5.461-3.087,8.777c0,2.746,0.795,5.283,2.148,7.451
		c2.488,3.995,6.908,6.657,11.955,6.657c0.271,0,0.54-0.024,0.803-0.039c0.166,0,0.328,0.021,0.492,0.021l40.125,0.008
		c0.02,0,0.042,0,0.066,0h8.886c0.528,0.024,1.044,0.078,1.578,0.078c0.485,0,0.952-0.062,1.429-0.078h7.803
		c0.107,0,0.212-0.008,0.319-0.015c4.408,0.039,8.82-1.658,12.113-5.091l51.184-53.86c0.568-0.593,1.069-1.233,1.535-1.889
		l15.113-15.819h-0.003l11.129-11.64c-16.911-19.313-29.206-42.576-35.48-68.075c-13.354,22.174-37.597,37.06-65.368,37.06
		c-42.164,0-76.34-34.183-76.34-76.347c0-42.159,34.176-76.34,76.34-76.34c41.423,0,75.059,33.009,76.231,74.146l0.077-0.016
		l0.127,2.209c0,2.226,0.055,4.444,0.15,6.645c0.031,0.707,0.097,1.396,0.141,2.095c0.087,1.499,0.173,2.996,0.304,4.484
		c0.073,0.811,0.177,1.613,0.267,2.41c0.138,1.37,0.281,2.739,0.461,4.093c0.112,0.833,0.254,1.658,0.383,2.488
		c0.195,1.319,0.396,2.633,0.627,3.938c0.146,0.825,0.319,1.641,0.483,2.459c0.257,1.299,0.512,2.597,0.806,3.881
		c0.177,0.801,0.385,1.597,0.578,2.395c0.312,1.292,0.632,2.58,0.984,3.853c0.204,0.766,0.432,1.53,0.651,2.289
		c0.379,1.304,0.76,2.597,1.176,3.881c0.227,0.717,0.471,1.427,0.71,2.136c0.447,1.32,0.906,2.631,1.385,3.931
		c0.246,0.663,0.501,1.323,0.751,1.982c0.517,1.335,1.05,2.658,1.601,3.972c0.262,0.613,0.52,1.224,0.786,1.828
		c0.591,1.354,1.201,2.689,1.829,4.016c0.259,0.558,0.525,1.109,0.795,1.658c0.67,1.376,1.365,2.737,2.075,4.087
		c0.263,0.485,0.512,0.972,0.779,1.457c0.759,1.405,1.547,2.794,2.352,4.166c0.243,0.417,0.481,0.833,0.729,1.243
		c0.863,1.45,1.754,2.87,2.668,4.279c0.213,0.333,0.418,0.656,0.633,0.988c0.984,1.488,1.994,2.963,3.027,4.419
		c0.169,0.231,0.332,0.471,0.499,0.702c1.125,1.567,2.282,3.109,3.466,4.621c0.093,0.115,0.177,0.229,0.271,0.348
		c20.111,25.599,48.519,44.371,81.183,52.24l-26.451,27.974l-1.763,1.844c-1.923,2.407-3.082,5.461-3.082,8.777
		c0,2.746,0.796,5.283,2.146,7.451c2.487,3.995,6.906,6.657,11.958,6.657c0.267,0,0.536-0.024,0.803-0.039
		c0.166,0,0.329,0.021,0.493,0.021l40.12,0.008c0,0,0.047,0,0.066,0h8.906c0.527,0.024,1.044,0.078,1.577,0.078
		c0.481,0,0.948-0.062,1.431-0.078h7.781c0.108,0,0.218-0.008,0.323-0.015c4.405,0.039,8.816-1.658,12.111-5.091l51.18-53.86
		c0.567-0.586,1.062-1.219,1.52-1.866l32.979-34.493H906.585z"/>
	<path  d="M1018.633,512.084l13.088-62.491h-66.448v172.68h26.926v-99.568h15.315v43.834l-10.131-4.698v13.869
		l35.578,16.837v-80.463H1018.633z M992.198,516.227v-55.527h10.374L992.198,516.227z"/>
	<path  d="M1087.55,545.219l55.825,76.813h28.163l-33.355-50.387l29.643-5.438v-10.869l-36.063,6.426l-10.865-16.545
		h46.929V442.266v-0.14c-0.04-7.736-6.312-13.997-14.057-14.006l-0.008-0.008h-54.28v-66.694h63.66l6.284-11.607h-120.711
		l26.783-49.896h75.039l6.387-11.608H964.977v11.608h75.942l-27.068,49.896h-48.874v11.607h42.59l-42.289,77.813h35.079
		l42.255-77.813h28.713v78.306h68.344v45.187h-67.928l0.108-35.317l-28.271,52.202v120.237h1.482v0.248h58.548l6.268-11.608h-38.135
		v-65.453H1087.55z M1071.74,495.529h67.928v39.062h-67.928V495.529z"/>
</g>
</svg>
