<?xml version="1.0" encoding="utf-8"?>
<!-- Generator: Adobe Illustrator 16.0.0, SVG Export Plug-In . SVG Version: 6.00 Build 0)  -->
<!DOCTYPE svg PUBLIC "-//W3C//DTD SVG 1.1//EN" "http://www.w3.org/Graphics/SVG/1.1/DTD/svg11.dtd">
<svg version="1.1" id="Layer_1" xmlns="http://www.w3.org/2000/svg" xmlns:xlink="http://www.w3.org/1999/xlink" x="0px" y="0px"
	 width="1600px" height="1000px" viewBox="0 0 1600 1000" enable-background="new 0 0 1600 1000" xml:space="preserve">
<g>
	<path  d="M331.054,461.111l4.511-24.401H230.979c-33.02,0-64.737,26.768-70.844,59.786
		c-6.106,33.019,15.711,59.786,48.729,59.786h50.709l4.514-24.401h-42.242c-19.543,0-32.455-15.841-28.841-35.385
		c3.614-19.542,22.387-35.385,41.929-35.385H331.054z"/>
	<path  d="M408.547,436.621l-86.691,74.823l7.067-38.212h-32.504l-11.971,64.75
		c-1.904,10.301,4.905,18.652,15.205,18.647c5.031-0.002,10.226-2.037,14.401-5.645l103.931-89.74h37.212l-17.641,95.392h32.639
		l17.641-95.392h39.496l4.538-24.535L408.547,436.621z"/>
	<path  d="M604.69,452.491h-26.922c-26.961,0-52.86,21.855-57.844,48.818c-4.987,26.96,12.827,48.816,39.788,48.816
		h26.923c26.961,0,52.858-21.856,57.843-48.816C649.464,474.346,631.65,452.491,604.69,452.491 M591.478,527.488H563.24
		c-14.457,0-24.009-11.721-21.337-26.18c2.676-14.459,16.562-26.18,31.023-26.18h28.236c14.457,0,24.01,11.721,21.338,26.18
		C619.825,515.768,605.936,527.488,591.478,527.488"/>
	<path  d="M881.215,474.875l4.139-22.382h-54.872c-26.893,0-52.721,21.797-57.695,48.687
		c-4.971,26.892,12.795,48.69,39.687,48.69h54.873l4.141-22.382H816.43c-14.527,0-24.128-11.778-21.442-26.309
		c2.688-14.527,16.645-26.305,31.174-26.305H881.215z"/>
	<polygon  points="972.988,452.491 966.243,488.96 910.764,488.96 917.508,452.491 895.504,452.491 877.448,550.125 
		899.452,550.125 906.578,511.597 962.058,511.597 954.932,550.125 976.936,550.125 994.991,452.491 	"/>
	<path  d="M747.775,452.491l-10.439,56.455c-1.894,10.241-11.73,18.543-21.973,18.543h-27.617
		c-10.241,0-17.008-8.302-15.115-18.543l10.439-56.455h-21.899l-10.613,57.379c-4.109,22.233,10.578,40.255,32.812,40.255h27.997
		c22.231,0,43.586-18.021,47.697-40.255l10.612-57.379H747.775z"/>
	<path  d="M1001.066,455.481c0-4.323,1.519-7.996,4.558-11.021c3.04-3.028,6.733-4.541,11.081-4.541
		c4.308,0,7.982,1.512,11.021,4.541c3.039,3.026,4.56,6.699,4.56,11.021c0,4.319-1.521,7.997-4.56,11.021
		c-3.039,3.028-6.72,4.54-11.041,4.54c-4.36,0-8.054-1.512-11.081-4.54C1002.578,463.478,1001.066,459.801,1001.066,455.481
		 M1003.009,455.481c0,3.809,1.333,7.038,4.001,9.686c2.668,2.647,5.893,3.972,9.676,3.972c3.797,0,7.02-1.328,9.676-3.981
		c2.655-2.654,3.98-5.88,3.98-9.676c0-3.794-1.328-7.025-3.989-9.686c-2.663-2.661-5.884-3.993-9.667-3.993
		s-7.008,1.329-9.676,3.984C1004.342,448.44,1003.009,451.672,1003.009,455.481 M1024.304,465.176h-3.579l-2.077-4.75
		c-0.514-1.155-1.052-2.021-1.615-2.598c-0.565-0.575-1.161-0.864-1.79-0.864h-1.788v8.213h-2.944v-19.737h5.695
		c2.281,0,4.064,0.476,5.348,1.425c1.282,0.948,1.924,2.275,1.924,3.98c0,1.359-0.437,2.515-1.309,3.461
		c-0.873,0.953-2.097,1.585-3.675,1.907c0.552,0.151,1.104,0.535,1.656,1.143c0.552,0.611,1.081,1.453,1.595,2.528L1024.304,465.176
		z M1013.454,447.942v6.561h2.905c1.307,0,2.291-0.277,2.952-0.828c0.66-0.55,0.99-1.38,0.99-2.483c0-1.166-0.354-2-1.067-2.5
		c-0.713-0.501-1.836-0.749-3.376-0.749H1013.454z"/>
	<g>
		<path  d="M1075.881,484.502c-11.634,13.727-24.692,24.778-39.177,33.155c-1.396-2.094-2.996-4.217-4.8-6.37
			c16.694-8.551,30.219-19.834,40.574-33.854h9.336l-1.658,2.182c10.063,13.438,23.355,23.297,39.875,29.579
			c-1.745,2.327-3.375,4.798-4.886,7.416C1098.275,508.409,1085.188,497.706,1075.881,484.502z M1089.056,537.201
			c8.435,7.507,15.706,14.543,21.813,21.117l-5.671,5.061c-1.862-2.152-4.015-4.54-6.457-7.156
			c-14.484,0.873-29.289,1.861-44.411,2.968c-2.443,0.232-4.916,0.871-7.417,1.92l-3.927-7.242c2.85-1.047,5.265-2.443,7.242-4.188
			c5.062-4.944,9.947-10.732,14.658-17.363h-29.054v-6.456h80.097v6.456h-42.23c-5.934,7.504-11.721,14.165-17.362,19.981
			c12.855-0.642,25.128-1.253,36.819-1.831c-2.674-2.735-5.612-5.701-8.812-8.903L1089.056,537.201z M1051.625,507.886h48.163v6.456
			h-48.163V507.886z"/>
		<path  d="M1168.786,533.712c0.174,2.501,0.493,5.034,0.96,7.59c-4.015,2.967-8.377,6.342-13.088,10.123
			c-1.456,1.221-2.792,2.587-4.015,4.101l-5.061-5.411c1.804-1.919,2.706-4.739,2.706-8.46v-29.582h-10.646v-6.455h17.275v37.431
			C1160.933,539.966,1164.888,536.854,1168.786,533.712z M1149.329,478.569c4.188,4.188,8.434,8.754,12.739,13.698l-5.847,4.974
			c-4.362-5.584-8.348-10.384-11.954-14.397L1149.329,478.569z M1219.48,483.193c-3.403,23.762-10.398,42.056-20.984,54.881
			c7.532,7.009,16.737,12.508,27.614,16.493c-2.151,2.559-4.013,4.971-5.584,7.24c-10.878-5.178-19.937-11.256-27.179-18.236
			c-7.824,7.592-17,13.932-27.527,19.021c-1.28-1.861-2.939-4.07-4.975-6.631c10.79-4.682,19.923-10.644,27.398-17.887
			c-11.082-13.29-17.859-31.584-20.331-54.881l6.807-1.047c1.891,21.202,8.084,38.027,18.585,50.477
			c10.266-12.536,16.664-29.421,19.194-50.653L1219.48,483.193z M1183.706,479.528l5.585-2.966
			c3.722,5.701,7.329,11.75,10.818,18.146l-6.195,3.579C1190.075,490.609,1186.672,484.357,1183.706,479.528z"/>
		<path  d="M1247.817,523.766h38.652v-36.471h-34.726v-6.719h77.133v6.719H1293.8v36.471h38.915v6.719H1293.8v32.107
			h-7.33v-32.107h-38.652V523.766z M1256.193,496.891l5.497-3.837c6.516,7.618,12.128,14.976,16.84,22.072l-6.194,4.624
			C1267.856,512.482,1262.477,504.862,1256.193,496.891z M1300.604,515.038c6.398-6.745,12.158-14.19,17.277-22.336l6.544,4.188
			c-6.572,9.018-12.71,16.58-18.409,22.686L1300.604,515.038z"/>
		<path  d="M1353.636,531.443c6.456-9.771,10.877-20.184,13.262-31.237h-12.651v-5.932h13.264V477.17h6.107v17.104
			h11.867v5.932h-11.867v13.35l3.142-3.143c4.07,3.842,7.561,7.243,10.469,10.209l-4.624,4.8c-2.908-3.256-5.905-6.458-8.986-9.598
			v46.42h-6.107v-46.942c-3.084,10.12-6.748,18.06-10.995,23.818C1355.7,536.62,1354.74,534.062,1353.636,531.443z
			 M1388.624,483.803c13.378,0.174,29.551-1.075,48.514-3.752l2.355,6.805c-16.812,1.746-31.703,2.764-44.673,3.055v14.136h40.658
			v5.233c-2.559,13.089-7.301,23.881-14.223,32.374c5.469,5.349,12.013,9.828,19.634,13.436c-2.503,2.675-4.335,4.826-5.498,6.456
			c-6.106-4.013-12.215-9.074-18.323-15.183c-5.643,5.585-13.233,10.966-22.771,16.144c-1.106-1.804-2.619-3.783-4.539-5.935
			c9.656-4.305,17.364-9.248,23.122-14.833c-6.631-8.261-10.848-18.905-12.651-31.934h-5.408v14.31
			c0,16.11-4.627,28.968-13.874,38.565c-1.455-1.978-2.968-3.842-4.537-5.585c8.142-8.26,12.215-19.545,12.215-33.854V483.803z
			 M1428.586,509.806h-22.598c1.57,11.052,5.293,20.153,11.168,27.31C1422.797,530.019,1426.608,520.915,1428.586,509.806z"/>
	</g>
</g>
</svg>
