<?xml version="1.0" encoding="utf-8"?>
<!-- Generator: Adobe Illustrator 16.0.0, SVG Export Plug-In . SVG Version: 6.00 Build 0)  -->
<!DOCTYPE svg PUBLIC "-//W3C//DTD SVG 1.1//EN" "http://www.w3.org/Graphics/SVG/1.1/DTD/svg11.dtd">
<svg version="1.1" id="Layer_1" xmlns="http://www.w3.org/2000/svg" xmlns:xlink="http://www.w3.org/1999/xlink" x="0px" y="0px"
	 width="1600px" height="1000px" viewBox="0 0 1600 1000" enable-background="new 0 0 1600 1000" xml:space="preserve">
<g>
	<g>
		<g>
			<g>
				<path fill-rule="evenodd" clip-rule="evenodd"  d="M841.64,450.435H937.4v60.392l-52.941,57.661H841.64v-26.569
					h27.643l10.566-11.522v-53.65H841.64V450.435z M745.282,568.487V450.435h96.357v26.311h-38.196v65.173h38.196v26.569H745.282z"
					/>
			</g>
			<g>
				<polygon fill-rule="evenodd" clip-rule="evenodd"  points="732.012,419.762 732.012,504.401 673.379,568.275 
					673.55,523.58 673.55,368.879 705.307,334.302 868.537,334.302 949.92,334.216 949.92,334.216 925.964,360.316 732.012,360.316 
					732.012,393.194 911.96,393.194 911.96,393.194 887.568,419.762 				"/>
			</g>
		</g>
		<g>
			<path fill-rule="evenodd" clip-rule="evenodd"  d="M552.839,567.961l0.54-25.489v-48.209l-67.646,73.698h-6.587
				v-63.408l15.761-17.126h58.472v-15.608h-74.233v-25.785h133.312v56.984L552.839,567.961L552.839,567.961z M479.146,328.812
				h121.981v103.542H479.146v-26.043h63.823v-13.414h-63.823v-24.906h63.823v-13.137h-63.823V328.812z M479.146,567.961h-58.319
				l58.319-63.408V567.961L479.146,567.961z M479.146,471.818v-25.785h-22.491l13.155-13.679h9.336v-26.043h-63.818v-13.414h63.818
				v-24.906h-63.818v-13.137h63.818v-26.042H393.07l-36.219,39.465v64.076h45.613l-70.095,76.132h56.931l-55.398,59.475h64.892
				l74.691-80.534h-54.792l14.086-15.608H479.146z"/>
		</g>
		<g>
			<g>
				<polygon fill-rule="evenodd" clip-rule="evenodd"  points="988.707,438.119 988.707,419.476 1065.247,326.617 
					1139.323,326.617 1070.144,410.196 1199.693,410.196 1171.531,363.876 1241.331,363.876 1263.57,400.812 1229.332,438.119 				
					"/>
			</g>
			<g>
				<path fill-rule="evenodd" clip-rule="evenodd"  d="M1125.934,450.435h136.619v60.392l-52.939,57.661h-83.68
					v-26.569h68.485l10.583-11.522v-53.65h-79.068V450.435z M988.707,568.487V450.435h137.227v26.311h-79.064v65.173h79.064v26.569
					H988.707z"/>
			</g>
		</g>
	</g>
	<g>
		<path fill-rule="evenodd" clip-rule="evenodd"  d="M1247.852,673.384V630.1h19.779v43.284H1247.852
			L1247.852,673.384z M1247.852,615.274v-13.041h19.779v13.041H1247.852z M1247.852,602.233v13.041h-31.385v45.068h29.404
			l-4.035,13.041h-49.826v-71.15H1247.852L1247.852,602.233z M1247.852,630.1h-19.795v12.944h18.024v30.34h1.771V630.1
			L1247.852,630.1z M913.452,661.908v-30.759h10.926V615.17h-10.926v-13.051h22.215l10.773,8.104v33.872h-21.956l17.288,19.043
			h9.433l-3.733,10.139h-24.444L913.452,661.908L913.452,661.908z M962.078,602.014h73.852l-4.979,13.049h-19.166v58.215h-25.475
			v-58.215h-24.232V602.014L962.078,602.014z M1085.236,615.274h-8.08v45.068h11.079l-4.259,13.041h-37.173v-13.041h8.176v-45.068
			h-8.176v-13.041h38.433V615.274L1085.236,615.274z M1122.411,602.338l38.63,47.227v-47.227h20.096v71.046h-25.166l-36.662-44.64
			v44.64h-20.215v-71.046H1122.411z M913.452,602.119v13.051h-10.926v15.979h10.926v30.759l-10.926-12.965v24.334h-24.558v-71.158
			H913.452L913.452,602.119z M830.585,673.384v-13.251h14.244v-44.754h-14.244v-13.146h36.511v71.15H830.585z M830.585,602.233
			v13.146h-14.248v44.754h14.248v13.251h-27.718l-9.523-9.013v-62.138H830.585L830.585,602.233z M749.53,650.596v-12.944h10.884
			V615.17H749.53v-13.051h22.176l10.769,8.104v40.372H749.53z M749.53,602.119v13.051h-10.874v22.481h10.874v12.944h-5.475
			l-5.398-5.795v28.477h-24.344v-71.158H749.53L749.53,602.119z M670.509,650.596v-12.944h10.878V615.17h-10.878v-13.051h22.167
			l10.768,8.104v40.372H670.509z M403.576,615.274h-44.33v16.896h43.699v12.945h-43.699v15.227h46.921l-3.938,13.041h-67.226v-71.15
			h68.573V615.274L403.576,615.274z M670.509,602.119v13.051h-10.882v22.481h10.882v12.944h-5.5l-5.383-5.795v28.477h-24.339
			v-71.158H670.509L670.509,602.119z M417.046,630.52h40.902v12.734h-40.902V630.52L417.046,630.52z M492.768,630.31h36.039
			l8.291,7.342v35.626h-62.563l-5.699-13.039h46.82v-16.984h-44.539v-41.547h65.98v13.251h-44.33V630.31L492.768,630.31z
			 M624.405,602.338v71.046h-22.272v-71.046H624.405L624.405,602.338z M570.763,602.338v57.9h31.174l-6.731,13.146h-47.235v-71.046
			H570.763z"/>
	</g>
</g>
</svg>
