<?xml version="1.0" encoding="utf-8"?>
<!-- Generator: Adobe Illustrator 16.0.0, SVG Export Plug-In . SVG Version: 6.00 Build 0)  -->
<!DOCTYPE svg PUBLIC "-//W3C//DTD SVG 1.1//EN" "http://www.w3.org/Graphics/SVG/1.1/DTD/svg11.dtd">
<svg version="1.1" id="Layer_1" xmlns="http://www.w3.org/2000/svg" xmlns:xlink="http://www.w3.org/1999/xlink" x="0px" y="0px"
	 width="1600px" height="1000px" viewBox="0 0 1600 1000" enable-background="new 0 0 1600 1000" xml:space="preserve">
<g>
	<g>
		<path  d="M566.205,148.284v467.589h467.59V148.284H566.205z M867.838,437.438L688.82,563.028l-0.072,0.179
			l-25.239,17.712l134.529-333.334l-109.088-0.003l-22.326,55.171h-18.16l29.28-72.338h128.83h16.624h128.339L867.838,437.438z"/>
		<polygon  points="795.799,298.233 785.888,322.765 831.951,322.765 764.797,489.001 795.515,467.065 
			863.711,298.246 		"/>
		<polygon  points="782.192,331.913 774.088,351.971 794.109,351.971 728.165,515.165 753.364,497.168 
			820.125,331.913 		"/>
		<polygon  points="801.507,284.104 881.919,284.104 813.087,454.513 854.391,425.016 926.079,247.585 
			816.261,247.585 		"/>
		<polygon  points="771.643,358.024 700.042,535.25 720.658,520.527 786.314,358.024 		"/>
	</g>
	<g>
		<path  d="M566.521,702.734l39.029-7.093v-43.759h17.972v40.566l55.228-10.172v7.45l-55.228,10.17v52.982
			c0,2.483,2.011,4.495,4.495,4.495h50.733v6.737h-65.397c-4.258,0-7.802-3.544-7.802-7.803v-53.219l-39.029,7.097V702.734z"/>
		<path  d="M723.119,742.117v6.739H691.78c-1.065,0-2.012-0.472-2.604-1.537c-0.709-0.827-0.824-2.009-0.472-2.955
			c5.56-12.182,10.648-24.835,14.785-37.488H688.11c-1.064,0-1.887-0.354-2.483-1.298c-0.589-0.83-0.823-1.895-0.468-2.96
			c4.967-15.137,9.693-34.885,11.944-51.087h16.79c-2.008,13.358-6.031,33.229-10.758,47.302c-0.121,0.355-0.121,0.709,0.118,0.946
			c0.237,0.239,0.588,0.355,0.709,0.355h1.657c2.129-7.098,4.024-14.188,5.557-21.053h15.964
			c-4.375,21.999-12.061,47.068-18.331,61.496c-0.117,0.354-0.117,0.709,0.117,1.065c0.238,0.354,0.476,0.474,0.83,0.474H723.119z
			 M685.51,763.759v-6.741l38.551-2.363v6.737L685.51,763.759z M733.525,763.88v-59.845h-9.343
			c6.507-19.63,10.052-33.702,12.536-52.504h17.028c-0.943,6.621-1.891,12.77-3.073,18.682h46.361v6.857h-14.547v20.938h12.297
			v6.739h-12.297v21.879h12.297v6.737h-12.297v21.053h14.547v6.862h-46.244v2.601H733.525z M750.791,698.009h14.665v-20.934h-14.665
			V698.009z M750.791,726.627h14.665v-21.879h-14.665V726.627z M750.791,754.417h14.665v-21.053h-14.665V754.417z M765.456,666.784
			l-4.017-15.253h17.025l4.024,15.253H765.456z"/>
		<path  d="M803.198,656.854h20.104c4.851,0,8.044-1.662,10.056-5.323h20.101c-2.243,7.919-7.09,12.061-15.722,12.061
			h-2.722v17.5h14.895v6.625h-14.895v76.396h-16.911v-76.396h-14.906v-6.625h14.906v-17.5h-14.906V656.854z M803.198,764.112
			c1.423-9.695,1.54-19.276,1.54-28.974v-43.164h10.053v43.401c0,9.581-0.121,19.162-1.657,28.736H803.198z M838.443,691.975h10.055
			v72.138h-10.055V691.975z M886.457,763.88v-29.807l-32.641,3.786v-6.858l32.641-3.663v-75.807h17.384v73.794l11.355-1.301v6.74
			l-11.355,1.302v31.813H886.457z M871.909,692.805l8.871,22.588h-16.676l-8.396-22.588H871.909z M873.211,660.163l8.988,22.827
			h-16.793l-8.516-22.827H873.211z"/>
		<path  d="M921.603,725.562l7.923-1.657v-36.309h-7.923v-6.735h7.923v-29.329h17.621v29.329h7.682v6.735h-7.682
			v32.644l7.682-1.654v6.74l-7.682,1.651v29.097c0,4.258-3.782,7.807-8.277,7.807h-16.442v-6.742h2.367
			c2.604,0,4.731-2.012,4.731-4.613v-21.875l-7.923,1.654V725.562z M982.627,706.402c4.019,6.502,9.104,13.485,14.897,20.462
			c6.15-7.569,11.59-15.137,15.497-22.592c0.941-1.887-0.24-3.072-1.658-3.072h-48.487v-6.74h24.951v-20.938H960.63v-6.732h27.197
			v-15.258h18.097v15.258h27.555v6.732h-27.555v20.938h19.632c6.146,0,8.037,4.493,6.505,8.158
			c-5.439,12.298-14.313,24.718-24.128,36.307c8.04,8.753,16.793,17.265,25.546,25.071h-21.408c-4.965-4.375-9.697-8.99-14.307-13.6
			c-4.497,4.729-9.104,9.346-13.246,13.6h-23.297c8.516-7.807,17.499-16.439,25.896-25.307c-7.923-9.463-15.49-19.985-22.592-32.287
			H982.627z"/>
	</g>
	<g>
		<path  d="M795.646,808.148h-13.611c-1.44,0-2.158,0.337-2.158,1.017v20.647c0,0.643,0.718,0.969,2.158,0.969h13.611
			c1.437,0,2.154-0.326,2.154-0.969v-20.647C797.8,808.485,797.083,808.148,795.646,808.148z"/>
		<path  d="M566.203,787.684v64.032h467.594v-64.032H566.203z M613.627,837.356h-6.578v-28.191
			c0-0.68-0.717-1.017-2.154-1.017h-22.292v-6.58h22.977c5.365,0,8.047,2.118,8.047,6.351V837.356z M650.952,831.004
			c0,4.233-2.686,6.357-8.051,6.357h-14.806v-6.584h14.125c1.438,0,2.151-0.322,2.151-0.965v-20.644
			c0-0.684-0.713-1.021-2.151-1.021h-15.768v29.213h-6.525v-35.793H642.9c5.366,0,8.051,2.153,8.051,6.466V831.004z
			 M708.294,810.643l-12.362,26.719h-5.958l-12.706-26.719v-9.074h6.522v7.545l9.077,20.813l8.849-20.872v-7.486h6.578V810.643z
			 M719.415,837.356h-5.45v-35.788h5.45V837.356z M756.459,808.148h-22.467c-1.434,0-2.155,0.337-2.155,1.021v6.185
			c0,0.528,0.721,0.793,2.155,0.793h13.614c5.897,0,8.853,2.229,8.853,6.691v8.166c0,4.233-2.711,6.357-8.115,6.357h-22.918v-6.584
			h22.18c1.438,0,2.154-0.322,2.154-0.965v-6.238c0-0.53-0.716-0.795-2.154-0.795h-13.614c-5.706,0-8.566-2.344-8.566-7.032v-7.713
			c0-4.312,2.689-6.466,8.058-6.466h22.975V808.148z M767.459,837.356h-5.45v-35.788h5.45V837.356z M804.382,831.004
			c0,4.233-2.687,6.353-8.058,6.353h-14.917c-5.369,0-8.059-2.119-8.059-6.353v-22.97c0-4.312,2.689-6.466,8.059-6.466h14.917
			c5.371,0,8.058,2.153,8.058,6.466V831.004z M841.706,837.361h-6.581v-28.196c0-0.68-0.714-1.017-2.155-1.017h-13.61
			c-1.438,0-2.157,0.337-2.157,1.017v28.196h-6.525v-29.327c0-4.314,2.69-6.466,8.055-6.466h14.921c5.368,0,8.054,2.151,8.054,6.466
			V837.361z M886.854,837.356h-6.353v-27.338h6.353V837.356z M899.048,808.148h-31.024v-6.58h31.024V808.148z M936.485,808.148
			h-22.458c-1.442,0-2.162,0.337-2.162,1.017v6.977h24.62v6.586h-24.62v7.089c0,0.639,0.72,0.961,2.162,0.961h22.458v6.584h-22.975
			c-5.368,0-8.05-2.12-8.05-6.353v-22.975c0-4.314,2.682-6.466,8.05-6.466h22.975V808.148z M973.69,808.148h-22.345
			c-1.435,0-2.159,0.337-2.159,1.017v20.651c0,0.639,0.725,0.961,2.159,0.961h22.345v6.584h-22.969c-5.37,0-8.058-2.12-8.058-6.353
			v-22.975c0-4.314,2.688-6.466,8.058-6.466h22.969V808.148z M1011.132,837.356h-6.699v-14.577H986.51v14.577h-6.408v-35.788h6.408
			v14.573h17.923v-14.573h6.699V837.356z"/>
	</g>
</g>
</svg>
