<?xml version="1.0" encoding="utf-8"?>
<!-- Generator: Adobe Illustrator 16.0.0, SVG Export Plug-In . SVG Version: 6.00 Build 0)  -->
<!DOCTYPE svg PUBLIC "-//W3C//DTD SVG 1.1//EN" "http://www.w3.org/Graphics/SVG/1.1/DTD/svg11.dtd">
<svg version="1.1" id="Layer_1" xmlns="http://www.w3.org/2000/svg" xmlns:xlink="http://www.w3.org/1999/xlink" x="0px" y="0px"
	 width="1600px" height="1000px" viewBox="0 0 1600 1000" enable-background="new 0 0 1600 1000" xml:space="preserve">
<g>
	<path  d="M869.715,678.194h20.947v18.882h-29.679v-45.664h40.352v-12.389h-41.256c-3.309,0-6.076,1.193-8.256,3.496
		c-2.147,2.315-3.267,5.006-3.267,8.01v47.44c0,1.334,0.16,2.604,0.404,3.767c1.27,5.135,5.01,7.75,11.118,7.75h42.962v-43.692
		h-33.326V678.194z"/>
	<path  d="M1003.941,654.448h-31.48c-3.647,0-6.538,1.108-8.504,3.293c-1.98,2.132-3.003,4.898-3.003,8.204v32.024
		c0,3.25,1.099,6.017,3.24,8.212c2.132,2.186,4.919,3.305,8.267,3.305h40.266v-12.41h-39.371v-8.913h30.586
		c3.474,0,6.326-1.173,8.517-3.467c1.974-2.153,2.997-4.877,2.997-8.062v-10.688c0-3.24-1.092-5.985-3.245-8.193
		C1010.073,655.578,1007.284,654.448,1003.941,654.448 M1003.059,675.772h-29.703v-8.935h29.703V675.772z"/>
	<polygon  points="1073.368,651.412 1094.327,651.412 1094.327,709.486 1106.705,709.486 1106.705,651.412 
		1127.858,651.412 1127.858,639.012 1073.368,639.012 	"/>
	<path  d="M1227.872,697.076h-29.7v-42.628h-12.405v43.53c0,3.241,1.06,6.019,3.223,8.203
		c2.132,2.186,4.899,3.305,8.289,3.305h31.485c3.548,0,6.361-1.141,8.413-3.38c2.046-2.218,3.096-4.974,3.096-8.128v-43.53h-12.4
		V697.076z"/>
	<polygon  points="1329.844,666.838 1321.006,666.838 1320.135,666.838 1319.229,666.838 1319.229,709.486 
		1331.619,709.486 1331.619,666.838 1330.715,666.838 	"/>
	<polygon  points="1319.229,651.4 1320.135,651.4 1321.006,651.4 1329.844,651.4 1330.715,651.4 1331.619,651.4 
		1331.619,639.023 1319.229,639.023 	"/>
	<rect x="929.059" y="404.409"  width="27.052" height="171.695"/>
	<path  d="M1068.309,458.533h-33.672l-0.451-0.57c-20.303-26.491-39.216-56.407-57.827-91.488
		c-2.158-3.778-4.742-5.727-7.643-5.727h-49.021c-3.284,0-6.966,1.842-8.191,4.113c-17.677,33.918-37.494,65.245-58.904,93.103
		l-0.441,0.57h-34.221l2.034-2.411c23.71-28.268,45.008-60.464,66.993-101.336c2.804-4.963,6.271-8.708,10.298-11.119
		c5.048-3.371,10.973-5.082,17.556-5.082h60.13c5.867,0,10.83,1.398,15.179,4.306c4.268,2.508,7.805,6.567,11.043,12.723
		c20.217,40.152,39.69,70.206,65.11,100.508L1068.309,458.533z"/>
	<path  d="M1130.178,575.824h-25.366l-9.054-22.434h27.634c1.613,0,3.411-1.519,3.411-3.681v-64.975
		c-8.314,3.358-21.916,8.213-30.366,10.591l-1.868,0.528v-26.189l1.201-0.227c8.944-1.689,21.83-5.576,31.033-8.805v-55.459h-30.065
		V382.46h30.065v-45.781h26.508v45.781h25.738v22.714h-25.738v44.694c7.688-2.701,19.468-7.503,26.028-10.894l2.159-1.119v24.489
		l-0.861,0.398c-6.41,2.959-19.828,8.666-27.326,11.346v79.141c0,6.253-2.207,11.766-6.39,15.942
		C1142.627,573.455,1136.686,575.824,1130.178,575.824"/>
	<path  d="M1283.34,554.467v-40.668h39.819V492.7h-39.819v-34.974h39.819v-21.098h-39.819v-33.08h44.69v-22.444
		h-32.02c-0.571,1.034-1.216,2.023-1.895,2.982c-0.463,0.645-0.979,1.248-1.49,1.851c-0.286,0.344-0.556,0.709-0.861,1.033
		c-0.49,0.538-1.028,1.034-1.557,1.54c-0.376,0.355-0.747,0.71-1.14,1.043c-0.522,0.442-1.066,0.861-1.615,1.27
		c-0.464,0.334-0.931,0.668-1.41,0.979c-0.538,0.355-1.086,0.689-1.646,1.001c-0.55,0.324-1.12,0.604-1.701,0.883
		c-0.539,0.259-1.077,0.517-1.637,0.743c-0.656,0.27-1.325,0.506-1.996,0.722c-0.522,0.172-1.039,0.355-1.571,0.495
		c-0.803,0.215-1.626,0.366-2.45,0.518c-0.44,0.074-0.882,0.194-1.335,0.248c-1.292,0.171-2.609,0.279-3.955,0.279
		c-1.341,0-2.654-0.108-3.952-0.279c-0.451-0.054-0.887-0.174-1.334-0.248c-0.822-0.151-1.646-0.302-2.448-0.518
		c-0.527-0.14-1.044-0.322-1.573-0.495c-0.667-0.216-1.339-0.452-1.996-0.722c-0.554-0.226-1.104-0.483-1.643-0.743
		c-0.568-0.279-1.14-0.571-1.688-0.883c-0.559-0.312-1.108-0.646-1.647-1.001c-0.484-0.312-0.952-0.646-1.414-0.979
		c-0.55-0.409-1.094-0.828-1.615-1.27c-0.393-0.333-0.77-0.688-1.147-1.043c-0.526-0.506-1.065-1.002-1.55-1.54
		c-0.306-0.333-0.58-0.689-0.871-1.033c-0.507-0.604-1.024-1.207-1.48-1.851c-0.684-0.959-1.33-1.949-1.896-2.982h-16.518
		c5.028-11.485,10.882-28.225,14.866-42.553l0.516-1.873h-27.986l-0.298,1.088c-8.427,30.657-22.18,59.215-42.029,87.3l-1.646,2.326
		h21.966v123.134c0,6.545,1.98,12.488,5.784,17.235c4.565,5.123,11.384,8.062,18.71,8.062h115.509v-21.357H1283.34z
		 M1219.142,513.799h37.961v40.668h-34.017c-2.099,0-3.944-2.218-3.944-4.757V513.799z M1257.103,492.7h-37.956v-34.974h37.956
		V492.7z M1219.142,403.548h37.956v33.08h-37.956V403.548z"/>
	<path  d="M1269.438,339.123c-13.348,0-24.166,10.775-24.166,24.081c0,13.305,10.818,24.092,24.166,24.092
		c13.344,0,24.162-10.787,24.162-24.092C1293.6,349.898,1282.781,339.123,1269.438,339.123 M1272.695,341.89
		c9.041,0,16.373,7.308,16.373,16.319c0,9.009-7.332,16.308-16.373,16.308c-9.037,0-16.363-7.298-16.363-16.308
		C1256.332,349.198,1263.658,341.89,1272.695,341.89 M1262.414,353.139c0,3.918,3.198,7.083,7.115,7.083
		c3.919,0,7.104-3.165,7.104-7.083c0-3.919-3.186-7.094-7.104-7.094C1265.612,346.044,1262.414,349.22,1262.414,353.139
		 M1262.926,364.258c0,1.345,1.093,2.432,2.449,2.432c1.346,0,2.443-1.087,2.443-2.432c0-1.335-1.098-2.433-2.443-2.433
		C1264.019,361.826,1262.926,362.923,1262.926,364.258"/>
	<path  d="M531.676,374.657c5.059,0,9.149,5.791,9.149,12.938c0,7.137-4.091,12.95-9.149,12.95
		c-5.039,0-9.139-5.812-9.139-12.95C522.537,380.448,526.638,374.657,531.676,374.657 M523.193,407.908
		c0-2.454,1.41-4.457,3.144-4.457c1.733,0,3.143,2.003,3.143,4.457s-1.41,4.445-3.143,4.445
		C524.603,412.354,523.193,410.362,523.193,407.908"/>
	<path  d="M621.641,536.103c-2.486,0.333-5.039,0.678-7.691,1.087c-3.967,0.592-9.479,0.883-14.807,1.163
		c-5.006,0.27-10.178,0.539-13.951,1.065c-10.006,1.356-19.059,10.507-19.376,19.592c-0.248,6.942,4.838,12.014,13.956,13.919
		c16.48,3.412,34.506-3.919,48.375-10.7c11.109-5.436,22.574-13.132,31.439-21.152c9.068-8.191,12.212-13.876,11.297-15.868
		c-0.419-0.904-3.073-3.303-19.791,3.908C640.984,533.477,632.017,534.692,621.641,536.103"/>
	<path  d="M298.681,521.258c-60.709-34.629-22.122,23.51,28.187,55.459c2.143,1.356,4.35,2.724,6.597,4.08
		c-1.532-15.812-1.095-31.453-2.358-46.826C320.083,530.99,309.661,527.523,298.681,521.258"/>
	<path  d="M379.401,444.314c10.818,0,19.615-12.541,19.615-27.968c0-15.415-8.797-27.954-19.615-27.954
		c-10.818,0-19.627,12.539-19.627,27.954C359.774,431.773,368.583,444.314,379.401,444.314 M379.401,390.954
		c9.402,0,17.05,11.389,17.05,25.393c0,14.005-7.648,25.394-17.05,25.394c-9.408,0-17.059-11.389-17.059-25.394
		C362.342,402.342,369.993,390.954,379.401,390.954"/>
	<path  d="M375.52,419.857c4.804,0,8.696-5.522,8.696-12.315c0-6.792-3.892-12.303-8.696-12.303
		c-4.805,0-8.697,5.51-8.697,12.303C366.823,414.335,370.715,419.857,375.52,419.857"/>
	<path  d="M373.419,426.865c0-2.326-1.338-4.22-2.988-4.22c-1.651,0-2.992,1.895-2.992,4.22
		c0,2.347,1.341,4.242,2.992,4.242C372.081,431.106,373.419,429.211,373.419,426.865"/>
	<path  d="M535.767,425.982c11.249,0,20.398-13.068,20.398-29.128c0-16.073-9.15-29.141-20.398-29.141
		c-11.261,0-20.421,13.068-20.421,29.141C515.346,412.914,524.506,425.982,535.767,425.982 M535.767,370.286
		c9.833,0,17.831,11.917,17.831,26.567c0,14.639-7.998,26.555-17.831,26.555c-9.851,0-17.848-11.917-17.848-26.555
		C517.919,382.203,525.916,370.286,535.767,370.286"/>
	<path  d="M531.676,400.534c5.059,0,9.149-5.792,9.149-12.938c0-7.147-4.091-12.938-9.149-12.938
		c-5.039,0-9.134,5.791-9.134,12.938C522.542,394.743,526.638,400.534,531.676,400.534"/>
	<path  d="M529.48,407.908c0-2.454-1.41-4.457-3.143-4.457c-1.734,0-3.149,2.003-3.149,4.457s1.415,4.445,3.149,4.445
		C528.07,412.354,529.48,410.362,529.48,407.908"/>
	<path  d="M717.294,597.547c-11.178-6.33-24.258-4.447-34.969,5.188c5.705-14.834-6.287-32.153-22.121-40.045
		c-4.242-2.119-8.751-3.208-13.187-3.433c-12.153-0.636-23.79,5.221-28.096,14.597c-0.743,1.615-1.28,3.337-1.55,5.146
		c-1.426,9.645,10,14.832,24.979,32.638c12.353,14.65,5.001,29.666-4.273,40.054c-12.25,13.715-28.526,22.23-37.833,1.486
		c-9.881-22.023-4.391-41.842,6.761-75.276c-5.98,1.647-12.212,2.724-18.472,2.724c-3.509,0-6.922-0.346-10.162-1.012
		c-12.502-2.604-19.753-10.398-19.381-20.84c0.441-12.572,11.781-24.296,25.27-26.116c4.059-0.569,9.376-0.85,14.521-1.119
		c5.156-0.269,10.5-0.548,14.144-1.109c1.97-0.29,3.865-0.559,5.738-0.806c9.527-58.85,5.333-119.917,0.85-136.774
		c-3.648-13.758-15.844-25.071-26.674-30.066c-9.742-4.498-19.236-6.242-29.264-6.458c2.627-14.285,7.788-27.675,17.164-31.055
		c5.636-2.045,12.789-0.474,21.831,6.664c1.325,1.043,2.465,2.26,3.546,3.487c3.478,3.95,6.325,8.095,12.535,7.771
		c21.691-1.141,13.581-31.701,3.554-41.96c-11.583-11.84-30.384-15.231-43.646-4.349c-6.787,5.566-17.336,20.485-17.336,29.808
		c-0.011-6.351-0.194-11.852-1.41-16.792c-0.873-3.585-2.293-6.869-4.575-9.968c-1.873-2.551-4.316-4.963-7.524-7.32
		c-9.64-7.05-22.121-9.021-33.284-4.92c-2.309,0.861-4.559,2.11-6.684,3.661c-3.714,2.702-7.008,6.329-9.42,10.441
		c-2.879,4.93-4.504,10.539-4.052,16.072c0.608,7.384,3.622,13.187,10.662,15.361c8.03,2.475,11.809-4.447,16.761-8.989
		c3.412-3.132,7.384-5.134,13.703-2.13c1.271,0.602,2.368,1.323,3.348,2.13c5.737,4.705,6.803,12.541,6.803,19.969
		c0,4.467,0,8.719-0.161,13.035c-7.293,0.754-15.033,1.862-23.446,2.96c-15.522,2.046-69.14,9.829-81.573,10.389
		c-28.644,1.302-61.837,3.541-86.517,19.268c-2.777,1.765-5.103,3.918-7.07,6.34c-8.78,10.905-11.42,14.123-11.52,27.881
		c-0.121,15.037,2.035,30.774,1.87,45.351c-0.128,10.086-8.098,10.915-8.098,22.056c0,15.62,4.271,13.37,7.137,29.667
		c0.821,4.705,1.372,9.43,1.763,14.188c1.265,15.373,0.829,31.024,2.355,46.826c0.44,4.554,1.046,9.118,1.902,13.693
		c0.458-9.603,2.794-18.139,6.849-24.855c3.964-6.523,9.233-10.592,14.72-11.453v-0.173l4.174-0.021v0.076
		c2.484,0.14,4.672,0.569,6.601,1.258c0.21-0.979,0.425-1.797,0.657-2.443c4.106-11.733,13.162-19.042,23.644-18.935
		c7.931,0.021,14.255,3.639,18.469,8.795c0.629-2.122,1.372-4.091,2.266-5.899c3.961-8.051,11.06-12.712,22.336-14.693
		c2.142-0.388,4.23-0.592,6.114-0.571c11.578,0,21.464,7.246,29.377,21.531c0.71-1.11,1.458-2.176,2.303-3.145
		c4.575-5.307,10.884-8.234,17.767-8.234c0.038,0,0.07,0,0.103,0c10.775,0,23.413,7.771,27.896,25.06
		c1.889-1.443,3.918-2.175,6.13-2.197c2.314,0,4.645,0.872,6.75,2.53c2.04,1.604,3.966,3.939,5.889,7.159
		c2.814,4.854,3.444,11.927,3.993,20.657c0.129,2.367,0.248,4.854,0.367,7.438c0.305,6.674,0.646,14.242,1.463,21.949
		c1.825,17.47,6.48,42.574,25.77,58.903c13.1,11.12,31.841,17.051,55.674,18.03c0.345,0.011,8.44-0.894,10.044-0.903
		c0.301,0.01,0.731,0.021,1.249,0.118c16.943-10.26,27.379-25.286,36.674-43.403c13.121-25.555,48.538-20.031,50.679-30.409
		C732.418,610.971,725.158,601.992,717.294,597.547 M622.26,323.461c4.188,16.383-12.051,13.993-12.519,4.436
		c-0.496-9.548-11.261-21.735-29-18.44C580.74,309.456,615.272,296.119,622.26,323.461 M518.656,304.45
		c-5.861,6.255-3.261,14.489-6.528,17.428c-7.588,6.825-20.313-1.646-9.812-19.257c9.898-16.611,33.236-13.65,40.265,0.957
		C533.883,295.581,523.269,299.531,518.656,304.45 M593.109,430.675c7.847,2.96,2.147,16.308,2.147,16.308
		c0.699-18.536-22.137-14.09-22.137-14.09S585.256,427.704,593.109,430.675 M559.814,325.926c0,15.995-3.671,24.09-3.671,24.09
		s3.682-34.102-7.029-50.086C549.114,299.93,559.814,307.485,559.814,325.926 M535.767,363.139c3.208,0,6.27,0.84,9.084,2.357
		c6.513,3.509,11.674,10.647,14.134,19.591c1.001,3.662,1.56,7.622,1.56,11.756c0,18.59-11.119,33.714-24.779,33.714
		c-13.671,0-24.786-15.124-24.786-33.714C510.981,378.263,522.096,363.139,535.767,363.139 M379.401,384.215
		c13.022,0,23.615,14.424,23.615,32.131c0,17.719-10.593,32.133-23.615,32.133c-13.03,0-23.624-14.414-23.624-32.133
		C355.778,398.64,366.371,384.215,379.401,384.215 M406.406,486.5c0,0,27.797-18.935,102.858,2.574
		C509.264,489.074,449.042,476.23,406.406,486.5 M498.677,476.639c-20.512-2.465-39.888-4.79-59.307-3.38
		c-44.202,3.187-77.475,15.394-89.677,25.384c-1.798,1.474-4.89,3.131-7.635,3.131c-0.92,0-1.8-0.182-2.583-0.623
		c-2.024-1.142-2.799-3.693-2.078-6.826c0.506-2.163,1.421-4.102,2.303-5.985c0.297-0.625,0.59-1.259,0.87-1.884
		c0.188-0.419,0.415-1.216,0.651-2.055c0.889-3.111,1.637-5.361,3.198-6.093l0.755-0.355l0.638,0.539
		c0.672,0.559,2.719,2.292-1.041,12.39c-0.305,0.828-0.463,1.571-0.512,2.077c0.242-0.14,0.474-0.27,0.7-0.409
		c0.186-0.118,0.38-0.225,0.568-0.333c0.654-0.376,1.31-0.775,1.967-1.161c0.799-0.486,1.604-0.959,2.419-1.422
		c5.165-3.014,10.741-5.749,16.566-8.16c8.792-3.605,18.067-6.491,28.362-8.848c13.042-2.959,26.766-4.866,41.965-5.813
		c15.587-0.969,31.718-0.861,49.302,0.323c4.752,0.324,9.305,0.636,13.655,0.937c53.773,3.714,76.03,5.243,79.382-9.957
		c0.506-2.239-2.9-5.328-6.404-6.792c-0.528-0.215-1.152-0.42-1.782-0.624c-2.249-0.731-4.796-1.572-5.549-3.703
		c-0.419-1.194-0.172-2.552,0.743-4.026c1.733-2.789,4.51-3.8,7.605-2.789c5.489,1.809,11.814,10.238,11.432,17.999
		c-0.248,5.135-3.229,21.949-31.147,22.466C535.056,480.988,516.557,478.782,498.677,476.639"/>
	<path  d="M563.55,680.82c0.043,0.021,0.086,0.044,0.119,0.076c2.938,2.034,6.028,3.896,9.269,5.576
		c-10.26-7.998-18.063-18.784-23.226-32.121c-2.965-7.654-4.871-15.565-6.163-23.37c-1.905-11.54-2.433-22.853-2.873-32.703
		c-0.27-5.845-0.506-10.883-0.986-15.135c-0.629-5.748-1.587-8.31-2.276-9.44c-1.744-2.927-3.122-4.327-3.967-4.984
		c-1.108-0.871-1.636-0.85-1.846-0.85c-0.473,0-1.303,0.388-2.282,1.475c-0.57,0.613-1.146,1.452-1.663,2.39
		c-0.027,0.044-0.06,0.086-0.081,0.129c-0.84,8.084-1.265,15.813-1.265,22.962c0,2.594,0.06,5.122,0.167,7.62
		C528.027,638.387,540.47,664.729,563.55,680.82"/>
	<path  d="M387.302,647.278c-11.868-24.833-14.352-49.84-14.352-66.428c0-4.219,0.17-8.3,0.49-11.98
		c-1.327-0.828-3.439-1.507-7.18-1.571l-0.487-0.012c-2.425,0.012-6.454,2.046-9.92,7.805c-3.749,6.189-5.815,14.802-5.815,24.253
		c0,3.542,0.288,7.233,0.845,10.968c0.925,6.104,5.234,27.634,21.957,48.334c13.879,17.18,32.611,29.441,55.814,36.62
		C410.731,683.372,396.863,667.333,387.302,647.278"/>
	<path  d="M467.019,686.979c-21.05-18.526-35.959-40.809-44.247-65.826c-5.097-15.361-7.708-31.766-7.708-48.956
		c0-2.153,0.049-4.457,0.15-7.224c0.011-0.312,0.011-0.548,0.011-0.797c0-1-0.103-1.947-0.248-2.861
		c-1.405-8.764-9.026-14.082-16.152-14.082c-6.817,0.043-12.306,4.36-15.571,12.187l-0.621,1.615
		c-0.177,0.525-0.558,2.206-0.91,4.951c-0.054,0.431-0.105,0.871-0.159,1.356c-0.309,2.767-0.678,7.352-0.678,13.499
		c0,12.917,1.769,38.277,13.59,63.046c12.772,26.697,33.709,45.857,62.203,56.967c0.888,0.346,1.754,0.657,2.626,0.979
		c2.912,1.088,5.78,2.109,8.558,3.025c16.615,5.457,30.878,7.933,41.497,8.999c-2.971-1.324-6.179-2.853-9.542-4.607
		C489.662,703.986,478.063,696.721,467.019,686.979"/>
	<path  d="M510.179,684.427c-17.218-22.626-29.302-56.826-36.922-104.48h-0.011l-0.312-2.045l-0.005-0.012
		l-0.317-2.065h0.032c-0.312-2.53-0.475-4.963-0.475-7.288c0-3.745,0.421-7.244,1.211-10.484c-0.942-2.002-1.899-3.887-2.869-5.629
		c-8.697-15.491-16.658-17.524-22.616-17.558c-1.421,0-2.96,0.151-4.564,0.43c-9.127,1.713-13.649,4.543-16.652,10.452
		c-1.798,3.563-3.003,8.59-3.703,15.534c0.124,0.969,0.205,1.927,0.205,2.886c0,0.388-0.01,0.764-0.038,1.14
		c-0.069,2.12-0.113,4.392-0.113,6.89c0,43.392,16.572,80.013,49.249,108.861c25.694,22.67,54.684,31.346,60.238,32.854
		c0.516,0.149,0.866,0.236,1.092,0.289c3.154,0.151,6.362,0.227,9.634,0.227h0.103h0.097c2.196,0,4.354-0.032,6.48-0.097
		C534.216,708.647,521.073,698.765,510.179,684.427"/>
	<path  d="M559.012,687.312c-26.625-18.439-40.685-50.421-40.663-92.488c0-7.203,0.43-14.866,1.238-22.79
		c-0.539-2.486-1.066-4.854-1.55-6.964c-3.515-14.78-13.24-20.055-20.507-20.066c-4.602,0.012-8.692,1.906-11.819,5.502
		c-1.668,1.927-2.96,4.284-3.885,6.985c-1.115,3.219-1.712,6.934-1.712,11.045c0,2.508,0.21,5.167,0.63,7.89l0.307,1.95l0.065,0.366
		h-0.011c3.315,20.73,7.476,38.783,12.524,54.359c6.227,19.215,13.816,34.641,22.88,46.536c7.018,9.192,14.877,16.297,23.811,21.519
		c10.592,6.188,22.713,9.709,36.842,10.753c0.102,0.012,0.209,0.021,0.306,0.021c3.089,0.206,6.228,0.303,9.258,0.324
		c7.169,0,13.628-0.603,19.311-1.519c7.014-1.13,12.854-2.723,17.374-4.273c-2.329-0.248-5.042-0.603-8.158-1.065
		C601.049,704.707,578.9,701.123,559.012,687.312"/>
</g>
</svg>
