<?xml version="1.0" encoding="utf-8"?>
<!-- Generator: Adobe Illustrator 16.0.0, SVG Export Plug-In . SVG Version: 6.00 Build 0)  -->
<!DOCTYPE svg PUBLIC "-//W3C//DTD SVG 1.1//EN" "http://www.w3.org/Graphics/SVG/1.1/DTD/svg11.dtd">
<svg version="1.1" id="Layer_1" xmlns="http://www.w3.org/2000/svg" xmlns:xlink="http://www.w3.org/1999/xlink" x="0px" y="0px"
	 width="1600px" height="1000px" viewBox="0 0 1600 1000" enable-background="new 0 0 1600 1000" xml:space="preserve">
<g>
	<path  d="M632.511,590.988h15.006l-3.865,8.624H630.83l-3.073,15.49h2.625v-8.509h11.481v8.509h5.775l0.066,8.095
		h-5.841v9.957h5.89l-0.048,8.538h-5.841v11.332l-11.481,4.646v-15.978h-13.246v-8.538h13.246v-9.957h-13.619v-7.507l3.491-16.078
		h-3.385v-8.624h4.75l0.796-4.151h10.993L632.511,590.988z M646.685,610.491l6.788-23.36h12.066l-1.32,4.379h22.524v17.595h-11.336
		v-9.308h-13.072l-3.466,10.694H646.685z M671.542,615.323h4.812l10.389,40.336h-12.021l-6.898-27.671l-7.973,27.671h-12.362
		l14.847-49.8h11.93L671.542,615.323z"/>
	<path  d="M731.669,642.121l10.645,5.464h43.972l-3.564,7.535h-46.316l-5.241-3.897l-11.703,6.544v-54.665h12.208
		V642.121z M725.796,585.989c1.145,0.024,2.253,0.323,3.379,0.902c1.118,0.581,1.997,1.429,2.634,2.547
		c0.651,1.11,0.974,2.279,0.986,3.487c0.008,1.223-0.293,2.355-0.934,3.422c-0.633,1.097-1.489,1.932-2.574,2.542
		c-1.092,0.608-2.25,0.909-3.493,0.909c-1.291,0.026-2.481-0.261-3.566-0.889c-1.087-0.622-1.949-1.459-2.588-2.552
		c-0.621-1.068-0.93-2.226-0.896-3.469c0-1.158,0.317-2.305,0.961-3.434c0.647-1.122,1.521-1.986,2.622-2.578
		C723.433,586.287,724.593,585.989,725.796,585.989z M785.45,593.199l-6.357,7.91h6.357v33.774c0,0,0.439,3.694-2.817,6.362
		c-3.267,2.65-6.231,2.4-6.231,2.4h-6.947v-7.732h4.877v-27.18h-7.586v4.333h6.814l0.005,7.516h-6.819v4.2h6.66l0.02,7.495h-6.68
		v8.503l-11.229,3.604v-12.106h-7.609v7.72l-11.159,3.648v-42.537h7.018l-2.813-4.564l12.641-0.04l3.074,4.604h9.541l4.947-6.299
		h-34.407v-7.594h48.703V593.199z M747.906,613.067h7.609v-4.333h-7.609V613.067z M747.906,624.783h7.609v-4.2h-7.609V624.783z"/>
	<path  d="M825.794,613.75h-6.629v-8.835h33.827l-3.942,8.835h-12.066l-6.862,32.583h9.261l-2.516-22.553h10.857
		l3.67,31.944h-10.989l-0.794-7.765l-3.199,7.282l-17.866-0.041v-7.277L825.794,613.75z M819.461,596.478v-8.693h32.242
		l-3.661,8.693H819.461z M858.615,599.451h-6.223v-8.467h7.206l0.488-4.423h11.653l-0.489,4.423h16.527v55.261
		c0,0,0.664,3.257-2.274,6.155c-2.94,2.904-6.599,2.614-6.599,2.614h-7.654v-8.77h5.077v-46.794h-6.079l-6.401,55.935h-11.65
		L858.615,599.451z"/>
	<path  d="M916.476,655.354l11.598-53.371h-11.299v-9.176l12.363,0.038l0.637-5.644h13.316l-0.648,5.605h40.227
		v53.295c0,0,0.249,3.631-3.141,6.679c-3.389,3.069-7.479,2.573-7.479,2.573h-22.61v-9.252h20.564v-44.119h-28.829l-11.337,53.371
		H916.476z"/>
	<g>
		<g>
			<rect x="1009.78" y="618.341"  width="310.926" height="7.069"/>
		</g>
		<g>
			<rect x="279.917" y="618.341"  width="310.929" height="7.069"/>
		</g>
	</g>
	<path  d="M357.956,342.979c-0.481-0.472-1.14-0.746-1.823-0.746h-1.692c-4.512,0.049-12.398,0.452-22.749,2.263
		c-18.924,3.295-32.726,13.489-41.199,26.203c-7.749,11.642-11.133,29.453-11.133,44.939v28.739c0-3.295,1.746-14.174,8.283-22.105
		c15.675-19.026,37.097-23.878,50.867-23.878h11.897v-0.004c2.633,0.004,4.539,0.004,5.322,0.004h0.397
		c0.69,0,1.346-0.265,1.828-0.742c0.487-0.48,0.756-1.121,0.756-1.799v-51.067C358.71,344.109,358.443,343.457,357.956,342.979z"/>
	<path  d="M486.169,437.829l-0.177,0.417v60.53c0.281,34.211,24.937,60.015,57.358,60.015
		c32.694,0,57.355-26.03,57.355-60.552c0-37.963-24.253-60.553-56.948-60.553c0.017,0-57.171-0.016-57.171-0.016L486.169,437.829z
		 M514.884,498.239c0-17.547,12.767-31.834,28.466-31.834c15.695,0,28.453,14.287,28.453,31.834
		c0,17.546-12.758,31.826-28.453,31.826C527.651,530.065,514.884,515.785,514.884,498.239z"/>
	<path  d="M996.373,437.829l-0.184,0.417v60.53c0.278,34.211,24.936,60.015,57.352,60.015
		c32.702,0,57.355-26.03,57.355-60.552c0-37.963-24.258-60.553-56.939-60.553c0.013,0-57.168-0.016-57.168-0.016L996.373,437.829z
		 M1025.084,498.239c0-17.547,12.77-31.834,28.457-31.834c15.699,0,28.466,14.287,28.466,31.834
		c0,17.546-12.767,31.826-28.466,31.826C1037.854,530.065,1025.084,515.785,1025.084,498.239z"/>
	<path  d="M1235.999,437.699c-0.359,0-0.646,0.286-0.646,0.632v117.671c0,0.344,0.286,0.629,0.646,0.629h84.123
		c0.353,0,0.637-0.285,0.637-0.629v-25.093c0-0.352-0.284-0.637-0.637-0.637h-52.543c-1.101,0-1.997-0.873-1.997-1.964v-15.997
		c0-1.094,0.896-1.966,1.997-1.966h50.068c0.352,0,0.641-0.285,0.641-0.633v-25.096c0-0.345-0.289-0.625-0.641-0.625h-50.068
		c-1.101,0-1.997-0.876-1.997-1.969v-15.997c0-1.094,0.896-1.966,1.997-1.966h52.543c0.353,0,0.637-0.286,0.637-0.635v-25.095
		c0-0.346-0.284-0.632-0.637-0.632H1235.999z"/>
	<path  d="M1183.286,437.699l-0.448,0.183l-0.188,0.449v54.447c0,0.918-0.652,1.725-1.564,1.921
		c-0.914,0.195-1.843-0.27-2.227-1.104l-25.648-55.427c-0.119-0.261-0.383-0.469-0.579-0.469h-28.525l-0.457,0.183l-0.188,0.449
		l0.013,117.671c0,0.344,0.281,0.629,0.636,0.629h28.526l0.456-0.188l0.181-0.44v-54.35c0-0.934,0.653-1.721,1.562-1.916
		c0.922-0.204,1.847,0.262,2.239,1.092l25.64,55.437c0.105,0.218,0.339,0.366,0.588,0.366h28.656l0.458-0.188l0.183-0.44
		l-0.004-117.671c0-0.346-0.286-0.632-0.641-0.632H1183.286z"/>
	<path  d="M408.856,395.957c-19.218,2.772-34.042,12.497-40.677,26.69c-2.71,5.795-4.037,11.679-4.037,17.392
		c0,10.558,4.733,21.016,13.515,28.924c5.702,5.149,13.237,9.389,21.587,12.791c0.005,0,11.929,4.113,11.929,4.113
		c6.894,2.218,14.69,5.374,19.565,7.911c6.021,3.148,11.167,8.273,11.167,15.653c0,2.09-0.48,5.057-1.487,7.303
		c-3.171,7.046-11.984,12.2-23.7,12.001c-18.953-0.337-31.803-11.355-40.667-20.682l-5.678-6.521
		c-2.294-2.968-3.004-4.175-4.127-4.187c-1.057-0.017-1.062,0.925-1.062,2.85v29.708c-0.016,3.059-0.032,6.515,1.745,8.356
		c12.304,12.69,31.096,20.556,49.051,20.53c18.736-0.011,33.048-5.794,43.641-16.114c12.993-12.66,17.358-33.833,10.926-50.652
		c-4.509-11.82-17.735-22.504-41.344-30.41c-16.9-5.656-25.63-10.157-29.568-14.68c-3.479-4.008-4.125-8.877-2.344-13.073
		c2.175-5.117,7.902-8.439,15.449-9.411c6.404-0.819,15.149-0.484,27.426,4.959c5.084,2.263,15.393,7.976,21.143,14.39
		c1.264,1.398,2.356,1.239,2.522,0.537c0.12-0.513,0.083-1.63,0.083-2.71v-24.327l0.018-1.492c0.059-2.566,0.084-3.523-1.639-5.064
		c-3.262-2.912-12.906-8.516-22.232-11.621C429.45,395.585,417.978,394.644,408.856,395.957z"/>
	<path  d="M614.717,437.699c-0.359,0-0.645,0.286-0.645,0.632v117.671c0,0.344,0.286,0.629,0.645,0.629h29.651
		c0.359,0,0.645-0.285,0.645-0.629v-32.562c0-0.53,0.203-1.025,0.579-1.394c0.375-0.377,0.879-0.586,1.407-0.586h44.987
		c0.351,0,0.645-0.285,0.645-0.628v-25.094c0-0.346-0.294-0.635-0.645-0.635h-44.987c-1.105,0-1.986-0.873-1.986-1.974v-27.104
		c0-1.094,0.881-1.966,1.986-1.966h48.49c0.355,0,0.648-0.286,0.648-0.635v-25.095c0-0.346-0.293-0.632-0.648-0.632H614.717z"/>
	<path  d="M707.424,437.699c-0.358,0-0.643,0.286-0.643,0.632v25.095c0,0.349,0.285,0.635,0.643,0.635h21.506
		c1.102,0,1.986,0.872,1.986,1.966v89.976c0,0.344,0.29,0.629,0.648,0.629h29.654c0.349,0,0.643-0.285,0.643-0.629v-89.976
		c0-1.094,0.881-1.966,1.99-1.966h21.489c0.354,0,0.641-0.286,0.641-0.635v-25.095c0-0.346-0.286-0.632-0.641-0.632H707.424z"/>
	<path  d="M906.809,437.699c-0.354,0-0.648,0.286-0.648,0.632v25.095c0,0.349,0.294,0.635,0.648,0.635h21.51
		c1.096,0,1.981,0.872,1.981,1.966v89.976c0,0.344,0.289,0.629,0.64,0.629h29.657c0.354,0,0.647-0.285,0.647-0.629v-89.976
		c0-1.094,0.89-1.966,1.989-1.966h21.49c0.354,0,0.641-0.286,0.641-0.635v-25.095c0-0.346-0.286-0.632-0.641-0.632H906.809z"/>
	<path  d="M840.43,395.957c-19.218,2.772-34.041,12.497-40.671,26.69c-2.715,5.795-4.046,11.679-4.046,17.392
		c0,10.558,4.738,21.016,13.522,28.924c5.696,5.149,13.236,9.389,21.583,12.791c0.008,0,11.927,4.113,11.927,4.113
		c6.892,2.218,14.696,5.374,19.568,7.911c6.022,3.148,11.173,8.273,11.173,15.653c0,2.09-0.489,5.057-1.497,7.303
		c-3.172,7.046-11.98,12.2-23.698,12.001c-18.956-0.337-31.798-11.355-40.667-20.682l-5.68-6.521
		c-2.292-2.968-3.002-4.175-4.127-4.187c-1.052-0.017-1.061,0.925-1.061,2.85v29.708c-0.017,3.059-0.032,6.515,1.745,8.356
		c12.309,12.69,31.102,20.556,49.059,20.53c18.729-0.011,33.045-5.794,43.639-16.114c12.992-12.66,17.35-33.833,10.924-50.652
		c-4.514-11.82-17.736-22.504-41.346-30.41c-16.897-5.656-25.629-10.157-29.564-14.68c-3.482-4.008-4.135-8.877-2.353-13.073
		c2.178-5.117,7.91-8.439,15.459-9.411c6.397-0.819,15.144-0.484,27.421,4.959c5.08,2.263,15.398,7.976,21.144,14.39
		c1.259,1.398,2.355,1.239,2.52,0.537c0.122-0.513,0.082-1.63,0.082-2.71v-24.327l0.024-1.492c0.061-2.566,0.081-3.523-1.639-5.064
		c-3.268-2.912-12.91-8.516-22.231-11.621C861.025,395.585,849.555,394.644,840.43,395.957z"/>
	<path  d="M314.096,556.631c13.053,0,27.477-10.391,27.564-23.248h0.011V424.471h-3.163
		c-23.555,0-40.689,7.308-51.643,20.842c-9.174,11.33-7.506,19.926-7.506,33.301v78.018
		C279.36,556.631,308.617,556.631,314.096,556.631z"/>
</g>
</svg>
