<?xml version="1.0" encoding="utf-8"?>
<!-- Generator: Adobe Illustrator 16.0.0, SVG Export Plug-In . SVG Version: 6.00 Build 0)  -->
<!DOCTYPE svg PUBLIC "-//W3C//DTD SVG 1.1//EN" "http://www.w3.org/Graphics/SVG/1.1/DTD/svg11.dtd">
<svg version="1.1" id="Layer_1" xmlns="http://www.w3.org/2000/svg" xmlns:xlink="http://www.w3.org/1999/xlink" x="0px" y="0px"
	 width="1600px" height="1000px" viewBox="0 0 1600 1000" enable-background="new 0 0 1600 1000" xml:space="preserve">
<g>
	<g>
		<g>
			<path  d="M461.176,503.027H436.57v-27.514h24.606c14.306,0,25.945-11.639,25.945-25.945
				c0-14.307-11.639-25.944-25.945-25.944h-4.267c-2.229,44.158-38.856,79.403-83.56,79.403h-77.886
				c-29.477,0-53.458-23.981-53.458-53.459c0-29.477,23.981-53.459,53.458-53.459h128.997
				c-8.858-19.391-28.437-32.902-51.111-32.902c-17.465,0-33.637,7.921-44.37,21.732l-8.442,10.863l-21.724-16.883l8.441-10.862
				c15.984-20.566,40.075-32.364,66.095-32.364c38.069,0,70.281,25.558,80.38,60.415h7.446c29.477,0,53.458,23.982,53.458,53.459
				C514.634,479.046,490.653,503.027,461.176,503.027z M295.464,423.624c-14.306,0-25.944,11.638-25.944,25.944
				c0,14.306,11.639,25.945,25.944,25.945h77.886c29.528,0,53.807-22.912,55.993-51.89H295.464z"/>
		</g>
		<path  d="M671.01,465.157h-47.82l-11.768,39.226H589.38l45.579-137.48h25.03l45.578,137.48h-22.976L671.01,465.157z
			 M665.78,448.158l-5.417-18.494c-4.67-14.942-8.781-30.259-13.076-45.764h-0.748c-3.923,15.689-8.219,30.821-12.702,45.764
			l-5.603,18.494H665.78z"/>
		<path  d="M723.68,366.902h41.655c30.634,0,52.491,10.459,52.491,41.468c0,30.075-21.857,43.898-51.744,43.898
			h-20.734v52.115H723.68V366.902z M764.028,434.896c22.041,0,32.501-8.406,32.501-26.525c0-18.119-11.395-24.096-33.25-24.096
			h-17.933v50.622H764.028z"/>
		<path  d="M844.528,366.902h21.668v137.48h-21.668V366.902z"/>
		<g>
			<path  d="M985.904,481.89c-10.347,11.474-20.767,16.591-33.786,16.591c-29.198,0-47.335-23.864-47.335-62.277
				c0-37.955,18.424-61.532,48.082-61.532c14.164,0,23.536,7.383,28.904,13.578l1.315,1.517l6.725-7.307l-1.017-1.207
				c-4.222-5.023-16.177-16.705-35.928-16.705c-35.813,0-58.954,28.126-58.954,71.655c0,43.306,23.241,72.401,57.831,72.401
				c16.652,0,29.343-6.126,41.149-19.863l1.061-1.234l-6.757-7.051L985.904,481.89z"/>
			<path  d="M1033.521,498.509c-1.896,0.347-2.775,0.347-3.459,0.347c-0.63,0-2.443,0-2.443-4.371V354.596h-10.145
				v138.767c0,12.599,6.498,15.241,11.924,15.241c2.607,0,3.941-0.308,5.339-0.634l2.407-0.541l-1.905-9.235L1033.521,498.509z"/>
			<path  d="M1101.916,401.72c-26.793,0-45.504,22.091-45.504,53.723c0,31.302,18.711,53.162,45.504,53.162
				c26.791,0,45.504-21.86,45.504-53.162C1147.42,423.811,1128.707,401.72,1101.916,401.72z M1101.916,498.855
				c-20.502,0-34.819-17.853-34.819-43.413c0-25.478,14.644-43.971,34.819-43.971c20.283,0,35.005,18.494,35.005,43.971
				C1136.921,480.598,1122.199,498.855,1101.916,498.855z"/>
			<path  d="M1236.276,478.873c-13.04,14.74-21.073,19.982-31.756,19.982c-10.218,0-21.857-3.449-21.857-30.337
				v-63.207h-8.694v63.955c0,26.774,9.673,39.245,30.9,39.245c13.728,0,23.715-8.443,32.083-17.192l0.54,13.974h8.928v-99.982
				h-10.144V478.873z"/>
			<path  d="M1347.852,354.596V397.4l0.24,14.757c-8.883-6.502-17.202-10.438-28.466-10.438
				c-26.588,0-45.931,22.594-45.931,53.723c0,33.183,15.869,52.995,42.489,52.995c11.575,0,22.468-4.737,31.715-13.724l0.778,10.581
				h9.316V354.596H1347.852z M1347.852,423.929v58.979c-11.592,10.876-20.914,15.947-30.922,15.947
				c-19.986,0-32.497-16.635-32.497-43.413c0-24.657,15.442-43.971,34.979-43.971
				C1329.381,411.471,1337.709,415.204,1347.852,423.929z"/>
		</g>
	</g>
	<g>
		<path  d="M457.199,656.942v4.262h-68.899v-4.262h31.621v-7.132h-25.808v-4.185h25.808v-5.734h-23.406v-23.793
			h23.406v-5.038h-31.156v-4.262h31.156v-5.969c-8.215,0.543-16.508,0.93-24.259,1.086c-0.077-1.241-0.62-3.023-1.084-4.109
			c17.902-0.54,39.836-1.938,51.849-4.184l2.868,4.03c-6.666,1.239-15.191,2.169-24.258,2.867v6.278h31.776v4.262h-31.776v5.038
			h24.413v23.793h-24.413v5.734h27.281v4.185h-27.281v7.132H457.199z M401.553,626.176h18.368v-6.28h-18.368V626.176z
			 M419.92,636.095v-6.355h-18.368v6.355H419.92z M425.036,619.896v6.28h19.221v-6.28H425.036z M444.256,629.739h-19.221v6.355
			h19.221V629.739z"/>
		<path  d="M482.939,640.512c-1.782,5.348-4.883,11.005-7.982,14.725c-0.774-0.696-2.635-2.092-3.643-2.712
			c3.178-3.41,5.813-8.215,7.363-13.098L482.939,640.512z M492.318,636.326v20.307c0,2.559-0.543,3.72-2.17,4.571
			c-1.628,0.776-4.262,0.776-7.906,0.776c-0.155-1.239-0.775-3.101-1.472-4.418c2.635,0.078,4.96,0.078,5.813,0
			c0.852,0,1.007-0.233,1.007-1.008v-20.229h-15.734v-4.494h15.734v-8.448h-16.043v-4.418h21.468
			c1.55-3.644,3.411-9.066,4.417-12.71l4.728,1.085c-1.318,3.798-2.945,8.215-4.417,11.625h10.152v4.418h-15.578v8.448h14.725v4.494
			H492.318z M506.656,605.713H472.71v-4.416h15.578c-1.008-2.326-2.326-5.038-3.488-7.209l4.573-1.241
			c1.549,2.636,3.333,5.968,4.34,8.45h12.943V605.713z M481.08,618.734c-0.31-3.101-1.55-7.827-3.101-11.394l4.108-1.008
			c1.705,3.488,3.101,8.138,3.41,11.16L481.08,618.734z M499.293,639.117c2.48,3.875,5.347,9.067,6.51,12.399l-3.72,2.016
			c-1.162-3.333-4.03-8.68-6.432-12.555L499.293,639.117z M541.609,624.002h-8.758v39.373h-4.96v-39.373h-12.555v2.87
			c0,11.082-1.008,26.039-8.138,36.194c-0.852-1.008-2.79-2.637-3.952-3.18c6.665-9.378,7.363-22.629,7.363-33.015v-26.273
			c8.68-1.475,18.678-3.722,24.18-5.968l4.186,3.719c-6.355,2.48-15.423,4.34-23.638,5.657v15.19h26.273V624.002z"/>
		<path  d="M592.693,656.243c4.031,0.854,8.603,1.086,13.331,1.086c2.558,0,15.965,0,19.453-0.078
			c-0.853,1.317-1.705,3.722-1.938,5.194h-17.749c-16.43,0-28.288-2.789-35.341-16.508c-2.635,7.441-6.432,13.484-11.703,18.059
			c-0.853-0.93-2.945-2.714-4.185-3.488c8.681-6.744,12.943-17.827,14.648-31.852l5.192,0.54c-0.464,3.565-1.163,6.976-1.86,10.152
			c3.1,8.526,8.215,13.02,14.88,15.5v-32.938h-19.685v-4.96h45.339v4.96h-20.384v13.176h23.329v4.883h-23.329V656.243z
			 M563.165,618.268h-5.038v-16.352h30.381c-0.93-2.402-2.402-5.426-3.797-7.828l5.038-1.395c1.782,2.867,3.72,6.742,4.651,9.223
			h27.746v16.352h-5.193v-11.392h-53.787V618.268z"/>
		<path  d="M701.75,600.521c-5.579,15.656-13.02,29.297-24.025,40.379c8.99,8.137,19.53,14.417,31.543,18.214
			c-1.24,1.083-2.712,3.177-3.565,4.571c-12.245-4.106-22.863-10.617-31.853-19.063c-8.68,7.903-19.376,14.259-32.784,18.985
			c-0.543-1.316-1.782-3.177-2.79-4.34c13.02-4.418,23.483-10.539,32.008-18.212c-9.998-10.464-17.825-23.407-23.483-37.822
			l4.65-1.395c5.192,13.329,12.788,25.652,22.631,35.573c10.541-10.617,17.593-23.793,22.476-38.597L701.75,600.521z
			 M675.166,613.31c-1.394-5.116-4.805-12.866-7.594-18.679l4.417-1.784c2.946,5.814,6.278,13.409,7.828,18.447L675.166,613.31z"/>
		<path  d="M745.782,638.109c-1.007-2.324-3.875-6.976-6.2-10.541v36.271h-4.883v-35.262
			c-2.79,8.137-6.587,16.35-10.23,21.232c-0.543-1.314-1.859-3.408-2.713-4.571c4.417-5.579,9.3-15.965,12.013-25.112h-10.851
			v-4.883h11.78v-13.097c-3.177,0.62-6.432,1.241-9.533,1.783c-0.154-1.163-0.93-2.867-1.55-4.03
			c7.673-1.317,16.663-3.642,21.701-6.044l3.332,4.106c-2.634,1.083-5.734,2.093-9.066,3.023v14.258h9.533v4.883h-9.533v1.94
			c2.092,2.402,7.982,9.919,9.3,11.934L745.782,638.109z M792.594,629.584c-6.744,20.15-24.257,30.072-43.169,34.489
			c-0.465-1.318-1.706-3.179-2.635-4.264c8.835-1.782,17.439-4.961,24.568-9.844c-2.402-2.479-6.044-5.345-9.145-7.517l3.796-2.558
			c3.179,1.938,6.744,4.651,9.224,7.054c4.495-3.875,8.215-8.68,10.772-14.339h-15.81c-4.572,4.573-10.231,8.836-17.361,12.321
			c-0.619-1.161-2.17-2.787-3.332-3.563c11.701-5.426,19.763-13.409,23.639-20.305l5.347,1.008c-1.24,2.013-2.711,4.108-4.339,6.121
			h14.259l0.931-0.233L792.594,629.584z M764.384,605.017c-3.488,3.177-7.597,6.122-12.401,8.68
			c-0.776-1.085-2.324-2.714-3.487-3.488c9.61-4.651,16.43-11.394,19.917-17.128l5.271,1.083c-1.395,2.174-3.021,4.343-4.96,6.436
			h15.268l0.93-0.233l3.256,1.782c-6.588,14.339-21.701,22.478-36.893,26.509c-0.542-1.241-1.781-2.947-2.636-3.955
			c6.047-1.396,12.169-3.642,17.672-6.743c-2.092-1.938-5.117-4.262-7.751-5.89l3.72-2.559c2.714,1.629,5.97,3.953,8.218,5.969
			c4.261-2.945,7.981-6.434,10.539-10.462H764.384z"/>
		<path  d="M837.4,652.834c-0.387-1.473-0.852-3.33-1.473-5.348c-21.854,4.805-24.567,5.425-26.194,6.511
			c-0.312-1.086-1.164-3.566-1.782-4.883c1.239-0.233,2.247-2.402,3.486-5.348c1.163-2.558,4.495-11.858,6.511-21.003H807.02v-4.806
			h33.869v4.806h-17.671c-2.015,8.448-5.038,17.281-8.138,24.413l19.375-4.028c-1.472-4.187-3.099-8.526-4.727-12.324l4.262-1.163
			c3.023,6.976,6.433,16.276,7.982,21.622L837.4,652.834z M839.493,604.162h-29.605v-4.648h29.605V604.162z M875.454,613.774
			c-1.084,31.852-2.092,42.703-4.727,46.112c-1.628,1.86-3.023,2.48-5.426,2.712c-2.402,0.156-6.587,0.156-10.772-0.153
			c-0.078-1.473-0.696-3.565-1.629-5.038c4.575,0.465,8.68,0.465,10.31,0.465c1.394,0,2.247-0.153,3.023-1.161
			c2.092-2.325,3.175-12.635,4.028-40.69h-12.168c-1.007,19.066-4.339,36.813-15.732,47.664c-0.93-1.239-2.712-2.943-4.031-3.642
			c10.62-9.766,13.797-26.275,14.805-44.022h-11.239v-4.96h11.472c0.154-5.504,0.232-11.16,0.232-16.663h5.038
			c0,5.503-0.078,11.159-0.312,16.663h17.128V613.774z"/>
		<path  d="M901.118,608.115v16.198c0,11.625-1.008,28.598-7.285,39.991c-0.931-0.93-3.333-2.402-4.419-2.867
			c5.892-10.929,6.511-26.197,6.511-37.124v-21.081h31.157c-1.164-2.712-2.792-6.433-4.418-9.298l4.96-1.319
			c1.937,3.254,4.029,7.595,5.115,10.309l-1.009,0.309h27.125v4.883H901.118z M959.942,655.082v4.961h-57.508v-4.961h31.002
			c7.518-12.09,13.485-27.823,16.508-41.154l5.347,1.938c-3.721,13.02-9.532,27.127-16.584,39.217H959.942z M915.223,646.402
			c-1.473-7.131-5.192-18.136-8.448-26.507l4.496-1.859c3.332,8.446,7.053,19.3,8.757,26.429L915.223,646.402z M930.259,642.141
			c-1.009-7.132-3.875-18.061-6.433-26.429l4.649-1.397c2.636,8.449,5.503,19.222,6.666,26.429L930.259,642.141z"/>
		<path  d="M1038.309,656.399c0,3.565-1.008,5.194-3.41,6.046c-2.557,0.93-7.054,0.93-14.339,0.852
			c-0.154-1.316-1.007-3.565-1.782-4.958c5.58,0.229,10.85,0.153,12.401,0.078c1.471-0.078,2.014-0.545,2.014-2.018v-16.508h-21.624
			v23.175h-5.113v-23.175H986.46c-1.164,8.682-3.721,17.516-9.766,24.258c-0.698-1.006-2.714-2.79-3.875-3.408
			c8.525-9.611,9.377-23.252,9.377-34.181v-27.899h56.112V656.399z M1006.455,635.009v-13.562h-19.222v5.114
			c0,2.714-0.077,5.503-0.311,8.448H1006.455z M987.233,603.544v13.098h19.222v-13.098H987.233z M1033.192,603.544h-21.624v13.098
			h21.624V603.544z M1033.192,635.009v-13.562h-21.624v13.562H1033.192z"/>
		<path  d="M1126.902,630.747h-17.438v33.093h-5.271v-33.093h-22.554c-1.008,12.245-5.036,24.258-19.375,33.249
			c-0.852-1.086-2.713-2.87-4.031-3.722c13.177-8.215,17.129-18.755,18.138-29.527h-18.37v-4.961h18.678
			c0.078-1.161,0.078-2.324,0.078-3.487v-19.066h-15.811v-4.96h63.475v4.96h-14.957v22.554h17.438V630.747z M1104.194,625.786
			v-22.554h-22.243v19.066c0,1.163,0,2.326-0.078,3.487H1104.194z"/>
		<path  d="M1202.092,625.864c-3.256,9.766-8.524,17.516-15.113,23.483c6.821,4.727,15.113,8.215,24.724,10.074
			c-1.163,1.086-2.48,3.177-3.177,4.574c-9.999-2.325-18.523-6.124-25.578-11.394c-7.051,5.191-15.344,8.913-24.023,11.315
			c-0.543-1.319-1.783-3.255-2.713-4.34c8.136-2.016,15.965-5.504,22.783-10.309c-4.882-4.495-8.91-9.843-12.09-15.965
			c-5.424,9.844-12.785,17.979-22.939,24.336c-0.698-1.086-2.48-3.023-3.798-3.877c14.182-8.758,22.862-21.622,27.901-37.898
			h-10.928c-4.961,0-7.441,0.39-8.137,1.241c-0.39-1.163-1.163-3.722-1.784-4.961c1.007-0.233,1.861-1.395,2.712-3.022
			c0.931-1.549,3.799-7.826,5.117-13.719l5.578,1.008c-1.549,5.039-3.643,10.309-5.734,14.417h14.57
			c1.473-5.659,2.557-11.627,3.254-17.982l5.737,0.932c-0.853,5.966-1.862,11.625-3.179,17.051h33.869l-0.078,5.036h-35.186
			c-0.854,2.947-1.783,5.812-2.867,8.526h26.66l0.932-0.233L1202.092,625.864z M1170.006,629.353
			c3.021,6.511,7.363,12.245,12.865,16.895c5.192-4.573,9.533-10.23,12.322-16.895H1170.006z M1199.534,608.349
			c-2.17-3.022-6.588-7.905-9.92-11.549l3.875-2.402c3.41,3.409,7.904,8.217,10.075,11.082L1199.534,608.349z"/>
	</g>
</g>
</svg>
