<?xml version="1.0" encoding="utf-8"?>
<!-- Generator: Adobe Illustrator 16.0.0, SVG Export Plug-In . SVG Version: 6.00 Build 0)  -->
<!DOCTYPE svg PUBLIC "-//W3C//DTD SVG 1.1//EN" "http://www.w3.org/Graphics/SVG/1.1/DTD/svg11.dtd">
<svg version="1.1" id="Layer_1" xmlns="http://www.w3.org/2000/svg" xmlns:xlink="http://www.w3.org/1999/xlink" x="0px" y="0px"
	 width="1600px" height="1000px" viewBox="0 0 1600 1000" enable-background="new 0 0 1600 1000" xml:space="preserve">
<g>
	<rect x="883.222" y="409.998"  width="38.697" height="11.802"/>
	<path  d="M889.785,661.43l-5.857-13.446c-1.885,4.766-3.849,9.339-5.893,13.728l5.61,12.073
		C885.746,669.829,887.79,665.708,889.785,661.43z"/>
	<polygon  points="883.222,452.565 921.919,450.535 921.919,439.216 883.222,439.216 	"/>
	<rect x="883.222" y="380.781"  width="38.697" height="11.806"/>
	<path  d="M1004.382,178.981H595.617c-63.819,0-115.566,51.743-115.566,115.567v410.906
		c0,63.827,51.747,115.564,115.566,115.564h408.765c63.82,0,115.566-51.737,115.566-115.564V294.548
		C1119.948,230.724,1068.202,178.981,1004.382,178.981z M889.223,324.864h103.321v144.149c0,11.091-1.839,19.428-5.518,25.008
		c-3.673,5.575-9.028,9.028-16.055,10.352c-7.031,1.324-18.025,1.981-32.993,1.981c-1.029-5.607-2.156-10.835-3.388-15.672h-12.672
		V471.14l-74.88,4.644l-1.938-21.667l14.904-0.58v-72.756H848.97v-21.284h108.941v21.284h-12.772v68.495l17.225-1.159
		c-0.648,7.608-1.099,14.574-1.354,20.896l-15.87,0.869v11.028c6.192,0,10.492-0.226,12.913-0.673
		c2.421-0.456,4.451-1.756,6.095-3.922c1.65-2.159,2.472-5.107,2.472-8.85V348.661h-77.396V324.864z M862.9,315.575
		c5.807,9.29,12.002,19.737,18.579,31.345l-24.767,9.87c-5.807-12.255-11.479-23.155-17.028-32.702L862.9,315.575z M815.695,341.114
		h25.927v164.854h-25.927V341.114z M625.255,350.017c2.584,17.928,5.481,37.861,8.708,59.788l-16.451,3.676
		c-3.994-25.54-7.225-45.275-9.669-59.206L625.255,350.017z M638.798,394.132c0.258-10.315,0.452-36.312,0.583-77.979h23.607
		c-0.257,11.871-0.453,25.931-0.583,42.186c2.965-4.129,5.931-8.322,8.902-12.582l9.479,10.448v-15.67h46.248
		c-2.585-6.191-5.55-12.897-8.903-20.123l28.827-5.223c3.357,6.448,7.225,14.896,11.614,25.346h39.856v22.058h-56.693
		c-8.513,12.125-18.514,26.056-29.988,41.795c10.314-0.773,20.697-1.614,31.15-2.516c6.063-9.159,12.188-19.029,18.384-29.603
		l26.313,13.158c-23.092,33.408-45.413,62.239-66.95,86.489c9.294-0.645,21.864-1.743,37.734-3.288
		c-3.87-7.868-7.808-15.485-11.808-22.834l23.225-10.836c13.801,24.898,24.245,45.279,31.344,61.141l-24.768,11.612
		c-2.193-5.288-4.451-10.449-6.769-15.48c-38.317,3.354-65.466,6.448-81.458,9.289l-9.294-23.994
		c14.966-12.123,30.706-29.347,47.212-51.661c-15.995,1.291-28.765,2.902-38.308,4.836l-7.355-23.218
		c8.382-8.253,18.961-23.219,31.731-44.891h-25.536l1.353,1.356c-9.805,10.189-18.444,18.894-25.924,26.12
		c-0.391,12.901-1.232,24.7-2.522,35.41c8.904,11.091,18.188,22.574,27.864,34.44l-19.736,17.219
		c-4.516-7.608-9.091-15.154-13.731-22.635c-5.806,21.28-14.585,39.405-26.321,54.366c-1.542-1.544-8.259-8.77-20.121-21.67
		C627.192,464.628,637.637,433.605,638.798,394.132z M701.606,687.997c0,2.502-0.529,4.48-1.592,5.937
		c-1.064,1.454-2.544,2.373-4.442,2.763c-1.896,0.392-5.405,0.586-10.518,0.586c-0.244-3.202-0.781-6.23-1.615-9.085l-1.695,3.595
		c-2.102-1.293-4.983-2.637-8.643-4.038c2.692-5.062,5.034-10.98,7.026-17.767l9.045,2.748c-1.451,4.871-3.176,9.582-5.168,14.13
		c1.316,0.109,2.636,0.166,3.959,0.166c2.045,0,3.092-1.218,3.15-3.638v-14.858h-15.184v-9.047h15.184v-5.248h-16.476v-9.041h8.68
		c-1.132-2.21-2.301-4.311-3.512-6.3l8.802-3.558c2.153,3.581,3.956,6.866,5.41,9.857h3.552c2.67-4.498,4.496-7.837,5.494-10.014
		h-26.972v-9.046h14.375c-0.726-1.966-1.429-3.744-2.1-5.329l11.145-2.02c0.78,2.099,1.586,4.55,2.422,7.349h13.566v9.046h-11.063
		c1.478,0.67,4.359,1.935,8.639,3.792c-0.887,1.373-2.261,3.448-4.117,6.222h8.317v9.041h-15.668v5.248h14.214v9.047h-14.214
		V687.997z M754.262,645.199v10.573h-6.138v41.997h-10.661v-41.997h-7.106v4.606c0,17.039-3.69,30.039-11.063,39.004
		c-3.66-3.176-7.054-5.867-10.177-8.074c3.07-2.722,5.465-6.098,7.189-10.136l-8.238,4.641c-1.884-4.249-3.932-8.232-6.136-11.946
		l7.751-3.88c1.912,2.587,4.131,6.287,6.665,11.104c2.232-5.248,3.352-11.613,3.352-19.098v-36.342
		c12.273-1.236,22.261-3.202,29.958-5.893l4.604,10.577c-7.27,1.936-15.237,3.31-23.905,4.119v10.743H754.262z M837.888,680.567
		h-32.784v18.413h-11.79v-18.413h-33.352v-10.175h33.352v-7.589h11.79v7.589h32.784V680.567z M833.73,659.852
		c-2.369,1.859-5.345,2.789-8.922,2.789h-14.217c-7.806,0-11.708-3.636-11.708-10.9v-1.497c-3.581,1.511-7.268,2.947-11.064,4.318
		c-1.778-3.603-3.528-6.783-5.248-9.528v18.98h-10.74v-18.536c-2.639,2.425-5.387,4.702-8.238,6.827
		c-1.884-4.309-3.445-7.513-4.684-9.611c8.561-6.032,15.91-14.135,22.048-24.308l9.526,4.683c-2.477,3.877-5.114,7.539-7.912,10.984
		v10.698c5.706-1.857,11.146-3.862,16.312-6.016v-18.573h10.74v13.649c6.946-3.501,13.352-7.35,19.221-11.549l6.701,8.074
		c-7.698,5.464-16.34,10.499-25.922,15.1v3.394c0,3.069,1.83,4.602,5.491,4.602h6.703c2.584,0,4.341-0.771,5.271-2.32
		c0.926-1.548,1.595-5.135,1.996-10.761c3.175,1.237,6.566,2.369,10.175,3.39C837.941,652.627,836.1,657.997,833.73,659.852z
		 M920.392,684.283c0,4.174-0.793,7.378-2.384,9.629c-1.589,2.244-3.816,3.56-6.682,3.936c-2.867,0.377-8.216,0.566-16.048,0.566
		c-0.76-4.358-1.595-8.133-2.508-11.307c3.822,0.378,7.7,0.567,11.628,0.567c3.449,0,5.171-1.697,5.171-5.087v-50.23h-51.766v7.024
		l7.595-3.957l7.144,14.657c2.127-4.815,4.132-9.838,6.016-15.062l5.451,2.506l4.323-1.938l6.541,14.17
		c2.017-4.818,3.958-9.836,5.816-15.061l8.72,3.716c-2.724,8.074-5.734,15.827-9.043,23.259l8.477,18.896l-9.129,4.521l-4.88-11.79
		c-2.611,5.168-5.346,10.175-8.201,15.021c-1.209-0.942-2.406-1.842-3.593-2.706l-4.32,2.141l-6.257-14.855
		c-3.099,5.841-6.343,11.276-9.733,16.31c-1.345-1.265-2.988-2.691-4.926-4.278v13.403h-10.821v-76.07h73.409V684.283z
		 M795.585,578.112c-98.712-0.803-240.763,17.655-240.763,17.655s98.713-43.336,256.813-43.336
		c137.238,0,233.541,43.336,233.541,43.336S894.296,578.914,795.585,578.112z"/>
	<path  d="M857.804,640.995v36.866c3.366-5.223,6.529-10.78,9.49-16.677
		C864.117,654.133,860.955,647.404,857.804,640.995z"/>
</g>
</svg>
