<?xml version="1.0" encoding="utf-8"?>
<!-- Generator: Adobe Illustrator 16.0.0, SVG Export Plug-In . SVG Version: 6.00 Build 0)  -->
<!DOCTYPE svg PUBLIC "-//W3C//DTD SVG 1.1//EN" "http://www.w3.org/Graphics/SVG/1.1/DTD/svg11.dtd">
<svg version="1.1" id="Layer_1" xmlns="http://www.w3.org/2000/svg" xmlns:xlink="http://www.w3.org/1999/xlink" x="0px" y="0px"
	 width="1600px" height="1000px" viewBox="0 0 1600 1000" enable-background="new 0 0 1600 1000" xml:space="preserve">
<g>
	<path  d="M844.713,353.746v-7.055h53.636v-51.376H755.626v51.376h54.544v7.055h-59.993v15.109h59.993v39.297h34.542
		v-39.297h55.455v-15.109H844.713z M787.451,331.079v-21.157h78.175v21.157h-11.821H787.451z"/>
	<path  d="M753.662,293.297h-34.554c0,0-4.634,10.402-12.612,19.402c-10.168,11.468-24.218,22.14-24.218,22.14
		l21.535-3.768v77.086h32.733v-88.452c1.354-1.3,2.683-2.641,3.881-3.977C750.093,304.812,753.662,293.297,753.662,293.297"/>
	<path  d="M711.838,456.408c0,0-0.744-9.372-6.229-18.163c-6.12-9.815-17.031-19.146-17.031-19.146
		s37.226,0,46.999,16.852c5.965,9.565,7.665,20.458,7.665,20.458H711.838z"/>
	<path  d="M737.624,497.85c5.618-23.434,5.618-26.979,5.618-26.979h-31.404c0,0,0.61,9.797-4.624,24.224
		c-5.725,15.833-25.475,38.715-25.475,38.715S732.308,519.988,737.624,497.85"/>
	<path  d="M897.437,442.299v-16.115h-39.092l-7.055-7.048h-35.466l6.157,7.048h-25.249
		c2.179-4.084,3.449-7.091,3.449-7.091h-10.948h-25.428h-1.246c0,0-2.67,7.385-8.06,14.918c-4.504,6.3-10.66,12.349-13.02,14.618
		l-0.395,0.198h0.179c-0.49,0.455-0.838,0.784-0.838,0.784h9.75v83.865h146.35v-16.116h-38.183v-14.102h38.183V486.64h-38.183
		v-13.607h38.183v-16.63h-38.183v-14.104H897.437z M824.725,517.359h-39.095v-13.599h39.095V517.359z M824.725,487.142h-39.095
		v-14.109h39.095V487.142z M824.725,456.402h-39.095v-13.6h39.095V456.402z"/>
	<path  d="M794.361,392.409c6.491-8.762,8.683-18.032,8.683-18.032h-31.008c0,0-0.826,7.408-6.588,15.181
		c-6.683,9.019-18.445,18.595-18.445,18.595S785.629,405.212,794.361,392.409"/>
	<path  d="M858.309,392.409c-5.151-9.229-8.685-18.032-8.685-18.032h31.012c0,0,0.825,7.408,6.585,15.181
		c6.685,9.019,18.444,18.595,18.444,18.595S866.178,406.476,858.309,392.409"/>
	<path  d="M1075.001,503.354h-95.699c-1.401,0-2.538-1.126-2.538-2.526c0-1.397,1.137-2.541,2.538-2.541h95.699
		c1.401,0,2.526,1.144,2.526,2.541C1077.527,502.228,1076.402,503.354,1075.001,503.354"/>
	<path  d="M629.734,503.358H524.981c-1.401,0-2.526-1.125-2.526-2.527c0-1.394,1.125-2.539,2.526-2.539h104.753
		c1.402,0,2.528,1.145,2.528,2.539C632.262,502.233,631.136,503.358,629.734,503.358"/>
	<path  d="M799.99,275.996c-1.389,0-2.527-1.126-2.527-2.527v-26.379c0-1.396,1.138-2.54,2.527-2.54
		c1.402,0,2.528,1.144,2.528,2.54v26.379C802.518,274.87,801.392,275.996,799.99,275.996"/>
	<path  d="M799.99,758.856c-1.389,0-2.527-1.125-2.527-2.521v-25.732c0-1.402,1.138-2.527,2.527-2.527
		c1.402,0,2.528,1.125,2.528,2.527v25.732C802.518,757.731,801.392,758.856,799.99,758.856"/>
	<path  d="M959.742,610.472c0,0-9.725,28.979-68.149,28.979h-72.176v-31.566H894.3v-36.314h-74.883v-24.015h-39.8
		v24.015h-40.651c4.779-9.701,7.545-17.881,7.545-17.881h-31.93c0,0-5.247,14.689-13.224,28.438
		c-15.654,26.944-35.093,41.873-35.093,41.873s30.649,0,53.454-16.115h58.976v31.566h-80.583c-58.425,0-69.264-30.058-69.264-30.058
		s-8.217,73.122,71.061,73.122h78.786v28.032h40.722v-28.032h70.393C969.074,682.515,959.742,610.472,959.742,610.472"/>
	<path  d="M805.369,212.773L805.369,212.773c0,11.762,8.923,21.613,20.638,22.751
		c134.539,13.074,239.71,126.474,239.71,264.451c0,145.853-117.615,264.488-263.462,265.704
		c-147.788,1.227-267.979-118.21-267.979-265.704c0-137.977,105.16-251.377,239.724-264.451
		c11.702-1.138,20.613-10.989,20.613-22.751c-156.675,2.881-282.711,131.193-281.86,288.771
		c0.838,158.303,128.947,285.681,287.249,285.681c158.639,0,287.251-128.606,287.251-287.25
		C1087.253,343.122,961.54,215.642,805.369,212.773"/>
</g>
</svg>
