<?xml version="1.0" encoding="utf-8"?>
<!-- Generator: Adobe Illustrator 16.0.0, SVG Export Plug-In . SVG Version: 6.00 Build 0)  -->
<!DOCTYPE svg PUBLIC "-//W3C//DTD SVG 1.1//EN" "http://www.w3.org/Graphics/SVG/1.1/DTD/svg11.dtd">
<svg version="1.1" id="Layer_1" xmlns="http://www.w3.org/2000/svg" xmlns:xlink="http://www.w3.org/1999/xlink" x="0px" y="0px"
	 width="1600px" height="1000px" viewBox="0 0 1600 1000" enable-background="new 0 0 1600 1000" xml:space="preserve">
<g>
	<path  d="M1185.484,428.752h-113.676c-3.582,0-6.477-2.903-6.477-6.475c0-3.573,2.895-6.475,6.477-6.475h113.676
		c3.566,0,6.471,2.901,6.471,6.475C1191.955,425.849,1189.051,428.752,1185.484,428.752"/>
	<path  d="M1184.391,622.301h-117.215c-3.568,0-6.465-2.909-6.465-6.482c0-3.568,2.896-6.467,6.465-6.467h116.959
		c4.328-0.38,57.734-6.158,57.734-62.038c0-56.612-62.432-57.457-65.092-57.465H1043.58c-3.57,0-6.473-2.904-6.473-6.475
		c0-3.576,2.902-6.475,6.473-6.475h133.205c26.984,0,78.033,14.718,78.033,70.414c0,69.175-69.264,74.911-69.957,74.959
		C1184.717,622.288,1184.547,622.301,1184.391,622.301"/>
	<path  d="M984.971,622.301h-70.033c-3.582,0-6.473-2.909-6.473-6.482c0-3.568,2.891-6.467,6.473-6.467h63.549
		V385.943c0-3.572,2.902-6.475,6.484-6.475c3.568,0,6.473,2.902,6.473,6.475v229.875
		C991.443,619.392,988.539,622.301,984.971,622.301"/>
	<path  d="M703.067,482.234c-3.577,0-6.471-2.9-6.471-6.475v-89.812c0-3.578,2.895-6.482,6.471-6.482
		c3.579,0,6.476,2.904,6.476,6.482v89.812C709.543,479.334,706.646,482.234,703.067,482.234"/>
	<path  d="M596.5,622.301c-1.42,0-2.853-0.471-4.043-1.425c-2.788-2.23-3.239-6.309-1.009-9.102l106.567-133.208
		c1.194-1.496,2.997-2.38,4.912-2.421c1.939-0.041,3.744,0.758,5.014,2.189l114.177,130.177c2.355,2.687,2.094,6.774-0.605,9.127
		c-2.685,2.362-6.77,2.094-9.135-0.59l-109.071-124.36L601.547,619.87C600.278,621.468,598.393,622.301,596.5,622.301"/>
	<path  d="M844.895,619.247c-1.318,0-2.639-0.393-3.787-1.219c-2.885-2.105-3.547-6.152-1.441-9.048l76.123-105.043
		c2.094-2.9,6.135-3.551,9.029-1.443c2.902,2.094,3.539,6.145,1.453,9.035l-76.125,105.045
		C848.885,618.322,846.904,619.247,844.895,619.247"/>
	<path  d="M1061.848,586.896c-1.654,0-3.312-0.628-4.57-1.891c-2.531-2.532-2.531-6.629,0-9.165l61.654-61.654
		c2.52-2.521,6.621-2.521,9.148,0c2.525,2.535,2.525,6.628,0,9.159l-61.658,61.66
		C1065.166,586.269,1063.508,586.896,1061.848,586.896"/>
	<path  d="M1116.467,586.896c-1.654,0-3.32-0.628-4.576-1.891c-2.535-2.532-2.535-6.629,0-9.165l61.654-61.654
		c2.527-2.521,6.621-2.521,9.148,0c2.531,2.535,2.531,6.628,0,9.159l-61.648,61.66
		C1119.779,586.269,1118.121,586.896,1116.467,586.896"/>
	<path  d="M1198.102,465.085h-126.355c-13.645,0-24.742-11.106-24.742-24.744v-36.129
		c0-13.641,11.098-24.745,24.742-24.745h126.355c13.645,0,24.74,11.104,24.74,24.745v36.129
		C1222.842,453.979,1211.746,465.085,1198.102,465.085 M1071.746,392.416c-6.506,0-11.793,5.287-11.793,11.796v36.129
		c0,6.506,5.287,11.795,11.793,11.795h126.355c6.508,0,11.801-5.289,11.801-11.795v-36.129c0-6.509-5.293-11.796-11.801-11.796
		H1071.746z"/>
	<path  d="M1017.693,465.085H820.549c-3.574,0-6.471-2.9-6.471-6.477c0-3.572,2.896-6.473,6.471-6.473h197.145
		c3.586,0,6.479,2.9,6.479,6.473C1024.172,462.185,1021.279,465.085,1017.693,465.085"/>
	<path  d="M514.289,575.533c-13.161,7.864-28.545,12.381-44.989,12.381c-48.549,0-87.916-39.356-87.916-87.919
		c0-48.553,39.367-87.909,87.916-87.909c45.114,0,82.262,33.977,87.314,77.731l35.993-3.878
		c-6.993-61.929-59.518-110.061-123.307-110.061c-68.545,0-124.117,55.576-124.117,124.116c0,68.545,55.572,124.126,124.117,124.126
		c24.055,0,46.489-6.866,65.505-18.709L514.289,575.533z"/>
	<path  d="M514.289,575.533c25.706-15.342,42.93-43.426,42.93-75.538c0-3.438-0.222-6.831-0.605-10.178
		l-94.212,10.178L514.289,575.533z"/>
</g>
</svg>
