<?xml version="1.0" encoding="utf-8"?>
<!-- Generator: Adobe Illustrator 16.0.0, SVG Export Plug-In . SVG Version: 6.00 Build 0)  -->
<!DOCTYPE svg PUBLIC "-//W3C//DTD SVG 1.1//EN" "http://www.w3.org/Graphics/SVG/1.1/DTD/svg11.dtd">
<svg version="1.1" id="Layer_1" xmlns="http://www.w3.org/2000/svg" xmlns:xlink="http://www.w3.org/1999/xlink" x="0px" y="0px"
	 width="1600px" height="1000px" viewBox="0 0 1600 1000" enable-background="new 0 0 1600 1000" xml:space="preserve">
<g>
	<path  d="M491.855,543.082c-11.591,0-21.69,6.285-27.152,15.621l-0.036-0.02
		c-20.293,34.914-58.074,58.401-101.365,58.401c-40.066,0-75.404-20.116-96.526-50.792l0.054-0.043
		c-3.179-4.678-5.046-10.327-5.046-16.409c0-16.146,13.092-29.235,29.23-29.235c10.055,0,18.915,5.076,24.18,12.799l0.04-0.029
		c10.584,15.175,28.162,25.116,48.068,25.116c32.365,0,58.597-26.238,58.597-58.606c0-32.358-26.232-58.597-58.593-58.597
		c-20.46,0-38.407,10.516-48.885,26.408c-5.199,8.079-14.256,13.441-24.577,13.441c-16.149,0-29.233-13.084-29.233-29.231
		c0-6.391,2.076-12.286,5.554-17.095l-0.192-0.136c21.031-31.339,56.754-51.984,97.333-51.984
		c43.417,0,81.289,23.632,101.544,58.715l0.092-0.057c5.459,9.271,15.514,15.508,27.046,15.508c17.342,0,31.398-14.061,31.398-31.4
		c0-5.88-1.644-11.37-4.457-16.071c-15.259-26.272-37.362-49.05-65.543-65.356c-86.133-49.811-196.339-20.359-246.152,65.779
		c-49.812,86.132-20.371,196.344,65.764,246.154c86.133,49.819,196.339,20.368,246.152-65.77l-0.028-0.019
		c2.649-4.607,4.189-9.938,4.189-15.635C523.312,557.167,509.229,543.082,491.855,543.082"/>
	<line  x1="665.534" y1="577.761" x2="654.483" y2="614.479"/>
	<rect x="611.269" y="380.778"  width="232.394" height="17.936"/>
	<path  d="M937.713,605.292l172.807-198.979c4.291-4.302,5.371-10.755,2.696-16.4
		c-2.425-5.908-7.796-9.13-13.982-9.13h-16.363h-64.505v-19.049h-40.836v19.049h-87.23h-0.357v15.315h0.357v2.616h165.573
		c4.765,0,7.288,5.65,4.095,9.201L882.424,605.292v17.931h252.281v-15.315v-2.615H937.713z"/>
	<path  d="M843.371,605.757l-23.91-85.701h-42.445l21.467,75.825c1.184,4.184-1.958,8.34-6.307,8.34H666.309
		c-4.392,0-7.542-4.241-6.272-8.444l36.362-120.539h146.972v-0.052V459.88v-2.573H610.978v2.573v15.306v0.052h43.24L615.01,605.757
		c-2.414,8.336,3.222,16.391,12.354,16.391h13.032h173.557h18.139C840.413,622.147,845.785,613.82,843.371,605.757"/>
	<polygon  points="1214.753,396.366 1214.753,380.778 1162.302,380.778 1162.302,396.366 1162.302,398.714 
		1214.753,398.714 	"/>
	<path  d="M1222.486,598.233l-0.004-137.658c0-9.651-7.824-17.47-17.481-17.47h-42.699v17.931h10.647
		c3.62,0,6.555,2.931,6.555,6.557v138.436c0,10.212,8.328,18.003,19.064,18.003h40.844v-15.32h-5.912
		C1227.324,608.711,1222.486,603.883,1222.486,598.233"/>
	<path  d="M1408.396,608.447c-5.907,0-10.735-4.574-10.735-10.205V399.043c0-9.929-8.332-18.26-18.806-18.26h-12.421
		h-124.865h-1.616v17.931h31.435v44.391h-31.435v17.931h31.435v162.996h42.445V461.036h41.104v144.989
		c0,10.21,8.601,18.007,18.811,18.007H1417v-15.584H1408.396z M1354.936,443.105h-41.104v-44.391h34.553
		c3.62,0,6.551,2.931,6.551,6.552V443.105z"/>
</g>
</svg>
