<?xml version="1.0" encoding="utf-8"?>
<!-- Generator: Adobe Illustrator 16.0.0, SVG Export Plug-In . SVG Version: 6.00 Build 0)  -->
<!DOCTYPE svg PUBLIC "-//W3C//DTD SVG 1.1//EN" "http://www.w3.org/Graphics/SVG/1.1/DTD/svg11.dtd">
<svg version="1.1" id="Layer_1" xmlns="http://www.w3.org/2000/svg" xmlns:xlink="http://www.w3.org/1999/xlink" x="0px" y="0px"
	 width="1600px" height="1000px" viewBox="0 0 1600 1000" enable-background="new 0 0 1600 1000" xml:space="preserve">
<g>
	<g>
		<g>
			<g>
				<path id="XMLID_112_"  d="M980.653,595.177v-21.496c3.461,0,6.273-2.572,6.273-5.739V540.22h21.496v27.722
					C1008.423,582.956,995.966,595.177,980.653,595.177z"/>
			</g>
			<g>
				<path id="XMLID_111_"  d="M1084.151,595.177c-16.236,0-29.439-12.941-29.439-28.85V540.22h21.494v26.107
					c0,4.055,3.562,7.354,7.945,7.354c4.371,0,7.932-3.294,7.932-7.346V455.583h21.496v110.752
					C1113.579,582.239,1100.374,595.177,1084.151,595.177z"/>
			</g>
			<g>
				<rect id="XMLID_110_" x="1092.019" y="449.139"  width="85.507" height="18.424"/>
			</g>
			<g>
				<rect id="XMLID_109_" x="1020.83" y="443.114"  width="21.495" height="17.588"/>
			</g>
			<g>
				<g>
					<rect id="XMLID_108_" x="991.285" y="468.901"  width="21.495" height="25.445"/>
				</g>
				<g>
					<rect id="XMLID_107_" x="1050.38" y="468.901"  width="21.495" height="25.445"/>
				</g>
			</g>
			<g>
				<rect id="XMLID_106_" x="1020.83" y="503.456"  width="21.495" height="90.307"/>
			</g>
			<g>
				<rect id="XMLID_105_" x="1141.151" y="503.622"  width="21.494" height="90.141"/>
			</g>
			<g>
				<g>
					<g>
						<rect id="XMLID_104_" x="1032.757" y="404.823"  width="21.495" height="35.232"/>
					</g>
					<g>
						<rect id="XMLID_103_" x="1103.39" y="404.823"  width="21.494" height="35.232"/>
					</g>
				</g>
				<g>
					<rect id="XMLID_102_" x="977.231" y="413.442"  width="203.178" height="18.428"/>
				</g>
			</g>
			<g>
				<g>
					<rect id="XMLID_101_" x="1197.48" y="413.442"  width="191.539" height="18.428"/>
				</g>
			</g>
			<g>
				<rect id="XMLID_100_" x="981.595" y="452.508"  width="99.971" height="18.424"/>
			</g>
			<g>
				<rect id="XMLID_99_" x="977.231" y="490.794"  width="108.696" height="18.429"/>
			</g>
			<g>
				<rect id="XMLID_98_" x="1101.122" y="490.794"  width="79.475" height="18.429"/>
			</g>
			<g>
				<rect id="XMLID_97_" x="980.653" y="518.401"  width="101.854" height="18.424"/>
			</g>
			<g>
				<path id="XMLID_96_"  d="M775.709,594.983v-24.562c36.419,0,80.861-66.712,80.861-90.933v-62.967h24.562v62.967
					C881.132,513.546,830.065,594.983,775.709,594.983z"/>
			</g>
			<g>
				<path id="XMLID_95_"  d="M961.993,594.983c-54.356,0-105.423-81.438-105.423-115.494v-62.967h24.562v62.967
					c0,24.221,44.443,90.933,80.861,90.933V594.983z"/>
			</g>
			<g>
				<path id="XMLID_94_"  d="M1278.298,593.681h-37.73v-21.496h37.73c4.419,0,8.002-3.582,8.002-8.002V404.854h21.495
					v159.328C1307.795,580.472,1294.591,593.681,1278.298,593.681z"/>
			</g>
			<g>
				<g>
					<rect id="XMLID_93_" x="1214.583" y="438.013"  width="158.655" height="18.42"/>
				</g>
			</g>
			<g>
				<g>
					<rect id="XMLID_92_" x="1206.694" y="491.674"  width="154.264" height="18.424"/>
				</g>
			</g>
			<g>
				<g>
					<rect id="XMLID_91_" x="1214.583" y="465.651"  width="158.655" height="18.423"/>
				</g>
			</g>
			<g>
				<g>
					<g>
						<rect id="XMLID_90_" x="1212.898" y="438.136"  width="21.495" height="45.877"/>
					</g>
				</g>
				<g>
					<g>
						<rect id="XMLID_89_" x="1353.433" y="438.136"  width="21.494" height="45.877"/>
					</g>
				</g>
			</g>
			<g>
				<g>
					<path id="XMLID_88_"  d="M1356.429,572.435L1356.429,572.435v-80.826h21.496v59.331
						C1377.925,562.81,1368.304,572.435,1356.429,572.435z"/>
				</g>
			</g>
			<g>
				<g>
					<rect id="XMLID_87_" x="1197.48" y="517.776"  width="191.539" height="18.424"/>
				</g>
			</g>
			<g>
				<g>
					<rect id="XMLID_86_" x="1206.694" y="543.878"  width="154.264" height="18.424"/>
				</g>
			</g>
		</g>
		<g>
			<path id="XMLID_85_"  d="M564.534,595.177v-21.496c3.461,0,6.274-2.572,6.274-5.739V540.22h21.495v27.722
				C592.304,582.956,579.848,595.177,564.534,595.177z"/>
		</g>
		<g>
			<path id="XMLID_84_"  d="M668.032,595.177c-16.235,0-29.439-12.941-29.439-28.85V540.22h21.494v26.107
				c0,4.055,3.566,7.354,7.945,7.354c4.371,0,7.933-3.294,7.933-7.346V455.583h21.495v110.752
				C697.46,582.239,684.261,595.177,668.032,595.177z"/>
		</g>
		<g>
			<rect id="XMLID_83_" x="675.903" y="449.139"  width="85.504" height="18.424"/>
		</g>
		<g>
			<rect id="XMLID_82_" x="604.716" y="443.114"  width="21.495" height="17.588"/>
		</g>
		<g>
			<g>
				<rect id="XMLID_81_" x="575.171" y="468.901"  width="21.49" height="25.445"/>
			</g>
			<g>
				<rect id="XMLID_75_" x="634.261" y="468.901"  width="21.496" height="25.445"/>
			</g>
		</g>
		<g>
			<rect id="XMLID_74_" x="604.716" y="503.456"  width="21.495" height="90.307"/>
		</g>
		<g>
			<rect id="XMLID_73_" x="725.036" y="503.622"  width="21.49" height="90.141"/>
		</g>
		<g>
			<g>
				<g>
					<rect id="XMLID_72_" x="616.638" y="404.823"  width="21.5" height="35.232"/>
				</g>
				<g>
					<rect id="XMLID_71_" x="687.271" y="404.823"  width="21.499" height="35.232"/>
				</g>
			</g>
			<g>
				<rect id="XMLID_70_" x="561.118" y="413.442"  width="203.172" height="18.428"/>
			</g>
		</g>
		<g>
			<rect id="XMLID_69_" x="565.476" y="452.508"  width="99.972" height="18.424"/>
		</g>
		<g>
			<rect id="XMLID_68_" x="561.118" y="490.794"  width="108.691" height="18.429"/>
		</g>
		<g>
			<rect id="XMLID_67_" x="685.004" y="490.794"  width="79.474" height="18.429"/>
		</g>
		<g>
			<rect id="XMLID_66_" x="564.534" y="518.401"  width="101.857" height="18.424"/>
		</g>
	</g>
	<g id="XMLID_76_">
		<path id="XMLID_80_"  d="M245.435,403.283c-16.81,18.397-28.867,41.188-34.297,66.449
			c10.732-1.173,20.865-4.349,30-9.179c-6.173,11.682-9.703,24.982-9.703,39.113c0,14.132,3.53,27.432,9.703,39.118
			c-9.179-4.853-19.363-8.037-30.157-9.192c5.359,25.529,17.496,48.561,34.454,67.119c36.913-16.6,62.66-53.613,62.66-96.712
			C308.095,456.905,282.348,419.882,245.435,403.283z"/>
		<path id="XMLID_79_"  d="M351.339,543.248c-43.096,0-80.113,25.743-96.708,62.656
			c18.394,16.805,41.183,28.862,66.44,34.292c-1.172-10.732-4.354-20.86-9.179-29.991c11.682,6.173,24.981,9.704,39.114,9.704
			c14.131,0,27.432-3.531,39.113-9.704c-4.848,9.175-8.033,19.355-9.192,30.149c25.529-5.355,48.563-17.496,67.124-34.455
			C431.452,568.991,394.435,543.248,351.339,543.248z"/>
		<path id="XMLID_78_"  d="M491.693,529.593c-10.79,1.155-20.975,4.34-30.149,9.192
			c6.169-11.687,9.699-24.986,9.699-39.118c0-14.131-3.53-27.432-9.699-39.113c9.131,4.83,19.255,8.006,29.992,9.179
			c-5.426-25.262-17.488-48.052-34.297-66.449c-36.913,16.599-62.656,53.622-62.656,96.717c0,43.099,25.743,80.112,62.656,96.712
			C474.201,578.153,486.338,555.122,491.693,529.593z"/>
		<path id="XMLID_77_"  d="M380.928,359.646c1.159,10.793,4.345,20.975,9.192,30.153
			c-11.682-6.169-24.982-9.704-39.113-9.704c-14.133,0-27.433,3.535-39.114,9.704c4.825-9.136,8.007-19.259,9.179-29.995
			c-25.258,5.424-48.047,17.482-66.445,34.291c16.6,36.914,53.617,62.661,96.713,62.661s80.113-25.747,96.713-62.661
			C429.491,377.138,406.457,365.001,380.928,359.646z"/>
	</g>
</g>
</svg>
