<?xml version="1.0" encoding="utf-8"?>
<!-- Generator: Adobe Illustrator 16.0.0, SVG Export Plug-In . SVG Version: 6.00 Build 0)  -->
<!DOCTYPE svg PUBLIC "-//W3C//DTD SVG 1.1//EN" "http://www.w3.org/Graphics/SVG/1.1/DTD/svg11.dtd">
<svg version="1.1" id="Layer_1" xmlns="http://www.w3.org/2000/svg" xmlns:xlink="http://www.w3.org/1999/xlink" x="0px" y="0px"
	 width="1600px" height="1000px" viewBox="0 0 1600 1000" enable-background="new 0 0 1600 1000" xml:space="preserve">
<g>
	<g>
		<path  d="M558.424,423.71c0.062-0.152,0.123-0.302,0.177-0.454c0.063-0.18,0.119-0.359,0.171-0.536
			c0.039-0.135,0.077-0.267,0.112-0.4c0.048-0.192,0.088-0.384,0.125-0.577c0.025-0.133,0.049-0.265,0.07-0.4
			c0.027-0.185,0.049-0.373,0.066-0.56c0.014-0.149,0.025-0.299,0.034-0.449c0.007-0.168,0.012-0.334,0.012-0.501
			c0-0.172-0.004-0.345-0.013-0.521c-0.008-0.144-0.019-0.286-0.033-0.43c-0.017-0.192-0.04-0.386-0.068-0.578
			c-0.019-0.128-0.043-0.253-0.065-0.377c-0.039-0.201-0.079-0.4-0.13-0.6c-0.032-0.125-0.067-0.248-0.104-0.371
			c-0.057-0.189-0.113-0.378-0.181-0.565c-0.05-0.142-0.107-0.28-0.164-0.421c-0.065-0.16-0.132-0.322-0.208-0.482
			c-0.078-0.169-0.167-0.334-0.252-0.497c-0.051-0.093-0.093-0.19-0.147-0.282c-0.02-0.038-0.045-0.067-0.066-0.105
			c-0.104-0.176-0.218-0.346-0.334-0.517c-0.077-0.111-0.149-0.226-0.229-0.334c-0.113-0.154-0.237-0.301-0.359-0.45
			c-0.096-0.115-0.189-0.235-0.29-0.347c-0.108-0.121-0.227-0.23-0.341-0.347c-0.127-0.127-0.253-0.258-0.386-0.376
			c-0.097-0.089-0.203-0.172-0.305-0.255c-0.162-0.137-0.323-0.271-0.492-0.395c-0.094-0.069-0.194-0.131-0.29-0.199
			c-0.186-0.127-0.373-0.25-0.564-0.365c-0.03-0.018-0.06-0.04-0.092-0.057l-138.85-80.167c-0.074-0.043-0.15-0.075-0.224-0.114
			c-0.192-0.104-0.386-0.207-0.584-0.299c-0.13-0.062-0.261-0.114-0.392-0.168c-0.171-0.072-0.343-0.14-0.518-0.201
			c-0.156-0.056-0.313-0.104-0.472-0.152c-0.155-0.045-0.311-0.092-0.467-0.13c-0.171-0.043-0.34-0.077-0.512-0.111
			c-0.153-0.029-0.309-0.057-0.464-0.08c-0.167-0.026-0.334-0.044-0.502-0.06c-0.167-0.017-0.334-0.03-0.502-0.038
			c-0.153-0.006-0.303-0.01-0.456-0.011c-0.187,0-0.373,0.005-0.56,0.014c-0.133,0.006-0.265,0.019-0.399,0.03
			c-0.2,0.018-0.401,0.041-0.601,0.071c-0.122,0.018-0.243,0.042-0.363,0.065c-0.203,0.036-0.407,0.079-0.608,0.131
			c-0.125,0.029-0.247,0.067-0.371,0.103c-0.188,0.055-0.375,0.113-0.562,0.18c-0.144,0.051-0.286,0.108-0.428,0.167
			c-0.158,0.066-0.317,0.129-0.474,0.203c-0.172,0.081-0.338,0.17-0.506,0.26c-0.092,0.049-0.186,0.088-0.278,0.142L266.377,410.82
			c-0.01,0.006-0.02,0.011-0.03,0.017l-0.213,0.124c-0.057,0.032-0.107,0.071-0.162,0.105c-0.211,0.127-0.418,0.256-0.619,0.398
			c-0.1,0.071-0.194,0.146-0.292,0.219c-0.163,0.124-0.325,0.252-0.48,0.386c-0.113,0.097-0.221,0.198-0.328,0.297
			c-0.131,0.122-0.261,0.247-0.385,0.378c-0.109,0.114-0.214,0.23-0.317,0.349c-0.115,0.13-0.227,0.266-0.336,0.402
			c-0.094,0.119-0.183,0.239-0.272,0.362c-0.108,0.153-0.214,0.305-0.314,0.464c-0.072,0.111-0.14,0.225-0.207,0.339
			c-0.104,0.178-0.204,0.358-0.298,0.544c-0.05,0.099-0.098,0.198-0.144,0.298c-0.095,0.205-0.185,0.412-0.267,0.624
			c-0.035,0.089-0.068,0.181-0.1,0.272c-0.078,0.219-0.15,0.441-0.212,0.666c-0.028,0.096-0.052,0.194-0.075,0.292
			c-0.054,0.217-0.103,0.437-0.143,0.659c-0.022,0.119-0.038,0.241-0.055,0.361c-0.029,0.2-0.056,0.401-0.072,0.604
			c-0.013,0.154-0.018,0.311-0.024,0.466c-0.005,0.128-0.02,0.254-0.02,0.382V580.16c0,0.118,0.014,0.234,0.019,0.35
			c0.005,0.173,0.011,0.344,0.025,0.513c0.016,0.188,0.041,0.376,0.066,0.562c0.02,0.135,0.038,0.271,0.062,0.404
			c0.038,0.21,0.085,0.415,0.135,0.618c0.027,0.111,0.054,0.224,0.085,0.333c0.059,0.212,0.127,0.419,0.199,0.626
			c0.038,0.104,0.075,0.21,0.116,0.313c0.077,0.199,0.161,0.395,0.251,0.585c0.052,0.114,0.105,0.226,0.163,0.338
			c0.087,0.172,0.18,0.339,0.277,0.506c0.074,0.128,0.15,0.254,0.23,0.38c0.092,0.145,0.188,0.282,0.287,0.423
			c0.098,0.134,0.198,0.271,0.302,0.402c0.097,0.122,0.198,0.24,0.299,0.357c0.116,0.135,0.235,0.267,0.358,0.395
			c0.109,0.111,0.221,0.22,0.335,0.327c0.124,0.12,0.25,0.237,0.382,0.348c0.134,0.113,0.273,0.224,0.413,0.329
			c0.12,0.094,0.239,0.187,0.365,0.274c0.168,0.118,0.343,0.228,0.52,0.337c0.081,0.047,0.153,0.104,0.234,0.15l138.851,80.167
			c0.028,0.017,0.058,0.024,0.085,0.041c0.364,0.205,0.739,0.394,1.127,0.555c0.038,0.014,0.076,0.026,0.114,0.043
			c0.336,0.132,0.683,0.247,1.036,0.345c0.112,0.033,0.223,0.06,0.335,0.086c0.288,0.071,0.58,0.128,0.876,0.173
			c0.115,0.016,0.229,0.04,0.345,0.053c0.378,0.044,0.763,0.071,1.152,0.075c0.013,0,0.027,0.002,0.039,0.002
			c0.002,0,0.003,0,0.005,0c0.002,0,0.003,0,0.006,0c0.415,0,0.822-0.033,1.225-0.081c0.086-0.009,0.172-0.026,0.259-0.037
			c0.333-0.051,0.664-0.116,0.986-0.195c0.082-0.021,0.161-0.04,0.241-0.061c0.375-0.104,0.741-0.222,1.097-0.366
			c0.02-0.008,0.04-0.014,0.06-0.022c0.391-0.158,0.769-0.341,1.132-0.546c0.057-0.031,0.108-0.067,0.164-0.1
			c0.292-0.171,0.572-0.354,0.845-0.551c0.093-0.067,0.184-0.137,0.275-0.206c0.27-0.213,0.53-0.435,0.777-0.67
			c0.047-0.047,0.097-0.086,0.144-0.13c0.291-0.289,0.56-0.598,0.814-0.917c0.057-0.073,0.109-0.146,0.163-0.22
			c0.218-0.293,0.423-0.596,0.61-0.908c0.024-0.039,0.053-0.073,0.076-0.114c0.014-0.024,0.025-0.051,0.038-0.075
			c0.125-0.217,0.237-0.444,0.344-0.67c0.039-0.084,0.083-0.165,0.119-0.248c0.094-0.216,0.177-0.434,0.255-0.654
			c0.038-0.106,0.08-0.206,0.114-0.312c0.06-0.188,0.109-0.38,0.16-0.571c0.037-0.142,0.078-0.282,0.109-0.424
			c0.033-0.157,0.057-0.319,0.083-0.479c0.03-0.179,0.062-0.359,0.083-0.538c0.015-0.139,0.022-0.28,0.032-0.421
			c0.015-0.201,0.027-0.402,0.03-0.604c0-0.043,0.006-0.081,0.006-0.124v-96.415c0-0.309-0.019-0.611-0.046-0.914
			c0.318-3.829-1.529-7.679-5.076-9.725l-38.456-22.205l107.802-62.24c0.003-0.003,0.006-0.004,0.009-0.006l69.408-40.074
			c0.01-0.004,0.019-0.011,0.027-0.014l0.061-0.038c0.336-0.193,0.654-0.406,0.959-0.632c0.093-0.068,0.181-0.144,0.272-0.217
			c0.235-0.188,0.465-0.382,0.682-0.585c0.089-0.086,0.177-0.171,0.264-0.26c0.248-0.253,0.481-0.513,0.699-0.789
			c0.036-0.044,0.077-0.086,0.113-0.134c0.258-0.337,0.494-0.691,0.708-1.055c0.016-0.026,0.037-0.049,0.05-0.075
			c0.05-0.085,0.086-0.171,0.132-0.258c0.095-0.176,0.19-0.353,0.275-0.534C558.3,424.009,558.362,423.86,558.424,423.71z
			 M479.529,448.085l-64.303-37.126c-0.031-0.019-0.063-0.031-0.095-0.048c-0.199-0.112-0.404-0.213-0.611-0.313
			c-0.101-0.048-0.2-0.1-0.3-0.146c-0.202-0.087-0.409-0.164-0.617-0.239c-0.114-0.042-0.228-0.088-0.342-0.126
			c-0.181-0.058-0.369-0.105-0.555-0.154c-0.146-0.039-0.292-0.082-0.438-0.112c-0.157-0.034-0.315-0.056-0.474-0.084
			c-0.18-0.03-0.36-0.061-0.54-0.082c-0.14-0.015-0.284-0.021-0.426-0.031c-0.199-0.015-0.397-0.028-0.597-0.031
			c-0.042,0-0.083-0.006-0.125-0.006c-0.111,0-0.218,0.014-0.328,0.017c-0.182,0.006-0.362,0.013-0.543,0.029
			c-0.182,0.015-0.359,0.037-0.538,0.063c-0.144,0.02-0.286,0.039-0.43,0.063c-0.201,0.039-0.398,0.082-0.597,0.13
			c-0.119,0.028-0.237,0.059-0.354,0.092c-0.206,0.058-0.407,0.123-0.607,0.195c-0.112,0.037-0.224,0.077-0.333,0.122
			c-0.191,0.075-0.378,0.154-0.563,0.24c-0.121,0.057-0.242,0.113-0.36,0.175c-0.166,0.084-0.326,0.172-0.485,0.265
			c-0.135,0.077-0.268,0.159-0.4,0.243c-0.137,0.086-0.269,0.18-0.4,0.273c-0.145,0.101-0.285,0.207-0.425,0.317
			c-0.115,0.091-0.226,0.185-0.336,0.282c-0.141,0.122-0.279,0.245-0.414,0.375c-0.106,0.102-0.208,0.209-0.31,0.315
			c-0.124,0.131-0.247,0.263-0.364,0.4c-0.109,0.127-0.209,0.258-0.312,0.388c-0.098,0.128-0.198,0.256-0.292,0.39
			c-0.111,0.161-0.214,0.324-0.317,0.491c-0.053,0.085-0.114,0.166-0.165,0.255c-0.02,0.034-0.035,0.07-0.054,0.105
			c-0.101,0.181-0.192,0.365-0.283,0.552c-0.058,0.123-0.121,0.242-0.175,0.364c-0.075,0.171-0.14,0.347-0.205,0.525
			c-0.054,0.145-0.112,0.29-0.161,0.438c-0.047,0.146-0.083,0.295-0.124,0.441c-0.05,0.184-0.103,0.369-0.142,0.554
			c-0.025,0.119-0.041,0.239-0.062,0.358c-0.039,0.22-0.077,0.437-0.101,0.658c-0.011,0.105-0.016,0.212-0.023,0.317
			c-0.019,0.236-0.034,0.47-0.036,0.705c0,0.034-0.005,0.065-0.005,0.1v74.253l-48.701,28.12c-0.036,0.018-0.067,0.043-0.103,0.064
			c-0.177,0.106-0.349,0.222-0.52,0.338c-0.111,0.075-0.225,0.146-0.333,0.224c-0.155,0.115-0.303,0.239-0.452,0.363
			c-0.115,0.096-0.232,0.188-0.343,0.287c-0.122,0.109-0.235,0.228-0.352,0.343c-0.127,0.129-0.256,0.252-0.375,0.383
			c-0.09,0.102-0.173,0.209-0.259,0.311c-0.133,0.16-0.267,0.321-0.39,0.485c-0.071,0.1-0.136,0.204-0.204,0.304
			c-0.125,0.181-0.247,0.361-0.358,0.551c-0.02,0.032-0.042,0.062-0.062,0.095c-0.05,0.086-0.087,0.175-0.134,0.261
			c-0.093,0.175-0.186,0.348-0.269,0.526c-0.071,0.152-0.134,0.305-0.198,0.461c-0.059,0.148-0.119,0.293-0.171,0.441
			c-0.064,0.181-0.122,0.363-0.175,0.546c-0.039,0.131-0.075,0.257-0.108,0.389c-0.049,0.195-0.09,0.391-0.127,0.587
			c-0.025,0.129-0.048,0.259-0.069,0.389c-0.027,0.188-0.05,0.38-0.067,0.569c-0.014,0.146-0.025,0.292-0.033,0.438
			c-0.008,0.173-0.011,0.342-0.011,0.515c0,0.166,0.003,0.337,0.011,0.508c0.008,0.148,0.019,0.293,0.033,0.443
			c0.017,0.188,0.04,0.376,0.067,0.562c0.021,0.134,0.044,0.265,0.069,0.396c0.038,0.195,0.078,0.386,0.127,0.579
			c0.034,0.134,0.071,0.265,0.111,0.396c0.053,0.181,0.108,0.361,0.172,0.538c0.054,0.154,0.115,0.303,0.176,0.453
			c0.062,0.15,0.125,0.301,0.193,0.449c0.085,0.182,0.178,0.36,0.274,0.537c0.045,0.083,0.082,0.171,0.131,0.254
			c0.015,0.026,0.035,0.049,0.05,0.075c0.214,0.365,0.448,0.718,0.708,1.057c0.038,0.047,0.08,0.092,0.118,0.141
			c0.215,0.268,0.446,0.528,0.691,0.776c0.089,0.093,0.181,0.181,0.273,0.27c0.212,0.199,0.435,0.389,0.666,0.573
			c0.097,0.075,0.189,0.159,0.288,0.229c0.305,0.224,0.621,0.438,0.956,0.631l0.056,0.032c0.011,0.006,0.021,0.012,0.033,0.019
			l48.611,28.065v74.533l-118.372-68.343V425.745l128.612-74.254l118.365,68.338L479.529,448.085z M420.348,437.569l38.699,22.343
			l-38.699,22.344V437.569z"/>
		<circle  cx="472.799" cy="524.522" r="15.875"/>
	</g>
	<g>
		<path  d="M566.218,588.77c-3.812-0.947-5.704-3.321-5.704-7.132c1.892-15.683,3.565-31.122,4.991-46.343
			c0.946-4.275,3.318-6.416,7.13-6.416c3.798,1.425,5.703,3.812,5.703,7.13c-1.425,16.165-3.097,31.851-4.989,47.056
			C572.868,586.877,570.497,588.77,566.218,588.77 M592.598,669.334c-6.183-0.479-9.748-4.277-10.694-11.407V506.064
			c0.946-6.65,4.512-10.215,10.694-10.696c7.131,0.481,10.928,4.045,11.408,10.696v22.814c0.946,0.479,1.893,0.714,2.852,0.714
			c4.278,2.851,8.556,5.702,12.834,8.556c4.744,3.811,5.937,8.554,3.564,14.259c-4.758,5.703-10.229,6.662-16.398,2.852
			c-0.479-0.945-1.426-1.66-2.852-2.138v105.518C603.526,665.288,599.729,668.854,592.598,669.334 M628.959,620.852
			c-6.183-0.945-9.747-4.51-10.693-10.694c0.946-6.168,4.511-9.501,10.693-9.98h31.372v-7.843
			c0.946-7.129,4.992-11.161,12.121-12.121c7.13,0.96,11.16,4.992,12.12,12.121v7.843h30.658c6.65,0.479,10.214,3.812,10.695,9.98
			c-0.481,6.185-4.045,9.749-10.695,10.694h-30.658v19.964h39.213c6.651,0.961,10.217,4.044,10.695,9.269
			c-0.479,6.65-4.044,10.215-10.695,10.694l-103.38,0.712c-6.184-0.958-9.516-4.756-9.981-11.406
			c0.466-5.225,3.798-8.308,9.981-9.269h39.926v-19.964H628.959z M628.248,588.77c-6.665,1.904-11.408-0.468-14.26-7.132
			c-1.426-7.595,0.712-12.12,6.417-13.545c12.354-3.316,23.048-6.649,32.083-9.982c-7.609-6.171-14.505-13.779-20.676-22.815
			c-2.852-3.316-3.098-6.883-0.711-10.693h-3.566c-6.184-0.945-9.516-4.512-9.981-10.694c0.466-6.17,3.798-9.501,9.981-9.982h86.27
			c6.65,0.481,10.448,3.812,11.408,9.982c0.466,7.129-1.427,13.08-5.704,17.825c-7.61,9.98-16.166,18.783-25.667,26.378
			c8.556,2.851,18.77,5.473,30.657,7.845c6.17,2.384,8.31,7.129,6.417,14.258c-2.387,6.664-7.131,9.036-14.26,7.128
			c-18.07-4.276-32.796-9.499-44.204-15.684C659.618,578.787,644.878,584.491,628.248,588.77 M650.349,524.602
			c6.17,9.035,13.779,16.398,22.816,22.101c6.648-4.275,13.545-10.445,20.676-18.534c3.317-2.854,2.852-4.032-1.427-3.566H650.349z"
			/>
		<path  d="M771.377,607.307c-5.238-0.945-8.09-3.799-8.556-8.557c0.466-5.223,3.318-8.076,8.556-8.556h158.278
			c4.745,0.479,7.363,3.333,7.843,8.556c-0.479,4.758-3.098,7.611-7.843,8.557H771.377z M789.2,581.638
			c-7.609-0.944-11.888-5.223-12.833-12.832v-42.78c0.945-7.595,5.224-11.872,12.833-12.832h21.391
			c-1.428-1.892-2.619-3.564-3.566-4.989c-2.386-6.172-0.479-10.696,5.704-13.548c6.649-1.891,11.873-0.231,15.686,4.992
			c2.853,3.811,5.704,7.61,8.556,11.408c0.466,0.478,0.712,1.191,0.712,2.138h24.955c3.318-4.277,6.649-8.787,9.98-13.545
			c4.279-5.223,9.504-6.882,15.686-4.992c7.131,2.852,9.022,7.376,5.704,13.548c-0.96,1.425-2.139,3.098-3.564,4.989h20.677
			c8.076,0.96,12.354,5.237,12.833,12.832v42.78c-0.479,7.609-4.757,11.888-12.833,12.832H789.2z M796.331,662.205
			c-7.61-0.481-11.887-4.758-12.834-12.834V627.98c0.947-8.074,5.224-12.352,12.834-12.832h108.372
			c8.075,0.48,12.353,4.758,12.834,12.832v22.104c-0.481,7.595-4.759,11.64-12.834,12.121H796.331z M799.896,533.87v6.414h39.214
			v-9.98h-34.938C801.786,529.841,800.361,531.02,799.896,533.87 M839.109,565.241v-0.713v-9.983h-39.214v7.132
			c0.465,2.386,1.891,3.564,4.276,3.564H839.109z M807.024,635.112v7.843c0.467,1.904,1.893,2.852,4.279,2.852h78.426
			c2.372,0.479,3.798-0.468,4.277-2.852v-7.129c-0.479-2.854-1.905-4.032-4.277-3.567h-78.426
			C808.917,632.259,807.491,633.218,807.024,635.112 M896.859,530.304h-34.936v9.98h38.5v-7.127
			C900.424,531.265,899.23,530.304,896.859,530.304 M861.924,564.528v0.713h34.936c2.371,0,3.564-1.179,3.564-3.564v-7.132h-38.5
			V564.528z"/>
		<path  d="M977.246,624.418c-7.128-0.946-10.938-4.512-11.407-10.695c0.47-6.65,4.279-10.215,11.407-10.694h70.585
			c0.945-3.319,3.085-5.937,6.417-7.843l12.119-7.843c1.428-1.895,1.184-2.852-0.712-2.852h-59.177
			c-6.184-0.944-9.748-4.512-10.694-10.694c0.946-6.172,4.511-9.503,10.694-9.984h90.547c6.174,0.481,9.503,3.812,9.982,9.984
			c0,6.662-2.853,11.886-8.557,15.684l-21.389,13.548h51.334c7.13,0.479,10.928,4.044,11.407,10.694
			c-0.479,6.184-4.277,9.749-11.407,10.695h-57.75v18.535c0.47,14.726-7.843,22.335-24.955,22.816
			c-7.608,0.466-15.216,0.714-22.814,0.714c-8.557-0.481-13.312-4.76-14.26-12.834c0.47-5.703,3.799-8.557,9.981-8.557h15.685
			c8.557,0.479,12.355-3.085,11.408-10.693v-9.981H977.246z M1054.961,498.936c3.797,4.757,7.362,9.746,10.694,14.972
			c2.853,7.129,0.946,12.366-5.704,15.686h14.973c0-0.947,0.469-1.658,1.428-2.141c5.222-7.129,10.214-14.724,14.97-22.814
			c5.225-7.594,11.641-9.98,19.252-7.13c6.648,2.386,8.311,7.376,4.99,14.973c-3.332,4.758-7.374,10.462-12.122,17.112h14.975
			c9.023,0.959,13.778,5.702,14.259,14.259v17.111c-0.48,7.13-4.278,11.176-11.407,12.121c-7.132-0.945-11.176-4.991-12.122-12.121
			v-6.416c0-2.373-1.425-3.566-4.276-3.566H999.349c-2.382,0-3.564,1.193-3.564,3.566v6.416c-0.957,7.609-4.991,11.653-12.12,12.121
			c-7.131-0.468-11.175-4.512-12.121-12.121v-17.111c0.946-8.557,5.703-13.3,14.26-14.259h14.26
			c-1.426-0.468-2.385-1.425-2.852-2.852c-3.333-4.745-6.897-9.27-10.695-13.548c-3.332-4.277-2.139-8.787,3.564-13.545
			c7.131-3.798,13.303-3.086,18.537,2.138c3.322,3.331,6.887,7.611,10.695,12.834c2.852,6.183,0.945,11.174-5.705,14.973h34.936
			c-1.425-0.947-2.852-2.374-4.276-4.278c-2.852-5.225-6.418-10.215-10.694-14.972c-3.333-5.226-1.907-10.215,4.276-14.974
			C1044.023,492.051,1049.726,493.231,1054.961,498.936"/>
		<path  d="M1181.959,668.621c-6.183-0.479-9.512-3.811-9.981-9.98V517.472c0-9.021,4.747-13.547,14.26-13.547h29.231
			c7.6,0.481,11.408,3.812,11.408,9.982c0,7.129-0.713,14.259-2.141,21.388l-8.554,31.371c-0.957,2.386-0.479,5.239,1.426,8.556
			c7.128,10.463,10.451,22.581,9.98,36.362c0.947,17.11-4.044,27.339-14.972,30.658c-2.853,0.481-5.947,0.959-9.269,1.424
			c-5.234,0.482-9.035-0.713-11.407-3.564v19.252C1191.461,665.057,1188.133,668.142,1181.959,668.621 M1191.941,528.879v92.686
			c0.944-0.465,1.658-0.711,2.139-0.711h4.99c5.704-0.468,8.557-3.318,8.557-8.556c0.946-12.354-1.671-23.282-7.843-32.798
			c-3.332-4.743-3.809-10.694-1.426-17.823l8.556-33.511c0.47-1.891-0.714-2.854-3.565-2.854h-7.844
			C1193.124,524.847,1191.941,526.027,1191.941,528.879 M1238.284,604.453c-6.185-0.466-9.748-3.797-10.695-9.981
			c0.947-6.17,4.511-9.501,10.695-9.98h89.834c6.651,0.479,10.215,3.811,10.694,9.98c-0.479,6.185-4.043,9.516-10.694,9.981h-22.102
			v34.224c-0.479,4.758,0.945,6.896,4.277,6.416h2.852c3.322,0,5.224-2.369,5.703-7.129c0.947-3.319,1.427-7.13,1.427-11.407
			c0.946-6.65,4.278-9.735,9.982-9.27c6.65,0.479,9.502,4.525,8.555,12.12c-0.479,6.664-1.425,12.367-2.853,17.11
			c-1.904,10.93-9.267,16.4-22.101,16.4l-7.13,0.712c-14.739,0-22.103-6.416-22.103-19.248v-39.929h-13.546v3.566
			c1.896,23.294-9.513,42.299-34.223,57.037c-6.66,4.277-12.363,3.564-17.112-2.139c-3.332-6.186-1.668-11.655,4.99-16.4
			c17.584-8.554,25.902-21.388,24.955-38.498v-3.566H1238.284z M1247.553,570.232c-6.184-0.467-9.513-3.8-9.981-9.982
			c0-2.854,1.426-5.457,4.277-7.843h-0.714c-6.659-0.468-10.224-3.798-10.693-9.982v-15.684c0.47-7.132,4.99-11.161,13.547-12.121
			h26.379c-0.479-1.892-1.192-4.512-2.138-7.845c-0.956-6.168,2.138-10.447,9.268-12.831c7.599-0.947,12.591,1.426,14.974,7.129
			c1.895,4.758,3.32,9.27,4.277,13.547h24.953c8.075,0.478,12.354,4.524,12.834,12.121v15.684c-0.479,6.185-3.809,9.515-9.981,9.982
			h-0.712c2.371,2.386,3.563,4.989,3.563,7.843c0,6.183-3.095,9.516-9.268,9.982H1247.553z M1251.117,543.852
			c0,2.854-1.192,5.237-3.564,7.131h69.871c-2.383-1.894-3.564-4.034-3.564-6.418v-7.129c0-1.893-1.193-2.854-3.565-2.854h-55.611
			c-1.906,0-3.096,0.961-3.565,2.854V543.852z"/>
	</g>
</g>
</svg>
