<?xml version="1.0" encoding="utf-8"?>
<!-- Generator: Adobe Illustrator 16.0.0, SVG Export Plug-In . SVG Version: 6.00 Build 0)  -->
<!DOCTYPE svg PUBLIC "-//W3C//DTD SVG 1.1//EN" "http://www.w3.org/Graphics/SVG/1.1/DTD/svg11.dtd">
<svg version="1.1" id="Layer_1" xmlns="http://www.w3.org/2000/svg" xmlns:xlink="http://www.w3.org/1999/xlink" x="0px" y="0px"
	 width="1600px" height="1000px" viewBox="0 0 1600 1000" enable-background="new 0 0 1600 1000" xml:space="preserve">
<g>
	<path  d="M447.352,300.014c-110.448,0-199.987,89.538-199.987,199.989c0,110.448,89.539,199.984,199.987,199.984
		c110.451,0,199.989-89.536,199.989-199.984C647.341,389.551,557.803,300.014,447.352,300.014z M502.308,614.786
		c-2.079,4.328-6.468,7.329-11.588,7.329c-5.97,0-10.966-4.083-12.414-9.619c-0.209-0.352-0.367-0.662-0.437-0.924
		c-1.452-5.799-3.469-55.315-14.012-66.752c-13.947-15.702-25.668-1.774-28.036,1.182c-2.37,3.769-9.107,10.266-15.19,64.402
		c-0.015,0.047-0.039,0.08-0.064,0.133c-1.234,7.672-6.127,11.578-12.78,11.578c-5.419,0-10.036-3.366-11.93-8.119
		c-0.488-0.574-0.811-1.031-0.924-1.255c-11.909-15.688-50.832-134.791-42.053-189.708c0.546-5.334,1.735-9.707,3.348-13.32
		c2.957-9.904,12.104-17.125,22.94-17.125c1.98,0,3.896,0.272,5.73,0.725c2.565,0.114,4.192,0.447,4.192,0.447
		s55.488,15.516,96.957,42.159c-5.157-12.395-25.7-22.251-25.7-22.251c-0.777-2.343,13.44-15.22,56.076-21.08
		c5.544-0.736,6.782,0,7.591,0c11.26,0,20.67,7.795,23.235,18.285c1.296,3.707,3.042,18.354,3.042,22.704
		C550.292,489.217,525.378,581.886,502.308,614.786z"/>
	<g>
		<g>
			<path  d="M701.714,407.227h42.38c1.017-5.725,1.654-12.471,1.908-20.235h-18.899
				c-4.963,7.001-10.817,13.555-17.562,19.662c-2.419-3.563-5.409-7.381-8.972-11.454c13.489-11.197,22.716-24.368,27.68-39.515
				l13.933,3.055c-2.036,5.602-4.454,10.945-7.252,16.036h57.078v12.216h-31.689c-0.381,7.509-0.955,14.255-1.717,20.235h39.133
				v12.219h-41.616c-0.381,1.273-0.763,2.481-1.144,3.626c12.725,6.238,26.534,13.874,41.424,22.909l-8.782,11.263
				c-12.98-9.035-25.644-16.736-37.987-23.099c-8.655,13.49-23.099,24.432-43.334,32.833c-2.419-3.943-5.345-8.209-8.782-12.791
				c22.78-8.399,37.225-19.979,43.334-34.742h-39.134V407.227z M730.159,458.577h127.899v86.667h-14.125v-8.589h-99.648v8.589
				h-14.126V458.577z M843.934,470.796h-99.648v20.998h99.648V470.796z M744.285,524.438h99.648V503.63h-99.648V524.438z
				 M803.845,372.676h72.92v78.077H862.64v-11.454h-44.671v11.454h-14.124V372.676z M862.64,384.892h-44.671v42.189h44.671V384.892z
				"/>
			<path  d="M895.093,415.627h29.778v-48.68h14.891v48.68h45.432v-60.132h14.892v20.617h68.531v13.363h-68.531v26.152
				h82.466v13.743H895.093V415.627z M1052.197,543.718v-9.737H911.701V439.87h15.27v80.75h125.227v-82.275h15.272v105.374H1052.197z
				 M985.005,434.716h15.651c-1.018,8.083-2.929,15.655-5.726,22.717c17.943,12.216,35.313,24.753,52.113,37.608l-11.263,12.98
				c-16.289-13.81-32.039-26.346-47.247-37.607c-10.306,17.053-26.82,30.481-49.536,40.277c-2.674-4.326-5.791-8.844-9.354-13.554
				C963.625,483.14,982.076,462.335,985.005,434.716z"/>
		</g>
		<g>
			<path  d="M1129.289,436.409l9.123,3.873c-1.917,2.373-3.835,4.667-5.749,6.873h57.604v7.87
				c-6.918,8.039-16.079,14.975-27.49,20.804c13.828,4.291,30.695,6.479,50.604,6.562c-2.251,3.247-4.334,6.623-6.248,10.119
				c-22.284-1.706-40.775-5.599-55.478-11.683c-16.161,6.499-35.944,11.229-59.351,14.185c-1.417-3.082-3.166-6.081-5.247-8.997
				c21.031-2.125,38.899-5.621,53.601-10.495c-7.996-4.581-14.472-10.039-19.43-16.371c-6.244,5.999-12.724,11.373-19.429,16.12
				c-1.832-2.164-3.997-4.414-6.496-6.745C1110.047,458.44,1121.377,447.738,1129.289,436.409z M1095.054,427.662h53.915
				c-2.248-3.457-4.976-7.123-8.183-10.997l8.497-5.373c3.329,3.832,6.785,8.082,10.368,12.745l-5.745,3.624h52.851v23.366h-9.245
				v-15.119h-93.211v14.993h-9.247V427.662z M1110.047,495.758h81.467v39.735h-9.244v-5.248h-62.975v5.248h-9.248V495.758z
				 M1182.27,503.756h-62.975v18.494h62.975V503.756z M1177.02,455.151h-47.793c5.624,6.665,13.018,12.1,22.177,16.307
				C1162.027,466.917,1170.563,461.483,1177.02,455.151z"/>
			<path  d="M1225.252,419.915h35.236v101.334c0,8.33-3.874,12.494-11.62,12.494c-4.251,0-8.208-0.124-11.87-0.373
				c-0.334-2.5-0.834-5.46-1.5-8.873c4.249,0.664,7.914,0.999,10.996,0.999c3.414,0,5.122-1.707,5.122-5.122v-28.739h-17.494
				c0.251,19.158-3.206,33.778-10.368,43.858c-1.835-2.418-4.124-4.751-6.872-6.998c5.577-8.58,8.37-20.739,8.37-36.484V419.915z
				 M1251.616,428.036h-17.494v23.993h17.494V428.036z M1234.122,483.889h17.494v-24.114h-17.494V483.889z M1270.859,420.416h61.725
				c-0.416,6.745-0.75,12.076-1,15.993c-0.668,12.91-7.247,19.241-19.742,18.992c-3.414-0.084-8.789-0.25-16.118-0.5
				c-0.5-3.248-1.04-6.538-1.625-9.872c6.163,0.75,11.704,1.208,16.618,1.375c7.162,0.25,11.039-3.164,11.622-10.246
				c0.248-2.165,0.458-4.54,0.623-7.123h-42.607v35.987h52.729v7.37c-3.331,14.619-9.433,27.345-18.303,38.175
				c7.202,6.828,16.136,12.14,26.798,15.93c-2.832,3.332-5.248,6.333-7.245,8.996c-10.246-4.789-18.931-10.744-26.052-17.866
				c-6.372,6.288-13.849,11.826-22.429,16.616c-1.585-2.749-3.291-5.498-5.124-8.247c8.33-4.248,15.516-9.327,21.555-15.242
				c-8.121-10.413-13.475-22.949-16.057-37.608h-5.872v62.099h-9.495V420.416z M1323.212,473.146h-28.426
				c2.581,11.993,7.187,22.198,13.808,30.61C1315.465,495.051,1320.338,484.848,1323.212,473.146z"/>
		</g>
		<g>
			<path  d="M710.911,643.398l-15.027-49.106h8.601l7.813,28.345l2.913,10.542c0.124-0.522,0.971-3.896,2.545-10.125
				l7.813-28.762h8.555l7.353,28.485l2.45,9.386l2.82-9.479l8.416-28.392h8.091l-15.352,49.106h-8.645l-7.815-29.408l-1.896-8.369
				l-9.94,37.777H710.911z"/>
			<path  d="M779.3,643.398l-15.027-49.106h8.601l7.813,28.345l2.914,10.542c0.124-0.522,0.971-3.896,2.545-10.125
				l7.813-28.762h8.555l7.353,28.485l2.451,9.386l2.818-9.479l8.414-28.392h8.096l-15.353,49.106h-8.646l-7.816-29.408l-1.896-8.369
				l-9.94,37.777H779.3z"/>
			<path  d="M847.689,643.398l-15.028-49.106h8.601l7.814,28.345l2.913,10.542c0.122-0.522,0.971-3.896,2.542-10.125
				l7.814-28.762h8.555l7.353,28.485l2.451,9.386l2.82-9.479l8.416-28.392h8.093l-15.353,49.106h-8.648l-7.813-29.408l-1.896-8.369
				l-9.942,37.777H847.689z"/>
			<path  d="M904.164,643.398v-9.479h9.479v9.479H904.164z"/>
			<path  d="M924.786,628.742l8.23-1.295c0.462,3.299,1.749,5.824,3.862,7.581c2.108,1.758,5.062,2.639,8.852,2.639
				c3.823,0,6.66-0.779,8.51-2.337c1.85-1.557,2.774-3.382,2.774-5.478c0-1.882-0.819-3.36-2.451-4.44
				c-1.142-0.74-3.977-1.681-8.506-2.821c-6.105-1.539-10.337-2.873-12.695-4c-2.359-1.125-4.146-2.68-5.362-4.668
				c-1.219-1.989-1.828-4.187-1.828-6.592c0-2.187,0.502-4.213,1.504-6.079c1-1.865,2.366-3.415,4.09-4.649
				c1.297-0.954,3.061-1.762,5.297-2.426c2.233-0.662,4.631-0.993,7.191-0.993c3.853,0,7.234,0.557,10.149,1.665
				c2.911,1.108,5.062,2.611,6.45,4.507c1.387,1.896,2.342,4.433,2.866,7.607l-8.138,1.109c-0.371-2.526-1.443-4.499-3.215-5.919
				c-1.771-1.417-4.276-2.127-7.514-2.127c-3.823,0-6.551,0.633-8.186,1.896c-1.632,1.266-2.451,2.745-2.451,4.44
				c0,1.078,0.342,2.049,1.019,2.911c0.677,0.896,1.742,1.637,3.19,2.22c0.831,0.309,3.283,1.019,7.353,2.128
				c5.888,1.571,9.995,2.86,12.323,3.861c2.326,1.001,4.153,2.457,5.479,4.369c1.324,1.91,1.989,4.286,1.989,7.12
				c0,2.775-0.811,5.387-2.429,7.837c-1.619,2.452-3.953,4.347-7.007,5.687c-3.052,1.345-6.503,2.015-10.356,2.015
				c-6.381,0-11.246-1.326-14.588-3.978C927.846,637.881,925.71,633.952,924.786,628.742z"/>
			<path  d="M972.365,618.847c0-9.094,2.527-15.83,7.583-20.21c4.222-3.636,9.37-5.453,15.443-5.453
				c6.75,0,12.267,2.211,16.554,6.633c4.285,4.427,6.427,10.537,6.427,18.338c0,6.318-0.947,11.288-2.842,14.91
				c-1.897,3.62-4.658,6.437-8.277,8.438c-3.624,2.006-7.576,3.007-11.861,3.007c-6.873,0-12.432-2.205-16.669-6.613
				C974.482,633.491,972.365,627.137,972.365,618.847z M980.919,618.847c0,6.288,1.372,10.998,4.116,14.127
				c2.742,3.128,6.195,4.693,10.356,4.693c4.13,0,7.569-1.573,10.313-4.718c2.74-3.146,4.111-7.938,4.111-14.381
				c0-6.072-1.379-10.673-4.138-13.804c-2.759-3.127-6.188-4.69-10.287-4.69c-4.161,0-7.614,1.556-10.356,4.668
				C982.291,607.856,980.919,612.557,980.919,618.847z"/>
			<path  d="M1035.807,643.398h-7.724v-67.787h8.324v24.184c3.511-4.408,7.999-6.611,13.456-6.611
				c3.021,0,5.877,0.609,8.575,1.825c2.698,1.219,4.918,2.93,6.659,5.133c1.742,2.207,3.106,4.862,4.093,7.978
				c0.985,3.114,1.48,6.441,1.48,9.986c0,8.416-2.083,14.923-6.244,19.514c-4.161,4.592-9.156,6.891-14.979,6.891
				c-5.796,0-10.344-2.418-13.641-7.261V643.398z M1035.713,618.478c0,5.888,0.801,10.141,2.404,12.762
				c2.619,4.284,6.166,6.428,10.635,6.428c3.639,0,6.782-1.579,9.434-4.74c2.65-3.161,3.975-7.867,3.975-14.127
				c0-6.413-1.27-11.144-3.814-14.195c-2.541-3.054-5.617-4.578-9.224-4.578c-3.637,0-6.782,1.581-9.433,4.738
				C1037.039,607.926,1035.713,612.496,1035.713,618.478z"/>
			<path  d="M1077.698,618.847c0-9.094,2.527-15.83,7.584-20.21c4.222-3.636,9.37-5.453,15.441-5.453
				c6.751,0,12.27,2.211,16.555,6.633c4.285,4.427,6.428,10.537,6.428,18.338c0,6.318-0.948,11.288-2.843,14.91
				c-1.896,3.62-4.656,6.437-8.277,8.438c-3.623,2.006-7.576,3.007-11.862,3.007c-6.872,0-12.43-2.205-16.668-6.613
				C1079.817,633.491,1077.698,627.137,1077.698,618.847z M1086.253,618.847c0,6.288,1.371,10.998,4.115,14.127
				c2.743,3.128,6.195,4.693,10.355,4.693c4.132,0,7.569-1.573,10.313-4.718c2.742-3.146,4.113-7.938,4.113-14.381
				c0-6.072-1.379-10.673-4.138-13.804c-2.76-3.127-6.187-4.69-10.289-4.69c-4.16,0-7.612,1.556-10.355,4.668
				C1087.624,607.856,1086.253,612.557,1086.253,618.847z"/>
			<path  d="M1151.635,635.956l1.203,7.35c-2.343,0.493-4.439,0.739-6.289,0.739c-3.021,0-5.364-0.478-7.029-1.432
				c-1.664-0.954-2.837-2.211-3.513-3.771c-0.679-1.555-1.017-4.83-1.017-9.824v-28.254h-6.104v-6.473h6.104v-12.159l8.275-4.996
				v17.155h8.369v6.473h-8.369v28.715c0,2.375,0.145,3.902,0.439,4.578c0.293,0.68,0.769,1.218,1.435,1.62
				c0.661,0.4,1.608,0.601,2.842,0.601C1148.906,636.278,1150.124,636.171,1151.635,635.956z"/>
			<path  d="M1162.131,643.398v-9.479h9.479v9.479H1162.131z"/>
			<path  d="M1218.125,625.412l8.186,1.064c-0.895,5.642-3.185,10.056-6.868,13.247
				c-3.683,3.19-8.204,4.786-13.569,4.786c-6.721,0-12.122-2.197-16.208-6.591c-4.086-4.39-6.128-10.689-6.128-18.888
				c0-5.301,0.881-9.94,2.636-13.917c1.759-3.978,4.433-6.962,8.024-8.95c3.59-1.987,7.497-2.98,11.721-2.98
				c5.334,0,9.695,1.349,13.086,4.045c3.392,2.698,5.563,6.529,6.521,11.491l-8.094,1.248c-0.77-3.299-2.135-5.777-4.093-7.442
				c-1.957-1.667-4.322-2.499-7.098-2.499c-4.191,0-7.6,1.502-10.218,4.509c-2.621,3.005-3.93,7.762-3.93,14.265
				c0,6.599,1.263,11.39,3.792,14.379c2.525,2.992,5.824,4.488,9.894,4.488c3.267,0,5.996-1.005,8.184-3.007
				C1216.151,632.656,1217.539,629.574,1218.125,625.412z"/>
			<path  d="M1230.332,618.847c0-9.094,2.527-15.83,7.583-20.21c4.223-3.636,9.372-5.453,15.443-5.453
				c6.75,0,12.269,2.211,16.554,6.633c4.285,4.427,6.427,10.537,6.427,18.338c0,6.318-0.947,11.288-2.843,14.91
				c-1.896,3.62-4.655,6.437-8.276,8.438c-3.624,2.006-7.577,3.007-11.861,3.007c-6.873,0-12.432-2.205-16.669-6.613
				C1232.451,633.491,1230.332,627.137,1230.332,618.847z M1238.885,618.847c0,6.288,1.373,10.998,4.117,14.127
				c2.742,3.128,6.195,4.693,10.356,4.693c4.132,0,7.568-1.573,10.313-4.718c2.74-3.146,4.111-7.938,4.111-14.381
				c0-6.072-1.379-10.673-4.138-13.804c-2.759-3.127-6.188-4.69-10.287-4.69c-4.161,0-7.614,1.556-10.356,4.668
				C1240.258,607.856,1238.885,612.557,1238.885,618.847z"/>
			<path  d="M1286.098,643.398v-49.106h7.442v6.892c1.542-2.406,3.591-4.339,6.149-5.805
				c2.561-1.462,5.474-2.195,8.741-2.195c3.637,0,6.62,0.756,8.946,2.266c2.326,1.511,3.969,3.62,4.927,6.335
				c3.883-5.733,8.938-8.601,15.165-8.601c4.871,0,8.614,1.349,11.234,4.045c2.62,2.698,3.932,6.852,3.932,12.46v33.71h-8.276
				v-30.935c0-3.326-0.271-5.726-0.81-7.188c-0.541-1.466-1.519-2.644-2.936-3.537c-1.421-0.896-3.083-1.344-4.995-1.344
				c-3.45,0-6.319,1.151-8.601,3.445c-2.281,2.296-3.422,5.973-3.422,11.028v28.529h-8.322v-31.905c0-3.699-0.679-6.473-2.036-8.322
				c-1.356-1.85-3.574-2.775-6.657-2.775c-2.341,0-4.508,0.617-6.495,1.852c-1.989,1.232-3.433,3.035-4.324,5.409
				c-0.895,2.373-1.341,5.796-1.341,10.265v25.478H1286.098z"/>
		</g>
	</g>
</g>
</svg>
