<?xml version="1.0" encoding="utf-8"?>
<!-- Generator: Adobe Illustrator 16.0.0, SVG Export Plug-In . SVG Version: 6.00 Build 0)  -->
<!DOCTYPE svg PUBLIC "-//W3C//DTD SVG 1.1//EN" "http://www.w3.org/Graphics/SVG/1.1/DTD/svg11.dtd">
<svg version="1.1" id="Layer_1" xmlns="http://www.w3.org/2000/svg" xmlns:xlink="http://www.w3.org/1999/xlink" x="0px" y="0px"
	 width="1600px" height="1000px" viewBox="0 0 1600 1000" enable-background="new 0 0 1600 1000" xml:space="preserve">
<path fill="#FFF100" d="M703.655,452.032c0,16.742-13.572,30.314-30.314,30.314H509.858c-16.742,0-30.314-13.572-30.314-30.314
	V290.007c0-16.742,13.572-30.314,30.314-30.314h163.482c16.742,0,30.314,13.572,30.314,30.314V452.032z"/>
<g>
	<path d="M527.104,350.044v13.68c3.783,1.013,6.84,2.449,9.17,4.307c2.331,1.859,3.498,3.564,3.498,5.118
		c0,1.553-0.423,2.887-1.269,4.002c-0.845,1.114-1.621,1.672-2.33,1.672c-0.71,0-1.216-0.169-1.521-0.508
		c-0.303-0.336-0.625-1.045-0.962-2.127c-0.947-3.309-3.141-6.721-6.586-10.235v27.866c0,6.689,0.05,11.534,0.152,14.542
		c0.102,3.005,0.152,4.61,0.152,4.812c0,1.217-0.997,2.432-2.99,3.648c-1.993,1.216-3.362,1.824-4.103,1.824
		c-0.746,0-1.115-0.879-1.115-2.634l0.608-9.931c0.203-4.392,0.305-9.254,0.305-14.592v-26.143
		c-5.308,14.999-14.295,19.349-23.138,26.741l-1.013-1.014c10.871-11.743,20.728-24.5,23.239-41.027h-5.371
		c-2.837,0-5.134,0.371-6.891,1.114l-3.548-4.459c2.5,0.407,5.304,0.608,8.412,0.608h8.31v-6.891c0-5.403-0.136-11.077-0.407-17.023
		l9.223,4.965c0.743,0.34,1.114,0.676,1.114,1.013c0,0.339-0.371,0.745-1.114,1.217l-1.825,1.012v15.707"/>
	<path d="M620.242,350.044v13.68c3.782,1.013,6.839,2.449,9.17,4.307c2.331,1.859,3.495,3.564,3.495,5.118
		c0,1.553-0.421,2.887-1.266,4.002c-0.845,1.114-1.621,1.672-2.33,1.672c-0.71,0-1.216-0.169-1.521-0.508
		c-0.303-0.336-0.625-1.045-0.962-2.127c-0.946-3.309-3.141-6.721-6.587-10.235v27.866c0,6.689,0.05,11.534,0.152,14.542
		c0.102,3.005,0.152,4.61,0.152,4.812c0,1.217-0.997,2.432-2.99,3.648c-1.993,1.216-3.362,1.824-4.103,1.824
		c-0.745,0-1.115-0.879-1.115-2.634l0.607-9.931c0.204-4.392,0.305-9.254,0.305-14.592v-26.143
		c-5.306,14.999-14.294,19.349-23.137,26.741l-1.013-1.014c10.872-11.743,20.729-24.5,23.239-41.027h-5.37
		c-2.838,0-5.135,0.371-6.892,1.114l-3.546-4.459c2.498,0.407,5.303,0.608,8.411,0.608h8.308v-6.891
		c0-5.403-0.135-11.077-0.404-17.023l9.219,4.965c0.743,0.34,1.116,0.676,1.116,1.013c0,0.339-0.373,0.745-1.116,1.217l-1.822,1.012
		v15.707"/>
	<path d="M559.406,363.774h-15.605c-2.837,0-5.136,0.339-6.891,1.013l-3.545-4.458c2.565,0.405,5.37,0.608,8.41,0.608h35.061
		l5.979-7.297l6.484,7.904c0.472,0.677,0.71,1.216,0.71,1.622c0,0.404-0.473,0.608-1.418,0.608H566.5v41.395
		c0,3.244-0.289,5.589-0.861,7.043c-0.576,1.451-2.011,2.887-4.308,4.306c-2.297,1.418-3.817,2.128-4.56,2.128
		s-1.164-0.71-1.266-2.128c-0.101-1.418-1.013-2.669-2.736-3.748c-1.722-1.082-4.914-2.196-9.575-3.345l0.303-1.418
		c4.931,0.541,8.478,0.811,10.642,0.811c2.16,0,3.579-0.22,4.255-0.658c0.674-0.441,1.013-1.132,1.013-2.078V363.774z"/>
	<path d="M549.876,326.871c4.403-1.312,7.952-1.996,10.651-2.053c2.701-0.055,4.656,0.528,5.866,1.753
		c1.211,1.225,1.967,2.616,2.27,4.169c0.3,1.555-0.293,3.067-1.782,4.539c-0.576,0.57-1.175,0.735-1.794,0.492
		c-0.621-0.243-1.382-0.771-2.284-1.591c-3.658-3.41-7.756-5.344-12.291-5.801L549.876,326.871z"/>
	<path d="M665.492,383.687c-0.904,0.404-2.32,1.046-4.248,1.924c1.928,3.986,2.892,8.277,2.892,12.869
		c0,4.593-0.528,7.989-1.581,10.185c-1.056,2.193-2.802,4.17-5.242,5.927c-2.442,1.756-4.174,2.635-5.197,2.635
		c-0.424,0-0.725-0.744-0.904-2.229c-0.181-1.487-0.8-2.721-1.854-3.699c-1.055-0.98-3.209-2.045-6.463-3.192l0.271-1.418
		c4.458,0.743,7.592,1.114,9.4,1.114c1.808,0,3.072-0.371,3.796-1.114c0.724-0.745,1.357-2.129,1.899-4.156
		c0.542-2.025,0.813-4.104,0.813-6.231c0-2.128-0.123-3.867-0.362-5.218c-9.101,9.255-19.978,16.213-32.632,20.874l-0.542-1.621
		c11.69-6.148,22.205-14.252,31.547-24.321c-0.36-0.944-0.934-2.127-1.717-3.545c-5.845,6.823-14.464,12.665-25.851,17.53
		l-0.905-1.419c9.04-5.403,17.021-12.091,23.954-20.063c-0.664-0.743-1.206-1.317-1.627-1.723
		c-6.931,4.189-13.258,7.127-18.983,8.816l-0.723-1.316c6.99-3.851,14.341-8.579,22.058-14.188h-10.667
		c-2.531,0-4.581,0.371-6.147,1.114l-3.253-4.357c2.227,0.34,4.729,0.508,7.502,0.508h33.896l4.792-6.183l5.513,7.297
		c0.42,0.608,0.633,1.031,0.633,1.266c0,0.239-0.423,0.355-1.267,0.355h-23.049c-2.531,1.825-5.244,3.614-8.135,5.37
		c3.073,2.5,5.453,5.236,7.141,8.209c6.448-3.581,11.419-7.5,14.914-11.755l4.25,5.876c0.36,0.54,0.541,0.963,0.541,1.266
		c0,0.304-0.421,0.491-1.265,0.559c-2.531,0.338-6.357,1.486-11.479,3.445"/>
	<path d="M662.382,337.276v-4.561c0-2.701-0.09-5.809-0.272-9.322l7.413,4.358c0.663,0.338,0.994,0.692,0.994,1.063
		c0,0.372-0.302,0.759-0.902,1.166l-1.628,1.114v6.182h8.587l4.339-6.08l5.604,7.093c0.421,0.404,0.633,0.794,0.633,1.164
		c0,0.374-0.451,0.559-1.355,0.559h-17.808l0.271,3.445c0,0.609-0.756,1.317-2.26,2.127c-1.509,0.812-2.562,1.217-3.163,1.217
		c-0.604,0-0.845-1.047-0.725-3.142c0.12-1.013,0.182-2.229,0.182-3.647H650.63l0.362,4.255c0,0.878-0.724,1.707-2.169,2.483
		c-1.446,0.777-2.472,1.164-3.074,1.164c-0.603,0-0.812-0.894-0.632-2.685c0.181-1.788,0.271-3.53,0.271-5.218h-7.503
		c-2.411,0-4.46,0.371-6.146,1.114l-3.255-4.357c2.291,0.339,4.792,0.507,7.504,0.507h9.4v-3.953c0-2.498-0.09-5.538-0.271-9.119
		l7.05,3.445c0.421,0.204,0.633,0.44,0.633,0.709c0,0.272-0.242,0.676-0.723,1.216l-1.447,1.319v6.383H662.382z"/>
	<path d="M678.262,359.265c0.469,0.608,0.708,1.049,0.708,1.317c0,0.271-0.474,0.405-1.419,0.405h-24.421
		c-2.835,0-5.134,0.338-6.89,1.013l-3.749-4.357c2.565,0.404,5.37,0.608,8.411,0.608h17.53l4.458-5.27L678.262,359.265z"/>
	<path d="M657.002,383.749c2.069,2.008,7.486,7.207,17.716,10.8c3.854,1.354,6.167,2.084,6.167,2.084l5.665-7.786
		c0,0-1.571,1.008-11.832-0.243C661.252,386.966,657.002,383.749,657.002,383.749z"/>
	<g>
		<path d="M544.227,342.786c-0.148-1.125-0.395-2.171-0.573-2.837h-0.055c-0.204-1.08-0.676-2.87-1.418-5.371h-1.418
			c0.066,2.771-0.34,5.507-1.216,8.208c-0.88,2.704-2.011,4.881-3.396,6.537c-1.386,1.656-2.077,2.989-2.077,4.002
			c0,1.014,0.286,1.774,0.86,2.28c0.574,0.506,1.269,0.759,2.079,0.759c2.093,0,3.865-1.113,5.319-3.344
			c1.453-2.229,2.178-4.593,2.178-7.093c0-0.875-0.101-1.924-0.302-3.141H544.227z"/>
		<path d="M590.211,342.28l-7.195-7.093l-4.054,4.763h-32.058v2.837h32.16l-6.687,11.857l1.418,0.911
			c4.053-4.322,7.076-7.144,9.068-8.46c1.993-1.319,3.903-2.026,5.727-2.128c1.824-0.102,2.736-0.371,2.736-0.811
			C591.326,343.715,590.954,343.09,590.211,342.28z"/>
	</g>
	<g>
		<path d="M638.073,350.86c-0.103-1.176-0.22-2.373-0.301-3.202l-0.339-2.58h-1.627c-0.18,2.771-0.542,4.915-1.084,6.435
			c-0.542,1.52-1.552,2.888-3.029,4.104c-1.477,1.216-2.213,2.431-2.213,3.647c0,0.744,0.391,1.52,1.176,2.331
			c0.781,0.811,1.716,1.216,2.801,1.216c1.084,0,2.154-0.862,3.209-2.583c1.053-1.723,1.581-3.9,1.581-6.536
			c0-0.727-0.031-1.521-0.086-2.379C638.12,351.171,638.089,351.022,638.073,350.86z"/>
		<path d="M686.154,350.247l-6.236-6.485l-3.436,4.763h-35.73v2.735h36.996l-3.796,7.093l0.722,0.508
			c3.012-2.434,5.198-4.003,6.554-4.712c1.355-0.711,2.696-1.098,4.022-1.167c1.325-0.066,1.987-0.338,1.987-0.811
			C687.238,351.7,686.878,351.056,686.154,350.247z"/>
	</g>
</g>
<path fill="#FFF100" d="M1023.446,259.692H859.964c-16.742,0-30.314,13.572-30.314,30.314v162.025
	c0,16.742,13.572,30.314,30.314,30.314h163.482c16.742,0,30.314-13.572,30.314-30.314V290.007
	C1053.761,273.265,1040.188,259.692,1023.446,259.692z M986.094,337.276h9.4v-3.953c0-2.498-0.091-5.538-0.271-9.119l7.049,3.445
	c0.422,0.204,0.634,0.44,0.634,0.709c0,0.272-0.241,0.676-0.723,1.216l-1.446,1.319v6.383h11.751v-4.561
	c0-2.701-0.091-5.809-0.272-9.322l7.412,4.358c0.664,0.338,0.994,0.692,0.994,1.063c0,0.372-0.302,0.759-0.902,1.166l-1.627,1.114
	v6.182h8.587l4.339-6.08l5.604,7.093c0.422,0.404,0.633,0.794,0.633,1.164c0,0.374-0.45,0.559-1.355,0.559h-17.807l0.271,3.445
	c0,0.609-0.756,1.317-2.261,2.127c-1.509,0.812-2.562,1.217-3.163,1.217c-0.604,0-0.845-1.047-0.725-3.142
	c0.12-1.013,0.182-2.229,0.182-3.647h-11.66l0.361,4.255c0,0.878-0.724,1.707-2.17,2.483c-1.445,0.777-2.471,1.164-3.074,1.164
	c-0.603,0-0.812-0.894-0.631-2.685c0.181-1.788,0.271-3.53,0.271-5.218h-7.504c-2.41,0-4.46,0.371-6.146,1.114l-3.255-4.357
	C980.88,337.107,983.381,337.276,986.094,337.276z M988.352,353.691c0,2.636-0.527,4.813-1.58,6.536
	c-1.056,1.722-2.125,2.583-3.209,2.583c-1.086,0-2.021-0.405-2.802-1.216c-0.785-0.811-1.176-1.586-1.176-2.331
	c0-1.217,0.736-2.432,2.213-3.647c1.478-1.217,2.487-2.585,3.029-4.104c0.542-1.52,0.904-3.663,1.084-6.435h1.627l0.339,2.58
	c0.082,0.829,0.198,2.026,0.301,3.202c0.017,0.162,0.047,0.311,0.088,0.452C988.321,352.17,988.352,352.964,988.352,353.691z
	 M910.633,324.818c2.701-0.055,4.656,0.528,5.867,1.753c1.211,1.225,1.967,2.616,2.27,4.169c0.3,1.555-0.293,3.067-1.782,4.539
	c-0.576,0.57-1.175,0.735-1.794,0.492c-0.621-0.243-1.382-0.771-2.284-1.591c-3.657-3.41-7.756-5.344-12.29-5.801l-0.637-1.509
	C904.385,325.559,907.934,324.875,910.633,324.818z M897.01,339.949h32.058l4.054-4.763l7.195,7.093
	c0.743,0.811,1.115,1.436,1.115,1.875c0,0.439-0.912,0.708-2.736,0.811c-1.824,0.102-3.733,0.809-5.727,2.128
	c-1.992,1.317-5.016,4.139-9.068,8.46l-1.418-0.911l6.688-11.857h-32.16V339.949z M886.256,349.323
	c1.384-1.655,2.515-3.833,3.395-6.537c0.877-2.701,1.283-5.436,1.217-8.208h1.418c0.742,2.5,1.215,4.291,1.418,5.371h0.056
	c0.179,0.666,0.425,1.711,0.573,2.837h-0.02c0.201,1.217,0.303,2.266,0.303,3.141c0,2.5-0.727,4.864-2.179,7.093
	c-1.454,2.231-3.226,3.344-5.319,3.344c-0.811,0-1.505-0.253-2.078-0.759c-0.574-0.506-0.86-1.266-0.86-2.28
	C884.179,352.312,884.869,350.979,886.256,349.323z M888.607,377.15c-0.844,1.114-1.621,1.672-2.329,1.672
	c-0.71,0-1.216-0.169-1.521-0.508c-0.303-0.336-0.625-1.045-0.963-2.127c-0.946-3.309-3.141-6.721-6.586-10.235v27.866
	c0,6.689,0.051,11.534,0.152,14.542c0.102,3.005,0.152,4.61,0.152,4.812c0,1.217-0.997,2.432-2.99,3.648
	c-1.993,1.216-3.362,1.824-4.104,1.824c-0.745,0-1.115-0.879-1.115-2.634l0.608-9.931c0.202-4.392,0.305-9.254,0.305-14.592v-26.143
	c-5.308,14.999-14.296,19.349-23.138,26.741l-1.014-1.014c10.871-11.743,20.729-24.5,23.238-41.027h-5.37
	c-2.837,0-5.134,0.371-6.891,1.114l-3.548-4.459c2.5,0.407,5.305,0.608,8.412,0.608h8.31v-6.891c0-5.403-0.136-11.077-0.407-17.023
	l9.223,4.965c0.744,0.34,1.115,0.676,1.115,1.013c0,0.339-0.371,0.745-1.115,1.217l-1.824,1.012v15.707v2.737v13.68
	c3.783,1.013,6.84,2.449,9.17,4.307c2.331,1.859,3.498,3.564,3.498,5.118C889.877,374.701,889.453,376.035,888.607,377.15z
	 M916.605,363.774v41.395c0,3.244-0.289,5.589-0.861,7.043c-0.576,1.451-2.012,2.887-4.309,4.306s-3.816,2.128-4.56,2.128
	s-1.164-0.71-1.267-2.128c-0.1-1.418-1.013-2.669-2.736-3.748c-1.721-1.082-4.913-2.196-9.574-3.345l0.303-1.418
	c4.932,0.541,8.478,0.811,10.642,0.811c2.16,0,3.579-0.22,4.255-0.658c0.674-0.441,1.014-1.132,1.014-2.078v-42.306h-15.605
	c-2.837,0-5.136,0.339-6.891,1.013l-3.545-4.458c2.564,0.405,5.369,0.608,8.409,0.608h35.061l5.979-7.297l6.484,7.904
	c0.471,0.677,0.709,1.216,0.709,1.622c0,0.404-0.473,0.608-1.418,0.608H916.605z M967.662,416.822
	c-1.994,1.216-3.363,1.824-4.104,1.824c-0.745,0-1.115-0.879-1.115-2.634l0.607-9.931c0.203-4.392,0.305-9.254,0.305-14.592v-26.143
	c-5.307,14.999-14.295,19.349-23.138,26.741l-1.013-1.014c10.871-11.743,20.729-24.5,23.238-41.027h-5.37
	c-2.838,0-5.135,0.371-6.892,1.114l-3.546-4.459c2.498,0.407,5.303,0.608,8.411,0.608h8.309v-6.891
	c0-5.403-0.136-11.077-0.404-17.023l9.219,4.965c0.743,0.34,1.116,0.676,1.116,1.013c0,0.339-0.373,0.745-1.116,1.217l-1.822,1.012
	v15.707v2.737v13.68c3.782,1.013,6.839,2.449,9.17,4.307c2.331,1.859,3.495,3.564,3.495,5.118c0,1.553-0.421,2.887-1.267,4.002
	c-0.845,1.114-1.621,1.672-2.329,1.672c-0.71,0-1.216-0.169-1.521-0.508c-0.303-0.336-0.625-1.045-0.962-2.127
	c-0.946-3.309-3.142-6.721-6.587-10.235v27.866c0,6.689,0.051,11.534,0.152,14.542c0.102,3.005,0.152,4.61,0.152,4.812
	C970.652,414.39,969.654,415.605,967.662,416.822z M1030.991,396.634c0,0-2.313-0.73-6.167-2.084
	c-5.396-1.895-9.44-4.234-12.373-6.319c1.188,3.231,1.79,6.646,1.79,10.25c0,4.593-0.528,7.989-1.581,10.185
	c-1.056,2.193-2.803,4.17-5.242,5.927c-2.441,1.756-4.174,2.635-5.197,2.635c-0.424,0-0.725-0.744-0.904-2.229
	c-0.182-1.487-0.801-2.721-1.854-3.699c-1.055-0.98-3.209-2.045-6.463-3.192l0.271-1.418c4.458,0.743,7.592,1.114,9.4,1.114
	c1.808,0,3.072-0.371,3.796-1.114c0.724-0.745,1.356-2.129,1.899-4.156c0.541-2.025,0.812-4.104,0.812-6.231
	c0-2.128-0.122-3.867-0.361-5.218c-9.101,9.255-19.978,16.213-32.633,20.874l-0.541-1.621c11.689-6.148,22.205-14.252,31.547-24.321
	c-0.36-0.944-0.934-2.127-1.717-3.545c-5.846,6.823-14.465,12.665-25.852,17.53l-0.904-1.419
	c9.039-5.403,17.021-12.091,23.953-20.063c-0.664-0.743-1.205-1.317-1.627-1.723c-6.931,4.189-13.258,7.127-18.983,8.816
	l-0.723-1.316c6.99-3.851,14.341-8.579,22.058-14.188h-10.668c-2.531,0-4.58,0.371-6.146,1.114l-3.254-4.357
	c2.227,0.34,4.73,0.508,7.502,0.508h33.896l4.793-6.183l5.513,7.297c0.421,0.608,0.634,1.031,0.634,1.266
	c0,0.239-0.424,0.355-1.268,0.355h-23.049c-2.531,1.825-5.244,3.614-8.135,5.37c3.072,2.5,5.452,5.236,7.141,8.209
	c6.447-3.581,11.419-7.5,14.914-11.755l4.25,5.876c0.359,0.54,0.54,0.963,0.54,1.266c0,0.304-0.421,0.491-1.265,0.559
	c-2.531,0.338-6.357,1.486-11.48,3.445l-1.717,0.609c-0.904,0.404-2.32,1.046-4.248,1.924c0.02,0.04,0.035,0.081,0.055,0.121
	c2.771,0.974,7.057,2.098,13.42,2.873c10.261,1.251,11.832,0.243,11.832,0.243L1030.991,396.634z M1035.356,352.982
	c-1.325,0.068-2.667,0.456-4.022,1.167c-1.045,0.546-2.59,1.61-4.621,3.183l1.654,1.934c0.469,0.608,0.709,1.049,0.709,1.317
	c0,0.271-0.475,0.405-1.42,0.405h-24.422c-2.835,0-5.134,0.338-6.889,1.013l-3.75-4.357c2.566,0.404,5.371,0.608,8.411,0.608h17.53
	l4.457-5.27l2.423,2.833l2.438-4.556h-36.996v-2.735h35.729l3.436-4.763l6.236,6.485c0.724,0.81,1.084,1.453,1.084,1.925
	C1037.344,352.644,1036.682,352.916,1035.356,352.982z"/>
</svg>
