<?xml version="1.0" encoding="utf-8"?>
<!-- Generator: Adobe Illustrator 16.0.0, SVG Export Plug-In . SVG Version: 6.00 Build 0)  -->
<!DOCTYPE svg PUBLIC "-//W3C//DTD SVG 1.1//EN" "http://www.w3.org/Graphics/SVG/1.1/DTD/svg11.dtd">
<svg version="1.1" id="Layer_1" xmlns="http://www.w3.org/2000/svg" xmlns:xlink="http://www.w3.org/1999/xlink" x="0px" y="0px"
	 width="1600px" height="1000px" viewBox="0 0 1600 1000" enable-background="new 0 0 1600 1000" xml:space="preserve">
<g>
	<path fill-rule="evenodd" clip-rule="evenodd"  d="M850.154,422.404c-1.169,11.088-6.403,21.753-15.514,29.486
		c-18.684,15.862-46.54,13.397-62.218-5.508c-4.883-5.886-7.972-12.681-9.393-19.716c-32.307,18.545-74.07,11.769-98.8-18.051
		c-27.873-33.608-23.541-83.712,9.677-111.913c33.217-28.199,82.737-23.817,110.61,9.786l75.702,91.277l-11.044,9.375l11.044-9.375
		l0.21-0.18c0.9,1.368,1.878,2.702,2.944,3.988c15.681,18.905,43.536,21.372,62.222,5.508c18.687-15.863,21.125-44.048,5.445-62.954
		c-15.679-18.904-43.537-21.371-62.223-5.508c-1.271,1.081-2.46,2.221-3.579,3.407l-0.181-0.217l-5.634,4.782
		c-0.001,0.001-0.002,0.003-0.005,0.004c-0.005,0.002-0.007,0.004-0.009,0.007l-0.365,0.312l-0.019-0.018
		c-5.049,3.954-12.262,3.314-16.557-1.467l-0.022,0.019l-42.721-51.511c-0.057-0.069-0.11-0.141-0.168-0.209
		c-18.585-22.411-44.875-34.424-71.663-35.405c2.16-22.474,12.682-44.144,31.131-59.806c37.369-31.725,93.08-26.793,124.438,11.014
		c23.558,28.406,26.646,67.278,10.887,98.313c16.794,1.086,33.14,8.834,44.811,22.907c22.647,27.306,19.127,68.018-7.861,90.931
		C907.502,441.885,873.413,441.494,850.154,422.404 M766.354,323.205l-0.229,0.194c-1.096-1.625-2.279-3.21-3.557-4.75
		c-20.902-25.204-58.042-28.491-82.951-7.343c-24.914,21.147-28.163,58.725-7.258,83.927c20.887,25.185,57.986,28.485,82.898,7.387
		l23.359-19.833l0.021,0.024c8.526-6.921,18.854-10.12,29.031-9.791L766.354,323.205z M840.261,206.527
		c-3.597-1.364-7.235-2.333-10.88-2.942c-0.462,1.65-0.884,3.306-1.456,4.944c-0.169,0.487-0.396,0.935-0.574,1.417
		c1.216,0.385,2.429,0.787,3.636,1.245c29.671,11.249,47.641,41.324,46.701,73.244C886.292,252.032,870.329,217.926,840.261,206.527
		 M710.933,250.995c-8.004,1.428-15.636-3.982-17.048-12.084c-1.412-8.104,3.933-15.83,11.937-17.258
		c8.004-1.429,15.637,3.981,17.05,12.083C724.282,241.84,718.938,249.566,710.933,250.995 M704.247,264.017
		c0.938,5.397-2.627,10.548-7.961,11.502c-5.334,0.955-10.419-2.648-11.357-8.047c-0.938-5.396,2.627-10.545,7.962-11.501
		C698.225,255.016,703.308,258.618,704.247,264.017"/>
	<path fill-rule="evenodd" clip-rule="evenodd"  d="M957.463,788.312c3.388,3.406,5.197,8.496,5.197,14.564
		c0,11.812-6.822,19.469-17.36,19.469c-10.535,0-17.312-7.61-17.312-19.469c0-6.021,1.857-11.205,5.293-14.564
		c3.202-3.176,7.054-4.669,11.974-4.669C950.361,783.644,954.306,785.137,957.463,788.312 M945.347,789.151
		c-6.684,0-10.907,5.321-10.907,13.771c0,4.67,1.345,8.593,3.761,11.021c1.901,1.866,4.363,2.846,7.192,2.846
		c6.639,0,10.77-5.32,10.77-13.912c0-4.714-1.301-8.496-3.667-10.877C950.592,790.133,948.131,789.151,945.347,789.151
		 M710.89,802.877c0,11.812-6.824,19.469-17.361,19.469c-10.536,0-17.312-7.61-17.312-19.469c0-6.021,1.856-11.205,5.291-14.564
		c3.203-3.176,7.055-4.669,11.977-4.669c5.106,0,9.049,1.493,12.206,4.669C709.078,791.719,710.89,796.809,710.89,802.877
		 M700.724,792c-1.902-1.867-4.363-2.849-7.148-2.849c-6.685,0-10.907,5.321-10.907,13.771c0,4.67,1.345,8.593,3.759,11.021
		c1.903,1.866,4.364,2.846,7.195,2.846c6.637,0,10.768-5.32,10.768-13.912C704.391,798.163,703.091,794.381,700.724,792
		 M520.22,789.105c0.882-2.334,1.252-3.502,1.486-4.716h8.076c0.231,1.121,0.51,1.869,1.578,4.716l10.305,26.938
		c1.159,2.987,1.717,4.294,2.366,5.51h-7.612c-0.279-1.542-0.788-3.549-1.299-4.902l-1.857-5.09H518.41l-1.857,5.09
		c-0.835,2.24-1.021,2.94-1.392,4.902h-7.613c0.698-1.261,1.625-3.362,2.461-5.51L520.22,789.105z M531.591,806.191l-4.965-13.818
		c-0.186-0.514-0.326-1.074-0.835-2.612c-0.744,2.192-0.744,2.192-0.882,2.612l-4.828,13.818H531.591z M574.774,784.39h7.055
		c-0.278,1.773-0.371,3.222-0.371,6.021v25.118c0,2.754,0.093,4.248,0.371,6.023h-7.055c0.278-1.775,0.371-3.27,0.371-6.023v-25.118
		C575.145,787.518,575.052,786.259,574.774,784.39 M622.87,788.966l6.73,11.483l6.824-11.438c1.16-2.007,1.856-3.408,2.181-4.622
		h8.077c-0.649,0.934-2.412,3.503-3.203,4.81l-10.723,17.134v9.196c0,2.336,0.093,4.248,0.373,6.023h-7.009
		c0.232-1.775,0.371-3.643,0.371-6.023v-9.244l-10.722-17.086c-0.697-1.12-1.765-2.661-3.25-4.81h8.124
		C621.013,785.651,621.616,786.911,622.87,788.966 M749.708,790.786v16.479c0,6.303,3.248,9.618,9.515,9.618
		c6.22,0,9.422-3.315,9.422-9.664v-16.434c0-2.988-0.092-4.669-0.371-6.396h6.917c-0.28,1.728-0.372,3.408-0.372,6.351v16.571
		c0,9.665-5.709,15.081-15.829,15.081c-5.152,0-9.423-1.588-11.975-4.389c-2.368-2.567-3.48-6.068-3.48-10.738v-16.479
		c0-2.894-0.094-4.715-0.373-6.396h6.917C749.801,785.977,749.708,787.751,749.708,790.786 M824.498,783.644
		c3.62,0,6.358,0.7,8.913,2.241c2.089,1.307,3.76,3.034,4.92,5.088c0.557,0.98,0.881,1.819,1.438,3.595l-6.45,1.495
		c-0.651-2.056-1.068-2.942-1.998-4.018c-1.578-1.912-3.897-2.894-6.776-2.894c-6.591,0-10.583,5.183-10.583,13.771
		c0,8.546,4.086,13.866,10.583,13.866c3.249,0,6.034-1.26,7.52-3.454c0.788-1.168,1.161-2.146,1.532-4.294l6.639,1.166
		c-0.884,3.361-1.719,5.182-3.111,7.005c-2.646,3.268-7.102,5.087-12.671,5.087c-5.06,0-9.099-1.539-11.93-4.482
		c-3.25-3.408-5.06-8.684-5.06-14.657c0-6.164,1.948-11.58,5.431-15.08C815.68,785.229,819.857,783.644,824.498,783.644
		 M872.414,784.39h7.01c-0.279,1.914-0.37,3.455-0.37,6.863v24.65h12.996c3.155,0,4.642-0.094,6.591-0.327v6.302
		c-1.672-0.234-3.296-0.325-6.591-0.325h-13.74c-2.599,0-4.225,0.046-5.896,0.14c0.28-1.729,0.372-3.454,0.372-6.163v-24.23
		C872.786,788.079,872.694,786.397,872.414,784.39 M1001.479,790.786v16.479c0,6.303,3.249,9.618,9.514,9.618
		c6.222,0,9.426-3.315,9.426-9.664v-16.434c0-2.988-0.094-4.669-0.371-6.396h6.917c-0.281,1.728-0.373,3.408-0.373,6.351v16.571
		c0,9.665-5.709,15.081-15.829,15.081c-5.152,0-9.421-1.588-11.974-4.389c-2.368-2.567-3.483-6.068-3.483-10.738v-16.479
		c0-2.894-0.093-4.715-0.371-6.396h6.915C1001.57,785.977,1001.479,787.751,1001.479,790.786 M1060.442,784.25
		c1.856,0.094,2.971,0.14,5.894,0.14h8.402c5.803,0,9.562,1.214,12.533,4.109c3.388,3.22,5.152,8.076,5.152,14.145
		c0,6.351-1.857,11.392-5.478,14.848c-2.972,2.801-6.685,4.062-12.161,4.062h-8.449c-2.83,0-3.991,0.046-5.894,0.14
		c0.278-1.915,0.371-3.363,0.371-6.163V790.32C1060.813,787.705,1060.721,786.304,1060.442,784.25 M1066.987,816.043h7.38
		c3.806,0,6.267-0.888,8.216-2.986c2.229-2.383,3.388-5.977,3.388-10.367c0-4.436-1.068-7.748-3.202-9.989
		c-1.903-2.007-4.316-2.801-8.354-2.801h-7.427V816.043z"/>
	<path fill-rule="evenodd" clip-rule="evenodd"  d="M1002.03,716.681c-0.685,3.166,1.371,5.651,4.109,5.651h75.136
		c-0.006-0.01-0.012-0.019-0.018-0.029h17.968c11.175,0,20.232-8.098,20.232-19.236c0-7.475-4.09-13.985-10.15-17.471
		c-0.689-0.396-1.398-0.768-2.14-1.083c-0.744-0.317-1.518-0.58-2.305-0.808c-0.199-0.057-0.403-0.104-0.605-0.155
		c-0.602-0.155-1.216-0.28-1.84-0.378c-0.23-0.038-0.459-0.08-0.69-0.107c-0.821-0.101-1.652-0.169-2.502-0.169
		c-0.939,0-1.86,0.072-2.766,0.195c-0.282,0.039-0.554,0.112-0.832,0.163c-0.354,0.063-0.699,0.149-1.049,0.226
		c-2.476-2.971-5.822-5.187-9.647-6.277c-0.021-0.149-0.015-0.303-0.038-0.451c-0.024-0.152-0.04-0.309-0.067-0.46
		c-0.177-0.949-0.426-1.872-0.734-2.769c-0.057-0.162-0.117-0.325-0.177-0.486c-0.337-0.896-0.728-1.77-1.187-2.601
		c-0.049-0.088-0.106-0.174-0.157-0.26c-0.498-0.866-1.048-1.698-1.671-2.475c-0.001-0.002-0.005-0.006-0.006-0.01
		c-2.669-3.321-6.408-5.752-10.697-6.774c-0.521-0.124-1.051-0.226-1.587-0.307c-0.224-0.035-0.445-0.077-0.67-0.103
		c-0.755-0.088-1.521-0.146-2.3-0.146c-0.897,0-1.77,0.095-2.632,0.213c-0.849,0.133-1.678,0.322-2.492,0.543
		c-0.005-0.005-0.009-0.01-0.011-0.015c-2.365,0.645-4.571,1.669-6.487,3.089c-1.935-1.281-3.474-3.107-4.398-5.258
		c1.132-2.068,2.538-3.959,4.128-5.678c-0.002,0-0.004-0.001-0.004-0.003c0.033-0.039,0.071-0.07,0.107-0.107
		c0.604-0.645,1.229-1.264,1.89-1.853c0.081-0.071,0.163-0.14,0.244-0.208c0.635-0.555,1.292-1.085,1.975-1.584
		c0.146-0.104,0.294-0.201,0.442-0.305c0.629-0.442,1.269-0.863,1.935-1.254c0.242-0.144,0.494-0.272,0.745-0.407
		c0.586-0.321,1.177-0.635,1.787-0.917c0.363-0.167,0.735-0.311,1.105-0.464c0.525-0.215,1.044-0.429,1.583-0.614
		c0.48-0.166,0.974-0.299,1.466-0.438c0.351-0.101,0.688-0.227,1.044-0.312c0.009,0.006,0.017,0.015,0.025,0.021
		c2.18-0.53,4.447-0.841,6.793-0.841c7.06,0,13.513,2.552,18.516,6.759c0.006,0,0.01-0.003,0.012-0.005
		c0.045,0.037,0.081,0.076,0.121,0.11c0.469,0.398,0.913,0.819,1.352,1.247c0.174,0.164,0.355,0.323,0.521,0.494
		c0.434,0.439,0.843,0.902,1.245,1.372c0.157,0.18,0.319,0.348,0.472,0.531c0.39,0.475,0.752,0.971,1.111,1.468
		c0.143,0.198,0.294,0.386,0.433,0.586c0.339,0.497,0.65,1.019,0.959,1.54c0.13,0.217,0.272,0.427,0.399,0.649
		c0.288,0.52,0.545,1.056,0.802,1.596c0.116,0.241,0.246,0.475,0.356,0.719c0.24,0.54,0.445,1.099,0.652,1.654
		c0.097,0.259,0.209,0.507,0.298,0.769c0.197,0.587,0.359,1.19,0.52,1.792c0.066,0.245,0.149,0.483,0.21,0.73
		c0.202,0.853,0.37,1.722,0.497,2.604c3.959-1.348,8.205-2.08,12.618-2.08c0.728,0,1.447,0.022,2.161,0.06
		c0.003,0.018,0.002,0.034,0.003,0.051c20.55,1.126,36.877,18.044,36.877,38.813c0,21.39-17.307,38.733-38.717,38.906
		c0,0.005-0.001,0.009-0.001,0.011h-0.207c-0.037,0-0.076,0.007-0.116,0.007c-0.053,0-0.105-0.005-0.161-0.007H974.392
		c-7.763,0-12.556-6.782-10.503-13.791l33.332-101.794h-45.887v-22.018h199.714v22.018h-117.986L1002.03,716.681z M1075.772,646.66
		c-1.408,0-2.784,0.144-4.121,0.413c0.039,0.638,0.096,1.271,0.096,1.917c0,0.193-0.027,0.38-0.029,0.572
		c0.467-0.027,0.937-0.047,1.409-0.047c11.629,0,21.483,8.119,25.016,19.384C1097.205,656.451,1087.558,646.66,1075.772,646.66
		 M1146.991,699.226c-1.231-15.842-13.894-28.303-29.359-28.303c-1.85,0-3.657,0.184-5.41,0.525
		c0.054,0.812,0.123,1.617,0.123,2.442c0,0.245-0.031,0.481-0.035,0.726c0.612-0.034,1.227-0.062,1.849-0.062
		C1129.422,674.555,1142.354,684.89,1146.991,699.226 M967.592,539.507h167.2v22.065h-167.2V539.507z M867.192,617.12
		c-0.724,0-1.438-0.033-2.151-0.074c-0.2-0.014-0.404-0.016-0.602-0.03c-0.253-0.019-0.503-0.055-0.754-0.078l-0.365,0.205v97.271
		c0,4.548,3.649,8.228,8.16,8.228h28.341v21.275h-51.46c-7.73,0-14.174-6.279-14.174-14.291V617.143h-9.052
		c-5.799,53.271-15.211,91.044-29.596,126.774h-26.914c17.177-48.291,25.516-79.351,30.884-126.774h-37.897V596.8h40.939
		c1.717-17.108,2.791-37.163,3.435-56.871h25.411c-0.43,18.842-1.503,39.114-3.221,56.871h24.798
		c9.767-0.719,17.465-8.662,17.465-18.381c0-10.189-8.462-18.449-18.899-18.449c-0.512,0-1.011,0.056-1.515,0.093
		c-1.133-2.314-1.794-4.891-1.794-7.631c0-0.7,0.053-1.387,0.133-2.067c5.51-3.298,11.957-5.244,18.898-5.244
		c17.589,0,32.268,12.177,35.668,28.37c0.477,2.291,0.73,4.663,0.73,7.092C903.662,600.247,887.333,617.12,867.192,617.12
		 M868.735,549.016c-1.728,0-3.416,0.169-5.054,0.484c0.047,0.741,0.115,1.479,0.115,2.231c0,0.225-0.029,0.443-0.035,0.664
		c0.573-0.031,1.148-0.052,1.729-0.052c14.257,0,26.339,9.45,30.671,22.564C895.012,560.418,883.185,549.016,868.735,549.016
		 M749.054,597.099V744.35h-23.872v-95.064h-27.055c15.031-36.595,26.411-73.192,33.925-109.788h29.56
		c-3.864,19.922-8.587,38.979-14.6,57.602H749.054z M597.804,606.198h-17.783v-22.151h-66.984v22.151h-17.782l-4.586-22.151H444.98
		v-21.859h39.534l-4.111-21.465h32.634v21.465h66.984v-21.465h32.633l-4.11,21.465h39.534v21.859h-45.689L597.804,606.198z
		 M523.986,686.104c-21.897-18.738-39.932-39.919-54.745-68.348h32.633c12.237,21.323,27.266,37.334,44.655,51.978
		c17.39-14.644,32.204-30.654,44.655-51.978h32.634c-15.028,28.429-33.062,49.609-54.746,68.348
		c22.757,14.216,49.666,24.338,78.863,30.8v27.137c-39.718-9.477-73.712-22.615-101.406-40.921
		c-27.911,18.306-61.904,31.444-101.407,40.921v-27.137C474.321,710.441,501.229,700.319,523.986,686.104 M614.012,622.817h-20.306
		l9.17,3.469c0,0-4.908,22.191-34.558,53.623C586.415,664.176,601.468,646.69,614.012,622.817"/>
</g>
</svg>
