<?xml version="1.0" encoding="utf-8"?>
<!-- Generator: Adobe Illustrator 16.0.0, SVG Export Plug-In . SVG Version: 6.00 Build 0)  -->
<!DOCTYPE svg PUBLIC "-//W3C//DTD SVG 1.1//EN" "http://www.w3.org/Graphics/SVG/1.1/DTD/svg11.dtd">
<svg version="1.1" id="Layer_1" xmlns="http://www.w3.org/2000/svg" xmlns:xlink="http://www.w3.org/1999/xlink" x="0px" y="0px"
	 width="1600px" height="1000px" viewBox="0 0 1600 1000" enable-background="new 0 0 1600 1000" xml:space="preserve">
<g>
	<g>
		<path  d="M828.037,407.118c-3.066-11.872-9.875-20.889-20.21-27.043c-10.117-6.381-25.502-9.458-46.177-9.458
			c-4.832,0-9.445,0.227-13.844,0.673c-19.566,2.186-36.719,9.003-51.663,20.22c-8.8,6.809-16.043,14.721-21.979,23.511
			c-6.163,9.236-10.767,19.789-13.849,31.219c-4.176,15.83-4.176,29.688,0,41.555c3.082,8.78,7.686,15.83,13.849,21.097
			c1.977,1.764,4.176,3.082,6.59,4.4c9.671,5.49,23.965,8.135,43.086,8.135c8.576,0,16.484-0.444,23.966-1.322
			c11.212-1.54,20.883-4.178,29.014-8.131c13.625-6.163,26.378-16.707,38.254-31.21l-52.98-5.054
			c-4.623,4.39-8.572,7.467-12.089,9.226c-0.659,0.446-1.55,0.655-2.199,1.095c-4.836,1.986-9.682,2.859-14.29,2.859
			c-8.577,0-14.736-3.082-18.457-9.227c-2.646-4.4-3.304-10.999-1.987-20.007h34.733h75.832l1.764-6.158
			C830.247,434.373,831.129,418.985,828.037,407.118z M774.625,433.273h-26.819h-27.697c3.073-8.576,7.035-15.17,11.425-19.338
			c5.059-5.063,10.34-8.14,16.272-9.681c2.413-0.664,4.84-0.882,7.48-0.882c7.686,0,13.19,2.205,16.708,7.041
			C775.503,414.803,776.385,422.502,774.625,433.273z"/>
		<polygon  points="691.308,373.913 674.165,373.913 635.464,373.913 582.497,465.371 578.312,373.913 
			520.728,373.913 543.139,518.127 592.16,518.127 674.165,398.754 		"/>
		<polygon  points="474.783,318.964 465.102,356.556 520.282,356.556 530.172,318.964 		"/>
		<polygon  points="423.121,469.11 422.897,469.11 327.045,469.11 366.4,318.964 304.838,318.964 252.521,518.127 
			410.367,518.127 422.897,469.983 		"/>
		<polygon  points="422.897,517.464 422.675,518.127 422.897,518.127 478.078,518.127 515.878,373.913 
			460.489,373.913 		"/>
		<path  d="M1351.679,350.183c-1.527-5.936-4.392-11.435-8.354-16.716c-4.178-5.273-10.111-9.667-17.802-12.958
			c-7.695-3.309-18.239-4.845-31.669-4.845c-10.1,0-19.557,0.882-28.348,2.854c-15.394,3.518-28.801,10.118-40.005,19.784
			c-17.588,15.181-31.224,41.55-41.108,79.582c-1.977,7.254-3.518,14.507-4.84,21.325c-1.1,7.259-1.978,14.071-2.195,20.884
			c-0.668,11.217,0.218,20.215,2.195,27.261c0.44,0.877,0.664,1.972,1.1,2.631c3.954,10.335,10.326,18.252,19.12,23.525
			c9.022,5.495,21.989,8.136,38.696,8.136c9.671,0,18.685-0.882,27.037-2.641c17.366-3.736,31.434-11.203,42.65-22.647
			c16.707-16.693,29.674-43.078,39.131-79.35c4.174-16.048,6.377-31.433,6.591-46.391
			C1354.101,362.709,1353.451,355.892,1351.679,350.183z M1291.672,419.42c-4.845,18.035-9.24,31.219-13.412,39.791
			c-3.741,7.917-7.918,13.626-12.754,17.588c-0.218,0.446-0.658,0.665-1.1,1.101c-5.271,3.955-10.549,5.94-16.267,5.94
			c-8.576,0-13.848-4.622-15.834-14.07c-1.959-9.231,0.227-26.379,6.822-51.886c6.589-25.061,13.188-42.204,19.784-51.657
			c1.977-2.854,4.172-5.504,6.594-7.472c5.06-4.182,10.544-6.381,16.708-6.381c9.017,0,14.502,4.617,16.716,13.635
			C1300.907,375.245,1298.484,393.047,1291.672,419.42z"/>
		<path  d="M1008.522,373.694c0.436-1.531,0.891-3.077,1.326-4.608c2.627-10.331,2.191-19.338-1.326-27.475
			c-1.75-3.745-4.391-7.476-7.69-10.776c-10.112-10.112-28.36-15.171-54.962-15.171c-4.177,0-8.344,0-12.308,0.446
			c-14.953,1.317-28.143,5.272-39.578,11.645c-18.461,10.548-29.877,24.183-34.073,40.891c-2.859,10.112-2.403,19.13,1.1,27.038
			c2.429,5.713,7.478,10.767,14.953,15.389c-12.524,4.399-22.644,10.767-30.114,18.902c-7.472,8.136-12.971,18.035-16.048,29.683
			c-3.082,11.872-2.859,22.861,0.214,32.528c3.304,9.671,9.893,16.925,19.797,21.979c9.885,5.059,25.275,7.481,46.372,7.481
			c11.222,0,22.212-1.1,32.542-3.3c1.754-0.437,3.295-0.882,4.836-1.318c8.571-1.982,16.262-5.271,22.86-9.226
			c7.918-4.627,15.167-11.227,21.989-20.007c6.803-8.577,11.657-18.025,14.293-27.919c2.627-10.331,2.405-19.785-0.668-28.137
			c-3.086-8.572-9.239-15.395-18.693-20.667c9.454-5.495,16.939-10.994,22.425-16.708
			C1001.709,387.775,1005.881,380.961,1008.522,373.694z M937.739,457.681c-1.096,3.512-2.413,6.812-4.177,10.112
			c-2.423,4.172-5.495,8.136-9.449,11.426c-6.822,5.499-13.412,8.354-20.011,8.354c-6.809,0-12.309-2.636-16.258-8.354
			c-3.735-5.499-4.627-12.749-2.204-21.538c2.413-9.236,6.812-16.5,13.412-21.989c6.59-5.49,13.18-8.135,20.002-8.135
			c6.145,0,10.99,1.981,14.508,6.153c0.664,0.663,1.317,1.545,1.764,2.199C939.271,441.627,939.939,448.881,937.739,457.681z
			 M956.205,372.604c-1.535,6.595-5.055,11.875-10.335,16.044c-3.736,3.071-7.908,5.054-12.308,5.944
			c-1.541,0.219-3.305,0.437-4.836,0.437c-7.259,0-12.312-2.205-15.612-6.381c-3.3-4.168-3.944-9.89-2.19-16.703
			c1.755-6.596,5.268-12.099,10.768-16.271c3.508-3.078,7.694-4.836,11.871-5.708c1.978-0.446,3.964-0.664,6.145-0.664
			c6.608,0,11.443,2.191,14.525,6.373C957.527,360.073,958.187,365.568,956.205,372.604z"/>
		<path  d="M1182.192,370.617c0.224-7.908-0.658-14.726-2.199-20.434c-0.223-0.436-0.223-0.882-0.44-1.1
			c-1.546-5.495-4.173-10.781-8.137-15.616c-3.962-5.273-9.894-9.667-17.588-12.958c-7.686-3.309-18.239-4.845-31.65-4.845
			c-10.108,0-19.557,0.882-28.356,2.854c-15.39,3.518-28.806,10.118-40.015,19.784c-17.579,15.181-31.214,41.55-41.331,79.582
			c-1.531,6.154-2.849,12.317-3.953,18.025c-1.537,8.572-2.642,16.494-2.864,24.184c-0.654,12.089,0.223,21.762,2.864,29.015
			c0,0.218,0.223,0.659,0.436,0.876c3.74,10.335,10.34,18.252,19.13,23.525c9.013,5.495,21.766,8.136,38.695,8.136
			c9.672,0,18.676-0.882,27.038-2.641c17.356-3.736,31.438-11.203,42.649-22.647c16.707-16.693,29.674-43.078,39.123-79.35
			c1.764-6.377,3.077-12.753,3.959-18.898C1181.311,388.647,1181.98,379.635,1182.192,370.617z M1119.977,419.42
			c-4.844,18.035-9.234,31.219-13.406,39.791c-3.736,7.917-8.137,13.626-12.749,17.588c-0.441,0.446-0.882,0.665-1.317,1.101
			c-5.063,3.955-10.554,5.94-16.049,5.94c-8.576,0-13.857-4.622-15.83-14.07c-2.194-9.231,0.219-26.379,6.809-51.886
			c6.599-25.061,13.198-42.204,19.565-51.657c2.21-2.854,4.399-5.504,6.822-7.472c5.059-4.182,10.544-6.381,16.702-6.381
			c9.018,0,14.517,4.617,16.712,13.635C1129.213,375.245,1126.79,393.047,1119.977,419.42z"/>
	</g>
	<g>
		<path  d="M292.73,626.688c-4.311-0.302-12.87-0.4-29.948-0.4l-5.119,13.287h20.169
			c4.896,0,9.143-0.199,12.707-0.798c-1.643,4.799-8.841,22.285-12.521,29.377c-5.736,11.193-9.987,13.886-29.136,14.888
			c0.353-3.396,0.037-7.995-1.09-11.091c10.251,1.897,15.997,0.997,19.923-3.397c2.297-2.497,6.674-11.691,9.686-21.38h-19.673
			c-3.894,0-8.469,0.296-11.648,0.598c4.706-8.596,8.613-19.687,11.259-29.479c4.093,0.7,13.166,1.1,29.4,0.9l4.618-13.988
			c-18.369,0-28.337,0.302-34.296,0.9l2.812-8.993c8.01,0.998,35.141,1.099,43.039,0
			C299.646,605.204,295.292,617.894,292.73,626.688z M330.428,605.104l-16.489,58.851c-1.708,6.098-3.063,11.295-4.59,18.888
			h-10.785c2.626-7.593,4.153-12.692,5.889-18.888l15.032-53.653c2.047-7.296,3.086-12.091,3.411-16.091
			c3.667,0.804,7.151,1.202,11.003,1.003c2.423-0.098,2.799,0.696,0.107,2.097C332.744,597.914,331.825,600.109,330.428,605.104z"/>
		<path  d="M411.477,645.668h-8.289c-6.465-0.098-12.066,0.302-17.854,1.003l2.515-8.989
			c3.927,0.599,7.667,0.798,17.951,0.798s14.735-0.199,18.897-0.798l-23.338,31.971c1.132,3.101,2.097,5.695,2.353,7.295
			l-8.809,4.697c-1.633-9.496-3.722-16.29-7.351-22.583l7.323-4.396c0.854,1.593,2.279,4.698,3.694,8.192L411.477,645.668z
			 M433.168,615.995l-8.177,7.096c-1.94-5.197-5.847-11.194-9.885-15.687c-8.804,9.69-14.708,15.788-24.179,24.277
			c-1.225-3.096-2.863-5.093-4.896-6.396c12.511-8.293,19.686-15.385,30.885-32.177c2.343,1.603,6.13,3.403,8.72,3.802
			c1.142,0.2,0.891,1.101-0.422,1.495c-1.081,0.302-2.873,1.703-4.562,3.104C424.917,605.9,429.107,610.899,433.168,615.995z
			 M406.432,634.081c0.278-4.196-0.116-8.493-1.434-11.988l8.59-3.202c0.158,3.698,0.641,8.396,1.69,11.792L406.432,634.081z
			 M452.279,639.375c-2.483,7.096-5.792,15.686-7.579,19.585c-5.11,11.092-14.433,17.987-32.839,24.88
			c-0.604-3.198-1.898-5.694-3.894-8.195c13.983-2.497,25.307-7.992,30.849-20.281c3.745-8.395,6.126-16.884,7.175-24.184
			c3.722,0.599,7.49,0.706,9.941,0.502c0.626-0.099,0.886,0.402-0.08,1.001C455.115,633.181,452.854,637.682,452.279,639.375z
			 M433.089,606.305l2.292-8.195c6.024,0.599,13.361,0.798,25.042,0.798c11.384,0,19.028-0.199,25.385-0.798l-2.292,8.195
			c-8.446-0.502-12.586-0.701-21.473-0.701c-1.75,3.397-3.727,7.598-5.402,11.792c8.785,0,11.11-0.101,19.157-0.301
			c-0.872,2.395-1.73,5.096-3.633,11.89l-5.402,19.287c-1.291,4.595-2.209,8.59-2.9,12.488h-8.586l10.173-36.672h-25.562
			l-10.901,38.566h-8.094c1.522-3.996,2.886-7.792,4.2-12.484l5.936-21.186c2.042-7.296,2.558-9.495,2.934-11.89
			c2.84,0.2,7.504,0.301,13.895,0.301c2.246-3.4,4.279-7.791,5.499-11.792C445.865,605.604,437.596,605.9,433.089,606.305z
			 M456.229,681.941c-3.425-6.297-7.239-10.493-12.043-14.387l6.864-5.597c5.096,3.898,9.755,8.293,14.146,13.291L456.229,681.941z"
			/>
		<path  d="M540.568,614.899l2.575-9.193c7.152,0.495,15.352,0.798,26.286,0.997
			c3.545-5.193,6.302-10.391,8.354-15.588c2.719,1.002,7.777,2.199,10.015,2.399c2.042,0.199,2.32,0.997-0.682,2.798
			c-0.84,0.502-1.977,1.699-8.6,10.391c18.735,0.103,33.799-0.199,44.812-0.997l-2.575,9.193c-11.161-0.804-28.055-1.1-47.754-1.003
			c-5.379,7.097-12.573,14.592-21.088,22.184l-7.811,27.874c-1.262,4.496-2.367,8.799-4.46,17.69h-9.184
			c2.892-8.892,4.298-13.194,5.556-17.69l5.318-18.981c-4.094,3.197-8.382,6.395-12.744,9.49c-1.847-3.397-3.597-4.994-5.681-6.094
			c7.407-3.995,14.572-8.892,21.278-14.288c0.752-3.398,1.179-5.997,1.142-7.296c2.556,0.501,4.52,0.604,6.553,0.501
			c4.469-4.195,8.622-8.692,12.21-13.291C554.643,614.194,547.2,614.397,540.568,614.899z M609.518,637.181l-2.521,8.988
			c-5.328-0.599-11.732-0.895-21.52-0.895l-6.831,24.378c11.811-0.102,19.882-0.398,26.838-0.998l-2.576,9.189
			c-7.287-0.696-15.992-0.993-29.776-0.993c-13.672,0-22.648,0.297-30.231,0.993l2.576-9.189c6.52,0.6,14.024,0.896,25.084,0.998
			l6.831-24.378c-8.943,0.199-15.045,0.599-20.41,1.196l2.608-9.29c5.22,0.599,10.929,0.896,19.789,0.993
			c2.798-9.987,4.232-16.184,4.39-18.88c2.729,0.599,6.112,0.998,9.606,0.998c1.597,0,1.629,0.599-0.045,1.602
			c-0.971,0.599-1.945,2.292-2.284,3.494l-3.583,12.786C597.279,638.076,603.851,637.779,609.518,637.181z"/>
		<path  d="M695.049,668.153c-19.696,3.995-27.159,6.395-33.721,9.49c0.456-3.396,0.571-5.596-0.223-9.89
			c5.723-0.102,14.374-1.396,35.741-7.095C695.657,662.756,695.063,665.954,695.049,668.153z M680.528,631.583
			c-3.463,0.599-6.581,1.397-8.516,1.899c0.529-1.899,0.45-5.9-0.316-7.794c4.743-1.601,18.057-16.688,27.794-33.274
			c2.39,1.796,6.167,3.3,8.052,3.694c1.68,0.404,1.165,1.903-0.399,2.501c-3.36,1.3-6.312,4.001-25.354,26.677l13.844-1.996
			c5.1-6.094,6.804-8.595,8.99-12.488c3.151,2.297,5.439,3.393,7.941,4.098c1.484,0.395,1.062,1.897-1.073,2.396
			c-0.757,0.198-1.564,0.599-3.879,2.794c4.692,0,7.471-0.298,14.428-1.593c2.009-7.898,4.302-16.791,6.566-25.58
			c2.701,0.695,6.614,0.997,9.361,0.798c1.527-0.103,1.917,0.998,0.158,2.297c-0.64,0.502-2.547,3.397-3.1,4.998
			c-1.402,4.292-3.62,11.487-4.976,15.984c11.626-2.298,23.368-4.994,29.604-6.592l-0.556,7.69
			c-6.512,0.799-18.94,3.096-30.667,5.397c-0.822,3.996-1.555,7.69-2.042,11.189c12.084-2.497,24.666-4.994,31.237-6.691
			l-0.561,7.689c-6.711,0.803-19.394,3.3-31.396,5.499c-0.524,5.793-0.325,10.79,0.493,14.985
			c5.545-4.098,12.192-9.992,15.885-14.285c2.223,2.396,5.649,4.795,6.335,5.193c1.03,0.604,0.724,1.699-0.404,1.801
			c-1.527,0.099-7.258,3.798-12.336,8.391c-1.591,1.397-4.148,3.398-7.389,5.7c1.718,3.494,4.001,6.395,6.92,8.789
			c2.757,2.297,3.704,2.098,8.071-9.193c1.416,3.499,4.581,5.398,7.264,5.797c-9.037,15.486-11.877,17.083-17.316,13.686
			c-6.47-3.991-9.644-7.992-12.099-14.188c-7.895,4.999-17.547,10.591-26.755,14.591c-0.497-2.496-1.944-5.197-4.08-7.193
			c8.183-2.102,12.253-3.801,28.515-14.089c-1.272-5.096-1.663-11.189-1.165-18.291c-6.916,1.505-10.206,2.2-15.394,3.602
			l0.617-7.894c5.313-0.798,8.451-1.3,15.477-2.497c0.552-3.397,1.161-6.993,2.052-10.893c-6.182,1.401-9.068,2.099-13.96,3.495
			l0.264-7.689c-4.115,3.995-11.467,11.689-26.661,27.775c7.132-0.497,14.655-1.699,20.47-3.198
			c-1.243,2.299-1.703,4.293-2.056,6.994l-19.241,3.096c-7.129,1.201-9.31,1.504-11.231,2.302c0.78-2.798,0.659-6.998-0.019-9.193
			c4.993-1.8,9.625-4.799,21.938-18.787L680.528,631.583z M746.39,610.699c-0.83-3.1-2.093-6.794-4.037-10.19l8.878-3.899
			c1.633,3.801,3.151,7.296,4.311,9.592L746.39,610.699z"/>
		<path  d="M827.527,637.38c-1.137-2-3.226-3.797-6.145-4.798c10.999-5.395,20.838-11.287,28.741-21.683
			c2.835,1.299,4.459,1.897,7.045,2.302c2.015,0.296,1.509,1.396-0.357,1.995c-0.882,0.302-1.853,0.9-4.725,3.3h12.884
			c8.892,0,19.102-0.103,23.454-0.301c-7.541,9.091-16.633,15.886-26.323,20.883c8.901,4.595,20.281,7.091,34.529,7.194
			c-2.65,2.696-5.115,6.492-6.562,9.889c-4.344-0.896-8.484-1.796-12.174-2.896c-0.701,1.795-1.318,3.995-2.325,7.592l-3.249,11.594
			c-1.284,4.595-1.768,7.393-2.125,10.79h-8.984l1.624-5.792h-35.65l-1.764,6.288h-9.282c2.014-4.696,3.42-8.293,4.706-12.888
			l2.803-9.992c0.784-2.798,1.309-5.392,1.74-7.289c-4.58,1.396-9.007,2.593-13.416,3.692c-0.841-2.7-1.88-5.393-3.249-7.996
			c13.825-1.591,28.856-5.689,39.744-9.991c-3.096-2.497-5.839-5.192-8.246-7.986l6.182-4.6c2.941,3.397,6.269,6.493,10.033,9.091
			c5.806-2.9,11.134-6.594,16.331-10.887h-28.161C839.311,629.185,833.412,633.482,827.527,637.38z M862.627,593.013l10.808-0.798
			c-0.181,3.499-0.353,6.594-0.705,9.991c18.875,0,26.519-0.198,32.923-0.598l-5.013,17.881h-7.991l2.998-10.688h-63.209
			l-2.994,10.688h-8.089l5.012-17.881c6.679,0.399,14.814,0.598,36.779,0.598C863.285,599.209,863.067,595.714,862.627,593.013z
			 M827.555,652.969c4.437,0.194,11.695,0.297,24.077,0.297c14.782,0,21.2-0.103,25.35-0.297c-9.329-2.7-16.968-6.099-23.159-9.992
			C843.872,647.469,835.515,650.569,827.555,652.969z M864.626,671.054l3.188-11.394h-35.646l-3.193,11.394H864.626z"/>
		<path  d="M948.145,683.543c-1.782-2.901-3.83-4.502-5.992-5.699c8.2-8.59,14.717-21.883,20.852-43.763l6.409-22.886
			c1.708-6.092,2.654-10.187,2.984-12.789c4.353,0.501,7.82,0.604,14.011,0.604s10.942-0.201,15.547-0.604
			c-1.058,2.701-2.474,6.697-4.182,12.789l-17.329,61.854c-1.484,5.297-4.474,7.394-16.897,8.99c0.691-3.192,0.524-5.791-1.034-8.79
			c7.889,0.7,10.882-0.701,11.75-3.796l5.402-19.283h-14.184C961.765,660.955,954.664,675.249,948.145,683.543z M967.319,643.97
			H981.4l4.845-17.282h-14.08L967.319,643.97z M992.209,605.404h-14.08l-4.312,15.389h14.08L992.209,605.404z M1004.66,637.575
			l-12.683,45.267h-7.686c3.002-8.595,4.812-14.688,7.105-22.88l13.662-48.767c1.035-3.692,2.612-10.391,2.957-12.684
			c3.61,0.297,11.843,0.498,18.832,0.498c6.692,0,14.638-0.201,18.614-0.498c-0.594,1.397-1.563,3.792-2.52,6.493l-3.708,10.391
			c-2.757,7.695-7.286,9.593-19.12,10.489c0.552-3.393,0.315-5.394-0.529-8.79c8.822,2.001,11.922-0.502,13.282-4.298l2.617-7.193
			h-21.868l-7.138,25.479h16.772c6.294,0,11.77-0.297,15.278-0.7c-8.651,17.687-13.269,24.179-20.769,32.773
			c3.801,4.599,9.584,7.495,16.155,8.993c-4.024,2.6-7.102,5.398-9.087,8.196c-5.364-3.299-9.478-6.794-12.513-11.296
			c-3.758,3.802-8.089,7.496-13.764,11.695c-0.419-1.703-1.959-4.396-3.764-5.797c5.842-3.401,10.233-6.594,14.633-10.887
			c-3.157-6.2-3.063-15.789-1.467-26.485H1004.66z M1014.639,658.264c4.892-5.699,9.021-11.895,12.893-20.688h-12.884
			C1012.968,646.072,1012.643,652.564,1014.639,658.264z"/>
		<path  d="M1096.03,677.644h-8.382c2.107-5.392,3.324-9.388,4.418-13.286l14.526-51.861
			c0.984-3.495,2.145-7.992,2.511-11.087c2.831,0.599,7.467,0.797,16.156,0.797c8.584,0,13.434-0.198,16.498-0.797
			c-1.314,2.895-2.726,7.592-3.709,11.087l-13.352,47.661c-1.312,4.697-2.094,8.196-2.998,13.194h-8.386l2.548-9.097h-16.076
			L1096.03,677.644z M1123.504,636.976h-16.076l-5.768,20.588h16.075L1123.504,636.976z M1131.255,609.303h-16.076l-5.792,20.679
			h16.076L1131.255,609.303z M1176.438,592.011c3.086,0.403,7.222,0.604,9.546,0.501c2.127-0.098,2.376,0.803,0.975,1.504
			c-1.619,0.794-2.353,1.995-2.887,3.898l-4.729,16.878c4.521-0.097,8.698-0.395,12.179-0.696l-2.576,9.194
			c-3.184-0.403-7.222-0.599-11.787-0.701l-14.081,50.262c-2.186,7.791-4.654,9.491-20.926,10.887
			c0.724-3.996,0.334-7.592-1.197-10.688c11.862,0.799,13.908-0.102,14.776-3.196l13.27-47.36h-12.086
			c-7.389,0-14.062,0.297-19.093,0.798l2.576-9.194c4.654,0.502,11.36,0.804,18.646,0.804h12.085
			C1174.434,603.102,1176.035,596.312,1176.438,592.011z M1142.143,652.765c0.152-5.895-0.584-13.59-1.495-18.884l8.873-2.799
			c-0.37,5.597,0.622,13.093,2.405,18.484L1142.143,652.765z"/>
		<path  d="M1239.234,647.469c-0.975-3.294-2.167-5.796-4.219-8.094c7.843-5.893,14.08-12.488,22.16-25.279
			c3.772-5.995,7.652-13.787,9.95-19.481c3.058,1.196,6.669,2.2,9.824,2.695c2.288,0.399,2.19,1.097-0.752,2.697
			c-1.169,0.599-2.876,2.798-11.425,15.491l-19.293,68.838h-9.285c2.784-7.091,4.686-12.79,6.645-19.779l8.539-30.476
			C1247.281,639.078,1243.193,643.673,1239.234,647.469z M1302.49,672.252c1.201,0.695,2.723-0.104,9.035-12.29
			c1.043,3.393,3.806,5.296,6.962,5.798c-8.513,14.683-11.715,17.583-15.214,17.583c-4.891,0-13.282-5.699-16.252-15.388
			c-2.758-8.698-3.615-16.686-2.32-33.072c-10.758,2.395-16.016,3.694-19.942,4.891l0.766-8.788c3.68-0.303,8.938-0.9,19.892-3.3
			c0.955-9.092,4.45-27.275,6.395-34.576c3.629,0.604,7.565,0.804,10.544,0.502c2.78-0.297,3.035,0.204,0.552,2.298
			c-2.329,1.898-4.338,6.594-8.668,29.878l8.423-1.899c12.563-2.798,18.429-4.496,22.318-5.893l0.162,8.692
			c-3.778,0.296-9.811,1.499-22.146,4.194l-9.9,2.2C1290.767,651.367,1294.048,667.453,1302.49,672.252z M1311.915,615.796
			c-1.067-5.097-2.39-9.292-4.65-13.688l9.603-4.695c2.189,4.292,3.986,8.59,5.304,12.79L1311.915,615.796z"/>
	</g>
</g>
</svg>
