<?xml version="1.0" encoding="utf-8"?>
<!-- Generator: Adobe Illustrator 16.0.0, SVG Export Plug-In . SVG Version: 6.00 Build 0)  -->
<!DOCTYPE svg PUBLIC "-//W3C//DTD SVG 1.1//EN" "http://www.w3.org/Graphics/SVG/1.1/DTD/svg11.dtd">
<svg version="1.1" id="Layer_1" xmlns="http://www.w3.org/2000/svg" xmlns:xlink="http://www.w3.org/1999/xlink" x="0px" y="0px"
	 width="1600px" height="1000px" viewBox="0 0 1600 1000" enable-background="new 0 0 1600 1000" xml:space="preserve">
<g>
	<path  d="M656.007,472.521c-11.741,0-22.032,7.486-27.783,18.706c-19.574-42.646-60.285-82.154-110.602-98.425
		c-27.152-10.885-46.215-31.785-48.569-56.206c-2.36,24.421-21.427,45.321-48.576,56.206
		c-50.314,16.271-91.029,55.779-110.602,98.425c-5.75-11.22-16.041-18.706-27.779-18.706c-18.03,0-32.645,17.635-32.645,39.393
		c0,21.755,14.611,39.392,32.645,39.392c5.484,0,10.648-1.64,15.187-4.522c1.551,70.643,77.821,116.5,171.77,116.621
		c93.949-0.121,170.221-45.979,171.771-116.621c4.54,2.883,9.702,4.522,15.186,4.522c18.03,0,32.647-17.637,32.647-39.392
		C688.649,490.156,674.033,472.521,656.007,472.521 M296.934,524.227c-1.524,5.672-8.326,8.082-15.181,5.393
		c-6.86-2.69-11.182-9.461-9.657-15.136c1.528-5.672,8.327-8.088,15.186-5.398C294.142,511.775,298.464,518.554,296.934,524.227
		 M469.049,643.74c-75.352-0.123-136.375-35.804-136.375-86.89c0-1.073,0.038-2.132,0.088-3.19c0.017-0.348,0.035-0.7,0.061-1.045
		c0.045-0.723,0.109-1.441,0.181-2.156c0.096-0.958,0.207-1.92,0.349-2.873c0.011-0.095,0.025-0.189,0.039-0.283
		c1.515-10.038,5.402-25.359,11.266-34.193c14.09-20.482,39.224-34.127,67.901-34.127c22.071,0,42.032,8.098,56.492,21.168
		c14.454-13.07,34.416-21.168,56.491-21.168c28.673,0,53.808,13.645,67.899,34.127c5.865,8.834,9.747,24.155,11.264,34.193
		c0.014,0.094,0.03,0.188,0.043,0.283c0.14,0.953,0.252,1.915,0.348,2.873c0.072,0.717,0.136,1.434,0.183,2.156
		c0.021,0.345,0.038,0.697,0.057,1.045c0.052,1.059,0.093,2.117,0.093,3.19C605.428,607.937,544.404,643.623,469.049,643.74
		 M656.35,529.619c-6.86,2.689-13.655,0.274-15.188-5.393c-1.527-5.67,2.798-12.451,9.656-15.142
		c6.86-2.689,13.657-0.271,15.187,5.398C667.53,520.158,663.208,526.935,656.35,529.619 M552.969,536.628
		c3.951,0,7.156-3.867,7.156-8.638c0-4.77-3.205-8.637-7.156-8.637c-3.955,0-7.158,3.867-7.158,8.637
		C545.812,532.761,549.015,536.628,552.969,536.628 M382.982,536.628c3.953,0,7.16-3.867,7.16-8.638c0-4.77-3.207-8.637-7.16-8.637
		c-3.951,0-7.157,3.867-7.157,8.637C375.825,532.761,379.031,536.628,382.982,536.628"/>
	<path  d="M822.124,613.814c-0.25-1.123-0.72-2.171-1.409-3.15c-0.688-0.973-1.549-1.823-2.582-2.542
		c-1.029-0.723-2.22-1.292-3.559-1.706c-1.345-0.41-2.785-0.618-4.319-0.618c-2.181,0-4.158,0.357-5.937,1.064
		c-1.778,0.714-3.292,1.762-4.54,3.153c-1.25,1.384-2.215,3.118-2.894,5.195c-0.674,2.076-1.012,4.489-1.012,7.241
		s0.337,5.177,1.012,7.274c0.678,2.1,1.643,3.861,2.894,5.283c1.248,1.419,2.75,2.501,4.507,3.235c1.752,0.735,3.711,1.1,5.864,1.1
		c3.257,0,5.941-0.728,8.052-2.185c2.111-1.455,3.417-3.584,3.922-6.387h2.856c-0.274,1.793-0.838,3.395-1.685,4.806
		c-0.848,1.406-1.917,2.595-3.201,3.561c-1.287,0.961-2.766,1.696-4.44,2.203c-1.673,0.505-3.481,0.755-5.436,0.755
		c-2.657,0-5.051-0.464-7.175-1.396c-2.122-0.926-3.924-2.242-5.417-3.935c-1.491-1.702-2.639-3.761-3.444-6.181
		c-0.802-2.418-1.203-5.129-1.203-8.135c0-2.982,0.401-5.667,1.203-8.053c0.806-2.387,1.959-4.422,3.462-6.106
		c1.503-1.684,3.313-2.981,5.438-3.888c2.119-0.909,4.5-1.359,7.137-1.359c1.814,0,3.536,0.259,5.18,0.79
		c1.643,0.528,3.113,1.266,4.418,2.218c1.309,0.95,2.408,2.089,3.303,3.407c0.901,1.318,1.518,2.771,1.861,4.354H822.124z
		 M877.496,603.046c2.569,0,4.942,0.459,7.12,1.377c2.178,0.914,4.054,2.224,5.627,3.917c1.569,1.702,2.796,3.741,3.681,6.13
		c0.881,2.387,1.322,5.047,1.322,7.982c0,2.911-0.436,5.572-1.308,7.982c-0.867,2.406-2.092,4.478-3.661,6.209
		c-1.572,1.735-3.441,3.077-5.609,4.026c-2.167,0.95-4.562,1.428-7.172,1.428c-2.616,0-5.014-0.478-7.195-1.428
		c-2.175-0.949-4.051-2.286-5.623-4.009c-1.569-1.723-2.791-3.784-3.664-6.191c-0.87-2.41-1.309-5.083-1.309-8.018
		c0-2.962,0.441-5.635,1.325-8.018c0.885-2.386,2.116-4.419,3.699-6.106c1.581-1.69,3.46-2.991,5.626-3.905
		C872.521,603.505,874.9,603.046,877.496,603.046 M877.459,639.345c2.156,0,4.147-0.371,5.971-1.117
		c1.823-0.743,3.402-1.844,4.732-3.289c1.329-1.442,2.359-3.216,3.093-5.312c0.734-2.101,1.104-4.492,1.104-7.174
		c0-2.708-0.371-5.095-1.12-7.159c-0.745-2.062-1.778-3.802-3.097-5.213c-1.315-1.412-2.879-2.478-4.677-3.2
		c-1.8-0.72-3.766-1.082-5.902-1.082c-2.182,0-4.179,0.368-6.002,1.103c-1.827,0.734-3.403,1.806-4.732,3.215
		c-1.329,1.413-2.37,3.146-3.115,5.213c-0.744,2.062-1.119,4.437-1.119,7.124c0,2.682,0.368,5.073,1.103,7.174
		c0.733,2.097,1.76,3.87,3.083,5.312c1.315,1.445,2.888,2.546,4.711,3.289C873.314,638.974,875.304,639.345,877.459,639.345
		 M961.764,622.277c0,12.756-6.339,19.13-19.026,19.13h-11.389v-37.642h11.389c6.354,0,11.113,1.533,14.28,4.593
		C960.185,611.422,961.764,616.063,961.764,622.277 M958.841,622.277c0-2.478-0.247-4.688-0.737-6.64
		c-0.497-1.952-1.363-3.607-2.6-4.974c-1.238-1.362-2.895-2.4-4.973-3.114c-2.073-0.708-4.697-1.065-7.859-1.065h-8.57v32.171h8.57
		c3.142,0,5.747-0.366,7.825-1.101c2.074-0.731,3.732-1.805,4.973-3.218c1.239-1.407,2.108-3.124,2.616-5.142
		C958.587,627.178,958.841,624.873,958.841,622.277 M1025.426,641.407h-27.215V603.73h26.29v2.754h-23.538v13.938h22.056v2.749
		h-22.056v15.483h24.463V641.407z M1156.259,641.407h-2.748v-33.168l-13.562,33.168h-2.888l-13.523-33.168v33.168h-2.755V603.73
		h3.992l13.73,34.24l13.831-34.24h3.922V641.407z M1223.775,641.407h-3.302l-4.61-12.111h-18.548
		c-0.668,1.905-1.385,3.917-2.167,6.041c-0.779,2.118-1.524,4.146-2.238,6.07h-2.923c1.239-3.257,2.46-6.442,3.665-9.56
		c1.204-3.121,2.399-6.226,3.595-9.31c1.193-3.086,2.394-6.188,3.597-9.307c1.204-3.124,2.427-6.295,3.66-9.531h3.888
		L1223.775,641.407z M1215.07,627.131l-8.738-20.955l-8.292,20.955H1215.07z M1288.057,641.407h-3.028l-3.751-10.009
		c-0.365-0.964-0.775-1.87-1.221-2.723c-0.45-0.846-0.968-1.584-1.563-2.215c-0.597-0.632-1.28-1.13-2.049-1.498
		c-0.77-0.364-1.666-0.549-2.7-0.549h-13.178v16.993h-2.756V603.73h16.968c1.579,0,3.112,0.147,4.593,0.43
		c1.479,0.289,2.793,0.803,3.953,1.534c1.159,0.731,2.08,1.749,2.772,3.044c0.686,1.298,1.03,2.953,1.03,4.971
		c0,1.265-0.153,2.439-0.462,3.53c-0.311,1.089-0.784,2.062-1.413,2.921c-0.63,0.864-1.432,1.599-2.408,2.203
		c-0.978,0.61-2.116,1.051-3.425,1.327c0.714,0.549,1.298,1.077,1.757,1.579c0.457,0.507,0.853,1.044,1.188,1.619
		c0.329,0.572,0.629,1.203,0.893,1.891c0.267,0.693,0.568,1.484,0.912,2.377L1288.057,641.407z M1260.566,621.658h13.073
		c1.855,0,3.452-0.135,4.78-0.41c1.334-0.279,2.431-0.731,3.285-1.362c0.863-0.628,1.497-1.452,1.91-2.46
		c0.415-1.009,0.619-2.247,0.619-3.717c0-2.59-0.816-4.439-2.455-5.555c-1.644-1.112-4.093-1.67-7.35-1.67h-13.863V621.658z
		 M1350.548,606.484h-13.178v34.923h-2.752v-34.923h-13.041v-2.754h28.971V606.484z"/>
	<path  d="M795.985,388.36v-17.036h88.119v17.036h-35.048c-3.337,17.372-3.782,26.042-15.355,48.676
		c-11.577,22.624-34.046,41.185-40.718,46.529v-19.041c17.356-20.042,28.038-45.432,32.043-76.165H795.985z"/>
	<rect x="889.109" y="504.61"  width="89.12" height="18.035"/>
	<rect x="1120.797" y="375"  width="228.046" height="21.379"/>
	<path  d="M1260.208,375.064c-13.707-5.556-23.317-16.141-24.511-28.505c-1.194,12.364-10.806,22.949-24.509,28.505
		H1260.208z"/>
	<polygon  points="811.63,561.205 811.63,525.572 797.376,525.572 797.376,568.332 797.376,575.459 840.135,575.459 
		840.135,561.205 	"/>
	<polygon  points="854.35,482.424 854.35,518.056 868.602,518.056 868.602,468.172 861.382,468.172 825.653,468.172 
		825.653,482.424 	"/>
	<rect x="1220.567" y="428.447"  width="28.506" height="156.781"/>
	<rect x="1220.588" y="414.194"  width="28.506" height="10.689"/>
	<rect x="1220.588" y="403.575"  width="28.506" height="7.126"/>
	<rect x="1220.588" y="396.447"  width="28.506" height="3.564"/>
	<path  d="M1263.326,439.359h44.418v78.166c0.672,12.695-5.007,18.707-17.02,18.04h-15.021v19.041h21.027
		c26.037,0.67,38.388-11.687,37.053-37.081V421.32h-126.501h-69.765v134.29h27.036V439.359h41.761V421.32h57.012V439.359z"/>
	<path  d="M976.425,455.491v0.015h-36.05c-10.682,0.668-15.689-4.678-15.019-16.036v-43.092h-25.037v49.105
		c-0.667,18.707,8.679,27.727,28.04,27.059h63.084v72.156c0.667,12.692-6.01,18.705-20.025,18.038h-24.035v17.035h32.045
		c26.035,0.669,38.384-10.688,37.047-34.073v-90.208h-9.24H976.425z M976.425,441.239v-58.892h-80.109V364.31h105.143v76.929
		H976.425z"/>
</g>
</svg>
