<?xml version="1.0" encoding="utf-8"?>
<!-- Generator: Adobe Illustrator 16.0.0, SVG Export Plug-In . SVG Version: 6.00 Build 0)  -->
<!DOCTYPE svg PUBLIC "-//W3C//DTD SVG 1.1//EN" "http://www.w3.org/Graphics/SVG/1.1/DTD/svg11.dtd">
<svg version="1.1" id="Layer_1" xmlns="http://www.w3.org/2000/svg" xmlns:xlink="http://www.w3.org/1999/xlink" x="0px" y="0px"
	 width="1600px" height="1000px" viewBox="0 0 1600 1000" enable-background="new 0 0 1600 1000" xml:space="preserve">
<g>
	<path  d="M633.746,408.491c-3.021,6.227-6.58,12.095-11.374,18.851c2.137,0.18,6.043,0.353,13.16,0.353h12.084
		c6.753,0,10.313-0.173,14.22-0.709c-0.349,4.443-0.523,7.287-0.523,12.271v38.937c0,6.401,0,7.82,0.347,12.092
		c-3.906-0.356-6.216-0.536-13.679-0.536h-16.369l-9.999,0.516l0.049-51.008c0-5.336,0-6.938-0.363-10.496
		c-3.023,4.272-4.448,6.048-8.352,10.314c-1.423-2.844-4.096-6.042-7.467-8.711c11.027-11.203,18.314-22.759,23.819-37.87
		c2.849-7.646,4.272-12.806,4.983-17.782l11.91,2.843c-1.061,2.134-1.061,2.134-5.157,13.514c-0.882,2.313-0.882,2.313-2.846,7.292
		h33.607c7.831,0,12.276-0.178,15.831-0.711c-0.71,5.866-0.902,8.888-0.902,20.979c0,49.96-1.943,81.788-5.674,95.122
		c-3.39,12.448-9.254,16.36-23.836,16.36c-3.021,0-5.868-0.177-12.084-0.531c-0.712-4.447-1.613-7.291-3.385-11.559
		c6.944,1.068,11.563,1.42,16.721,1.42c10.657,0,12.981-3.557,15.102-22.934c1.962-18.491,2.325-32.896,2.671-88.016H633.746z
		 M631.437,480.146h19.912v-43.026h-19.912V480.146z M732.436,462.369c-10.503,12.445-21.334,21.159-36.992,29.333
		c-2.135-4.084-3.906-6.043-7.101-8.71c17.601-8.356,30.935-18.848,41.246-33.072c3.021-4.094,4.966-7.645,6.754-11.91l11.023,3.556
		c-1.772,2.844-5.521,8.177-7.828,11.558h17.08c5.329,0,8.524-0.179,12.081-0.712l6.93,6.935c-0.714,1.245-0.714,1.245-1.77,3.73
		c-0.537,1.068-0.537,1.068-6.042,11.56c-3.212,6.047-10.851,16.712-16.717,23.114c-16.896,18.134-36.268,29.874-61.523,37.161
		c-1.772-4.978-2.658-6.4-6.217-10.311c20.447-4.983,33.956-11.558,49.251-24.007c-6.23-7.112-8.177-8.892-17.779-16.179l8.18-6.223
		c8.001,6.223,11.907,9.777,17.237,15.289c9.252-9.066,15.124-17.603,21.699-31.112H732.436z M723.357,396.58
		c-7.292,10.132-15.639,18.493-27.027,26.67c-2.483-3.91-3.371-4.981-7.104-8.177c16.892-10.491,30.574-27.202,34.67-41.963
		l11.373,3.558c-0.522,1.062-0.522,1.062-1.408,2.844c-0.539,0.889-0.539,0.889-3.211,5.509c-0.349,0.538-0.538,0.893-0.888,1.425
		c-0.172,0.354-0.172,0.354-0.533,0.891h18.313c5.33,0,8.542-0.179,12.097-0.711l6.58,7.11c-0.537,0.887-0.537,0.887-2.133,3.735
		c0,0-0.711,1.246-1.423,2.842c-14.044,27.92-38.417,50.851-67.217,63.12c-2.135-4.445-3.734-6.756-6.581-9.423
		c15.467-6.22,25.071-12.09,36.454-21.691c-4.27-5.333-7.118-7.823-16.177-15.115l8.003-6.045
		c6.924,5.16,11.733,9.428,15.815,13.869c8.886-9.42,13.156-15.645,19.565-28.447H723.357z"/>
	<path  d="M633.746,408.491c-3.021,6.227-6.58,12.095-11.374,18.851c2.137,0.18,6.043,0.353,13.16,0.353h12.084
		c6.753,0,10.313-0.173,14.22-0.709c-0.349,4.443-0.523,7.287-0.523,12.271v38.937c0,6.401,0,7.82,0.347,12.092
		c-3.906-0.356-6.216-0.536-13.679-0.536h-16.369l-9.999,0.516l0.049-51.008c0-5.336,0-6.938-0.363-10.496
		c-3.023,4.272-4.448,6.048-8.352,10.314c-1.423-2.844-4.096-6.042-7.467-8.711c11.027-11.203,18.314-22.759,23.819-37.87
		c2.849-7.646,4.272-12.806,4.983-17.782l11.91,2.843c-1.061,2.134-1.061,2.134-5.157,13.514c-0.882,2.313-0.882,2.313-2.846,7.292
		h33.607c7.831,0,12.276-0.178,15.831-0.711c-0.71,5.866-0.902,8.888-0.902,20.979c0,49.96-1.943,81.788-5.674,95.122
		c-3.39,12.448-9.254,16.36-23.836,16.36c-3.021,0-5.868-0.177-12.084-0.531c-0.712-4.447-1.613-7.291-3.385-11.559
		c6.944,1.068,11.563,1.42,16.721,1.42c10.657,0,12.981-3.557,15.102-22.934c1.962-18.491,2.325-32.896,2.671-88.016H633.746z
		 M631.437,480.146h19.912v-43.026h-19.912V480.146z M732.436,462.369c-10.503,12.445-21.334,21.159-36.992,29.333
		c-2.135-4.084-3.906-6.043-7.101-8.71c17.601-8.356,30.935-18.848,41.246-33.072c3.021-4.094,4.966-7.645,6.754-11.91l11.023,3.556
		c-1.772,2.844-5.521,8.177-7.828,11.558h17.08c5.329,0,8.524-0.179,12.081-0.712l6.93,6.935c-0.714,1.245-0.714,1.245-1.77,3.73
		c-0.537,1.068-0.537,1.068-6.042,11.56c-3.212,6.047-10.851,16.712-16.717,23.114c-16.896,18.134-36.268,29.874-61.523,37.161
		c-1.772-4.978-2.658-6.4-6.217-10.311c20.447-4.983,33.956-11.558,49.251-24.007c-6.23-7.112-8.177-8.892-17.779-16.179l8.18-6.223
		c8.001,6.223,11.907,9.777,17.237,15.289c9.252-9.066,15.124-17.603,21.699-31.112H732.436z M723.357,396.58
		c-7.292,10.132-15.639,18.493-27.027,26.67c-2.483-3.91-3.371-4.981-7.104-8.177c16.892-10.491,30.574-27.202,34.67-41.963
		l11.373,3.558c-0.522,1.062-0.522,1.062-1.408,2.844c-0.539,0.889-0.539,0.889-3.211,5.509c-0.349,0.538-0.538,0.893-0.888,1.425
		c-0.172,0.354-0.172,0.354-0.533,0.891h18.313c5.33,0,8.542-0.179,12.097-0.711l6.58,7.11c-0.537,0.887-0.537,0.887-2.133,3.735
		c0,0-0.711,1.246-1.423,2.842c-14.044,27.92-38.417,50.851-67.217,63.12c-2.135-4.445-3.734-6.756-6.581-9.423
		c15.467-6.22,25.071-12.09,36.454-21.691c-4.27-5.333-7.118-7.823-16.177-15.115l8.003-6.045
		c6.924,5.16,11.733,9.428,15.815,13.869c8.886-9.42,13.156-15.645,19.565-28.447H723.357z"/>
	<path  d="M786.981,454.544c5.52-14.936,7.832-27.202,8.543-46.053l9.6,2.494
		c-1.598,22.047-3.732,33.245-9.062,48.003L786.981,454.544z M811.166,536.157c0.888-5.866,1.249-12.803,1.249-20.271V392.136
		c0-6.759-0.361-11.913-1.249-17.96h13.695c-0.883,6.047-1.246,11.023-1.246,17.96v124.462c0,7.471,0.363,13.513,1.246,19.56
		H811.166z M837.482,440.141c-2.482-11.737-5.156-19.2-10.312-30.046l8.005-3.913c5.33,11.02,8.349,19.203,11.193,29.515
		L837.482,440.141z M863.437,413.295c-7.813,0-12.621,0.178-17.413,0.887v-12.268c4.792,0.711,9.947,0.892,17.603,0.892h15.991
		v-11.204c0-6.935-0.352-11.914-1.234-17.07h13.506c-0.884,5.515-1.25,9.78-1.25,17.07v11.204h27.565
		c7.468,0,11.909-0.181,15.47-0.711c-0.539,3.73-0.711,8.533-0.711,15.463v35.387h3.383c5.676,0,10.488-0.357,15.104-1.068v12.449
		c-4.979-0.714-11.021-1.07-17.949-1.07h-40.014c11.024,27.207,30.934,47.653,57.79,59.745c-3.191,3.732-5.156,6.934-7.29,11.557
		c-27.377-14.583-48.539-38.229-58.138-64.9c-7.292,29.337-22.76,49.781-49.255,65.436c-2.308-4.272-4.093-6.404-8-9.785
		c12.273-6.754,20.275-12.977,28.626-22.402c9.254-10.667,14.931-22.579,18.854-39.649h-21.699c-7.292,0-13.869,0.356-18.853,1.07
		v-12.449c4.443,0.711,10.847,1.068,18.678,1.068h23.643c1.254-9.956,1.774-22.048,1.774-35.743v-3.906H863.437z M890.639,416.14
		c0,12.978-0.71,26.312-1.767,36.805h33.069v-39.649h-31.303V416.14z"/>
	<path  d="M786.981,454.544c5.52-14.936,7.832-27.202,8.543-46.053l9.6,2.494
		c-1.598,22.047-3.732,33.245-9.062,48.003L786.981,454.544z M811.166,536.157c0.888-5.866,1.249-12.803,1.249-20.271V392.136
		c0-6.759-0.361-11.913-1.249-17.96h13.695c-0.883,6.047-1.246,11.023-1.246,17.96v124.462c0,7.471,0.363,13.513,1.246,19.56
		H811.166z M837.482,440.141c-2.482-11.737-5.156-19.2-10.312-30.046l8.005-3.913c5.33,11.02,8.349,19.203,11.193,29.515
		L837.482,440.141z M863.437,413.295c-7.813,0-12.621,0.178-17.413,0.887v-12.268c4.792,0.711,9.947,0.892,17.603,0.892h15.991
		v-11.204c0-6.935-0.352-11.914-1.234-17.07h13.506c-0.884,5.515-1.25,9.78-1.25,17.07v11.204h27.565
		c7.468,0,11.909-0.181,15.47-0.711c-0.539,3.73-0.711,8.533-0.711,15.463v35.387h3.383c5.676,0,10.488-0.357,15.104-1.068v12.449
		c-4.979-0.714-11.021-1.07-17.949-1.07h-40.014c11.024,27.207,30.934,47.653,57.79,59.745c-3.191,3.732-5.156,6.934-7.29,11.557
		c-27.377-14.583-48.539-38.229-58.138-64.9c-7.292,29.337-22.76,49.781-49.255,65.436c-2.308-4.272-4.093-6.404-8-9.785
		c12.273-6.754,20.275-12.977,28.626-22.402c9.254-10.667,14.931-22.579,18.854-39.649h-21.699c-7.292,0-13.869,0.356-18.853,1.07
		v-12.449c4.443,0.711,10.847,1.068,18.678,1.068h23.643c1.254-9.956,1.774-22.048,1.774-35.743v-3.906H863.437z M890.639,416.14
		c0,12.978-0.71,26.312-1.767,36.805h33.069v-39.649h-31.303V416.14z"/>
	<path  d="M1011.519,515.527c0,9.07,0.348,14.229,1.057,20.63h-12.968c0.711-6.224,1.059-12.271,1.059-20.63v-41.07
		c0-6.752,0.364-16.893,0.886-28.447c-5.866,21.158-13.869,36.448-27.01,52.27c-2.326-4.619-3.561-6.398-6.945-9.952
		c13.874-14.936,26.318-37.871,31.476-57.253h-11.564c-6.387,0-11.019,0.357-15.814,1.068v-12.269
		c4.796,0.712,9.063,1.066,15.989,1.066h12.983v-24.538c-9.598,2.135-13.158,2.669-23.814,4.268
		c-1.598-4.268-2.499-5.87-5.158-9.778c22.568-2.489,36.265-5.515,50.676-11.557c3.559-1.424,6.215-3.021,8.175-4.268l6.927,9.423
		c-1.596,0.712-1.596,0.712-3.903,1.78c-6.043,2.661-12.796,4.976-22.049,7.646v27.024h12.444c5.695,0,8.893-0.176,12.449-0.89
		v11.912c-3.733-0.712-7.466-0.889-12.62-0.889h-12.273v5.513c9.6,8.179,17.065,16.357,25.603,27.2l-7.113,8.004
		c-5.692-8.891-11.025-15.823-18.489-23.828V515.527z M1049.917,500.237c-6.577,1.603-12.446,3.378-16.716,4.804l-1.599-12.626
		c4.097-0.178,9.79-1.069,16.891-2.845l48.905-11.732v-83.922c0-9.426-0.366-14.229-1.077-18.671h13.521
		c-0.711,5.335-1.073,10.312-1.073,18.49v81.435l2.849-0.713c8.174-1.953,12.617-3.197,16.716-4.98l1.421,12.447
		c-4.809,0.534-10.484,1.604-16.891,3.205l-4.095,1.063v30.225c0,8.715,0.362,14.58,1.073,19.386h-13.521
		c0.901-4.806,1.077-9.428,1.077-19.562v-27.382L1049.917,500.237z M1048.683,432.321c15.645,10.843,22.222,16.355,32.71,27.558
		l-7.117,9.066c-11.021-12.442-17.604-18.312-32.883-28.448L1048.683,432.321z M1054.361,387.868
		c14.583,9.958,23.294,17.604,33.069,28.45l-7.097,9.244c-11.216-12.981-19.395-20.269-33.262-29.16L1054.361,387.868z"/>
	<path  d="M1011.519,515.527c0,9.07,0.348,14.229,1.057,20.63h-12.968c0.711-6.224,1.059-12.271,1.059-20.63v-41.07
		c0-6.752,0.364-16.893,0.886-28.447c-5.866,21.158-13.869,36.448-27.01,52.27c-2.326-4.619-3.561-6.398-6.945-9.952
		c13.874-14.936,26.318-37.871,31.476-57.253h-11.564c-6.387,0-11.019,0.357-15.814,1.068v-12.269
		c4.796,0.712,9.063,1.066,15.989,1.066h12.983v-24.538c-9.598,2.135-13.158,2.669-23.814,4.268
		c-1.598-4.268-2.499-5.87-5.158-9.778c22.568-2.489,36.265-5.515,50.676-11.557c3.559-1.424,6.215-3.021,8.175-4.268l6.927,9.423
		c-1.596,0.712-1.596,0.712-3.903,1.78c-6.043,2.661-12.796,4.976-22.049,7.646v27.024h12.444c5.695,0,8.893-0.176,12.449-0.89
		v11.912c-3.733-0.712-7.466-0.889-12.62-0.889h-12.273v5.513c9.6,8.179,17.065,16.357,25.603,27.2l-7.113,8.004
		c-5.692-8.891-11.025-15.823-18.489-23.828V515.527z M1049.917,500.237c-6.577,1.603-12.446,3.378-16.716,4.804l-1.599-12.626
		c4.097-0.178,9.79-1.069,16.891-2.845l48.905-11.732v-83.922c0-9.426-0.366-14.229-1.077-18.671h13.521
		c-0.711,5.335-1.073,10.312-1.073,18.49v81.435l2.849-0.713c8.174-1.953,12.617-3.197,16.716-4.98l1.421,12.447
		c-4.809,0.534-10.484,1.604-16.891,3.205l-4.095,1.063v30.225c0,8.715,0.362,14.58,1.073,19.386h-13.521
		c0.901-4.806,1.077-9.428,1.077-19.562v-27.382L1049.917,500.237z M1048.683,432.321c15.645,10.843,22.222,16.355,32.71,27.558
		l-7.117,9.066c-11.021-12.442-17.604-18.312-32.883-28.448L1048.683,432.321z M1054.361,387.868
		c14.583,9.958,23.294,17.604,33.069,28.45l-7.097,9.244c-11.216-12.981-19.395-20.269-33.262-29.16L1054.361,387.868z"/>
	<path  d="M1172.223,392.49c0-6.577-0.35-12.268-1.233-17.959h13.677c-0.883,5.158-1.25,11.025-1.25,17.781v17.247
		h4.095c4.989,0,9.065-0.177,13.163-0.889v11.558c-4.62-0.534-8.354-0.713-13.508-0.713h-3.75v35.206
		c8.194-3.73,9.617-4.439,17.084-8.359l0.174,11.023c-7.83,3.916-13.163,6.401-17.258,8.359v55.651
		c0,10.135-3.73,12.627-18.838,12.627c-4.805,0-7.827-0.178-12.983-0.535c-0.343-4.269-0.884-6.936-2.669-11.202
		c6.057,0.889,11.561,1.425,16.368,1.425c5.503,0,6.929-1.068,6.929-5.158v-47.65c-8.177,3.555-8.177,3.555-14.046,5.867
		c-2.674,1.246-4.446,1.958-7.118,3.373l-3.542-12.089c6.925-1.24,9.062-1.954,24.706-8.531v-40.007h-9.602
		c-4.618,0-8.18,0.179-14.584,1.07v-12.095c4.444,0.714,8.541,1.068,14.584,1.068h9.602V392.49z M1276.064,440.853
		c5.867,0,9.598-0.179,12.257-0.712l6.057,6.756c-1.61,2.494-2.669,4.269-5.517,9.957c-6.752,13.157-17.238,26.851-30.051,39.294
		c15.12,12.979,28.797,20.628,49.075,27.563c-3.021,3.91-5.155,7.11-6.926,11.381c-20.273-8.717-36.107-18.673-50.329-31.651
		c-18.307,15.112-34.315,24.181-53.518,30.76c-1.599-3.909-3.371-6.936-6.581-10.668c18.857-5.336,36.095-14.406,52.461-27.736
		c-7.116-7.648-13.158-16.005-18.678-25.962c-3.556-6.401-4.439-8.532-6.925-15.467c-0.886-2.669-0.886-2.669-1.248-3.733
		c-3.198,0.177-6.406,0.357-10.678,0.886v-11.735c4.461,0.711,9.789,1.068,15.834,1.068h22.405v-28.98h-21.16
		c-8.715,0-14.578,0.353-18.851,0.887v-11.913c4.098,0.537,9.773,0.89,18.662,0.89h21.349v-8.888c0-6.757-0.359-12.268-1.248-17.958
		h13.333c-0.882,5.333-1.248,10.845-1.248,17.958v8.888h30.237c7.468,0,13.511-0.353,18.49-1.065v12.269
		c-4.441-0.714-11.391-1.066-18.49-1.066h-30.237v28.98H1276.064z M1227.164,450.634c5.16,15.111,11.562,25.425,23.82,38.228
		c13.156-12.092,21.872-23.648,28.815-38.228H1227.164z"/>
	<path  d="M1172.223,392.49c0-6.577-0.35-12.268-1.233-17.959h13.677c-0.883,5.158-1.25,11.025-1.25,17.781v17.247
		h4.095c4.989,0,9.065-0.177,13.163-0.889v11.558c-4.62-0.534-8.354-0.713-13.508-0.713h-3.75v35.206
		c8.194-3.73,9.617-4.439,17.084-8.359l0.174,11.023c-7.83,3.916-13.163,6.401-17.258,8.359v55.651
		c0,10.135-3.73,12.627-18.838,12.627c-4.805,0-7.827-0.178-12.983-0.535c-0.343-4.269-0.884-6.936-2.669-11.202
		c6.057,0.889,11.561,1.425,16.368,1.425c5.503,0,6.929-1.068,6.929-5.158v-47.65c-8.177,3.555-8.177,3.555-14.046,5.867
		c-2.674,1.246-4.446,1.958-7.118,3.373l-3.542-12.089c6.925-1.24,9.062-1.954,24.706-8.531v-40.007h-9.602
		c-4.618,0-8.18,0.179-14.584,1.07v-12.095c4.444,0.714,8.541,1.068,14.584,1.068h9.602V392.49z M1276.064,440.853
		c5.867,0,9.598-0.179,12.257-0.712l6.057,6.756c-1.61,2.494-2.669,4.269-5.517,9.957c-6.752,13.157-17.238,26.851-30.051,39.294
		c15.12,12.979,28.797,20.628,49.075,27.563c-3.021,3.91-5.155,7.11-6.926,11.381c-20.273-8.717-36.107-18.673-50.329-31.651
		c-18.307,15.112-34.315,24.181-53.518,30.76c-1.599-3.909-3.371-6.936-6.581-10.668c18.857-5.336,36.095-14.406,52.461-27.736
		c-7.116-7.648-13.158-16.005-18.678-25.962c-3.556-6.401-4.439-8.532-6.925-15.467c-0.886-2.669-0.886-2.669-1.248-3.733
		c-3.198,0.177-6.406,0.357-10.678,0.886v-11.735c4.461,0.711,9.789,1.068,15.834,1.068h22.405v-28.98h-21.16
		c-8.715,0-14.578,0.353-18.851,0.887v-11.913c4.098,0.537,9.773,0.89,18.662,0.89h21.349v-8.888c0-6.757-0.359-12.268-1.248-17.958
		h13.333c-0.882,5.333-1.248,10.845-1.248,17.958v8.888h30.237c7.468,0,13.511-0.353,18.49-1.065v12.269
		c-4.441-0.714-11.391-1.066-18.49-1.066h-30.237v28.98H1276.064z M1227.164,450.634c5.16,15.111,11.562,25.425,23.82,38.228
		c13.156-12.092,21.872-23.648,28.815-38.228H1227.164z"/>
	<path  d="M666.843,606.619c-0.335-1.75-0.917-3.915-1.667-6.249l-8.167-24.252c-0.165-0.416-0.583-2.166-1.416-5.25
		c-0.665,2.334-1.333,4.585-1.583,5.417l-8.085,24.085c-0.833,2.415-1.499,4.834-1.749,6.249h-5.831
		c-0.5-2.083-0.5-2.248-1.837-6.333l-8.916-28.752c-1-3.083-2.332-7.001-3.333-9.832h7.666c0.169,2.582,0.752,5.416,1.919,9.082
		l6.081,20.751c0.417,1.418,0.918,3.169,1.502,6.084c0.499-1.916,1.501-5.249,1.749-5.999l7.916-23.584
		c0.918-2.501,1.501-4.836,1.667-6.334h5.586c0.248,1.498,0.831,3.833,1.665,6.334l8,23.999c0.25,0.752,0.749,2.583,1.082,3.75
		c0.335,1.252,0.335,1.252,0.501,1.834c0.752-3.25,1.167-5.167,1.335-5.668l6.249-21.167c1.084-3.584,1.667-6.667,1.833-9.082h7.585
		c-0.668,1.75-1.75,5.083-3.252,9.832l-8.997,28.836c-1.086,3.333-1.417,4.584-1.753,6.249H666.843z"/>
	<path  d="M731,606.619c-0.334-1.75-0.918-3.915-1.667-6.249l-8.167-24.252c-0.166-0.416-0.583-2.166-1.417-5.25
		c-0.665,2.334-1.331,4.585-1.583,5.417l-8.084,24.085c-0.834,2.415-1.499,4.834-1.75,6.249H702.5
		c-0.501-2.083-0.501-2.248-1.836-6.333l-8.917-28.752c-1-3.083-2.332-7.001-3.333-9.832h7.666c0.168,2.582,0.752,5.416,1.918,9.082
		l6.082,20.751c0.417,1.418,0.918,3.169,1.501,6.084c0.498-1.916,1.501-5.249,1.749-5.999l7.916-23.584
		c0.918-2.501,1.502-4.836,1.667-6.334h5.586c0.249,1.498,0.832,3.833,1.665,6.334l8.001,23.999c0.25,0.752,0.749,2.583,1.082,3.75
		c0.335,1.252,0.335,1.252,0.5,1.834c0.752-3.25,1.167-5.167,1.336-5.668l6.248-21.167c1.084-3.584,1.667-6.667,1.834-9.082h7.583
		c-0.668,1.75-1.749,5.083-3.25,9.832l-8.998,28.836c-1.083,3.333-1.417,4.584-1.751,6.249H731z"/>
	<path  d="M795.156,606.619c-0.333-1.75-0.919-3.915-1.667-6.249l-8.167-24.252c-0.164-0.416-0.583-2.166-1.417-5.25
		c-0.664,2.334-1.332,4.585-1.583,5.417l-8.083,24.085c-0.834,2.415-1.5,4.834-1.751,6.249h-5.83
		c-0.501-2.083-0.501-2.248-1.837-6.333l-8.915-28.752c-1.002-3.083-2.333-7.001-3.334-9.832h7.666
		c0.17,2.582,0.752,5.416,1.919,9.082l6.081,20.751c0.417,1.418,0.92,3.169,1.501,6.084c0.499-1.916,1.503-5.249,1.752-5.999
		l7.914-23.584c0.918-2.501,1.502-4.836,1.669-6.334h5.585c0.247,1.498,0.832,3.833,1.665,6.334l8,23.999
		c0.252,0.752,0.75,2.583,1.083,3.75c0.336,1.252,0.336,1.252,0.5,1.834c0.752-3.25,1.167-5.167,1.335-5.668l6.249-21.167
		c1.084-3.584,1.667-6.667,1.835-9.082h7.582c-0.666,1.75-1.751,5.083-3.251,9.832l-8.997,28.836
		c-1.084,3.333-1.418,4.584-1.752,6.249H795.156z"/>
	<rect x="821.646" y="598.369"  width="8.25" height="8.25"/>
	<path  d="M846.891,612.454c1.167,1.582,1.668,2.166,2.667,2.916c3.167,2.751,6.667,3.917,11.169,3.917
		c7.25,0,12.334-3.167,14.5-9.166c0.833-2.418,1.166-5.419,1.5-12.334c-1.251,2.252-2.167,3.331-3.583,4.583
		c-3.167,2.834-7.834,4.334-12.918,4.334c-12.585,0-20.585-8.751-20.585-22.668c0-14.169,8.168-23.168,21.086-23.168
		c7.25,0,12.583,2.915,16,8.75c-0.085-1.416-0.166-2.083-0.166-3.168v-4.748h6.667c-0.417,3.25-0.584,5.416-0.584,9.334v29.833
		c0,8.167-1.5,13.419-4.835,17.335c-3.5,4.085-9.75,6.333-17.332,6.333c-8.252,0-13.418-2.334-18.919-8.333L846.891,612.454z
		 M860.559,601.453c9.502,0,15.834-7.25,15.834-18.086c0-10.499-5.999-17.248-15.333-17.248c-9.251,0-14.919,6.833-14.919,17.917
		C846.141,594.87,851.642,601.453,860.559,601.453"/>
	<path  d="M893.051,584.203c0-14.418,8.668-23.585,22.25-23.585c13.584,0,22.168,9.167,22.168,23.501
		c0,14.25-8.666,23.584-22.085,23.584C901.719,607.703,893.051,598.621,893.051,584.203 M899.467,584.036
		c0,11.332,6.085,18.251,15.834,18.251c9.751,0,15.752-6.919,15.752-18.168c0-11.251-6.001-18.252-15.584-18.252
		C905.552,565.867,899.467,572.785,899.467,584.036"/>
	<path  d="M954.625,543.284c-0.417,3.001-0.584,5.166-0.584,9.419v30.166l15.084-14.584
		c3.584-3.417,4.75-4.833,5.916-6.583h9.918c-1.167,1.082-1.167,1.082-3.417,3.083c-0.833,0.75-1.832,1.665-2.999,2.834
		c-0.75,0.666-1.169,1.167-1.333,1.333l-11.585,10.75l14.085,18.167c4.999,6.418,5.415,6.919,7.25,8.75h-9.502
		c-0.916-1.999-1.083-2.332-5.25-7.916l-11.084-15.166l-7.083,6.749v6.999c0,3.751,0.167,6.418,0.584,9.334h-7.419
		c0.417-2.998,0.584-5.416,0.584-9.416v-44.5c0-4.17-0.167-6.418-0.584-9.419H954.625z"/>
	<path  d="M1027.87,601.203c0-0.917,0-1.501,0.249-3.665c-4.168,6.833-9.334,9.916-16.833,9.916
		c-6.001,0-10.668-2.168-13.335-6.169c-1.5-2.415-2.335-5.664-2.335-9.665v-20.584c0-3.75-0.164-6.67-0.583-9.334h7.502
		c-0.416,2.916-0.583,5.75-0.583,9.417v19.417c0,7.417,3.584,11.585,10.084,11.585c4.749,0,8.663-2.084,12.001-6.586
		c2.166-2.915,3.083-4.999,3.833-8.337v-16.079c0-3.584-0.167-6.501-0.584-9.417h7.417c-0.415,2.916-0.582,5.584-0.582,9.417v26.084
		c0,3.751,0.167,6.084,0.665,9.416h-6.916V601.203z"/>
	<path  d="M1076.279,600.703c-3.25,2.918-4.836,4.002-7.666,5.084c-2.834,1.083-5.836,1.667-8.668,1.667
		c-9.168,0-14.751-4.75-14.751-12.669c0-6.667,4.167-11.499,11.917-13.665c4.916-1.418,8.917-1.919,19.168-2.168v-4.833
		c0-5.668-3.584-8.584-10.5-8.584c-4.584,0-8,1.167-10.336,3.582c-1.082,1.169-1.75,2.335-2.582,4.835l-6.5-1.419
		c1.5-3.832,2.582-5.582,4.665-7.414c3.418-3.168,8.417-4.75,14.666-4.75c11.003,0,16.671,4.665,16.671,13.666v23.417
		c0,3.751,0.167,5.835,0.666,9.167h-6.75V600.703z M1076.279,583.87c-9.918,0.249-14.667,0.831-18.418,2.417
		c-4.25,1.749-6.333,4.583-6.333,8.583c0,4.584,3.417,7.5,8.832,7.5c4.835,0,10.084-2.333,13.332-5.917
		c1.919-2.084,2.587-3.833,2.587-7.166V583.87z"/>
	<path  d="M1102.52,550.701h-8.083v-7.417h8.083V550.701z M1102.186,561.702c-0.416,2.916-0.584,5.249-0.584,9.419
		v26.082c0,3.833,0.168,6.166,0.584,9.416h-7.499c0.415-3.582,0.583-5.916,0.583-9.416v-26.082c0-4.003-0.168-6.503-0.583-9.419
		H1102.186z"/>
	<rect x="1114.269" y="598.369"  width="8.248" height="8.25"/>
	<path  d="M1166.265,575.453c-2.418-6.501-6.418-9.586-12.584-9.586c-9.17,0-15.002,7.168-15.002,18.336
		c0,10.999,5.999,18,15.333,18c4.751,0,8.669-1.917,10.834-5.334c0.835-1.248,1.251-2.251,1.835-4.249l6.251,1.667
		c-1.167,2.998-2.002,4.583-3.418,6.416c-3.668,4.583-9.002,7.003-15.751,7.003c-13.085,0-21.502-9.087-21.502-23.336
		c0-14.418,8.335-23.837,21.086-23.837c6.914,0,12.499,2.667,16.083,7.669c1.166,1.583,1.916,2.917,2.918,5.334L1166.265,575.453z"
		/>
	<path  d="M1180.419,584.203c0-14.418,8.668-23.585,22.252-23.585c13.583,0,22.167,9.167,22.167,23.501
		c0,14.25-8.666,23.584-22.085,23.584C1189.087,607.703,1180.419,598.621,1180.419,584.203 M1186.837,584.036
		c0,11.332,6.084,18.251,15.834,18.251c9.749,0,15.751-6.919,15.751-18.168c0-11.251-6.002-18.252-15.585-18.252
		C1192.921,565.867,1186.837,572.785,1186.837,584.036"/>
	<path  d="M1234.578,606.619c0.417-2.998,0.583-5.501,0.583-9.418v-26.082c0-4.168-0.166-6.418-0.583-9.417h6.752
		v4.583c0,0.417-0.084,1.416-0.167,2.999c0.751-1.416,1.499-2.415,3.166-4.165c2.833-2.833,6.918-4.334,11.75-4.334
		c4.751,0,8.251,1.415,10.75,4.249c1.251,1.332,1.752,2.333,2.585,4.833c3.917-6.415,8.416-9.082,15.417-9.082
		c5.501,0,9.667,1.75,12.168,5.082c1.999,2.667,2.834,5.916,2.834,10.834v20.584c0,4.168,0.166,6.418,0.583,9.334h-7.502
		c0.501-3.084,0.583-5,0.583-9.418v-19.665c0-7.918-2.916-11.335-9.586-11.335c-4.164,0-8.079,2.25-10.497,6.083
		c-1.583,2.418-2.749,6.082-2.749,8.584v16.417c0,4.168,0.165,6.501,0.583,9.334h-7.502c0.416-2.998,0.584-5.166,0.584-9.418
		v-19.665c0-7.335-3.333-11.335-9.334-11.335c-4.334,0-8.333,2.333-10.917,6.332c-1.501,2.252-2.749,6.169-2.749,8.335v16.333
		c0,3.835,0.165,6.086,0.584,9.418H1234.578z"/>
	<path  d="M543.912,400.949l-80.24-46.324c-9.243-5.339-19.767-8.156-30.439-8.156h-0.004
		c-10.671,0-21.197,2.817-30.437,8.156l-80.241,46.324c-7.039,4.066-13.083,9.449-17.883,15.734c-1.598,2.091-3.06,4.28-4.374,6.555
		c0,0.005-0.003,0.01-0.006,0.01c-3.938,6.825-6.557,14.405-7.628,22.331c-0.002,0.015-0.007,0.033-0.009,0.046
		c-0.101,0.756-0.156,1.514-0.227,2.273c-0.186,1.913-0.309,3.833-0.309,5.773v37.985v54.668c0,2.712,0.179,5.396,0.536,8.045
		c0.934,6.96,3.086,13.64,6.253,19.788c5.269,10.229,13.385,18.962,23.646,24.887l32.892,18.994l47.35,27.334
		c9.238,5.333,19.764,8.158,30.437,8.158h0.002c10.672,0,21.194-2.822,30.439-8.158l80.242-46.326
		c2.341-1.353,4.572-2.851,6.684-4.479c0.007-0.008,0.018-0.014,0.026-0.018c2.106-1.629,4.094-3.383,5.954-5.254
		c0.004-0.005,0.012-0.012,0.016-0.017c1.862-1.873,3.598-3.865,5.195-5.953c0-0.003,0.002-0.004,0.005-0.006
		c6.899-9.03,11.206-19.922,12.272-31.438c0.171-1.841,0.288-3.691,0.288-5.559v-54.673v-37.98
		C574.351,431.992,562.685,411.79,543.912,400.949z M538.301,548.353c-0.606,7.465-4.546,14.27-10.725,18.51l-83.621,48.278
		c-3.392,1.619-7.057,2.434-10.727,2.434h-0.002c-3.689-0.002-7.375-0.823-10.78-2.458l-83.525-48.223
		c-6.221-4.258-10.186-11.107-10.773-18.623v-96.542c0.295-3.749,1.427-7.333,3.26-10.51h0.002c1.825-3.163,4.345-5.927,7.427-8.053
		l83.707-48.326c6.74-3.203,14.568-3.215,21.317-0.026l83.802,48.379c3.059,2.123,5.572,4.866,7.392,8.019l-3.103,1.791
		l-90.732,52.385l-0.841,0.487c-0.061,0.036-0.117,0.075-0.177,0.11l-0.582,0.338c-0.04,0.022-0.084,0.038-0.124,0.06l-0.009,0.01
		c-1.88,0.961-4.005,1.519-6.26,1.519c-2.254,0-4.379-0.555-6.255-1.519h-0.004c-0.013-0.01-0.026-0.017-0.038-0.021
		c-0.04-0.019-0.085-0.043-0.127-0.062l-0.457-0.263c-0.07-0.043-0.14-0.089-0.213-0.135l-71.714-41.404v91l78.807,45.499
		l0.002-0.002v-0.01l-6.199-3.577c1.864,0.949,3.967,1.497,6.199,1.5h0.014c2.199,0,4.268-0.529,6.107-1.449l72.681-41.961V515.17
		l-71.827,41.474l-0.582,0.336c-1.911,1.009-4.085,1.584-6.394,1.584c-2.324,0-4.506-0.582-6.425-1.601l-0.457-0.262l-19.386-11.195
		l0.029-0.023l-26.3-15.189v-30.327l46.658,26.935c1.78,0.867,3.771,1.368,5.881,1.38c0.025,0,0.052,0.002,0.08,0.002
		c1.956,0,3.811-0.419,5.494-1.159l73.229-42.282v0.029l26.272-15.161V548.353z"/>
</g>
</svg>
