<?xml version="1.0" encoding="utf-8"?>
<!-- Generator: Adobe Illustrator 16.0.0, SVG Export Plug-In . SVG Version: 6.00 Build 0)  -->
<!DOCTYPE svg PUBLIC "-//W3C//DTD SVG 1.1//EN" "http://www.w3.org/Graphics/SVG/1.1/DTD/svg11.dtd">
<svg version="1.1" id="Layer_1" xmlns="http://www.w3.org/2000/svg" xmlns:xlink="http://www.w3.org/1999/xlink" x="0px" y="0px"
	 width="1600px" height="1000px" viewBox="0 0 1600 1000" enable-background="new 0 0 1600 1000" xml:space="preserve">
<path fill-rule="evenodd" clip-rule="evenodd"  d="M493.784,430.141h-26.579c-2.755,0-4.99,2.209-4.99,4.936v26.685
	c0,2.726,2.234,4.937,4.99,4.937h26.579c2.755,0,4.989-2.211,4.989-4.937v-26.685C498.773,432.35,496.539,430.141,493.784,430.141
	 M853.801,494.818h266.507c1.52,0,2.753-1.232,2.753-2.754V348.532c0-1.521-1.233-2.756-2.753-2.756H853.801
	c-2.718,0-4.923,2.205-4.923,4.923v26.714c0,2.718,2.205,4.921,4.923,4.921h212.412c0.18,0.015,0.355,0.035,0.542,0.035h16.995
	c1.521,0,2.751,1.232,2.751,2.754v14.106c0,1.52-1.23,2.754-2.751,2.754h-16.995c-0.187,0-0.362,0.021-0.542,0.035H881.92
	c-2.717,0-4.92,2.204-4.92,4.922v26.714c0,2.718,2.203,4.92,4.92,4.92h184.293c0.18,0.016,0.355,0.037,0.542,0.037h16.995
	c1.521,0,2.751,1.232,2.751,2.753v14.106c0,1.52-1.23,2.754-2.751,2.754h-16.995c-0.187,0-0.362,0.021-0.542,0.035H853.801
	c-2.718,0-4.923,2.203-4.923,4.921v26.714C848.878,492.616,851.083,494.818,853.801,494.818 M493.853,483.571h-26.716
	c-2.717,0-4.921,2.203-4.921,4.921v186.117c0,0.209,0.017,0.413,0.054,0.615c0.227,1.246,1.295,5.193,5.471,2.41l27.25-18.172
	c2.358-1.574,3.783-4.271,3.783-7.168V488.492C498.773,485.774,496.569,483.571,493.853,483.571 M480.134,407.469l14.627-25.134
	h33.538v24.606c0,2.716,2.205,4.92,4.923,4.92h26.715c2.717,0,4.92-2.204,4.92-4.92v-24.606h34.449c2.717,0,4.92-2.203,4.92-4.921
	v-26.714c0-2.718-2.204-4.923-4.92-4.923h-83.272l3.941-6.772c1.296-2.225,0.526-5.067-1.718-6.351l-23.966-13.713
	c-2.245-1.283-5.112-0.52-6.405,1.703l-39.842,68.464c-1.294,2.225-0.525,5.069,1.718,6.353l23.967,13.712
	C475.973,410.456,478.841,409.693,480.134,407.469 M762.408,345.776h-83.271l3.941-6.772c1.294-2.225,0.525-5.067-1.717-6.351
	l-23.968-13.713c-2.245-1.283-5.111-0.52-6.405,1.703l-39.843,68.464c-1.293,2.225-0.525,5.069,1.719,6.353l23.967,13.712
	c2.244,1.285,5.111,0.521,6.406-1.702l14.625-25.134h33.541v24.606c0,2.716,2.202,4.92,4.921,4.92h26.714
	c2.719,0,4.92-2.204,4.92-4.92v-24.606h34.45c2.718,0,4.92-2.203,4.92-4.921v-26.714
	C767.328,347.981,765.125,345.776,762.408,345.776 M691.402,624.176V489.897c0-2.718-2.205-4.921-4.921-4.921h-153.26
	c-2.718,0-4.923,2.203-4.923,4.921v134.278c0,1.553,1.26,2.812,2.814,2.812h157.476
	C690.144,626.988,691.402,625.729,691.402,624.176 M654.845,587.618c0,1.554-1.259,2.812-2.812,2.812h-84.363
	c-1.554,0-2.812-1.259-2.812-2.812v-9.139c0-2.72,2.203-4.922,4.92-4.922h80.146c2.718,0,4.921,2.202,4.921,4.922V587.618z
	 M654.845,535.594c0,1.553-1.259,2.812-2.812,2.812h-84.363c-1.554,0-2.812-1.259-2.812-2.812v-9.139
	c0-2.717,2.203-4.922,4.92-4.922h80.146c2.718,0,4.921,2.205,4.921,4.922V535.594z M984.958,609.694l-45.961-28.139
	c-1.58-0.968-3.574-0.968-5.155,0.002l-28.416,17.429c-3.099,1.9-3.118,6.375-0.035,8.301l45.671,28.544
	c1.594,0.997,3.62,1,5.217,0.007l28.706-17.834C988.078,616.083,988.063,611.596,984.958,609.694 M1147.664,527.158h-61.163v-13.365
	c0-2.713-2.406-4.914-5.144-4.914h-27.196c-2.739,0-4.216,2.198-4.216,4.909v13.37H827.084c-2.716,0-4.92,2.203-4.92,4.921v26.716
	c0,2.717,2.204,4.922,4.92,4.922h202.571c0.179,0.013,0.354,0.034,0.544,0.034h16.994c1.519,0,2.752,1.233,2.752,2.754v54.859
	c0,0.946-0.579,3.722-1.408,4.216l-47.455,30.596c-1.756,1.063-1.707,3.583,0.042,4.66l30.367,20.434
	c0.9,0.553,2.058,0.551,2.956-0.006l52.054-34.353v-83.194h61.163c2.719,0,4.921-2.205,4.921-4.922v-26.716
	C1152.585,529.361,1150.383,527.158,1147.664,527.158 M754.735,430.141H532.458c-2.634,0-4.159,1.402-4.159,4.146v28.161
	c0,2.977,1.758,4.145,4.159,4.145h185.719c1.52,0,2.751,1.229,2.751,2.745v152.027c0,0.946-0.577,3.722-1.406,4.216l-47.456,30.596
	c-1.756,1.063-1.707,3.583,0.042,4.66l30.368,20.434c0.9,0.553,2.057,0.551,2.956-0.006l52.054-34.353V432.884
	C757.486,431.369,756.254,430.141,754.735,430.141"/>
</svg>
