<?xml version="1.0" encoding="utf-8"?>
<!-- Generator: Adobe Illustrator 16.0.0, SVG Export Plug-In . SVG Version: 6.00 Build 0)  -->
<!DOCTYPE svg PUBLIC "-//W3C//DTD SVG 1.1//EN" "http://www.w3.org/Graphics/SVG/1.1/DTD/svg11.dtd">
<svg version="1.1" id="Layer_1" xmlns="http://www.w3.org/2000/svg" xmlns:xlink="http://www.w3.org/1999/xlink" x="0px" y="0px"
	 width="1600px" height="1000px" viewBox="0 0 1600 1000" enable-background="new 0 0 1600 1000" xml:space="preserve">
<g>
	<path  d="M336.724,632.416c124.287-83.328,507.691-226.243,959.349-65.616
		c-219.184-67.488-645.733-119.777-1015.644,150.802C280.429,717.602,330.663,641.638,336.724,632.416z"/>
	<g>
		<path  d="M523.493,327.025c-0.673-2.668-7.997-15.978-7.997-15.978c-1.995,0-7.658-1.002-7.658-1.002
			c-6.655-5.998-22.644-3.337-22.644-3.337c-4.656,3.002-7.657,2.34-7.657,2.34l0.339-7.33c1.994-1.325,2.997-4.984,2.997-4.984
			l-8.315-10.993c-4.667-6.645-8.66-1.331-8.66-1.331c-6.99,11.65-8.995,27.973-8.995,27.973h-11.65
			c-20.971,1.666-31.613,10.648-31.613,10.648c-14.993,0.668-27.973,2.668-27.973,2.668c-23.979,9.328-31.617,4.996-31.617,4.996
			c-7.99,1.988-8.658,10.977-8.658,10.977c-2.341-5.653-12.656-12.314-12.656-12.314l-4.984,3.325l-0.663,7.974
			c-2.331,8.333-15.324,26.31-15.324,26.31c-10.322,19.647-18.974,23.963-18.974,23.963l-2.334,27.629
			c-4.656,9.317-11.644,33.96-11.644,33.96c-6.658,26.621-7.992,21.96-7.992,21.96c-6.655,11.989-1.325,30.617-1.325,30.617
			c7.317,6.016,15.565,13.99,15.565,13.99c2.763,7.975,12.018,1.871,12.018,1.871c4.138-1.108,10.161-2.244,10.161-2.244
			c1.875-1.131,2.537-8.616,2.537-8.616c2.974-5.652,8.323-15.972,8.323-15.972c3.325-1.32,4.319-3.986,4.319-3.986
			c-2.662-6.984-1.671-12.988-1.671-12.988c4.325-3.336,4.009-6.988,4.009-6.988c4.984-3.336,4.984-9.658,4.984-9.658
			c5.007-7.997,22.308-19.965,22.308-19.965c8.312-2.657,11.98-6.003,11.98-6.003c27.3-16.987,63.583-30.948,63.583-30.948
			c14.992-9.656,16.312-4.327,16.312-4.327c0.994,9.311,1.996,86.884,1.996,86.884c-3.002,10.319,2.659,25.283,2.659,25.283
			c5.664,31.305,8.007,62.593,8.007,62.593c4.656,7.997,8.319,2.67,8.319,2.67c4.982-1.662,4.982-4.664,4.982-4.664
			c-3.99-14.317-4.982-33.95-4.982-33.95c-1.336-18.311-2.328-23.975-2.328-23.975c-3.347-13.978-3.671-31.298-3.671-31.298
			c3.671-10.982,0.998-22.956,0.998-22.956c-3.331-19.976-1.337-29.645-1.337-31.632c0-1.989,1.666-4.328,1.666-4.328v-7.985
			c0-6.99,1.343-5.994,1.343-5.994c0-5.001,1.664-13.979,1.664-13.979c7.986-4.667,17.96-11.65,17.96-11.65l0.34-8.314
			c1.332-1.671,14.987-9.997,14.987-9.997c19.296-10.325,29.939-26.309,29.939-26.309L523.493,327.025L523.493,327.025z
			 M449.263,346.333l-2.008,11.65c-7.321,13.65-22.986,18.306-22.986,18.306c-34.938,7.992-50.256,24.632-50.256,24.632
			c-17.977,14.652-40.276,23.301-40.276,23.301c-1.325-8.989,6.984-24.626,6.984-24.626c3.341-0.663,17.652-13.322,17.652-13.322
			l5.672-2.316l3.645-6.333c10.656-7.323,25.306-20.645,25.306-20.645l8.321-1.659l4.001-2.339
			c8.972-4.984,31.281-10.976,31.281-10.976C452.245,338.686,449.263,346.333,449.263,346.333L449.263,346.333z M488.87,340.006
			l-8.999,0.651l-9.307,8.995h-3.676v-10.654c0,0-0.657-4.649,6.672-5.992c5.277-0.953,24.645-0.991,24.645-0.991
			S496.52,337.684,488.87,340.006L488.87,340.006z"/>
		<path  d="M722.066,390.179l-3.013-7.162l-9.762-4.122c0,0-5.625,0.751-6.767,0
			c-1.125-0.763-12.391-13.171-51.487-24.805l-4.881-3.008l-4.153-1.504l-1.121-3.758l7.134-6.399c0,0,7.529-5.263-1.495-16.53
			l-5.639-7.519c0,0-4.506-0.378-9.02,5.999l-9.774,13.917l-4.886,0.752l-3.389,3.381l-4.851,10.899
			c0,0-22.967,23.685-36.109,31.576c0,0-9.402,11.657-16.541,18.792l-9.379,10.904l-2.657,3.013c0,0-4.505,0.752-6.382-0.757
			c-1.882-1.509-4.506-0.751-4.506-0.751l-9.394,22.543l-1.126,3.753l-2.645,2.262l-0.735,3.77l-0.396,9.774l3.776,4.505h6.75
			l3.77-3.014l2.239-6.02l29.708-28.547l7.142-6.026l38.72-42.47c0,0,7.499-2.622,9.002-3.387
			c1.532-0.745,13.522-3.753,25.574,4.144l21.427,16.529c0,0,9.393,8.27-2.634,9.022l-33.075,0.39l-11.656-8.66
			c0,0-7.137-4.512-12.03,6.015v5.257l3.762,8.654l1.123,3.765l0.376,19.536c0,0-8.61,0.362-11.771,0.674
			c-3.183,0.312-6.034,0.312-12.079,2.227c-6.032,1.9-13.346,9.886-13.346,9.886s-11.662,13.143-15.8,24.799l1.134,22.17
			c0,0,2.625,14.285,11.648,20.678c0,0,6.028,8.266,24.047,4.127l27.814-9.39c0,0,6.778-0.763,9.406-1.515
			c2.628-0.729,6.006-2.617,7.882-2.984c1.881-0.386,7.528-4.148,7.528-4.148s16.522-1.883,23.665-0.38l0.761,3.403
			c0,0,1.487,0.739,9.398-4.149c0,0,7.889-6.014,7.889-7.513c0-1.509-1.11-5.642-1.11-5.642l-12.792-13.154l-12.406,2.996
			l-10.138,5.269l-10.15,2.245c0,0-4.129,4.521-5.265,4.521c-1.133,0-12.781,0.39-12.781,0.39s-3.007-3.788,4.892-10.916
			c0,0,2.628,1.884,3.016-12.78c0,0,4.121-10.509,22.156-17.271c0,0,10.908-1.52,11.654-9.044l-10.521-14.278
			c0,0-6.016-3.386-8.642,6.387l-7.152,3.392l-2.999,1.877h-7.512c0,0-3.016-7.892-4.52-16.542l-1.503-6.009
			c0,0,15.802-2.633,21.052,0.748h23.67l6.402,4.516l2.623,0.745l6.772-3.012c0,0,2.255,0.762,5.636,0.762
			c3.369,0,5.647-1.883,5.647-1.883l2.625-2.25l16.532-1.509c0,0,7.157,2.63,10.901-5.262
			C727.333,407.076,729.967,398.805,722.066,390.179L722.066,390.179z M610.447,458.951l-4.909,15.399c0,0-2.615,7.896-0.367,16.54
			c0,0,4.52,9.401-8.633,7.886c0,0-4.895,0.39-9.392,1.888c0,0-6.034,3.019-10.161-9.01c0,0-7.891-20.678,3.753-33.472
			c1.883-1.492,11.656-4.5,13.917-10.887h15.792V458.951L610.447,458.951z"/>
		<path  d="M819.043,348.716c0,0-7.97,4.2-15.939-4.622c0,0-5.475-6.294,7.97-15.939l12.597-8.398
			c0,0-0.43-6.728,9.239-10.92c0,0,27.283-10.069,39.035-7.541c0,0,17.191,20.985,5.451,28.531c0,0-5.451,8.815-12.592,2.94
			c0,0-3.363-6.71-6.311,3.358l-8.81,3.782l-4.595,3.77c0,0-4.633,2.1-6.31-5.453C838.779,338.224,824.093,339.071,819.043,348.716
			L819.043,348.716z"/>
		<path  d="M976.849,417.546c0,0,2.534-9.235-22.23-10.916l-8.829-0.835l-0.818-11.756c0,0-2.951-11.745-10.074-3.771
			l-0.847,15.11l-12.18,1.676l-4.605,4.2c0,0-2.521,1.258-3.781,1.258c-1.259,0-10.48,0-10.48,0s-12.202-13.438-16.369-2.935
			c0,0,2.106,7.122-7.996,16.785l-17.197,20.984l-3.348,2.523l-2.539,5.457l-4.601,5.452c0,0-5.864,7.119-4.623-5.892
			c0,0,7.146-21.385,21.408-31.036c0,0,7.559-5.888-1.271-19.727c0,0-1.247-6.309-14.268-1.275l0.412-19.721l10.51-7.968
			c0,0,11.333-10.498,21.401-13.439c0,0,4.612-3.352-1.252-11.328l-8.387-11.333c0,0-2.94-0.418-11.34,7.557l-8.409,5.881
			l-2.523,2.088l-5.43-2.946c0,0-5.057-10.894-10.915,3.38l0.411,7.129c0,0,1.694,5.04-26.859,10.492c0,0-14.685,8.81-19.721,11.739
			c0,0-20.995,13.845-43.653,11.338c0,0-15.534,3.354-5.46,11.333c0,0,4.622,13.421,21.842,10.493c0,0,18.879,0.84,33.983-10.07
			l13.009-8.809c0,0,9.224-7.982,5.04,2.088l-13.427,20.99c0,0-7.575,12.591-2.951,20.99l5.456,7.975c0,0,7.547,6.282,13.852-3.782
			c0,0,6.723-4.193,7.964-4.193c1.271,0-5.864,13.422-5.864,13.422l-0.406,16.362l5.029,7.99l1.241,6.284l6.3,13.015
			c0,0,1.686,11.744,14.277,2.099l3.354-9.646c0,0,3.381-4.193,3.793-6.311c0.396-2.088,0.84-6.71,0.84-6.71l34.819-43.64
			l2.935-6.299c0,0,1.259-3.782,9.674,0l9.216,1.252l1.265,9.229l-1.265,2.528v6.705l1.683,2.945l-0.418,4.612l-3.759,4.628
			l-2.105,7.547c0,0-7.58,10.909,6.717,13.02c0,0,4.188,1.665,9.217-6.305c0,0,4.622-5.029,12.163,2.101l10.932,5.457
			c0,0,5.882,4.183,14.263-10.503C959.651,472.519,983.989,443.146,976.849,417.546L976.849,417.546z M823.67,419.64
			c-0.847-3.771,2.941-7.976,2.941-7.976C831.238,421.745,823.67,419.64,823.67,419.64L823.67,419.64z M831.639,444.823
			c-4.198-5.458,1.693-7.129,1.693-7.129C839.196,443.987,831.639,444.823,831.639,444.823L831.639,444.823z M839.608,409.158
			c-10.063-12.169,1.676-15.532,1.676-15.532C842.126,400.755,839.608,409.158,839.608,409.158L839.608,409.158z M959.651,438.118
			l-7.562,12.999l-2.512,4.621l-5.877,5.464c0,0-7.14,4.177-14.669-3.781c0,0-0.852-8.399,2.507-10.493c0,0,0-7.134,2.511-10.074
			l5.045-10.921c0,0,11.747-4.605,13.435,0.842l10.486-0.413C963.016,426.361,967.214,428.449,959.651,438.118L959.651,438.118z"/>
		<path  d="M1243.365,388.586c-5.879-13.005-17.185-19.315-17.185-19.315h-18.475
			c-22.665,2.111-44.903,10.069-44.903,10.069c-12.18,1.27-2.11-9.646-2.11-9.646c7.975-5.029,13.433-20.567,13.433-20.567
			c5.877-15.52-7.15-23.93-7.15-23.93c-6.282-6.706-9.634-0.401-9.634-0.401l-7.15,6.288c-10.487,13.02-13.835,27.707-13.835,27.707
			c-5.046,12.18-7.141,14.262-7.141,14.262l-15.533-0.83c-13.014,1.259-20.561,1.259-20.561,1.259
			c-7.552-3.788-20.561-2.1-20.561-2.1l-17.204,4.199c-12.597,4.606-22.248,3.759-22.248,3.759
			c-28.564,0.43-13.433,16.378-13.433,16.378c6.705,17.621,23.921,8.404,23.921,8.404l29.8-6.309
			c12.999-0.825,29.805-3.776,29.805-3.776l13.841-1.671l-2.101,7.975l-42.815,53.709l-10.481,9.662
			c-12.997,1.665-16.367,7.127-16.367,7.127c-9.229,13.444-13.015,10.5-13.015,10.5c-23.09-4.629-16.368,7.138-16.368,7.138
			c3.346,14.686,20.99,18.039,20.99,18.039c27.277,9.233,26.023-2.106,26.023-2.106c2.941-5.869,10.906-15.107,10.906-15.107
			l8.81-11.327l30.642-41.123c5.881-12.586,9.661-13.003,9.661-13.003l0.843,28.112c2.93,18.879,17.621,28.547,17.621,28.547
			c16.772,14.676,19.714,3.354,19.714,3.354l15.108-13.855l13.445-14.269c3.758-5.452,9.617-7.98,9.617-7.98l13.889-15.538
			l5.441-3.341c13.855-20.144,20.979-22.666,20.979-22.666C1250.089,399.073,1243.365,388.586,1243.365,388.586L1243.365,388.586z
			 M1218.639,402.881l-48.018,52.317l-9.367,6.633c0,0-15.225,10.152-22.253-10.543c0,0-5.859-15.225-3.141-37.085l1.575-11.322
			c0,0-3.51-12.498,9.764-3.52c0,0,9.752,1.56,16.006,3.52c0,0,4.292,5.854,21.445-1.565c0,0,23.056-11.717,33.988-5.854
			C1218.639,395.463,1222.555,398.577,1218.639,402.881L1218.639,402.881z"/>
	</g>
	<g>
		<path  d="M1312.194,327.046c-12.307,0-22.325-10.024-22.325-22.332c0-12.308,10.019-22.315,22.325-22.315
			c12.313,0,22.328,10.007,22.328,22.315C1334.522,317.022,1324.508,327.046,1312.194,327.046 M1312.194,285.423
			c-10.642,0-19.303,8.66-19.303,19.292c0,10.642,8.661,19.302,19.303,19.302c10.644,0,19.298-8.66,19.298-19.302
			C1331.492,294.083,1322.838,285.423,1312.194,285.423"/>
		<path  d="M1319.379,292.134c0.97,0.418,1.798,1.036,2.473,1.855c0.568,0.674,1.014,1.42,1.343,2.233
			c0.335,0.818,0.479,1.749,0.479,2.791c0,1.258-0.318,2.5-0.94,3.72c-0.646,1.219-1.693,2.077-3.154,2.59
			c1.223,0.483,2.097,1.186,2.603,2.088c0.512,0.907,0.768,2.289,0.768,4.15v1.781c0,1.209,0.067,2.039,0.146,2.467
			c0.15,0.836,0.809,1.187,1.344,1.516v0.662h-6.272c-0.339-0.489-0.456-1.057-0.528-1.425c-0.15-0.736-0.224-1.503-0.24-2.285
			l-0.033-2.466c-0.022-1.688-0.316-2.818-0.881-3.38c-0.556-0.562-1.608-0.846-3.157-0.846h-5.419v10.402h-5.406v-26.531h12.68
			C1317.001,291.488,1318.394,291.716,1319.379,292.134 M1307.906,296.054v7.129h5.977c1.181,0,2.065-0.139,2.667-0.423
			c1.053-0.513,1.569-1.498,1.569-2.991c0-1.609-0.506-2.69-1.514-3.241c-0.578-0.312-1.436-0.474-2.572-0.474H1307.906z"/>
	</g>
	<g>
		<path  d="M655.9,572.356c4.229,1.503,8.572,2.455,13.018,2.851c-0.312,0.819-0.654,1.587-1.027,2.308
			c1.15,1.997,2.738,4.504,4.759,7.514c2.021,3.009,4.907,5.85,8.656,8.523c3.749,2.667,7.106,4.706,10.078,6.114
			c2.971,1.406,5.327,2.275,7.07,2.602l5.644,1.229c-1.679,3.994-3.235,8.531-4.664,13.604c-2.957-0.979-5.407-1.867-7.352-2.653
			c-1.944-0.786-4.62-2.133-8.024-4.05c-3.403-1.915-6.183-3.839-8.329-5.771c-2.146-1.935-4.316-4.134-6.507-6.608
			c-2.194-2.469-3.899-4.72-5.109-6.752l-2.243-3.584c-1.865,2.456-4.221,5.451-7.066,8.988c-2.846,3.537-6.689,7.213-11.525,11.024
			c-4.838,3.817-8.138,6.258-9.895,7.321c-1.757,1.063-3.943,2.299-6.554,3.705c-2.49-4.714-5.054-8.675-7.703-11.884
			c3.208-1.017,6.645-2.465,10.314-4.347s7.569-4.822,11.689-8.815c4.121-3.997,7.076-7.475,8.866-10.44
			C651.784,580.27,653.753,576.644,655.9,572.356z M621.463,649.076l12.18,0.346h3.124v-19.895l-0.233-9.232h11.385l-0.234,9.232
			v19.895l9.521-0.102v-30.941l-0.233-11.052h12.037l-0.233,11.052v3.832h10.639l8.818-0.198v12.083l-8.818-0.245h-10.639v15.571
			h22.539l11.432-0.346v12.575l-11.432-0.347h-57.671l-12.18,0.347V649.076z"/>
		<path  d="M736.402,658.996l-9.802,0.35V647.16l9.802,0.393h16.841v-16.699c-3.764,1.671-6.251,2.916-7.465,3.734
			l-3.267,2.158c-2.863-10.574-5.094-18.481-6.697-23.723c-1.601-5.237-2.932-9.249-3.984-12.031l-3.036-8.006
			c3.826-1.211,6.471-2.244,7.93-3.099l3.127-1.765c0.871,2.555,2.287,6.606,4.246,12.156c1.958,5.55,3.219,9.178,3.782,10.879
			l2.518,8.103c1.244,3.963,1.942,6.305,2.1,7.025l0.746,3.39v-42.339l-0.326-12.083h12.411l-0.324,12.083v60.216h8.026v-60.071
			l-0.329-12.08h12.363l-0.322,12.08v42.439c1.052-2.16,1.893-3.954,2.517-5.377c0.624-1.426,1.532-3.726,2.73-6.902
			c1.197-3.176,2.378-6.798,3.547-10.858c1.164-4.057,2.044-7.674,2.634-10.854l1.264-6.628c3.202,1.08,7.29,2.212,12.269,3.39
			c-1.336,5.371-2.518,9.738-3.548,13.112c-1.024,3.375-2.333,7.245-3.913,11.617c-1.589,4.372-2.997,7.973-4.228,10.804
			c-1.225,2.835-3.147,6.95-5.759,12.355c-2.339-2.03-4.839-3.945-7.513-5.746v12.719h16l11.154-0.393v12.186l-11.154-0.35H736.402z
			"/>
		<path  d="M839.253,585.028l8.676,0.344h20.439v-5.5l-0.233-7.762h11.616l-0.234,7.762v5.5h24.127l7.462-0.344
			l-0.278,8.596v38.31l0.278,9.627h-11.572v-1.815h-20.017v10.36c0,0.853,0.258,1.624,0.77,2.31c0.512,0.688,1.859,1.082,4.037,1.18
			l10.081,0.245c4.32,0.132,7.418,0.09,9.283-0.122c1.866-0.215,3.381-0.81,4.549-1.793c1.165-0.983,1.905-2.735,2.217-5.254
			l0.558-3.832c4.171,2.651,7.874,4.554,11.109,5.697c-1.869,6.681-3.406,10.731-4.62,12.157c-1.215,1.423-2.529,2.432-3.945,3.019
			c-1.413,0.591-3.547,0.967-6.393,1.131c-2.846,0.167-7.206,0.147-13.087-0.051c-5.663-0.13-10.275-0.204-13.835-0.221
			c-3.563-0.017-6.215-0.564-7.957-1.645c-1.738-1.081-2.83-2.292-3.264-3.635c-0.436-1.342-0.651-3.126-0.651-5.354v-14.193
			h-17.549v1.472h-11.566l0.278-10.018v-37.575L839.253,585.028z M850.819,607.569h17.549v-11.244h-17.549V607.569z
			 M850.819,629.035h17.549v-11.051h-17.549V629.035z M879.517,607.569h20.017v-11.244h-20.017V607.569z M879.517,629.035h20.017
			v-11.051h-20.017V629.035z"/>
		<path  d="M980.408,611.646c-0.34-0.785-0.673-1.479-1.002-2.082c-0.324-0.607-1.276-1.942-2.847-4.005
			c-1.569-2.062-2.868-3.42-3.898-4.077l-2.1-1.375c3.67-3.272,6.35-5.908,8.025-7.905c2.083,1.734,3.286,2.748,3.598,3.043
			l4.521,4.618c5.013-4.456,8.153-7.562,9.43-9.334l1.954-2.602h-29.861l-12.642,0.296v-11.888l13.621,0.392h40.973l4.805,7.613
			c-0.84,1.343-1.636,2.574-2.378,3.681c-0.745,1.117-2.449,3.237-5.111,6.363c-2.656,3.13-4.939,5.608-6.84,7.443
			c-1.893,1.833-4.711,4.355-8.441,7.563l0.79,2.255h22.771l12.604-0.39v12.33l-11.015-0.346h-22.261
			c0.217,2.684,0.395,5.094,0.541,7.221c0.139,2.13,0.199,4.642,0.183,7.541c-0.017,2.896-0.166,5.976-0.468,9.233
			c-0.295,3.258-0.834,5.959-1.626,8.104c-0.797,2.145-2.589,4.157-5.369,6.042c-2.784,1.882-8.208,2.938-16.262,3.166
			c-0.284-1.342-0.617-2.823-1.001-4.444c-0.392-1.621-0.942-3.3-1.66-5.034L968,651.532c2.328,0.164,4.823,0.254,7.463,0.271
			c2.645,0.017,4.539-0.507,5.696-1.571c1.147-1.065,1.916-2.212,2.307-3.439c0.39-1.228,0.662-3.102,0.812-5.625
			c0.156-2.52,0.244-5.189,0.261-8.005c0.018-2.815-0.133-5.271-0.444-7.371l-0.373-2.551h-28.881l-12.509,0.346v-12.33l12.597,0.39
			H980.408z"/>
		<path  d="M1072.345,593.964h-9.613l-11.618,0.349v-10.908l11.618,0.348h25.989
			c-1.307-2.488-2.225-4.126-2.754-4.911l-2.189-3.243c4.384-1.994,7.835-3.732,10.358-5.204c2.706,4.354,4.305,6.974,4.806,7.854
			l2.099,3.932l-2.521,1.572h23.239l12.409-0.348v10.908l-12.319-0.349h-8.443l2.517,1.871c-2.334,3.798-3.903,6.315-4.711,7.562
			h8.962l10.169-0.392l-0.325,11.297v43.322c0,1.698-0.212,2.96-0.635,3.778c-0.416,0.818-1.359,1.64-2.816,2.456
			c-1.466,0.819-2.941,1.375-4.434,1.671c-1.499,0.294-4.328,0.507-8.493,0.638c-0.129-1.275-0.273-2.595-0.445-3.954
			c-0.174-1.358-0.49-2.891-0.958-4.589l-1.207-4.372c3.295,0.358,5.267,0.473,5.924,0.342c0.901-0.131,1.46-0.367,1.676-0.713
			c0.217-0.342,0.329-1.235,0.329-2.676v-24.164c-1.771,2.256-2.816,3.667-3.125,4.222l-2.193,3.637l-3.271-3.047l-0.233,6.583
			v10.608l0.233,8.741l-6.157-0.245h-20.529l-7.606,0.245l0.233-7.955v-10.905l-0.233-7.518c-1.276,1.053-2.646,2.019-4.105,2.902
			c-1.12-2.292-1.809-3.651-2.055-4.077l-2.473-4.026v25.342l0.372,14.099h-12.267l0.322-13.508V611.94l-0.322-8.935l9.468,0.392
			h9.517c-1.987-3.765-3.074-5.794-3.264-6.09l-1.257-1.623L1072.345,593.964z M1067.442,623.338
			c2.489-1.211,4.584-2.405,6.278-3.584c1.692-1.181,2.927-2.294,3.707-3.342l2.428-3.043h-12.413V623.338z M1078.548,628.642
			l6.253,0.25h17.734l5.269-0.25c-0.993-0.948-1.812-1.709-2.446-2.282c-0.641-0.57-3.992-3.103-10.059-7.588
			c1.961-1.604,3.966-3.405,6.021-5.402h-17.08c1.871,1.638,3.905,3.146,6.114,4.519c-1.431,1.508-2.761,2.872-3.986,4.1
			C1085.137,623.213,1082.53,625.435,1078.548,628.642z M1081.443,593.964c1.337,2.33,2.706,4.669,4.104,7.028
			c-1.241,0.785-2.428,1.588-3.548,2.405h20.067c-0.841-0.621-1.744-1.275-2.708-1.964c1.276-1.768,2.023-2.83,2.239-3.192
			l2.523-4.277H1081.443z M1085.453,646.966h14.748v-8.55h-14.748V646.966z M1118.957,613.369h-14.185
			c7.529,5.469,11.401,8.285,11.618,8.449l2.566,2.06V613.369z"/>
		<path  d="M1193.951,606.542c-1.683-1.803-2.963-3.266-3.85-4.397c-0.889-1.13-2.327-3.232-4.315-6.31
			c-4.075,4.389-6.611,6.973-7.606,7.759l-2.568,2.112c-2.956-3.372-5.735-6.271-8.354-8.696c4.424-2.714,8.299-6.086,11.646-10.112
			c3.341-4.033,5.746-8.335,7.205-12.918l0.98-2.949c3.078,0.98,7.296,2.044,12.647,3.194c-0.903,1.93-1.864,3.729-2.896,5.401
			l31.449,0.048l3.92,7.513c-2.333,3.898-4.606,7.143-6.811,9.729c-2.211,2.587-4.232,4.616-6.064,6.091l-5.836,4.813
			c4.666,2.227,8.253,3.659,10.76,4.294c2.5,0.642,5.199,1.125,8.091,1.45c2.896,0.329,7.2,0.265,12.925-0.194
			c-0.867,3.503-1.353,5.862-1.446,7.073l-0.558,5.844c-4.946-0.164-9.957-0.614-15.025-1.352
			c-5.073-0.736-9.617-2.129-13.649-4.175c-4.026-2.044-7.858-4.229-11.501-6.555c-6.593,3.6-12.636,6.168-18.127,7.711
			c-5.492,1.538-12.592,3.11-21.302,4.713c-0.246-1.506-0.462-2.633-0.651-3.389l-1.822-5.059l-1.303-3.635
			c1.988-0.031,5.519-0.194,10.592-0.49C1175.551,613.762,1183.376,611.256,1193.951,606.542z M1170.199,638.614v-11.149
			l7.233,0.346h17.032c0.34-2.524,0.528-4.029,0.562-4.521l0.372-5.108c2.769,0.557,6.778,1.144,12.034,1.768
			c-0.373,2.655-0.745,5.274-1.118,7.861h20.204l6.766-0.248l-0.189,10.118c0.129,5.861-0.061,10.56-0.556,14.097
			c-0.501,3.536-1.532,6.229-3.104,8.08c-1.569,1.85-3.697,3.216-6.37,4.105c-2.675,0.88-7.184,1.587-13.532,2.109
			c-0.123-1.344-0.296-2.745-0.513-4.201c-0.217-1.457-0.558-2.925-1.025-4.396l-1.447-4.47c1.928,0.358,3.435,0.564,4.527,0.615
			c1.087,0.048,2.634-0.117,4.641-0.493c2.011-0.376,3.52-1.183,4.525-2.431c1.016-1.245,1.472-3.583,1.376-7.022l-0.138-5.258
			h-17.733c-1.12,2.558-2.454,5.241-4.01,8.058c-1.559,2.813-4.84,6.181-9.846,10.093c-5.007,3.912-12.492,6.884-22.444,8.913
			c-0.346-1.177-0.762-2.52-1.258-4.026c-0.502-1.506-1.744-4.126-3.736-7.858c8.587-0.131,15.073-1.834,19.457-5.108
			c4.389-3.272,7.529-6.631,9.43-10.07h-14.236L1170.199,638.614z M1216.022,590.186h-21.324c2.767,4.224,4.772,6.895,6.02,8.006
			l2.941,2.801c2.108-1.278,3.94-2.499,5.479-3.659C1210.681,596.169,1212.969,593.789,1216.022,590.186z"/>
	</g>
</g>
</svg>
