<?xml version="1.0" encoding="utf-8"?>
<!-- Generator: Adobe Illustrator 16.0.0, SVG Export Plug-In . SVG Version: 6.00 Build 0)  -->
<!DOCTYPE svg PUBLIC "-//W3C//DTD SVG 1.1//EN" "http://www.w3.org/Graphics/SVG/1.1/DTD/svg11.dtd">
<svg version="1.1" id="Layer_1" xmlns="http://www.w3.org/2000/svg" xmlns:xlink="http://www.w3.org/1999/xlink" x="0px" y="0px"
	 width="1600px" height="1000px" viewBox="0 0 1600 1000" enable-background="new 0 0 1600 1000" xml:space="preserve">
<g>
	<polygon  points="438.153,408.171 325.115,587.04 325.115,588.277 439.364,588.277 439.364,617.893 278.722,617.893 
		278.722,597.929 393.018,417.251 393.018,416.014 288.539,416.014 288.539,386.732 438.153,386.732 	"/>
	<path  d="M611.676,617.893h-35.603v-97.304c0-23.861-8.317-43.802-32.274-43.802
		c-17.492,0-36.246,14.187-36.246,39.285v101.82h-35.626V375.561h35.626v98.492h0.593c11.099-17.23,30.136-26.286,48.533-26.286
		c25.527,0,54.996,16.922,54.996,69.497V617.893z"/>
	<path  d="M780.33,611.238c-11.981,5.417-30.708,9.98-53.764,9.98c-51.004,0-80.472-33.558-80.472-84.324
		c0-49.533,28.257-89.128,76.148-89.128c47.628,0,66.688,38.978,66.688,80.095c0,5.727-0.331,10.554-0.948,14.783H680.505
		c0.904,37.458,24.554,51.671,51.291,51.671c18.728,0,31.61-3.329,42.684-7.843L780.33,611.238z M755.136,517.594
		c0.284-19.965-7.985-44.753-35.319-44.753c-26.142,0-37.17,25.382-39.024,44.753H755.136z"/>
	<path  d="M963.05,617.893h-35.603v-97.613c0-23.551-7.986-43.492-32.273-43.492
		c-17.47,0-36.223,14.187-36.223,40.807v100.299h-35.649V498.223c0-18.42-0.598-32.631-1.191-46.844h30.993l1.854,24.814h0.928
		c7.96-14.213,25.786-28.426,51.286-28.426c26.409,0,55.878,16.922,55.878,68.306V617.893z"/>
	<rect x="1072.711" y="399.732"  width="33.609" height="218.161"/>
	<path  d="M1152.426,402.3c13.334-2.282,30.996-4.28,53.906-4.28c27.26,0,47.821,5.728,61.177,17.4
		c12.453,10.551,19.988,27.069,19.988,47.057c0,53.025-42.901,71.278-82.9,71.278c-6.964,0-13.336-0.284-18.823-1.425v85.562
		h-33.348V402.3z M1185.773,505.806c4.92,1.427,11.004,1.71,18.823,1.71c30.729,0,49.246-15.684,49.246-43.635
		c0-26.502-18.517-39.882-45.469-39.882c-10.432,0-18.254,1.141-22.601,1.972V505.806z"/>
</g>
</svg>
