<?xml version="1.0" encoding="utf-8"?>
<!-- Generator: Adobe Illustrator 16.0.0, SVG Export Plug-In . SVG Version: 6.00 Build 0)  -->
<!DOCTYPE svg PUBLIC "-//W3C//DTD SVG 1.1//EN" "http://www.w3.org/Graphics/SVG/1.1/DTD/svg11.dtd">
<svg version="1.1" id="Layer_1" xmlns="http://www.w3.org/2000/svg" xmlns:xlink="http://www.w3.org/1999/xlink" x="0px" y="0px"
	 width="1600px" height="1000px" viewBox="0 0 1600 1000" enable-background="new 0 0 1600 1000" xml:space="preserve">
<g>
	<path  d="M462.026,707.113c-114.207,0-207.117-92.907-207.117-207.105c0-114.206,92.911-207.121,207.117-207.121V299
		c-110.833,0-201.003,90.171-201.003,201.008c0,110.828,90.17,200.993,201.003,200.993c110.834,0,201.004-90.165,201.004-200.993
		h6.113C669.144,614.206,576.233,707.113,462.026,707.113z"/>
	<path  d="M462.026,295.944c112.701,0,204.061,91.356,204.061,204.064h-59.76
		c0-79.696-64.608-144.304-144.301-144.304V295.944z"/>
	<path  d="M669.144,503.064H603.27v-3.057c0-77.884-63.361-141.247-141.243-141.247h-3.056v-65.875h3.056
		c114.207,0,207.117,92.915,207.117,207.121V503.064z M609.354,496.951h53.654c-1.624-108.414-89.515-196.304-197.924-197.929
		v53.655C543.916,354.288,607.738,418.121,609.354,496.951z"/>
	<path  d="M462.022,647.368c-81.246,0-147.348-66.106-147.348-147.36c0-81.254,66.103-147.36,147.348-147.36
		c81.255,0,147.361,66.106,147.361,147.36C609.383,581.262,543.277,647.368,462.022,647.368z M462.022,358.761
		c-77.877,0-141.235,63.362-141.235,141.247c0,77.884,63.358,141.247,141.235,141.247c77.886,0,141.247-63.363,141.247-141.247
		C603.27,422.124,539.908,358.761,462.022,358.761z"/>
	<path  d="M516.279,500.008c0,29.954-24.292,54.243-54.252,54.243c-29.962,0-54.248-24.289-54.248-54.243
		c0-29.97,24.285-54.251,54.248-54.251C491.986,445.757,516.279,470.038,516.279,500.008"/>
	<g>
		<path  d="M516.279,500.008c0,29.954-24.292,54.243-54.252,54.243c-29.962,0-54.248-24.289-54.248-54.243
			c0-29.97,24.285-54.251,54.248-54.251C491.986,445.757,516.279,470.038,516.279,500.008z"/>
		<path  d="M462.026,557.308c-31.598,0-57.304-25.705-57.304-57.3c0-31.603,25.707-57.307,57.304-57.307
			c31.6,0,57.31,25.704,57.31,57.307C519.336,531.603,493.626,557.308,462.026,557.308z M462.026,448.812
			c-28.225,0-51.191,22.971-51.191,51.195c0,28.226,22.966,51.187,51.191,51.187c28.229,0,51.194-22.961,51.194-51.187
			C513.221,471.783,490.255,448.812,462.026,448.812z"/>
	</g>
	
		<line fill="none" stroke="#FFFFFF" stroke-width="5.6693" stroke-miterlimit="10" x1="825.74" y1="553.833" x2="825.74" y2="605.082"/>
	
		<line fill="none" stroke="#FFFFFF" stroke-width="5.6693" stroke-miterlimit="10" x1="785.401" y1="566.763" x2="785.401" y2="604.77"/>
	
		<line fill="none" stroke="#FFFFFF" stroke-width="5.6693" stroke-miterlimit="10" x1="886.394" y1="605.725" x2="760.09" y2="606.291"/>
	
		<line fill="none" stroke="#FFFFFF" stroke-width="5.6693" stroke-miterlimit="10" x1="870.14" y1="575.231" x2="827.016" y2="575.798"/>
	<path fill="none" stroke="#FFFFFF" stroke-width="5.6693" stroke-miterlimit="10" d="M775.769,617.369v47.757
		c0,4.86,3.936,8.813,8.804,8.813h78.812c4.862,0,8.798-3.953,8.798-8.813v-47.757"/>
	<path fill="none" stroke="#FFFFFF" stroke-width="5.6693" stroke-miterlimit="10" d="M824.838,610.51
		c-2.057,22.961-16.766,41.794-36.484,50.023"/>
	<path fill="none" stroke="#FFFFFF" stroke-width="5.6693" stroke-miterlimit="10" d="M858.974,662.01
		c-11.468-14.419-36.192-35.307-36.192-35.307"/>
	
		<line fill="none" stroke="#FFFFFF" stroke-width="5.6693" stroke-miterlimit="10" x1="921.046" y1="574.828" x2="964.448" y2="574.828"/>
	<path fill="none" stroke="#FFFFFF" stroke-width="5.6693" stroke-miterlimit="10" d="M942.77,553.879l-17.653,53.126
		c-1.237,3.712,1.521,7.531,5.427,7.531h33.341"/>
	
		<line fill="none" stroke="#FFFFFF" stroke-width="5.6693" stroke-miterlimit="10" x1="942.753" y1="588.383" x2="942.753" y2="675.178"/>
	<path fill="none" stroke="#FFFFFF" stroke-width="5.6693" stroke-miterlimit="10" d="M916.305,660.222
		c17.638-3.773,31.519-8.812,50.724-17.64"/>
	<path fill="none" stroke="#FFFFFF" stroke-width="5.6693" stroke-miterlimit="10" d="M964.837,591.527
		c11.675-10.139,27.287-25.765,34.667-34.158c2.281-2.581,5.98-2.551,8.231,0.06c9.021,10.451,29.536,31.533,34.62,34.099"/>
	<path fill="none" stroke="#FFFFFF" stroke-width="5.6693" stroke-miterlimit="10" d="M1029.741,606.022
		c-11.972,10.718-37.335,26.479-47.416,29.312"/>
	<path fill="none" stroke="#FFFFFF" stroke-width="5.6693" stroke-miterlimit="10" d="M981.852,592.797v71.54
		c0,4.874,3.937,8.812,8.796,8.812h39.11c4.859,0,8.812-3.938,8.812-8.812v-20.489"/>
	<path fill="none" stroke="#FFFFFF" stroke-width="5.6693" stroke-miterlimit="10" d="M1168.752,601.637h-70.987
		c-4.489,0-8.158-3.651-8.158-8.141v-29.24c0-4.473,3.669-8.142,8.158-8.142h69.333c5.396,0,9.811,4.399,9.811,9.797v27.585
		C1176.908,597.985,1173.226,601.637,1168.752,601.637z"/>
	
		<line fill="none" stroke="#FFFFFF" stroke-width="5.6693" stroke-miterlimit="10" x1="1089.623" y1="580.257" x2="1176.895" y2="580.257"/>
	<path fill="none" stroke="#FFFFFF" stroke-width="5.6693" stroke-miterlimit="10" d="M1130.837,623.049
		c-7.561,7.873-32.133,32.771-56.08,36.859"/>
	<path fill="none" stroke="#FFFFFF" stroke-width="5.6693" stroke-miterlimit="10" d="M1164.876,623.049
		c-6.308,8.828-34.831,45.326-65.398,53.529"/>
	<path fill="none" stroke="#FFFFFF" stroke-width="5.6693" stroke-miterlimit="10" d="M1098.538,620.201h76.745
		c4.861,0,8.812,3.952,8.812,8.811v35.325c0,4.874-3.95,8.812-8.812,8.812h-22.381"/>
	<path fill="none" stroke="#FFFFFF" stroke-width="5.6693" stroke-miterlimit="10" d="M1071.612,637.556
		c15.535-9.169,27.092-18.353,42.509-32.802"/>
	<path fill="none" stroke="#FFFFFF" stroke-width="5.6693" stroke-miterlimit="10" d="M1213.453,588.725
		c10.81-9.272,25.289-23.587,32.133-31.282c2.118-2.355,5.533-2.326,7.618,0.061c8.365,9.571,27.391,28.867,32.089,31.222"/>
	<path fill="none" stroke="#FFFFFF" stroke-width="5.6693" stroke-miterlimit="10" d="M1239.502,632.74h20.502
		c4.861,0,8.812-3.95,8.812-8.812v-24.213c0-4.877-3.951-8.812-8.812-8.812h-24.989c-4.876,0-8.812,3.936-8.812,8.812v65.351
		c0,2.983,2.118,5.457,4.876,5.726c6.44,0.583,24.408,0.375,36.62,0.254c4.832-0.043,8.708-3.967,8.708-8.797v-13.092"/>
	
		<line fill="none" stroke="#FFFFFF" stroke-width="5.6693" stroke-miterlimit="10" x1="1298.012" y1="566.687" x2="1298.012" y2="648.055"/>
	<path fill="none" stroke="#FFFFFF" stroke-width="5.6693" stroke-miterlimit="10" d="M1322.226,553.089v109.354
		c0,4.875-3.95,8.812-8.813,8.812h-18.607"/>
	<path  d="M1182.187,369.125c-37.217,0.327-67.112,32.22-66.8,69.444c0.328,37.218,30.761,65.673,67.978,65.344
		c37.217-0.327,67.128-30.759,66.799-67.976C1249.835,398.707,1219.403,368.811,1182.187,369.125 M1182.77,479.602
		c-23.992,0-43.449-17.988-43.449-41.993c0-24.006,19.457-44.912,43.449-44.912c24.005,0,43.463,19.459,43.463,43.45
		C1226.232,460.152,1206.774,479.602,1182.77,479.602"/>
	<path  d="M1182.724,506.971c-39.132,0-70.048-30.03-70.392-68.371c-0.345-39.655,30.982-72.19,69.824-72.532
		c39.117,0,70.728,31.326,71.063,69.84c0.344,38.841-30.992,70.721-69.833,71.063H1182.724z M1182.762,372.18
		c-35.421,0.306-64.616,30.701-64.318,66.36c0.314,34.941,28.547,62.317,64.28,62.317v3.056l0.61-3.056
		c35.473-0.312,64.084-29.425,63.771-64.89C1246.8,400.793,1217.935,372.18,1182.762,372.18z M1182.77,482.66
		c-26.081,0-46.509-19.786-46.509-45.051c0-26.004,21.302-47.968,46.509-47.968c25.651,0,46.52,20.861,46.52,46.506
		C1229.289,461.792,1208.421,482.66,1182.77,482.66z M1182.77,395.754c-21.89,0-40.395,19.167-40.395,41.854
		c0,21.834,17.745,38.937,40.395,38.937c22.274,0,40.405-18.122,40.405-40.399C1223.175,413.877,1205.044,395.754,1182.77,395.754z"
		/>
	<polygon  points="1252.326,499.688 1225.158,499.917 1224.055,375.014 1251.236,374.774 	"/>
	<path  d="M1222.124,503.005l-1.148-131.018l33.294-0.298l1.143,131.033L1222.124,503.005z M1227.143,378.04
		l1.043,118.791l21.061-0.178l-1.036-118.791L1227.143,378.04z"/>
	<path  d="M917.079,412.468c0,43.508-46.283,83.499-96.386,61.193c-12.965-5.771-23.468-16.089-29.463-28.956
		c-23.17-49.697,12.266-98.589,59.482-98.999c18.593-0.156,35.485,7.224,47.786,19.301l18.416-18.459l-0.121-0.149
		c-17.474-17.728-41.911-28.762-68.779-28.523h-0.255c-51.421,1.782-92.162,44.254-91.703,96.008
		c0.452,51.732,42.175,93.594,93.702,94.4c57.315,0,92.859-38.216,92.859-95.875L917.079,412.468z"/>
	<path  d="M849.759,511.34h-0.046c-52.865-0.826-96.25-44.53-96.712-97.425
		c-0.478-53.715,41.101-97.239,94.656-99.096l1.216-0.007c26.503,0,51.388,10.46,70.1,29.44l2.126,2.162l-2.013,2.296
		l-20.569,20.606l-2.162-2.124c-12.108-11.884-28.105-18.43-45.06-18.43c-22.532,0.194-42.666,11.414-54.408,30.029
		c-12.067,19.115-13.118,42.675-2.885,64.623c5.696,12.219,15.615,21.971,27.937,27.451c9.111,4.063,18.418,6.12,27.658,6.12
		c34.323,0,64.426-30.148,64.426-64.518v-3.049l31.656-0.074v3.064C945.678,472.505,908.028,511.34,849.759,511.34z
		 M848.872,320.934h-0.829c-50.394,1.736-89.377,42.553-88.929,92.922c0.432,49.599,41.108,90.58,90.673,91.371
		c53.544-0.007,88.487-35.121,89.746-89.753l-19.457,0.045c-1.663,36.94-33.267,67.581-70.48,67.581
		c-10.104,0-20.242-2.236-30.146-6.642c-13.671-6.083-24.675-16.901-30.993-30.462c-11.126-23.871-9.942-49.555,3.254-70.467
		c12.862-20.375,34.906-32.669,58.971-32.878c0,0,0.008,0,0.014,0c18.118,0,34.773,6.404,47.729,18.094l14.165-14.187
		C895.31,330.014,872.787,320.934,848.872,320.934z"/>
	<polygon  points="944.306,427.021 867.918,427.684 867.665,399.914 944.051,399.244 	"/>
	<g>
		<polygon  points="944.306,427.021 867.918,427.684 867.665,399.914 944.051,399.244 		"/>
		<path  d="M864.885,430.771l-0.3-33.883l82.501-0.731l0.298,33.899L864.885,430.771z M870.752,402.94l0.193,21.658
			l70.273-0.612l-0.194-21.657L870.752,402.94z"/>
	</g>
	
		<rect x="1279.746" y="373.692" transform="matrix(1 -0.0087 0.0087 1 -3.7728 11.3304)"  width="27.184" height="126.512"/>
	<path  d="M1277.271,503.407l-1.155-132.62l33.286-0.299l1.164,132.62L1277.271,503.407z M1282.279,376.84
		l1.053,120.394l21.068-0.178l-1.061-120.394L1282.279,376.84z"/>
	<path  d="M1279.373,408.867c13.285-21.179,36.053-35.836,62.43-37.932l0.209,30.112
		c-35.682,8.872-61.983,41.287-61.642,79.666L1279.373,408.867z"/>
	<path  d="M1277.315,480.758l-1.016-72.748l0.479-0.768c14.142-22.544,38.356-37.253,64.778-39.356l3.273-0.261
		l0.26,35.809l-2.333,0.581c-35.248,8.768-59.649,40.295-59.327,76.669L1277.315,480.758z M1282.443,409.739l0.545,39.641
		c9.388-24.291,29.739-43.383,55.952-50.681l-0.179-24.387C1315.845,377.131,1295.028,390.176,1282.443,409.739z"/>
	<path  d="M1073.981,435.386c-0.416-23.991-20.202-43.098-44.196-42.689c-23.988,0.426-43.104,20.219-42.688,44.209
		c0.419,23.999,20.203,43.106,44.195,42.689c18.801-0.328,34.594-12.541,40.363-29.345l22.648,7.77
		c-8.947,26.063-33.444,45-62.594,45.514c-37.218,0.647-67.903-28.994-68.559-66.209c-0.643-37.217,29-67.91,66.217-68.559
		c37.217-0.648,67.902,29.001,68.559,66.202L1073.981,435.386z"/>
	<path  d="M1030.519,506.606c-38.157,0-69.752-31.06-70.423-69.231c-0.671-38.841,30.374-70.988,69.215-71.666
		l1.252-0.015c38.154,0,69.75,31.051,70.421,69.222l0.053,3.057l-30.052,0.521l-0.061-3.057c-0.372-21.88-18.495-39.69-40.385-39.69
		c-22.971,0.402-40.771,18.839-40.385,41.107c0.373,21.881,18.488,39.691,40.37,39.691c17.663-0.305,32.736-11.264,38.238-27.285
		l0.984-2.894l28.449,9.752l-0.999,2.893c-9.588,27.935-35.882,47.058-65.427,47.58L1030.519,506.606z M1030.562,371.815
		l-1.147,0.007c-17.179,0.299-33.221,7.27-45.15,19.638c-11.943,12.361-18.355,28.627-18.056,45.812
		c0.619,34.852,29.462,63.212,64.31,63.212l1.146-0.007c25.961-0.455,49.169-16.64,58.688-40.579l-16.895-5.793
		c-7.066,16.879-23.624,28.227-42.105,28.546l-0.828,0.008c-25.191,0-46.051-20.502-46.482-45.7
		c-0.448-25.64,20.046-46.864,45.686-47.32l0.812-0.007c24.179,0,44.36,18.862,46.35,42.645l17.847-0.313
		C1092.544,398.527,1064.378,371.815,1030.562,371.815z"/>
	<polygon  points="1097.987,442.497 976.707,443.564 976.496,419.625 1097.778,418.567 	"/>
	<path  d="M973.672,446.651l-0.261-30.06l127.4-1.111l0.263,30.045L973.672,446.651z M979.575,422.661l0.156,17.817
		l115.177-1.007l-0.156-17.817L979.575,422.661z"/>
</g>
</svg>
