<?xml version="1.0" encoding="utf-8"?>
<!-- Generator: Adobe Illustrator 16.0.0, SVG Export Plug-In . SVG Version: 6.00 Build 0)  -->
<!DOCTYPE svg PUBLIC "-//W3C//DTD SVG 1.1//EN" "http://www.w3.org/Graphics/SVG/1.1/DTD/svg11.dtd">
<svg version="1.1" id="Layer_1" xmlns="http://www.w3.org/2000/svg" xmlns:xlink="http://www.w3.org/1999/xlink" x="0px" y="0px"
	 width="1600px" height="1000px" viewBox="0 0 1600 1000" enable-background="new 0 0 1600 1000" xml:space="preserve">
<g>
	<path  d="M1048.673,363.413c-166.904,187.825-356.76,202.074-411.319,203.124
		c-6.954,0.134-13.761-1.104-20.283-2.073c-34.989-5.191-72.166-31.347-72.166-69.624c0-38.264,31.132-69.396,69.399-69.396h52.559
		c10.419,0,18.851-8.429,18.851-18.851c0-72.801,59.212-132.022,132.006-132.022c64.146,0,118.827,45.762,129.992,108.804
		c1.815,10.254,11.824,14.636,22.091,12.863c10.246-1.819,16.838-9.19,15.035-19.446c-14.373-81.076-84.651-139.923-167.118-139.923
		c-87.2,0-159.222,66.132-168.64,150.873h-34.775c-59.055,0-107.101,48.044-107.101,107.098c0,59.401,53.759,99.425,104.337,106.917
		c14.988,2.221,30.896,3.242,47.525,3.242c164.306,0,328.319-43.454,461.716-121.164L1048.673,363.413z"/>
	<g>
		<defs>
			<path id="SVGID_1_" d="M637.357,566.537c-6.96,0.134-13.761-1.11-20.282-2.067c-33.016-4.902-67.938-28.477-71.794-63.274
				l-38.059-6.938c0,0.194-0.021,0.395-0.021,0.583c0,59.396,53.76,99.417,104.338,106.925c14.988,2.206,30.895,3.23,47.532,3.23
				c164.305,0,328.32-43.45,461.71-121.167l-72.106-120.423C881.771,551.246,691.909,565.493,637.357,566.537"/>
		</defs>
		<use xlink:href="#SVGID_1_"  overflow="visible" />
		<clipPath id="SVGID_2_">
			<use xlink:href="#SVGID_1_"  overflow="visible"/>
		</clipPath>
		<polygon clip-path="url(#SVGID_2_)"  points="620.991,124.929 1214.678,408.212 1006.987,843.471 413.305,560.195 
					"/>
	</g>
	<path  d="M679.056,677.89h-89.481c-2.034,0-3.669-1.646-3.669-3.68c0-2.034,1.635-3.666,3.669-3.666h89.481
		c2.026,0,3.672,1.632,3.672,3.666C682.728,676.243,681.082,677.89,679.056,677.89"/>
	<path  d="M687.845,712.393h-107.07c-2.033,0-3.666-1.645-3.666-3.666c0-2.033,1.632-3.677,3.666-3.677h107.07
		c2.037,0,3.68,1.644,3.68,3.677C691.524,710.748,689.882,712.393,687.845,712.393"/>
	<path  d="M666.998,762.161h-65.402c-5.452,0-9.146-1.51-10.961-4.495c-2.341-3.846-0.308-8.025-0.067-8.494
		l15.336-41.717c0.692-1.926,2.809-2.901,4.706-2.188c1.906,0.705,2.883,2.825,2.187,4.717l-15.523,42.137
		c-0.364,0.824-0.481,1.561-0.364,1.714c0.15,0.267,1.365,0.995,4.687,0.995h65.402c4.214,0,5.515-1.077,5.887-1.564
		c0.596-0.751,0.314-1.873,0.314-1.9l-9.632-20.255c-0.863-1.839-0.074-4.026,1.756-4.885c1.842-0.855,4.027-0.087,4.89,1.741
		l9.844,20.856c0.334,0.971,1.478,5.11-1.261,8.805C676.554,760.637,672.573,762.161,666.998,762.161"/>
	<path  d="M764.776,731.913c-2.013,0-3.656-1.646-3.656-3.665v-45.577c0-2.026,1.643-3.692,3.656-3.692
		c2.031,0,3.693,1.666,3.693,3.692v45.577C768.47,730.267,766.808,731.913,764.776,731.913"/>
	<path  d="M779.467,770.951c-2.028,0-3.677-1.644-3.677-3.666V660.917c0-2.025,1.649-3.685,3.677-3.685
		c2.02,0,3.666,1.659,3.666,3.685v106.368C783.132,769.308,781.487,770.951,779.467,770.951"/>
	<path  d="M789.896,698.627h-25.119c-2.013,0-3.656-1.646-3.656-3.68c0-2.035,1.643-3.679,3.656-3.679h25.119
		c2.03,0,3.672,1.644,3.672,3.679C793.568,696.98,791.926,698.627,789.896,698.627"/>
	<path  d="M852.822,720.729c-2.02,0-3.655-1.646-3.655-3.665v-26.826c0-4.141-1.581-5.725-5.575-5.725h-40.936
		c-2.05,0-3.687-1.646-3.687-3.707c0-2.008,1.637-3.646,3.687-3.646h40.936c8.086,0,12.91,4.884,12.91,13.078v26.826
		C856.502,719.082,854.853,720.729,852.822,720.729"/>
	<path  d="M865.988,721.985h-75.083c-2.021,0-3.662-1.624-3.662-3.665c0-2.022,1.642-3.674,3.662-3.674h75.083
		c2.022,0,3.665,1.651,3.665,3.674C869.653,720.361,868.011,721.985,865.988,721.985"/>
	<path  d="M795.006,769.467c-1.013,0-2.028-0.429-2.759-1.258c-1.342-1.513-1.184-3.839,0.34-5.185
		c20.078-17.612,26.312-44.51,26.312-52.305v-49.808c0-2.021,1.649-3.68,3.68-3.68c2.026,0,3.668,1.659,3.668,3.68v49.808
		c0,10.196-7.25,38.914-28.817,57.823C796.725,769.158,795.879,769.467,795.006,769.467"/>
	<path  d="M861.98,768.798c-0.766,0-1.532-0.24-2.204-0.722c-20.132-15.131-29.078-40.605-29.439-41.682
		c-0.653-1.921,0.354-4,2.271-4.649c1.919-0.668,4.004,0.342,4.666,2.26c0.09,0.243,8.608,24.458,26.929,38.186
		c1.608,1.203,1.937,3.53,0.712,5.137C864.202,768.29,863.084,768.798,861.98,768.798"/>
	<path  d="M957.753,767.714h-6.636c-1.98-0.072-3.602-1.685-3.602-3.651c0-2.033,1.568-3.673,3.602-3.673h6.636
		c5.594,0,6.132-1.077,6.132-6.134v-93.785c0-2.048,1.646-3.688,3.679-3.688c2.039,0,3.671,1.64,3.671,3.688v93.785
		C971.234,760.919,969.635,767.714,957.753,767.714"/>
	<path  d="M985.236,688.605h-39.531c-2.025,0-3.668-1.633-3.668-3.653c0-2.033,1.643-3.692,3.668-3.692h39.531
		c2.03,0,3.674,1.659,3.674,3.692C988.91,686.973,987.267,688.605,985.236,688.605"/>
	<path  d="M945.702,736.273c-1.438,0-2.8-0.868-3.381-2.274c-0.784-1.879,0.107-4.026,1.969-4.817l39.532-16.335
		c1.885-0.803,4.029,0.108,4.81,1.981c0.782,1.871-0.11,4.014-1.986,4.797l-39.519,16.354
		C946.649,736.176,946.184,736.273,945.702,736.273"/>
	<path  d="M997.639,770.482c-2.027,0-3.676-1.637-3.676-3.665v-92.901c0-11.708,8.506-11.708,11.706-11.708h33.521
		c11.701,0,11.701,9.312,11.701,13.781v12.831c0,2.3-0.951,9.813-13.082,9.813h-9.888c-2.025,0-3.647-1.653-3.647-3.68
		c0-2.042,1.622-3.692,3.647-3.692h9.888c2.608,0,5.738-0.408,5.738-2.441v-12.831c0-6.194-0.836-6.429-4.357-6.429h-33.521
		c-3.44,0-4.357,0-4.357,4.355v92.901C1001.312,768.846,999.651,770.482,997.639,770.482"/>
	<path  d="M1010.034,766.644c-1.157,0-2.294-0.536-3.007-1.545c-1.178-1.666-0.772-3.959,0.883-5.117
		c20.346-14.355,30.478-33.579,33.889-41.18c0.405-0.936,1.021-2.662,0.385-3.626c-0.611-0.93-2.502-1.538-4.838-1.538h-39.711
		c-2.026,0-3.668-1.646-3.668-3.673c0-2.041,1.642-3.673,3.668-3.673h39.711c5.056,0,8.962,1.733,11.021,4.904
		c1.322,2.04,2.398,5.532,0.124,10.587c-3.658,8.169-14.521,28.793-36.347,44.179
		C1011.496,766.449,1010.761,766.644,1010.034,766.644"/>
	<path  d="M1047.204,766.644c-0.752,0-1.52-0.228-2.165-0.701c-29.314-21.507-35.4-53.963-35.653-55.343
		c-0.348-1.993,0.986-3.906,2.974-4.274c1.946-0.308,3.899,0.984,4.274,2.976c0.043,0.311,5.883,31.009,32.758,50.714
		c1.635,1.211,1.98,3.5,0.778,5.145C1049.438,766.137,1048.334,766.644,1047.204,766.644"/>
	<path  d="M1048.673,363.413c-63.813,71.811-130.979,118.236-192.655,148.259l-0.047,0.038
		c0,0-19.929,18.61-11.914,41.503c8.018,22.89,23.111,24.776,38.268,25.152c85.239-20.53,166.328-52.513,238.459-94.529
		L1048.673,363.413z"/>
	<path  d="M1131.155,396.418c19.601,33.548,16.489,71.877-6.956,85.598c-23.451,13.693-58.349-2.388-77.982-35.949
		c-19.63-33.547-16.529-71.864,6.927-85.577C1076.624,346.783,1111.52,362.858,1131.155,396.418"/>
</g>
</svg>
