<?xml version="1.0" encoding="utf-8"?>
<!-- Generator: Adobe Illustrator 16.0.0, SVG Export Plug-In . SVG Version: 6.00 Build 0)  -->
<!DOCTYPE svg PUBLIC "-//W3C//DTD SVG 1.1//EN" "http://www.w3.org/Graphics/SVG/1.1/DTD/svg11.dtd">
<svg version="1.1" id="Layer_1" xmlns="http://www.w3.org/2000/svg" xmlns:xlink="http://www.w3.org/1999/xlink" x="0px" y="0px"
	 width="1600px" height="1000px" viewBox="0 0 1600 1000" enable-background="new 0 0 1600 1000" xml:space="preserve">
<g>
	<g>
		<g>
			<rect x="440.719" y="372.459"  width="127.621" height="19.568"/>
			<rect x="439.97" y="431.46"  width="105.867" height="16.637"/>
			<rect x="440.078" y="484.226"  width="128.262" height="19.443"/>
			<path  d="M478.425,698.813h-26.104V553.59h26.104v13.833c4.826-8.05,13.528-12.668,26.104-13.833h10.151
				c29.956,0,44.957,9.807,44.957,29.394v79.525c2.901,24.204-12.101,35.71-44.957,34.576h-10.151
				c-13.551,0-22.252-5.184-26.104-15.561V698.813z M478.425,574.339v102.002c4.826,6.912,13.051,10.372,24.654,10.372h10.151
				c14.501,1.134,21.256-6.916,20.303-24.204v-77.798c0-13.832-6.775-20.744-20.303-20.744h-10.151
				C491.476,563.967,483.251,567.423,478.425,574.339z"/>
			<path  d="M975.854,543.222h-59.462c-19.351,1.158-34.33,8.641-44.954,22.473v58.78
				c-0.974,20.745,6.276,31.121,21.749,31.121h204.484v6.913H880.139c-26.104,0-38.682-13.238-37.708-39.763v-41.491
				c-8.697,2.323-18.85,2.323-30.455,0l-4.349-1.727c0.948-1.139,2.9-2.866,5.803-5.189c18.35-9.215,38.652-30.522,60.909-63.967
				h34.803c-2.902,4.621-7.251,10.372-13.054,17.288c-5.8,6.913-9.674,12.102-11.599,15.562
				c9.654-6.917,20.778-10.938,33.357-12.104h174.021c39.634-3.457,58.01,15.562,55.113,57.051v65.699
				c-0.977,34.574-20.302,52.43-58.013,53.591c-29.001-1.161-30.95-17.879-14.502-19.017c26.106-2.323,40.106-13.829,42.061-34.574
				v-62.243c0-32.251-12.104-48.402-36.258-48.402h-73.962 M932.346,378.982h-29.007v-31.117h-91.363v-13.828h91.363v-41.495h29.007
				v41.495h107.318v-39.766h29.003v39.766h91.363v13.828h-91.363v29.39h-29.003v-29.39H932.346V378.982z M883.035,500H852.58
				V389.354h30.455v20.749c4.831-17.288,17.405-25.936,37.708-25.936h153.724c35.759-1.135,52.687,14.426,50.758,46.682v24.2
				c0.956,32.28-14.027,47.273-44.955,44.951H919.293c-22.252,2.322-34.329-5.188-36.258-22.477V500z M883.035,415.289v24.2h213.186
				v-12.101c0.951-20.744-8.227-30.522-27.554-29.39h-150.82C899.464,397.999,887.866,403.779,883.035,415.289z M1096.221,458.506
				v-8.64H883.035v22.473c3.854,11.533,15.456,16.155,34.812,13.832h149.37C1085.57,487.329,1095.248,478.118,1096.221,458.506z"/>
			<path fill-rule="evenodd" clip-rule="evenodd"  d="M517.106,299.531c-13.083-6.944-29.327-1.965-36.273,11.124
				c-6.947,13.085-1.967,29.326,11.124,36.274c13.084,6.943,29.328,1.969,36.271-11.125
				C535.173,322.719,530.194,306.479,517.106,299.531z"/>
			<path  d="M635.052,695.357h-27.558V558.778c-11.602,4.618-25.627,5.783-42.056,3.461h-5.801
				c0-1.138,1.928-2.866,5.801-5.188c10.625-4.594,24.651-15.558,42.056-32.846V503.46H624.9c8.696-8.054,23.2-24.771,43.503-50.139
				c0.953-2.298,1.925-4.026,2.902-5.183H572.69v-13.833h78.312v-69.156h-56.557v-13.828h56.557v-58.78h27.556v58.78h49.303v13.828
				h-49.303v69.156h2.898c21.256-27.661,46.405-62.235,75.413-103.729h33.355c-32.881,46.107-58.509,80.684-76.862,103.729h76.862
				v13.833h-85.567c-14.5,19.611-29,38.033-43.504,55.322c0.953,1.158,2.898,1.158,5.799,0c1.93-1.138,3.854-1.732,5.804-1.732
				h33.356c43.507,0,64.759,15.561,63.81,46.679v103.729c0.949,27.661-20.302,41.494-63.81,41.494h-33.356
				c-21.276,1.133-33.855-6.351-37.704-22.478V695.357z M704.413,515.468h-33.328c-11.59,0-18.841,1.166-21.733,3.461
				c-2.902,3.461-6.298,8.082-10.144,13.836l-4.349,3.461v46.075v11.007v70.92c5.795,12.676,17.859,18.431,36.226,17.297h33.328
				c24.137-1.16,36.703-9.811,37.676-25.944v-62.272v-11.007v-37.427C743.036,524.117,730.498,514.334,704.413,515.468z"/>
		</g>
	</g>
	<g>
		<polygon  points="986.177,535.112 1073.723,612.031 1066.718,623.779 979.173,546.859 		"/>
		<polygon  points="824.052,566.747 910.154,642.222 903.149,653.964 817.047,578.491 		"/>
		<polygon  points="621.999,566.25 757.648,610.866 754.37,624.144 618.719,579.528 		"/>
		<polygon  points="900.648,624.125 982.605,538.014 990.996,548.266 909.045,634.377 		"/>
		<polygon  points="745.103,605.653 832.206,571.863 835.347,584.735 748.241,618.526 		"/>
		<polygon  points="1069.354,595.579 1132.547,526.762 1141.057,536.916 1077.866,605.737 		"/>
		<path fill-rule="evenodd" clip-rule="evenodd"  d="M905.371,611.888c-11.574-6.15-25.945-1.746-32.086,9.834
			c-6.148,11.577-1.743,25.944,9.839,32.089c11.574,6.146,25.945,1.74,32.085-9.838
			C921.355,632.395,916.949,618.028,905.371,611.888z"/>
		<path fill-rule="evenodd" clip-rule="evenodd"  d="M1071.709,585.077c-11.572-6.144-25.94-1.739-32.085,9.838
			c-6.149,11.579-1.745,25.942,9.837,32.091c11.574,6.142,25.945,1.737,32.087-9.838
			C1087.692,605.59,1083.288,591.222,1071.709,585.077z"/>
		<path fill-rule="evenodd" clip-rule="evenodd"  d="M1002.418,507.817c-15.07-8.002-33.783-2.268-41.78,12.811
			c-8.005,15.07-2.267,33.782,12.812,41.78c15.071,8.005,33.782,2.266,41.78-12.809S1017.496,515.822,1002.418,507.817z"/>
		<path fill-rule="evenodd" clip-rule="evenodd"  d="M1140.069,517.052c-11.573-6.149-25.945-1.744-32.09,9.838
			c-6.146,11.574-1.74,25.94,9.842,32.087c11.574,6.145,25.945,1.74,32.087-9.84C1156.048,537.56,1151.644,523.196,1140.069,517.052
			z"/>
		<path fill-rule="evenodd" clip-rule="evenodd"  d="M842.49,561.339c-11.574-6.142-25.941-1.737-32.091,9.837
			c-6.145,11.58-1.74,25.946,9.843,32.091c11.573,6.145,25.941,1.74,32.081-9.838C858.473,581.851,854.067,567.488,842.49,561.339z"
			/>
		<path fill-rule="evenodd" clip-rule="evenodd"  d="M760.792,589.39c-11.574-6.141-25.945-1.736-32.087,9.839
			c-6.147,11.581-1.743,25.944,9.838,32.089c11.574,6.145,25.945,1.74,32.085-9.834C776.775,609.902,772.37,595.539,760.792,589.39z
			"/>
		<path fill-rule="evenodd" clip-rule="evenodd"  d="M646.072,550.496c-11.575-6.148-25.946-1.74-32.091,9.838
			c-6.145,11.574-1.74,25.941,9.842,32.086c11.574,6.148,25.946,1.744,32.086-9.838
			C662.049,571.008,657.645,556.641,646.072,550.496z"/>
	</g>
</g>
</svg>
