<?xml version="1.0" encoding="utf-8"?>
<!-- Generator: Adobe Illustrator 16.0.0, SVG Export Plug-In . SVG Version: 6.00 Build 0)  -->
<!DOCTYPE svg PUBLIC "-//W3C//DTD SVG 1.1//EN" "http://www.w3.org/Graphics/SVG/1.1/DTD/svg11.dtd">
<svg version="1.1" id="Layer_1" xmlns="http://www.w3.org/2000/svg" xmlns:xlink="http://www.w3.org/1999/xlink" x="0px" y="0px"
	 width="1600px" height="1000px" viewBox="0 0 1600 1000" enable-background="new 0 0 1600 1000" xml:space="preserve">
<g>
	<polygon  points="803.896,461.724 803.932,461.764 803.932,461.685 	"/>
	<path  d="M776.226,484.815h0.003H776.226z"/>
	<rect x="702.301" y="404.646"  width="40.92" height="134.866"/>
	<polygon  points="684.462,447.73 713.334,370.956 744.904,370.956 716.031,447.73 	"/>
	<path  d="M861.522,404.945h-8.872v-33.989h-40.922v33.989h-62.343v13.579h62.343v103.018
		c-0.077,3.019-2.548,5.438-5.647,5.587h-16.72v13.578h22.367h17.975h2.848c11.103,0,20.1-8.708,20.1-19.45V418.524h8.872V404.945z"
		/>
	<path  d="M805.725,465.402l-0.029-0.029c-11.993-5.696-21.74-15.132-27.625-26.74l-0.006-0.003h0.003l0.006-0.007
		h-0.024l0.007,0.007l-0.063,0.062c-5.875,11.565-15.59,20.967-27.539,26.653l-0.067,0.064l0.018-0.007l0.037,0.036
		c11.99,5.692,21.742,15.126,27.625,26.732l0.052-0.05c5.88-11.565,15.596-20.968,27.54-26.653L805.725,465.402z"/>
	<path  d="M1015.766,529.918l-0.085-0.364C1015.703,529.676,1015.736,529.795,1015.766,529.918"/>
	<path  d="M1013.75,517.865l-0.468-2.002C1013.411,516.544,1013.57,517.207,1013.75,517.865"/>
	<polygon  points="1066.609,399.93 1039.906,402.599 1033.078,375.935 1060.067,373.237 	"/>
	<rect x="921.937" y="386.725"  width="41.332" height="13.58"/>
	<rect x="896.021" y="421.374"  width="67.209" height="13.578"/>
	<rect x="896.021" y="456.756"  width="67.209" height="13.583"/>
	<polygon  points="896.394,417.198 916.893,370.866 947.491,370.866 926.992,417.198 	"/>
	<path  d="M947.3,429.519v59.763l-0.233,28.873c0,4.287,3.616,7.76,7.872,7.97h10.521v14.579h-28.521h-1.212
		c-15.01,0-27.179-12.108-27.179-27.041v-84.144H947.3z"/>
	<polygon  points="1070.957,460.366 969.681,471.383 969.681,456.756 1070.957,445.739 	"/>
	<polygon  points="1070.957,423.934 969.681,434.952 969.681,420.325 1070.957,409.308 	"/>
	<polygon  points="1070.957,497.532 973.112,540.7 973.112,526.072 1070.957,482.905 	"/>
	<path  d="M1065.363,526.081h-2.503c-3.261-0.086-5.961-2.371-6.571-5.376l-7.157-30.58l-27.782-119.26h-40.907
		l34.616,148.592l0.468,2.004c3.021,11.074,13.409,19.245,25.804,19.245h19.584h10.043v-14.626H1065.363z"/>
	<rect x="1178.589" y="523.119"  width="103.271" height="17.593"/>
	<polygon  points="1237.984,530.814 1253.706,415.313 1285.331,417.645 1269.868,533.163 	"/>
	<rect x="1105.554" y="405.806"  width="73.401" height="13.51"/>
	<rect x="1183.719" y="393.052"  width="101.756" height="17.42"/>
	<polygon  points="1178.41,468.422 1107.945,494.786 1106.095,481.406 1176.558,455.042 	"/>
	<path  d="M1126.045,370.895V503.7v17.688c0,3.092-3.658,5.589-7.974,5.737h-10.434v13.586h28.899h1.232
		c15.21,0,27.54-8.717,27.54-19.467V370.895H1126.045z"/>
	<polygon  points="1184.246,423.596 1213.103,412.881 1230.901,508.835 1202.05,519.545 	"/>
	<rect x="1215.677" y="370.484"  width="40.58" height="32.54"/>
	<polygon  points="742.695,574.459 742.695,581.246 710.506,581.246 710.506,597.447 738.481,597.447 
		738.481,604.236 710.506,604.236 710.506,629.04 702.124,629.04 702.124,574.459 	"/>
	<path  d="M780.446,573.227v36.444c0,2.062,0.417,3.896,1.247,5.498c0.829,1.607,1.918,2.963,3.265,4.072
		c1.346,1.103,2.859,1.952,4.534,2.544c1.68,0.589,3.362,0.886,5.052,0.886c1.833,0,3.637-0.271,5.415-0.808
		c1.779-0.544,3.364-1.348,4.77-2.414c1.405-1.066,2.541-2.399,3.417-4.01c0.874-1.604,1.313-3.478,1.313-5.609v-36.604h8.422
		v36.215c0,3.214-0.602,6.041-1.804,8.484c-1.206,2.442-2.851,4.493-4.945,6.136c-2.09,1.643-4.556,2.89-7.392,3.721
		c-2.837,0.832-5.903,1.258-9.196,1.258c-2.922,0-5.737-0.418-8.445-1.239c-2.709-0.821-5.104-2.058-7.177-3.704
		c-2.081-1.643-3.74-3.703-4.989-6.171c-1.246-2.469-1.87-5.343-1.87-8.64v-36.06H780.446z"/>
	<path  d="M902.734,600.25c0,1.953-0.163,3.873-0.492,5.747c-0.33,1.877-0.805,3.683-1.417,5.4
		c-0.615,1.722-1.349,3.346-2.191,4.881c-0.851,1.528-1.786,2.927-2.815,4.187l8.595,7.631l-5.544,4.634l-8.556-7.718
		c-4.152,2.569-9.208,3.855-15.172,3.855c-4.382,0-8.276-0.698-11.689-2.104c-3.407-1.398-6.279-3.366-8.615-5.895
		c-2.334-2.537-4.111-5.553-5.33-9.051c-1.217-3.494-1.825-7.35-1.825-11.568c0-4.193,0.608-8.037,1.825-11.537
		c1.219-3.489,2.996-6.508,5.33-9.037c2.336-2.537,5.208-4.504,8.615-5.906c3.413-1.401,7.308-2.101,11.689-2.101
		c4.415,0,8.332,0.699,11.754,2.101c3.426,1.402,6.314,3.369,8.665,5.906c2.348,2.529,4.131,5.548,5.35,9.037
		C902.125,592.213,902.734,596.057,902.734,600.25 M894.313,600.25c0-3.447-0.496-6.531-1.482-9.258
		c-0.99-2.72-2.344-5.026-4.062-6.904c-1.722-1.877-3.749-3.311-6.081-4.301c-2.337-0.991-4.854-1.481-7.547-1.481
		c-2.69,0-5.196,0.49-7.52,1.481c-2.322,0.99-4.333,2.424-6.036,4.301c-1.708,1.878-3.049,4.185-4.018,6.904
		c-0.979,2.727-1.465,5.811-1.465,9.258c0,3.449,0.486,6.524,1.465,9.241c0.969,2.71,2.31,5.009,4.018,6.898
		c1.703,1.893,3.714,3.338,6.036,4.342c2.323,1.003,4.829,1.502,7.52,1.502c1.662,0,3.274-0.197,4.838-0.595
		c1.562-0.402,3.028-0.972,4.407-1.717l-5.844-5.365l5.281-4.893l6.019,5.473c1.376-1.852,2.464-4.017,3.268-6.499
		C893.912,606.155,894.313,603.359,894.313,600.25"/>
	<rect x="936.578" y="574.459"  width="8.337" height="54.578"/>
	<path  d="M1005.059,574.459l22.132,54.578h-8.938l-6.536-16.238h-23.725l-6.574,16.238h-8.983l22.352-54.578
		H1005.059z M999.813,583.407l-9.113,22.798h18.181L999.813,583.407z"/>
	<polygon  points="1063.008,574.459 1091.374,617.662 1091.374,574.459 1099.754,574.459 1099.754,629.04 
		1089.652,629.04 1061.289,585.8 1061.289,629.04 1052.904,629.04 1052.904,574.459 	"/>
	<rect x="1128.993" y="620.127"  width="10.016" height="8.91"/>
	<polygon  points="1176.507,574.459 1176.507,622.287 1206.158,622.287 1206.158,629.04 1168.085,629.04 
		1168.085,574.459 	"/>
	<path  d="M1263.506,574.459l22.135,54.578h-8.934l-6.535-16.238h-23.729l-6.571,16.238h-8.984l22.352-54.578
		H1263.506z M1258.268,583.407l-9.114,22.798h18.178L1258.268,583.407z"/>
	<path  d="M530.797,342.07l-0.138-0.134l-58.144,50.377l-0.006-0.003l-0.033,0.032l-0.007,0.012l0.021,0.013
		c22.899,46.67,60.833,84.608,107.501,107.506l0.145,0.145l50.417-58.191l-0.33-0.329
		C587.78,419.301,552.995,384.514,530.797,342.07"/>
	<path  d="M414.264,341.936c-22.221,42.556-57.096,77.427-99.655,99.638l-0.25,0.253l50.417,58.187l0.258-0.259
		c46.491-22.873,84.292-60.673,107.166-107.164l0.242-0.245L414.264,341.936z"/>
	<path  d="M472.508,607.646l-0.018-0.021c-22.9-46.671-60.836-84.604-107.505-107.503l-0.145-0.144l-50.417,58.188
		l0.092,0.095c42.64,22.228,77.575,57.16,99.806,99.804l58.145-50.383l0,0l0.035-0.027L472.508,607.646z"/>
	<path  d="M530.708,657.984c22.221-42.577,57.11-77.459,99.687-99.688l0.134-0.131l-50.417-58.185l-0.259,0.256
		c-46.49,22.874-84.29,60.675-107.164,107.164l-0.244,0.245l58.187,50.418L530.708,657.984z"/>
</g>
</svg>
