<?xml version="1.0" encoding="utf-8"?>
<!-- Generator: Adobe Illustrator 16.0.0, SVG Export Plug-In . SVG Version: 6.00 Build 0)  -->
<!DOCTYPE svg PUBLIC "-//W3C//DTD SVG 1.1//EN" "http://www.w3.org/Graphics/SVG/1.1/DTD/svg11.dtd">
<svg version="1.1" id="Layer_1" xmlns="http://www.w3.org/2000/svg" xmlns:xlink="http://www.w3.org/1999/xlink" x="0px" y="0px"
	 width="1600px" height="1000px" viewBox="0 0 1600 1000" enable-background="new 0 0 1600 1000" xml:space="preserve">
<g>
	<path  d="M589.308,547.884c-18.738,0-32.276-5.314-40.601-15.92c-8.328-10.624-12.484-24.776-12.484-42.493v-93.663
		h41.841v97.736c0,6.462,1.717,11.701,5.151,15.763c3.435,4.055,8.484,6.088,15.147,6.088h39.342V395.808h41.849v152.076H589.308z"
		/>
	<path  d="M863.956,512.278c-5.736,11.873-14.735,21.124-27.02,27.792c-6.459,3.546-12.801,5.724-19.046,6.56
		c-6.244,0.842-12.907,1.254-19.987,1.254h-36.842v57.148H719.21V395.808h73.07c4.996,0,9.78,0.087,14.362,0.308
		c4.581,0.205,9.064,0.722,13.434,1.546c4.372,0.853,8.638,2.149,12.8,3.915c4.167,1.765,8.33,4.207,12.489,7.34
		c9.993,7.9,17.018,17.64,21.087,29.205c4.056,11.537,6.079,23.568,6.079,36.062C872.531,487.707,869.675,500.419,863.956,512.278
		 M819.915,439.83c-6.544-7.699-16.606-11.566-30.131-11.566h-28.723v87.131h25.599c14.782,0,25.656-3.734,32.635-11.239
		c6.976-7.492,10.453-18.523,10.453-33.108C829.748,457.941,826.476,447.54,819.915,439.83"/>
	<path  d="M1037.104,567.246c-1.868,7.061-5.723,13.52-11.549,19.364c-3.547,3.526-7.291,6.292-11.241,8.269
		c-3.962,1.97-8.124,3.474-12.493,4.533c-4.377,1.024-8.9,1.706-13.584,2.028c-4.682,0.29-9.32,0.467-13.89,0.467h-74.644v-32.482
		h74.644c3.735,0,7.693-0.298,11.856-0.915c4.783-1.03,7.756-2.678,8.9-4.944c1.142-2.248,1.922-5.533,2.34-9.83
		c0-1.039,0.054-1.969,0.161-2.776c0.102-0.813,0.259-1.753,0.463-2.783c-7.907,0-15.876,0.059-23.877,0.164
		c-8.027,0.105-15.997-0.049-23.895-0.452c-11.454-0.625-21.351-3.652-29.671-9.082c-8.326-5.428-14.255-13.757-17.802-25.029
		c-1.663-4.797-2.606-9.752-2.812-14.861c-0.205-5.12-0.308-10.179-0.308-15.185v-87.925h41.844v80.869
		c0,4.176,0.103,8.5,0.316,12.973c0.204,4.473,0.833,8.798,1.876,12.947c1.458,5.005,3.892,8.387,7.337,10.153
		c3.432,1.767,7.541,2.648,12.337,2.648h34.654V395.805h41.844v148.956C1039.911,552.666,1038.98,560.152,1037.104,567.246"/>
	<path  d="M1130.473,547.884c-18.737,0-32.274-5.314-40.604-15.92c-8.322-10.624-12.489-24.776-12.489-42.493v-93.663
		h41.853v97.736c0,6.462,1.717,11.701,5.148,15.763c3.428,4.055,8.486,6.088,15.148,6.088h39.345V395.808h41.839v152.076H1130.473z"
		/>
	<path  d="M1359.99,547.884v-98.375c0-7.694-1.667-13.169-5-16.39c-3.326-3.237-8.843-4.855-16.539-4.855h-36.23
		v119.62h-41.848V395.808h83.379c20.191,0,34.926,4.737,44.195,14.215c9.256,9.471,13.887,24.302,13.887,44.492v93.369H1359.99z"/>
	<path  d="M437.342,463.915c-5.873,0-11.537,0.807-16.95,2.235c-0.677-4.461-1.736-8.898-3.175-13.314
		c-14.419-44.079-61.834-68.109-105.914-53.674c-44.075,14.421-70.439,70.167-44.588,125.09
		c-6.739-44.993,10.204-85.778,48.856-93.724c46.505-9.577,71.061,22.691,77.057,50.809c-6.421,5.885-11.717,12.988-15.443,20.994
		c8.211-13.568,24.229-22.779,42.643-22.779c26.785,0,48.499,19.483,48.499,43.525c0,24.023-21.714,43.435-48.499,43.435h-3.8
		h-34.311H271.721c-29.003,0-52.516-23.514-52.516-52.527c0-21.631,13.103-40.201,31.787-48.228
		c-30.161,6.415-52.826,33.103-52.826,65.175c0,36.902,29.909,66.828,66.812,66.828h136.654h14.396h21.314
		c36.693,0,66.438-30.723,66.438-67.416C503.781,493.648,474.035,463.915,437.342,463.915"/>
</g>
</svg>
