<?xml version="1.0" encoding="utf-8"?>
<!-- Generator: Adobe Illustrator 16.0.0, SVG Export Plug-In . SVG Version: 6.00 Build 0)  -->
<!DOCTYPE svg PUBLIC "-//W3C//DTD SVG 1.1//EN" "http://www.w3.org/Graphics/SVG/1.1/DTD/svg11.dtd">
<svg version="1.1" id="Layer_1" xmlns="http://www.w3.org/2000/svg" xmlns:xlink="http://www.w3.org/1999/xlink" x="0px" y="0px"
	 width="1600px" height="1000px" viewBox="0 0 1600 1000" enable-background="new 0 0 1600 1000" xml:space="preserve">
<g>
	<g>
		<polygon  points="257.222,632.576 416.579,724.581 416.579,275.421 257.222,367.424 		"/>
		<path  d="M474.304,242.155v515.691l216.975-125.27V367.424L474.304,242.155z M662.47,632.576l-159.357,92.005
			v-449.16l159.357,92.003V632.576z"/>
	</g>
	<rect x="1306.22" y="431.665"  width="36.559" height="149.88"/>
	<polygon  points="1200.746,531.386 1200.746,531.393 1144.341,431.665 1107.78,431.665 1107.78,581.545 
		1144.341,581.545 1144.341,491.387 1192.898,581.545 1200.746,581.545 1200.746,581.538 1208.595,581.538 1257.151,491.379 
		1257.151,581.545 1293.872,581.545 1293.872,431.665 1257.151,431.657 	"/>
	<rect x="1001.239" y="488.324"  width="96.668" height="36.562"/>
	<rect x="1001.239" y="431.665"  width="96.668" height="36.561"/>
	<rect x="1001.239" y="544.983"  width="96.668" height="36.562"/>
	<path  d="M939.732,520.163l2.022-0.064c12.155-0.479,22.97-12.251,22.97-12.251s15.889-15.504,7.562-45.366
		c-8.327-29.862-41.777-30.817-41.777-30.817H902.3h-0.312h-36.25v149.88H902.3v-60.194l38.878,60.194h47.658l-46.506-61.382
		H939.732z M914.894,499.363H902.3v-39.751h12.594v0.063c10.959,0,19.844,8.884,19.844,19.844
		C934.737,490.479,925.853,499.363,914.894,499.363z"/>
</g>
</svg>
