<?xml version="1.0" encoding="utf-8"?>
<!-- Generator: Adobe Illustrator 16.0.0, SVG Export Plug-In . SVG Version: 6.00 Build 0)  -->
<!DOCTYPE svg PUBLIC "-//W3C//DTD SVG 1.1//EN" "http://www.w3.org/Graphics/SVG/1.1/DTD/svg11.dtd">
<svg version="1.1" id="Layer_1" xmlns="http://www.w3.org/2000/svg" xmlns:xlink="http://www.w3.org/1999/xlink" x="0px" y="0px"
	 width="1600px" height="1000px" viewBox="0 0 1600 1000" enable-background="new 0 0 1600 1000" xml:space="preserve">
<g>
	<polygon  points="291.482,433.547 251.05,433.547 251.05,566.453 343.015,566.453 343.015,534.405 291.482,534.405 	
		"/>
	<polygon  points="390.11,514.241 441.833,514.241 441.833,483.255 390.11,483.255 390.11,464.533 444.868,464.533 
		444.868,433.547 349.658,433.547 349.658,566.453 446.842,566.453 446.842,535.465 390.11,535.465 	"/>
	<path  d="M570.811,449.891c-5.644-5.964-12.648-10.571-20.969-13.775c-8.191-3.142-17.722-4.734-28.397-4.734
		c-10.612,0-20.164,1.592-28.376,4.734c-8.3,3.204-15.345,7.811-20.928,13.775c-5.581,5.941-9.826,13.244-12.692,21.774
		c-2.8,8.363-4.201,17.914-4.201,28.335c0,10.294,1.401,19.78,4.201,28.164c2.866,8.489,7.174,15.854,12.778,21.86
		c5.667,5.986,12.692,10.654,20.927,13.839c8.127,3.142,17.679,4.755,28.291,4.755c10.548,0,20.037-1.613,28.208-4.755
		c8.298-3.185,15.386-7.831,21.032-13.839c5.646-6.027,9.955-13.371,12.757-21.86c2.823-8.384,4.266-17.87,4.266-28.164
		c0-10.421-1.442-19.972-4.266-28.335C580.639,463.135,576.374,455.832,570.811,449.891 M544.621,514.241
		c-0.977,4.457-2.482,8.427-4.541,11.801c-1.976,3.204-4.563,5.814-7.621,7.726c-2.971,1.847-6.664,2.779-11.015,2.779
		c-4.309,0-7.979-0.933-10.994-2.779c-3.077-1.911-5.646-4.521-7.598-7.726c-2.059-3.374-3.566-7.344-4.563-11.801
		c-1.018-4.584-1.549-9.359-1.549-14.241c0-5.115,0.531-10.038,1.549-14.624c0.956-4.435,2.504-8.362,4.563-11.673
		c1.953-3.141,4.478-5.687,7.577-7.557c2.971-1.782,6.685-2.716,11.015-2.716c4.351,0,8.065,0.934,11.079,2.716
		c3.056,1.87,5.581,4.416,7.557,7.557c2.059,3.311,3.564,7.259,4.541,11.673c1.041,4.586,1.507,9.509,1.507,14.624
		C546.128,504.86,545.662,509.657,544.621,514.241"/>
	<polygon  points="680.987,509.657 656.854,433.547 598.255,433.547 598.255,566.453 637.987,566.453 
		637.392,488.985 661.864,566.453 697.647,566.453 723.583,487.88 723.159,566.453 762.891,566.453 762.891,433.547 
		706.243,433.547 	"/>
	<path  d="M816.48,433.547l-50.194,132.906h41.515l9.848-26.827h41.854l9.295,26.827h44.254l-50.875-132.906H816.48z
		 M827.814,508.638L839,474.426l10.355,34.212H827.814z"/>
	<polygon  points="1165.766,514.241 1217.488,514.241 1217.488,483.255 1165.766,483.255 1165.766,464.533 
		1220.502,464.533 1220.502,433.547 1125.289,433.547 1125.289,566.453 1222.477,566.453 1222.477,535.465 1165.766,535.465 	"/>
	<path  d="M1334.941,527.272c-1.463-3.757-2.738-7.174-3.713-10.145c-1.084-3.227-2.271-6.113-3.545-8.618
		c-1.357-2.673-3.014-4.965-4.904-6.79l-0.273-0.256c5.178-2.313,9.359-5.603,12.395-9.806c4.35-5.984,6.578-13.668,6.578-22.815
		c0-5.965-1.166-11.271-3.523-15.748c-2.355-4.437-5.604-8.171-9.762-11.142c-4.055-2.888-8.787-5.053-14.072-6.41
		c-5.158-1.315-10.719-1.996-16.49-1.996h-62.994v132.906h40.475v-49.708h3.373c2.717,0,4.988,0.34,6.814,0.977
		c1.613,0.552,2.992,1.613,4.35,3.142c1.508,1.782,2.93,4.244,4.268,7.386c1.443,3.354,2.971,7.726,4.627,12.99l7.957,25.214h42.449
		L1334.941,527.272z M1299.539,480.792c-1.188,1.442-2.609,2.525-4.412,3.269c-1.932,0.808-4.225,1.273-6.729,1.444
		c-2.822,0.169-5.539,0.254-8.109,0.254h-5.178v-21.226h5.178c3.057,0,6.029,0.15,8.768,0.511c2.59,0.297,4.816,0.869,6.727,1.698
		c1.656,0.721,2.93,1.72,3.906,3.056c0.912,1.252,1.379,2.888,1.379,4.988C1301.068,477.523,1300.516,479.54,1299.539,480.792"/>
	<path  d="M957.494,568.618l0.699-0.044c1.783-0.042,3.693-0.169,5.582-0.298
		c16.109-1.442,50.576-8.572,52.316-43.594c2.316-45.779-44.908-55.946-63.227-60.445c0,0,25.576-5.519,52.553-1.103l2.164-25.98
		l-2.609-0.891c-4.373-1.507-9.553-2.717-15.324-3.566c-11.801-1.782-24.875-1.867-37.887,0.554
		c-6.789,1.251-12.986,3.437-18.527,6.493c-5.645,3.142-10.379,7.513-14.029,12.946c-3.736,5.562-5.623,12.565-5.623,20.843
		c0,8.341,1.633,15.196,4.965,20.312c3.205,4.987,7.258,9.02,12.033,11.992c4.648,2.886,9.699,5.136,15.111,6.705
		c5.053,1.486,9.785,2.973,14.074,4.457c4.01,1.381,7.385,3.015,10.037,4.861c1.912,1.359,2.865,3.289,2.865,6.05
		c0,1.761-0.381,3.141-1.061,4.138c-0.785,1.104-1.826,1.953-3.162,2.611c-1.572,0.722-3.418,1.23-5.539,1.486
		c-2.336,0.274-4.754,0.401-7.26,0.401c-6.6,0-12.732-0.741-18.211-2.206c-5.539-1.464-10.355-3.375-14.432-5.625l-4.711-2.632
		l-3.715,36.081l2.717,0.87c5.838,1.847,12.248,3.269,19.08,4.182c6.812,0.933,13.266,1.401,19.271,1.401
		c0.594,0,1.211,0,1.826-0.044L957.494,568.618z"/>
	<path  d="M1017.387,433.547v32.048v0.213c13.139,3.758,25.684,10.4,35.02,21.798
		c24.154,29.606,14.984,64.606,9.658,78.848h26.572V465.595h30.775v-32.048H1017.387z"/>
</g>
</svg>
