<?xml version="1.0" encoding="utf-8"?>
<!-- Generator: Adobe Illustrator 16.0.0, SVG Export Plug-In . SVG Version: 6.00 Build 0)  -->
<!DOCTYPE svg PUBLIC "-//W3C//DTD SVG 1.1//EN" "http://www.w3.org/Graphics/SVG/1.1/DTD/svg11.dtd">
<svg version="1.1" id="Layer_1" xmlns="http://www.w3.org/2000/svg" xmlns:xlink="http://www.w3.org/1999/xlink" x="0px" y="0px"
	 width="1600px" height="1000px" viewBox="0 0 1600 1000" enable-background="new 0 0 1600 1000" xml:space="preserve">
<g>
	<path  d="M571.73,844.544c-8.679-0.096-12.354-3.142-12.323-10.452v-71.224h87.489v47.246
		c-0.022,8.973-2.849,12.299-12.321,12.297h-31.07v-12.297h9.022c5.989,0.017,6.484-1.189,6.484-6.146v-29.413h-33.016v53.394
		c-0.007,4.437,1.465,6.147,5.834,6.144h55.065v10.452H571.73z M617.716,745.913h-28.479l-1.296,8.834h-28.534l4.539-27.027h77.114
		l5.836,27.027h-27.884L617.716,745.913z M657.33,727.72h12.265V840.24H657.33V727.72z M680.677,844.544V727.72h27.884v106.372
		c0,7.556-3.123,10.452-12.32,10.452H680.677z"/>
	<polygon  points="874.576,748.626 840.207,748.626 840.207,743.707 759.143,743.707 759.143,748.626 
		724.774,748.626 724.774,732.025 782.489,732.025 781.841,727.72 815.562,727.72 816.859,732.025 874.576,732.025 	"/>
	<path  d="M724.774,792.027l23.994-4.306l-23.994-3.688v-14.144l67.441,10.452l47.991-7.99
		c1.714-0.377,2.235-2.181,1.913-3.058c-0.141-0.376-0.618-1.032-1.913-1.032H737.741c-8.652,0-12.967-3.073-12.967-9.223v-4.915
		h39.557c-0.012,3.795,1.033,4.315,5.187,4.306h105.058v15.151c0,5.661-3.069,9.46-11.671,11.066l-22.049,3.69l33.72,5.532v14.141
		l-77.173-12.297l-72.629,12.297V792.027z"/>
	<path  d="M874.576,809.244v24.848c0.027,7.365-3.734,10.483-12.97,10.452H724.774v-35.3H874.576z M842.153,827.948
		v-7.021h-84.955v13.164h78.467C841.493,834.096,842.156,832.955,842.153,827.948"/>
	<path  d="M912.188,844.544h-20.75l3.892-28.025h-3.892V727.72h55.771v77.112c-0.049,8.509-3.04,11.69-12.323,11.687
		h-9.728v-77.115h-12.319v74.042h4.538L912.188,844.544z M942.668,825.482l4.541,19.062h-21.4l-4.539-19.062H942.668z
		 M1040.593,763.384v70.708c0.03,7.27-3.579,10.483-12.324,10.452h-71.927v-81.16h5.839V727.72h31.126v6.146h47.286v11.687h-47.286
		v17.831H1040.593z M1011.409,827.948v-52.883h-27.18v59.026h20.697C1010.562,834.047,1011.416,832.861,1011.409,827.948"/>
	<polygon  points="715.567,613.223 735.941,687.93 945.948,687.93 957.796,570.209 813.433,659.677 	"/>
	<path  d="M980.292,486.815c-10.203-16.325-16.977-1.717-30.951-17.296c-13.974-15.579,23.669-39.145-7.305-76.728
		c-20.532-24.911-84.125-15.982-149.232,13.508c-65.105,29.49-130.442,115.13-90.232,176.996
		c25.325,38.966,111.058,48.588,176.995,17.353C945.507,569.413,995.873,511.747,980.292,486.815 M917.68,526.741
		c-11.623,0-21.047-9.424-21.047-21.047c0-11.625,9.424-21.047,21.047-21.047c11.625,0,21.047,9.423,21.047,21.047
		C938.727,517.317,929.305,526.741,917.68,526.741"/>
	<path  d="M792.804,406.3c-53.111,24.057-106.351,85.477-102.347,140.878l241.24-162.479
		C904.634,370.636,849.31,380.705,792.804,406.3"/>
	<polygon  points="615.25,282.877 697.948,429.214 615.867,466.816 639.372,522.826 984.75,360.596 960.52,311.979 
		909.006,339.141 836.681,155.456 	"/>
</g>
</svg>
