<?xml version="1.0" encoding="utf-8"?>
<!-- Generator: Adobe Illustrator 16.0.0, SVG Export Plug-In . SVG Version: 6.00 Build 0)  -->
<!DOCTYPE svg PUBLIC "-//W3C//DTD SVG 1.1//EN" "http://www.w3.org/Graphics/SVG/1.1/DTD/svg11.dtd">
<svg version="1.1" id="Layer_1" xmlns="http://www.w3.org/2000/svg" xmlns:xlink="http://www.w3.org/1999/xlink" x="0px" y="0px"
	 width="1600px" height="1000px" viewBox="0 0 1600 1000" enable-background="new 0 0 1600 1000" xml:space="preserve">
<g>
	<path  d="M929.19,541.474v26.8h-24.461c-7.24,0-13.13-5.878-13.13-13.118v-44.906h42.337
		c4.947,0,8.979-4.021,8.979-8.984V405.47c0-15.43-12.516-27.957-27.952-27.957v-21.199h-29.104v21.199H777.123l-6.374-21.199
		h-29.123l6.381,21.199h-9.355c-11.919,0-21.566,9.648-21.566,21.566v98.832h11.284c7.861,0,14.96-4.795,17.87-12.119h-0.05v-83.817
		h158.907c5.446,0,9.885,4.416,9.885,9.857v73.96H764.333l-9.74,24.456h0.062l-36.562,85.122h29.104l36.568-85.122h80.926v45.583
		c0,21.73,17.602,39.362,39.352,39.362h29.645c12.375,0,22.427-10.046,22.427-22.434V553.74c0-6.753-5.489-12.267-12.271-12.267
		H929.19z"/>
	<path  d="M1054.994,361.229h-64.715c-4.946,0-8.967,4.008-8.967,8.973v202.073c0,4.979,4.021,8.991,8.967,8.991
		h64.715c4.939,0,8.958-4.013,8.958-8.991V370.202C1063.952,365.237,1059.934,361.229,1054.994,361.229 M1036.014,556.827h-25.603
		v-170h25.603V556.827z"/>
	<path  d="M1221.469,510.341c4.97,0,8.971-4.019,8.971-8.96V398.262c0-21.736-17.618-39.368-39.351-39.368h-93.689
		c-4.972,0-8.997,4.025-8.997,8.965v191.365c0,19.206,15.572,34.777,34.783,34.777h101.808c4.947,0,8.979-4.013,8.979-8.979v-16.626
		h-108.976c-4.111,0-7.466-3.347-7.466-7.49V384.51h71.853c7.252,0,13.124,5.866,13.124,13.117v88.271h-27.812v-67.394
		c0-10.502-8.507-19.004-19.009-19.004h-8.93v110.841H1221.469z"/>
	<g>
		<defs>
			<path id="SVGID_1_" d="M438.538,278.913c-17.968,0-36.875,0.866-56.116,2.624c-9.363,0.848-16.4,8.568-16.394,17.979v300.028
				h44.796V328.313c9.19-0.5,23.542-0.842,32.275-0.842c38.611,0,70.991,4.977,91.179,13.973
				c49.029,21.853,74.949,61.557,74.949,114.8c0,25.968-7.087,53.791-18.907,74.417c-10.875,18.906-31.521,41.789-68.156,43.382
				c-0.853,0.012-1.646,0.049-2.457,0.049c-13.984,0-25.999-5.467-33.886-15.425c-7.136-9.025-9.972-21.651-7.764-34.696
				c3.226-19.272,18.992-42.789,52.706-45.728l2.16-0.172v-31.495l-2.415,0.075c-49.035,1.218-81.049,37.623-86.257,71.265
				c-3.848,24.741,1.244,46.191,14.717,62.011c14.229,16.73,37.825,26.812,63.11,26.972h0.964c42.972,0,77.474-18.761,99.814-54.228
				c16.43-26.077,26.219-62.061,26.219-96.251c0-71.026-38.355-132.271-100.138-159.821
				C522.604,284.865,485.468,278.913,438.538,278.913z"/>
		</defs>
		<use xlink:href="#SVGID_1_"  overflow="visible" />
		<clipPath id="SVGID_2_">
			<use xlink:href="#SVGID_1_"  overflow="visible"/>
		</clipPath>
	</g>
	<g>
		<path  d="M397.479,706.043h-7.824v-21.727c0-5.328-1.823-9.781-7.087-9.781c-3.842,0-7.959,3.17-7.959,8.771v22.736
			h-7.824v-54.111h7.824v21.995h0.135c2.427-3.846,6.611-5.87,10.66-5.87c5.599,0,12.076,3.775,12.076,15.517V706.043z"/>
		<path  d="M408.861,662.118l7.757-2.428v9.179h8.837v5.866h-8.837v18.822c0,4.592,1.421,6.817,4.727,6.817
			c1.549,0,2.494-0.202,3.44-0.475l0.268,6.008c-1.348,0.535-3.438,0.876-6.074,0.876c-3.098,0-5.732-1.01-7.348-2.834
			c-1.892-2.026-2.769-5.129-2.769-9.985v-19.229h-5.263v-5.866h5.263V662.118z"/>
		<path  d="M433.744,662.118l7.757-2.428v9.179h8.837v5.866h-8.837v18.822c0,4.592,1.421,6.817,4.727,6.817
			c1.549,0,2.495-0.202,3.44-0.475l0.269,6.008c-1.348,0.535-3.44,0.876-6.074,0.876c-3.098,0-5.733-1.01-7.349-2.834
			c-1.891-2.026-2.769-5.129-2.769-9.985v-19.229h-5.263v-5.866h5.263V662.118z"/>
		<path  d="M464.227,674.535c2.567-4.186,6.611-6.479,11.808-6.479c8.366,0,14.642,7.424,14.642,18.957
			c0,13.63-7.898,19.771-15.723,19.771c-4.452,0-8.092-2.091-9.917-5.127h-0.134v19.43h-7.824v-40.209
			c0-4.86-0.14-8.702-0.275-12.009h6.887l0.402,5.666H464.227z M464.902,691.062c0,6.679,4.587,9.515,8.435,9.515
			c6.068,0,9.374-5.597,9.374-13.289c0-7.086-3.171-12.953-9.172-12.953c-4.653,0-8.637,4.386-8.637,9.848V691.062z"/>
		<path  d="M497.27,674.937c0-3.038,2.091-5.33,4.989-5.33c2.97,0,4.994,2.158,4.994,5.33
			c0,2.971-1.957,5.265-4.994,5.265C499.088,680.201,497.27,677.772,497.27,674.937z M497.27,701.522c0-3.037,2.091-5.33,4.989-5.33
			c2.97,0,4.994,2.226,4.994,5.33c0,3.038-1.957,5.262-4.994,5.262C499.088,706.784,497.27,704.351,497.27,701.522z"/>
		<path  d="M515.744,709.146h-5.666l19.296-55.53h5.733L515.744,709.146z"/>
		<path  d="M540.694,709.146h-5.665l19.296-55.53h5.732L540.694,709.146z"/>
		<path  d="M612.739,668.869l-11.264,37.174h-7.086l-4.788-16.461c-1.148-3.916-1.958-7.491-2.77-11.877h-0.2
			c-0.744,4.453-1.756,8.228-2.904,11.943l-5.056,16.395h-7.085l-10.662-37.174h8.098l4.112,17.809
			c0.878,3.98,1.757,7.957,2.433,11.875h0.133c0.739-3.851,1.885-7.959,2.971-11.808l5.124-17.876h6.409l4.862,17.471
			c1.146,4.318,2.159,8.295,2.897,12.213h0.207c0.604-3.851,1.481-7.827,2.495-12.144l4.317-17.54H612.739z"/>
		<path  d="M666.691,668.869l-11.265,37.174h-7.085l-4.789-16.461c-1.147-3.916-1.958-7.491-2.769-11.877h-0.201
			c-0.745,4.453-1.757,8.228-2.903,11.943l-5.057,16.395h-7.086l-10.661-37.174h8.099l4.11,17.809
			c0.879,3.98,1.757,7.957,2.433,11.875h0.134c0.738-3.851,1.886-7.959,2.971-11.808l5.124-17.876h6.41l4.86,17.471
			c1.147,4.318,2.159,8.295,2.898,12.213h0.207c0.604-3.851,1.482-7.827,2.495-12.144l4.316-17.54H666.691z"/>
		<path  d="M720.641,668.869l-11.265,37.174h-7.086l-4.787-16.461c-1.147-3.916-1.96-7.491-2.769-11.877h-0.202
			c-0.745,4.453-1.757,8.228-2.903,11.943l-5.055,16.395h-7.088l-10.661-37.174h8.1l4.11,17.809
			c0.879,3.98,1.756,7.957,2.434,11.875h0.134c0.737-3.851,1.884-7.959,2.971-11.808l5.123-17.876h6.41l4.86,17.471
			c1.147,4.318,2.159,8.295,2.897,12.213h0.207c0.604-3.851,1.483-7.827,2.495-12.144l4.317-17.54H720.641z"/>
		<path  d="M725.544,701.456c0-3.105,2.16-5.397,5.057-5.397c2.97,0,4.995,2.225,4.995,5.397
			c0,3.104-1.958,5.328-5.062,5.328S725.544,704.426,725.544,701.456z"/>
		<path  d="M774.178,696.125c0,3.374,0.133,7.354,0.273,9.918h-6.885l-0.403-5.803h-0.202
			c-1.958,3.774-6.007,6.544-11.27,6.544c-8.435,0-14.84-7.486-14.84-18.96c0-12.619,7.216-19.768,15.518-19.768
			c4.788,0,8.232,2.158,9.849,4.99h0.134v-21.115h7.826V696.125z M766.353,683.909c0-6.069-3.842-9.643-8.229-9.643
			c-6.007,0-9.312,5.935-9.312,13.289c0,7.289,3.238,12.886,9.174,12.886c5.062,0,8.367-4.45,8.367-9.648V683.909z"/>
		<path  d="M814.375,695.38c0,4.187,0.202,7.692,0.336,10.663h-6.879l-0.41-5.399h-0.201
			c-1.55,2.563-5.196,6.141-11.198,6.141c-6.41,0-12.014-3.98-12.014-15.856v-22.132h7.833v20.853c0,6.41,1.816,10.659,6.945,10.659
			c3.58,0,7.757-2.837,7.757-8.434v-23.005h7.832V695.38z"/>
		<path  d="M828.318,663.13c-2.698,0-4.521-2.026-4.521-4.521c0-2.626,1.89-4.587,4.587-4.587
			c2.702,0,4.524,1.961,4.524,4.587C832.909,661.104,831.154,663.13,828.318,663.13z M832.231,706.043h-7.825v-37.247h7.825V706.043
			z"/>
		<path  d="M850.235,674.061c2.226-3.778,6.076-6.004,11.266-6.004c8.502,0,14.374,7.49,14.374,18.823
			c0,13.562-7.897,19.904-15.588,19.904c-4.788,0-8.502-1.957-10.996-6.343h-0.201l-0.403,5.602h-6.685
			c0.141-2.496,0.275-6.544,0.275-9.918v-44.193h7.826v22.129H850.235z M850.104,691.33c0,4.729,3.371,9.179,8.5,9.179
			c6,0,9.309-5.33,9.309-13.289c0-7.019-3.033-12.886-9.241-12.886c-4.927,0-8.567,4.786-8.567,9.714V691.33z"/>
		<path  d="M909.59,697.204c0,3.171,0.066,6.41,0.537,8.839h-7.081l-0.542-4.318h-0.201
			c-2.093,2.901-5.735,5.06-10.394,5.06c-6.947,0-10.93-5.127-10.93-10.86c0-9.246,8.034-13.833,20.786-13.833
			c0-2.769,0-8.301-7.489-8.301c-3.306,0-6.684,1.012-9.046,2.567l-1.616-5.195c2.63-1.688,7.014-3.105,12.011-3.105
			c10.929,0,13.965,7.216,13.965,15.113V697.204z M901.967,687.354c-6.141,0-13.229,1.148-13.229,7.759
			c0,4.117,2.568,5.934,5.465,5.934c4.249,0,7.764-3.24,7.764-7.557V687.354z"/>
		<path  d="M918.343,701.456c0-3.105,2.158-5.397,5.055-5.397c2.971,0,4.995,2.225,4.995,5.397
			c0,3.104-1.959,5.328-5.062,5.328C920.226,706.784,918.343,704.426,918.343,701.456z"/>
		<path  d="M960.973,704.895c-1.757,0.812-5.264,1.89-9.582,1.89c-10.726,0-17.739-7.353-17.739-18.96
			c0-11.265,7.282-19.768,19.222-19.768c3.582,0,6.687,0.88,8.301,1.684l-1.547,6.009c-1.356-0.678-3.515-1.482-6.687-1.482
			c-7.281,0-11.332,5.935-11.332,13.222c0,8.16,4.788,13.021,11.265,13.021c3.105,0,5.266-0.743,7.021-1.488L960.973,704.895z"/>
		<path  d="M1000.018,687.152c0,13.895-9.038,19.632-17.406,19.632c-9.646,0-17.003-7.086-17.003-19.094
			c0-12.553,7.696-19.634,17.547-19.634C993.339,668.057,1000.018,675.749,1000.018,687.152z M982.88,673.927
			c-6.678,0-9.239,7.152-9.239,13.562c0,7.289,3.438,13.424,9.172,13.424c5.673,0,9.179-6.135,9.179-13.558
			C991.991,681.212,989.43,673.927,982.88,673.927z"/>
		<path  d="M1058.769,706.043h-7.69v-21.256c0-6.202-2.023-10.318-6.745-10.318c-3.581,0-7.222,3.236-7.222,8.634
			v22.94h-7.689v-22.402c0-5.198-1.959-9.172-6.479-9.172c-3.512,0-7.488,3.17-7.488,9.039v22.535h-7.689v-26.721
			c0-4.185-0.135-7.281-0.275-10.453h6.752l0.4,5.465h0.202c1.824-3.105,5.197-6.277,10.861-6.277c4.729,0,8.302,2.631,9.851,6.812
			h0.141c2.494-4.114,6.135-6.812,11.467-6.812c5.532,0,11.605,3.775,11.605,15.517V706.043z"/>
		<path  d="M1067.448,701.456c0-3.105,2.158-5.397,5.056-5.397c2.97,0,4.994,2.225,4.994,5.397
			c0,3.104-1.959,5.328-5.062,5.328C1069.331,706.784,1067.448,704.426,1067.448,701.456z"/>
		<path  d="M1110.078,704.895c-1.757,0.812-5.264,1.89-9.582,1.89c-10.728,0-17.739-7.353-17.739-18.96
			c0-11.265,7.28-19.768,19.222-19.768c3.58,0,6.685,0.88,8.301,1.684l-1.549,6.009c-1.354-0.678-3.513-1.482-6.685-1.482
			c-7.28,0-11.332,5.935-11.332,13.222c0,8.16,4.788,13.021,11.265,13.021c3.105,0,5.264-0.743,7.021-1.488L1110.078,704.895z"/>
		<path  d="M1147.775,706.043h-7.823v-21.794c0-5.261-1.757-9.714-7.089-9.714c-3.842,0-7.959,3.17-7.959,9.105
			v22.402h-7.824v-26.721c0-4.117-0.135-7.281-0.275-10.453h6.819l0.403,5.532h0.201c1.757-3.173,5.67-6.345,11.27-6.345
			c5.801,0,12.277,3.775,12.277,15.25V706.043z"/>
	</g>
</g>
</svg>
