<?xml version="1.0" encoding="utf-8"?>
<!-- Generator: Adobe Illustrator 16.0.0, SVG Export Plug-In . SVG Version: 6.00 Build 0)  -->
<!DOCTYPE svg PUBLIC "-//W3C//DTD SVG 1.1//EN" "http://www.w3.org/Graphics/SVG/1.1/DTD/svg11.dtd">
<svg version="1.1" id="Layer_1" xmlns="http://www.w3.org/2000/svg" xmlns:xlink="http://www.w3.org/1999/xlink" x="0px" y="0px"
	 width="1600px" height="1000px" viewBox="0 0 1600 1000" enable-background="new 0 0 1600 1000" xml:space="preserve">
<g>
	<path  d="M337.333,304.803v390.395c0,12.469,15.075,18.713,23.892,9.896l82.451-82.451
		c3.428-3.429,5.354-8.079,5.354-12.927V390.284c0-4.848-1.927-9.498-5.354-12.926l-82.451-82.451
		C352.408,286.09,337.333,292.334,337.333,304.803"/>
	<path  d="M741.103,695.197V304.803c0-12.469-15.075-18.713-23.892-9.896l-82.451,82.452
		c-3.429,3.427-5.354,8.078-5.354,12.926v219.432c0,4.849,1.926,9.498,5.354,12.927l82.451,82.451
		C726.027,713.91,741.103,707.666,741.103,695.197"/>
	<path  d="M939.046,545.785l25.734,17.566c1.077,0.735,2.495,0.731,3.569-0.008l10.369-7.152
		c1.818-1.256,1.815-3.946-0.008-5.197l-25.729-17.659c-1.082-0.743-2.513-0.737-3.591,0.015l-10.372,7.243
		C937.21,541.857,937.223,544.541,939.046,545.785"/>
	<path  d="M965.56,433.475l16.329-11.27c1.822-1.257,1.818-3.95-0.009-5.199l-10.897-7.463
		c-1.068-0.732-2.477-0.736-3.549-0.011l-41.222,27.844c-1.853,1.252-1.852,3.982,0.004,5.232l10.087,6.791
		c0.914,0.616,1.992,0.944,3.095,0.944h59.53l-25.553,17.407c-1.067,0.728-2.471,0.731-3.542,0.007l-9.106-6.15
		c-1.064-0.719-2.457-0.721-3.523-0.005l-10.773,7.229c-1.855,1.246-1.863,3.974-0.014,5.229l23.672,16.067
		c1.071,0.727,2.479,0.726,3.55-0.003l59.171-40.34c0.859-0.584,1.372-1.553,1.372-2.592c0.003-3.193,0.005-7.194,0.007-10.561
		c0-1.743-1.412-3.157-3.154-3.157H965.56z"/>
	<path  d="M871.925,457.841l-14.071-10.608c-2.079-1.568-5.055-0.085-5.055,2.519v46.934
		c0,2.537,2.844,4.036,4.937,2.603l14.072-9.632c0.858-0.589,1.373-1.562,1.373-2.604V460.36
		C873.181,459.369,872.716,458.437,871.925,457.841"/>
	<path  d="M1024.281,503.754v-6.75c0-1.039-0.512-2.012-1.369-2.601l-14.773-10.151
		c-2.095-1.437-4.942,0.062-4.942,2.601v16.9H928.86c-3.103,0-4.343,4.011-1.779,5.761l14.853,10.143
		c0.92,0.629,2.01,0.965,3.124,0.965h58.139v51.311c0,1.489,0.601,2.916,1.666,3.959l14.058,13.75
		c1.997,1.954,5.361,0.539,5.361-2.255v-66.765h13.01c1.74,0,3.154-1.412,3.154-3.155v-10.558c0-1.741-1.414-3.155-3.154-3.155
		H1024.281z"/>
	<path  d="M889.146,499.212l-34.786,24.653c-1.781,1.262-1.771,3.909,0.018,5.159l10.922,7.626
		c1.097,0.766,2.556,0.757,3.643-0.021l20.216-14.479l0.104,65.427c0.004,2.797,3.378,4.206,5.37,2.24l14.148-13.963
		c1.055-1.041,1.648-2.46,1.648-3.941v-139.97c0-1.041-0.513-2.014-1.372-2.602l-14.876-10.188
		c-2.092-1.434-4.934,0.063-4.937,2.599L889.146,499.212z"/>
	<path  d="M1099.419,463.822h14.633c1.726,0,3.125-1.399,3.125-3.124V425.18c0-1.726-1.399-3.125-3.125-3.125h-14.633
		c-1.727,0-3.125,1.399-3.125,3.125v35.518C1096.294,462.423,1097.692,463.822,1099.419,463.822"/>
	<path  d="M1140.149,425.18v12.546c0,1.726,1.398,3.125,3.125,3.125h96.252c1.247,0,2.257,1.01,2.257,2.256v128.854
		c0,1.464,0.585,2.866,1.624,3.896l13.936,13.814c1.973,1.956,5.324,0.559,5.324-2.219V425.18c0-1.726-1.398-3.125-3.125-3.125
		h-116.268C1141.548,422.055,1140.149,423.454,1140.149,425.18"/>
	<path  d="M1101.613,589.825l13.932-13.748c1.045-1.03,1.632-2.437,1.632-3.905V489.92
		c0-1.726-1.399-3.125-3.125-3.125h-14.633c-1.727,0-3.127,1.399-3.127,3.125v97.681
		C1096.292,590.374,1099.639,591.773,1101.613,589.825"/>
</g>
</svg>
