<?xml version="1.0" encoding="utf-8"?>
<!-- Generator: Adobe Illustrator 16.0.0, SVG Export Plug-In . SVG Version: 6.00 Build 0)  -->
<!DOCTYPE svg PUBLIC "-//W3C//DTD SVG 1.1//EN" "http://www.w3.org/Graphics/SVG/1.1/DTD/svg11.dtd">
<svg version="1.1" id="Layer_1" xmlns="http://www.w3.org/2000/svg" xmlns:xlink="http://www.w3.org/1999/xlink" x="0px" y="0px"
	 width="1600px" height="1000px" viewBox="0 0 1600 1000" enable-background="new 0 0 1600 1000" xml:space="preserve">
<g>
	<g>
		<g>
			<g>
				<polygon  points="1063.426,436.098 1023.36,436.098 992.115,493.989 1032.189,493.989 				"/>
				<path  d="M329.246,432.828h27.713c0,8.932,0,21.242,0,32.709h-27.713v25.481h27.713c0,24.392,0,43.654,0,45.132
					c0,24.563,14.033,34.735,36.057,34.735c11.354,0,35.504,0,35.504,0v-22.69c0,0-11.83,0-18,0
					c-12.422,0-15.623-5.554-15.623-18.92c0-0.333,0.024-19.433,0.055-38.257h33.568v-25.481H395
					c0.034-11.287,0.036-23.673,0.055-32.709h33.464v-25.487h-68.959h-30.315V432.828z"/>
				<path  d="M678.475,487.077v8.331v17.653v32.514v17.661v8.329c0,0,189.413,0,201.205,0
					c42.551,0,56.539-17.36,56.539-45.291c0-13.308,0-13.213,0-13.213v-25.984h-38.145H678.475z M894.064,531.493
					c0,13.13-6.615,17.471-18.897,17.471c-5.223,0-154.544,0-154.544,0v-39.291h173.441
					C894.064,509.673,894.064,523.585,894.064,531.493z"/>
				<path  d="M1129.833,450.995h-39.156h-1.568l-65.828,120.57h44.073l51.207-93.859h35.234l-50.983,93.859h44.069
					l50.992-93.859h21.645c0,0,0,29.283,0,38.564c0,12.257-4.728,26.344-19.88,26.344c-0.919,0-3.224,0-3.224,0l-15.796,28.951
					c0,0,4.62,0,25.799,0c33.031,0,51.241-23.554,51.241-54.892c0-20.062,0-36.732,0-36.732v-28.946h-38.141H1129.833z"/>
				<path  d="M549.721,377.254v-69.796h-38.146v69.796c0,0-16.531,0-34.85,0c-18.313,0-26.57,11.893-26.57,22.212
					c0,7.781,0,172.099,0,172.099h38.155v-55.178h66.184v-25.481h-66.184v-30.917h66.184v-25.478h-66.184c0,0,0-24.729,0-26.985
					c0-3.388,1.561-6.477,7.576-6.477c6.023,0,64.576,0,69.085,0c4.515,0,6.419,3.088,6.419,6.477c0,2.256,0,164.039,0,164.039
					h38.141c0,0,0-162.313,0-172.099c0-13.262-8.337-22.212-23.378-22.212C574.358,377.254,549.721,377.254,549.721,377.254z"/>
				<path  d="M1206.348,307.458c-11.885,0-154.307,0-169.518,0c-8.059,0-13.55,5.719-13.55,12.746
					c0,5.013,0,107.048,0,107.048h17.743h20.409h158.085h22.404h13.077c0,0,0-5.005,0-12.821c0-27.237,0-57.126,0-61.021
					C1254.999,323.446,1240.009,307.458,1206.348,307.458z M1061.433,404.346v-23.278h135.612v-26.293h-135.612v-24.402
					c0,0,124.795,0,138.876,0c13.235,0,19.209,10.755,19.209,21.559c0,5.183,0,52.414,0,52.414H1061.433z"/>
				<polygon  points="861.611,307.458 817.803,307.458 817.803,324.518 740.709,324.518 740.709,348.302 
					817.803,348.302 817.803,365.36 740.709,365.36 740.709,389.146 817.803,389.146 817.803,406.2 740.709,406.2 740.709,430 
					817.803,430 817.803,447.048 740.709,447.048 740.709,470.844 936.219,470.844 936.219,447.048 861.611,447.048 861.611,430 
					936.219,430 936.219,406.2 861.611,406.2 861.611,389.146 936.219,389.146 936.219,365.36 861.611,365.36 861.611,348.302 
					936.219,348.302 936.219,324.518 861.611,324.518 				"/>
				<polygon  points="503.668,366.873 484.206,307.458 447.313,307.458 466.776,366.873 				"/>
				<polygon  points="559.2,366.873 595.784,366.873 615.249,307.458 578.665,307.458 				"/>
				<polygon  points="729.346,307.458 685.272,307.458 654.045,365.36 677.303,365.36 677.303,470.844 
					698.413,470.844 715.439,470.844 719.462,470.844 719.462,325.796 				"/>
				<polygon  points="369.195,359.788 369.195,353.222 389.682,316.059 349.626,316.059 329.246,353.258 
					329.246,385.849 344.528,385.849 354.092,385.849 428.284,385.849 428.284,359.788 				"/>
			</g>
		</g>
	</g>
	<path  d="M1452.105,399.049c9.145,0,16.59-7.448,16.59-16.594v-90.917c0-1.858-0.365-3.79-1.086-5.737
		c-0.053-0.138-0.1-0.299-0.147-0.46c-0.017-0.076-0.032-0.152-0.062-0.222c-0.057-0.143-0.113-0.224-0.162-0.308
		c-0.084-0.142-0.164-0.285-0.24-0.437c-2.805-5.81-8.51-9.42-14.893-9.42h-90.687c-9.143,0-16.593,7.444-16.593,16.594
		c0,9.154,7.45,16.593,16.593,16.593h50.61l-72.564,72.571c-3.138,3.137-4.869,7.307-4.869,11.742c0,4.43,1.735,8.596,4.873,11.731
		c3.136,3.137,7.307,4.862,11.736,4.862s8.599-1.725,11.726-4.862l72.577-72.565v50.835
		C1435.508,391.601,1442.951,399.049,1452.105,399.049z"/>
	<g>
		<path  d="M512.453,699.564c0,0.209,0.211,1.27,0.637,3.18c0.422,1.705,0.742,2.979,0.956,3.827
			c-2.764,1.909-6.69,4.775-11.788,8.602c-1.063,0.422-1.807,0.843-2.229,1.273c-1.702,1.483-3.083,2.971-4.142,4.458l-5.097-5.098
			c2.121-1.274,3.078-3.819,2.867-7.643V681.72h-11.151v-5.733h17.523v33.453c0.422-0.215,1.059-0.745,1.907-1.599
			C506.399,704.449,509.904,701.682,512.453,699.564z M494.93,651.461c1.7,1.484,4.353,4.031,7.963,7.644
			c2.551,2.335,4.248,3.928,5.101,4.775l-5.101,4.781c-0.848-0.85-2.227-2.335-4.14-4.464c-3.824-3.823-6.69-6.689-8.602-8.6
			L494.93,651.461z M527.425,650.183h6.371v22.616h21.667v5.738h-21.667v36.312h25.488v5.1h-51.29v-5.1h19.431V650.183z"/>
		<path  d="M587.215,672.799c4.669-6.157,8.708-14.123,12.106-23.893l5.735,2.232
			c-0.428,0.853-0.957,2.123-1.595,3.823c-0.426,0.849-1.386,2.869-2.865,6.052h14.015v5.093h-16.885
			c-2.123,4.043-4.567,8.079-7.326,12.112C589.333,676.304,588.277,674.503,587.215,672.799z M587.535,690.004h10.512v-10.516
			h-5.096v-5.094H612.7v5.094h-8.918v10.516h10.512v5.415h-10.512v18.16c3.185-1.701,6.579-3.608,10.195-5.738
			c0,2.342,0.104,4.464,0.317,6.374c-2.762,0.848-6.481,2.759-11.148,5.733c-1.069,0.641-2.126,1.592-3.184,2.866l-4.144-5.416
			c1.699-1.482,2.44-3.289,2.229-5.411v-16.568h-10.512V690.004z M614.931,654.645l4.46-3.184c2.973,2.971,6.583,7.01,10.833,12.097
			l-5.102,4.142C621.939,662.605,618.537,658.256,614.931,654.645z M622.579,724.406h-5.418v-53.195h18.159v-21.986h5.413v21.986
			h18.16v43.004c0.426,6.374-2.976,9.558-10.192,9.558c-3.188,0.209-6.585,0.318-10.193,0.318c-0.219-2.126-0.638-4.252-1.275-6.374
			c4.246,0.425,7.962,0.64,11.148,0.64c3.396,0,5.096-1.488,5.096-4.46v-7.007h-30.898V724.406z M622.579,676.622v9.879h30.898
			v-9.879H622.579z M622.579,691.599v9.87h30.898v-9.87H622.579z M645.195,664.838c3.611-3.611,7.328-7.966,11.152-13.059
			l4.778,3.501c-4.25,5.307-8.181,9.667-11.787,13.062L645.195,664.838z"/>
		<path  d="M728.239,650.82l5.099-2.555c1.91,2.771,3.712,5.636,5.412,8.606l-2.547,1.273h28.674v4.777h-27.399v5.738
			h25.169v4.775h-25.169v5.74h25.169v4.452h-25.169v5.738h28.991v4.775h-59.889v3.187h-5.737v-26.118
			c-1.91,2.122-3.932,4.457-6.052,7.008c-0.428-0.641-1.065-1.697-1.912-3.185c-0.85-0.849-1.383-1.488-1.592-1.913
			c7.646-7.219,13.483-15.29,17.521-24.215l5.417,1.914c-1.275,2.547-2.659,4.99-4.144,7.325h22.304
			c-0.218-0.425-0.64-1.273-1.277-2.548C730.68,654.962,729.723,653.367,728.239,650.82z M701.161,700.194h58.297v24.212h-5.734
			v-3.817h-46.828v3.817h-5.736V700.194z M706.896,662.923c0,0.217-0.111,0.433-0.318,0.635v5.104h25.165v-5.738H706.896z
			 M706.579,673.437v5.74h25.165v-5.74H706.579z M706.579,683.629v5.738h25.165v-5.738H706.579z M706.896,705.292v10.515h46.828
			v-10.515H706.896z"/>
		<path  d="M795.992,719.63c11.471-2.341,19.117-4.457,22.942-6.368c-3.4-2.336-7.225-5.842-11.471-10.518
			l4.779-3.502c3.396,4.458,7.216,7.861,11.467,10.197c3.187-3.399,5.204-7.222,6.054-11.474h-24.531v-32.495h26.446v-7h-32.814
			v-5.422h70.722v5.422h-32.178c0,1.903,0,4.244,0,7h26.439v36.318h-5.732v-3.823h-22.301c-1.062,5.734-3.294,10.515-6.69,14.339
			c8.706,2.976,23.26,4.563,43.647,4.776c-0.428,0.636-1.066,2.019-1.912,4.141c-0.431,1.062-0.747,1.698-0.958,1.911
			c-22.511-0.85-37.589-3.294-45.235-7.326c-4.672,3.184-13.061,6.264-25.168,9.239C798.434,723.133,797.27,721.327,795.992,719.63z
			 M810.969,670.893v8.284h20.709c0-2.555,0-5.31,0-8.284H810.969z M830.72,692.557c0.424-2.337,0.637-5.1,0.637-8.287h-20.388
			v8.287H830.72z M837.088,684.27c0,3.188-0.213,5.95-0.637,8.287h21.664v-8.287H837.088z M858.115,670.893h-20.707
			c0,2.975,0,5.729,0,8.284h20.707V670.893z"/>
		<path  d="M937.971,673.121l5.74,2.232c-0.637,0.633-1.276,1.269-1.915,1.906
			c10.619,10.413,22.193,17.2,34.727,20.391l-0.322,0.635c-1.067,1.909-1.904,3.614-2.543,5.1c-1.708-0.641-3.936-1.596-6.693-2.869
			c-1.706-0.634-2.865-1.061-3.506-1.273v25.164h-5.731v-3.502h-38.229v3.502h-6.052v-24.842c-3.188,1.904-6.592,3.61-10.197,5.088
			c-1.062-1.908-2.123-3.709-3.188-5.41C916.417,693.3,929.054,684.586,937.971,673.121z M934.471,649.865l6.372-0.959
			c0.209,0.432,0.422,1.171,0.635,2.232c0.635,3.184,1.067,5.525,1.275,7.007h30.904v14.021h-6.057v-8.609h-57.978v8.609h-6.054
			v-14.021h32.81C936.166,655.598,935.531,652.84,934.471,649.865z M927.78,667.065l3.823,4.786
			c-9.557,5.94-17.522,10.398-23.895,13.369c-0.854-1.697-2.024-3.392-3.503-5.093C913.123,676.097,920.98,671.742,927.78,667.065z
			 M938.605,681.08c-6.367,6.377-13.479,11.793-21.341,16.249h43.009C951.773,693.088,944.559,687.673,938.605,681.08z
			 M919.498,702.744v13.062h38.229v-13.062H919.498z M948.486,667.065c8.491,3.827,16.456,7.859,23.895,12.111l-3.507,5.409
			c-8.073-4.879-15.926-9.13-23.573-12.734L948.486,667.065z"/>
		<path  d="M1005.094,701.151c8.065-4.458,14.65-10.51,19.749-18.158l5.415,1.911
			c-0.853,1.492-1.805,2.87-2.866,4.145h48.738c-0.213,4.46-0.531,10.619-0.951,18.475c0,11.254-5.208,16.567-15.61,15.932
			c-1.49,0.208-4.035,0.208-7.651,0c-1.489,0-2.543,0-3.185,0c-0.213-2.343-0.531-4.465-0.95-6.374
			c2.756,0.208,6.574,0.317,11.471,0.317c6.576,0.636,9.978-2.758,10.19-10.191c0.209-3.61,0.422-7.965,0.635-13.064h-11.789
			c-2.121,12.538-11.361,22.831-27.713,30.903c-0.213-0.433-0.635-0.955-1.273-1.591c-0.85-1.281-1.706-2.343-2.55-3.184
			c15.081-6.375,23.675-15.079,25.805-26.129h-11.473c-4.249,10.624-14.65,19.119-31.216,25.487c-0.213-0.213-0.535-0.64-0.95-1.273
			c-1.067-1.488-2.024-2.44-2.874-2.867c15.717-5.519,25.381-12.632,28.99-21.347h-12.419c-3.825,4.673-8.5,8.602-14.016,11.789
			C1007.529,704.236,1006.363,702.639,1005.094,701.151z M1014.968,652.73h56.702v29.308h-56.702V652.73z M1020.701,657.831v6.366
			h44.92v-6.366H1020.701z M1020.701,669.612v7.325h44.92v-7.325H1020.701z"/>
	</g>
</g>
</svg>
