<?xml version="1.0" encoding="utf-8"?>
<!-- Generator: Adobe Illustrator 16.0.0, SVG Export Plug-In . SVG Version: 6.00 Build 0)  -->
<!DOCTYPE svg PUBLIC "-//W3C//DTD SVG 1.1//EN" "http://www.w3.org/Graphics/SVG/1.1/DTD/svg11.dtd">
<svg version="1.1" id="Layer_1" xmlns="http://www.w3.org/2000/svg" xmlns:xlink="http://www.w3.org/1999/xlink" x="0px" y="0px"
	 width="1600px" height="1000px" viewBox="0 0 1600 1000" enable-background="new 0 0 1600 1000" xml:space="preserve">
<path  d="M1016.206,205.54H583.795c-44.283,0-80.183,35.897-80.183,80.181v428.559
	c0,44.282,35.899,80.181,80.183,80.181h432.411c44.281,0,80.182-35.898,80.182-80.181V285.721
	C1096.388,241.438,1060.487,205.54,1016.206,205.54z M917.409,410.748h24.863v-10.456c0-6.606-0.238-14.646-0.718-24.119
	l18.645,9.112c1.115,0.541,1.676,1.164,1.676,1.876c0,0.72-0.639,1.788-1.911,3.216l-3.827,3.488v16.883h31.082v-12.064
	c0-7.143-0.238-15.362-0.72-24.656l19.604,11.527c1.758,0.895,2.631,1.832,2.631,2.813c0,0.984-0.799,2.009-2.387,3.083
	l-4.304,2.946v16.351h22.712l11.477-16.082l14.821,18.762c1.116,1.069,1.674,2.101,1.674,3.078c0,0.989-1.19,1.479-3.586,1.479
	h-47.098l0.718,9.112c0,1.611-2,3.485-5.979,5.626c-3.99,2.148-6.774,3.218-8.366,3.218c-1.599,0-2.235-2.769-1.916-8.31
	c0.317-2.678,0.481-5.894,0.481-9.646h-30.844l0.958,11.256c0,2.322-1.915,4.513-5.741,6.567c-3.821,2.056-6.534,3.079-8.131,3.079
	c-1.594,0-2.149-2.365-1.668-7.101c0.479-4.729,0.718-9.337,0.718-13.801h-19.848c-6.376,0-11.798,0.981-16.259,2.946l-8.608-11.525
	C903.617,410.302,910.233,410.748,917.409,410.748z M923.38,454.167c0,6.971-1.395,12.729-4.179,17.289
	c-2.793,4.553-5.622,6.832-8.488,6.832c-2.871,0-5.347-1.072-7.411-3.215c-2.076-2.144-3.108-4.197-3.108-6.165
	c0-3.218,1.945-6.431,5.853-9.647c3.908-3.219,6.579-6.837,8.013-10.856c1.433-4.021,2.392-9.689,2.865-17.02h4.305l0.897,6.824
	c0.217,2.193,0.522,5.36,0.794,8.469c0.044,0.428,0.124,0.822,0.232,1.197C923.3,450.143,923.38,452.244,923.38,454.167z
	 M717.814,377.797c7.145-0.146,12.316,1.396,15.519,4.636c3.202,3.239,5.203,6.918,6.003,11.028
	c0.792,4.112-0.776,8.113-4.715,12.006c-1.524,1.509-3.107,1.944-4.745,1.302c-1.643-0.642-3.655-2.041-6.042-4.208
	c-9.673-9.02-20.514-14.134-32.506-15.343l-1.684-3.991C701.289,379.756,710.675,377.948,717.814,377.797z M681.782,417.819h84.792
	l10.722-12.598l19.031,18.762c1.965,2.144,2.95,3.796,2.95,4.96c0,1.162-2.413,1.874-7.237,2.144
	c-4.825,0.268-9.875,2.14-15.147,5.628c-5.269,3.483-13.266,10.947-23.986,22.378l-3.749-2.41l17.688-31.362h-85.062V417.819z
	 M653.338,442.612c3.659-4.378,6.651-10.137,8.977-17.29c2.32-7.144,3.395-14.378,3.218-21.708h3.751
	c1.964,6.614,3.213,11.35,3.751,14.206h0.147c0.472,1.761,1.124,4.526,1.516,7.503h-0.051c0.533,3.219,0.801,5.994,0.801,8.308
	c0,6.614-1.922,12.866-5.763,18.761c-3.847,5.903-8.532,8.846-14.07,8.846c-2.144,0-3.979-0.668-5.498-2.008
	c-1.519-1.337-2.275-3.349-2.275-6.031C647.843,450.519,649.67,446.992,653.338,442.612z M659.557,516.215
	c-2.23,2.947-4.287,4.424-6.16,4.424c-1.878,0-3.215-0.449-4.021-1.344c-0.801-0.891-1.654-2.765-2.547-5.626
	c-2.503-8.751-8.308-17.777-17.42-27.071v73.707c0,17.691,0.135,30.508,0.403,38.464c0.268,7.948,0.403,12.196,0.403,12.729
	c0,3.216-2.637,6.429-7.91,9.648c-5.271,3.217-8.893,4.822-10.854,4.822c-1.971,0-2.95-2.323-2.95-6.966l1.61-26.269
	c0.535-11.616,0.806-24.475,0.806-38.596V484.99c-14.039,39.67-37.813,51.176-61.199,70.729l-2.682-2.684
	c28.754-31.06,54.827-64.803,61.465-108.517h-14.203c-7.504,0-13.579,0.981-18.226,2.947l-9.384-11.795
	c6.613,1.076,14.031,1.608,22.25,1.608h21.979v-18.226c0-14.292-0.359-29.299-1.077-45.027l24.394,13.134
	c1.969,0.898,2.95,1.788,2.95,2.679c0,0.897-0.981,1.971-2.95,3.219l-4.825,2.676v41.545v7.24v36.183
	c10.007,2.679,18.091,6.477,24.254,11.391c6.165,4.918,9.253,9.427,9.253,13.537C662.916,509.738,661.793,513.266,659.557,516.215z
	 M733.612,480.835v109.488c0,8.581-0.765,14.784-2.277,18.629c-1.525,3.837-5.322,7.637-11.397,11.39
	c-6.074,3.749-10.093,5.627-12.059,5.627s-3.08-1.878-3.351-5.627c-0.264-3.753-2.677-7.061-7.237-9.913
	c-4.55-2.862-12.995-5.81-25.323-8.851l0.799-3.751c13.045,1.43,22.424,2.143,28.148,2.143c5.713,0,9.466-0.58,11.254-1.739
	c1.782-1.167,2.68-2.995,2.68-5.496V480.835h-41.275c-7.504,0-13.584,0.896-18.226,2.679l-9.377-11.791
	c6.783,1.072,14.202,1.608,22.242,1.608h92.735l15.816-19.301l17.15,20.906c1.246,1.79,1.876,3.216,1.876,4.29
	c0,1.07-1.251,1.609-3.751,1.609H733.612z M868.656,621.146c-5.274,3.217-8.896,4.822-10.854,4.822
	c-1.971,0-2.949-2.323-2.949-6.966l1.605-26.269c0.538-11.616,0.807-24.475,0.807-38.596V484.99
	c-14.036,39.67-37.812,51.176-61.199,70.729l-2.679-2.684c28.754-31.06,54.827-64.803,61.466-108.517h-14.204
	c-7.507,0-13.58,0.981-18.229,2.947l-9.378-11.795c6.606,1.076,14.026,1.608,22.245,1.608h21.978v-18.226
	c0-14.292-0.359-29.299-1.068-45.027l24.384,13.134c1.965,0.898,2.951,1.788,2.951,2.679c0,0.897-0.986,1.971-2.951,3.219
	l-4.82,2.676v41.545v7.24v36.183c10.003,2.679,18.089,6.477,24.254,11.391c6.166,4.918,9.245,9.427,9.245,13.537
	c0,4.108-1.113,7.636-3.353,10.585c-2.233,2.947-4.286,4.424-6.16,4.424c-1.878,0-3.214-0.449-4.02-1.344
	c-0.801-0.891-1.654-2.765-2.544-5.626c-2.505-8.751-8.312-17.777-17.423-27.071v73.707c0,17.691,0.133,30.508,0.402,38.464
	c0.269,7.948,0.403,12.196,0.403,12.729C876.566,614.714,873.927,617.927,868.656,621.146z M1036.162,567.748
	c0,0-6.12-1.931-16.312-5.511c-14.271-5.013-24.971-11.2-32.727-16.715c3.142,8.548,4.733,17.579,4.733,27.109
	c0,12.152-1.396,21.133-4.183,26.94c-2.791,5.803-7.413,11.031-13.864,15.675c-6.458,4.646-11.039,6.973-13.746,6.973
	c-1.121,0-1.918-1.97-2.393-5.897c-0.479-3.935-2.118-7.198-4.902-9.781c-2.789-2.593-8.488-5.411-17.095-8.444l0.718-3.751
	c11.792,1.966,20.08,2.945,24.864,2.945c4.781,0,8.125-0.979,10.041-2.945c1.913-1.973,3.586-5.634,5.022-10.991
	c1.432-5.358,2.151-10.856,2.151-16.484c0-5.627-0.322-10.228-0.957-13.8c-24.07,24.478-52.841,42.884-86.312,55.211l-1.431-4.289
	c30.918-16.261,58.73-37.695,83.439-64.327c-0.954-2.499-2.469-5.628-4.54-9.377c-15.462,18.045-38.26,33.497-68.377,46.365
	l-2.392-3.754c23.906-14.291,45.021-31.981,63.354-53.066c-1.756-1.963-3.188-3.483-4.303-4.556
	c-18.331,11.079-35.067,18.851-50.21,23.318l-1.912-3.482c18.487-10.187,37.931-22.691,58.343-37.526h-28.219
	c-6.694,0-12.112,0.981-16.258,2.946l-8.605-11.525c5.889,0.9,12.513,1.344,19.843,1.344h89.656l12.678-16.354l14.581,19.301
	c1.112,1.609,1.676,2.727,1.676,3.349c0,0.632-1.121,0.938-3.353,0.938h-60.965c-6.694,4.828-13.87,9.558-21.516,14.204
	c8.127,6.613,14.42,13.851,18.887,21.713c17.052-9.47,30.203-19.835,39.448-31.089l11.241,15.542
	c0.95,1.427,1.428,2.547,1.428,3.349c0,0.805-1.112,1.298-3.344,1.477c-6.696,0.894-16.816,3.932-30.367,9.112l-4.541,1.609
	c-2.393,1.069-6.137,2.769-11.236,5.092c0.053,0.104,0.093,0.214,0.145,0.32c7.332,2.573,18.666,5.549,35.497,7.599
	c27.141,3.308,31.296,0.643,31.296,0.643L1036.162,567.748z M1047.708,452.291c-3.505,0.181-7.054,1.205-10.64,3.085
	c-2.764,1.445-6.85,4.259-12.223,8.417l4.376,5.115c1.239,1.609,1.876,2.774,1.876,3.485c0,0.715-1.256,1.072-3.756,1.072h-64.596
	c-7.498,0-13.578,0.894-18.221,2.68l-9.919-11.525c6.787,1.07,14.206,1.609,22.247,1.609h46.367l11.79-13.938l6.408,7.492
	l6.446-12.05h-97.854v-7.234h94.505l9.087-12.597l16.495,17.154c1.912,2.141,2.866,3.843,2.866,5.091
	C1052.964,451.397,1051.214,452.115,1047.708,452.291z"/>
</svg>
