<?xml version="1.0" encoding="utf-8"?>
<!-- Generator: Adobe Illustrator 16.0.0, SVG Export Plug-In . SVG Version: 6.00 Build 0)  -->
<!DOCTYPE svg PUBLIC "-//W3C//DTD SVG 1.1//EN" "http://www.w3.org/Graphics/SVG/1.1/DTD/svg11.dtd">
<svg version="1.1" id="Layer_1" xmlns="http://www.w3.org/2000/svg" xmlns:xlink="http://www.w3.org/1999/xlink" x="0px" y="0px"
	 width="1600px" height="1000px" viewBox="0 0 1600 1000" enable-background="new 0 0 1600 1000" xml:space="preserve">
<g>
	<g>
		<path  d="M408.11,418.654c-9.924-0.171-18.126,7.731-18.301,17.645c-0.17,9.929,7.72,18.12,17.645,18.292
			c9.925,0.179,18.109-7.712,18.301-17.624C425.931,427.035,418.035,418.839,408.11,418.654z"/>
		<path  d="M626.156,418.654c-9.937,0.185-17.822,8.38-17.646,18.314c0.192,9.911,8.377,17.802,18.301,17.624
			c9.914-0.173,17.816-8.364,17.646-18.292C644.277,426.386,636.081,418.483,626.156,418.654z"/>
		<path  d="M676.86,586.665c26.995-34.441,43.087-77.831,43.087-124.999c0-111.987-90.784-202.771-202.771-202.771
			c-111.983,0-202.772,90.784-202.772,202.771c0,47.096,16.058,90.441,42.983,124.864l-20.239,35.063
			c-9.892,17.133-4.029,39.027,13.107,48.914c5.63,3.262,11.791,4.804,17.86,4.804c12.374,0,24.411-6.425,31.041-17.906l4.454-7.724
			l1.142-1.955l0.085-0.178c0.616-1.178,2.39-0.736,2.022,0.924l-0.311,1.848l-5.675,32.173
			c-3.436,19.483,9.565,38.043,29.03,41.477c2.114,0.376,4.205,0.55,6.274,0.55c17.052,0,32.148-12.219,35.207-29.589l5.573-31.604
			c0.628-3.022,4.359-2.622,4.324,0.569v3.874v37.526c0,19.778,16.029,35.809,35.8,35.809s35.811-16.03,35.811-35.809V667.77v-3.874
			c-0.044-3.191,3.697-3.592,4.318-0.579l0.566,3.225c0.022,0.184,0.044,0.312,0.044,0.312l4.963,28.077
			c3.052,17.37,18.16,29.589,35.207,29.589c2.062,0,4.166-0.174,6.268-0.55c19.471-3.434,32.465-21.993,29.03-41.477l-5.669-32.173
			l-0.029-0.186l-0.282-1.662c-0.356-1.66,1.39-2.102,2.012-0.932l0.723,1.259l0.516,0.882l4.448,7.724
			c6.64,11.481,18.675,17.906,31.046,17.906c6.07,0,12.231-1.542,17.865-4.804c17.128-9.887,22.994-31.781,13.11-48.914
			L676.86,586.665z M389.809,487.698c-28.204,0-51.073-22.871-51.073-51.071c0-28.204,22.869-51.069,51.073-51.069
			c28.204,0,51.061,22.865,51.061,51.069C440.87,464.828,418.013,487.698,389.809,487.698z M644.458,487.698
			c-28.192,0-51.061-22.871-51.061-51.071c0-28.204,22.869-51.069,51.061-51.069c28.198,0,51.066,22.865,51.066,51.069
			C695.524,464.828,672.655,487.698,644.458,487.698z"/>
	</g>
	<g>
		<path  d="M1030.844,392.754c-0.214-0.433-0.469-0.847-0.724-1.263c-21.58-36.773-61.505-61.457-107.2-61.457
			c-68.602,0-124.195,55.61-124.195,124.193c0,68.593,55.594,124.205,124.195,124.205c37.584,0,71.3-16.729,94.062-43.127
			c0.118-0.133,0.513-0.56,0.569-0.649c4.187-4.825,6.726-11.088,6.726-17.994c0-15.136-12.265-27.418-27.418-27.418
			c-8.336,0-15.769,3.699-20.782,9.522c-0.045,0.076-0.798,0.949-1,1.149c-12.707,14.498-31.37,23.668-52.156,23.668
			c-15.563,0-29.896-5.114-41.471-13.759l138.355-79.872l0,0c8.552-4.642,14.363-13.701,14.363-24.102
			C1034.168,401.098,1032.969,396.644,1030.844,392.754L1030.844,392.754z M854.023,462.335c-0.304-2.64-0.497-5.361-0.497-8.108
			c0-38.316,31.089-69.341,69.394-69.341c15.542,0,29.863,5.126,41.416,13.754L854.023,462.335z"/>
		<path  d="M1258.172,489.174c-8.246,0-15.59,3.63-20.62,9.332c-0.124,0.142-0.685,0.811-0.857,0.994
			c-12.714,14.75-31.516,24.084-52.533,24.084c-38.298,0-69.343-31.045-69.343-69.356c0-38.316,31.045-69.356,69.343-69.356
			c20.948,0,39.713,9.294,52.419,23.975c0.114,0.117,0.477,0.505,0.564,0.624c5.015,5.998,12.575,9.795,21.027,9.795
			c15.119,0,27.424-12.277,27.424-27.414c0-6.927-2.59-13.248-6.822-18.069c-0.062-0.087-0.442-0.5-0.516-0.627
			c-22.776-26.41-56.486-43.122-94.097-43.122c-68.58,0-124.176,55.61-124.176,124.193c0,68.593,55.596,124.205,124.176,124.205
			c38.13,0,72.207-17.177,94.983-44.192c0.053-0.068,0.342-0.426,0.414-0.49c3.782-4.694,6.037-10.647,6.037-17.14
			C1285.596,501.461,1273.291,489.174,1258.172,489.174z"/>
	</g>
	<g>
		<path  d="M828.927,680.932c3.574,0.187,11.574,0.187,23.995,0c6.211,0,10.63,0,13.268,0
			c-0.946,1.88-1.412,3.104-1.412,3.669c-17.127,0-29.266-0.1-36.416-0.282c-7.901,0.376-14.3-2.074-19.193-7.338
			c-2.259,1.507-4.988,4.234-8.185,8.185l-2.259-3.389c1.312-1.506,3.572-3.572,6.772-6.208c0.941-0.75,1.601-1.315,1.977-1.693
			v-25.407h-8.185v-3.667h11.856v29.074C815.282,678.765,821.21,681.118,828.927,680.932z M811.146,635.483
			c-1.883-3.197-4.613-7.146-8.185-11.854l3.104-1.977c3.009,3.768,5.928,7.62,8.752,11.574L811.146,635.483z M841.065,637.178
			h3.953v12.139h17.218v3.388h-17.218v11.009h20.606v3.388h-20.606v10.159h-3.953v-10.159h-23.992v-3.388h23.992v-11.009h-19.759
			v-4.236c1.878-2.819,4.701-7.995,8.467-15.522h-10.726v-3.39h12.138c0.941-1.878,2.069-4.702,3.39-8.468
			c0.183-0.563,0.374-1.032,0.564-1.412l4.231,0.849c-0.564,1.129-1.318,2.823-2.254,5.083c-0.759,1.689-1.323,3.012-1.695,3.948
			h28.791v3.39H834.01c-0.564,1.317-1.509,3.2-2.824,5.645c-0.752,1.883-2.541,5.461-5.362,10.727h15.242V637.178z"/>
		<path  d="M883.114,660.605l-0.564-3.948c3.007-0.565,6.211-1.315,9.597-2.26v-17.22h-9.032v-3.386h9.032v-13.833
			h3.671v13.833h7.338v3.386h-7.338v16.09c1.128-0.186,2.822-0.656,5.079-1.412c1.13-0.183,1.977-0.374,2.542-0.563
			c0,1.319,0.093,2.541,0.281,3.671c-0.752,0.188-1.883,0.471-3.385,0.847c-1.887,0.563-3.39,0.944-4.518,1.13v21.453
			c0.185,4.89-2.075,7.338-6.777,7.338c-2.257,0-4.231,0-5.926,0c0-0.379-0.099-1.036-0.281-1.978
			c-0.189-0.752-0.38-1.412-0.565-1.977c0.748,0,1.881,0.094,3.389,0.283c1.312,0,2.258,0,2.821,0c2.443,0,3.669-1.225,3.669-3.667
			v-20.326c-0.944,0.191-2.447,0.565-4.514,1.133C885.748,659.761,884.245,660.234,883.114,660.605z M902.026,686.577
			c-0.189-0.381-0.471-1.035-0.847-1.977c-0.563-0.753-0.941-1.412-1.128-1.974c10.727-2.074,18.532-4.234,23.427-6.493
			c-1.691-0.748-4.424-1.881-8.185-3.39c-3.013-1.312-5.366-2.349-7.056-3.104c2.257-2.633,4.326-5.364,6.209-8.188H903.72v-3.104
			h12.986c1.694-2.633,3.196-5.174,4.516-7.622l3.669,1.412c-0.188,0.381-0.471,0.943-0.847,1.694
			c-0.565,0.943-1.509,2.447-2.822,4.516h28.227v3.104h-9.312c-2.45,5.836-5.554,10.444-9.317,13.832
			c1.881,0.754,4.61,1.883,8.186,3.387c4.517,1.695,7.904,3.01,10.164,3.955l-2.26,3.386c-7.718-3.769-14.114-6.493-19.193-8.186
			C922.066,681.589,913.504,684.501,902.026,686.577z M903.72,645.083h26.534c2.821-3.953,5.458-7.905,7.905-11.855l3.385,1.975
			c-2.255,3.202-4.703,6.493-7.338,9.881h15.526v3.104H903.72V645.083z M923.479,621.088l3.39-1.412
			c0.565,1.13,1.41,2.73,2.541,4.802c0.562,1.317,1.031,2.257,1.409,2.819l-3.104,1.414h19.759v3.386h-41.494v-3.386h21.454
			c-0.383-0.75-0.947-1.88-1.695-3.387C924.794,623.444,924.044,622.032,923.479,621.088z M912.47,635.202l3.106-1.975
			c0.378,0.564,1.031,1.411,1.977,2.542c2.443,3.2,4.138,5.36,5.079,6.489l-3.387,2.261c-0.753-1.507-2.73-4.329-5.928-8.469
			C912.94,635.675,912.656,635.392,912.47,635.202z M913.601,668.511c4.516,1.695,8.935,3.485,13.268,5.364
			c3.761-2.824,6.867-6.962,9.314-12.422h-17.218C917.08,664.276,915.294,666.63,913.601,668.511z"/>
		<path  d="M968.915,625.607h22.58v27.097h-17.5v23.993c7.526-3.762,13.451-6.865,17.782-9.313
			c0.188,1.691,0.471,3.012,0.847,3.948c-6.59,3.203-12.608,6.311-18.063,9.317c-0.565,0.374-1.604,1.032-3.106,1.978
			c-0.188,0.374-0.377,0.562-0.565,0.562l-2.821-3.669c1.504-1.315,2.257-3.198,2.257-5.645v-24.559h17.502v-20.325h-18.911V625.607
			z M995.166,652.421c-0.379-0.565-1.32-1.596-2.824-3.104c6.021-8.47,10.631-18.249,13.833-29.357l3.667,0.847
			c-0.188,0.382-0.377,0.944-0.562,1.694c-1.509,4.518-2.73,7.809-3.669,9.88h27.661v3.671h-7.338
			c-1.883,15.057-5.742,26.158-11.574,33.307c4.138,4.896,10.539,9.13,19.196,12.702c-0.19,0.185-0.381,0.567-0.567,1.129
			c-0.941,1.506-1.506,2.445-1.691,2.824c-9.223-4.895-15.714-9.408-19.479-13.55c-4.33,4.329-11.668,9.031-22.016,14.114
			c-0.379-0.564-1.038-1.603-1.977-3.105c-0.38-0.189-0.562-0.378-0.562-0.565c10.162-4.142,17.499-8.653,22.016-13.549
			c-4.331-5.457-7.435-13.829-9.314-25.121C998.456,647.061,996.86,649.79,995.166,652.421z M1004.198,636.051
			c-0.565,1.127-1.13,2.163-1.694,3.104c1.877,12.044,4.984,21.079,9.314,27.099c5.083-6.02,8.467-16.093,10.161-30.203H1004.198z"
			/>
		<path  d="M1063.747,638.022l3.105,2.542c-3.576,4.143-7.901,8.66-12.985,13.552
			c-0.379-0.565-1.035-1.225-1.974-1.978c-0.38-0.374-0.662-0.657-0.851-0.847C1055.936,646.966,1060.17,642.542,1063.747,638.022z
			 M1058.668,659.761v-3.669h46.011v3.952c-4.333,6.024-9.882,11.196-16.655,15.524c7.524,3.012,17.218,5.173,29.073,6.491
			c-0.753,1.129-1.412,2.441-1.975,3.953c-14.112-2.26-24.559-5.081-31.333-8.467c-7.718,3.572-17.88,6.584-30.486,9.031
			c-0.188-0.381-0.471-0.943-0.848-1.693c-0.562-0.944-0.941-1.602-1.129-1.978c11.855-1.883,21.452-4.419,28.792-7.621
			c-4.892-3.196-9.784-8.372-14.678-15.524H1058.668z M1080.969,620.806l3.666-1.13c1.13,2.448,2.26,5.272,3.389,8.471l-3.106,1.127
			h31.615v3.389h-22.298v18.63h-3.671v-18.63h-12.983v18.911h-3.672v-18.911h-22.301v-3.389h32.745
			C1083.223,626.078,1082.096,623.254,1080.969,620.806z M1100.162,659.761h-30.205c4.516,6.211,9.218,10.727,14.115,13.549
			C1090.093,670.113,1095.456,665.596,1100.162,659.761z M1100.444,640.847l2.822-2.539c6.21,5.834,10.727,10.259,13.548,13.266
			l-3.104,2.824C1109.942,650.261,1105.523,645.742,1100.444,640.847z"/>
		<path  d="M1149.549,623.348l3.951,1.13c-0.379,0.753-0.845,1.694-1.408,2.819c-0.565,1.694-1.695,4.145-3.39,7.342
			h18.347v-14.963h3.953v14.963h26.814v3.669h-26.814v17.784h24.839v3.669h-24.839v18.911h30.485v3.669h-67.181v-3.669h32.742
			v-18.911h-24.838v-3.669h24.838v-17.784h-20.324c-2.447,4.896-5.552,9.598-9.314,14.113c-0.943-1.129-1.977-2.068-3.104-2.822
			C1140.7,642.076,1145.781,633.324,1149.549,623.348z"/>
		<path  d="M1226.034,670.77l3.386,1.693c-2.823,4.142-5.459,7.808-7.901,11.009c-0.19,0-0.564-0.189-1.13-0.565
			c-1.129-0.754-1.883-1.225-2.259-1.412C1220.766,678.858,1223.396,675.285,1226.034,670.77z M1248.617,620.524l3.669-0.849
			c0.748,2.26,1.412,4.52,1.977,6.776h26.251v3.104h-13.83l2.537,1.412c-0.377,0.382-1.036,1.129-1.973,2.26
			c-1.322,1.882-2.358,3.2-3.105,3.95h20.888v3.105h-66.618v-3.105h20.605c-0.188-0.186-0.562-0.656-1.127-1.408
			c-1.694-2.071-3.016-3.576-3.951-4.52l1.977-1.694h-12.985v-3.104h27.661c-0.188-0.374-0.38-0.939-0.565-1.695
			C1249.839,624.195,1249.368,622.783,1248.617,620.524z M1227.446,645.648h47.987v20.605h-47.987V645.648z M1231.115,648.752v5.646
			h40.646v-5.646H1231.115z M1231.115,657.504v5.926h40.646v-5.926H1231.115z M1235.352,670.206h3.666v6.21
			c-0.377,3.387,1.598,4.89,5.931,4.516h13.546c3.954,0.187,6.213-0.944,6.777-3.386c0-0.378,0.092-0.849,0.282-1.412
			c0.185-0.565,0.466-1.978,0.845-4.236c0.567,0.191,1.223,0.381,1.978,0.565c0.75,0.381,1.315,0.664,1.694,0.847
			c-0.191,0.565-0.379,1.317-0.564,2.259c0,0.565-0.285,1.6-0.848,3.104c-1.13,3.955-4.234,5.829-9.314,5.646h-15.525
			c-6.024,0.376-8.848-2.166-8.467-7.621V670.206z M1242.689,635.77l-2.26,1.408h19.194c2.259-2.441,4.235-4.984,5.93-7.622h-28.23
			c0.753,0.944,1.88,2.356,3.389,4.236C1241.653,634.736,1242.309,635.392,1242.689,635.77z M1246.922,669.641l2.822-2.257
			c0.564,0.565,1.598,1.507,3.106,2.822c2.26,2.072,3.854,3.669,4.799,4.798l-3.104,2.256c-0.19-0.185-0.664-0.655-1.412-1.409
			C1250.121,672.652,1248.05,670.584,1246.922,669.641z M1274.586,671.897l3.106-1.691c1.127,1.509,3.008,3.856,5.644,7.054
			c0.938,1.133,1.694,1.978,2.26,2.543l-3.107,2.257C1279.477,678.109,1276.844,674.722,1274.586,671.897z"/>
	</g>
</g>
</svg>
