<?xml version="1.0" encoding="utf-8"?>
<!-- Generator: Adobe Illustrator 16.0.0, SVG Export Plug-In . SVG Version: 6.00 Build 0)  -->
<!DOCTYPE svg PUBLIC "-//W3C//DTD SVG 1.1//EN" "http://www.w3.org/Graphics/SVG/1.1/DTD/svg11.dtd">
<svg version="1.1" id="Layer_1" xmlns="http://www.w3.org/2000/svg" xmlns:xlink="http://www.w3.org/1999/xlink" x="0px" y="0px"
	 width="1600px" height="1000px" viewBox="0 0 1600 1000" enable-background="new 0 0 1600 1000" xml:space="preserve">
<g>
	<path fill-rule="evenodd" clip-rule="evenodd"  d="M1003.892,501.876c0.081,11.938,7.203,21.345,17.249,22.896
		c7.061,1.069,21.586,1.069,28.631,0c10.046-1.552,17.184-10.958,17.265-22.896c0.104-16.393,0.104-32.454,0-48.84
		c-0.081-11.939-7.219-21.354-17.265-22.888c-7.045-1.086-21.57-1.086-28.631,0c-10.046,1.535-17.168,10.949-17.249,22.888
		C1003.772,469.422,1003.772,485.483,1003.892,501.876 M1082.473,510.223c-0.136,16.002-10.757,28.637-25.698,30.694
		c-10.622,1.456-32.015,1.456-42.62,0c-14.957-2.058-25.579-14.692-25.689-30.694c-0.168-22.034-0.168-43.499,0-65.524
		c0.11-16.019,10.732-28.636,25.689-30.698c10.605-1.469,31.998-1.469,42.62,0c14.941,2.062,25.562,14.679,25.698,30.698
		C1082.632,466.724,1082.632,488.189,1082.473,510.223z M900.38,501.876c0.081,11.938,7.219,21.345,17.257,22.896
		c7.069,1.069,21.579,1.069,28.639,0c10.045-1.552,17.177-10.958,17.25-22.896c0.11-16.393,0.11-32.454,0-48.84
		c-0.073-11.939-7.205-21.354-17.25-22.888c-7.06-1.086-21.569-1.086-28.639,0c-10.038,1.535-17.176,10.949-17.257,22.888
		C900.262,469.422,900.262,485.483,900.38,501.876z M978.961,510.223c-0.119,16.002-10.74,28.637-25.69,30.694
		c-10.63,1.456-32.007,1.456-42.628,0c-14.949-2.058-25.562-14.692-25.691-30.694c-0.167-22.034-0.167-43.499,0-65.524
		c0.129-16.019,10.742-28.636,25.691-30.698c10.621-1.469,31.998-1.469,42.628,0c14.95,2.062,25.571,14.679,25.69,30.698
		C979.13,466.724,979.13,488.189,978.961,510.223z M1122.545,490.425h14.399c0.591,0,1.069,0.48,1.069,1.071v28.147
		c0,5.688,1.662,10.75,5.31,15.111c3.331,3.991,7.49,6.676,12.787,6.676h13.759l2.866-12.315h-11.587
		c-3.203,0-6.852-0.623-8.857-3.417c-1.907-2.651-2.418-6.148-2.418-9.327l0.088-24.884c0-0.582,0.479-1.062,1.068-1.062h19.215
		c0.375,0,0.71,0.185,0.912,0.502c3.114,5.064,5.9,10.333,8.75,15.558c3.051,5.62,6.198,11.26,9.895,16.482
		c3.441,4.838,7.428,9.406,12.321,12.824c4.576,3.227,9.616,5.208,15.175,5.941c0.406,0.047,0.829,0.08,1.244,0.08
		c0.759,0.047,1.519,0.063,2.285,0.096c1.947,0.048,3.896,0.081,5.846,0.113l2.244-12.25c-0.662-0.017-1.327-0.05-1.98-0.066
		c-1.87-0.063-3.738-0.126-5.599-0.223c-0.67-0.031-1.343-0.064-2.005-0.113c-0.368-0.03-0.885-0.062-1.237-0.174
		c-7.235-2.334-10.732-7.236-15.172-12.954c-0.257-0.317-0.304-0.75-0.113-1.118c0.176-0.383,0.544-0.605,0.96-0.605l22.895,0.094
		l2.252-12.632h-34.898c-0.368,0-0.686-0.176-0.887-0.487l-6.34-9.606c-0.225-0.343-0.241-0.744-0.057-1.102
		c0.2-0.352,0.542-0.559,0.95-0.559l38.979,0.19l2.252-12.705h-14.272c-0.582,0-1.061-0.479-1.061-1.069v-16.539
		c0-0.592,0.479-1.07,1.061-1.07h12.021l2.252-12.714h-14.272c-0.582,0-1.061-0.471-1.061-1.054l-0.064-8.648h-11.89v8.633
		c0,0.59-0.479,1.069-1.062,1.069h-49.346c-0.581,0-1.077-0.479-1.077-1.069v-8.633h-12.171v8.633c0,0.295-0.104,0.55-0.327,0.757
		c-0.199,0.208-0.455,0.312-0.749,0.312l-14.352-0.087v12.801h14.352c0.598,0,1.076,0.479,1.076,1.07v16.539
		c0,0.59-0.479,1.069-1.076,1.069h-14.352V490.425z M1150.144,476.642v-16.539c0-0.592,0.496-1.07,1.077-1.07h49.346
		c0.583,0,1.062,0.479,1.062,1.07v16.539c0,0.59-0.479,1.069-1.062,1.069h-49.346
		C1150.64,477.711,1150.144,477.232,1150.144,476.642z M1095.393,541.334c1.254-0.24,2.445-0.639,3.596-1.197
		c4.87-2.381,8.008-7.379,9.925-12.284c2.444-6.179,3.411-13.254,3.411-19.883v-78.077c0-0.591,0.479-1.069,1.06-1.069h100.438
		c10.917,0,15.302-3.362,15.302-14.566v-19.365c0-10.51-5.456-14.351-15.541-14.351h-92.347c-11.237,0-20.852,3.913-20.867,16.603
		l-0.04,109.587c-0.009,6.732-0.96,17.369-8.824,19.254L1095.393,541.334z M1112.324,414.168v-12.505
		c0-2.331,0.365-4.911,2.227-6.524c2.165-1.892,5.933-1.884,8.664-1.884h87.245c4.09,0,6.707,1.988,6.707,6.237v8.728
		c0,1.772-0.157,4.233-1.411,5.622c-1.128,1.247-3.979,1.301-5.52,1.301l-96.853,0.096c-0.287,0-0.548-0.104-0.756-0.311
		C1112.427,414.72,1112.324,414.464,1112.324,414.168z M1316.049,521.737c0,4.551,0.383,11.931,3.289,15.715
		c2.356,3.084,5.605,4.328,9.447,4.328h40.36c1.636,0,3.177-0.637,4.535-1.468c2.452-1.597,4.138-3.913,5.23-6.581
		c0.63-1.534,0.911-3.577,1.08-5.207c0.304-2.937,0.358-5.957,0.358-8.895v-41.71c0-4.042-1.021-7.811-3.642-10.956
		c-2.698-3.236-6.317-4.481-10.477-4.481h-38.812c-4.663,0-7.587,3.338-9.575,7.244c-1.637,3.234-1.795,9.536-1.795,13.096V521.737z
		 M1335.013,528.973c-1.907,0-4.304-0.289-5.652-1.807c-1.414-1.628-1.492-5.542-1.492-7.569v-34.434
		c0-2.044,0.11-5.718,1.467-7.387c1.583-1.916,3.994-2.492,6.374-2.492h24.997c2.188,0,4.983,0.36,6.275,2.405
		c1.26,1.997,1.396,5.677,1.396,7.968v33.939c0,2.157-0.197,5.111-1.396,6.979c-1.231,1.887-3.467,2.397-5.574,2.397H1335.013z
		 M1293.896,393.342h14.151v-12.801h-65.771v12.801h13.937c0.135-0.057,0.278-0.087,0.431-0.087h2.522
		c0.592,0,1.062,0.479,1.062,1.062v16.538c0,0.296-0.096,0.552-0.302,0.76c-0.217,0.207-0.466,0.312-0.761,0.312l-2.53-0.009
		l-0.216-0.007c-5.312,0-9.513,1.9-12.034,6.732c-1.678,3.226-1.869,9.055-1.869,12.625v93.425c0,4.186,0.615,8.977,3.026,12.521
		c2.165,3.148,5.055,4.762,8.896,4.762h42.451c3.218,0,5.622-1.757,7.548-4.218c3.066-3.945,3.609-10.46,3.609-15.269v-93.624
		c0-4.176-0.63-8.953-3.229-12.378c-2.307-3.05-5.405-4.434-9.215-4.439l-4.431-0.017c-0.582,0-1.063-0.48-1.063-1.071v-16.641
		c0-0.583,0.481-1.062,1.063-1.062h2.307C1293.626,393.255,1293.761,393.285,1293.896,393.342z M1279.193,394.317v16.602
		c0,0.296-0.104,0.543-0.31,0.759c-0.217,0.208-0.465,0.312-0.769,0.312l-5.901-0.024c-0.599,0-1.079-0.479-1.079-1.069v-16.579
		c0-0.583,0.48-1.062,1.079-1.062h5.901C1278.707,393.255,1279.193,393.733,1279.193,394.317z M1279.193,425.837v48.465
		c0,4.888,2.699,8.624,6.444,11.555c3.467,2.731,7.436,4.257,11.836,4.696c0.544,0.057,0.95,0.512,0.95,1.07v11.434
		c0,0.592-0.472,1.071-1.062,1.071h-44.154c-0.581,0-1.06-0.479-1.06-1.071v-11.466c0-0.543,0.407-0.999,0.94-1.055
		c4.312-0.479,8.201-2.004,11.613-4.68c3.745-2.931,6.434-6.667,6.434-11.555v-48.465c0-0.584,0.48-1.063,1.079-1.063h5.901
		C1278.707,424.774,1279.193,425.252,1279.193,425.837z M1257.95,424.774c0.042,0,0.089,0,0.13,0h1.085
		c0.592,0,1.062,0.479,1.062,1.063v43.874c0,3.042-0.655,6.356-3.347,8.177c-1.03,0.695-2.18,1.182-3.369,1.526
		c-0.336,0.095-0.67,0.031-0.95-0.176c-0.272-0.208-0.414-0.503-0.414-0.855v-45.336c0-2.052,0.109-5.501,1.716-7.019
		c1.021-0.982,2.5-1.253,3.873-1.253H1257.95z M1298.424,516.242v5.605c0,1.966-0.136,5.159-1.478,6.742
		c-1.149,1.34-3.259,1.597-4.921,1.597h-34.289c-1.767,0-3.714-0.399-4.698-2.045c-0.813-1.42-0.891-3.85-0.891-5.446v-6.453
		c0-0.591,0.479-1.069,1.06-1.069h44.154C1297.952,515.173,1298.424,515.651,1298.424,516.242z M1293.05,424.774h0.023
		c0.878,0,1.708,0.193,2.476,0.63c2.491,1.479,2.875,5.04,2.875,7.642v45.408c0,0.343-0.136,0.631-0.406,0.847
		c-0.271,0.208-0.608,0.272-0.928,0.183c-1.285-0.343-2.524-0.854-3.627-1.597c-2.698-1.821-3.354-5.127-3.354-8.177v-43.874
		c0-0.584,0.481-1.063,1.063-1.063h1.765C1292.976,424.774,1293.009,424.774,1293.05,424.774z M1354.092,380.772l-11.779,2.309
		v17.583c0,0.591-0.472,1.072-1.053,1.072h-1.813c-3.267,0.008-5.542-0.536-8.113-2.524c-2.747-2.116-3.3-5.957-3.3-9.191v-9.407
		l-11.889-0.064v14.725c0,5.446,2.491,9.814,6.499,13.409c4.152,3.729,9.009,5.526,14.59,5.526h4.026
		c0.575,0,1.053,0.479,1.053,1.07v24.158c0,0.59-0.478,1.069-1.053,1.069h-24.828v12.283h61.091l2.235-12.283h-24.598
		c-0.588,0-1.068-0.479-1.068-1.069v-24.158c0-0.59,0.48-1.07,1.068-1.07h22.362l2.252-12.53l-24.614,0.04
		c-0.3,0-0.549-0.104-0.756-0.32c-0.209-0.208-0.312-0.455-0.312-0.75V380.772z"/>
	<path fill-rule="evenodd" clip-rule="evenodd"  d="M728.407,542.022H713.17v-99.224
		c1.358-13.577,10.573-26.019,24.453-28.997c9.487-2.037,29.148-2.037,38.635,0c13.879,2.978,23.095,15.42,24.469,28.997v99.224
		h-15.253v-87.03c0-7.099-2.444-16.778-7.506-21.393c-2.444-2.204-5.383-3.275-8.466-3.851c-6.229-1.173-18.895-1.173-25.123,0
		c-3.066,0.575-6.022,1.646-8.449,3.851c-5.079,4.614-7.522,14.293-7.522,21.393V542.022z M435.314,542.007h77.941v-16.516h-58.057
		c-3.226,0.367-6.42-3.021-4.089-6.229l60.9-93.594c3.498-7.611-1.757-13.449-7.25-13.104h-78.037l3.481,16.21h55.054
		c4.76-0.183,5.542,3.889,3.642,6.532l-61.554,92.643C423.383,534.019,427.488,542.196,435.314,542.007z M632.307,490.106
		c0-8.129,1.869-13.144,12.297-12.672l43.379-0.345v48.64c-12.074,0.4-53.456,0.337-43.379,0.272
		c-2.363-0.112-12.297,0.688-12.297-11.436V490.106z M645.308,542.022h58.711v-86c0.208-20.052-5.957-38.459-27.023-42.333
		c-17.632-3.243-41.558-1.925-58.983,3.482l5.559,16.585c12.92-5.453,32.422-5.254,44.209-4.951
		c19.085,0.495,20.73,15.148,20.203,32.559l-45.327-0.08c-20.54,0.007-25.73,15.58-24.804,31.607l0.016,21.962
		C617.581,533.604,627.467,541.703,645.308,542.022z M593.799,542.022h14.47v-93.355c0.383-20.771-12.856-35.264-31.432-36.023
		l-40.488,0.017v-48.395l-14.246,2.181v175.576h14.246V429.15l38.684-0.262c16.546-0.113,17.489,12.25,18.048,25.554
		c0.096,2.387,0.144,4.782,0.175,7.179l0.416,44.608C593.783,518.016,593.976,530.233,593.799,542.022z"/>
	<path  d="M869.453,542.022h19.285L853.8,489.962c-1.58-2.172-3.29-4.28-4.887-6.428
		c-1.238-1.685-2.333-3.386-2.42-5.43c-0.081-1.973,0.838-3.737,1.939-5.407c1.422-2.124,3.02-4.145,4.521-6.229l35.785-53.729
		h-19.285l-39.539,58.942c-3.801,4.665-2.955,8.139,0.592,12.721L869.453,542.022z"/>
	<path fill-rule="evenodd" clip-rule="evenodd"  d="M824.819,364.099l-15.38,2.188v175.736h15.38
		C824.819,482.712,824.819,423.401,824.819,364.099"/>
	<path  d="M368.138,370.687H248.431c-15.828,0-28.78,12.953-28.78,28.796v119.699
		c0,15.828,12.953,28.794,28.78,28.794h119.707c15.828,0,28.797-12.966,28.797-28.794V399.483
		C396.935,383.64,383.966,370.687,368.138,370.687z M355.248,512.171h-80.161c-19.118-0.4-25.667-22.041-14.31-35.872l40.072-40.073
		c1.15-1.199,2.764-1.869,4.441-1.869c3.418,0,6.197,2.771,6.197,6.206c0,1.677-0.672,3.274-1.869,4.448l-37.55,37.646
		c-6.58,6.597-6.276,17.089,4.377,17.089l78.531,0.023c3.434,0,6.213,2.778,6.213,6.214
		C361.19,509.311,358.634,512.074,355.248,512.171z M355.792,442.359l-40.057,40.073c-1.166,1.189-2.779,1.868-4.457,1.868
		c-3.418,0-6.197-2.771-6.197-6.204c0-1.669,0.624-3.235,1.917-4.48l37.486-37.613c6.579-6.604,6.276-17.098-4.361-17.098
		l-78.532-0.024c-3.434,0-6.196-2.771-6.196-6.197c0-3.338,2.524-6.093,5.941-6.212l80.129,0.007
		C360.599,406.895,367.147,428.503,355.792,442.359z"/>
	<path fill-rule="evenodd" clip-rule="evenodd"  d="M1366.054,601.402c2.204,1.981,4.634,4.409,6.75,6.789
		l-23.848,1.167c4.091-3.724,8.179-8.498,11.876-13.48l-2.922-1.357c-3.603,5.621-8.954,11.341-10.527,12.824
		c-1.524,1.484-2.754,2.475-3.64,2.684c0.302,0.782,0.807,2.251,0.941,2.938c1.613-0.64,4.137-0.718,30.265-2.221
		c1.167,1.454,2.117,2.797,2.845,3.978l2.556-1.805c-2.333-3.737-7.546-9.231-11.962-13.05L1366.054,601.402z M1347.248,635.551
		h3.01v-2.491h22.275v2.395h3.137v-18.573h-28.422V635.551z M1372.533,619.755V630.2h-22.275v-10.445H1372.533z M1291.173,614.357
		c1.797-2.701,4.001-7.109,5.622-10.767l-3.146-0.925c-1.125,3.272-3.3,8-4.999,10.877L1291.173,614.357z M1267.638,603.688
		c1.759,3.385,3.562,7.842,4.234,10.493l2.833-0.941c-0.678-2.699-2.562-7.028-4.416-10.303L1267.638,603.688z M1302.104,616.639
		h-18.623v-16.002h16.101v-2.972h-35.186v2.972h16.019v16.002h-18.352v2.987h18.352v15.925h3.066v-15.925h18.623V616.639z
		 M1205.173,599.502c-0.582-1.47-1.478-3.467-2.25-5.078l-2.827,0.767c0.621,1.311,1.309,2.922,1.804,4.312h-18.855v2.621h39.188
		v-2.621H1205.173z M1192.629,603.24c0.988,1.66,2.252,3.912,2.882,5.222l2.651-1.117c-0.59-1.311-1.886-3.481-2.875-5.048
		L1192.629,603.24z M1219.708,608.829h-10.254c1.215-1.628,2.508-3.639,3.641-5.542l-3.153-0.718
		c-0.807,1.836-2.291,4.406-3.544,6.26h-20.694v26.675h2.876v-24.167h28.341v20.7c0,0.717-0.271,0.893-1.046,0.943
		c-0.662,0.047-3.314,0.079-6.197,0c0.401,0.67,0.808,1.611,0.943,2.298c3.865,0,6.069,0,7.378-0.414
		c1.264-0.4,1.71-1.12,1.71-2.827V608.829z M1216.018,618.637c-2.021-1.805-5.939-4.632-8.864-6.66l-1.748,1.79
		c3.002,2.122,6.884,5.143,8.863,6.979L1216.018,618.637z M1210.62,629.785v-10.079h-16.244v12.203h2.611v-2.124H1210.62z
		 M1208.097,621.99v5.511h-11.109v-5.511H1208.097z M1197.938,612.279c-2.027,2.251-5.135,4.632-7.824,6.357
		c0.495,0.525,1.254,1.836,1.483,2.283c2.779-1.932,6.246-4.936,8.547-7.65L1197.938,612.279z M1127.593,631.717
		c-2.701,0-3.234-0.527-3.234-3.146v-5.224h15.02v-22.265h-15.02v-6.466h-3.148v6.466h-14.621v25.062h3.107v-2.797h11.514v5.224
		c0,4.902,1.486,6.163,6.205,6.163h10.214c4.634,0,5.584-2.331,6.111-9.087c-0.934-0.224-2.148-0.767-2.974-1.31
		c-0.349,5.895-0.749,7.379-3.272,7.379H1127.593z M1124.358,620.473v-6.883h12.011v6.883H1124.358z M1136.369,604.008v6.803
		h-12.011v-6.803H1136.369z M1121.21,604.008v6.803h-11.514v-6.803H1121.21z M1109.696,620.473v-6.883h11.514v6.883H1109.696z
		 M1042.465,610.173h-6.085v2.746h3.338v15.109c-1.614,0.718-3.419,2.378-5.167,4.375l1.965,2.698
		c1.765-2.474,3.561-4.822,4.767-4.822c0.911,0,2.171,1.135,3.696,2.204c2.389,1.534,5.128,2.108,8.945,2.108
		c2.795,0,7.658-0.128,9.998-0.271c0.039-0.847,0.445-2.33,0.766-3.131c-3.025,0.337-7.696,0.527-10.661,0.527
		c-3.609,0-6.269-0.398-8.456-1.788c-1.398-0.863-2.252-1.63-3.105-2.046V610.173z M1031.22,629.289v-9.807h4.711v-2.602h-4.711
		v-6.534h3.37v-2.602h-8.992v2.602h2.914v6.534h-4.814v2.602h4.814v9.217c0,2.171-1.389,3.657-2.156,4.184
		c0.496,0.447,1.262,1.534,1.564,2.124v-0.177l0.058,0.177c0.63-0.813,1.669-1.629,8.321-6.165c-0.271-0.493-0.72-1.564-0.91-2.3
		L1031.22,629.289z M1035.627,602.521v-2.651h-6.715c0.543-1.437,0.949-2.971,1.358-4.455l-2.605-0.672
		c-0.9,4.09-2.53,8.241-4.646,10.926c0.504,0.591,1.356,1.996,1.59,2.57c1.205-1.58,2.291-3.561,3.234-5.718H1035.627z
		 M1042.872,604.102c-0.735-2.075-2.34-5.27-3.835-7.65l-2.428,0.91c1.438,2.381,3.019,5.655,3.69,7.763L1042.872,604.102z
		 M1053.3,629.832h2.837v-7.842h7.785v-2.698h-7.785v-6.373h6.706v-2.572h-6.706v-5.493h-2.837v5.493h-5.08
		c1.302-2.428,2.508-5.255,3.642-8.32h11.837v-2.698h-10.893c0.456-1.391,0.901-2.827,1.309-4.218l-3.019-0.64
		c-0.312,1.564-0.759,3.275-1.215,4.857h-6.036v2.698h5.136c-0.951,2.794-1.837,4.998-2.292,5.812
		c-0.718,1.613-1.351,2.78-2.068,2.972c0.407,0.752,0.814,2.108,0.989,2.732c0.361-0.353,1.67-0.624,3.412-0.624h4.278v6.373h-9.494
		v2.698h9.494V629.832z M971.319,630.232V595.19h-3.02v35.042h-7.835v-35.089h-3.002v35.089h-12.69v2.971h39.269v-2.971H971.319z
		 M955.035,620.346c-1.222-3.911-4.058-10.445-6.492-15.349l-2.732,0.864c2.381,4.981,5.128,11.688,6.198,15.555L955.035,620.346z
		 M980.358,605.124c-1.804,4.872-5.088,11.311-7.562,15.349l2.436,1.344c2.563-4.121,5.662-10.287,7.818-15.367L980.358,605.124z
		 M903.99,611.434h-11.244c1.301-1.95,2.7-4.409,3.905-6.613l-3.146-1.037c-0.848,2.251-2.42,5.526-3.737,7.65h-21.546v6.115
		c0,4.714-0.486,11.39-4.009,16.294c0.679,0.351,1.948,1.436,2.444,2.059c3.857-5.302,4.632-13.001,4.632-18.271v-3.273h32.701
		V611.434z M881.039,609.947c-0.75-1.756-2.46-4.456-4.048-6.388l-2.507,1.038c1.477,1.98,3.104,4.761,3.824,6.516L881.039,609.947z
		 M902.817,600.142h-15.11l0.353-0.128c-0.584-1.532-2.013-3.785-3.411-5.396l-2.875,0.797c1.11,1.39,2.195,3.289,2.916,4.728
		h-17.178v2.875h35.306V600.142z M805.262,594.12c-4.535,7.156-12.729,13.799-20.874,17.583c0.767,0.673,1.629,1.664,2.076,2.428
		c7.107-3.591,14.12-9.134,19.022-15.428c5.726,6.661,12.01,11.325,19.124,15.604c0.449-0.847,1.351-1.884,2.117-2.507
		c-7.331-4.025-14.038-8.689-19.612-15.3c0.272-0.369,0.527-0.767,0.799-1.167L805.262,594.12z M807.02,623.844h12.33v-2.7h-12.33
		v-7.283h12.242v-2.699H791.91v2.699h12.011v7.283h-11.787v2.7h11.787v7.683h-17.409v2.762h38.141v-2.762H807.02V623.844z
		 M649.54,594.647c-3.96,6.085-11.739,11.739-20.556,15.525c0.719,0.638,1.709,1.834,2.156,2.555
		c2.652-1.198,5.175-2.604,7.507-4.09v2.699h21.465v-2.778h-21.322c4.136-2.62,7.73-5.542,10.653-8.863
		c4.185,4.406,11.212,9.663,18.319,12.554c0.495-0.815,1.438-2.029,2.108-2.62c-7.378-2.604-14.71-7.636-18.75-11.964
		c0.495-0.591,0.894-1.214,1.293-1.787L649.54,594.647z M630.965,620.01h13.129c-3.004,4.2-6.565,7.938-7.779,9.056
		c-1.438,1.341-2.428,2.204-3.37,2.381c0.352,0.86,0.847,2.475,1.038,3.098c1.565-0.576,3.945-0.767,27.966-2.78
		c1.039,1.359,1.981,2.605,2.572,3.74l2.651-1.583c-1.98-3.371-6.244-8.273-10.254-11.834l-2.522,1.308
		c1.804,1.71,3.689,3.74,5.445,5.704l-21.194,1.678c3.29-3.067,6.532-6.885,9.455-10.767h19.837v-2.858h-36.974V620.01z
		 M736.393,622.356c-1.789,1.407-4.632,3.324-7.011,4.729c-1.485-1.533-2.795-3.241-3.737-5.126h15.524v-2.667h-9.535v-4.984h7.778
		v-2.604h-7.778v-4.182h-2.795v4.182h-9.408v-4.182h-2.778v4.182h-6.932v2.604h6.932v4.984h-8.241v2.667h5.079v7.729
		c0,1.948-1.293,2.891-2.156,3.339c0.462,0.574,1.134,1.803,1.261,2.554c0.815-0.574,2.204-0.94,13.719-3.817
		c-0.08-0.637,0-1.755,0.097-2.523l-10.03,2.286v-9.567h6.468c3.066,6.916,8.912,11.643,16.961,13.672
		c0.415-0.801,1.166-1.854,1.854-2.478c-4.105-0.847-7.603-2.377-10.445-4.485c2.427-1.279,5.27-3.021,7.426-4.728L736.393,622.356z
		 M719.431,614.308h9.408v4.984h-9.408V614.308z M738.422,606.929v-10.157h-33.285v13.097c0,7.188-0.415,17.138-4.903,24.182
		c0.718,0.271,2.013,1.085,2.603,1.531c4.632-7.329,5.271-18.126,5.271-25.713v-2.939H738.422z M735.404,599.423v4.854h-27.297
		v-4.854H735.404z M579.185,621.91c-1.438-2.698-4.583-7.01-7.203-10.207l-2.284,1.344c2.507,3.241,5.574,7.698,6.964,10.443
		L579.185,621.91z M586.245,601.676h-13.624c0.767-2.174,1.389-4.427,1.98-6.661l-2.891-0.623
		c-1.389,6.196-3.817,12.41-6.884,16.419c0.687,0.399,1.981,1.196,2.524,1.66c1.533-2.171,2.971-4.949,4.232-8.003h11.787
		c-0.59,18.259-1.309,25.19-2.794,26.755c-0.447,0.574-0.99,0.687-1.885,0.687c-0.99,0-3.69,0-6.612-0.272
		c0.543,0.8,0.895,2.014,0.99,2.907c2.524,0.144,5.08,0.224,6.612,0.097c1.485-0.144,2.523-0.497,3.418-1.711
		c1.805-2.153,2.428-9.038,3.146-29.689V601.676z M555.787,594.471c-0.352,2.125-1.166,5.176-1.932,7.299h-5v32.647h2.748v-3.61
		h12.601V601.77h-7.602c0.814-1.947,1.661-4.455,2.379-6.659L555.787,594.471z M551.603,628.122v-11.147h9.854v11.147H551.603z
		 M561.457,614.261h-9.854v-9.793h9.854V614.261z M497.155,631.99c-1.756,0-2.076-0.227-2.076-1.535v-13.623h12.331v-2.875h-18.08
		v-9.312h14.965v-2.875H489.33v-7.152h-3.019v7.152h-8.369c0.671-1.854,1.262-3.704,1.757-5.445l-3.067-0.59
		c-1.069,4.679-3.369,10.652-6.467,14.438c0.718,0.303,1.884,0.988,2.555,1.39c1.534-1.934,2.923-4.314,4.058-6.918h9.535v9.312
		h-18.08v2.875h11.915c-0.815,7.699-2.923,13.543-12.506,16.498c0.672,0.544,1.534,1.71,1.933,2.491
		c10.173-3.465,12.681-10.141,13.592-18.989h8.895v13.574c0,3.468,0.99,4.424,4.776,4.424h6.564c3.466,0,4.312-1.677,4.68-8.415
		c-0.862-0.24-2.109-0.734-2.747-1.261c-0.176,5.892-0.495,6.836-2.205,6.836H497.155z M418.527,627.756
		c3.066,2.347,6.884,5.669,8.785,7.748l1.837-1.854c-1.884-2.014-5.798-5.225-8.816-7.476L418.527,627.756z M417.187,609.229
		c-0.144,15.779-0.672,21.321-11.468,24.422c0.575,0.493,1.262,1.484,1.534,2.124c11.419-3.515,12.362-9.95,12.505-26.546H417.187z
		 M404.313,614.851l-0.495,0.144h-13.304v2.637h11.963c-1.486,3.114-3.738,6.9-5.526,9.454c-1.262-1.167-2.476-2.252-3.609-3.241
		l-2.028,1.484c3.385,2.924,7.475,7.075,9.407,9.773l2.156-1.771c-0.942-1.293-2.428-2.875-4.041-4.455
		c2.38-3.402,5.575-8.593,7.379-12.857L404.313,614.851z M395.273,607.521c1.582,1.611,3.466,3.912,4.36,5.397l2.077-1.39
		c-0.942-1.438-2.796-3.562-4.456-5.175L395.273,607.521z M408.194,607.919c-1.757-2.604-5.59-6.789-8.784-9.887
		c0.463-0.958,0.815-1.852,1.182-2.761l-2.651-0.704c-1.949,5.302-5.766,11.194-10.302,15.062c0.623,0.399,1.612,1.311,2.061,1.805
		c3.37-3.019,6.261-6.933,8.497-11.068c3.114,3.147,6.484,7.06,8.146,9.663L408.194,607.919z M409.855,604.725v21.053h2.699v-18.705
		h11.739v18.608h2.795v-20.956h-8.736c0.543-1.484,1.214-3.241,1.853-4.902h8.178v-2.697h-19.693v2.697h8.673
		c-0.495,1.58-1.118,3.465-1.709,4.902H409.855z M310.496,596.675v38.956h3.019v-2.301h30.762v2.301h3.114v-38.956H310.496z
		 M313.515,630.55v-31.095h30.762v31.095H313.515z M333.176,617.695c1.709,1.564,3.689,3.721,4.583,5.158l2.029-1.214
		c-0.895-1.437-2.923-3.545-4.632-5.031L333.176,617.695z M330.109,623.57v-7.952h9.264v-2.604h-9.264v-6.804h10.446v-2.698h-23.176
		v2.698h9.951v6.804h-8.689v2.604h8.689v7.952h-10.622v2.574h24.788v-2.574H330.109z M250.954,602.601v-8.033h-3.098v8.033h-16.292
		v21.067h2.971v-2.844h13.321v14.68h3.098v-14.68h13.368v2.619h3.051v-20.843H250.954z M234.536,617.853v-12.312h13.321v12.312
		H234.536z M250.954,617.853v-12.312h13.368v12.312H250.954z"/>
</g>
</svg>
