<?xml version="1.0" encoding="utf-8"?>
<!-- Generator: Adobe Illustrator 16.0.0, SVG Export Plug-In . SVG Version: 6.00 Build 0)  -->
<!DOCTYPE svg PUBLIC "-//W3C//DTD SVG 1.1//EN" "http://www.w3.org/Graphics/SVG/1.1/DTD/svg11.dtd">
<svg version="1.1" id="Layer_1" xmlns="http://www.w3.org/2000/svg" xmlns:xlink="http://www.w3.org/1999/xlink" x="0px" y="0px"
	 width="1600px" height="1000px" viewBox="0 0 1600 1000" enable-background="new 0 0 1600 1000" xml:space="preserve">
<g>
	<path fill-rule="evenodd" clip-rule="evenodd"  d="M1194.443,610.092c-1.291-0.054-2.582-0.154-3.873-0.154
		c-81.021-0.026-162.041-0.043-243.062-0.052c-0.714,0-1.427,0.124-2.14,0.188c-2.318-0.9-4.803,0.102-7.136-0.619
		c-9.845-0.58-19.414-2.267-28.555-6.236c-8.359-3.633-15.399-8.797-20.254-16.552c-1.579-2.525-2.438-2.833-4.584-0.567
		c-9.952,10.512-22.76,15.782-36.363,19.702c-6.308,1.816-12.763,2.499-19.164,3.631c-1.459,0.651-3.117-0.127-4.562,0.636
		c-0.694,0.014-1.388,0.025-2.084,0.039c-0.884-0.601-0.641-1.528-0.641-2.354c-0.012-14.355-0.013-28.71-0.009-43.065
		c0-0.721-0.017-1.44,0.484-2.037c7.203-2.903,14.129-6.134,19.549-12.069c3.697-4.05,5.482-8.899,6.261-13.97
		c0.369-2.42,1.837-4.837,0.971-7.443c0.659-1.217,0.364-2.539,0.364-3.811c0.017-47.434,0.017-94.868,0-142.301
		c0-1.274,0.277-2.594-0.355-3.815c-0.971-8.681-3.665-10.599-13.375-11.819c-4.373-0.549-8.879-0.064-13.324-0.048
		c-0.766-0.668-0.567-1.576-0.567-2.413c-0.011-13.634-0.012-27.267,0-40.901c0-0.836-0.198-1.745,0.567-2.413
		c11.677,0.015,23.352,0.029,35.027,0.043c1.718,0.854,3.646-0.058,5.383,0.638c7.517,1.528,15.066,2.771,21.886,6.756
		c11.388,6.658,16.887,16.996,17.778,29.569c2.153,30.414,0.503,60.898,0.949,91.349c0.195,13.366,0.123,26.735,0.172,40.104
		c0.606,5.995,0.091,12.006,0.283,18.009c0.051,1.554-0.34,3.151,0.358,4.658c0.295,27.247,23.8,50.717,50.863,50.785
		c1.654,0.757,3.406,0.368,5.105,0.368c76.545,0.022,153.09,0.019,229.634,0.021c5.146,0,5.15,0.005,5.15,5.024
		c0.002,12.373,0.025,24.747-0.036,37.12C1195.142,607.423,1195.863,608.977,1194.443,610.092z"/>
	<path fill-rule="evenodd" clip-rule="evenodd"  d="M903.415,287.879c-26.925,0.003-53.849,0.007-80.775,0.01
		c-0.948-0.776-0.606-1.857-0.607-2.818c-0.022-13.52,0.056-27.039-0.073-40.556c-0.025-2.741,0.602-3.731,3.548-3.718
		c25.023,0.111,50.048,0.074,75.071,0.046c2.027-0.004,3.561-0.071,3.535,2.818c-0.125,14.236-0.047,28.475-0.055,42.711
		C904.059,286.988,903.895,287.491,903.415,287.879z"/>
	<path fill-rule="evenodd" clip-rule="evenodd"  d="M1153.227,687.876c-3.591,0.593-4.397,3.171-4.395,6.259
		c0.013,12.783,0.049,25.568,0.079,38.352c-5.714,1.256-11.427,1.256-17.14,0c0.043-12.453,0.099-24.908,0.119-37.361
		c0.006-3.277-1.684-5.594-4.384-7.268c-1.368-0.892-3.013,0.021-4.411-0.675c-3.168-0.832-6.223,0.341-9.266,0.765
		c-2.959,0.41-3.902,3.007-3.895,5.838c0.032,12.062,0.062,24.127,0.094,36.19c-0.3,2.148-0.918,3.692-3.711,3.314
		c-4.444-0.603-9.02,0.829-13.429-0.749c0.041-13.942,0.086-27.885,0.122-41.827c0.036-13.845,6.45-17.073,15.411-18.543
		c15.243-0.55,30.492-0.144,45.738-0.209c6.032-0.027,12.075-0.343,18.103,0.224c11.975,3.314,15.55,7.997,15.562,20.439
		c0.012,13.359,0.001,26.715,0.001,40.073c-4.93,1.181-9.934,0.323-14.9,0.499c-2.592,0.093-1.871-2.052-1.877-3.452
		c-0.05-10.607-0.014-21.214-0.043-31.821c-0.004-1.412,0.31-2.87-0.352-4.237c-0.317-2.78-2.071-4.485-4.344-5.804
		c-1.332-0.949-2.964-0.002-4.336-0.686c-1.464-0.003-2.927-0.008-4.389-0.012C1156.208,687.89,1154.568,686.938,1153.227,687.876z"
		/>
	<path fill-rule="evenodd" clip-rule="evenodd"  d="M451.002,732.678c0.009-11.738,0.137-23.479-0.039-35.213
		c-0.062-4.145-0.221-8.674-5.864-9.621c-3.566-0.611-7.132-0.628-10.698,0.006c-3.313,0.121-4.972,1.864-5.055,5.154
		c-0.922,5.525-0.289,11.092-0.388,16.638c-0.121,6.716-0.118,13.438,0.018,20.152c0.05,2.483-0.477,3.747-3.28,3.481
		c-4.509-0.428-9.088,0.59-13.577-0.562c0.003-13.956,0.049-27.91-0.004-41.865c-0.039-10.293,3.452-16.191,14.734-18.25
		c0.848-0.153,1.705-0.258,2.558-0.385c7.415-0.646,14.844-0.269,22.264-0.243c12.426,0.041,24.855-0.396,37.277,0.238
		c7.378,1.245,14.387,3.097,16.779,11.521c0.854,3.007,1.243,6.113,1.241,9.276c-0.006,13.181,0.058,26.362,0.097,39.542
		c-5.721,1.125-11.439,1.217-17.153-0.057c0.041-12.216,0.19-24.436,0.072-36.648c-0.051-5.232-1.788-6.977-6.762-8.024
		c-3.057-0.564-6.114-0.604-9.17,0.009c-3.451,0.466-6.25,1.587-5.88,5.876c-0.847,10.004-0.22,20.022-0.343,30.034
		c-0.118,9.503-0.026,9.557-9.682,9.468C455.771,733.182,453.308,733.828,451.002,732.678z"/>
	<path fill-rule="evenodd" clip-rule="evenodd"  d="M590.985,732.49c0.048-11.788,0.174-23.58,0.108-35.368
		c-0.025-4.62-1.893-8.185-6.874-9.288c-3.884-0.621-7.768-0.621-11.652,0c-5.55,1.039-6.79,2.578-6.783,8.421
		c-0.837,10.586-0.156,21.188-0.352,31.783c-0.109,5.903,0.534,5.278-5.375,5.154c-3.807-0.081-7.677,0.741-11.429-0.552
		c0.033-13.216-0.057-26.436,0.131-39.65c0.205-14.416,5.109-19.117,18.004-20.78c7.463-0.464,14.927-0.438,22.391-0.017
		c9.226,1.108,16.143,5.057,18.289,14.87c0.729,1.438-0.125,3.11,0.677,4.538c0.003,13.629,0.007,27.259,0.011,40.889
		C602.415,733.738,596.7,733.738,590.985,732.49z"/>
	<path fill-rule="evenodd" clip-rule="evenodd"  d="M976.109,687.869c-5.32,0.391-8.129,4.707-7.799,9.345
		c0.275,3.856-0.025,7.752,0.137,11.621c0.236,5.62,3.922,9.216,9.562,9.278c8.757,0.096,17.517,0.152,26.27-0.015
		c2.813-0.055,3.811,0.725,3.671,3.591c-0.176,3.569,0.087,7.161,0.16,10.743c-0.267,0.295-0.327,0.769-0.91,0.765
		c-11.471-0.056-22.944,0.348-34.412-0.218c-3.466-0.332-6.895-0.633-10.24-1.868c-9.361-3.457-12.281-10.782-12.402-19.92
		c-0.458-5.445-0.425-10.895-0.018-16.342c0.384-5.451,0.7-10.665,4.708-15.292c4.714-5.441,10.976-5.835,17.13-7.058
		c1.115-0.223,2.276-0.212,3.415-0.311c10.604-0.553,21.214-0.162,31.822-0.211c0.586-0.003,0.638,0.473,0.899,0.771
		c-0.349,4.63-0.35,9.258,0,13.888c-1.171,1.659-2.878,0.718-4.305,0.772C994.573,687.77,985.328,686.913,976.109,687.869z"/>
	<path fill-rule="evenodd" clip-rule="evenodd"  d="M536.433,672.676c-0.002,19.938-0.003,39.878-0.004,59.816
		c-5.713,1.27-11.432,1.178-17.154,0.058c-0.001-19.978-0.002-39.956-0.003-59.934C524.996,671.511,530.716,671.413,536.433,672.676
		z"/>
	<path fill-rule="evenodd" clip-rule="evenodd"  d="M914.342,712.158c6.688,0,13.375,0,20.063,0
		c1.507,2.041,0.727,4.386,0.688,6.553c-0.084,4.698,0.67,9.431-0.417,14.1l0.051-0.051c-6.903,0.789-13.806,0.789-20.709,0
		l0.051,0.051C913.479,725.917,912.901,719.023,914.342,712.158z"/>
	<path fill-rule="evenodd" clip-rule="evenodd"  d="M536.439,646.891c-0.095,4.154-0.294,8.31-0.242,12.463
		c0.029,2.419-0.857,3.349-3.286,3.256c-3.586-0.139-7.188-0.162-10.771,0.007c-2.398,0.114-2.88-0.939-2.833-3.056
		c0.095-4.306-0.021-8.617-0.051-12.926C524.998,645.778,530.734,645.293,536.439,646.891z"/>
	<g>
		<path  d="M1194.724,266.339c0.001,0.005,0.001,0.011,0.003,0.016c0.01,0.006,0.021,0.009,0.03,0.016
			L1194.724,266.339z"/>
		<path  d="M1195.146,302.024c0.075-8.192,0.106-16.387,0.009-24.579c-0.045-3.696,0.525-7.427-0.428-11.091
			c-1.305-0.825-2.756-0.414-4.134-0.42c-8.835-0.043-17.669,0.03-26.502-0.079c-1.258-0.016-3.985,1.187-3.051-2.202
			c1.168-7.464,2.785-14.823,5.151-22.008c-0.275-0.289-0.353-0.751-0.931-0.748c-14.917,0.073-29.838-0.351-44.755,0.229
			c-7.063,0.942-13.903,2.548-17.475,9.577c-2.334,4.593-3.338,9.711-4.363,14.761c-0.891,0.679-1.931,0.438-2.914,0.438
			c-24.714,0.012-49.426,0.012-74.14,0c-0.984,0-2.024,0.235-2.917-0.436c-0.728-2.446-1.628-4.854-2.152-7.342
			c-2.246-10.684-9.24-15.788-19.643-17.001c-14.598-0.584-29.2-0.142-43.801-0.235c-0.534-0.003-0.715,0.395-1.03,0.654
			c1.732,7.65,3.464,15.298,5.196,22.948c-0.222,2.495-2.166,1.353-3.287,1.366c-9.04,0.101-18.085,0.175-27.123-0.009
			c-3.043-0.063-3.876,0.904-3.832,3.886c0.163,11.049,0.047,22.101,0.094,33.152c0.006,1.048-0.588,2.33,0.704,3.128
			c0.57-0.053,1.141-0.155,1.71-0.156c34.045-0.009,68.09-0.011,102.134,0.005c0.988,0.001,1.977,0.224,2.964,0.342
			c0.99,6.851,0.249,13.739,0.42,20.607c0.116,4.739,0.015,4.752-4.521,4.753c-17.687,0.004-35.373,0.012-53.06-0.017
			c-1.407-0.002-2.88,0.377-4.222-0.409c-7.155-5.421-15.428-7.783-24.182-8.823c-4.148-0.563-8.317-0.198-12.477-0.229
			c-5.597-0.042-5.178-0.687-5.178,4.968c-0.004,53.475-0.004,106.95,0.009,160.424c0,1.428-0.215,2.877,0.241,4.282
			c0.057,7.703,1.742,15.059,4.491,22.234c3.448,9.003,8.883,16.191,17.445,21.016c8.321,4.688,17.185,7.202,26.64,7.897
			c1.734,0.725,3.668-0.205,5.387,0.651c51.644-0.007,103.288-0.012,154.933-0.019c1.467-0.726,3.134,0.009,4.613-0.626
			c2.112-0.355,4.228-0.703,6.337-1.072c13.674-2.385,25.247-8.326,33.355-19.962c6.475-9.292,8.344-20.075,9.75-30.984
			c0.058-54.342,0.115-108.684,0.172-163.027c0.004-5.556-0.004-5.562-5.516-5.56c-4.022,0.003-8.047,0.024-12.069,0.037
			c-8.191,1.213-16.06,3.309-22.715,8.568c-1.12,0.884-2.322,0.983-3.635,0.982c-20.147-0.009-40.294-0.045-60.442,0.043
			c-2.473,0.01-3.21-0.763-3.157-3.192c0.144-6.474,0.2-12.957-0.019-19.426c-0.1-2.967,1.008-3.568,3.715-3.531
			c10.215,0.136,20.434,0.04,30.651,0.057c25.612,0.044,51.225,0.102,76.836,0.155
			C1195.876,304.902,1195.133,303.346,1195.146,302.024z M1137.595,486.687c-0.929,10.842-5.887,16.261-16.698,16.31
			c-41.599,0.189-83.2,0.187-124.801,0.022c-10.615-0.042-15.91-5.911-16.432-16.532c-0.159-3.24,0.507-4.433,4.112-4.407
			c25.046,0.17,50.093,0.089,75.141,0.089c24.759,0,49.519,0.078,74.276-0.083C1136.857,482.063,1137.901,483.091,1137.595,486.687z
			 M1132.965,446.723c-30.784-0.118-61.568-0.069-92.354-0.069c-18.988,0-37.977-0.082-56.965,0.079
			c-3.3,0.027-4.238-0.935-4.024-4.135c0.274-4.153,0.322-8.36-0.012-12.504c-0.29-3.598,1.163-4.201,4.382-4.186
			c24.742,0.119,49.485,0.066,74.229,0.066c25.029,0,50.06,0.062,75.09-0.074c3.365-0.019,4.59,0.835,4.333,4.299
			c-0.299,4.005-0.324,8.072,0.004,12.072C1137.958,446.062,1136.383,446.736,1132.965,446.723z M1132.924,370.075
			c3.905-0.029,5.011,1.114,4.724,4.86c-0.318,4.146-0.16,8.339-0.04,12.506c0.064,2.237-0.763,3.213-2.998,3.013
			c-0.714-0.064-1.438-0.006-2.158-0.006c-49.336,0-98.674-0.038-148.011,0.079c-3.618,0.008-5.262-0.604-4.836-4.64
			c0.392-3.699,0.312-7.49,0.018-11.206c-0.276-3.5,0.738-4.624,4.429-4.598c24.738,0.169,49.479,0.088,74.221,0.088
			C1083.155,370.171,1108.04,370.264,1132.924,370.075z"/>
	</g>
	<path fill-rule="evenodd" clip-rule="evenodd"  d="M778.438,300.918c0-0.574,0.067-1.148,0.104-1.721
		c-0.643-4.81-0.983-9.684-1.986-14.417c-2.958-13.948-9.655-25.439-21.995-33.361c-10.448-6.707-22.176-8.696-34.093-10.281
		c-1.538-0.521-3.126-0.263-4.689-0.264c-23.344-0.019-46.688-0.018-70.031,0c-1.563,0.001-3.151-0.251-4.69,0.258
		c-6.263,0.623-12.494,1.454-18.635,2.878c-11.944,2.767-22.122,8.229-29.087,18.753c-5.244,7.923-7.674,16.738-8.612,26.065
		c-0.648,1.448,0.147,3.1-0.637,4.529c-0.078,3.386-0.156,6.772-0.234,10.158c-0.508,1.694-0.249,3.432-0.249,5.146
		c-0.015,69.2-0.009,138.399-0.032,207.6c-0.001,1.699,0.387,3.45-0.364,5.105c-0.923,9.175-3.187,17.998-8.309,25.73
		c-6.125,9.247-14.796,15.596-25.275,18.956c-4.297,1.378-5.313,3.315-5.232,7.514c0.237,12.372-0.004,24.753-0.059,37.132
		c2.482,1.467,5.102,0.641,7.682,0.462c11.569-0.517,22.759-2.743,33.559-7.028c15.319-6.081,27.763-15.682,36.843-29.503
		c7.752-11.799,11.352-25.064,13.578-38.804c0.648-1.443-0.154-3.093,0.638-4.517c0.077-3.103,0.153-6.204,0.229-9.305
		c0.878-5.708-0.456-11.507,0.708-17.203c28.562-0.069,57.124-0.12,85.686-0.244c2.313-0.011,2.488,1.154,2.474,2.948
		c-0.096,12.343-0.135,24.685-0.191,37.026c-0.644,1.46,0.128,3.115-0.63,4.56c-1.546,11.617-9.771,16.601-17.125,17.083
		c-1.428,0.785-3.078-0.013-4.524,0.637c-5.454,0.079-10.913,0.323-16.361,0.173c-2.839-0.077-3.632,0.8-3.604,3.623
		c0.138,13.504,0.059,27.008,0.058,40.512c13.235,0.562,26.471,0.453,39.707,0.051c4.304,0.04,8.437-1.016,12.582-1.983
		c12.88-3.005,23.94-8.821,32.024-19.753c7.269-9.828,9.722-21.101,10.876-32.876c-0.022-14.392-0.061-28.784-0.065-43.177
		C778.454,442.559,778.445,371.738,778.438,300.918z M637.46,305.279c1.286-9.957,6.709-15.406,16.675-16.279
		c17.787-1.555,35.669-1.666,53.445,0.023c10.951,1.042,17.485,8.497,17.923,19.809c0.479,12.358,0.104,24.75,0.25,37.125
		c0.033,2.822-1.657,2.445-3.374,2.444c-13.672-0.003-27.345-0.001-41.017-0.001c-13.672,0-27.344,0.02-41.017-0.029
		c-1.505-0.005-3.7,0.861-3.62-2.138C637.094,332.58,635.705,318.867,637.46,305.279z M725.775,452.436
		c0.025,3.073-0.562,4.18-3.953,4.162c-27.048-0.152-54.098-0.146-81.146-0.006c-3.3,0.018-4.047-0.942-4.019-4.109
		c0.154-17.407,0.188-34.819-0.021-52.225c-0.043-3.618,1.208-4.222,4.42-4.185c13.379,0.157,26.76,0.066,40.141,0.066
		c13.381,0,26.764,0.14,40.14-0.09c3.694-0.063,4.485,1.104,4.449,4.594C725.612,417.905,725.636,435.172,725.775,452.436z"/>
	<path fill-rule="evenodd" clip-rule="evenodd"  d="M560.605,498.45c-0.057-0.713-0.164-1.428-0.164-2.141
		c0.001-81.042,0.01-162.083,0.02-243.125c0-0.863-0.079-1.735,0.014-2.589c0.252-2.317-0.47-3.429-3.063-3.289
		c-4.021,0.217-8.082-0.144-12.082,0.218c-9.556,0.863-18.875,2.6-26.405,9.3c-0.883,0.692-1.922,0.44-2.901,0.44
		c-22.477,0.012-44.954,0.012-67.431,0.001c-0.985,0-2.015,0.208-2.925-0.395c-4.353-2.57-8.385-5.589-13.417-7.055
		c-8.883-2.588-17.912-2.568-26.99-2.477c-0.939,1.458-0.469,3.085-0.469,4.624c-0.027,83.115-0.025,166.229-0.014,249.346
		c0,1.426-0.227,2.876,0.257,4.278c0.406,5.312,1.2,10.508,2.884,15.625c3.443,10.46,8.98,19.266,18.042,25.813
		c10.096,7.296,21.602,10.143,33.683,11.438c1.717,0.726,3.643-0.237,5.339,0.658c11.652-0.009,23.304-0.016,34.956-0.022
		c1.735-0.825,3.67,0.062,5.42-0.633c4.166,0.132,8.096-1.193,12.082-2.068c13.866-3.045,25.574-9.587,33.355-21.839
		c5.754-9.06,7.803-19.378,9.193-29.842C560.674,502.677,559.738,500.475,560.605,498.45z M508.948,431.774
		c-0.015,10.215-0.007,20.432-0.007,30.646c-0.016,0-0.032,0-0.048,0c0,9.784,0.129,19.57-0.032,29.351
		c-0.205,12.422-6.105,18.584-18.452,19.164c-7.307,0.343-14.695,0.969-21.916-0.742c-8.106-1.92-12.979-7.222-13.12-15.502
		c-0.362-21.288-0.213-42.585-0.331-63.878c-0.012-2.149,0.919-2.681,2.863-2.676c16.114,0.042,32.23,0.078,48.344-0.023
		C509.24,428.095,508.951,429.862,508.948,431.774z M505.327,380.443c-15.543-0.115-31.088-0.148-46.63,0.021
		c-3.234,0.035-3.718-1.193-3.685-4.003c0.135-11.368,0.056-22.739,0.056-34.108c0-11.082,0.085-22.166-0.058-33.246
		c-0.037-2.839,0.501-4.01,3.705-3.976c15.542,0.167,31.087,0.136,46.629,0.018c2.738-0.02,3.677,0.634,3.662,3.545
		c-0.119,22.739-0.12,45.479,0,68.218C509.023,379.845,508.043,380.463,505.327,380.443z"/>
	<path fill-rule="evenodd" clip-rule="evenodd"  d="M682.431,693.611c-0.001-2.879-0.605-5.678-1.47-8.401
		c-2.705-8.519-9.46-11.646-17.511-12.999c-7.752-0.463-15.505-0.46-23.258-0.001c-11.968,1.324-18.961,6.33-20.052,18.317
		c-0.451,7.175-0.431,14.35-0.015,21.524c0.447,7.416,2.291,14.096,9.29,18.199c3.895,2.283,8.21,2.408,12.508,2.729
		c6.647,0.596,13.309,0.09,19.96,0.271c1.5,0.04,3.511-0.375,2.537,2.363c-0.78,5.776-3.339,8.354-9.046,8.453
		c-9.579,0.165-19.164,0.19-28.743,0.055c-2.827-0.043-3.786,0.796-3.632,3.626c0.194,3.563-0.022,7.146-0.061,10.719
		c0.31,0.265,0.482,0.668,1.021,0.663c12.875-0.102,25.754,0.365,38.627-0.252c1.57-0.685,3.255-0.263,4.964-0.861
		c10.905-3.806,14.438-10.309,14.769-21.648C682.734,722.126,682.438,707.865,682.431,693.611z M649.156,717.933
		c-9.291-0.28-11.552-2.632-11.559-12.048c-0.002-3.453-0.105-6.912,0.063-10.358c0.252-5.144,2.596-7.798,7.614-8.239
		c3.712-0.325,7.496-0.337,11.208-0.022c4.9,0.415,7.433,3.078,8.083,8.009c0.318,2.414,0.344,4.868,0.503,7.305
		C664.927,716.378,662.9,718.35,649.156,717.933z"/>
	<path fill-rule="evenodd" clip-rule="evenodd"  d="M757.223,648.341c0.019-2.025-1-2.368-2.687-2.342
		c-3.733,0.058-7.476,0.169-11.199-0.032c-2.642-0.144-3.509,0.732-3.44,3.393c0.165,6.315-0.075,12.641,0.113,18.954
		c0.083,2.789-0.705,3.709-3.589,3.69c-7.31-0.043-14.629-0.425-21.935,0.209c-2.25,0.426-4.551,0.679-6.744,1.308
		c-8.897,2.551-12.324,8.193-12.844,15.429c-0.624,8.701-0.226,17.485-0.039,26.229c0.056,2.58,0.81,5.114,2.189,7.476
		c4.314,7.394,11.039,10.106,19.164,10.31c6.602,0.462,13.203,0.462,19.804,0c1.75-0.683,3.601-0.197,5.449-0.631
		c9.474-2.223,14.024-8.536,15.447-17.683C757.568,692.55,757.009,670.443,757.223,648.341z M739.448,700.211
		c-0.008,0.863-0.001,1.727-0.001,2.589c0,13.463-1.691,15.146-15.17,15.11c-9.422-0.025-12.303-2.939-12.229-12.463
		c0.027-3.448,0.064-6.903,0.296-10.34c0.146-2.181,0.727-4.505,2.724-5.637c6.294-3.569,13.177-3.282,19.602-1.119
		C739.981,690.14,739.487,695.566,739.448,700.211z"/>
	<g>
		<path  d="M825.207,689.673c-1.154-6.206-3.399-11.726-9.464-14.768c-3.606-1.81-7.577-2.152-11.486-2.718
			c-5.54-0.58-11.098-0.275-16.642-0.206c-5.368,0.068-10.765-0.646-16.106,0.413c-0.688,4.589-0.848,9.175,0.056,13.757
			c8.479,0.007,16.959-0.059,25.437,0.044c7.312,0.09,9.451,1.684,9.817,6.893c-1.461,0.842-3.055,0.376-4.584,0.424
			c-7.077,0.221-14.167-0.359-21.237,0.325c-6.714,1.088-11.859,4.282-13.226,11.323c-0.692,3.568-0.078,7.374-0.397,11.042
			c-0.313,3.599,1.209,6.593,2.74,9.522c3.202,6.122,9.103,6.989,15.207,7.243c7.463,0.454,14.928,0.437,22.392,0.012
			c8.812-0.409,14.838-4.511,17.447-13.149C825.665,709.778,825.573,699.726,825.207,689.673z M802.077,719.33
			c-1.859,0.133-3.724,0.184-5.59,0.276c-1.865-0.108-3.726-0.239-5.588-0.327c-3.916-0.188-5.617-2.334-5.588-6.139
			c0.029-3.849,1.979-5.916,5.75-6.064c3.583-0.138,7.181-0.126,10.764,0.022c3.72,0.152,5.862,2.112,5.86,5.98
			C807.683,716.799,805.938,719.053,802.077,719.33z"/>
		<path  d="M771.477,672.399c0.01-0.002,0.021-0.005,0.032-0.005c0.001-0.012,0.002-0.022,0.005-0.034
			L771.477,672.399z"/>
	</g>
	<path fill-rule="evenodd" clip-rule="evenodd"  d="M898.621,692.258c-2.07-12.907-6.822-17.659-20.072-20.073
		c-6.887-0.401-13.773-0.44-20.658,0.017c-6.832,1.063-13.304,2.532-17.342,9.188c-2.27,3.742-2.213,7.737-2.726,11.732
		c-0.421,5.735-0.434,11.471,0.008,17.203c0.414,6.799,1.804,13.269,7.321,17.899c4.905,4.114,10.926,4.769,17.061,4.763
		c4.584,0.413,9.167,0.438,13.751-0.019c15.382-1.56,21.4-7.573,22.657-22.645C899.037,704.301,899.037,698.279,898.621,692.258z
		 M865.821,717.49c-7.24-0.183-10.522-3.381-10.7-10.547c-0.082-3.301-0.029-6.607-0.001-9.91c0.01-1.002,0.025-2.028,0.235-3.002
		c1.132-5.221,5.617-7.24,14.956-6.795c7.094,0.338,10.323,2.611,10.878,7.957c0.249,2.413,0.042,4.874,0.042,7.316
		C881.402,715.989,879.482,717.836,865.821,717.49z"/>
	<path fill-rule="evenodd" clip-rule="evenodd"  d="M1080.078,689.554c-0.306-2.851-1.255-5.501-2.713-8.013
		c-3.703-6.378-10.067-7.931-16.537-9.345c-6.886-0.439-13.771-0.423-20.658-0.007c-12.451,1.644-18.33,5.798-20.066,18.341
		c-0.416,7.464-0.46,14.929,0.03,22.393c0.438,3.501,1.162,6.941,2.913,10.039c4.341,7.676,11.528,9.853,19.713,10.018
		c4.87,0.429,9.74,0.417,14.611,0.005c1.002-0.085,2.003-0.182,3.005-0.258c9.821-0.73,17.341-6.431,19.229-15.341
		C1081.547,708.221,1081.074,698.85,1080.078,689.554z M1048.287,717.494c-7.764-0.139-10.925-3.244-11.065-11.052
		c-0.065-3.729-0.04-7.472,0.149-11.198c0.21-4.113,2.537-6.557,6.536-7.433c0.421-0.092,0.844-0.178,1.267-0.256
		c13.802-2.534,18.372,1.2,18.373,15.009C1063.548,715.788,1061.561,717.729,1048.287,717.494z"/>
</g>
</svg>
