<?xml version="1.0" encoding="utf-8"?>
<!-- Generator: Adobe Illustrator 16.0.0, SVG Export Plug-In . SVG Version: 6.00 Build 0)  -->
<!DOCTYPE svg PUBLIC "-//W3C//DTD SVG 1.1//EN" "http://www.w3.org/Graphics/SVG/1.1/DTD/svg11.dtd">
<svg version="1.1" id="Layer_1" xmlns="http://www.w3.org/2000/svg" xmlns:xlink="http://www.w3.org/1999/xlink" x="0px" y="0px"
	 width="1600px" height="1000px" viewBox="0 0 1600 1000" enable-background="new 0 0 1600 1000" xml:space="preserve">
<g>
	<path  d="M418.234,326.542l-150.218,86.729v173.454l150.218,86.732l150.22-86.732V413.271L418.234,326.542z
		 M414.651,619.265l-101.494-58.601V443.509l101.494,58.563V619.265z M316.706,437.283l101.529-58.617l101.529,58.617
		l-101.529,58.578L316.706,437.283z M523.314,560.664l-101.495,58.601V502.072l101.495-58.563V560.664z"/>
	<path  d="M756.57,490.867h-66.365v9.582h66.365v15.509h-52.392v43.54h33.175
		c1.163,16.847-15.429,28.155-49.77,33.964c2.908,3.48,4.649,6.968,5.24,10.451c37.246-5.808,55.587-20.614,55.01-44.415h27.068
		v20.031c-0.585,13.352,6.115,19.732,20.084,19.16h20.082c12.797,0.572,20.369-4.941,22.7-16.549
		c1.746-4.071,2.624-9.278,2.624-15.675c-0.593,0-1.462-0.281-2.624-0.871c-3.491-1.156-6.105-2.025-7.854-2.614
		c0,6.396-0.876,11.909-2.624,16.549c-1.173,6.97-6.109,10.152-14.847,9.58H798.48c-9.322,0.572-13.683-2.913-13.1-10.445v-19.166
		h33.183v-43.54h-51.519v-15.509h66.364v-9.582h-66.364v-13.935H756.57V490.867z M875.318,591.016c-4.082,0-7.29-4.362-9.606-13.065
		c-5.237-13.933-7.57-45.282-6.984-94.052v-20.896H707.666v9.575h140.581v8.715c-0.589,53.417,1.748,86.208,6.986,98.397
		c4.653,15.68,11.354,23.22,20.086,22.647c8.732,0.572,14.252-5.526,16.589-18.289c1.156-3.482,2.316-10.147,3.493-20.029
		c0.574-3.489,0.869-6.382,0.869-8.706c-1.169,0-3.489-0.572-6.984-1.747c-1.747-0.57-2.917-0.869-3.487-0.869
		c-1.181,12.191-2.624,21.491-4.368,27.869C880.843,587.534,878.81,591.016,875.318,591.016 M808.082,550.791h-92.557v-25.257
		h92.557V550.791z M684.091,458.648c4.068,3.483,6.987,6.392,8.733,8.709c15.131-13.937,27.355-28.741,36.67-44.417h154.556v-8.71
		H734.739c2.904-5.223,5.523-10.448,7.852-15.671l-11.343-2.615C720.18,420.33,704.461,441.227,684.091,458.648 M726.88,447.326
		h137.957v-8.707H726.88V447.326z"/>
	<path  d="M936.439,521.348h69.85v61.828H914.61v11.322h195.588v-11.322h-91.681v-61.828h68.979v-10.453H936.439
		V521.348z M1012.408,426.428h-96.924v40.053h12.222v-29.6h169.398v29.6h12.223v-40.053h-95.174l10.478-4.359
		c-3.493-8.708-7.284-17.418-11.355-26.122l-11.349,4.355C1005.422,409.008,1008.913,417.723,1012.408,426.428 M909.371,503.059
		c2.907,3.485,5.528,6.968,7.861,10.451c25.024-14.502,50.343-31.632,75.963-51.378l-8.732-8.714
		C957.68,473.755,932.646,490.295,909.371,503.059 M1115.439,502.188c-26.192-18.57-51.226-34.833-75.096-48.77l-6.984,8.714
		c22.704,14.516,47.441,31.351,74.221,50.509L1115.439,502.188z"/>
	<path  d="M1191.403,560.535h87.315V454.291h-87.315V560.535z M1319.76,421.2v151.525
		c0.568,13.346-6.112,19.729-20.082,19.16c-13.977,0-23.882-0.297-29.686-0.869c1.154,4.64,1.744,8.993,1.744,13.059
		c13.379,0,23.569-0.297,30.56-0.871c19.783,0,29.688-9.574,29.688-28.732V409.878H1209.74V421.2H1319.76z M1267.368,550.086
		h-63.741v-37.445h63.741V550.086z M1267.368,502.188h-63.741v-36.572h63.741V502.188z M1140.756,604.074h12.228V439.489h-12.228
		V604.074z M1166.952,419.462c6.4,6.392,11.054,11.32,13.972,14.798l10.479-8.704c-4.664-4.644-11.354-11.322-20.082-20.031
		c-4.082-4.057-6.982-6.962-8.735-8.711l-9.603,7.845C1155.891,407.567,1160.538,412.492,1166.952,419.462"/>
</g>
</svg>
