<?xml version="1.0" encoding="utf-8"?>
<!-- Generator: Adobe Illustrator 16.0.0, SVG Export Plug-In . SVG Version: 6.00 Build 0)  -->
<!DOCTYPE svg PUBLIC "-//W3C//DTD SVG 1.1//EN" "http://www.w3.org/Graphics/SVG/1.1/DTD/svg11.dtd">
<svg version="1.1" id="Layer_1" xmlns="http://www.w3.org/2000/svg" xmlns:xlink="http://www.w3.org/1999/xlink" x="0px" y="0px"
	 width="500px" height="93.596px" viewBox="0 0 500 93.596" enable-background="new 0 0 500 93.596" xml:space="preserve">
<g>
	<path fill="#231F20" d="M337.727,92.872h-22.386l-25.016-35.153h-11.06v35.153h-18.164V0.716h37.258
		c3.859,0,7.503,0.746,10.929,2.238c3.416,1.493,6.426,3.529,9.021,6.12c2.581,2.592,4.65,5.596,6.184,9.021
		c1.532,3.422,2.31,7.107,2.31,11.058c0,5.791-1.499,10.99-4.486,15.601c-2.978,4.61-6.881,8.011-11.711,10.204L337.727,92.872z
		 M294.934,39.555c4.654,0,8.075-1.029,10.274-3.097c2.191-2.06,3.29-4.497,3.29-7.305s-1.099-5.201-3.29-7.177
		c-2.199-1.975-5.62-2.962-10.274-2.962h-15.668v20.54H294.934z"/>
	<path fill="#231F20" d="M388.335,40.768h35.914v39.063c-4.983,4.458-10.16,7.864-15.531,10.221
		c-5.378,2.363-11.298,3.544-17.765,3.544c-7.079,0-13.506-1.33-19.271-4.001c-5.77-2.664-10.684-6.159-14.745-10.484
		c-4.064-4.329-7.188-9.286-9.377-14.878c-2.183-5.593-3.277-11.361-3.277-17.303c0-7.082,1.336-13.524,4-19.338
		c2.665-5.809,6.16-10.748,10.491-14.812c4.321-4.063,9.279-7.21,14.879-9.439C379.24,1.111,385.008,0,390.953,0
		c6.204,0,12.232,1.265,18.09,3.8c5.854,2.536,11.181,6.206,15.992,11.011l-12.453,13.11c-3.231-3.06-6.713-5.443-10.42-7.144
		c-3.718-1.704-7.451-2.556-11.209-2.556c-3.935,0-7.623,0.742-11.078,2.227c-3.452,1.488-6.468,3.539-9.046,6.16
		c-2.581,2.624-4.61,5.682-6.091,9.176c-1.49,3.495-2.23,7.211-2.23,11.146c0,3.93,0.74,7.623,2.23,11.074
		c1.48,3.459,3.51,6.473,6.091,9.049c2.578,2.574,5.594,4.606,9.046,6.089c3.455,1.488,7.144,2.229,11.078,2.229
		c2.625,0,5.238-0.369,7.862-1.115c2.625-0.736,5.069-1.76,7.343-3.074V58.987h-17.823V40.768z"/>
	<rect y="75.359" fill="#231F20" width="58.264" height="17.483"/>
	<rect y="38.041" fill="#EC2D88" width="58.264" height="17.475"/>
	<rect y="0.716" fill="#231F20" width="58.264" height="17.483"/>
	<rect x="75.748" y="0.716" fill="#231F20" width="17.479" height="92.158"/>
	<rect x="113.069" y="0.716" fill="#231F20" width="17.477" height="92.158"/>
	<rect x="150.388" y="0.716" fill="#231F20" width="17.486" height="92.158"/>
	<rect x="185.358" y="75.359" fill="#231F20" width="58.262" height="17.483"/>
	<rect x="185.358" y="38.041" fill="#231F20" width="58.262" height="17.475"/>
	<rect x="185.358" y="0.716" fill="#231F20" width="58.262" height="17.483"/>
	<rect x="441.73" y="75.359" fill="#231F20" width="58.27" height="17.483"/>
	<rect x="441.73" y="38.038" fill="#231F20" width="58.27" height="17.474"/>
	<rect x="441.73" y="0.713" fill="#231F20" width="58.27" height="17.483"/>
</g>
</svg>
