<?xml version="1.0" encoding="utf-8"?>
<!-- Generator: Adobe Illustrator 16.0.0, SVG Export Plug-In . SVG Version: 6.00 Build 0)  -->
<!DOCTYPE svg PUBLIC "-//W3C//DTD SVG 1.1//EN" "http://www.w3.org/Graphics/SVG/1.1/DTD/svg11.dtd">
<svg version="1.1" id="Layer_1" xmlns="http://www.w3.org/2000/svg" xmlns:xlink="http://www.w3.org/1999/xlink" x="0px" y="0px"
	 width="50px" height="50px" viewBox="0 0 50 50" enable-background="new 0 0 50 50" xml:space="preserve">
<g transform="translate(0,-952.36218)">
	<path d="M15.8,959.562v22.6c0,1.144-0.434,2.191-1.137,3H38.6c1.884,0,3.2-1.316,3.2-3.2v-22.399H15.8z M31,963.562h6.4
		c0.443,0,0.8,0.356,0.8,0.8s-0.356,0.8-0.8,0.8H31c-0.443,0-0.8-0.356-0.8-0.8S30.557,963.562,31,963.562z M8.2,964.362v17.8
		c0,1.662,1.338,3,3,3c1.662,0,3-1.338,3-3v-17.8H8.2z M20.2,964.362H26.6v5.6H20.2V964.362z M31,969.162h6.4
		c0.443,0,0.8,0.357,0.8,0.8c0,0.443-0.356,0.8-0.8,0.8H31c-0.443,0-0.8-0.357-0.8-0.8C30.2,969.519,30.557,969.162,31,969.162z
		 M20.2,974.362h17.2c0.443,0,0.8,0.357,0.8,0.8c0,0.443-0.356,0.8-0.8,0.8H20.2c-0.443,0-0.8-0.357-0.8-0.8
		C19.4,974.719,19.757,974.362,20.2,974.362z M20.2,979.562h17.2c0.443,0,0.8,0.356,0.8,0.8s-0.356,0.8-0.8,0.8H20.2
		c-0.443,0-0.8-0.356-0.8-0.8S19.757,979.562,20.2,979.562z"/>
</g>
</svg>
