<?xml version="1.0" encoding="utf-8"?>
<!-- Generator: Adobe Illustrator 16.0.0, SVG Export Plug-In . SVG Version: 6.00 Build 0)  -->
<!DOCTYPE svg PUBLIC "-//W3C//DTD SVG 1.1//EN" "http://www.w3.org/Graphics/SVG/1.1/DTD/svg11.dtd">
<svg version="1.1" id="Isolation_Mode" xmlns="http://www.w3.org/2000/svg" xmlns:xlink="http://www.w3.org/1999/xlink" x="0px"
	 y="0px" width="841.89px" height="595.276px" viewBox="0 0 841.89 595.276" enable-background="new 0 0 841.89 595.276"
	 xml:space="preserve">
<path  d="M448.715,312.928l0.059,68.668l-16.624-16.625l0.017-35.502L448.715,312.928z M449.812,310.276
	l-18.747,18.738l-0.017,36.412l18.828,18.828L449.812,310.276z"/>
<path  d="M399.264,311.375l-8.4,38.941l-14.818-16.704l4.84-22.237H399.264z M400.627,310.276H380l-5.148,23.648
	l16.629,18.746L400.627,310.276z"/>
<path  d="M249.264,311.375l16.893,72.16h-17.729l-16.044-72.16H249.264z M250.136,310.276h-19.123l16.533,74.359
	h19.998L250.136,310.276z"/>
<path  d="M290.953,311.375l27.775,72.16h-18.776l-15.661-41.635l-1.036-2.756l-1.025,2.76l-15.451,41.631h-17.627
	l28-72.16H290.953z M291.708,310.276h-15.309l-28.853,74.359h19.998l15.718-42.348l15.929,42.348h21.139L291.708,310.276z"/>
<path  d="M334.422,311.375l-14.987,72.16h-18.856l16.943-72.16H334.422z M335.774,310.276h-19.123l-17.46,74.359
	h21.139L335.774,310.276z"/>
<path  d="M408.435,335.014l14.177,16.551h-30.637l-14.677-16.551H408.435z M408.941,333.915h-34.089l16.629,18.75
	h33.523L408.941,333.915z"/>
<path  d="M409.545,336.304l14.267,16.651l-6.613,30.58h-17.934L409.545,336.304z M408.941,333.909l-11.042,50.728
	h20.188l6.917-31.981L408.941,333.909z"/>
<path  d="M489.197,332.077l-44.963,44.979l-11.63-11.63l33.356-33.35H489.197z M491.852,330.976h-26.348
	l-34.455,34.45l13.186,13.186L491.852,330.976z"/>
<path  d="M501.799,366.526l-16.636,16.627h-34.831l-16.628-16.627H501.799z M504.454,365.426h-73.405l18.827,18.827
	h35.742L504.454,365.426z"/>
<path  d="M364.894,316.09l13.974,67.445h-25.873L364.894,316.09z M364.807,310.25l-13.123,74.385h28.535
	L364.807,310.25z"/>
<path  d="M361.518,311.375l-12.735,72.16H331.18l14.998-72.16H361.518z M362.829,310.276h-17.546l-15.455,74.359
	h19.878L362.829,310.276z"/>
<path  d="M485.701,311.375l12.045,12.146l-4.394,4.393h-59.631l16.546-16.539H485.701z M486.16,310.276h-36.348
	l-18.747,18.738h62.743l5.49-5.489L486.16,310.276z"/>
<path  d="M354.719,278.919l7.458,26.517h-14.916L354.719,278.919z M354.719,274.856l-8.91,31.68h17.82
	L354.719,274.856z"/>
</svg>
