<?xml version="1.0" encoding="utf-8"?>
<!-- Generator: Adobe Illustrator 16.0.0, SVG Export Plug-In . SVG Version: 6.00 Build 0)  -->
<!DOCTYPE svg PUBLIC "-//W3C//DTD SVG 1.1//EN" "http://www.w3.org/Graphics/SVG/1.1/DTD/svg11.dtd">
<svg version="1.1" id="Layer_1" xmlns="http://www.w3.org/2000/svg" xmlns:xlink="http://www.w3.org/1999/xlink" x="0px" y="0px"
	 width="256px" height="256px" viewBox="0 0 256 256" enable-background="new 0 0 256 256" xml:space="preserve">
<path fill="#FFFFFF" d="M104.452,165.566l5.97,14.837c-5.771,2.277-11.498,4.046-17.114,5.195l-3.228-15.632
	C94.745,168.949,99.587,167.513,104.452,165.566z M56.869,184.714c5.859,1.703,12.028,2.609,18.33,2.721l0.265-16.031
	c-4.931-0.066-9.663-0.752-14.173-2.056L56.869,184.714z M182.835,156.811c4.621,0.906,9.109,2.477,13.399,4.665l7.318-14.195
	c-5.594-2.896-11.542-4.975-17.6-6.168L182.835,156.811z M149.47,143.677l4.776,15.234c4.886-1.525,9.729-2.498,14.394-2.875
	l-1.282-15.941C161.498,140.56,155.506,141.775,149.47,143.677z M123.777,155.705c-1.813,1.128-3.582,2.145-5.307,3.14l7.805,13.952
	c1.945-1.083,3.936-2.255,5.926-3.493c2.786-1.703,5.439-3.207,8.093-4.577l-7.274-14.239
	C130.034,152.013,126.938,153.759,123.777,155.705z M167.998,56.007c0,6.545-1.569,12.691-4.333,18.153L128,144.009
	c0,0-35.952-70.446-36.085-70.733c-2.499-5.218-3.914-11.1-3.914-17.269c0-22.111,17.91-40.021,39.999-40.021
	S167.998,33.896,167.998,56.007z M152.013,56.007c0-13.267-10.769-24.013-24.013-24.013s-24.013,10.746-24.013,24.013
	c0,13.223,10.769,23.99,24.013,23.99S152.013,69.229,152.013,56.007z M207.997,96.006h-37.544l-8.159,15.986h34.184l17.269,51.828
	l-5.527,6.104c5.859,5.307,8.91,10.17,8.954,10.215l1.681-1.018l14.947,44.886H22.177l16.052-48.048
	c0.531,0.398,0.973,0.774,1.614,1.172l8.513-13.554c-1.924-1.193-3.493-2.388-4.864-3.493l16.03-48.091h34.184
	c-3.383-6.611-6.036-11.851-8.159-15.986H47.98L0,240.014h256L207.997,96.006z"/>
</svg>
