<?xml version="1.0" encoding="utf-8"?>
<!-- Generator: Adobe Illustrator 16.0.0, SVG Export Plug-In . SVG Version: 6.00 Build 0)  -->
<!DOCTYPE svg PUBLIC "-//W3C//DTD SVG 1.1//EN" "http://www.w3.org/Graphics/SVG/1.1/DTD/svg11.dtd">
<svg version="1.1" id="Layer_1" xmlns="http://www.w3.org/2000/svg" xmlns:xlink="http://www.w3.org/1999/xlink" x="0px" y="0px"
	 width="500px" height="151.768px" viewBox="0 0 500 151.768" enable-background="new 0 0 500 151.768" xml:space="preserve">
<g>
	<g>
		<g>
			<defs>
				<polygon id="SVGID_1_" points="276.323,75.01 302.371,48.969 302.463,151.774 276.296,125.608 				"/>
			</defs>
			<clipPath id="SVGID_2_">
				<use xlink:href="#SVGID_1_"  overflow="visible"/>
			</clipPath>
			
				<linearGradient id="SVGID_3_" gradientUnits="userSpaceOnUse" x1="-160.4341" y1="190.2598" x2="-159.0513" y2="190.2598" gradientTransform="matrix(18.9243 0 0 -18.9243 3312.4062 3700.8848)">
				<stop  offset="0" style="stop-color:#710A75"/>
				<stop  offset="1" style="stop-color:#DA57B0"/>
			</linearGradient>
			<rect x="276.296" y="48.969" clip-path="url(#SVGID_2_)" fill="url(#SVGID_3_)" width="26.167" height="102.806"/>
		</g>
		<g>
			<defs>
				<polygon id="SVGID_4_" points="205.983,48.969 234.5,48.969 221.851,107.581 198.861,81.664 				"/>
			</defs>
			<clipPath id="SVGID_5_">
				<use xlink:href="#SVGID_4_"  overflow="visible"/>
			</clipPath>
			
				<linearGradient id="SVGID_6_" gradientUnits="userSpaceOnUse" x1="-168.0347" y1="205.5156" x2="-166.6519" y2="205.5156" gradientTransform="matrix(-23.9825 30.6237 30.6237 23.9825 -10085.4209 267.9082)">
				<stop  offset="0" style="stop-color:#F09E36"/>
				<stop  offset="1" style="stop-color:#E96B00"/>
			</linearGradient>
			<polygon clip-path="url(#SVGID_5_)" fill="url(#SVGID_6_)" points="262.948,71.25 220.953,124.877 170.407,85.3 212.412,31.667 
							"/>
		</g>
		<g>
			<defs>
				<polygon id="SVGID_7_" points="0,48.969 26.439,48.969 50.511,151.774 22.86,151.774 				"/>
			</defs>
			<clipPath id="SVGID_8_">
				<use xlink:href="#SVGID_7_"  overflow="visible"/>
			</clipPath>
			
				<linearGradient id="SVGID_9_" gradientUnits="userSpaceOnUse" x1="-166.6543" y1="194.8428" x2="-165.2715" y2="194.8428" gradientTransform="matrix(36.531 0 0 -36.531 6088.0312 7218.1758)">
				<stop  offset="0" style="stop-color:#309EFF"/>
				<stop  offset="1" style="stop-color:#004CFF"/>
			</linearGradient>
			<rect y="48.969" clip-path="url(#SVGID_8_)" fill="url(#SVGID_9_)" width="50.511" height="102.806"/>
		</g>
		<g>
			<defs>
				<polygon id="SVGID_10_" points="22.86,151.774 62.75,48.969 83.917,48.969 123.481,151.774 94.258,151.774 72.238,93.222 
					50.511,151.774 				"/>
			</defs>
			<clipPath id="SVGID_11_">
				<use xlink:href="#SVGID_10_"  overflow="visible"/>
			</clipPath>
			
				<linearGradient id="SVGID_12_" gradientUnits="userSpaceOnUse" x1="-167.7407" y1="197.291" x2="-166.3584" y2="197.291" gradientTransform="matrix(72.7848 0 0 -72.7848 12231.8125 14460.1777)">
				<stop  offset="0" style="stop-color:#309EFF"/>
				<stop  offset="1" style="stop-color:#004CFF"/>
			</linearGradient>
			<rect x="22.86" y="48.969" clip-path="url(#SVGID_11_)" fill="url(#SVGID_12_)" width="100.622" height="102.806"/>
		</g>
		<g>
			<defs>
				<polygon id="SVGID_13_" points="118.401,48.969 144.839,48.969 123.481,151.774 94.258,151.774 				"/>
			</defs>
			<clipPath id="SVGID_14_">
				<use xlink:href="#SVGID_13_"  overflow="visible"/>
			</clipPath>
			
				<linearGradient id="SVGID_15_" gradientUnits="userSpaceOnUse" x1="-165.9443" y1="194.8525" x2="-164.5615" y2="194.8525" gradientTransform="matrix(36.5834 0 0 -36.5834 6165.0625 7228.7412)">
				<stop  offset="0" style="stop-color:#309EFF"/>
				<stop  offset="1" style="stop-color:#004CFF"/>
			</linearGradient>
			<rect x="94.258" y="48.969" clip-path="url(#SVGID_14_)" fill="url(#SVGID_15_)" width="50.582" height="102.806"/>
		</g>
		<g>
			<defs>
				<polygon id="SVGID_16_" points="198.861,81.651 245.997,81.651 268.201,107.575 221.851,107.575 				"/>
			</defs>
			<clipPath id="SVGID_17_">
				<use xlink:href="#SVGID_16_"  overflow="visible"/>
			</clipPath>
			
				<linearGradient id="SVGID_18_" gradientUnits="userSpaceOnUse" x1="-166.1987" y1="196.208" x2="-164.8164" y2="196.208" gradientTransform="matrix(50.1513 0 0 -50.1513 8533.9375 9934.6777)">
				<stop  offset="0" style="stop-color:#F09E36"/>
				<stop  offset="1" style="stop-color:#E96B00"/>
			</linearGradient>
			<rect x="198.861" y="81.651" clip-path="url(#SVGID_17_)" fill="url(#SVGID_18_)" width="69.34" height="25.924"/>
		</g>
		<g>
			<defs>
				<polygon id="SVGID_19_" points="245.997,81.64 230.727,151.774 258.64,151.774 268.201,107.558 				"/>
			</defs>
			<clipPath id="SVGID_20_">
				<use xlink:href="#SVGID_19_"  overflow="visible"/>
			</clipPath>
			
				<linearGradient id="SVGID_21_" gradientUnits="userSpaceOnUse" x1="-173.0586" y1="195.126" x2="-171.676" y2="195.126" gradientTransform="matrix(8.2044 -39.5305 -39.5305 -8.2044 9372.1523 -5072.6455)">
				<stop  offset="0" style="stop-color:#F09E36"/>
				<stop  offset="1" style="stop-color:#E96B00"/>
			</linearGradient>
			<polygon clip-path="url(#SVGID_20_)" fill="url(#SVGID_21_)" points="216.773,148.875 232.277,74.186 282.154,84.536 
				266.649,159.229 			"/>
		</g>
		<g>
			<defs>
				<polygon id="SVGID_22_" points="276.296,125.608 294.622,143.933 360.794,77.737 324.178,77.737 				"/>
			</defs>
			<clipPath id="SVGID_23_">
				<use xlink:href="#SVGID_22_"  overflow="visible"/>
			</clipPath>
			
				<linearGradient id="SVGID_24_" gradientUnits="userSpaceOnUse" x1="-166.603" y1="197.0459" x2="-165.2202" y2="197.0459" gradientTransform="matrix(67.3975 0 0 -67.3975 11504.9688 13391.2109)">
				<stop  offset="0" style="stop-color:#67006B"/>
				<stop  offset="1" style="stop-color:#DA57B0"/>
			</linearGradient>
			<rect x="276.296" y="77.737" clip-path="url(#SVGID_23_)" fill="url(#SVGID_24_)" width="84.498" height="66.195"/>
		</g>
		<g>
			<defs>
				<polygon id="SVGID_25_" points="378.309,125.608 276.296,125.608 302.463,151.774 352.131,151.774 				"/>
			</defs>
			<clipPath id="SVGID_26_">
				<use xlink:href="#SVGID_25_"  overflow="visible"/>
			</clipPath>
			
				<linearGradient id="SVGID_27_" gradientUnits="userSpaceOnUse" x1="-166.8115" y1="197.1758" x2="-165.4292" y2="197.1758" gradientTransform="matrix(73.7847 0 0 -73.7847 12584.5 14687.2305)">
				<stop  offset="0" style="stop-color:#67006B"/>
				<stop  offset="1" style="stop-color:#DA57B0"/>
			</linearGradient>
			<rect x="276.296" y="125.608" clip-path="url(#SVGID_26_)" fill="url(#SVGID_27_)" width="102.013" height="26.166"/>
		</g>
		<g>
			<defs>
				<polygon id="SVGID_28_" points="166.529,151.774 205.983,151.774 184.672,48.935 				"/>
			</defs>
			<clipPath id="SVGID_29_">
				<use xlink:href="#SVGID_28_"  overflow="visible"/>
			</clipPath>
			
				<linearGradient id="SVGID_30_" gradientUnits="userSpaceOnUse" x1="-163.9453" y1="200.5146" x2="-162.5628" y2="200.5146" gradientTransform="matrix(22.0318 37.0869 37.0869 -22.0318 -3650.6709 10577.3613)">
				<stop  offset="0" style="stop-color:#F37478"/>
				<stop  offset="1" style="stop-color:#B91A1A"/>
			</linearGradient>
			<polygon clip-path="url(#SVGID_29_)" fill="url(#SVGID_30_)" points="195.686,31.608 251.137,124.951 176.824,169.101 
				121.37,75.756 			"/>
		</g>
		<g>
			<defs>
				<polygon id="SVGID_31_" points="157.986,48.969 136.62,151.774 164.092,151.774 182.241,48.969 				"/>
			</defs>
			<clipPath id="SVGID_32_">
				<use xlink:href="#SVGID_31_"  overflow="visible"/>
			</clipPath>
			
				<linearGradient id="SVGID_33_" gradientUnits="userSpaceOnUse" x1="-170.4028" y1="197.1172" x2="-169.0206" y2="197.1172" gradientTransform="matrix(38.8759 -65.649 -65.649 -38.8759 19690.9512 -3366.5811)">
				<stop  offset="0" style="stop-color:#F37478"/>
				<stop  offset="1" style="stop-color:#B91A1A"/>
			</linearGradient>
			<polygon clip-path="url(#SVGID_32_)" fill="url(#SVGID_33_)" points="91.547,125.08 148.462,28.968 227.311,75.66 
				170.395,171.778 			"/>
		</g>
		<g>
			<defs>
				<polygon id="SVGID_34_" points="352.882,48.969 302.371,48.969 276.323,75.01 363.512,75.01 371.138,67.381 				"/>
			</defs>
			<clipPath id="SVGID_35_">
				<use xlink:href="#SVGID_34_"  overflow="visible"/>
			</clipPath>
			
				<linearGradient id="SVGID_36_" gradientUnits="userSpaceOnUse" x1="-166.6416" y1="197.2949" x2="-165.2588" y2="197.2949" gradientTransform="matrix(68.5856 0 0 -68.5856 11705.5 13593.5371)">
				<stop  offset="0" style="stop-color:#67006B"/>
				<stop  offset="1" style="stop-color:#DA57B0"/>
			</linearGradient>
			<rect x="276.323" y="48.969" clip-path="url(#SVGID_35_)" fill="url(#SVGID_36_)" width="94.814" height="26.041"/>
		</g>
		<g>
			<defs>
				<polygon id="SVGID_37_" points="171.029,0 158.709,43.799 183.351,43.799 				"/>
			</defs>
			<clipPath id="SVGID_38_">
				<use xlink:href="#SVGID_37_"  overflow="visible"/>
			</clipPath>
			
				<linearGradient id="SVGID_39_" gradientUnits="userSpaceOnUse" x1="-161.7451" y1="190.8711" x2="-160.3623" y2="190.8711" gradientTransform="matrix(17.82 0 0 -17.82 3041.0156 3423.2192)">
				<stop  offset="0" style="stop-color:#B91A1A"/>
				<stop  offset="1" style="stop-color:#F37478"/>
			</linearGradient>
			<rect x="158.709" clip-path="url(#SVGID_38_)" fill="url(#SVGID_39_)" width="24.642" height="43.799"/>
		</g>
	</g>
	<g>
		<g>
			<defs>
				<polygon id="SVGID_40_" points="395.477,73.779 395.663,73.779 402.364,66.77 389.102,66.77 389.102,80.182 395.477,74.008 				
					"/>
			</defs>
			<clipPath id="SVGID_41_">
				<use xlink:href="#SVGID_40_"  overflow="visible"/>
			</clipPath>
			
				<linearGradient id="SVGID_42_" gradientUnits="userSpaceOnUse" x1="-148.8843" y1="196.2275" x2="-147.5015" y2="196.2275" gradientTransform="matrix(9.591 0 0 -9.591 1817.0469 1955.4951)">
				<stop  offset="0" style="stop-color:#309EFF"/>
				<stop  offset="1" style="stop-color:#004CFF"/>
			</linearGradient>
			<rect x="389.102" y="66.77" clip-path="url(#SVGID_41_)" fill="url(#SVGID_42_)" width="13.263" height="13.412"/>
		</g>
		<g>
			<defs>
				<polygon id="SVGID_43_" points="415.223,48.935 389.102,48.935 389.102,55.939 408.855,55.939 408.855,60.729 415.223,54.167 
									"/>
			</defs>
			<clipPath id="SVGID_44_">
				<use xlink:href="#SVGID_43_"  overflow="visible"/>
			</clipPath>
			
				<linearGradient id="SVGID_45_" gradientUnits="userSpaceOnUse" x1="-158.7773" y1="198.2559" x2="-157.395" y2="198.2559" gradientTransform="matrix(18.8944 0 0 -18.8944 3389.0938 3800.7656)">
				<stop  offset="0" style="stop-color:#309EFF"/>
				<stop  offset="1" style="stop-color:#004CFF"/>
			</linearGradient>
			<rect x="389.102" y="48.935" clip-path="url(#SVGID_44_)" fill="url(#SVGID_45_)" width="26.121" height="11.794"/>
		</g>
		<g>
			<defs>
				<polygon id="SVGID_46_" points="395.477,86.52 395.477,86.751 389.102,80.578 389.102,93.528 402.465,93.528 395.508,86.52 				
					"/>
			</defs>
			<clipPath id="SVGID_47_">
				<use xlink:href="#SVGID_46_"  overflow="visible"/>
			</clipPath>
			
				<linearGradient id="SVGID_48_" gradientUnits="userSpaceOnUse" x1="-149.041" y1="195.8633" x2="-147.6587" y2="195.8633" gradientTransform="matrix(9.6651 0 0 -9.6651 1829.6016 1980.082)">
				<stop  offset="0" style="stop-color:#309EFF"/>
				<stop  offset="1" style="stop-color:#004CFF"/>
			</linearGradient>
			<rect x="389.102" y="80.578" clip-path="url(#SVGID_47_)" fill="url(#SVGID_48_)" width="13.363" height="12.95"/>
		</g>
		<g>
			<defs>
				<polygon id="SVGID_49_" points="415.223,86.52 395.508,86.52 402.465,93.528 415.223,93.528 				"/>
			</defs>
			<clipPath id="SVGID_50_">
				<use xlink:href="#SVGID_49_"  overflow="visible"/>
			</clipPath>
			
				<linearGradient id="SVGID_51_" gradientUnits="userSpaceOnUse" x1="-155.3149" y1="197.1016" x2="-153.9326" y2="197.1016" gradientTransform="matrix(14.262 0 0 -14.262 2610.6016 2901.1045)">
				<stop  offset="0" style="stop-color:#309EFF"/>
				<stop  offset="1" style="stop-color:#004CFF"/>
			</linearGradient>
			<rect x="395.508" y="86.52" clip-path="url(#SVGID_50_)" fill="url(#SVGID_51_)" width="19.715" height="7.009"/>
		</g>
		<g>
			<defs>
				<polygon id="SVGID_52_" points="415.223,73.779 415.223,54.167 408.855,60.729 408.855,66.77 402.364,66.77 395.663,73.779 				
					"/>
			</defs>
			<clipPath id="SVGID_53_">
				<use xlink:href="#SVGID_52_"  overflow="visible"/>
			</clipPath>
			
				<linearGradient id="SVGID_54_" gradientUnits="userSpaceOnUse" x1="-155.2139" y1="197.584" x2="-153.832" y2="197.584" gradientTransform="matrix(14.1545 0 0 -14.1545 2592.6328 2860.6807)">
				<stop  offset="0" style="stop-color:#309EFF"/>
				<stop  offset="1" style="stop-color:#004CFF"/>
			</linearGradient>
			<rect x="395.663" y="54.167" clip-path="url(#SVGID_53_)" fill="url(#SVGID_54_)" width="19.56" height="19.612"/>
		</g>
		<g>
			<defs>
				<polygon id="SVGID_55_" points="395.477,74.008 389.102,80.182 389.102,80.578 395.477,86.751 				"/>
			</defs>
			<clipPath id="SVGID_56_">
				<use xlink:href="#SVGID_55_"  overflow="visible"/>
			</clipPath>
			
				<linearGradient id="SVGID_57_" gradientUnits="userSpaceOnUse" x1="-127.1025" y1="192.0195" x2="-125.7192" y2="192.0195" gradientTransform="matrix(4.6084 0 0 -4.6084 974.8438 965.282)">
				<stop  offset="0" style="stop-color:#309EFF"/>
				<stop  offset="1" style="stop-color:#004CFF"/>
			</linearGradient>
			<rect x="389.102" y="74.008" clip-path="url(#SVGID_56_)" fill="url(#SVGID_57_)" width="6.375" height="12.743"/>
		</g>
		<g>
			<defs>
				<polygon id="SVGID_58_" points="420.326,93.528 431.782,93.528 420.326,82.362 				"/>
			</defs>
			<clipPath id="SVGID_59_">
				<use xlink:href="#SVGID_58_"  overflow="visible"/>
			</clipPath>
			
				<linearGradient id="SVGID_60_" gradientUnits="userSpaceOnUse" x1="-144.7104" y1="195.1582" x2="-143.3281" y2="195.1582" gradientTransform="matrix(8.2894 0 0 -8.2894 1619.8828 1705.6921)">
				<stop  offset="0" style="stop-color:#F37478"/>
				<stop  offset="1" style="stop-color:#B91A1A"/>
			</linearGradient>
			<rect x="420.326" y="82.362" clip-path="url(#SVGID_59_)" fill="url(#SVGID_60_)" width="11.456" height="11.166"/>
		</g>
		<g>
			<defs>
				<polygon id="SVGID_61_" points="426.695,55.939 440.076,55.939 440.076,62.005 446.447,55.441 446.447,49.571 420.326,49.571 
					420.326,81.505 426.695,75.331 				"/>
			</defs>
			<clipPath id="SVGID_62_">
				<use xlink:href="#SVGID_61_"  overflow="visible"/>
			</clipPath>
			
				<linearGradient id="SVGID_63_" gradientUnits="userSpaceOnUse" x1="-176.4609" y1="195.2705" x2="-175.0784" y2="195.2705" gradientTransform="matrix(-18.4217 -15.8228 -15.8228 18.4217 286.9258 -6311.2969)">
				<stop  offset="0" style="stop-color:#F37478"/>
				<stop  offset="1" style="stop-color:#B91A1A"/>
			</linearGradient>
			<polygon clip-path="url(#SVGID_62_)" fill="url(#SVGID_63_)" points="435.355,94.416 404.541,67.944 431.417,36.655 
				462.231,63.124 			"/>
		</g>
		<g>
			<defs>
				<polygon id="SVGID_64_" points="446.447,55.441 440.076,62.005 440.076,86.52 426.695,86.52 426.695,75.331 420.326,81.505 
					420.326,82.362 431.782,93.528 446.447,93.528 				"/>
			</defs>
			<clipPath id="SVGID_65_">
				<use xlink:href="#SVGID_64_"  overflow="visible"/>
			</clipPath>
			
				<linearGradient id="SVGID_66_" gradientUnits="userSpaceOnUse" x1="-158.3208" y1="197.9678" x2="-156.9385" y2="197.9678" gradientTransform="matrix(18.8944 0 0 -18.8944 3411.6875 3814.9844)">
				<stop  offset="0" style="stop-color:#F37478"/>
				<stop  offset="1" style="stop-color:#B91A1A"/>
			</linearGradient>
			<rect x="420.326" y="55.441" clip-path="url(#SVGID_65_)" fill="url(#SVGID_66_)" width="26.121" height="38.087"/>
		</g>
		<g>
			<defs>
				<polygon id="SVGID_67_" points="499.968,66.77 487.396,66.77 499.968,79.866 				"/>
			</defs>
			<clipPath id="SVGID_68_">
				<use xlink:href="#SVGID_67_"  overflow="visible"/>
			</clipPath>
			
				<linearGradient id="SVGID_69_" gradientUnits="userSpaceOnUse" x1="-144.7822" y1="196.0371" x2="-143.3994" y2="196.0371" gradientTransform="matrix(9.0896 0 0 -9.0896 1803.4062 1855.2166)">
				<stop  offset="0" style="stop-color:#67006B"/>
				<stop  offset="1" style="stop-color:#DA57B0"/>
			</linearGradient>
			<rect x="487.396" y="66.77" clip-path="url(#SVGID_68_)" fill="url(#SVGID_69_)" width="12.571" height="13.097"/>
		</g>
		<g>
			<defs>
				<polygon id="SVGID_70_" points="480.213,55.939 499.968,55.939 499.968,48.935 473.847,48.935 473.847,53.807 480.213,59.977 
									"/>
			</defs>
			<clipPath id="SVGID_71_">
				<use xlink:href="#SVGID_70_"  overflow="visible"/>
			</clipPath>
			
				<linearGradient id="SVGID_72_" gradientUnits="userSpaceOnUse" x1="-157.5459" y1="198.251" x2="-156.1631" y2="198.251" gradientTransform="matrix(18.8944 0 0 -18.8944 3450.5625 3800.3125)">
				<stop  offset="0" style="stop-color:#67006B"/>
				<stop  offset="1" style="stop-color:#DA57B0"/>
			</linearGradient>
			<rect x="473.847" y="48.935" clip-path="url(#SVGID_71_)" fill="url(#SVGID_72_)" width="26.121" height="11.042"/>
		</g>
		<g>
			<defs>
				<polygon id="SVGID_73_" points="499.968,80.888 487.299,93.528 499.968,93.528 				"/>
			</defs>
			<clipPath id="SVGID_74_">
				<use xlink:href="#SVGID_73_"  overflow="visible"/>
			</clipPath>
			
				<linearGradient id="SVGID_75_" gradientUnits="userSpaceOnUse" x1="-144.9854" y1="195.6426" x2="-143.603" y2="195.6426" gradientTransform="matrix(9.1639 0 0 -9.1639 1815.9297 1880.0537)">
				<stop  offset="0" style="stop-color:#67006B"/>
				<stop  offset="1" style="stop-color:#DA57B0"/>
			</linearGradient>
			<rect x="487.299" y="80.888" clip-path="url(#SVGID_74_)" fill="url(#SVGID_75_)" width="12.669" height="12.641"/>
		</g>
		<g>
			<defs>
				<path id="SVGID_76_" d="M499.968,79.866L487.396,66.77h-7.184v-6.793l-6.366-6.17v39.722h13.452l12.669-12.641V79.866z
					 M480.213,73.779h13.381v12.744h-13.381V73.779z"/>
			</defs>
			<clipPath id="SVGID_77_">
				<use xlink:href="#SVGID_76_"  overflow="visible"/>
			</clipPath>
			
				<linearGradient id="SVGID_78_" gradientUnits="userSpaceOnUse" x1="-154.5049" y1="190.8145" x2="-153.1223" y2="190.8145" gradientTransform="matrix(11.9668 -4.8327 -4.8327 -11.9668 3245.3706 1615.5244)">
				<stop  offset="0" style="stop-color:#67006B"/>
				<stop  offset="1" style="stop-color:#DA57B0"/>
			</linearGradient>
			<polygon clip-path="url(#SVGID_77_)" fill="url(#SVGID_78_)" points="460.053,59.377 496.303,44.737 513.759,87.959 
				477.505,102.603 			"/>
		</g>
		<g>
			<defs>
				<polygon id="SVGID_79_" points="463.65,48.935 451.539,48.935 451.539,55.939 457.274,55.939 457.274,71.426 463.65,64.861 				
					"/>
			</defs>
			<clipPath id="SVGID_80_">
				<use xlink:href="#SVGID_79_"  overflow="visible"/>
			</clipPath>
			
				<linearGradient id="SVGID_81_" gradientUnits="userSpaceOnUse" x1="-183.4053" y1="191.25" x2="-182.0229" y2="191.25" gradientTransform="matrix(-10.0294 -8.2685 -8.2685 10.0294 211.2966 -3364.6995)">
				<stop  offset="0" style="stop-color:#F09E36"/>
				<stop  offset="1" style="stop-color:#E96B00"/>
			</linearGradient>
			<polygon clip-path="url(#SVGID_80_)" fill="url(#SVGID_81_)" points="458.751,77.37 440.502,62.326 456.442,42.989 
				474.686,58.035 			"/>
		</g>
		<g>
			<defs>
				<polygon id="SVGID_82_" points="451.539,86.52 451.539,93.528 470.021,93.528 470.021,86.52 463.65,86.52 463.65,64.861 
					457.274,71.426 457.274,86.52 				"/>
			</defs>
			<clipPath id="SVGID_83_">
				<use xlink:href="#SVGID_82_"  overflow="visible"/>
			</clipPath>
			
				<linearGradient id="SVGID_84_" gradientUnits="userSpaceOnUse" x1="-178.6445" y1="214.0693" x2="-177.262" y2="214.0693" gradientTransform="matrix(-8.4169 9.1751 9.1751 8.4169 -3002.4065 -88.4919)">
				<stop  offset="0" style="stop-color:#F09E36"/>
				<stop  offset="1" style="stop-color:#E96B00"/>
			</linearGradient>
			<polygon clip-path="url(#SVGID_83_)" fill="url(#SVGID_84_)" points="484.304,77.965 461.58,102.738 437.258,80.431 
				459.988,55.659 			"/>
		</g>
	</g>
</g>
</svg>
